<?xml version="1.0" encoding="utf-8"?>
<!-- Generator: Adobe Illustrator 22.1.0, SVG Export Plug-In . SVG Version: 6.00 Build 0)  -->
<svg version="1.1" id="Layer_1" xmlns="http://www.w3.org/2000/svg" xmlns:xlink="http://www.w3.org/1999/xlink" x="0px" y="0px"
	 viewBox="0 0 243.9 258.5" style="enable-background:new 0 0 243.9 258.5;" xml:space="preserve">
<style type="text/css">
	.st0{fill:#182443;}
	.st1{fill:#FFFFFF;}
</style>
<rect x="27" y="36.3" class="st0" width="189.2" height="190.4"/>
<g>
	<polygon class="st1" points="197.8,56.7 147,56.7 147,99.5 147,117.1 197.8,117.1 	"/>
	<path class="st1" d="M197.8,131.5V124H147v1.1L88.2,56.7H45.3v23l32,37.5h-32v6.9h37.9l6.4,7.5H45.3v6.9h50.2l6.4,7.5H45.3v6.9
		h62.5l6.4,7.5H45.3v6.9H120l34.9,40.9h42.9v-23.9l0,0v-0.3v-0.8l0,0v-16h-14.1c-2-2.3-4.1-4.6-6.1-6.9h20.2v-7.5H171
		c-1.7-1.9-3.4-3.8-5-5.7l-1-1.1h32.9v-7.5h-39.3l-6-7H197.8z"/>
</g>
</svg>
