<svg xmlns="http://www.w3.org/2000/svg" viewBox="0 0 258 164"><defs><style>.cls-1{fill:#1e5748;}.cls-1,.cls-2{stroke:#1e5748;stroke-linejoin:round;stroke-width:2px;}.cls-2{fill:none;}.cls-3{fill:#205849;}.cls-4{fill:#fff;}</style></defs><title>allInclusiveChequingAccount-Compare</title><g id="ARTWORK"><path class="cls-1" d="M174.57,94.34l50.2-44.91a6.8,6.8,0,0,0,.49-9.58,6.73,6.73,0,0,0-9.54-.5L165.51,84.26Z"/><path class="cls-2" d="M165.51,84.26l-14.18,21.55s22.75-11.39,23.24-11.47Z"/><path class="cls-3" d="M72,84.26a1.57,1.57,0,0,1,0-3.13l104.24-.37h0a1.56,1.56,0,0,1,1.56,1.56,1.58,1.58,0,0,1-1.56,1.57L72,84.26Z"/><path class="cls-3" d="M72,96.77a1.57,1.57,0,0,1,0-3.13l84.17-.37h2.93c.86,0-1.37.7-1.36,1.56a1.57,1.57,0,0,1-1.56,1.57L72,96.77Z"/><path class="cls-3" d="M119.71,123.19a14.85,14.85,0,0,1-7.52-1.83l-.19-.12c-5,2.57-10.31,2.35-16-.67a.78.78,0,0,1,.73-1.38c5,2.65,9.56,3,13.89,1a8.11,8.11,0,0,1-2.37-7.19,8.56,8.56,0,0,1,2.35-4.83,6.54,6.54,0,0,1,5.74-1.68,4.65,4.65,0,0,1,3.45,2.68c1,2.35.29,5.2-1.84,7.44a24,24,0,0,1-4.41,3.73,15.75,15.75,0,0,0,9.79.93,20.88,20.88,0,0,0,5.91-2.35c-.13-.16-.26-.33-.38-.5a9.59,9.59,0,0,1-2.12-7,6.13,6.13,0,0,1,7.77-4.78,4.08,4.08,0,0,1,2.84,2.49,5.7,5.7,0,0,1-.45,4.75,18.1,18.1,0,0,1-5.23,5.3,7.94,7.94,0,0,0,4.19,2.13,12.92,12.92,0,0,0,8.72-1.77,19.6,19.6,0,0,0,7.36-6.42c.55-.76,1.54-2.94.88-4.42a2.93,2.93,0,0,0-2-1.42.78.78,0,0,1-.74-.82.76.76,0,0,1,.82-.74,4.42,4.42,0,0,1,3.37,2.34c1,2.31-.4,5.1-1,6a21.18,21.18,0,0,1-7.88,6.88,14.52,14.52,0,0,1-9.67,1.94,9.71,9.71,0,0,1-5.35-2.82,22.65,22.65,0,0,1-6.68,2.72A20.65,20.65,0,0,1,119.71,123.19Zm-4.56-15.26a5.06,5.06,0,0,0-3.44,1.36,7.18,7.18,0,0,0-1.89,4,6.57,6.57,0,0,0,2.3,6.15,22.74,22.74,0,0,0,4.73-3.87c1.69-1.79,2.28-4,1.53-5.76a3,3,0,0,0-2.32-1.75A4.68,4.68,0,0,0,115.15,107.93Zm17.64.07a4.45,4.45,0,0,0-2.42.7,4.56,4.56,0,0,0-2.06,3,8,8,0,0,0,1.84,5.75c.15.21.3.41.46.6a16.69,16.69,0,0,0,5-5,4.06,4.06,0,0,0,.32-3.36,2.55,2.55,0,0,0-1.8-1.56A5.13,5.13,0,0,0,132.79,108Z"/><polygon class="cls-4" points="81.15 61.6 81.16 61.6 81.16 61.6 81.15 61.6"/><polygon class="cls-4" points="79.12 63.64 79.12 63.64 79.12 63.64 79.12 63.64"/><path class="cls-3" d="M200.2,65.63a4.86,4.86,0,0,0-4.85-4.83h0l-113.78.12c-.13.23-.25.46-.4.68a8.78,8.78,0,0,1-2,2h0a2.38,2.38,0,0,0-1,1.91h0a2.36,2.36,0,0,0,.12.75h0a8.15,8.15,0,0,1,.2.82L194,67.05v65.69H56.31l.11-48a8.71,8.71,0,0,1-2.13-1.13h0a2.35,2.35,0,0,0-1.41-.46,2.33,2.33,0,0,0-1.4.46h0a7.86,7.86,0,0,1-1.3.78l-.12,49.78A4.85,4.85,0,0,0,54.89,139H195.37a4.87,4.87,0,0,0,4.83-4.86Z"/><path class="cls-3" d="M76.45,56.23a2.27,2.27,0,0,0-1-1.52,8.66,8.66,0,0,1-3.16-9.83,2.54,2.54,0,0,0,.12-.78,2.33,2.33,0,0,0-.71-1.65,2.57,2.57,0,0,0-1.66-.66h-.21a8.64,8.64,0,0,1-8.19-6,2.32,2.32,0,0,0-.36-.74A2.35,2.35,0,0,0,58,34.49a8.55,8.55,0,0,1-10.24,0,2.5,2.5,0,0,0-.71-.36,2.36,2.36,0,0,0-3,1.54,8.55,8.55,0,0,1-8.21,6H35.8a2.44,2.44,0,0,0-.77.13A2.3,2.3,0,0,0,33.69,43a2.32,2.32,0,0,0-.12,1.79,8.64,8.64,0,0,1-3.17,9.82,2.48,2.48,0,0,0-.56.56,2.36,2.36,0,0,0,.56,3.27,8.65,8.65,0,0,1,3.17,9.83,2.24,2.24,0,0,0-.12.78,2.33,2.33,0,0,0,.71,1.65,2.54,2.54,0,0,0,1.66.66h.1a8.65,8.65,0,0,1,8.22,6,2.21,2.21,0,0,0,.35.66,2.35,2.35,0,0,0,3.28.51,8.53,8.53,0,0,1,5.12-1.7A8.62,8.62,0,0,1,58,78.58a2.38,2.38,0,0,0,.71.36,2.33,2.33,0,0,0,2.94-1.54,8.63,8.63,0,0,1,8.43-6h0a2.28,2.28,0,0,0,.69-.12,2.34,2.34,0,0,0,1.49-3,8.7,8.7,0,0,1-.45-2.78h0a8.63,8.63,0,0,1,3.67-7,2.31,2.31,0,0,0,.54-.54A2.35,2.35,0,0,0,76.45,56.23ZM58.86,59l1.45,8.46-7.6-4-7.6,4L46.56,59l-6.15-6,8.5-1.23,3.8-7.7,3.8,7.7L65,53Z"/></g></svg>