<svg id="ARTWORK" xmlns="http://www.w3.org/2000/svg" viewBox="0 0 200 90"><defs><style>.cls-1{fill:#1e5748;}</style></defs><title>autoLoan</title><path class="cls-1" d="M108.16,23.43A5,5,0,0,0,103,19.56H68.45a5,5,0,0,0-5.19,3.87L58.39,38H113Z"/><path class="cls-1" d="M115.36,41.39A6.61,6.61,0,1,0,122,48,6.62,6.62,0,0,0,115.36,41.39Zm0,12.1A5.48,5.48,0,1,1,120.84,48,5.49,5.49,0,0,1,115.36,53.49Z"/><path class="cls-1" d="M56.37,41.39A6.61,6.61,0,1,0,63,48,6.62,6.62,0,0,0,56.37,41.39Zm0,12.1A5.48,5.48,0,1,1,61.85,48,5.49,5.49,0,0,1,56.37,53.49Z"/><path class="cls-1" d="M101.93,46.79H69.5a1.73,1.73,0,0,0,0,3.45h32.43a1.73,1.73,0,0,0,0-3.45Z"/><path class="cls-1" d="M136,76.26H38.2a1.73,1.73,0,0,0,0,3.45H136a1.73,1.73,0,0,0,0-3.45Z"/><path class="cls-1" d="M128.41,63.68v.83H97.58V61h28.86a10.35,10.35,0,0,1-1.2-3.45h-79V45.3a7.33,7.33,0,0,1,5.6-7.36l1-.13,6.84-18.17C61,16.46,63.22,15,66.83,15h37.68c3.73,0,6,1.48,7.41,4.67l6.84,18.18,1,.13a7.39,7.39,0,0,1,5.66,7.36v7.51a23.9,23.9,0,0,1,3.44-7.66,11,11,0,0,0-7.6-10.42l-6.17-16.41c-2-4.51-5.52-6.8-10.6-6.83H66.82c-5,0-8.58,2.41-10.31,6.91L50.37,34.74A10.89,10.89,0,0,0,42.82,45.3V57.61a3.31,3.31,0,0,0-3,3.28v3.76a3.26,3.26,0,0,0,1,2.3l.08.08a3.33,3.33,0,0,0,.45.36l.13.08a3.28,3.28,0,0,0,.51.25l.13.05a3.32,3.32,0,0,0,.7.16h.07c.1,0,.19,0,.29,0h7.1v3.67a6.51,6.51,0,0,0,3.14,5.95,6.64,6.64,0,0,0,3.32.87,6.71,6.71,0,0,0,3.34-.88,6.51,6.51,0,0,0,3.18-5.94V68H74.14v.46A1.86,1.86,0,0,0,76,70.28H95.74a1.86,1.86,0,0,0,1.85-1.86V68H108.4v3.67A6.48,6.48,0,0,0,115,78.45h0c3.12,0,6.48-2.14,6.48-6.82V68h7.1c.1,0,.2,0,.3,0h.07a3.32,3.32,0,0,0,2.59-1.8A14.32,14.32,0,0,1,128.41,63.68Zm-54.27.83H43.32V61H74.14Zm20,0v2.32H77.59V61H94.13Z"/><path class="cls-1" d="M152.65,36.78H139.53c-6.43,6.37-14.42,16.39-10.31,23.7,3.25,5.78,10.59,7.27,17.71,7.17s14-1.79,16.39-7.17C166.35,53.6,158.62,43.31,152.65,36.78Zm-2,21.59a4.13,4.13,0,0,1-.45.39,6.11,6.11,0,0,1-3,1.14v.81a1,1,0,0,1-1,1h-.06a1,1,0,0,1-1-1v-.82a6.67,6.67,0,0,1-4.37-2,1.55,1.55,0,0,1,2.2-2.2,3.9,3.9,0,0,0,3.17,1.19,3.58,3.58,0,0,0,2.19-.57,1.54,1.54,0,0,0,.58-1.32c0-.31,0-.53-.55-1a2.92,2.92,0,0,0-1.68-.63l-1.78-.29a5.48,5.48,0,0,1-2.6-1.22,3.48,3.48,0,0,1-1.17-2.78,4.17,4.17,0,0,1,4-4.31v-1a1,1,0,0,1,1-1,1,1,0,0,1,.73.31,1,1,0,0,1,.28.71v1.14a6.39,6.39,0,0,1,3.15,1.46,1.56,1.56,0,0,1,.51,1.09,1.53,1.53,0,0,1-.4,1.11,1.62,1.62,0,0,1-1.16.5,1.52,1.52,0,0,1-1-.4,3.92,3.92,0,0,0-2.6-.8,1.32,1.32,0,0,0-1.4,1.22c0,.63.64.85,1.17.93l1.76.29a5.67,5.67,0,0,1,3.22,1.34A4.11,4.11,0,0,1,152,55,4.68,4.68,0,0,1,150.64,58.37Z"/><path class="cls-1" d="M156.53,26.89c-1.8-1.09-4,1.23-5.59,1.17s-2.83-2.33-4.63-2.26-2.52,1.93-4,2.26-5.06-2.5-6.51-.92c-1.17,1.28,2.42,6.4,3.82,8.29h12.95C154.06,33.42,158,27.78,156.53,26.89Z"/></svg>