<svg xmlns="http://www.w3.org/2000/svg" viewBox="0 0 200 90"><defs><style>.cls-1{fill:#1e5748;}</style></defs><title>cashableGICTermDeposits</title><g id="ARTWORK"><path class="cls-1" d="M92.43,35.7a.71.71,0,0,0-1.2.5l0,3.42-9-.12a.71.71,0,0,0-.72.7l-.06,4.62a.71.71,0,0,0,.7.72l9,.12,0,3.41a.71.71,0,0,0,.42.66.72.72,0,0,0,.28.06.71.71,0,0,0,.5-.19l6.85-6.46a.71.71,0,0,0,0-1Z"/><path class="cls-1" d="M35.15,38.47c4.91-1.29,10.7-4.18,14.16-8H46.25a1,1,0,1,1,0-2.09h5.39a1.07,1.07,0,0,1,1,1V35a1,1,0,0,1-2.09,0V32c-3.7,3.94-9.74,7-15,8.37a.92.92,0,0,1-1.21-.72,1,1,0,0,1,.72-1.21Z"/><polygon class="cls-1" points="37.24 50.46 37.24 44.51 43.27 44.51 43.27 50.46 46.73 50.46 46.73 41.61 52.77 41.61 52.77 50.46 56.23 50.46 56.23 34.45 62.26 34.45 62.26 50.38 65.04 50.38 65.04 52.39 34.42 52.39 34.42 50.38 37.24 50.38 37.24 50.46"/><path class="cls-1" d="M71.94,60.92c0-8.15,0-38.42,0-38.44A5.91,5.91,0,0,0,66,16.59H21.13l-.15,0a5.9,5.9,0,0,0-5.62,5.87V26h9.43V64.45h0a5.91,5.91,0,0,0,5.89,5.89h44.8a5.91,5.91,0,0,0,5.89-5.89V60.92ZM34.21,63.28v1.18a3.54,3.54,0,1,1-7.07,0v-42a5.84,5.84,0,0,0-1.21-3.54H66a3.5,3.5,0,0,1,3.54,3.54V60.92H34.21Z"/><path class="cls-1" d="M184.28,16.83H101.5V32h26.15l-.08,38.41a3.23,3.23,0,0,0,3.23,3.23H155a3.23,3.23,0,0,0,3.23-3.23L158.14,32h26.15ZM150,57.8,143.66,64a1.44,1.44,0,0,1-1,.39,1.31,1.31,0,0,1-1-.42l-6-6.17a1.37,1.37,0,0,1,2-1.91l5,5.19,5.37-5.22a1.37,1.37,0,0,1,1.91,2Zm-4.55-14.7a3.4,3.4,0,0,0-2-.74l-2-.32a6.13,6.13,0,0,1-2.88-1.35,3.85,3.85,0,0,1-1.28-3,4.61,4.61,0,0,1,4.56-4.75V31.6a1,1,0,0,1,1-1,1,1,0,0,1,.73.31,1,1,0,0,1,.28.71V33a7.12,7.12,0,0,1,3.61,1.64,1.62,1.62,0,0,1-2.18,2.41,4.6,4.6,0,0,0-3.05-.95,1.92,1.92,0,0,0-1.33.44,1.48,1.48,0,0,0-.39,1.1.88.88,0,0,0,.12.57,2.87,2.87,0,0,0,1.32.62l2,.33a6.41,6.41,0,0,1,3.58,1.48,4.53,4.53,0,0,1,1.79,3.64,4.87,4.87,0,0,1-2,4.17,6.85,6.85,0,0,1-3.51,1.29v1a1,1,0,0,1-1,1h0a1,1,0,0,1-.68-.28,1,1,0,0,1-.31-.7v-1a7.49,7.49,0,0,1-5-2.29A1.62,1.62,0,0,1,138,44.73h0a1.6,1.6,0,0,1,1.14.47,4.6,4.6,0,0,0,3.69,1.39,4.19,4.19,0,0,0,2.57-.68,1.88,1.88,0,0,0,.71-1.61C146.13,43.92,146.09,43.63,145.46,43.1Zm35.8-14.18H158.13v-3h20.11v-3H107.55v3h20.12v3H104.53V19.85h76.73Z"/></g></svg>