<svg xmlns="http://www.w3.org/2000/svg" viewBox="0 0 200 90"><defs><style>.cls-1{fill:#1e5748;}.cls-2{fill:#205849;}</style></defs><title>ePremiumSavings</title><g id="ARTWORK"><g id="Layer_14" data-name="Layer 14"><path class="cls-1" d="M70.27,66.94c-.69,0-1.48.61-2.27.7-1.41.17-4.8.12-6.72.13s-5.32,0-6.73-.13c-.79-.09-1.58-.71-2.26-.7H22.55v1.37A3.24,3.24,0,0,0,26,71.78H96.54A3.24,3.24,0,0,0,100,68.32V67Z"/><path class="cls-1" d="M131.51,24.08A9.37,9.37,0,0,1,140,14.76a7.86,7.86,0,1,0-7.43,13.7A9.26,9.26,0,0,1,131.51,24.08Z"/><path class="cls-1" d="M177,47.36a2.63,2.63,0,0,0-1.82-.76H172a31.22,31.22,0,0,0-5.67-9.66c1.3-2.39,2.24-5.49,1.78-7.14a2.09,2.09,0,0,0-1.1-1.37c-2.48-1.18-4.88.06-9.89,2.87a25.38,25.38,0,0,0-4.56-1.08,8.11,8.11,0,0,0,.22-1.78,7.81,7.81,0,1,0-15.62,0,7.72,7.72,0,0,0,.19,1.68,29.33,29.33,0,0,0-10.79,4.28c-6.82,4.75-10.26,12.05-9.75,20.59a9.13,9.13,0,0,1-3.5-.6,6.14,6.14,0,0,0,2-4.3,4.57,4.57,0,0,0-4.67-4.78,4.62,4.62,0,0,0-4.7,4.78,6.35,6.35,0,0,0,1.74,4.22,7.05,7.05,0,0,1-3.08.49,1.55,1.55,0,0,0-1.77,1.31,1.57,1.57,0,0,0,1.31,1.78,11.15,11.15,0,0,0,6.3-1.4,12.63,12.63,0,0,0,6.08,1.63c.26,0,.52,0,.78,0a34.6,34.6,0,0,0,3.16,7.55c1.51,2.87,3.55,6.48,5.33,9.4.28.47.87,1.36,1.38,2.12l.68,1A3.87,3.87,0,0,0,130.91,80h6.5A2.56,2.56,0,0,0,140,77.44v-4a39.47,39.47,0,0,0,6.68.21l1.3,4.1.06.15a3.29,3.29,0,0,0,1.3,1.52,3.4,3.4,0,0,0,1.93.59h6.84a2.56,2.56,0,0,0,1.79-.76,2.49,2.49,0,0,0,.74-1.8V70.76c4.35-1.26,9.39-4.63,11.52-9.73l3.68-1.89a3.42,3.42,0,0,0,1.49-1.33,3.58,3.58,0,0,0,.5-1.84V49.16A2.53,2.53,0,0,0,177,47.36Zm-66.36,5.22-.19.16A3.83,3.83,0,0,1,109,50.09a1.51,1.51,0,0,1,1.58-1.65,1.59,1.59,0,0,1,1.08.39,1.61,1.61,0,0,1,.47,1.26A3.75,3.75,0,0,1,110.68,52.58Zm64,3.39a.48.48,0,0,1-.06.23s0,.07-.18.13l-4.26,2.19a1.6,1.6,0,0,0-.76.86c-1.67,4.59-6.63,7.81-10.68,8.63a1.55,1.55,0,0,0-1.25,1.53v7.33h-6.25a.42.42,0,0,1-.23-.08l-.12-.1-1.13-3.58a33.15,33.15,0,0,0,3.41-.78,1.56,1.56,0,1,0-.87-3,29.39,29.39,0,0,1-9.08,1.21c-.7,0-1.39-.07-2-.13A18.65,18.65,0,0,1,133.26,68a1.58,1.58,0,0,0-2.17.46,1.56,1.56,0,0,0,.46,2.16,18.7,18.7,0,0,0,5.27,2.18v4.12H131a.87.87,0,0,1-.52-.4c-.16-.26-.42-.64-.7-1.07-.48-.72-1-1.55-1.31-2-1.75-2.87-3.75-6.41-5.23-9.23s-3-5.92-3.24-8.82c-.62-7.66,2.35-14.2,8.38-18.4a26.77,26.77,0,0,1,10.36-3.9,7.81,7.81,0,0,0,2.83,2.36h-4.37a.78.78,0,1,0,0,1.56h15.62a.78.78,0,0,0,0-1.56h-4.37a7.9,7.9,0,0,0,2.74-2.26,21.38,21.38,0,0,1,5.31,1.25,1.56,1.56,0,0,0,1.51,0c4.08-2.29,6-3.3,7.12-3.28a13.62,13.62,0,0,1-2,5.23,1.55,1.55,0,0,0,.27,2c3.18,2.77,5.34,8.13,6.11,10.3a1.58,1.58,0,0,0,1.48,1h3.74Z"/><path class="cls-1" d="M162.78,47.35a2.35,2.35,0,1,0,0,4.69,2.36,2.36,0,0,0,2.34-2.35A2.34,2.34,0,0,0,162.78,47.35Z"/><path class="cls-1" d="M93.34,29.78a3.44,3.44,0,0,0-3.76-3.64h-55A3.25,3.25,0,0,0,31,29.58c.1,10.94.08,36,.08,36H93.34S93.36,40.81,93.34,29.78Zm-2.76,33H33.86c0-6.46,0-24.66-.08-33.24a.86.86,0,0,1,.08-.47,1.12,1.12,0,0,1,.7-.17h55c1,0,1,.32,1,.88C90.59,38.41,90.59,56.4,90.58,62.79Z"/><path class="cls-1" d="M135.74,28.4a9.36,9.36,0,0,1,9.36-9.35,9.72,9.72,0,0,1,2,.2,7.85,7.85,0,1,0-11.14,10.93A9.42,9.42,0,0,1,135.74,28.4Z"/><path class="cls-2" d="M76.08,46.1a1.41,1.41,0,0,0-.57-.9,5.11,5.11,0,0,1-1.87-5.81,1.39,1.39,0,0,0,.07-.46,1.32,1.32,0,0,0-.42-1,1.51,1.51,0,0,0-1-.4h-.12A5.1,5.1,0,0,1,67.35,34a1.74,1.74,0,0,0-.22-.43,1.39,1.39,0,0,0-1.94-.31,5,5,0,0,1-6,0,1.46,1.46,0,0,0-.43-.22,1.39,1.39,0,0,0-1.74.91,5.06,5.06,0,0,1-4.86,3.58H52a1.43,1.43,0,0,0-.46.07,1.39,1.39,0,0,0-.86,1.76,5.12,5.12,0,0,1-1.87,5.81,1.29,1.29,0,0,0-.33.33,1.38,1.38,0,0,0,.33,1.93,5.12,5.12,0,0,1,1.87,5.81,1.49,1.49,0,0,0-.07.47,1.33,1.33,0,0,0,.42,1,1.45,1.45,0,0,0,1,.39h.06A5.12,5.12,0,0,1,57,58.62a1.71,1.71,0,0,0,.21.4,1.39,1.39,0,0,0,1.94.29,5.07,5.07,0,0,1,6.06,0,1.19,1.19,0,0,0,.42.21,1.39,1.39,0,0,0,1.75-.91,5.1,5.1,0,0,1,5-3.55h0a1.35,1.35,0,0,0,.41-.07,1.4,1.4,0,0,0,.8-.69,1.44,1.44,0,0,0,.08-1.06,5,5,0,0,1-.27-1.64h0a5.15,5.15,0,0,1,2.17-4.14,1.22,1.22,0,0,0,.32-.32A1.37,1.37,0,0,0,76.08,46.1ZM65.67,47.76l.86,5L62,50.4l-4.5,2.37.86-5-3.63-3.54,5-.73L62,38.94l2.25,4.55,5,.73Z"/></g></g></svg>