<svg xmlns="http://www.w3.org/2000/svg" viewBox="0 0 258 164"><defs><style>.cls-1{fill:#1e5748;}.cls-2{fill:#205849;}</style></defs><title>ePremiumSavings-Compare</title><g id="ARTWORK"><g id="ARTWORK-2" data-name="ARTWORK"><g id="Layer_14-2" data-name="Layer 14"><path class="cls-1" d="M90.1,111.35c-.93,0-2,.83-3.06,1-1.9.23-6.48.16-9.07.17s-7.19,0-9.09-.17c-1.07-.12-2.13-1-3-1H25.67v1.85a4.38,4.38,0,0,0,4,4.69c.21,0,.41,0,.62,0h95.24a4.39,4.39,0,0,0,4.68-4.06c0-.2,0-.41,0-.61v-1.79Z"/><path class="cls-1" d="M172.79,53.48A12.65,12.65,0,0,1,184.25,40.9a10.61,10.61,0,0,0-12.47,17.17,10.9,10.9,0,0,0,2.44,1.33A12.59,12.59,0,0,1,172.79,53.48Z"/><path class="cls-1" d="M234.21,84.92a3.52,3.52,0,0,0-2.45-1h-4.3a42.21,42.21,0,0,0-7.65-13c1.75-3.23,3-7.42,2.4-9.64a2.78,2.78,0,0,0-1.49-1.85c-3.34-1.6-6.59.08-13.35,3.87a34.94,34.94,0,0,0-6.16-1.46,10.73,10.73,0,0,0,.3-2.4,10.55,10.55,0,0,0-21.09,0v0a10.27,10.27,0,0,0,.26,2.27,39.39,39.39,0,0,0-14.57,5.78c-9.21,6.41-13.86,16.27-13.17,27.8a12.45,12.45,0,0,1-4.72-.81,8.33,8.33,0,0,0,2.7-5.81A6.18,6.18,0,0,0,145,82.15c-.14,0-.29,0-.43,0a6.25,6.25,0,0,0-6.35,6.12c0,.11,0,.22,0,.33a8.53,8.53,0,0,0,2.35,5.7,9.53,9.53,0,0,1-4.16.66,2.1,2.1,0,0,0-2.39,1.75v0a2.12,2.12,0,0,0,1.77,2.4,14.92,14.92,0,0,0,8.5-1.89,17,17,0,0,0,8.21,2.2h1a47.05,47.05,0,0,0,4.27,10.2c2,3.87,4.79,8.75,7.2,12.69.38.63,1.17,1.84,1.86,2.86l.92,1.35A5.23,5.23,0,0,0,172,129h8.78a3.45,3.45,0,0,0,3.49-3.42v-5.44a53.32,53.32,0,0,0,9,.28L195,126l.08.2a4.4,4.4,0,0,0,1.76,2,4.54,4.54,0,0,0,2.6.8h9.24a3.43,3.43,0,0,0,2.41-1,3.34,3.34,0,0,0,1-2.43v-9c5.88-1.7,12.68-6.25,15.56-13.14l5-2.55a4.64,4.64,0,0,0,2-1.79,4.87,4.87,0,0,0,.67-2.49V87.35A3.37,3.37,0,0,0,234.21,84.92Zm-89.6,7-.25.22a5.14,5.14,0,0,1-2-3.58,2,2,0,0,1,1.84-2.22h.29a2,2,0,0,1,2.09,2.23,5,5,0,0,1-2,3.36ZM231,96.54a.65.65,0,0,1-.08.31s0,.1-.25.18L225,100a2.21,2.21,0,0,0-1,1.16c-2.25,6.2-8.95,10.55-14.42,11.66a2.08,2.08,0,0,0-1.68,2.06v9.9h-8.44a.51.51,0,0,1-.31-.11l-.17-.13-1.52-4.84a45,45,0,0,0,4.6-1.05,2.11,2.11,0,0,0-1.17-4h0a39.73,39.73,0,0,1-12.26,1.63c-1,0-1.88-.09-2.7-.17a25.1,25.1,0,0,1-10.7-3.26,2.15,2.15,0,0,0-2.93.62,2.12,2.12,0,0,0,.62,2.92h0a25,25,0,0,0,7.11,2.94v5.57H172.1a1.22,1.22,0,0,1-.7-.54c-.22-.35-.57-.87-.94-1.45-.65-1-1.35-2.09-1.77-2.7-2.37-3.87-5.07-8.65-7.07-12.46s-4.05-8-4.37-11.91c-.84-10.34,3.17-19.17,11.32-24.84a36.06,36.06,0,0,1,14-5.27,10.53,10.53,0,0,0,3.82,3.19h-5.9a1.05,1.05,0,0,0,0,2.1h21.09a1.05,1.05,0,1,0,0-2.1h-5.9a10.73,10.73,0,0,0,3.7-3,28.79,28.79,0,0,1,7.17,1.68,2.11,2.11,0,0,0,2,0c5.51-3.09,8.1-4.45,9.62-4.42a18.7,18.7,0,0,1-2.7,7.06,2.08,2.08,0,0,0,.36,2.7c4.29,3.74,7.21,11,8.25,13.9a2.13,2.13,0,0,0,2,1.35h5.05Z"/><path class="cls-1" d="M215,84.9a3.17,3.17,0,1,0-.41,6.33H215a3.17,3.17,0,0,0,0-6.33Z"/><path class="cls-1" d="M121.25,61.18a4.64,4.64,0,0,0-4.34-4.93,5.9,5.9,0,0,0-.73,0H41.91a4.38,4.38,0,0,0-4.81,3.91,4.58,4.58,0,0,0,0,.74c.14,14.77.11,48.61.11,48.61h84.06S121.28,76.07,121.25,61.18Zm-3.72,44.56H40.94c0-8.73,0-33.3-.11-44.89a1.26,1.26,0,0,1,.11-.63,1.52,1.52,0,0,1,1-.23h74.26c1.35,0,1.35.43,1.35,1.19,0,11.65,0,35.94,0,44.57Z"/><path class="cls-1" d="M178.5,59.32a12.65,12.65,0,0,1,12.64-12.63,13.59,13.59,0,0,1,2.7.27,10.6,10.6,0,1,0-15,14.76A13,13,0,0,1,178.5,59.32Z"/><path class="cls-2" d="M98,83.21A1.93,1.93,0,0,0,97.18,82a6.92,6.92,0,0,1-2.53-7.85,1.87,1.87,0,0,0,.1-.62,1.78,1.78,0,0,0-.57-1.35,2.05,2.05,0,0,0-1.35-.54h-.16a6.9,6.9,0,0,1-6.51-4.76,2,2,0,0,0-.3-.58,1.87,1.87,0,0,0-2.62-.42,6.75,6.75,0,0,1-8.1,0,2,2,0,0,0-.58-.3,1.88,1.88,0,0,0-2.35,1.23,6.81,6.81,0,0,1-6.56,4.83h-.21a1.86,1.86,0,0,0-1.79,2.47A6.91,6.91,0,0,1,61.13,82a1.71,1.71,0,0,0-.45.44,1.87,1.87,0,0,0,.44,2.6h0a6.9,6.9,0,0,1,2.52,7.84,2.3,2.3,0,0,0-.09.64,1.78,1.78,0,0,0,.57,1.35,2,2,0,0,0,1.35.53h.08a6.9,6.9,0,0,1,6.63,4.75,2.31,2.31,0,0,0,.28.54,1.88,1.88,0,0,0,2.62.39,6.84,6.84,0,0,1,8.18,0,1.52,1.52,0,0,0,.57.28,1.88,1.88,0,0,0,2.36-1.21h0A6.89,6.89,0,0,1,93,95.31h0a1.77,1.77,0,0,0,.56-.09,1.94,1.94,0,0,0,1.08-.93,2,2,0,0,0,.1-1.44,6.91,6.91,0,0,1-.36-2.21h0a7,7,0,0,1,2.93-5.59,1.6,1.6,0,0,0,.43-.43A1.89,1.89,0,0,0,98,83.21ZM83.89,85.46l1.16,6.75L78.94,89l-6.08,3.2L74,85.47l-4.9-4.78,6.75-1,3.07-6.15,3,6.14,6.75,1Z"/></g></g></g></svg>