<svg xmlns="http://www.w3.org/2000/svg" viewBox="0 0 258 164"><defs><style>.cls-1{fill:#1e5748;}</style></defs><title>everydayChequingAccount-Compare</title><g id="ARTWORK"><path class="cls-1" d="M241.14,38.94a7.73,7.73,0,0,0-10.95-.57L180,83.26a1,1,0,0,0-.08,1.41l9,10.08a1,1,0,0,0,1.41.08l50.19-44.9A7.82,7.82,0,0,0,241.14,38.94Z"/><path class="cls-1" d="M166.48,106.55a1,1,0,0,1-.83-1.55l14.18-21.54a1,1,0,0,1,1.58-.12l9,10.08A1,1,0,0,1,190,95c-1,.41-14.33,7-23.07,11.4A1,1,0,0,1,166.48,106.55Zm14.31-20.91L169.37,103c11.85-5.93,16.69-8.29,18.7-9.25Z"/><path class="cls-1" d="M135.18,123.09a15.06,15.06,0,0,1-7.63-1.86l-.08-.05c-5,2.54-10.37,2.3-16.06-.73a1,1,0,0,1,.94-1.76c4.79,2.56,9.22,2.93,13.39,1.11a8.29,8.29,0,0,1-2.2-7.15,8.79,8.79,0,0,1,2.41-5,6.74,6.74,0,0,1,5.94-1.73,4.86,4.86,0,0,1,3.61,2.8c1,2.42.31,5.37-1.88,7.68a25.07,25.07,0,0,1-4.13,3.55,16.31,16.31,0,0,0,9.3.75,20.32,20.32,0,0,0,5.63-2.2l-.24-.31a9.79,9.79,0,0,1-2.15-7.12,6.35,6.35,0,0,1,8-4.95,4.31,4.31,0,0,1,3,2.62,5.93,5.93,0,0,1-.46,4.94,18.1,18.1,0,0,1-5.07,5.2,7.58,7.58,0,0,0,3.87,1.9,12.72,12.72,0,0,0,8.58-1.74,19.48,19.48,0,0,0,7.29-6.35c.53-.73,1.48-2.81.86-4.21a2.71,2.71,0,0,0-1.83-1.29,1,1,0,0,1,.09-2,4.6,4.6,0,0,1,3.56,2.47c1.06,2.39-.41,5.28-1.06,6.19a21.38,21.38,0,0,1-8,6.94,14.7,14.7,0,0,1-9.79,2,9.88,9.88,0,0,1-5.35-2.76,22.7,22.7,0,0,1-6.61,2.66A20.78,20.78,0,0,1,135.18,123.09Zm-4.57-15.25a4.81,4.81,0,0,0-3.28,1.3,7,7,0,0,0-1.82,3.84,6.31,6.31,0,0,0,2.1,5.84,22.24,22.24,0,0,0,4.55-3.75c1.64-1.72,2.21-3.84,1.49-5.52a2.91,2.91,0,0,0-2.17-1.63A4.39,4.39,0,0,0,130.61,107.84Zm17.64.07a4.33,4.33,0,0,0-4.26,3.55,7.81,7.81,0,0,0,1.79,5.58l.34.44a16.35,16.35,0,0,0,4.76-4.8,3.92,3.92,0,0,0,.3-3.17,2.32,2.32,0,0,0-1.66-1.42A4.68,4.68,0,0,0,148.25,107.91Z"/><path class="cls-1" d="M81.15,96.78a1.56,1.56,0,0,1,0-3.13l91.4-.36h2c.86,0-.39.7-.39,1.56a1.56,1.56,0,0,1-1.56,1.57l-91.4.36Z"/><path class="cls-1" d="M185.06,82.34a1.56,1.56,0,0,0-1.56-1.56l-98.87.35,1.78,3.12,97.09-.34A1.56,1.56,0,0,0,185.06,82.34Z"/><path class="cls-1" d="M209.3,65.65a4.86,4.86,0,0,0-4.85-4.83h0l-111,.12L85.06,67.2l118-.13v65.67H65.45l.06-25.68-6.24-5.2-.08,32.3A4.85,4.85,0,0,0,64,139H204.47a4.86,4.86,0,0,0,4.83-4.86Z"/><path class="cls-1" d="M87,61.22,71.28,54.95l3.14-15.69L59.78,44.49,51.41,30.9,43,44.49,28.41,39.26l3.13,15.69L15.86,61.22l12.55,9.41L20,85.27H36.78L38.87,101,51.41,90.5,64,101l2.09-15.69H82.78L74.42,70.63ZM66.05,82.13c-4.18,4.19-8.36,6.28-14.64,6.28A21.45,21.45,0,0,1,30.5,67.5a21.29,21.29,0,0,1,6.28-15.69c4.18-4.18,8.36-6.27,14.64-6.27s10.46,2.09,14.64,6.27A21.28,21.28,0,0,1,72.33,67.5,20.65,20.65,0,0,1,66.05,82.13Z"/></g></svg>