<svg id="ARTWORK" xmlns="http://www.w3.org/2000/svg" viewBox="0 0 200 90"><defs><style>.cls-1{fill:#1e5748;}</style></defs><title>investmentLineofCredit</title><path class="cls-1" d="M167,35.66H128.88a2,2,0,0,0-2,2V59.73a2,2,0,0,0,2,2H167a2,2,0,0,0,2-2V37.67A2,2,0,0,0,167,35.66Zm0,24.07H128.88v-12H167Zm0-17.05H128.88v-5H167Z"/><polygon class="cls-1" points="53.38 43.91 53.38 54.34 49.3 54.34 49.3 47.32 42.19 47.32 42.19 54.25 38.87 54.25 38.87 56.62 75 56.62 75 54.25 71.68 54.25 71.68 35.47 64.56 35.47 64.56 54.34 60.49 54.34 60.49 43.91 53.38 43.91"/><path class="cls-1" d="M40.29,42.49c6.16-1.61,13.27-5.21,17.64-9.86v3.51a1.23,1.23,0,0,0,2.47,0V29.59a1.26,1.26,0,0,0-1.23-1.23H52.81a1.23,1.23,0,1,0,0,2.47h3.6c-4.08,4.46-10.9,7.87-16.69,9.39a1.16,1.16,0,0,0-.85,1.42A1.09,1.09,0,0,0,40.29,42.49Z"/><path class="cls-1" d="M81.35,13h-49a1.26,1.26,0,0,0-1.23,1.23V63.73A1.26,1.26,0,0,0,32.33,65h9.77L36.88,78.14a1.17,1.17,0,0,0,2.28.57L44.46,65H55.56V78.42a1.23,1.23,0,1,0,2.47,0V65.05H69.12l6.26,13.65a1.17,1.17,0,0,0,2.28-.57L71.49,65.05h9.77a1.26,1.26,0,0,0,1.23-1.23V14.23A1.18,1.18,0,0,0,81.35,13ZM70.25,16.51A1.23,1.23,0,1,1,69,17.74,1.2,1.2,0,0,1,70.25,16.51Zm-26.83,0a1.23,1.23,0,1,1-1.23,1.23A1.2,1.2,0,0,1,43.42,16.51ZM80.11,62.59H33.56V22.77H80.11Z"/><path class="cls-1" d="M114.83,39.35a.43.43,0,0,0-.57-.13.75.75,0,0,0-.32.65V43.3H91.4c-.29,0-.53.32-.53.71v4.63c0,.39.24.71.53.71h22.54v3.43a.75.75,0,0,0,.32.65.42.42,0,0,0,.21.06.47.47,0,0,0,.37-.2l5.38-6.57c.1-.14.34-.32.34-.52s-.21-.38-.31-.51Z"/></svg>