<svg xmlns="http://www.w3.org/2000/svg" viewBox="0 0 258 164"><defs><style>.cls-1{fill:#1e5748;}</style></defs><title>minimumChequingAccount-Compare</title><g id="ARTWORK"><path class="cls-1" d="M222.46,33.57A7.73,7.73,0,0,0,211.51,33L161.32,77.9a1,1,0,0,0-.08,1.41l9,10.08a1,1,0,0,0,1.41.08l50.19-44.9A7.82,7.82,0,0,0,222.46,33.57Z"/><path class="cls-1" d="M147.8,101.19a1,1,0,0,1-.83-1.55L161.15,78.1a1,1,0,0,1,1.58-.12l9,10.08a1,1,0,0,1-.46,1.63c-1,.41-14.33,7-23.07,11.4A1,1,0,0,1,147.8,101.19Zm14.31-20.91L150.69,97.63c11.85-5.93,16.69-8.29,18.7-9.25Z"/><path class="cls-1" d="M116.5,117.73a15.07,15.07,0,0,1-7.64-1.86l-.08-.05c-5,2.54-10.37,2.3-16.06-.74a1,1,0,0,1,.94-1.76c4.78,2.56,9.21,2.93,13.39,1.11a8.29,8.29,0,0,1-2.2-7.15,8.8,8.8,0,0,1,2.41-5,6.73,6.73,0,0,1,5.93-1.73,4.86,4.86,0,0,1,3.61,2.8c1,2.42.31,5.37-1.88,7.68a25.09,25.09,0,0,1-4.13,3.55,16.31,16.31,0,0,0,9.3.75,20.35,20.35,0,0,0,5.63-2.2l-.24-.31a9.79,9.79,0,0,1-2.15-7.12,6.35,6.35,0,0,1,8-4.95,4.31,4.31,0,0,1,3,2.62,5.93,5.93,0,0,1-.46,4.94,18.11,18.11,0,0,1-5.07,5.2,7.58,7.58,0,0,0,3.87,1.9,12.71,12.71,0,0,0,8.58-1.74,19.45,19.45,0,0,0,7.29-6.35c.53-.73,1.48-2.81.86-4.21a2.71,2.71,0,0,0-1.83-1.29,1,1,0,0,1-1-1,1,1,0,0,1,1-1,4.6,4.6,0,0,1,3.56,2.47c1.06,2.4-.41,5.28-1.06,6.19a21.33,21.33,0,0,1-8,6.94,14.69,14.69,0,0,1-9.79,2,9.89,9.89,0,0,1-5.35-2.77,22.72,22.72,0,0,1-6.61,2.66A20.76,20.76,0,0,1,116.5,117.73Zm-4.57-15.25a4.81,4.81,0,0,0-3.28,1.3,7,7,0,0,0-1.82,3.84,6.31,6.31,0,0,0,2.1,5.84,22.25,22.25,0,0,0,4.55-3.75c1.64-1.72,2.21-3.84,1.49-5.52a2.91,2.91,0,0,0-2.17-1.63A4.32,4.32,0,0,0,111.93,102.48Zm17.64.07a4.33,4.33,0,0,0-4.26,3.55,7.81,7.81,0,0,0,1.79,5.58l.34.44a16.33,16.33,0,0,0,4.76-4.8,3.91,3.91,0,0,0,.3-3.17,2.32,2.32,0,0,0-1.66-1.43A4.68,4.68,0,0,0,129.57,102.55Z"/><path class="cls-1" d="M44.84,133.56A4.84,4.84,0,0,1,40,128.74l.16-68.3A4.85,4.85,0,0,1,45,55.59l140.15-.15h0A4.85,4.85,0,0,1,190,60.27v68.44a4.86,4.86,0,0,1-4.83,4.86H44.84Zm138.91-4.85h0Zm-138.91-1.4h0Zm1.57-65.47-.16,65.47h137.5V61.69Zm0-1.4h0Z"/><path class="cls-1" d="M61.95,78.88a1.56,1.56,0,0,1,0-3.13l99.93-.36h0a1.56,1.56,0,0,1,0,3.13L62,78.88Z"/><path class="cls-1" d="M61.95,91.38a1.56,1.56,0,0,1,0-3.13l91.73-.36h0a1.56,1.56,0,0,1,0,3.13L62,91.38Z"/></g></svg>