<svg xmlns="http://www.w3.org/2000/svg" viewBox="0 0 200 90"><defs><style>.cls-1{fill:#1e5748;}</style></defs><title>nonCashableGICs</title><g id="ARTWORK"><path class="cls-1" d="M77.52,39c5.82-1.53,12.69-5,16.79-9.45H90.69a1.24,1.24,0,1,1,0-2.48h6.39a1.26,1.26,0,0,1,1.24,1.24v6.58a1.24,1.24,0,0,1-2.48,0V31.39c-4.39,4.68-11.55,8.3-17.75,9.92a1.09,1.09,0,0,1-1.43-.86A1.17,1.17,0,0,1,77.52,39Z"/><polygon class="cls-1" points="80 53.24 80 46.17 87.16 46.17 87.16 53.24 91.26 53.24 91.26 42.74 98.42 42.74 98.42 53.24 102.52 53.24 102.52 34.25 109.68 34.25 109.68 53.14 112.97 53.14 112.97 55.53 76.66 55.53 76.66 53.14 80 53.14 80 53.24"/><path class="cls-1" d="M124.91,67.84H76.72v4.52a4.52,4.52,0,0,1-9,0V17.83a7.46,7.46,0,0,0-1.55-4.52h51.25a4.48,4.48,0,0,1,4.52,4.52l.09,7.66,2.92-2s0-5.65,0-5.66a7.55,7.55,0,0,0-7.53-7.53H60l-.19,0a7.53,7.53,0,0,0-7.18,7.5v4.52h12v50h0a7.55,7.55,0,0,0,7.53,7.53h57.23A7.55,7.55,0,0,0,137,72.36V67.84Z"/><path class="cls-1" d="M132,35.77a2.36,2.36,0,0,0-2.36,2.36v1.48h4.71V38.13A2.36,2.36,0,0,0,132,35.77Z"/><path class="cls-1" d="M133.3,25.58a15.41,15.41,0,1,0,14.15,16.57A15.39,15.39,0,0,0,133.3,25.58Zm4,21.18a1.12,1.12,0,0,1-1.12,1.12h-8.45a1.12,1.12,0,0,1-1.12-1.12V40.67a1.12,1.12,0,0,1,1.12-1.12h.11V38.09h0a4.19,4.19,0,0,1,8.37,0v1.46h0a1.14,1.14,0,0,1,1,1.12Z"/><polygon class="cls-1" points="121.92 70.06 121.92 56.55 124.91 58.55 124.91 70.06 121.92 70.06"/></g></svg>