<svg xmlns="http://www.w3.org/2000/svg" viewBox="0 0 200 90"><title>payAsYouGoOverdraft</title><g id="d76b2ee4-6a3a-49e2-9fc7-a019c7343746" data-name="ARTWORK"><path d="M65.49,52.28,58.8,30.44a1.08,1.08,0,0,1,.71-1.34L97.26,17.55a1.06,1.06,0,0,1,1.34.71l6.68,21.84a1.07,1.07,0,0,1-.71,1.34L79.94,49" style="fill:none;stroke:#1e5748;stroke-miterlimit:10;stroke-width:2.5px"/><rect x="60.68" y="29.3" width="40.97" height="5.25" transform="translate(-5.79 25.15) rotate(-17.02)" style="fill:#1e5748"/><path d="M60.22,35.53l-6.9,2.95L48.57,56.67l-4.89,2.26L50,73.25l3.88-1.33c5-.56,9.58-.73,12.47-4.26S78.31,51.92,79.82,50s1.84-4.95-.3-6.5-4.75-1.1-6.93,1.65l-6.78,8.58Z" style="fill:none;stroke:#1e5748;stroke-linecap:round;stroke-linejoin:round;stroke-width:3px"/><rect x="41.91" y="57.15" width="5.32" height="20.99" transform="translate(-22.99 22.95) rotate(-23.13)" style="fill:#1e5748;stroke:#1e5748;stroke-linecap:round;stroke-linejoin:round;stroke-width:3px"/><path d="M75.54,55.08a4.08,4.08,0,0,0,4.36.05,3.14,3.14,0,0,0,.7-3.53,3.38,3.38,0,0,0,4.26.5c1.23-.7,1.28-2.82,1.11-3.17a3.36,3.36,0,0,0,3.76.63,2.78,2.78,0,0,0,1.54-2.85" style="fill:none;stroke:#1e5748;stroke-linecap:round;stroke-linejoin:round;stroke-width:2px"/><path d="M162.42,29.38a1.84,1.84,0,0,0-1.49-.44,24.59,24.59,0,0,1-21-7.44,1.85,1.85,0,0,0-1.33-.56h0a1.87,1.87,0,0,0-1.33.56,25,25,0,0,1-21,7.53,1.88,1.88,0,0,0-2.12,1.61,2.17,2.17,0,0,0,0,.26c0,34.8,12,40.9,23.64,46.79a1.89,1.89,0,0,0,1.73,0C151.07,71.63,163,65.36,163,30.79A1.84,1.84,0,0,0,162.42,29.38ZM138.58,73.92C128,68.55,118.3,62.82,117.87,33a28.78,28.78,0,0,0,20.72-7.53,28.25,28.25,0,0,0,20.66,7.4c-.39,29.66-10.14,35.53-20.68,41.05Z" style="fill:#1e5748"/><path d="M154.05,36.44a27,27,0,0,1-14.72-5.53,1.26,1.26,0,0,0-1.52,0,27.43,27.43,0,0,1-14.73,5.58,1.27,1.27,0,0,0-1.17,1.26C122.77,59.33,129.44,64.48,138,69a1.22,1.22,0,0,0,1.17,0c8.28-4.45,15.19-9.89,16.09-31.26A1.25,1.25,0,0,0,154.05,36.44ZM143.6,56.31a3.89,3.89,0,0,1-.53.46,7.12,7.12,0,0,1-3.55,1.32V59h0a1.16,1.16,0,0,1-1.14,1.18h-.07a1.17,1.17,0,0,1-1.15-1.14v-.94a7.74,7.74,0,0,1-5.09-2.39,1.81,1.81,0,0,1,2.56-2.56,4.53,4.53,0,0,0,3.69,1.38,4.18,4.18,0,0,0,2.55-.66,1.8,1.8,0,0,0,.68-1.54c0-.36-.05-.62-.64-1.12a3.39,3.39,0,0,0-2-.72l-2.1-.34a6.42,6.42,0,0,1-3-1.42,4.08,4.08,0,0,1-1.37-3.24v0a4.85,4.85,0,0,1,4.7-5V39.29a1.21,1.21,0,0,1,1.18-1.18,1.18,1.18,0,0,1,.85.36,1.13,1.13,0,0,1,.3.83v1.37a7.5,7.5,0,0,1,3.67,1.71,1.85,1.85,0,0,1,.59,1.27,1.77,1.77,0,0,1-.47,1.29,1.85,1.85,0,0,1-1.35.59,1.76,1.76,0,0,1-1.21-.48,4.5,4.5,0,0,0-3-.94A1.55,1.55,0,0,0,136,45.53c0,.7.75,1,1.37,1.06l2.05.34a6.65,6.65,0,0,1,3.75,1.56,4.78,4.78,0,0,1,1.94,3.87A5.44,5.44,0,0,1,143.6,56.31Z" style="fill:#1e5748"/></g></svg>