<svg id="ARTWORK" xmlns="http://www.w3.org/2000/svg" viewBox="0 0 200 90"><defs><style>.cls-1{fill:#1e5748;}</style></defs><title>personalLoan</title><path class="cls-1" d="M93.85,70.22c-7.33,0-13.29-3.34-13.29-5.7V54.71l-5.28-1.43A23.68,23.68,0,0,0,68,51.92H57.09a23.69,23.69,0,0,0-7.27,1.35l-17,6.59a7.72,7.72,0,0,0-4.72,6.88v7a5.88,5.88,0,0,0,5.88,5.87h57.2A5.88,5.88,0,0,0,97,73.72V70.07C96,70.16,94.94,70.22,93.85,70.22Z"/><path class="cls-1" d="M62.55,48.53c11,0,15.5-11.3,15.5-19.85s-3.34-17.38-15.5-17.38C50.83,11.31,47,20.13,47,28.68S51.12,48.53,62.55,48.53Z"/><ellipse class="cls-1" cx="109.62" cy="30.53" rx="10.84" ry="4.34" transform="translate(-0.03 0.11) rotate(-0.06)"/><path class="cls-1" d="M120.47,45.7c0,2.4-4.85,4.34-10.84,4.34a17.79,17.79,0,0,1-2.17-.09v4.34c.7.05,1.42.09,2.17.09a21.46,21.46,0,0,0,7.6-1.28,3.42,3.42,0,0,1,0-.48c0-1.74,1.29-3.13,3.28-4.1V45.7Z"/><path class="cls-1" d="M117.19,55.31a21.52,21.52,0,0,1-7.55,1.24,17.79,17.79,0,0,1-2.17-.09v4.34c.7.05,1.42.09,2.17.09a21.46,21.46,0,0,0,7.6-1.25,3.47,3.47,0,0,1,0-.48V55.31Z"/><path class="cls-1" d="M120.46,37V32.68c0,2.4-4.85,4.34-10.84,4.34s-10.84-1.93-10.84-4.34V37a1.8,1.8,0,0,0,.05.39c3.55.63,6.38,2,7.74,3.77a26.25,26.25,0,0,0,3.06.17C115.61,41.37,120.47,39.41,120.46,37Z"/><path class="cls-1" d="M120.47,43.55V39.21c0,2.4-4.85,4.34-10.84,4.34a17.93,17.93,0,0,1-2.18-.09v4.34c.7.05,1.42.09,2.17.09C115.61,47.9,120.47,45.92,120.47,43.55Z"/><path class="cls-1" d="M94.45,54.4c6,0,10.84-2,10.84-4.34V45.72c0,2.4-4.85,4.34-10.84,4.34s-10.84-1.93-10.84-4.34v4.34C83.61,52.46,88.47,54.4,94.45,54.4Z"/><path class="cls-1" d="M94.46,60.92c6,0,10.84-2,10.84-4.34V52.24c0,2.4-4.85,4.34-10.84,4.34s-10.84-1.93-10.84-4.34v4.34C83.62,59,88.47,60.92,94.46,60.92Z"/><ellipse class="cls-1" cx="94.44" cy="43.56" rx="10.84" ry="4.34" transform="translate(-0.05 0.1) rotate(-0.06)"/><path class="cls-1" d="M94.46,63.07c-6,0-10.84-1.93-10.84-4.34v4.34c0,2.4,4.86,4.34,10.84,4.34s10.84-2,10.84-4.34V58.73C105.31,61.12,100.45,63.06,94.46,63.07Z"/><path class="cls-1" d="M140.42,67.8c0,2.4-4.85,4.34-10.84,4.34s-10.84-1.93-10.84-4.34v4.34c0,2.4,4.86,4.34,10.84,4.34s10.84-2,10.84-4.34Z"/><path class="cls-1" d="M135.33,58.45a23.58,23.58,0,0,1-5.77.69c-3.88,0-7.27-.81-9.19-2a3,3,0,0,1-1.66-2.27v4.34c0,2.36,4.86,4.34,10.84,4.3a20.52,20.52,0,0,0,8.1-1.46,13.45,13.45,0,0,1-1.82-2.5A10.8,10.8,0,0,1,135.33,58.45Z"/><path class="cls-1" d="M129.58,65.64c-6,0-10.84-1.93-10.84-4.34v4.34c0,2.41,4.85,4.35,10.84,4.34s10.84-2,10.84-4.34V64.31a14.6,14.6,0,0,1-1.31-.94C137.27,64.72,133.69,65.64,129.58,65.64Z"/><path class="cls-1" d="M135.39,49.16a23.46,23.46,0,0,0-5.85-.71c-3.83,0-7.19.81-9.12,2a3.24,3.24,0,0,0-1.69,2.08,1.74,1.74,0,0,0,0,.27,2.21,2.21,0,0,0,.65,1.46,5,5,0,0,0,1.09.91c1.94,1.18,5.28,2,9.08,2a24.2,24.2,0,0,0,5.2-.55A13.61,13.61,0,0,1,135.39,49.16Z"/><path class="cls-1" d="M161.19,35.87H148.78c-6.08,6-13.64,15.51-9.76,22.42,3.07,5.46,10,6.88,16.75,6.78s13.26-1.7,15.51-6.78C174.15,51.79,166.84,42.05,161.19,35.87Zm-1.9,20.43a3.87,3.87,0,0,1-.43.37A5.77,5.77,0,0,1,156,57.75v.77a.94.94,0,0,1-.93,1H155a1,1,0,0,1-.93-.93v-.77a6.31,6.31,0,0,1-4.13-1.93A1.47,1.47,0,0,1,152,53.76a3.69,3.69,0,0,0,3,1.12,3.38,3.38,0,0,0,2.07-.54,1.46,1.46,0,0,0,.55-1.25c0-.3,0-.5-.52-.91a2.76,2.76,0,0,0-1.59-.59l-1.68-.27a5.19,5.19,0,0,1-2.46-1.15,3.29,3.29,0,0,1-1.11-2.63,4,4,0,0,1,3.81-4.08v-1a1,1,0,0,1,1-1,1,1,0,0,1,.69.29.93.93,0,0,1,.26.68v1.08A6.05,6.05,0,0,1,159,45a1.47,1.47,0,0,1,.48,1,1.45,1.45,0,0,1-.38,1.05,1.53,1.53,0,0,1-1.1.48,1.44,1.44,0,0,1-1-.38,3.71,3.71,0,0,0-2.46-.76,1.25,1.25,0,0,0-1.33,1.16c0,.59.61.81,1.11.88l1.66.27A5.36,5.36,0,0,1,159,50a3.89,3.89,0,0,1,1.53,3.13A4.43,4.43,0,0,1,159.29,56.3Z"/><path class="cls-1" d="M164.86,26.52c-1.7-1-3.8,1.16-5.29,1.1s-2.68-2.2-4.38-2.14-2.38,1.83-3.75,2.14-4.79-2.37-6.16-.87c-1.11,1.21,2.29,6.05,3.62,7.85h12.25C162.53,32.69,166.25,27.37,164.86,26.52Z"/></svg>