<svg xmlns="http://www.w3.org/2000/svg" viewBox="0 0 200 90"><title>preciousMetals</title><g id="9b8aa5d4-e830-443c-96ef-de0bbffbd667" data-name="ARTWORK"><polygon points="25.97 41.92 26.87 37.77 28.09 41.92 32.24 43.13 28.09 44.04 26.87 48.5 25.97 44.04 21.51 43.13 25.97 41.92" style="fill:#1e5748"/><polygon points="161.97 39.28 162.87 35.13 164.09 39.28 168.24 40.49 164.09 41.4 162.87 45.86 161.97 41.4 157.51 40.49 161.97 39.28" style="fill:#1e5748"/><polygon points="100.68 18.78 101.59 14.63 102.8 18.78 106.95 19.99 102.8 20.9 101.59 25.36 100.68 20.9 96.22 19.99 100.68 18.78" style="fill:#1e5748;stroke:#1e5748;stroke-linecap:round;stroke-linejoin:round"/><polygon points="171.68 61.78 172.59 57.63 173.8 61.78 177.95 62.99 173.8 63.9 172.59 68.36 171.68 63.9 167.22 62.99 171.68 61.78" style="fill:#1e5748"/><polygon points="144.47 47.55 107.94 47.55 116.05 23.19 136.35 23.19 144.47 47.55" style="fill:#1e5748;stroke:#1e5748;stroke-miterlimit:10;stroke-width:3px"/><polygon points="123.85 78.45 87.31 78.45 95.43 54.09 115.73 54.09 123.85 78.45" style="fill:none;stroke:#1e5748;stroke-miterlimit:10;stroke-width:3px"/><polygon points="165.92 78.45 129.38 78.45 137.5 54.09 157.8 54.09 165.92 78.45" style="fill:#1e5748;stroke:#1e5748;stroke-miterlimit:10;stroke-width:3px"/><path d="M51.42,55.88c-1.68-.18-4.21-.4-6-.4C34.11,55.49,25,59.16,25,63.67s9.15,8.16,20.42,8.15,20.42-3.68,20.41-8.19" style="fill:none;stroke:#1e5748;stroke-miterlimit:10;stroke-width:3px"/><path d="M65.81,63.34s-.11,6.92,0,10.18c-4,4.75-14,5.29-20.14,5.29-6.68,0-15.43-.42-20.69-5.15V63.52" style="fill:none;stroke:#1e5748;stroke-linejoin:round;stroke-width:3px"/><path d="M60.44,53.05c10.16,4.89,20,5.56,21.94,1.49s-4.7-11.32-14.86-16.21-20-5.56-21.94-1.49S50.27,48.16,60.44,53.05Z" style="fill:none;stroke:#1e5748;stroke-miterlimit:10;stroke-width:3px"/><path d="M82.37,54.55l-3.05,6.32c-1.95,4.07-11.71,3.26-21.87-1.63s-16.88-12-14.93-16.07l3-6.19" style="fill:none;stroke:#1e5748;stroke-miterlimit:10;stroke-width:3px"/></g></svg>