<svg xmlns="http://www.w3.org/2000/svg" viewBox="0 0 200 90"><defs><style>.cls-1{fill:#1e5748;}</style></defs><title>RESP</title><g id="ARTWORK"><path class="cls-1" d="M165.77,47.26A2.61,2.61,0,0,0,164,46.5h-3.22a31.13,31.13,0,0,0-5.67-9.66c1.3-2.39,2.24-5.5,1.78-7.14a2.09,2.09,0,0,0-1.11-1.38c-2.48-1.17-4.88.06-9.89,2.87a26.31,26.31,0,0,0-4.56-1.08,7.81,7.81,0,1,0-15.21-.1,29.57,29.57,0,0,0-10.79,4.28c-6.82,4.75-10.25,12.05-9.74,20.59a9.16,9.16,0,0,1-3.5-.6,6.15,6.15,0,0,0,2-4.3,4.57,4.57,0,0,0-4.67-4.78A4.62,4.62,0,0,0,94.64,50a6.38,6.38,0,0,0,1.74,4.22,6.82,6.82,0,0,1-3.07.49,1.56,1.56,0,0,0-.46,3.09,11.16,11.16,0,0,0,6.3-1.39A12.66,12.66,0,0,0,105.22,58c.27,0,.52,0,.78,0a34.83,34.83,0,0,0,3.16,7.55c1.51,2.87,3.55,6.48,5.32,9.4.28.47.87,1.35,1.38,2.12l.68,1a3.89,3.89,0,0,0,3.09,1.82h6.5a2.56,2.56,0,0,0,1.8-.76,2.52,2.52,0,0,0,.74-1.8v-4a39.74,39.74,0,0,0,6.68.22l1.3,4.1.06.16a3.37,3.37,0,0,0,1.3,1.52,3.46,3.46,0,0,0,1.93.59h6.84a2.56,2.56,0,0,0,1.79-.76,2.52,2.52,0,0,0,.74-1.8V70.67c4.35-1.26,9.39-4.63,11.52-9.73L164.53,59A3.41,3.41,0,0,0,166,57.71a3.61,3.61,0,0,0,.5-1.84V49.06A2.53,2.53,0,0,0,165.77,47.26ZM99.41,52.48l-.19.16A3.83,3.83,0,0,1,97.76,50a1.52,1.52,0,0,1,1.58-1.65,1.6,1.6,0,0,1,1.08.39,1.64,1.64,0,0,1,.46,1.27A3.74,3.74,0,0,1,99.41,52.48Zm64,3.39a.48.48,0,0,1-.05.23s0,.07-.18.13l-4.26,2.19a1.56,1.56,0,0,0-.75.86c-1.67,4.59-6.64,7.81-10.68,8.63a1.56,1.56,0,0,0-1.25,1.53v7.33H140a.41.41,0,0,1-.23-.09.35.35,0,0,1-.11-.1L138.48,73a34,34,0,0,0,3.41-.79,1.56,1.56,0,0,0-.87-3,29.54,29.54,0,0,1-9.08,1.22c-.71,0-1.4-.08-2.06-.14A18.74,18.74,0,0,1,122,67.86a1.56,1.56,0,1,0-1.71,2.62,18.79,18.79,0,0,0,5.27,2.18v4.12H119.7a.85.85,0,0,1-.52-.4l-.7-1.06c-.48-.72-1-1.56-1.31-2-1.75-2.88-3.75-6.41-5.23-9.23s-3-5.92-3.24-8.82c-.63-7.66,2.35-14.19,8.38-18.4A26.84,26.84,0,0,1,127.43,33a7.81,7.81,0,0,0,2.83,2.36h-4.37a.78.78,0,0,0,0,1.56h15.62a.78.78,0,0,0,0-1.56h-4.37a7.81,7.81,0,0,0,2.74-2.25,21.12,21.12,0,0,1,5.31,1.25,1.56,1.56,0,0,0,1.51,0c4.08-2.29,6-3.3,7.13-3.28a13.66,13.66,0,0,1-2,5.22,1.56,1.56,0,0,0,.28,2c3.18,2.77,5.33,8.13,6.11,10.3a1.56,1.56,0,0,0,1.47,1h3.74Z"/><path class="cls-1" d="M151.51,47.25a2.34,2.34,0,1,0,2.34,2.34A2.34,2.34,0,0,0,151.51,47.25Z"/><path class="cls-1" d="M75,29.9V43.82c-1.05,1.12-10.22,4.3-18,4.3-8.19,0-18.19-3-19.4-4.28v-14l18,6.94a1.77,1.77,0,0,0,1.34,0ZM88.1,39,85,30.08a1.37,1.37,0,0,0,0-.21V22.11h0a1.43,1.43,0,0,0-.1-.5,1.38,1.38,0,0,0-.07-.14,1.42,1.42,0,0,0-.2-.3L84.52,21a1.43,1.43,0,0,0-.32-.22l-.11-.06h0L57,10.44a1.43,1.43,0,0,0-1,0L28.22,20.75a1.45,1.45,0,0,0,0,2.71L55.93,34.25a1.44,1.44,0,0,0,1.06,0l25.11-10v5.62a1.37,1.37,0,0,0,0,.25L79.29,39a1.09,1.09,0,0,0,1,1.42h6.75a1.09,1.09,0,0,0,1-1.45ZM56.45,31.35,32.8,22.14l23.65-8.8,23.11,8.8Zm25.37,6.89,1.78-5.5,1.95,5.5Z"/></g></svg>