<svg xmlns="http://www.w3.org/2000/svg" viewBox="0 0 200 90"><defs><style>.cls-1{fill:#1e5748;}</style></defs><title>RIF</title><g id="ARTWORK"><path class="cls-1" d="M126,51.8a1.65,1.65,0,0,0-1.15-.47h-2a19.73,19.73,0,0,0-3.61-6.11c.82-1.52,1.4-3.49,1.11-4.53a1.33,1.33,0,0,0-.7-.87c-1.57-.74-3.09.05-6.26,1.84A16.67,16.67,0,0,0,110.4,41a4.95,4.95,0,1,0-9.64,0,18.74,18.74,0,0,0-6.83,2.74,14.28,14.28,0,0,0-6.12,13.07,5.8,5.8,0,0,1-2.22-.37,3.9,3.9,0,0,0,1.24-2.73,2.9,2.9,0,0,0-3-3,2.93,2.93,0,0,0-3,3A4,4,0,0,0,82,56.37a4.32,4.32,0,0,1-1.95.32,1,1,0,0,0-.29,2,7.08,7.08,0,0,0,4-.9,8,8,0,0,0,3.85,1l.5,0a22.07,22.07,0,0,0,2,4.78c1,1.82,2.26,4.1,3.4,5.95.18.3.56.85.88,1.34l.43.65a2.47,2.47,0,0,0,2,1.15l4.12,0a1.62,1.62,0,0,0,1.14-.49,1.6,1.6,0,0,0,.46-1.14V68.41a25.18,25.18,0,0,0,4.24.12l.83,2.59,0,.1a2.13,2.13,0,0,0,.83,1,2.19,2.19,0,0,0,1.22.37l4.34,0a1.62,1.62,0,0,0,1.13-.48,1.6,1.6,0,0,0,.47-1.14l0-4.23a11.51,11.51,0,0,0,7.28-6.19l2.33-1.21a2.16,2.16,0,0,0,.94-.85,2.29,2.29,0,0,0,.31-1.17l0-4.32A1.6,1.6,0,0,0,126,51.8Zm-42,3.47-.12.1a2.42,2.42,0,0,1-.93-1.67,1,1,0,0,1,1-1.05,1,1,0,0,1,.68.24,1,1,0,0,1,.3.8A2.37,2.37,0,0,1,83.92,55.27Zm40.55,2a.3.3,0,0,1,0,.15s0,0-.11.08l-2.7,1.4a1,1,0,0,0-.48.54c-1,2.91-4.19,5-6.75,5.49a1,1,0,0,0-.79,1l0,4.65-4,0a.26.26,0,0,1-.15-.06l-.07-.06-.73-2.26a21.56,21.56,0,0,0,2.16-.51,1,1,0,0,0-.56-1.9,18.72,18.72,0,0,1-5.75.79c-.45,0-.89,0-1.3-.08a11.88,11.88,0,0,1-5-1.53,1,1,0,1,0-1.07,1.66A11.91,11.91,0,0,0,100.53,68V70.6l-3.71,0a.54.54,0,0,1-.33-.25l-.45-.67c-.31-.46-.66-1-.84-1.27-1.11-1.82-2.39-4.06-3.34-5.84A15.62,15.62,0,0,1,89.81,57a12.41,12.41,0,0,1,5.27-11.68,17,17,0,0,1,6.55-2.5,5,5,0,0,0,1.8,1.49h-2.77a.5.5,0,1,0,0,1l9.9,0a.5.5,0,0,0,0-1h-2.77a5,5,0,0,0,1.73-1.43,13.38,13.38,0,0,1,3.37.78,1,1,0,0,0,1,0c2.58-1.46,3.8-2.11,4.51-2.09a8.66,8.66,0,0,1-1.28,3.32,1,1,0,0,0,.18,1.29c2,1.75,3.4,5.14,3.9,6.51a1,1,0,0,0,.93.65h2.37Z"/><path class="cls-1" d="M116.92,51.83a1.49,1.49,0,1,0,1.49,1.48A1.48,1.48,0,0,0,116.92,51.83Z"/><path class="cls-1" d="M78.36,46.68a10.81,10.81,0,0,0,4.39-5.32A45.47,45.47,0,0,1,65,46.31,47.79,47.79,0,0,0,78.36,46.68Z"/><path class="cls-1" d="M60.42,46.61l-3.25.13a19.35,19.35,0,0,0,10.61,2.93,20.29,20.29,0,0,0,8-1.61A45.54,45.54,0,0,1,60.42,46.61Z"/><path class="cls-1" d="M77.16,33.71C76.38,27.88,71.54,22,67.74,22S59.14,28,58.41,33.8c-3.89,1-6.22,2.73-6.21,5.59a6.05,6.05,0,0,0,.37,2,34,34,0,0,0,9.89,4.35c6-.42,14-1.75,20.6-5.73a6.1,6.1,0,0,0,0-.76C83.1,36.33,80.89,34.61,77.16,33.71Zm-3.72,8.17c-.46.41-3.38.8-5.62.81s-5.35-.31-5.55-.68a10,10,0,0,1-2.2-6.68c0-5.41,4.63-11.53,7.68-11.54s7.75,6.07,7.77,11.49A10,10,0,0,1,73.44,41.88Z"/><path class="cls-1" d="M54.11,44a12.7,12.7,0,0,0,2,1.91c.65,0,1.41,0,2.27,0A29.44,29.44,0,0,1,54.11,44Z"/><path class="cls-1" d="M68.13,32.92l-.93-.15c-.28,0-.62-.16-.62-.49a.7.7,0,0,1,.74-.65,2.06,2.06,0,0,1,1.37.42.8.8,0,0,0,.54.21.85.85,0,0,0,.61-.27.81.81,0,0,0,.21-.59.82.82,0,0,0-.27-.57,3.37,3.37,0,0,0-1.66-.76v-.6A.52.52,0,0,0,68,29.1a.53.53,0,0,0-.39-.16.54.54,0,0,0-.53.53V30A2.2,2.2,0,0,0,65,32.3a1.83,1.83,0,0,0,.62,1.46,2.89,2.89,0,0,0,1.37.64l.94.15a1.54,1.54,0,0,1,.89.33c.27.23.29.34.29.51a.81.81,0,0,1-.3.7,1.88,1.88,0,0,1-1.15.3,2.05,2.05,0,0,1-1.67-.62.82.82,0,0,0-1.15,1.16A3.51,3.51,0,0,0,67.09,38v.43a.53.53,0,0,0,.52.51h0a.52.52,0,0,0,.51-.53V38a3.21,3.21,0,0,0,1.6-.61,2.17,2.17,0,0,0,.24-.21,2.47,2.47,0,0,0,.69-1.79,2.16,2.16,0,0,0-.86-1.74A3,3,0,0,0,68.13,32.92Z"/><path class="cls-1" d="M132.24,44.16l0,30.74a2.87,2.87,0,0,1-2.64,1.81l-79,.3a3,3,0,0,1-2-.84,2.87,2.87,0,0,1-.86-2l-.22-57a2.88,2.88,0,0,1,1.81-2.67c1.86-.11,17.23-.26,27.4-.33h0A2.89,2.89,0,0,1,79.56,17l0,5.89,48.14-.18a17.88,17.88,0,0,1,1.86-3l-47,.17V17a5.9,5.9,0,0,0-5.89-5.87h0c-27.54.21-27.91.34-28.22.44a5.89,5.89,0,0,0-4,5.57l.22,57A5.9,5.9,0,0,0,50.56,80h0l79-.3a5.87,5.87,0,0,0,5.56-4.08l.07-.23,0-29.2A18,18,0,0,1,132.24,44.16Z"/><path class="cls-1" d="M139.49,22.55A16.76,16.76,0,0,1,141,15.89c.17-.37.35-.72.54-1.08s.42-.73.65-1.08a16.93,16.93,0,0,1,1.42-1.91,14.87,14.87,0,0,0,10.65,27.77A16.89,16.89,0,0,1,139.49,22.55Z"/><path class="cls-1" d="M171.23,23.12a14.87,14.87,0,0,0-26.58-9.43c-.24.31-.48.63-.69,1s-.43.66-.62,1a14.87,14.87,0,0,0,12.74,22.08c.24,0,.47,0,.71,0s.69,0,1-.06l.12,0c.4,0,.8-.09,1.19-.16.23,0,.45-.11.68-.16a14.78,14.78,0,0,0,11.43-14.19Zm-10.7,5.62-.06.07a4.27,4.27,0,0,1-.44.36,4.62,4.62,0,0,1-.43.27,5.27,5.27,0,0,1-1,.44,6.62,6.62,0,0,1-1.39.31v.65a1,1,0,0,1-1,1h-.06a1,1,0,0,1-1-1v-.66a6.28,6.28,0,0,1-4-2A1.55,1.55,0,0,1,153.39,26a3.52,3.52,0,0,0,2.84,1.12,3.32,3.32,0,0,0,1.93-.44l0,0a1.31,1.31,0,0,0,.51-1.13c0-.24,0-.42-.45-.82a2,2,0,0,0-1-.48l-.5-.1-1.64-.3a5.18,5.18,0,0,1-2.44-1.2A3.36,3.36,0,0,1,151.6,20a4.2,4.2,0,0,1,.46-1.83,3.74,3.74,0,0,1,1.33-1.5,4.34,4.34,0,0,1,2-.69l0-.86a1.05,1.05,0,0,1,1.06-1,1,1,0,0,1,.75.33,1,1,0,0,1,.27.75v1a6,6,0,0,1,2.85,1.42,1.55,1.55,0,0,1,.07,2.19,1.6,1.6,0,0,1-1.16.48,1.52,1.52,0,0,1-1-.42,3.4,3.4,0,0,0-2.1-.74l-.22,0h0a1.32,1.32,0,0,0-.91.25,1,1,0,0,0-.3.75.71.71,0,0,0,0,.33,2.15,2.15,0,0,0,.94.45l.76.14.86.16c.2,0,.37.08.55.12a5.11,5.11,0,0,1,2.47,1.2,3.91,3.91,0,0,1,1.48,3.17A4.46,4.46,0,0,1,160.53,28.74Z"/><path class="cls-1" d="M132.17,25.36a16.78,16.78,0,0,1,.93-5.19A14.86,14.86,0,0,0,153.22,42a16.81,16.81,0,0,1-21-16.63Z"/></g></svg>