<svg xmlns="http://www.w3.org/2000/svg" viewBox="0 0 200 90"><defs><style>.cls-1{fill:#1e5748;}.cls-2{fill:none;stroke:#1e5748;stroke-linecap:round;stroke-linejoin:round;stroke-width:3px;}</style></defs><title>TDBalanceProtectionInsurance</title><g id="ARTWORK"><path class="cls-1" d="M168.45,15.35a.86.86,0,0,0-.68-.2,16.2,16.2,0,0,1-13.84-4.9.86.86,0,0,0-.61-.25h0a.86.86,0,0,0-.61.25,16.49,16.49,0,0,1-13.85,5,.85.85,0,0,0-.68.21.86.86,0,0,0-.29.64c0,22.21,7.65,26.08,15,29.84a.85.85,0,0,0,.39.09.87.87,0,0,0,.4-.1c7.39-3.86,15-7.85,15-29.9A.86.86,0,0,0,168.45,15.35ZM153.32,44.18c-7-3.56-13.5-7.22-13.7-27.16a18.17,18.17,0,0,0,13.71-5A17.86,17.86,0,0,0,167,17C166.83,36.76,160.31,40.52,153.32,44.18Z"/><path class="cls-1" d="M164.44,18.71a19.49,19.49,0,0,1-10.61-4,.86.86,0,0,0-1,0,19.81,19.81,0,0,1-10.61,4,.86.86,0,0,0-.8.89C142,35.13,146.75,38.82,152.9,42a.86.86,0,0,0,.8,0c5.93-3.2,10.89-7.1,11.54-22.44A.86.86,0,0,0,164.44,18.71Z"/><path class="cls-1" d="M81.65,47.52H34.18a2.51,2.51,0,0,0-2.5,2.5V77.5a2.51,2.51,0,0,0,2.5,2.5H81.65a2.51,2.51,0,0,0,2.5-2.5V50A2.51,2.51,0,0,0,81.65,47.52Zm-.43,29.73H34.6V62.53H81.22Zm0-20.86H34.6V50.27H81.22Z"/><path class="cls-1" d="M96.44,19.65A7.64,7.64,0,1,0,101.8,29h0a7.59,7.59,0,0,0-5.28-9.35ZM97,30.35l-.23.23a3.26,3.26,0,0,1-1.71.63v.46a.58.58,0,0,1-.57.57h-.07a.61.61,0,0,1-.57-.57v-.42a4.09,4.09,0,0,1-2.46-1.17.83.83,0,0,1,0-1.17l0,0a1.23,1.23,0,0,1,1.25,0,2.17,2.17,0,0,0,1.77.69,1.77,1.77,0,0,0,1.2-.34.75.75,0,0,0,.34-.69.53.53,0,0,0-.28-.52,1.38,1.38,0,0,0-.91-.34l-1-.18a3,3,0,0,1-1.43-.69,1.94,1.94,0,0,1-.66-1.52,2.34,2.34,0,0,1,2.23-2.4v-.6a.61.61,0,0,1,.57-.57.58.58,0,0,1,.57.57v.63a3.62,3.62,0,0,1,1.77.8.91.91,0,0,1,.28.63.86.86,0,0,1-.23.63.91.91,0,0,1-.63.28.73.73,0,0,1-.57-.23,2.14,2.14,0,0,0-1.43-.46.76.76,0,0,0-.8.69.62.62,0,0,0,.63.52l1,.18a3.16,3.16,0,0,1,1.77.74,2.22,2.22,0,0,1,.91,1.83,2.64,2.64,0,0,1-.69,1.86Z"/><line class="cls-2" x1="88.45" y1="46.59" x2="120.48" y2="46.59"/><line class="cls-2" x1="88.45" y1="55.96" x2="120.48" y2="55.96"/><line class="cls-2" x1="88.45" y1="65.32" x2="120.48" y2="65.32"/><path class="cls-1" d="M111.53,11V26.83a3.27,3.27,0,0,0,3.26,3.26h15.86A20.63,20.63,0,0,0,128,23.76L116.83,12.49A33.49,33.49,0,0,0,111.53,11Z"/><path class="cls-1" d="M131.28,27.26,115.82,10.53a1.5,1.5,0,0,0-1.1-.48H79.55A2.59,2.59,0,0,0,77,12.64V44.52h3V13.05h34.1l14.61,15.81V77H87.15v.51a5.46,5.46,0,0,1-.6,2.49h42.55a2.59,2.59,0,0,0,2.59-2.59V28.28A1.5,1.5,0,0,0,131.28,27.26Z"/></g></svg>