<svg id="ARTWORK" xmlns="http://www.w3.org/2000/svg" viewBox="0 0 200 90"><defs><style>.cls-1{fill:#1e5748;}</style></defs><title>TDFlexLine</title><path class="cls-1" d="M72.75,22.47V13.6a.89.89,0,0,0-.89-.89H69.21a.89.89,0,0,0-.89.89v4.45l-7.13-7.11c-1.24-1.24-2.28-1.27-3.5,0L41.75,26.85l4.46,0V43.72a.89.89,0,0,0,.89.89H71.86a.89.89,0,0,0,.89-.89V26.88h4.43ZM71,42.84H48v-17L59.46,14.45,71,25.49Z"/><path class="cls-1" d="M58.56,23.25v.87a3.51,3.51,0,0,0-3.38,3.63,2.93,2.93,0,0,0,1,2.33,8,8,0,0,0,3.68,1.27c1.29.05,1.84.76,1.87,1.34a1.23,1.23,0,0,1-.49,1.11,3,3,0,0,1-1.84.48,3.33,3.33,0,0,1-2.66-1,1.37,1.37,0,0,0-1.85,0,1.35,1.35,0,0,0,0,1.85,5.61,5.61,0,0,0,3.68,1.72v.69a.77.77,0,0,0,.85.82.79.79,0,0,0,.86-.85v-.68a5.58,5.58,0,0,0,2.94-1.29,3.83,3.83,0,0,0,1.12-2.85A3.46,3.46,0,0,0,63,29.89a4.77,4.77,0,0,0-2.71-1.13l-1.48-.24c-.45-.07-1-.26-1-.78a1.11,1.11,0,0,1,1.18-1,3.3,3.3,0,0,1,2.19.67A1.32,1.32,0,0,0,63,27.3a1.4,1.4,0,0,0-.09-1.85,5.16,5.16,0,0,0-2.65-1.23v-1a.78.78,0,0,0-.85-.86A.87.87,0,0,0,58.56,23.25Z"/><path class="cls-1" d="M150.43,40.92h-16.6c-8.14,8.07-18.26,20.75-13.06,30,4.11,7.31,13.4,9.2,22.41,9.08s17.75-2.27,20.75-9.08C167.77,62.21,158,49.18,150.43,40.92Zm-2.55,27.33a5.21,5.21,0,0,1-.57.49,7.73,7.73,0,0,1-3.86,1.44v1a1.26,1.26,0,0,1-1.24,1.28h-.07a1.27,1.27,0,0,1-1.25-1.24v-1a8.44,8.44,0,0,1-5.53-2.59,2,2,0,0,1,2.78-2.78,4.93,4.93,0,0,0,4,1.5,4.53,4.53,0,0,0,2.77-.72,2,2,0,0,0,.73-1.67c0-.39,0-.67-.69-1.22a3.69,3.69,0,0,0-2.13-.8l-2.25-.36A6.94,6.94,0,0,1,137.28,60a4.4,4.4,0,0,1-1.48-3.51,5.28,5.28,0,0,1,5.09-5.46v-1.3a1.31,1.31,0,0,1,1.28-1.28,1.29,1.29,0,0,1,.93.39,1.25,1.25,0,0,1,.35.9v1.44a8.09,8.09,0,0,1,4,1.85,2,2,0,0,1,.65,1.38,1.94,1.94,0,0,1-.51,1.41,2,2,0,0,1-1.47.64,1.93,1.93,0,0,1-1.31-.5,5,5,0,0,0-3.29-1,1.68,1.68,0,0,0-1.78,1.55c0,.79.81,1.08,1.48,1.18l2.23.37a7.18,7.18,0,0,1,4.08,1.7A5.2,5.2,0,0,1,149.56,64,5.93,5.93,0,0,1,147.88,68.25Z"/><path class="cls-1" d="M155.33,28.4c-2.28-1.38-5.08,1.55-7.08,1.47s-3.58-2.94-5.87-2.86-3.19,2.44-5,2.86-6.4-3.17-8.24-1.17c-1.49,1.62,3.06,8.1,4.84,10.5h16.39C152.22,36.66,157.2,29.53,155.33,28.4Z"/><path class="cls-1" d="M35,41.19v2.23a2.72,2.72,0,0,0,2.72,2.72H58.09v3.35A21.34,21.34,0,0,0,37.24,70.75v8.79h45.1V70.75A21.34,21.34,0,0,0,61.49,49.49V46.14H81.64a2.72,2.72,0,0,0,2.72-2.72V41.19ZM69.77,62.72A10.09,10.09,0,1,1,59.68,52.62,10.1,10.1,0,0,1,69.77,62.72Z"/><path class="cls-1" d="M59.79,66.08c-4.72,0,0-10.19,0-10.19S64.51,66.08,59.79,66.08Z"/><path class="cls-1" d="M118.89,28.75,116.06,21a1.83,1.83,0,0,0-3.44,1.25l1.06,2.92c-10.48-6-21.06-1.9-21.56-1.7a1.83,1.83,0,0,0,1.36,3.39C94,26.64,103.74,22.91,113,29l-4.54,1.72a1.83,1.83,0,1,0,1.3,3.42l8.06-3.06A1.83,1.83,0,0,0,118.89,28.75Z"/></svg>