<svg xmlns="http://www.w3.org/2000/svg" viewBox="0 0 200 90"><defs><style>.cls-1{fill:#1e5748;}</style></defs><title>TDLoanLifeDisabilityInsurance</title><g id="ARTWORK"><path class="cls-1" d="M96.28,27l2.46-6.71a.78.78,0,0,1,.84-.56.82.82,0,0,1,.72.56l2.4,8,2-3.85a.82.82,0,0,1,1.4,0l2,3.05,2.75-6a.8.8,0,0,1,.78-.48.82.82,0,0,1,.74.54l2.83,7.69,2-3.89a.82.82,0,0,1,.72-.44h8.38a10.46,10.46,0,0,0,.82-7.35,9.66,9.66,0,0,0-10.56-7c-4.25.62-6.35,3.79-9.06,6.59-3-3.15-4.67-6.07-9-6.69a9.64,9.64,0,0,0-10.58,7,11.72,11.72,0,0,0,2,9.54Z"/><path class="cls-1" d="M118.56,26.56l-2.64,5.09a.82.82,0,0,1-.74.44h0a.82.82,0,0,1-.72-.54L111.56,24,109,29.46a.82.82,0,0,1-1.42.1l-2-3.11-2.38,4.39a.84.84,0,0,1-.8.42.82.82,0,0,1-.7-.58l-2.28-7.55-1.84,4.93a.82.82,0,0,1-.78.54H91c3.67,4.85,9.84,9.8,16.43,15.69,7.67-6.91,14.75-12.3,18.11-17.75h-7Z"/><path class="cls-1" d="M150.46,38.54A10.91,10.91,0,1,1,133.84,25a1.34,1.34,0,1,1,1.72,2.06A8.23,8.23,0,1,0,148.1,37.27a1.34,1.34,0,1,1,2.36,1.27Zm10.38-.73a1.35,1.35,0,0,0-1.78-1L156,37.92l-4.45-10.22L141,27.62l-.53-3.26,7.79.06a1.34,1.34,0,1,0,0-2.68L140,21.68c-.28-1.72-.54-3.36-.75-4.7h.09a3.31,3.31,0,1,0-3.28-3.34c0,.06,0,.12,0,.18a2.07,2.07,0,0,0,0,.24c0,.1,0,.2,0,.3.15,1.07.66,4.33,2.36,14.79l.18,1.12,11.07.09,4.77,10.94,5.37-2A1.39,1.39,0,0,0,160.85,37.8Z"/><path class="cls-1" d="M72.27,40.22C83.36,52.6,88.23,63,85.65,68.85c-2.88,6.54-12.47,8-20,8.14h-.86c-10.81,0-17.88-2.83-21-8.41C41.7,64.92,40.7,56.4,56.68,40.22H72.27m1.33-3H55.44c-8.91,8.83-20,22.71-14.29,32.84C45.51,77.82,55.2,80,64.78,80h.9c9.87-.14,19.43-2.48,22.71-9.93,4.2-9.53-6.51-23.79-14.79-32.84Z"/><path class="cls-1" d="M64.91,25a6.33,6.33,0,0,1,1.56,1,8.09,8.09,0,0,0,4.64,2.12h.2a9.65,9.65,0,0,0,4.1-1.23h0A52.29,52.29,0,0,1,72,32.35H57.12a40.88,40.88,0,0,1-3.53-5.75c.42.15.85.32,1.22.47a11.6,11.6,0,0,0,4.14,1.11,4.64,4.64,0,0,0,1-.11,8,8,0,0,0,3.61-2.14c.63-.56,1-.9,1.32-.92m0-3h-.1c-2.5.09-3.49,2.68-5.5,3.13a1.64,1.64,0,0,1-.36,0c-1.68,0-4.75-2-6.95-2a2.19,2.19,0,0,0-1.7.67c-1.63,1.77,3.35,8.86,5.3,11.49H73.53c2-2.78,7.49-10.59,5.45-11.83a2.79,2.79,0,0,0-1.48-.41c-2.12,0-4.42,2-6.18,2h-.09C69.07,25.05,67.36,22,64.91,22Z"/><path class="cls-1" d="M70.82,67.14a5.69,5.69,0,0,1-.63.54A8.46,8.46,0,0,1,66,69.26v1.12a1.38,1.38,0,0,1-1.36,1.4h-.08a1.39,1.39,0,0,1-1.37-1.36V69.3a9.24,9.24,0,0,1-6.06-2.83,2.15,2.15,0,0,1,3-3,5.4,5.4,0,0,0,4.39,1.65,5,5,0,0,0,3-.79,2.14,2.14,0,0,0,.8-1.83c0-.43-.05-.74-.76-1.33a4,4,0,0,0-2.33-.87l-2.46-.4a7.6,7.6,0,0,1-3.6-1.69,4.82,4.82,0,0,1-1.62-3.85,5.78,5.78,0,0,1,5.57-6V46.91a1.43,1.43,0,0,1,1.4-1.4,1.41,1.41,0,0,1,1,.43,1.36,1.36,0,0,1,.38,1V48.5a8.86,8.86,0,0,1,4.36,2A2.16,2.16,0,0,1,71,52a2.12,2.12,0,0,1-.56,1.54,2.24,2.24,0,0,1-1.61.7,2.11,2.11,0,0,1-1.43-.55,5.43,5.43,0,0,0-3.6-1.11,1.83,1.83,0,0,0-1.94,1.69c0,.87.89,1.18,1.62,1.29L66,56a7.86,7.86,0,0,1,4.46,1.86,5.7,5.7,0,0,1,2.25,4.58A6.49,6.49,0,0,1,70.82,67.14Z"/></g></svg>