<svg xmlns="http://www.w3.org/2000/svg" viewBox="0 0 200 90"><defs><style>.cls-1{fill:#1e5748;}.cls-2{fill:none;stroke:#1e5748;stroke-linecap:round;stroke-linejoin:round;stroke-width:3px;}</style></defs><title>personalLineOfCredit</title><g id="ARTWORK"><path class="cls-1" d="M79.41,39.19v1.72a7,7,0,0,0-6.73,7.21,5.84,5.84,0,0,0,2,4.64C77.1,54.85,82,55.29,82,55.29c2.56.11,3.66,1.52,3.73,2.66a2.44,2.44,0,0,1-1,2.21,6,6,0,0,1-3.66.95,6.63,6.63,0,0,1-5.3-2,2.72,2.72,0,0,0-3.67,0,2.68,2.68,0,0,0,0,3.67,11.15,11.15,0,0,0,7.31,3.42v1.37a1.53,1.53,0,0,0,1.69,1.64,1.58,1.58,0,0,0,1.7-1.69V66.17a11.1,11.1,0,0,0,5.85-2.56,7.61,7.61,0,0,0,2.23-5.68,6.87,6.87,0,0,0-2.71-5.53,9.49,9.49,0,0,0-5.39-2.24l-2.94-.48c-.89-.13-2-.51-2-1.56a2.21,2.21,0,0,1,2.35-2,6.56,6.56,0,0,1,4.35,1.34,2.62,2.62,0,0,0,3.67-.18,2.79,2.79,0,0,0-.18-3.68,10.26,10.26,0,0,0-5.26-2.45v-1.9a1.56,1.56,0,0,0-1.69-1.71A1.73,1.73,0,0,0,79.41,39.19Z"/><path class="cls-1" d="M106.23,38.49V21.79a1.67,1.67,0,0,0-1.67-1.67h-5a1.67,1.67,0,0,0-1.67,1.67v8.38L84.45,16.78c-2.34-2.34-4.29-2.39-6.59-.08l-30,30s5.75.05,8.39.06l1.25-.1,2.69-2.51h0l21-20.83,21.62,20.74h0l2.69,2.51.74.18h8.33Z"/><polyline class="cls-2" points="104.42 42.02 104.42 78.53 57.92 78.53 57.92 42.44"/><path class="cls-1" d="M151.34,15.69a.91.91,0,0,0-.73-.21,17.22,17.22,0,0,1-14.72-5.21.91.91,0,0,0-.65-.27h0a.91.91,0,0,0-.65.27,17.53,17.53,0,0,1-14.73,5.28.9.9,0,0,0-.72.22.91.91,0,0,0-.31.69c0,23.61,8.13,27.73,16,31.72a.9.9,0,0,0,.41.1.92.92,0,0,0,.43-.1c7.86-4.1,16-8.35,16-31.79A.91.91,0,0,0,151.34,15.69Zm-16.1,30.65c-7.44-3.78-14.36-7.68-14.57-28.87a19.32,19.32,0,0,0,14.57-5.29,19,19,0,0,0,14.58,5.22C149.61,38.45,142.69,42.45,135.25,46.34Z"/><path class="cls-1" d="M147.08,19.26A20.72,20.72,0,0,1,135.8,15a.91.91,0,0,0-1.1,0,21.06,21.06,0,0,1-11.28,4.28.91.91,0,0,0-.85.95c.65,16.47,5.7,20.4,12.24,23.82a.91.91,0,0,0,.86,0c6.31-3.4,11.58-7.54,12.27-23.85A.91.91,0,0,0,147.08,19.26Zm-6,11.63a.53.53,0,0,1-.53.53h-3v3a.53.53,0,0,1-.53.53h-3.5a.53.53,0,0,1-.53-.53v-3h-3a.53.53,0,0,1-.53-.53v-3.5a.53.53,0,0,1,.53-.53h3v-3a.53.53,0,0,1,.53-.53H137a.53.53,0,0,1,.53.53v3h3a.53.53,0,0,1,.53.53Z"/></g></svg>