<svg xmlns="http://www.w3.org/2000/svg" viewBox="0 0 200 90"><defs><style>.cls-1{fill:#1e5748;}</style></defs><title>TDMutualFunds</title><g id="ARTWORK"><path class="cls-1" d="M170.62,27.12h-9.14a1.9,1.9,0,0,0-1.62,2.14,2,2,0,0,0,2.29,1.62h3.91L150.62,45.69l-15.45-5.14a1.83,1.83,0,0,0-2.08.18L113.48,55.54l-.24.18a1.88,1.88,0,0,0,2.53,2.78l18.82-14.19,15.56,5.17a2.1,2.1,0,0,0,2.32-.29l16.26-15.66v3.93s0,0,0,.05a1.88,1.88,0,0,0,3.76-.05V29A1.88,1.88,0,0,0,170.62,27.12Z"/><path class="cls-1" d="M122,27.79a1,1,0,0,1-1-1v-1a1,1,0,0,1,2,0v1A1,1,0,0,1,122,27.79Z"/><path class="cls-1" d="M122,39.05a1,1,0,0,1-1-1V36.44a1,1,0,0,1,2,0v1.61A1,1,0,0,1,122,39.05Zm0-5.63a1,1,0,0,1-1-1V30.81a1,1,0,1,1,2,0v1.61A1,1,0,0,1,122,33.42Z"/><path class="cls-1" d="M122,55.94a1,1,0,0,1-1-1V53.33a1,1,0,0,1,2,0v1.61A1,1,0,0,1,122,55.94Zm0-5.63a1,1,0,0,1-1-1V47.71a1,1,0,1,1,2,0v1.61A1,1,0,0,1,122,50.31Zm0-5.63a1,1,0,0,1-1-1V42.07a1,1,0,0,1,2,0v1.61A1,1,0,0,1,122,44.68Z"/><path class="cls-1" d="M122,61a1,1,0,0,1-1-1V59a1,1,0,0,1,2,0v1A1,1,0,0,1,122,61Z"/><path class="cls-1" d="M139.18,27.79a1,1,0,0,1-1-1v-1a1,1,0,0,1,2,0v1A1,1,0,0,1,139.18,27.79Z"/><path class="cls-1" d="M139.18,39.05a1,1,0,0,1-1-1V36.44a1,1,0,0,1,2,0v1.61A1,1,0,0,1,139.18,39.05Zm0-5.63a1,1,0,0,1-1-1V30.81a1,1,0,1,1,2,0v1.61A1,1,0,0,1,139.18,33.42Z"/><path class="cls-1" d="M139.18,55.94a1,1,0,0,1-1-1V53.33a1,1,0,0,1,2,0v1.61A1,1,0,0,1,139.18,55.94Zm0-5.63a1,1,0,0,1-1-1V47.71a1,1,0,1,1,2,0v1.61A1,1,0,0,1,139.18,50.31Zm0-5.63a1,1,0,0,1-1-1V42.07a1,1,0,0,1,2,0v1.61A1,1,0,0,1,139.18,44.68Z"/><path class="cls-1" d="M139.18,61a1,1,0,0,1-1-1V59a1,1,0,0,1,2,0v1A1,1,0,0,1,139.18,61Z"/><path class="cls-1" d="M156.33,27.79a1,1,0,0,1-1-1v-1a1,1,0,0,1,2,0v1A1,1,0,0,1,156.33,27.79Z"/><path class="cls-1" d="M156.33,39.05a1,1,0,0,1-1-1V36.44a1,1,0,0,1,2,0v1.61A1,1,0,0,1,156.33,39.05Zm0-5.63a1,1,0,0,1-1-1V30.81a1,1,0,1,1,2,0v1.61A1,1,0,0,1,156.33,33.42Z"/><path class="cls-1" d="M156.33,55.94a1,1,0,0,1-1-1V53.33a1,1,0,0,1,2,0v1.61A1,1,0,0,1,156.33,55.94Zm0-5.63a1,1,0,0,1-1-1V47.71a1,1,0,1,1,2,0v1.61A1,1,0,0,1,156.33,50.31Zm0-5.63a1,1,0,0,1-1-1V42.07a1,1,0,0,1,2,0v1.61A1,1,0,0,1,156.33,44.68Z"/><path class="cls-1" d="M156.33,61a1,1,0,0,1-1-1V59a1,1,0,0,1,2,0v1A1,1,0,0,1,156.33,61Z"/><path class="cls-1" d="M16.38,10.11V42.22H52.29V10.11ZM40,35.27H31.59V20.21h4.2V32.6h4c2.79,0,4-1.93,4-6.91s-1.33-6.46-4.16-6.46H30.41v16H26.25v-16h-6.1V16.56H40.92c5,0,7.39,2.59,7.39,9.09C48.32,34.22,44.76,35.27,40,35.27Z"/><path class="cls-1" d="M106.8,41.09H93.63V38.15a4.76,4.76,0,0,0-4.75-4.75H78.31a4.76,4.76,0,0,0-4.75,4.75v2.94H60.39a2.07,2.07,0,0,0-2.06,2.06V77.78a2.07,2.07,0,0,0,2.06,2.06H106.8a2.07,2.07,0,0,0,2.06-2.06V43.16A2.07,2.07,0,0,0,106.8,41.09ZM76.73,38.15a1.59,1.59,0,0,1,1.59-1.59H88.88a1.59,1.59,0,0,1,1.59,1.59v2.94H76.73ZM75.25,72.82H70.54V63l4.71-3.57Zm9.49,0-4.73,0V58.72l4.73,1.42Zm9.5-.05-4.72,0V59.05l4.72-4.72Zm3.14-20a1.09,1.09,0,0,1-2.18,0s0,0,0,0V50.48l-8,8a1.22,1.22,0,0,1-1.35.17l-9-3-9.35,7.27a1.09,1.09,0,1,1-1.46-1.61l.14-.11L76,53.53a1.06,1.06,0,0,1,1.21-.1l9,3,7.48-7.46H91.39a1.1,1.1,0,0,1-.31-2.18h5.21a1.09,1.09,0,0,1,1.09,1.09Z"/><path class="cls-1" d="M180,16.51H101.14a3.22,3.22,0,0,0-3.21,3.21V37.47h3V19.73a.23.23,0,0,1,.23-.23H180a.23.23,0,0,1,.23.23V65.56a.23.23,0,0,1-.23.23H112.53v3H180a3.22,3.22,0,0,0,3.21-3.21V19.73A3.22,3.22,0,0,0,180,16.51Z"/></g></svg>