<svg id="ARTWORK" xmlns="http://www.w3.org/2000/svg" viewBox="0 0 200 90"><defs><style>.cls-1{fill:#1e5748;}</style></defs><title>TDonTheSpotRSP</title><path class="cls-1" d="M120.46,34.88,117.6,27a1.85,1.85,0,1,0-3.48,1.26l1.07,3c-10.61-6.08-21.33-1.92-21.83-1.72a1.85,1.85,0,0,0,1.37,3.44c.47-.19,10.38-4,19.76,2.2l-4.6,1.74a1.85,1.85,0,0,0,1.31,3.46l8.16-3.1A1.85,1.85,0,0,0,120.46,34.88Z"/><path class="cls-1" d="M29,21.57V30a.93.93,0,0,1-.92.93h-.27a.94.94,0,0,1-.93-.93V21.57a.93.93,0,0,1,.93-.93h.27A.92.92,0,0,1,29,21.57Z"/><path class="cls-1" d="M57.09,22v8.45a.93.93,0,0,1-.92.93h-.28a.93.93,0,0,1-.92-.93V22a.92.92,0,0,1,.92-.93h.28A.92.92,0,0,1,57.09,22Z"/><path class="cls-1" d="M43,22v8.45a.94.94,0,0,1-.93.93h-.27a.94.94,0,0,1-.93-.93V22a.93.93,0,0,1,.93-.93H42A.93.93,0,0,1,43,22Z"/><path class="cls-1" d="M65,64.41v1.31a1.4,1.4,0,0,1-1.4,1.41h-44a1.4,1.4,0,0,1-1.4-1.41v-30H65v5.41q1.27-1.52,2.79-3.1V36.8c-3.57-5.2-3.16-7-2.1-8.18a3.11,3.11,0,0,1,1.62-1,3.46,3.46,0,0,0-3-1.78H57.5v2.86a2.41,2.41,0,0,1,.68,1.69,2.45,2.45,0,0,1-4.89,0A2.41,2.41,0,0,1,54,28.75V25.89H43.35v2.86A2.42,2.42,0,0,1,44,30.44a2.45,2.45,0,0,1-4.89,0,2.41,2.41,0,0,1,.68-1.69V25.89H29.38v2.86a2.41,2.41,0,0,1,.68,1.69,2.45,2.45,0,0,1-4.89,0,2.42,2.42,0,0,1,.69-1.69V25.89h-7a3.51,3.51,0,0,0-3.5,3.5v37a3.51,3.51,0,0,0,3.5,3.5H64.31a3.5,3.5,0,0,0,3.5-3.5v-.89A17,17,0,0,1,65,64.41Z"/><path class="cls-1" d="M28.62,45.33H26.56V44a2.45,2.45,0,0,0-.07-.75.28.28,0,0,0-.29-.15.3.3,0,0,0-.32.18,2.73,2.73,0,0,0-.07.78v3.67a2.55,2.55,0,0,0,.07.75.29.29,0,0,0,.31.18.29.29,0,0,0,.3-.18,2.84,2.84,0,0,0,.07-.83v-1h2.06v.31a6.05,6.05,0,0,1-.17,1.74,1.78,1.78,0,0,1-.77.9,2.62,2.62,0,0,1-1.46.39,3,3,0,0,1-1.49-.33,1.59,1.59,0,0,1-.78-.91A5.94,5.94,0,0,1,23.76,47V44.67a10.27,10.27,0,0,1,.06-1.28,1.8,1.8,0,0,1,.35-.82,2,2,0,0,1,.81-.62,3.3,3.3,0,0,1,2.68.12,1.69,1.69,0,0,1,.78.88,5.28,5.28,0,0,1,.19,1.63Z"/><path class="cls-1" d="M34.23,41.89v5.28a9.16,9.16,0,0,1-.06,1.26,1.71,1.71,0,0,1-.35.75,1.8,1.8,0,0,1-.76.58A2.85,2.85,0,0,1,32,50a3.12,3.12,0,0,1-1.25-.23,1.88,1.88,0,0,1-.81-.61,1.68,1.68,0,0,1-.32-.79q0-.42,0-1.75V41.89h2.06v5.93a2.35,2.35,0,0,0,.06.66.22.22,0,0,0,.23.14.24.24,0,0,0,.25-.16,2.91,2.91,0,0,0,.06-.75V41.89Z"/><path class="cls-1" d="M35.22,41.89h1.46a11.1,11.1,0,0,1,2,.11,1.36,1.36,0,0,1,.84.57A2.61,2.61,0,0,1,39.81,44a2.3,2.3,0,0,1-.23,1.24,1.21,1.21,0,0,1-.9.38,1.53,1.53,0,0,1,.82.41,1.2,1.2,0,0,1,.26.47,7.39,7.39,0,0,1,.05,1.17v2.08H37.9V47.16a1.82,1.82,0,0,0-.1-.79c-.07-.1-.24-.15-.53-.15v3.56H35.22Zm2.06,1.35V45a.91.91,0,0,0,.49-.1q.14-.1.14-.62v-.43a.66.66,0,0,0-.13-.49A.76.76,0,0,0,37.28,43.24Z"/><path class="cls-1" d="M40.81,41.89h1.46a11.1,11.1,0,0,1,2,.11,1.36,1.36,0,0,1,.84.57A2.61,2.61,0,0,1,45.4,44a2.3,2.3,0,0,1-.23,1.24,1.21,1.21,0,0,1-.9.38,1.53,1.53,0,0,1,.82.41,1.2,1.2,0,0,1,.26.47,7.39,7.39,0,0,1,.05,1.17v2.08H43.49V47.16a1.82,1.82,0,0,0-.1-.79c-.07-.1-.24-.15-.53-.15v3.56H40.81Zm2.06,1.35V45a.91.91,0,0,0,.49-.1q.14-.1.14-.62v-.43a.66.66,0,0,0-.13-.49A.76.76,0,0,0,42.86,43.24Z"/><path class="cls-1" d="M46.39,41.89h3.43v1.58H48.45V45h1.28v1.5H48.45v1.74H50v1.58H46.39Z"/><path class="cls-1" d="M55.34,41.89v7.91h-1.8L52.47,46.2v3.59H50.75V41.89h1.72l1.15,3.56V41.89Z"/><path class="cls-1" d="M60.5,41.89v1.58H59.28v6.32H57.23V43.47H56V41.89Z"/><path class="cls-1" d="M36.8,53.89l-1.5,5v2.86H33.4V58.93l-1.45-5h1.89q.44,2.31.5,3.12.17-1.27.57-3.12Z"/><path class="cls-1" d="M37.35,53.89h3.43v1.58H39.41V57h1.28v1.5H39.41v1.74h1.51v1.58H37.35Z"/><path class="cls-1" d="M45.26,53.89l1.18,7.91h-2.1l-.11-1.42h-.74l-.12,1.42H41.24l1-7.91ZM44.17,59q-.16-1.34-.31-3.32-.31,2.27-.39,3.32Z"/><path class="cls-1" d="M47,53.89h1.46a11.1,11.1,0,0,1,2,.11,1.36,1.36,0,0,1,.84.57A2.61,2.61,0,0,1,51.57,56a2.3,2.3,0,0,1-.23,1.24,1.21,1.21,0,0,1-.9.38,1.53,1.53,0,0,1,.82.41,1.2,1.2,0,0,1,.26.47,7.39,7.39,0,0,1,.05,1.17v2.08H49.66V59.16a1.82,1.82,0,0,0-.1-.79c-.07-.1-.24-.15-.53-.15v3.56H47ZM49,55.24V57a.91.91,0,0,0,.49-.1q.14-.1.14-.62v-.43a.66.66,0,0,0-.13-.49A.76.76,0,0,0,49,55.24Z"/><path class="cls-1" d="M175.25,70.28c5.07-3.37,8.57-7.67,10.06-12.09C170.95,65.11,160.5,68,144.73,69.31A108.94,108.94,0,0,0,175.25,70.28Z"/><path class="cls-1" d="M134.36,70c-2.34.1-4.8.19-7.4.27A44.1,44.1,0,0,0,151.12,77a46.25,46.25,0,0,0,18.36-3.61C156.2,74.18,144.41,72.89,134.36,70Z"/><path class="cls-1" d="M172.61,40.7C170.88,27.4,159.91,14,151.24,14s-19.66,13.43-21.38,26.74c-8.86,2.15-14.2,6.17-14.2,12.69a13.8,13.8,0,0,0,.83,4.6A77.53,77.53,0,0,0,139,68c13.71-.92,32-3.86,47-12.88a13.89,13.89,0,0,0,.11-1.72C186.12,46.73,181.11,42.79,172.61,40.7ZM124.91,48a6.07,6.07,0,0,0-1.31,1.65A6.07,6.07,0,0,1,124.91,48Zm-1.77,3.48h0a3.8,3.8,0,0,0,0,.59A3.79,3.79,0,0,1,123.14,51.53Zm40.93,7.76c-1.06.93-7.72,1.79-12.83,1.79s-12.2-.74-12.65-1.59c-3.09-3.54-5-8.69-5-15.25C133.63,31.9,144.27,18,151.24,18s17.62,13.91,17.62,26.25C168.86,50.67,167.05,55.76,164.07,59.29Z"/><path class="cls-1" d="M120,64a29,29,0,0,0,4.46,4.37c1.48,0,3.22,0,5.17,0A67.1,67.1,0,0,1,120,64Z"/><path class="cls-1" d="M155.9,40.44A6.81,6.81,0,0,0,152,38.83l-2.11-.35c-.64-.1-1.41-.37-1.41-1.12a1.59,1.59,0,0,1,1.68-1.47,4.71,4.71,0,0,1,3.12,1,1.83,1.83,0,0,0,1.24.48,1.94,1.94,0,0,0,1.39-.61,1.84,1.84,0,0,0,.48-1.33,1.87,1.87,0,0,0-.61-1.3,7.67,7.67,0,0,0-3.77-1.76V31a1.18,1.18,0,0,0-.33-.86,1.22,1.22,0,0,0-.88-.37A1.24,1.24,0,0,0,149.63,31V32.2a5,5,0,0,0-4.83,5.17,4.18,4.18,0,0,0,1.41,3.33,6.58,6.58,0,0,0,3.12,1.46l2.13.35a3.5,3.5,0,0,1,2,.75c.61.52.66.78.66,1.15a1.85,1.85,0,0,1-.69,1.59,4.29,4.29,0,0,1-2.63.68,4.68,4.68,0,0,1-3.8-1.43,1.86,1.86,0,0,0-2.63,2.64,8,8,0,0,0,5.25,2.45v1a1.2,1.2,0,0,0,1.18,1.17h.07a1.2,1.2,0,0,0,1.18-1.21v-1a7.33,7.33,0,0,0,3.66-1.37,5,5,0,0,0,.54-.47,5.62,5.62,0,0,0,1.6-4.07A4.93,4.93,0,0,0,155.9,40.44Z"/><path class="cls-1" d="M81.56,38.37H70.35c-5.5,5.45-12.34,14-8.82,20.27,2.78,4.94,9.05,6.22,15.14,6.13s12-1.53,14-6.13C93.28,52.76,86.67,44,81.56,38.37ZM79.84,56.84a3.52,3.52,0,0,1-.39.33,5.22,5.22,0,0,1-2.61,1v.69a.85.85,0,0,1-.84.87H76a.86.86,0,0,1-.84-.84v-.7a5.7,5.7,0,0,1-3.74-1.75,1.33,1.33,0,0,1,1.88-1.88,3.33,3.33,0,0,0,2.71,1,3.06,3.06,0,0,0,1.87-.49,1.32,1.32,0,0,0,.49-1.13c0-.27,0-.46-.47-.82a2.49,2.49,0,0,0-1.44-.54l-1.52-.25a4.69,4.69,0,0,1-2.23-1,3,3,0,0,1-1-2.37,3.57,3.57,0,0,1,3.44-3.69v-.88a.88.88,0,0,1,.86-.86.87.87,0,0,1,.63.26.84.84,0,0,1,.24.61v1a5.47,5.47,0,0,1,2.69,1.25,1.33,1.33,0,0,1,.44.93,1.31,1.31,0,0,1-.34,1,1.38,1.38,0,0,1-1,.43,1.3,1.3,0,0,1-.88-.34,3.35,3.35,0,0,0-2.22-.68,1.13,1.13,0,0,0-1.2,1c0,.54.55.73,1,.8l1.5.25a4.85,4.85,0,0,1,2.75,1.15A3.52,3.52,0,0,1,81,53.94,4,4,0,0,1,79.84,56.84Z"/><path class="cls-1" d="M84.88,29.92c-1.54-.93-3.43,1-4.78,1s-2.42-2-4-1.93S74,30.63,72.74,30.91s-4.33-2.14-5.57-.79c-1,1.1,2.07,5.47,3.27,7.09H81.52C82.78,35.5,86.14,30.68,84.88,29.92Z"/></svg>