<svg xmlns="http://www.w3.org/2000/svg" viewBox="0 0 200 90"><defs><style>.cls-1{fill:#1e5748;}.cls-2{fill:#205849;}</style></defs><title>TDSpecialOfferGICs</title><g id="ARTWORK"><path class="cls-1" d="M115.86,39.74c5.2-1.37,11.34-4.43,15-8.44h-3.24a1.11,1.11,0,1,1,0-2.22h5.71a1.13,1.13,0,0,1,1.11,1.11v5.88a1.11,1.11,0,1,1-2.22,0V32.92c-3.92,4.17-10.31,7.41-15.85,8.86A1,1,0,0,1,115.1,41a1,1,0,0,1,.76-1.27Z"/><polygon class="cls-1" points="118.08 52.43 118.08 46.13 124.47 46.13 124.47 52.43 128.13 52.43 128.13 43.06 134.52 43.06 134.52 52.43 138.19 52.43 138.19 35.48 144.58 35.48 144.58 52.35 147.52 52.35 147.52 54.48 115.09 54.48 115.09 52.35 118.08 52.35 118.08 52.43"/><path class="cls-1" d="M122.06,13.44A4.54,4.54,0,0,1,126.64,18v7.33h3V18a7.65,7.65,0,0,0-7.63-7.64H63.9l-.2,0A7.63,7.63,0,0,0,56.42,18V22.6H68.63V25h0v43.9h0v3.51h0A7.65,7.65,0,0,0,76.26,80h58a7.65,7.65,0,0,0,7.63-7.63V67.79H129.67a1.94,1.94,0,0,0,0-.24v-9h-3v9a1.93,1.93,0,0,0,0,.24H80.84v4.58a4.58,4.58,0,0,1-9.16,0V18a7.54,7.54,0,0,0-1.57-4.58Z"/><path class="cls-2" d="M109.76,41.12a1.6,1.6,0,0,0-.67-1.07,6.08,6.08,0,0,1-2.23-6.91,1.67,1.67,0,0,0,.09-.55,1.65,1.65,0,0,0-.5-1.15,1.79,1.79,0,0,0-1.17-.47h-.14a6.07,6.07,0,0,1-5.76-4.24,1.65,1.65,0,0,0-2.56-.89,6,6,0,0,1-7.19,0,1.76,1.76,0,0,0-.51-.26,1.65,1.65,0,0,0-2.06,1.09,6,6,0,0,1-5.78,4.24h-.09a1.61,1.61,0,0,0-.54.09,1.64,1.64,0,0,0-.94.83,1.67,1.67,0,0,0-.08,1.26A6.07,6.07,0,0,1,77.4,40a1.8,1.8,0,0,0-.39.39,1.65,1.65,0,0,0,.39,2.3,6.08,6.08,0,0,1,2.23,6.91,1.67,1.67,0,0,0-.09.55,1.69,1.69,0,0,0,.5,1.16,1.78,1.78,0,0,0,1.17.46h.07A6.1,6.1,0,0,1,87.06,56a1.61,1.61,0,0,0,.24.47,1.66,1.66,0,0,0,2.31.35,6,6,0,0,1,7.2,0,1.71,1.71,0,0,0,.5.26A1.65,1.65,0,0,0,99.38,56a6.06,6.06,0,0,1,5.93-4.21h0a1.54,1.54,0,0,0,.48-.09,1.64,1.64,0,0,0,.95-.82,1.62,1.62,0,0,0,.09-1.26,6.08,6.08,0,0,1-.31-2h0a6.06,6.06,0,0,1,2.58-4.92,2,2,0,0,0,.38-.39A1.68,1.68,0,0,0,109.76,41.12Zm-12.36,2,1,5.95-5.34-2.81L87.74,49l1-5.95-4.33-4.21,6-.87,2.67-5.41L95.75,38l6,.87Z"/></g></svg>