<svg xmlns="http://www.w3.org/2000/svg" viewBox="0 0 200 90"><defs><style>.cls-1{fill:#1e5748;}</style></defs><title>travelInsuranceAnnualPlan</title><g id="ARTWORK"><path class="cls-1" d="M140,42.78h-.39a8.27,8.27,0,0,0-6.06,2.63l-2.75,3-2.76-3A8.26,8.26,0,0,0,122,42.78h-.4a8.27,8.27,0,1,0,0,16.55h.4A8.26,8.26,0,0,0,128,56.7l2.75-3,2.76,3a8.27,8.27,0,0,0,6.05,2.62h.4a8.27,8.27,0,1,0,0-16.55Zm4.61,8.27A4.62,4.62,0,0,1,140,55.66h-.39a4.75,4.75,0,0,1-3.39-1.45l-2.94-3.16,2.94-3.16a4.63,4.63,0,0,1,3.39-1.45H140A4.62,4.62,0,0,1,144.61,51.05Zm-22.67,4.61h-.4a4.61,4.61,0,0,1,0-9.22h.4a4.75,4.75,0,0,1,3.39,1.45l2.94,3.16-2.94,3.16A4.64,4.64,0,0,1,121.94,55.66Z"/><path class="cls-1" d="M93.19,19.48a6.24,6.24,0,0,0-4.46-1.79h0a7.87,7.87,0,0,0-5.45,2.26L73.9,29.28,56.11,22.63l-.18-.06-.23-.06c-1.77-.46-4.45-1.15-7.29,1.69a6.72,6.72,0,0,0-2.36,4.67,6.92,6.92,0,0,0,2.36,4.83l.13.12,1.25,1L43.59,41a1.3,1.3,0,1,0,1.84,1.84l6.38-6.38,3.23,2.65-2.76,2.76a1.3,1.3,0,1,0,1.84,1.84l2.95-2.95L60,43.18l-6.34,6.33-6.88-1.72a4,4,0,0,0-4.26,1.12l-.12.11a4.94,4.94,0,0,0-1.84,3.36,3.33,3.33,0,0,0,1,2.44l.16.14,8.94,7,7,8.95.15.17a3.22,3.22,0,0,0,2.3,1c1.6,0,3-1.31,3.67-2a3.62,3.62,0,0,0,1-4L63.12,59l6.31-6.32,2.31,2.83-2.92,2.92a1.3,1.3,0,1,0,1.84,1.84l2.74-2.74,2.74,3.35-6.67,6.67a1.3,1.3,0,1,0,1.84,1.84l6.49-6.49,1,1.18.12.13c3.12,3.12,6.3,3.13,9.48,0,2.84-2.84,2.16-5.5,1.7-7.26L90,56.73a1.83,1.83,0,0,0-.05-.18l-6.6-17.84,9.33-9.37C95.18,26.84,96,22.28,93.19,19.48Zm-43.6,9.79a1.71,1.71,0,0,1-.05-.39,3.63,3.63,0,0,1,1.34-2.21c1.44-1.44,2.33-1.21,4-.78l18.89,7,.07,0-5.89,5.89Zm1.23,1.93c-.17-.17-.34-.36-.5-.56l17,8.84-3.06,3.06a1.74,1.74,0,0,0-.55-.82ZM81.4,61.85,70.9,49a1.74,1.74,0,0,0-.91-.58l3.11-3.11L82,62.39A7.48,7.48,0,0,1,81.4,61.85Zm5.25-4.17,0,.18c.42,1.61.64,2.49-.8,3.94-.79.78-1.52,1.48-2.54,1.29L73.75,44.66l5.92-5.92s0,.09,0,.13Zm3.56-30.79L80.09,37a1.7,1.7,0,0,0-.14.19L67.69,49.49l0,0L60,57.23a1.74,1.74,0,0,0-.47,1.61l1.76,7.78.07.3c0,.21.1.46.12.61l-.1.11a7.05,7.05,0,0,1-1.11.91L53.3,59.62a1.69,1.69,0,0,0-.3-.3l-8.94-7a4,4,0,0,1,.72-.82l.32-.33c.08-.09.19-.21.8-.05l7.85,2a1.74,1.74,0,0,0,1.65-.46l8.4-8.38a1.73,1.73,0,0,0,.28-.39L75.13,32.84a1.73,1.73,0,0,0,.44-.31L85.72,22.41a4.31,4.31,0,0,1,3-1.25h0a2.79,2.79,0,0,1,2,.77h0C92,23.24,91.51,25.59,90.21,26.88Z"/><path class="cls-1" d="M87.16,23.28a.42.42,0,0,0-.46.41.44.44,0,0,0,.41.46c.05,0,1.33.1,1.33,1.31a.43.43,0,1,0,.87,0A2.19,2.19,0,0,0,87.16,23.28Z"/><path class="cls-1" d="M155.89,23.32h-7.53v3.16a2.7,2.7,0,1,1-3.9,0V23.32H117.26v3.16a2.7,2.7,0,1,1-3.9,0V23.32h-7.71a3.88,3.88,0,0,0-3.86,3.86v41A3.88,3.88,0,0,0,105.66,72h50.23a3.88,3.88,0,0,0,3.86-3.86v-41A3.88,3.88,0,0,0,155.89,23.32Zm.49,43.87a1.53,1.53,0,0,1-1.53,1.53H106.69a1.53,1.53,0,0,1-1.53-1.53V34.32h51.21Z"/><rect class="cls-1" x="145.23" y="18" width="2.35" height="11.4" rx="1.02" ry="1.02"/><rect class="cls-1" x="114.14" y="18" width="2.35" height="11.4" rx="1.02" ry="1.02"/></g></svg>