<svg xmlns="http://www.w3.org/2000/svg" viewBox="0 0 200 90"><defs><style>.cls-1,.cls-2{fill:#1e5748;}.cls-2{font-size:33.34px;font-family:MyriadPro-BoldIt, Myriad Pro;font-weight:700;font-style:italic;}.cls-3{letter-spacing:-0.06em;}.cls-4{letter-spacing:-0.02em;}</style></defs><title>travelInsuranceExtendedPlan</title><g id="ARTWORK"><path class="cls-1" d="M109.43,52.9h0c5.83,0,11.73-5,11.73-14.64a14.74,14.74,0,0,0-2.38-8.76c-2-2.81-5.16-4.24-9.34-4.24h0c-7.34,0-11.72,4.85-11.73,13C97.7,45.3,101.37,52.89,109.43,52.9Zm3.18-24.54h0a7.15,7.15,0,0,1,4,2.72,8.77,8.77,0,0,1,1.12,2.21,14.55,14.55,0,0,1-5.91-3.37C112.3,29,112.56,28.46,112.61,28.36Zm-12.23,9.89c0-3.85,1.18-10.31,9.06-10.31h0a12.94,12.94,0,0,1,1.82.13c-.73,1.5-4.74,9.17-10.88,10.36C100.38,38.38,100.38,38.31,100.38,38.25Zm10.75-7.15a16.33,16.33,0,0,0,7,3.69,16.71,16.71,0,0,1,.34,3.48c0,4.81-2.42,12-9.06,12h0c-6.38,0-8.57-6-9-10.43C105.57,38.91,109.24,34.19,111.13,31.1Z"/><path class="cls-1" d="M90.23,72l38.35,0h0a3.54,3.54,0,0,0,3.54-3.53V63.79a4.82,4.82,0,0,0-2.9-4.24l-11.41-4.43a15.41,15.41,0,0,0-4.73-.89h-7.32a15.42,15.42,0,0,0-4.73.88L89.61,59.52a4.82,4.82,0,0,0-2.91,4.23v4.67A3.54,3.54,0,0,0,90.23,72Zm-.86-8.21A2.13,2.13,0,0,1,90.57,62L102,57.61a12.91,12.91,0,0,1,3.76-.7h7.32a12.91,12.91,0,0,1,3.77.7L128.26,62h0a2.13,2.13,0,0,1,1.19,1.74v4.68a.87.87,0,0,1-.86.86h0l-38.35,0a.86.86,0,0,1-.86-.86Z"/><path class="cls-1" d="M109.45,47.25h0a4.68,4.68,0,0,0,4.68-4.67.67.67,0,0,0-.67-.67h0a.67.67,0,0,0-.67.67,3.34,3.34,0,0,1-3.34,3.34h0a3.34,3.34,0,0,1-3.34-3.34.67.67,0,0,0-.67-.67h0a.67.67,0,0,0-.67.67,4.68,4.68,0,0,0,4.67,4.68Z"/><path class="cls-1" d="M62.25,47.47a17.15,17.15,0,0,1,7.18,1.35.77.77,0,0,0,0,.6c-.91-.4-2.78-1.12-3.86-.85-1.47.37-4.95,2.47-4.4,7.7.33,3.14.83,3,.83,3s1.56-4.7,3.57-6.35c.44-.36.89-.72,1.34-1.06a1.84,1.84,0,0,0,1.8,1.59c-.89,1.78-2.57,5.24-4.1,8.79,0,0-1.26,3-1.6,4l-2.22,8a54.1,54.1,0,0,0-1,5.78h5s2.24-12.77,3.38-17.83a78.29,78.29,0,0,1,2.24-8,2.29,2.29,0,0,0,2.78.25c.48,1.37,1.05,3.08,1.33,4.15.65,2.47,1.05,5.26,1.05,5.26s.53.79,2.1-2.1.18-4.38-1.05-6.31a7.82,7.82,0,0,0-2.45-2.23,2.21,2.21,0,0,0,0-1.6,38.68,38.68,0,0,1,3.9,3.06c1.54,1.37,4.87,5.64,5.13,5.13S81.45,49.44,77.94,48.5a5.93,5.93,0,0,0-4.94,1,1.77,1.77,0,0,0,.07-.36,1.83,1.83,0,0,0-.72-1.43A5.44,5.44,0,0,0,71,40.87C68.57,38.58,64.82,39,64.82,39L67.75,42a12,12,0,0,1,2.89,5.46l-.24.09a7.1,7.1,0,0,0-7-4.45c-3.5.2-6.6,4.4-6.6,4.4S55.77,47.57,62.25,47.47Z"/><path class="cls-1" d="M27,24.19a10.86,10.86,0,0,1,9.29,2.13,2.75,2.75,0,0,1,1.32-1.76c-2.17-4.32-1-8.37,2.29-11.43C44,9.29,50.3,10.06,50.3,10.06L45.38,15a20.53,20.53,0,0,0-5,9.65,2.76,2.76,0,0,1,.26.2,11.94,11.94,0,0,1,12.08-8c5.87.34,11.06,7.37,11.06,7.37s1.65.18-9.21,0a29.32,29.32,0,0,0-11.28,1.94,2.75,2.75,0,0,1,1.12.6,9.31,9.31,0,0,1,4.63-.7c2.46.61,8.29,4.15,7.37,12.9C55.89,44.2,55.06,44,55.06,44s-2.61-7.87-6-10.64c-1.37-1.12-2.83-2.24-4.1-3.17a2.75,2.75,0,0,1-2.35,1.33c1.32,2.65,3.83,7.8,6.1,13.08l.71,1.67c.6,1.44,1.17,2.86,1.68,4.24l-3.88,1.29L52,53c.29.87.56,1.72.77,2.5.36,1.33.69,2.66,1,4L49.07,61l5.33,1.33c1.36,6.38,2,11.57,2,11.57H49.07s-3.84-22-5.53-29.49A117.75,117.75,0,0,0,40.36,33,2.74,2.74,0,0,1,37,32.6c-.88,2.51-2.1,6.06-2.65,8.18C33.2,45.11,32.48,50,32.48,50s-.92,1.38-3.69-3.69-.31-7.68,1.84-11.06a15.49,15.49,0,0,1,5.53-4.63,2.74,2.74,0,0,1,.72-1.82,2.75,2.75,0,0,1-.36-.51c-2.79,1.22-7.28,4.93-9.57,7-2.76,2.46-8.75,10.14-9.21,9.21S20.66,25.88,27,24.19Z"/><text class="cls-2" transform="translate(129.7 52.05)"><tspan class="cls-3">5</tspan><tspan class="cls-4" x="16.04" y="0">5</tspan><tspan x="33.4" y="0">+</tspan></text></g></svg>