<svg xmlns="http://www.w3.org/2000/svg" viewBox="0 0 258 164"><defs><style>.cls-1{fill:#1e5748;}</style></defs><title>unlimitedChequingAccount-Compare</title><g id="ARTWORK"><path class="cls-1" d="M80.18,79.55a1.5,1.5,0,0,1,0-3l99.55-.36h0a1.5,1.5,0,0,1,0,3l-99.55.36Z"/><path class="cls-1" d="M80.18,92a1.5,1.5,0,0,1,0-3l91.62-.36h0a1.5,1.5,0,0,1,0,3L80.18,92Z"/><path class="cls-1" d="M134.31,118.49a15,15,0,0,1-7.6-1.85l-.08,0c-5,2.53-10.33,2.29-16-.73a1,1,0,0,1,.94-1.76c4.76,2.54,9.17,2.92,13.32,1.11a8.26,8.26,0,0,1-2.19-7.12,8.77,8.77,0,0,1,2.4-4.93,6.71,6.71,0,0,1,5.91-1.72,4.84,4.84,0,0,1,3.59,2.79c1,2.42.31,5.35-1.88,7.65a25,25,0,0,1-4.1,3.53,16.23,16.23,0,0,0,9.25.74,20.22,20.22,0,0,0,5.6-2.18l-.23-.31a9.75,9.75,0,0,1-2.14-7.09,6.32,6.32,0,0,1,8-4.93,4.3,4.3,0,0,1,3,2.61,5.91,5.91,0,0,1-.46,4.92,18,18,0,0,1-5,5.18,7.54,7.54,0,0,0,3.84,1.88,12.66,12.66,0,0,0,8.54-1.73,19.36,19.36,0,0,0,7.26-6.32c.53-.73,1.47-2.79.85-4.19a2.69,2.69,0,0,0-1.82-1.28,1,1,0,0,1-1-1,1,1,0,0,1,1-1,4.59,4.59,0,0,1,3.55,2.47c1.06,2.39-.41,5.26-1.06,6.17a21.25,21.25,0,0,1-7.92,6.91,14.65,14.65,0,0,1-9.75,2,9.85,9.85,0,0,1-5.33-2.75,22.62,22.62,0,0,1-6.58,2.64A20.68,20.68,0,0,1,134.31,118.49Zm-4.55-15.19a4.79,4.79,0,0,0-3.26,1.29,6.93,6.93,0,0,0-1.81,3.82,6.28,6.28,0,0,0,2.09,5.81,22.16,22.16,0,0,0,4.53-3.73c1.63-1.71,2.2-3.82,1.49-5.49a2.89,2.89,0,0,0-2.16-1.62A4.34,4.34,0,0,0,129.76,103.3Zm17.56.07a4.3,4.3,0,0,0-4.24,3.53,7.77,7.77,0,0,0,1.78,5.55l.33.43a16.28,16.28,0,0,0,4.73-4.78,3.89,3.89,0,0,0,.3-3.15,2.31,2.31,0,0,0-1.65-1.42A4.67,4.67,0,0,0,147.32,103.38Z"/><path class="cls-1" d="M239.46,34.47a7.7,7.7,0,0,0-10.91-.57l-50,44.7A1,1,0,0,0,178.5,80l9,10a1,1,0,0,0,1.41.08l50-44.7A7.78,7.78,0,0,0,239.46,34.47Z"/><path class="cls-1" d="M165.13,101.79a1,1,0,0,1-.83-1.55l14.12-21.45a1,1,0,0,1,1.58-.12l9,10a1,1,0,0,1-.46,1.63c-1,.41-14.26,7-23,11.35A1,1,0,0,1,165.13,101.79ZM179.37,81,168,98.23C179.79,92.34,184.6,90,186.61,89Z"/><path class="cls-1" d="M202.93,56.25h0l-120.06.13a17.77,17.77,0,0,1-4.41,6.23l123.08-.14v65.38h-137l.15-60.4A17.62,17.62,0,0,1,58.47,66l-.15,63.24a4.83,4.83,0,0,0,4.82,4.81H202.95a4.84,4.84,0,0,0,4.81-4.84V61.07A4.84,4.84,0,0,0,202.93,56.25Z"/><path class="cls-1" d="M66.5,36h-.69a13.72,13.72,0,0,0-10.06,4.36l-5,5.39-.33.36h0L47,49.72h0l-5.58,6A8.79,8.79,0,0,1,35,58.48h-.69a8.76,8.76,0,0,1,0-17.51H35a9,9,0,0,1,6.43,2.75l3.68,4,3.55-3.52-3.54-3.82A13.72,13.72,0,0,0,35,36h-.69a13.73,13.73,0,1,0-.07,27.46H35A13.72,13.72,0,0,0,45,59.1l4.2-4.53h0l5.89-6.27h0l4.26-4.58A8.8,8.8,0,0,1,65.81,41h.69a8.76,8.76,0,1,1,0,17.51h-.69a9,9,0,0,1-6.43-2.75l-3.6-3.9-3.35,3.73,3.26,3.55a13.71,13.71,0,0,0,10,4.35h.69A13.73,13.73,0,1,0,66.5,36Z"/></g></svg>