<svg xmlns="http://www.w3.org/2000/svg" viewBox="0 0 200 90"><defs><style>.cls-1{fill:#1e5748;}</style></defs><title>USForeignTermDeposits</title><g id="ARTWORK"><path class="cls-1" d="M157.83,67.73l0-39.07V26.81c0-4.32,0-9.05,0-9.08a7.68,7.68,0,0,0-7.66-7.67L91.94,10h-.16l-.2,0a7.67,7.67,0,0,0-7.32,7.63v4.6H96.53v6.13l0,35.88v8h0A7.68,7.68,0,0,0,104.15,80l58.27,0a7.68,7.68,0,0,0,7.67-7.66v-4.6Zm-49.07,3v1.53a4.6,4.6,0,0,1-9.2,0v-8l0-35.88V17.68A7.59,7.59,0,0,0,98,13.07l52.18,0a4.56,4.56,0,0,1,4.6,4.6V28.66l0,39.07-46,0Z"/><path class="cls-1" d="M110,38.5c6.38-1.67,13.92-5.44,18.42-10.36h-4a1.36,1.36,0,1,1,0-2.72h7a1.39,1.39,0,0,1,1.36,1.36V34a1.36,1.36,0,0,1-2.72,0V30.12c-4.81,5.13-12.66,9.11-19.47,10.88a1.2,1.2,0,0,1-1.57-.94A1.28,1.28,0,0,1,110,38.5Z"/><polygon class="cls-1" points="112.71 54.09 112.71 46.35 120.56 46.35 120.56 54.09 125.06 54.09 125.06 42.58 132.91 42.58 132.91 54.09 137.41 54.09 137.41 33.26 145.26 33.26 145.26 53.99 148.87 53.99 148.87 56.6 109.05 56.6 109.05 53.99 112.71 53.99 112.71 54.09"/><path class="cls-1" d="M50.33,48.74l-1.49,2.08H50a.89.89,0,1,1,0,1.79H47.69c-.08,0-.33.08-.33.29v.61H50a.89.89,0,1,1,0,1.79H47.37v3.57a.89.89,0,0,1-1.79,0V55.29H42.9a.89.89,0,1,1,0-1.79h2.68v-.61a.28.28,0,0,0-.29-.29H42.9a.89.89,0,1,1,0-1.79h1.2l-2.82-3.95a.89.89,0,1,1,1.45-1l3.74,5.24,3.29-4.6A17.62,17.62,0,0,1,51.51,35a17.71,17.71,0,0,0-16.13,2.84A17.92,17.92,0,0,0,32,41.31c-.28.37-.56.76-.81,1.16s-.5.8-.72,1.22A17.79,17.79,0,0,0,46.16,69.83c.28,0,.56,0,.84,0s.83,0,1.23-.09l.14,0c.48-.06,1-.12,1.41-.22.27-.06.54-.14.81-.21a17.67,17.67,0,0,0,2.33-.76,17.92,17.92,0,0,0,9-8.21A17.88,17.88,0,0,1,50.33,48.74Z"/><path class="cls-1" d="M69.64,24a17.7,17.7,0,0,0-10.78,3.66,17.93,17.93,0,0,0-3.42,3.44c-.28.38-.55.76-.81,1.16s-.5.8-.72,1.22A17.79,17.79,0,0,0,69.64,59.63c.28,0,.56,0,.84,0s.83,0,1.23-.09l.14,0c.48-.06,1-.12,1.41-.22.27-.06.54-.14.81-.21a17.8,17.8,0,0,0-4.44-35Zm.83,14h1.2a1.18,1.18,0,0,1,1.18,1.18v.12a1.18,1.18,0,0,1-1.18,1.18H65.53a5.57,5.57,0,0,0,0,.59,5.65,5.65,0,0,0,.1,1.06h6.06a1.18,1.18,0,0,1,1.18,1.18v.12a1.18,1.18,0,0,1-1.18,1.18H66.75a5.67,5.67,0,0,0,4.42,2.12,5.6,5.6,0,0,0,2.38-.52,1.22,1.22,0,0,1,1.63.59,1.25,1.25,0,0,1-.59,1.65,8,8,0,0,1-3.41.75,8.16,8.16,0,0,1-7.34-4.6H61.16A1.18,1.18,0,0,1,60,43.47v-.12a1.18,1.18,0,0,1,1.18-1.18h1.92A8.22,8.22,0,0,1,63,41.11c0-.2,0-.4,0-.59H61.16A1.18,1.18,0,0,1,60,39.33v-.12A1.18,1.18,0,0,1,61.16,38h2.46A8.19,8.19,0,0,1,71.17,33a8.06,8.06,0,0,1,3.54.83A1.24,1.24,0,1,1,73.62,36a5.57,5.57,0,0,0-2.46-.57A5.69,5.69,0,0,0,66.41,38Z"/></g></svg>