<svg xmlns="http://www.w3.org/2000/svg" viewBox="0 0 258 164"><defs><style>.cls-1{fill:#1e5748;}</style></defs><title>youthSavingsAccount-Compare</title><g id="ARTWORK"><path class="cls-1" d="M239,84.4a3.56,3.56,0,0,0-2.47-1h-4.39c-1.33-3.42-3.95-9.19-7.71-13.15,1.76-3.26,3-7.48,2.42-9.72a2.87,2.87,0,0,0-1.51-1.87c-3.37-1.6-6.64.08-13.47,3.9a35.58,35.58,0,0,0-6.2-1.46,10.85,10.85,0,0,0,.3-2.43,10.64,10.64,0,1,0-21.27,0,10.18,10.18,0,0,0,.26,2.29,40.21,40.21,0,0,0-14.7,5.82C161,73.23,156.33,83.16,157,94.8a12.71,12.71,0,0,1-4.77-.81,8.38,8.38,0,0,0,2.68-5.86,6.22,6.22,0,0,0-6.35-6.51,6.29,6.29,0,0,0-6.42,6.51,8.66,8.66,0,0,0,2.38,5.74,9.31,9.31,0,0,1-4.19.66,2.13,2.13,0,1,0-.63,4.21,15.13,15.13,0,0,0,8.58-1.9,17.21,17.21,0,0,0,8.27,2.22c.36,0,.71,0,1.07,0a47.46,47.46,0,0,0,4.3,10.27c2.06,3.92,4.83,8.82,7.25,12.81.39.63,1.19,1.84,1.89,2.88.37.56.71,1.06.92,1.4a5.31,5.31,0,0,0,4.21,2.48h8.85a3.48,3.48,0,0,0,2.45-1,3.44,3.44,0,0,0,1-2.45V119.9a54.14,54.14,0,0,0,9.1.29l1.77,5.58a1.8,1.8,0,0,0,.08.21,4.58,4.58,0,0,0,1.76,2.07,4.78,4.78,0,0,0,2.63.8h9.32a3.53,3.53,0,0,0,2.44-1,3.45,3.45,0,0,0,1-2.46v-9.09c5.92-1.71,12.79-6.31,15.68-13.25l5-2.57a4.65,4.65,0,0,0,2-1.81,4.87,4.87,0,0,0,.68-2.51V86.85A3.48,3.48,0,0,0,239,84.4Zm-90.36,7.11a2.75,2.75,0,0,1-.26.22,5.21,5.21,0,0,1-2-3.6,2.07,2.07,0,0,1,2.16-2.26,2.19,2.19,0,0,1,1.46.53,2.25,2.25,0,0,1,.63,1.73C150.67,89.57,149.42,90.87,148.66,91.51Zm87.12,4.62a.61.61,0,0,1-.08.32s0,.09-.24.18l-5.81,3a2.12,2.12,0,0,0-1,1.16c-2.28,6.25-9,10.64-14.55,11.75a2.13,2.13,0,0,0-1.71,2.09v10h-8.51a.77.77,0,0,1-.46-.25l-1.55-4.86a45.51,45.51,0,0,0,4.65-1.08,2.13,2.13,0,1,0-1.19-4.08A40.34,40.34,0,0,1,193,116c-1,0-1.9-.1-2.8-.18a25.65,25.65,0,0,1-10.74-3.34,2.13,2.13,0,1,0-2.33,3.56,25.51,25.51,0,0,0,7.18,3v5.61h-8a1.14,1.14,0,0,1-.71-.54l-1-1.45c-.66-1-1.42-2.13-1.79-2.73-2.38-3.92-5.1-8.73-7.12-12.57s-4.08-8.06-4.4-12c-.86-10.42,3.2-19.32,11.41-25.05,3.89-2.71,9.13-4.43,14.1-5.31a10.64,10.64,0,0,0,3.85,3.22h-5.95a1.06,1.06,0,1,0,0,2.12H206a1.06,1.06,0,1,0,0-2.12h-6a10.69,10.69,0,0,0,3.73-3.07c3.15.46,6.06,1.06,7.23,1.7a2.13,2.13,0,0,0,2.05,0c5.56-3.11,8.18-4.5,9.71-4.46A18.67,18.67,0,0,1,220,69.41a2.13,2.13,0,0,0,.38,2.78c4.33,3.77,7.26,11.07,8.32,14a2.13,2.13,0,0,0,2,1.41h5.1Z"/><path class="cls-1" d="M219.6,84.39a3.2,3.2,0,1,0,3.19,3.19A3.19,3.19,0,0,0,219.6,84.39Z"/><path class="cls-1" d="M72.79,54.22a1.37,1.37,0,0,0-1.58-.85l-.21.09C68.16,47.59,62.75,41.32,62.46,41l-.2-.23-4.39-1.91a1.35,1.35,0,0,0-.1-1.19A1.38,1.38,0,0,0,56.61,37l-3,0-.91-.4,0,.4-6.95,0a1,1,0,0,0-.48.09L32.87,41.62a1.37,1.37,0,0,0-.71.61L25.56,54a1.35,1.35,0,0,0-.83-.6,1.37,1.37,0,0,0-1.58.85C18.76,66,21.41,80,21.73,81.52a1.44,1.44,0,0,0,.3.62c3,3.47,13.83,5,15.06,5.11h.18a1.35,1.35,0,0,0,1.31-1,1.34,1.34,0,0,0-.8-1.6C26.53,80,25.35,62,25.28,60.63l.08-1c10.88-2.41,22.56-9,28.88-15.75,3.13,7.94,10.93,15.27,16.35,15.89l.07.83c0,1.29-1,20-12.17,24a1.36,1.36,0,0,0,.45,2.64h.17c1.21-.16,11.82-1.64,14.8-5.11a1.44,1.44,0,0,0,.3-.62C74.53,80,77.18,66,72.79,54.22Z"/><path class="cls-1" d="M48,78.75a10.2,10.2,0,0,1-9.46-5.93A1.36,1.36,0,1,1,41,71.73a7.8,7.8,0,0,0,13.89.11A1.36,1.36,0,0,1,57.4,73,10.24,10.24,0,0,1,48,78.75Z"/><path class="cls-1" d="M36,66.85h-.16a1.36,1.36,0,0,1-1.19-1.52,4.54,4.54,0,0,1,8.87-.7,1.36,1.36,0,0,1-.93,1.69,1.35,1.35,0,0,1-1.68-.94,1.82,1.82,0,0,0-3.56.28A1.36,1.36,0,0,1,36,66.85Z"/><path class="cls-1" d="M59.77,66.85a1.37,1.37,0,0,1-1.35-1.2,1.82,1.82,0,0,0-3.55-.28,1.36,1.36,0,0,1-1.68.94,1.38,1.38,0,0,1-.94-1.69,4.54,4.54,0,0,1,3.82-3.25,4.52,4.52,0,0,1,5,3.95,1.35,1.35,0,0,1-1.18,1.52Z"/><circle class="cls-1" cx="99.01" cy="63.55" r="2.31"/><circle class="cls-1" cx="118.5" cy="63.55" r="2.31"/><path class="cls-1" d="M108.79,78.75a10.18,10.18,0,0,1-9.46-5.93,1.36,1.36,0,0,1,2.49-1.09,7.8,7.8,0,0,0,13.88.11A1.36,1.36,0,0,1,118.18,73,10.25,10.25,0,0,1,108.79,78.75Z"/><path class="cls-1" d="M132.5,55.45a.57.57,0,0,0-.13,0c-7.26,0-12.26-8.41-12.58-13a1.34,1.34,0,0,0-.9-1.19,1.32,1.32,0,0,0-.45-.46,1.36,1.36,0,0,0-1.86.49c-1.62,2.76-3.1,4.66-5.88,6.16a11.25,11.25,0,0,1-5,1.47,43.38,43.38,0,0,0,3.1-3.71,1.36,1.36,0,0,0-2.17-1.64c-3.65,4.83-6.49,7.13-10.2,7.93a25.73,25.73,0,0,0,3.78-4.71,1.36,1.36,0,1,0-2.34-1.39c-2.62,4.41-9,9.6-12.47,10.09a1.36,1.36,0,0,0,.19,2.71h.19c2.11-.3,4.7-1.73,7.17-3.62a16,16,0,0,0,9.81-3,21.65,21.65,0,0,0,2.24.13A13.86,13.86,0,0,0,112,49.82a15.66,15.66,0,0,0,5.5-4.92c1.5,5.51,6.86,13.27,14.87,13.27h.16a1.36,1.36,0,0,0,0-2.72Z"/><path class="cls-1" d="M108.76,37.71c12.67,0,23,11.14,23,24.83s-10.31,24.84-23,24.84-23-11.14-23-24.84,10.31-24.83,23-24.83m0-3c-14.35,0-26,12.46-26,27.83s11.64,27.84,26,27.84,26-12.46,26-27.84-11.63-27.83-26-27.83Z"/><path class="cls-1" d="M47.9,37.71c12.67,0,23,11.14,23,24.83s-10.31,24.84-23,24.84-23-11.14-23-24.84,10.31-24.83,23-24.83m0-3c-14.35,0-26,12.46-26,27.83s11.64,27.84,26,27.84,26-12.46,26-27.84-11.63-27.83-26-27.83Z"/></g><g id="TITLES"><path class="cls-1" d="M30,105.52h-.09l-5.71,2.54L24,103l8.08-3.53h5.22l-5.45,29h-6.2Z"/><path class="cls-1" d="M52.94,99c4.68,0,8.57,2.46,8.57,7,0,3.13-2.15,5.45-5.23,6.88l0,.13a7.48,7.48,0,0,1,4,6.43c0,6.34-6.07,9.51-11.74,9.51-6.12,0-9.69-3.17-9.69-7.46,0-4.1,2.81-6.87,6.2-8.25l0-.09a6.59,6.59,0,0,1-2.9-5.45c0-5.4,5.09-8.75,10.71-8.75Zm-3.66,25.31a4.14,4.14,0,0,0,4.24-4.19c0-2.33-1.61-3.66-3.75-4.42a5.3,5.3,0,0,0-4.2,5,3.43,3.43,0,0,0,3.66,3.61Zm2.85-20.62a3.79,3.79,0,0,0-3.79,3.66c0,1.87,1.47,3,3.39,3.7,1.79-.62,3.57-2.18,3.57-4.28a2.91,2.91,0,0,0-3.12-3.08Z"/><path class="cls-1" d="M80.18,121.47A9.49,9.49,0,0,1,77.64,126l1.83,2.49H76.93l-.88-1.2a7,7,0,0,1-4.33,1.44,4.65,4.65,0,0,1-2.1-.44,3,3,0,0,1-1.33-1.22,3.27,3.27,0,0,1-.46-1.73,3.51,3.51,0,0,1,.9-2.42,7.66,7.66,0,0,1,3-1.83,4.76,4.76,0,0,1-.9-2.65,3.25,3.25,0,0,1,.48-1.74,3.33,3.33,0,0,1,1.38-1.24,4.56,4.56,0,0,1,2.06-.45,4.19,4.19,0,0,1,1.8.36,2.66,2.66,0,0,1,1.18,1,2.59,2.59,0,0,1,.42,1.45,2.88,2.88,0,0,1-.88,2.09,8,8,0,0,1-2.78,1.63l2.19,3a7.16,7.16,0,0,0,1.53-3.11ZM75.12,126l-.73-1-1.83-2.56a5.49,5.49,0,0,0-1.94,1.19,2.13,2.13,0,0,0-.6,1.52,1.84,1.84,0,0,0,.56,1.4,2.08,2.08,0,0,0,1.51.55A4.81,4.81,0,0,0,75.12,126Zm.95-8a1.28,1.28,0,0,0-.39-1,1.47,1.47,0,0,0-1.05-.36,1.77,1.77,0,0,0-1.28.48,1.66,1.66,0,0,0-.49,1.25,3.3,3.3,0,0,0,.71,1.95,6.75,6.75,0,0,0,2-1.14A1.65,1.65,0,0,0,76.07,118Z"/><path class="cls-1" d="M92.47,128.51H90.25l.29-2h0a6.36,6.36,0,0,1-1.67,1.65,3.52,3.52,0,0,1-1.89.59,2.3,2.3,0,0,1-1.79-.67,2.65,2.65,0,0,1-.62-1.88,10.91,10.91,0,0,1,.28-1.81L85.94,119h2.24L87,124.49a10.3,10.3,0,0,0-.19,1.24,1.25,1.25,0,0,0,.28.87,1,1,0,0,0,.83.33,2.33,2.33,0,0,0,1.31-.47,5.11,5.11,0,0,0,1.87-2.87l1-4.55h2.24L93,125.4A29.15,29.15,0,0,0,92.47,128.51Z"/><path class="cls-1" d="M104.87,121.35a11.13,11.13,0,0,1-.29,1.83l-1.13,5.33h-2.23l1.14-5.48a8.87,8.87,0,0,0,.19-1.21,1.37,1.37,0,0,0-.29-.9,1,1,0,0,0-.83-.34,2.2,2.2,0,0,0-1.26.46A4.37,4.37,0,0,0,99,122.3a4.64,4.64,0,0,0-.69,1.56l-1,4.65H95.05l1.43-6.62c.22-1.06.39-2,.49-2.85h2.18c0,.52-.14,1.2-.28,2h0a6,6,0,0,1,1.69-1.67,3.57,3.57,0,0,1,1.88-.59,2.3,2.3,0,0,1,1.77.66A2.59,2.59,0,0,1,104.87,121.35Z"/><path class="cls-1" d="M114.35,128.51h-2.27c0-.29.06-.88.17-1.77h0a5.33,5.33,0,0,1-1.38,1.52,2.84,2.84,0,0,1-1.63.48,2.54,2.54,0,0,1-2.11-.94,4.11,4.11,0,0,1-.75-2.64,7,7,0,0,1,.77-3.23,5.59,5.59,0,0,1,2.12-2.31,5.8,5.8,0,0,1,3-.81,6.6,6.6,0,0,1,1.56.17l1-4.49H117l-2.31,11a13.37,13.37,0,0,0-.23,1.46A13.05,13.05,0,0,0,114.35,128.51Zm-.86-7.86a5.07,5.07,0,0,0-1.25-.17,3.22,3.22,0,0,0-1.87.56,3.72,3.72,0,0,0-1.29,1.67,5.61,5.61,0,0,0-.49,2.31,2.48,2.48,0,0,0,.36,1.46A1.23,1.23,0,0,0,110,127a2.22,2.22,0,0,0,1.77-1,7.48,7.48,0,0,0,1.19-2.84Z"/><path class="cls-1" d="M125.73,121.37a2.66,2.66,0,0,1-1.59,2.52,11.44,11.44,0,0,1-4.83.85l0,.1V125a1.94,1.94,0,0,0,.58,1.5,2.27,2.27,0,0,0,1.6.53,5,5,0,0,0,1.5-.26,6.67,6.67,0,0,0,1.46-.65l-.37,1.84a6.28,6.28,0,0,1-3.08.76,3.88,3.88,0,0,1-2.87-1,3.92,3.92,0,0,1-1-2.89,6.6,6.6,0,0,1,.71-3,5.37,5.37,0,0,1,2-2.2,5,5,0,0,1,2.75-.8,3.65,3.65,0,0,1,2.36.7A2.28,2.28,0,0,1,125.73,121.37Zm-2.17.06a.91.91,0,0,0-.33-.74,1.47,1.47,0,0,0-.93-.27,2.46,2.46,0,0,0-1.78.8,3.88,3.88,0,0,0-1,2Q123.56,123.2,123.56,121.43Z"/><path class="cls-1" d="M133.36,121.19a2.44,2.44,0,0,0-1.1-.29,2.25,2.25,0,0,0-1.75,1,6,6,0,0,0-1.13,2.59l-.86,4h-2.24l1.32-6.16c.31-1.53.49-2.64.55-3.31h2.2c-.06.6-.15,1.26-.26,2h0a6.47,6.47,0,0,1,1.22-1.64,2.13,2.13,0,0,1,1.51-.59,4.45,4.45,0,0,1,.93.14Z"/></g></svg>