<svg xmlns="http://www.w3.org/2000/svg" viewBox="0 0 200 90"><defs><style>.cls-1{fill:#1e5748;}</style></defs><title>accessToAdvice</title><g id="ARTWORK"><path class="cls-1" d="M140.17,10.5H120.84a7.71,7.71,0,0,0-7.73,7.73V45.28h27.05a7.71,7.71,0,0,0,7.73-7.73V18.23A7.71,7.71,0,0,0,140.17,10.5Zm-7.22,26.3a2.31,2.31,0,0,1-4.6,0l0-9.9a2.31,2.31,0,0,1,4.6,0ZM130.66,23a2.48,2.48,0,1,1,2.48-2.47A2.48,2.48,0,0,1,130.66,23Z"/><path class="cls-1" d="M117,62.16l-16.6-6c-.55-.2-1.32-.44-2.18-.69L93.13,76.41,89.06,61.88l3.32-6a.61.61,0,0,0,0-.59A.53.53,0,0,0,92,55H81.7a.53.53,0,0,0-.47.31.61.61,0,0,0,0,.59l3.32,6L80.53,76.13,75.13,55a43.18,43.18,0,0,0-4.21,1.23l-16.6,6c-2.94,1.12-3.5,3.25-3.59,5.58,0,.78,0,1.58,0,2.37v4c0,3.54,2.21,6,5.45,6h59c3.24,0,5.53-2.42,5.53-6v-4C120.71,66.94,120.63,63.48,117,62.16Z"/><path class="cls-1" d="M87.3,53.79a14.28,14.28,0,0,0,12.44-7,24.71,24.71,0,0,0,3.62-13c0-11.3-5.85-17.78-16.06-17.78S71.24,22.6,71.24,33.73C71.24,43.39,76.26,53.79,87.3,53.79Zm4.55-33.54a10.14,10.14,0,0,1,6.76,6.56,19.82,19.82,0,0,1-7.79-4.51C91.4,21.24,91.75,20.49,91.86,20.25Zm-17,13.48c0-12.29,7.77-14.12,12.41-14.12a17,17,0,0,1,2.72.23C89,22,83.41,32.59,74.9,34.05,74.9,33.95,74.9,33.84,74.9,33.73Zm15-9.8a22.27,22.27,0,0,0,9.35,5,23,23,0,0,1,.48,4.83c0,6.59-3.3,16.39-12.4,16.39C78.59,50.13,75.57,42,75,35.89,82.14,34.79,87.24,28.23,89.87,23.93Z"/></g></svg>