<svg xmlns="http://www.w3.org/2000/svg" viewBox="0 0 200 90"><defs><style>.cls-1{fill:#1e5748;}</style></defs><title>acessToFunds</title><g id="ARTWORK"><path class="cls-1" d="M38.43,10.27V28.68H70.27l-.1,47.22a3.93,3.93,0,0,0,3.93,3.93h29.46a3.93,3.93,0,0,0,3.93-3.93l-.1-47.21h24.7A9.3,9.3,0,0,1,133.71,25H107.37V21.32h24.49V17.63H45.79v3.68H70.28V25H42.11V14h93.42v9.26A6.67,6.67,0,0,1,139.21,22V10.27ZM81.5,44.05a2,2,0,0,1,1.4-.58h0a2,2,0,0,1,1.39.58,5.6,5.6,0,0,0,4.49,1.69,5.1,5.1,0,0,0,3.13-.82,2.29,2.29,0,0,0,.86-2c0-.47-.06-.83-.81-1.47a4.15,4.15,0,0,0-2.4-.9L87.1,40.2a7.46,7.46,0,0,1-3.51-1.64A4.68,4.68,0,0,1,82,34.86a5.61,5.61,0,0,1,5.55-5.78V27.49a1.24,1.24,0,0,1,1.22-1.22,1.22,1.22,0,0,1,.89.37,1.18,1.18,0,0,1,.34.86v1.72a8.67,8.67,0,0,1,4.39,2,2,2,0,0,1-2.65,2.93A5.6,5.6,0,0,0,88.07,33a2.34,2.34,0,0,0-1.61.53A1.81,1.81,0,0,0,86,34.86a1.07,1.07,0,0,0,.15.69,3.49,3.49,0,0,0,1.61.76l2.43.4a7.81,7.81,0,0,1,4.36,1.8A5.52,5.52,0,0,1,96.7,43,5.93,5.93,0,0,1,94.3,48,8.35,8.35,0,0,1,90,49.59v1.27a1.19,1.19,0,0,1-1.19,1.22h-.06a1.16,1.16,0,0,1-.83-.34,1.23,1.23,0,0,1-.37-.85V49.62a9.12,9.12,0,0,1-6.08-2.79A2,2,0,0,1,81.5,44.05ZM80.13,59.48a1.67,1.67,0,0,1,2.36,0l6.14,6.32,6.54-6.35a1.67,1.67,0,0,1,2.33,2.39l-7.74,7.52a1.75,1.75,0,0,1-1.19.47,1.59,1.59,0,0,1-1.17-.51l-7.3-7.52A1.67,1.67,0,0,1,80.13,59.48Z"/><path class="cls-1" d="M160.84,52.79a4.29,4.29,0,0,0-2-3.64,4.27,4.27,0,0,0-3.45-6.77l-13.58-.06a40.86,40.86,0,0,0,2-12.4,4.55,4.55,0,0,0-9-1l-.09.5a32.1,32.1,0,0,1-6.17,13.75A6.94,6.94,0,0,1,123,45.92a1.22,1.22,0,0,0-1.23,1.22L121.72,63a1.27,1.27,0,0,0,.35.87,17.79,17.79,0,0,0,12.64,5.3l18,.07a4.37,4.37,0,0,0,4.42-4.13,4.24,4.24,0,0,0-.62-2.37,4.26,4.26,0,0,0,1.85-6.1A4.28,4.28,0,0,0,160.84,52.79Zm-12.79-8,7.33,0a1.83,1.83,0,1,1,0,3.66l-7.33,0a1.83,1.83,0,1,1,0-3.66Zm-2.73,22-10.61,0a15.35,15.35,0,0,1-10.56-4.23l.06-14.21a9.38,9.38,0,0,0,6.26-3.6,34.56,34.56,0,0,0,6.65-14.8l.09-.5a2.12,2.12,0,0,1,2.33-1.71,2.2,2.2,0,0,1,1.85,2.23,38.43,38.43,0,0,1-2,12L139,43.15a1.22,1.22,0,0,0,1.15,1.61l4.08,0a4.25,4.25,0,0,0,.85,4.89,4.26,4.26,0,0,0,0,6.11,4.26,4.26,0,0,0,.71,6.68,4.24,4.24,0,0,0-.4,4.31Zm7.39,0h-3.54a1.83,1.83,0,1,1,0-3.66l3.66,0a1.83,1.83,0,0,1,1.82,1.9A1.91,1.91,0,0,1,152.72,66.8Zm2-6.1-6.72,0A1.83,1.83,0,1,1,148,57l6.72,0a1.83,1.83,0,1,1,0,3.66Zm1.86-6.1-8.55,0a1.83,1.83,0,1,1,0-3.66l8.55,0a1.83,1.83,0,1,1,0,3.66Z"/></g></svg>