<svg id="Layer_1" data-name="Layer 1" xmlns="http://www.w3.org/2000/svg" viewBox="0 0 200 90"><defs><style>.cls-1,.cls-2{fill:#1e5748;}.cls-2{stroke:#1e5748;stroke-miterlimit:10;}</style></defs><title>alexa</title><path class="cls-1" d="M159,31.32l-.37-.11-.48-.14-.67-.16-.27-.06-.84-.16-.18,0-.9-.13-.18,0-.9-.09-.2,0-.88-.05h-.23l-1.11,0-1.11,0h-.23l-.88.05-.2,0-.9.09-.18,0-.9.13-.18,0-.84.16-.27.06-.67.16-.48.14-.37.11c-2.87.92-4.91,2.46-4.91,4.58V76.1l.55.45c.17.14,4.26,3.42,11.56,3.42s11.39-3.28,11.56-3.42l.55-.45V35.9C163.93,33.77,161.9,32.24,159,31.32ZM142.71,35.9c0-.67,3.13-2.6,9.11-2.6s9.11,1.93,9.11,2.6v.36c-1.19,1.1-4.49,2.24-9.11,2.24s-7.92-1.14-9.11-2.24ZM151.82,77a17.37,17.37,0,0,1-9.11-2.37V38.67a23.62,23.62,0,0,0,18.22,0V74.6A17.36,17.36,0,0,1,151.82,77Z"/><path class="cls-2" d="M142.58,16.94a12.87,12.87,0,0,1,9.21-3.82A13.08,13.08,0,0,1,161,16.94a.77.77,0,0,0,.52.23.7.7,0,0,0,.52-.23.73.73,0,0,0,0-1,14.51,14.51,0,0,0-20.52,0,.73.73,0,0,0,0,1A.69.69,0,0,0,142.58,16.94Z"/><path class="cls-2" d="M158.13,20.6a.7.7,0,0,0,.52-.23.73.73,0,0,0,0-1,9.7,9.7,0,0,0-6.83-2.81A9.59,9.59,0,0,0,145,19.36a.74.74,0,1,0,1,1,8.16,8.16,0,0,1,11.6,0A.72.72,0,0,0,158.13,20.6Z"/><path class="cls-2" d="M154.7,24a.8.8,0,0,0,.52-.2.73.73,0,0,0,0-1,4.81,4.81,0,0,0-6.8,0,.74.74,0,0,0,1,1,3.31,3.31,0,0,1,4.7,0A.8.8,0,0,0,154.7,24Z"/><ellipse class="cls-1" cx="102.18" cy="29.11" rx="2.79" ry="2.6"/><ellipse class="cls-1" cx="92.42" cy="29.11" rx="2.79" ry="2.6"/><ellipse class="cls-1" cx="111.94" cy="29.11" rx="2.79" ry="2.6"/><path class="cls-1" d="M49.07,43.84a21.46,21.46,0,0,0,.33,3.74A19.91,19.91,0,0,0,50,50.1q.2.62.44,1.23a15,15,0,0,0,1.16,2.31A11.28,11.28,0,0,0,54.1,56.5a9.46,9.46,0,0,0,2.19,1.33,10.4,10.4,0,0,0,4.17.82c8.08,0,11.39-8.43,11.39-14.82s-2.46-13-11.39-13C51.85,30.87,49.07,37.45,49.07,43.84Z"/><path class="cls-1" d="M82,67.08,70.66,63.29A25.47,25.47,0,0,0,64.34,62H56.77a25.87,25.87,0,0,0-6.32,1.26L39.09,67.08a3.41,3.41,0,0,0-2.46,3.55c0,.49,0,1,0,1.51v2.53a3.58,3.58,0,0,0,3.73,3.79H80.77a3.62,3.62,0,0,0,3.79-3.79V72.13C84.56,70.12,84.5,67.92,82,67.08Z"/><path class="cls-1" d="M121,19.13c-3.82-5.15-10.71-8.6-18.57-8.6-12,0-21.72,8-21.72,17.87,0,5,2.56,9.79,7,13.18V54.35l10.78-8.12a23.27,23.27,0,0,0,12.26,3.37,24.94,24.94,0,0,0,4-.32l9.16,6.9V45.65c4.31-3,7-7.45,7-12.41C131,27.21,127,22,121,19.13ZM90.09,39.57c-4.07-2.83-6.4-6.91-6.4-11.18,0-8.2,8.4-14.87,18.72-14.87s18.72,6.67,18.72,14.87-8.4,14.87-18.72,14.87a23.49,23.49,0,0,1-3.77-.3l-.63-.1-7.27,5.48V40Z"/></svg>