<svg id="Layer_1" data-name="Layer 1" xmlns="http://www.w3.org/2000/svg" viewBox="0 0 200 90"><defs><style>.cls-1{fill:#1e5748;}</style></defs><title>alexaFindLocation</title><path class="cls-1" d="M93.1,25.31a8.73,8.73,0,0,0-6.6,3v0A8.75,8.75,0,0,0,84.32,34s0,.08,0,.09a13.55,13.55,0,0,0,.31,1.84s.2.63.31.93c0,.08.94,2.15,1.22,2.68A77.72,77.72,0,0,0,93.1,49.91s8.79-11,8.79-15.81A8.78,8.78,0,0,0,93.1,25.31Zm0,13.39a4.23,4.23,0,1,1,4.23-4.23A4.23,4.23,0,0,1,93.1,38.7Z"/><path class="cls-1" d="M118.74,23.06c-5.62-6.81-15.15-11.3-25.93-11.3-17.24,0-31.27,11.48-31.27,25.6,0,7.29,3.77,14.19,10.37,19V74.15L86.45,63.2a34.16,34.16,0,0,0,18.71,5.38,36.72,36.72,0,0,0,5.91-.48l13.49,10.16V62.76c6.35-4.42,10.37-11,10.37-18.27C134.92,35.14,128.34,27.06,118.74,23.06ZM74.27,54.4c-6.18-4.3-9.73-10.51-9.73-17,0-12.46,12.68-22.6,28.27-22.6s28.27,10.14,28.27,22.6S108.4,60,92.81,60a35.27,35.27,0,0,1-5.67-.46l-.63-.1-11.6,8.73V54.85Z"/></svg>