<svg id="Layer_1" data-name="Layer 1" xmlns="http://www.w3.org/2000/svg" viewBox="0 0 200 90"><defs><style>.cls-1{fill:#1e5748;}</style></defs><title>alexaContactUs</title><path id="SOLID" class="cls-1" d="M103.92,43.91a1.82,1.82,0,0,1,0,2.79c-.59.59-1.21,1.15-1.77,1.77a3.47,3.47,0,0,1-3,1.12,11.5,11.5,0,0,1-4.75-1.37,25.79,25.79,0,0,1-8.51-6.64,23.91,23.91,0,0,1-4.16-6.92,9.1,9.1,0,0,1-.68-3.85,3.08,3.08,0,0,1,1-2.11c.65-.62,1.27-1.27,1.92-1.92a1.83,1.83,0,0,1,2.76,0l1.55,1.55c.5.5,1,1,1.52,1.52a1.84,1.84,0,0,1,0,2.82l-1.89,1.89a.39.39,0,0,0-.09.5,11.43,11.43,0,0,0,1.71,2.76,20.17,20.17,0,0,0,4.81,4.38c.4.25.84.43,1.24.65a.36.36,0,0,0,.53-.09c.62-.65,1.27-1.27,1.92-1.92a1.83,1.83,0,0,1,2.76,0C101.84,41.86,102.89,42.88,103.92,43.91Z"/><path class="cls-1" d="M118.74,23.05c-5.62-6.81-15.15-11.3-25.93-11.3-17.24,0-31.27,11.48-31.27,25.6,0,7.29,3.77,14.19,10.37,19V74.13L86.45,63.19a34.16,34.16,0,0,0,18.71,5.38,36.72,36.72,0,0,0,5.91-.48l13.49,10.16V62.74c6.35-4.42,10.37-11,10.37-18.27C134.92,35.13,128.34,27,118.74,23.05ZM74.27,54.39c-6.18-4.3-9.73-10.51-9.73-17,0-12.46,12.68-22.6,28.27-22.6s28.27,10.14,28.27,22.6-12.68,22.6-28.27,22.6a35.27,35.27,0,0,1-5.67-.46l-.63-.1-11.6,8.73V54.83Z"/></svg>