<svg id="Layer_1" data-name="Layer 1" xmlns="http://www.w3.org/2000/svg" viewBox="0 0 198.79 90"><defs><style>.cls-1{fill:#1e5748;}</style></defs><title>illo_alexa_final</title><polygon class="cls-1" points="84.06 48.88 88.19 48.88 88.19 37.11 84.06 40.24 84.06 48.88"/><polygon class="cls-1" points="92.37 48.88 96.53 48.9 96.53 37.75 92.37 36.5 92.37 48.88"/><path class="cls-1" d="M106.67,25H102.1a1,1,0,0,0,.27,1.91h2l-6.57,6.55-7.87-2.62a.93.93,0,0,0-1.06.09l-8.61,6.7-.12.09a1,1,0,0,0,1.29,1.42l8.21-6.39,7.93,2.63a1.07,1.07,0,0,0,1.18-.15l7-7v2s0,0,0,0a1,1,0,0,0,1.91,0V25.93A1,1,0,0,0,106.67,25Z"/><polygon class="cls-1" points="100.73 48.88 104.87 48.85 104.87 32.65 100.73 36.79 100.73 48.88"/><path class="cls-1" d="M120,23.05c-5.62-6.81-15.15-11.3-25.93-11.3-17.24,0-31.27,11.48-31.27,25.6,0,7.29,3.77,14.19,10.37,19V74.13L87.73,63.19a34.16,34.16,0,0,0,18.71,5.38,36.72,36.72,0,0,0,5.91-.48l13.49,10.16V62.74c6.35-4.42,10.37-11,10.37-18.27C136.2,35.13,129.62,27,120,23.05ZM75.55,54.39c-6.18-4.3-9.73-10.51-9.73-17,0-12.46,12.68-22.6,28.27-22.6s28.27,10.14,28.27,22.6-12.68,22.6-28.27,22.6a35.27,35.27,0,0,1-5.67-.46l-.63-.1-11.6,8.73V54.83Z"/></svg>