<svg id="Layer_1" data-name="Layer 1" xmlns="http://www.w3.org/2000/svg" viewBox="0 0 200 90"><defs><style>.cls-1{fill:#1e5748;}</style></defs><title>alexaExchangeRates</title><path class="cls-1" d="M81.08,29.11c0-2.9,2.31-3.76,4.7-3.76s4.7.86,4.7,3.76V37c0,2.9-2.31,3.76-4.7,3.76s-4.7-.86-4.7-3.76ZM85,37.54c0,.49.11,1,.79,1s.8-.49.8-1V28.72c0-.49-.11-1-.8-1s-.79.49-.79,1ZM97,25.36h2.78L89.68,49.86H86.93Zm-.79,12.91c0-2.9,2.31-3.75,4.7-3.75s4.7.86,4.7,3.75v7.84c0,2.9-2.31,3.75-4.7,3.75s-4.7-.86-4.7-3.75Zm3.9,8.24c0,.49.11,1,.79,1s.8-.49.8-1V37.68c0-.49-.11-1-.8-1s-.79.49-.79,1Z"/><path class="cls-1" d="M119.57,22.81c-5.62-6.81-15.15-11.3-25.93-11.3C76.4,11.51,62.38,23,62.38,37.11c0,7.29,3.77,14.19,10.37,19V73.89L87.28,62.95A34.16,34.16,0,0,0,106,68.33a36.72,36.72,0,0,0,5.91-.48L125.39,78V62.5c6.35-4.42,10.37-11,10.37-18.27C135.76,34.89,129.18,26.81,119.57,22.81ZM75.11,54.14c-6.18-4.3-9.73-10.51-9.73-17,0-12.46,12.68-22.6,28.27-22.6s28.27,10.14,28.27,22.6S109.24,59.7,93.65,59.7A35.27,35.27,0,0,1,88,59.25l-.63-.1-11.6,8.73V54.59Z"/></svg>