<svg xmlns="http://www.w3.org/2000/svg" viewBox="0 0 200 90"><defs><style>.cls-1{fill:#1e5748;}.cls-2,.cls-3{fill:none;stroke:#1e5748;stroke-miterlimit:10;}.cls-2{stroke-width:3px;}.cls-3{stroke-width:2px;}</style></defs><title>allCalculatorsAndTools</title><g id="ARTWORK"><g id="_Group_" data-name="&lt;Group&gt;"><path class="cls-1" d="M56.7,66.92a1.28,1.28,0,0,1,0,1.83,1.3,1.3,0,1,1,0-1.83Z"/><path class="cls-1" d="M58.62,72.61a5.35,5.35,0,0,1-3.81,1.6A5.36,5.36,0,0,1,51,65.08L78,37.79a12.38,12.38,0,0,1-.78-4.26,12.6,12.6,0,0,1,7.58-11.63l1.87-.81.09,13.09,3,2,3-2-.09-13.09,1.88.79A12.57,12.57,0,0,1,89.9,46a12.91,12.91,0,0,1-4.24-.71Zm-5.69-1.87a2.66,2.66,0,0,0,3.79,0l1-1L85,42.15l.85.36a9.71,9.71,0,0,0,3.93.83h.07a9.9,9.9,0,0,0,9-6.05,9.65,9.65,0,0,0,.78-3.89,9.88,9.88,0,0,0-4.22-8l.08,10.22L89.86,39.4l-5.75-3.76L84,25.43a9.92,9.92,0,0,0-4.11,8.09,9.57,9.57,0,0,0,.9,4l.38.85L53.9,66l-1,1A2.69,2.69,0,0,0,52.93,70.75Z"/></g><path class="cls-1" d="M92.8,63.23,79.67,50.58,72,58.25,84.67,71.41a3.8,3.8,0,0,0,2.77,1.22,3.75,3.75,0,0,0,2.67-1.11l2.81-2.86A3.72,3.72,0,0,0,94,65.9,3.81,3.81,0,0,0,92.8,63.23Z"/><path class="cls-1" d="M67.85,49.8,56.27,38.2l3.38-3.33L71.21,46.43l1.9-1.9-11-11a3.63,3.63,0,0,0-.58-3l-.06-.08a1.61,1.61,0,0,1,.24-.94c.36-.68,1.68-2.34,6.05-3.11,2-.38,3.08-1.33,3.19-2.83.06-.83-.18-2.35-2.5-3.16a11.74,11.74,0,0,0-3.69-.58c-5.06,0-10.58,2.94-16.41,8.73l-.14.15a15.65,15.65,0,0,0-3.59,6.11H44.3a4.19,4.19,0,0,0-3,1.23A4.28,4.28,0,0,0,41.24,42l.09.1L45,45.67a4.18,4.18,0,0,0,3,1.22,4.35,4.35,0,0,0,2.94-1.15l.08-.08a4.22,4.22,0,0,0,1.12-3.95c.29-.23.58-.45.82-.61a3.81,3.81,0,0,0,.59,0,4.26,4.26,0,0,0,1.57-.31L65.95,51.7Zm-18.73-6a1.67,1.67,0,0,1-1.13.45,1.53,1.53,0,0,1-1.09-.45l-3.68-3.63a1.6,1.6,0,0,1,0-2.22,1.51,1.51,0,0,1,2.11,0l3.9,4a.63.63,0,0,0,.1.07A1.51,1.51,0,0,1,49.12,43.76Zm5.19-5.51a1.72,1.72,0,0,1-.76.22,1,1,0,0,1-.48-.12.61.61,0,0,0-.25,0c-.8,0-2.19,1.16-3.21,2L46.73,37.4c.31-.49.55-.95.49-1.16-.49-1.73,3-5.79,3-5.79,6.44-6.4,11.29-8,14.51-8a9,9,0,0,1,2.8.43c1.08.38.87.6-.27.81-8.39,1.46-9.42,6.44-8,8.33a1.11,1.11,0,0,1,0,1.2Z"/><rect class="cls-1" x="120.96" y="35.33" width="7.35" height="7.35" rx="0.25" ry="0.25"/><rect class="cls-1" x="132.01" y="35.33" width="7.35" height="7.35" rx="0.25" ry="0.25"/><rect class="cls-1" x="143.36" y="35.33" width="7.35" height="7.35" rx="0.25" ry="0.25"/><rect class="cls-1" x="120.66" y="49.08" width="7.35" height="7.35" rx="0.25" ry="0.25"/><rect class="cls-1" x="132.01" y="49.08" width="7.35" height="7.35" rx="0.25" ry="0.25"/><rect class="cls-1" x="143.36" y="49.08" width="7.35" height="7.35" rx="0.25" ry="0.25"/><rect class="cls-1" x="120.66" y="62.97" width="7.35" height="7.35" rx="0.25" ry="0.25"/><rect class="cls-1" x="132.01" y="62.97" width="7.35" height="7.35" rx="0.25" ry="0.25"/><rect class="cls-1" x="143.36" y="62.97" width="7.35" height="7.35" rx="0.25" ry="0.25"/><rect class="cls-2" x="113.98" y="11.36" width="43.4" height="66.93" rx="1" ry="1"/><rect class="cls-3" x="120.45" y="19.12" width="30.47" height="8.71" rx="1" ry="1"/></g></svg>