<svg xmlns="http://www.w3.org/2000/svg" viewBox="0 0 200 90"><defs><style>.cls-1{fill:#1e5748;}</style></defs><title>TDpublic_illustrations_200x90_00_General</title><g id="ARTWORK"><g id="Layer_25" data-name="Layer 25"><path class="cls-1" d="M113,71c-1,0-2.13.88-3.27,1-2,.25-6.94.18-9.73.19s-7.69.06-9.73-.19C89.13,71.88,88,71,87,71c-11.51,0-31.49,0-43,0v2a4.68,4.68,0,0,0,5,5H151a4.68,4.68,0,0,0,5-5V71C144.49,71,124.51,71,113,71Z"/><path class="cls-1" d="M55,69h90s0-35.78,0-51.73c0-3.26-2.1-5.26-5.44-5.26-23.8,0-55.77,0-79.56,0-2.57,0-5.17,1.38-5.13,5C55,32.79,55,69,55,69Zm4-52.75A1.7,1.7,0,0,1,60,16h79.56c1.37,0,1.44.46,1.44,1.27,0,12.47,0,38.48,0,47.72H59c0-9.34,0-35.66-.12-48.06A1.29,1.29,0,0,1,59,16.25Z"/><polygon class="cls-1" points="99.14 42.7 105.16 49 106.88 47.21 100.86 40.96 103.44 38.27 93.13 34.7 96.56 45.42 99.14 42.7"/></g></g></svg>