<svg xmlns="http://www.w3.org/2000/svg" viewBox="0 0 200 90"><title>applyOnlineAndCall</title><g id="aa40ba96-dcc7-4125-aac4-24b4f0faa275" data-name="ARTWORK"><rect x="158.27" y="27.42" width="16.96" height="27.87" rx="0.61" ry="0.61" style="fill:#1e5748"/><rect x="165.86" y="55.81" width="1.78" height="8.12" rx="0.54" ry="0.54" transform="translate(226.57 -106.89) rotate(89.98)" style="fill:#1e5748"/><rect x="154.52" y="23.3" width="24.46" height="42" rx="4" ry="4" style="fill:none;stroke:#1e5748;stroke-miterlimit:10;stroke-width:2.5px"/><path d="M87.82,71.26c-1,0-2.13.88-3.27,1-2,.25-6.94.18-9.73.19s-7.69.06-9.73-.19c-1.14-.13-2.28-1-3.27-1-11.51,0-31.48,0-43,0v2a4.68,4.68,0,0,0,5,5h102a4.68,4.68,0,0,0,5-5v-2C119.31,71.27,99.34,71.28,87.82,71.26Z" style="fill:#1e5748"/><path d="M29.8,69.26h90s0-35.78,0-51.73c0-3.26-2.1-5.26-5.44-5.26-23.79,0-55.77,0-79.56,0-2.57,0-5.17,1.37-5.14,5C29.83,33.05,29.8,69.26,29.8,69.26Zm4-52.75a1.71,1.71,0,0,1,1-.24h79.56c1.37,0,1.44.45,1.44,1.26,0,12.47,0,38.49,0,47.73h-82c0-9.34,0-35.66-.13-48.07A1.29,1.29,0,0,1,33.8,16.51Z" style="fill:#1e5748"/><polygon points="73.96 42.95 79.98 49.26 81.7 47.47 75.68 41.21 78.26 38.53 67.95 34.95 71.39 45.68 73.96 42.95" style="fill:#1e5748"/><line x1="134.39" y1="36.6" x2="142" y2="44.57" style="fill:none;stroke:#1e5748;stroke-linecap:round;stroke-miterlimit:10;stroke-width:3px"/><line x1="134.39" y1="52.59" x2="142" y2="44.61" style="fill:none;stroke:#1e5748;stroke-linecap:round;stroke-miterlimit:10;stroke-width:3px"/></g></svg>