<svg xmlns="http://www.w3.org/2000/svg" viewBox="0 0 200 90"><defs><style>.cls-1{fill:#1e5748;}</style></defs><title>ATM</title><g id="TITLE"><path class="cls-1" d="M76.35,22.94H68.83a.83.83,0,0,1-.83-.83V14.49a.83.83,0,0,1,.83-.83h7.52a.83.83,0,0,1,.83.83v7.61A.83.83,0,0,1,76.35,22.94Zm11.21,0H80a.83.83,0,0,1-.83-.83V14.49a.83.83,0,0,1,.83-.83h7.52a.83.83,0,0,1,.83.83v7.61A.83.83,0,0,1,87.56,22.94Zm11.15,0H91.19a.83.83,0,0,1-.83-.83V14.49a.83.83,0,0,1,.83-.83H98.7a.83.83,0,0,1,.83.83v7.61A.83.83,0,0,1,98.7,22.94ZM76.35,34.17H68.83a.83.83,0,0,1-.83-.83V25.73a.83.83,0,0,1,.83-.83h7.52a.83.83,0,0,1,.83.83v7.61A.83.83,0,0,1,76.35,34.17Zm11.21,0H80a.83.83,0,0,1-.83-.83V25.73A.83.83,0,0,1,80,24.9h7.52a.83.83,0,0,1,.83.83v7.61A.83.83,0,0,1,87.56,34.17Zm11.15,0H91.19a.83.83,0,0,1-.83-.83V25.73a.83.83,0,0,1,.83-.83H98.7a.83.83,0,0,1,.83.83v7.61A.83.83,0,0,1,98.7,34.17ZM76.35,45.69H68.83a.83.83,0,0,1-.83-.83V37.24a.83.83,0,0,1,.83-.83h7.52a.83.83,0,0,1,.83.83v7.61A.83.83,0,0,1,76.35,45.69Zm11.21,0H80a.83.83,0,0,1-.83-.83V37.24a.83.83,0,0,1,.83-.83h7.52a.83.83,0,0,1,.83.83v7.61A.83.83,0,0,1,87.56,45.69Zm0,11.26H80a.83.83,0,0,1-.83-.83V48.51a.83.83,0,0,1,.83-.83h7.52a.83.83,0,0,1,.83.83v7.61A.83.83,0,0,1,87.56,57ZM98.7,45.69H91.19a.83.83,0,0,1-.83-.83V37.24a.83.83,0,0,1,.83-.83H98.7a.83.83,0,0,1,.83.83v7.61A.83.83,0,0,1,98.7,45.69Zm34.14,6.22v5a44.49,44.49,0,0,1-1.66,11,40.18,40.18,0,0,0-1.66,10.39A1.65,1.65,0,0,1,127.87,80H108a1.65,1.65,0,0,1-1.66-1.66c0-2.58-1.2-4-3-6.25A40.58,40.58,0,0,1,100,67.54a70.09,70.09,0,0,1-6.53-13.15c-.64-2.21-.18-3.68.37-4.41a4.14,4.14,0,0,1,3.4-1.56c1.93,0,4,1.66,5.79,3.77V35.35a5,5,0,1,1,9.93,0v6.9a4.87,4.87,0,0,1,5.89,2,5.63,5.63,0,0,1,1.1-.46A4.87,4.87,0,0,1,126,47.31a4.12,4.12,0,0,1,1.84-.37A5.07,5.07,0,0,1,132.84,51.91Zm-3.22-.37a1.66,1.66,0,0,0-3.31,0v2a1.66,1.66,0,0,1-3.31,0V48.23a1.66,1.66,0,0,0-3.31,0v3.68a1.66,1.66,0,0,1-3.31,0V46.57a1.66,1.66,0,0,0-3.31,0v3.68a1.66,1.66,0,0,1-3.31,0V35.07h0a1.66,1.66,0,0,0-3.31,0v25.2a1.66,1.66,0,1,1-3.31,0V58.9c-1.47-3.77-4.69-7.08-5.79-7.08a.63.63,0,0,0-.74.37,2,2,0,0,0,0,1.47A67.46,67.46,0,0,0,102.86,66a43.35,43.35,0,0,0,3,4.14c1.75,2.12,3.22,4,3.68,6.71h16.65a56.25,56.25,0,0,1,1.66-9.57,37.85,37.85,0,0,0,1.75-10.06Z"/></g></svg>