<svg id="ARTWORK" xmlns="http://www.w3.org/2000/svg" viewBox="0 0 320 180"><defs><style>.cls-1{fill:#1e5748;}.cls-2,.cls-3,.cls-4,.cls-5{fill:none;stroke:#1e5748;}.cls-2,.cls-3,.cls-4{stroke-miterlimit:10;}.cls-2{stroke-width:2px;}.cls-3,.cls-4,.cls-5{stroke-width:3px;}.cls-4,.cls-5{stroke-linecap:round;}.cls-5{stroke-linejoin:round;}</style></defs><title>autoLoanCalculator</title><rect class="cls-1" x="223.19" y="74.83" width="11.47" height="11.47" rx="0.25" ry="0.25"/><rect class="cls-1" x="240.43" y="74.83" width="11.47" height="11.47" rx="0.25" ry="0.25"/><rect class="cls-1" x="258.15" y="74.83" width="11.47" height="11.47" rx="0.25" ry="0.25"/><rect class="cls-1" x="222.71" y="96.3" width="11.47" height="11.47" rx="0.25" ry="0.25"/><rect class="cls-1" x="240.43" y="96.3" width="11.47" height="11.47" rx="0.25" ry="0.25"/><rect class="cls-1" x="258.15" y="96.3" width="11.47" height="11.47" rx="0.25" ry="0.25"/><rect class="cls-1" x="222.71" y="117.98" width="11.47" height="11.47" rx="0.25" ry="0.25"/><rect class="cls-1" x="240.43" y="117.98" width="11.47" height="11.47" rx="0.25" ry="0.25"/><rect class="cls-1" x="258.15" y="117.98" width="11.47" height="11.47" rx="0.25" ry="0.25"/><path class="cls-1" d="M278.91,144H213.42a3.22,3.22,0,0,1-3.21-3.21V38.55a3.12,3.12,0,0,1,1.2-2.48,2.88,2.88,0,0,1,2.21-.57H278.7a2.9,2.9,0,0,1,2.21.57,3.12,3.12,0,0,1,1.2,2.48V140.76A3.21,3.21,0,0,1,278.91,144Zm-64.52-4.18h63.56V39.69H214.38Z"/><path class="cls-1" d="M269,64.34l-45.73,0a2.46,2.46,0,0,1-1.89-2.3V50.66a2.08,2.08,0,0,1,.79-1.65,1.88,1.88,0,0,1,1.49-.35H268.7a1.88,1.88,0,0,1,1.49.35,2.08,2.08,0,0,1,.79,1.65V62a2.46,2.46,0,0,1-1.89,2.3Zm-45.28-2.09h45c.16-.07.25-.18.25-.25V50.75H223.43V62C223.43,62.06,223.52,62.18,223.68,62.25Z"/><path class="cls-1" d="M182.34,76.73H164c-9,8.9-20.13,22.88-14.39,33.08,4.53,8.06,14.77,10.15,24.71,10s19.57-2.5,22.88-10C201.47,100.21,190.68,85.84,182.34,76.73Zm-2.81,30.14a5.74,5.74,0,0,1-.63.54,8.52,8.52,0,0,1-4.25,1.59v1.13a1.39,1.39,0,0,1-1.37,1.41h-.08a1.4,1.4,0,0,1-1.38-1.37V109a9.31,9.31,0,0,1-6.1-2.85,2.17,2.17,0,0,1,3.06-3.07,5.44,5.44,0,0,0,4.42,1.66,5,5,0,0,0,3.06-.79,2.15,2.15,0,0,0,.81-1.84c0-.44-.05-.74-.76-1.34a4.07,4.07,0,0,0-2.35-.88l-2.48-.4a7.65,7.65,0,0,1-3.63-1.7,4.86,4.86,0,0,1-1.64-3.87,5.82,5.82,0,0,1,5.62-6V86.49a1.44,1.44,0,0,1,1.41-1.41,1.42,1.42,0,0,1,1,.43,1.37,1.37,0,0,1,.39,1V88.1a8.92,8.92,0,0,1,4.39,2,2.17,2.17,0,0,1,.71,1.52,2.14,2.14,0,0,1-.56,1.55,2.26,2.26,0,0,1-1.62.7,2.13,2.13,0,0,1-1.44-.56,5.47,5.47,0,0,0-3.63-1.12,1.85,1.85,0,0,0-2,1.7c0,.88.9,1.19,1.64,1.3l2.45.4a7.92,7.92,0,0,1,4.49,1.87,5.74,5.74,0,0,1,2.26,4.61A6.54,6.54,0,0,1,179.54,106.86Z"/><path class="cls-1" d="M187.75,62.93c-2.51-1.52-5.6,1.71-7.81,1.63s-3.95-3.25-6.47-3.16-3.52,2.7-5.54,3.16-7.06-3.49-9.08-1.29c-1.64,1.79,3.37,8.93,5.33,11.57h18.07C184.32,72,189.81,64.18,187.75,62.93Z"/><path class="cls-1" d="M132.29,87.58H58.21l6.61-19.82c1.09-3.48,3.46-5.25,7-5.25h46.81c3.56,0,5.86,1.72,7,5.25Z"/><path class="cls-2" d="M127.23,101.07a8.2,8.2,0,1,1,8.2,8.2A8.21,8.21,0,0,1,127.23,101.07Z"/><path class="cls-2" d="M47.26,101.07a8.2,8.2,0,1,1,8.2,8.2A8.21,8.21,0,0,1,47.26,101.07Z"/><path class="cls-1" d="M134.89,142.35c-4.4,0-8.86-2.95-8.88-8.58v-9h17.67v9c0,5.89-4.56,8.58-8.78,8.59Z"/><path class="cls-1" d="M56,142.35a9.55,9.55,0,0,1-4.5-1.1,8.07,8.07,0,0,1-4.26-7.49v-9h17.6v9a8.07,8.07,0,0,1-4.31,7.48A9.63,9.63,0,0,1,56,142.35Z"/><path class="cls-3" d="M109,129.06a.18.18,0,0,1-.17.19H82.06a.18.18,0,0,1-.17-.19V116.89a.18.18,0,0,1,.17-.19h26.77a.18.18,0,0,1,.17.19Z"/><line class="cls-4" x1="73.26" y1="101.76" x2="117.23" y2="101.76"/><path class="cls-1" d="M148.85,114.3H41.52V97.41a10.21,10.21,0,0,1,7.81-10.23L50.58,87,59.8,62.53C61.5,58.11,64.64,56,69.65,56h51.08c5.18,0,8.36,2.06,10.28,6.5L140.24,87l1.25.16a9.88,9.88,0,0,1,6.8,5.45c.72-1.36,1.53-2.72,2.41-4.06a14.26,14.26,0,0,0-7.4-5.27l-8.41-22.35c-2.64-6.09-7.26-9.07-14.15-9.11H69.64C63,51.87,58.21,55,55.89,61L47.52,83.3A14.5,14.5,0,0,0,37.35,97.41v16.91a4.24,4.24,0,0,0-4,4.22v5.09a4.25,4.25,0,0,0,4.25,4.25h43.6a2.09,2.09,0,1,0,0-4.18l-43.66-.07.07-5.16,115.79.07-.07,5.16H109.85a2.09,2.09,0,1,0,0,4.18h43.46a4.25,4.25,0,0,0,4.25-4.25v-3.48A20.74,20.74,0,0,1,148.85,114.3Z"/><line class="cls-5" x1="32.91" y1="143.19" x2="158" y2="143.19"/></svg>