<svg xmlns="http://www.w3.org/2000/svg" viewBox="0 0 200 90"><defs><style>.cls-1{fill:#1e5748;}.cls-2{fill:none;stroke:#1e5748;stroke-linecap:round;stroke-linejoin:round;stroke-width:3px;}</style></defs><title>autoRepaymentSchedule</title><g id="ARTWORK"><path class="cls-1" d="M126.26,41.93v.93a1.05,1.05,0,0,0,.93,1.15h.22a1.09,1.09,0,0,0,1.15-1V41.93a7.63,7.63,0,0,0,4-1.76,5.24,5.24,0,0,0,1.53-3.89,4.72,4.72,0,0,0-1.86-3.79,6.6,6.6,0,0,0-3.69-1.58l-2-.33c-.61-.09-1.34-.34-1.34-1.07a1.51,1.51,0,0,1,1.6-1.4,4.51,4.51,0,0,1,3,.92,1.78,1.78,0,0,0,2.51-.13,1.91,1.91,0,0,0-.12-2.52,7,7,0,0,0-3.61-1.68V23.4a1.07,1.07,0,0,0-1-1.15h-.17a1.16,1.16,0,0,0-1.15,1.15v1.15a4.8,4.8,0,0,0-4.59,4.94A4,4,0,0,0,123,32.67c1.69,1.42,5,1.72,5,1.72,1.76.07,2.52,1,2.56,1.83a1.67,1.67,0,0,1-.66,1.51,4.09,4.09,0,0,1-2.52.66,4.56,4.56,0,0,1-3.66-1.28,1.87,1.87,0,0,0-2.52,0,1.85,1.85,0,0,0,0,2.52A7.7,7.7,0,0,0,126.26,41.93Z"/><path class="cls-1" d="M179.68,53.12a5.48,5.48,0,0,0-4.75-5.64l-.22-.68c-.88-2.79-1.53-5.06-2-6.66-.27-.93-.48-1.64-.62-2.1-1.2-3.79-4.87-3.79-6.84-3.79H148.19c-2,0-5.62,0-6.83,3.78-.15.48-.35,1.19-.62,2.13-.49,1.69-1.19,4.13-2.14,7.12l-.08.24A5.47,5.47,0,0,0,134.08,53l-1,14.33h6.54v3.27a3.24,3.24,0,0,0,6.39,0V67.36h21.19v3.27a3.25,3.25,0,0,0,6.4,0V67.36h6.48Zm-36-12.1c.26-.9.46-1.59.6-2,.36-1.14,1-1.62,3.86-1.62h17.07c2.89,0,3.51.48,3.87,1.62.14.45.34,1.13.59,2,.45,1.56,1.08,3.76,1.93,6.44H141.81C142.64,44.78,143.28,42.58,143.73,41Zm-.8,18.7a3.43,3.43,0,1,1,3.42-3.43A3.42,3.42,0,0,1,142.93,59.72Zm21,.63H149.42a1,1,0,1,1,0-2H163.9a1,1,0,0,1,0,2Zm0-3.89H149.42a1,1,0,1,1,0-2H163.9a1,1,0,0,1,0,2Zm6.49,3.26a3.43,3.43,0,1,1,3.42-3.43A3.42,3.42,0,0,1,170.39,59.72Z"/><path class="cls-1" d="M40.63,58.2V69.51H28.37V58.2H40.63m0-1H28.37a1,1,0,0,0-1,1V69.51a1,1,0,0,0,1,1H40.63a1,1,0,0,0,1-1V58.2a1,1,0,0,0-1-1Z"/><path class="cls-1" d="M59.48,58.2V69.51H47.23V58.2H59.48m0-1H47.23a1,1,0,0,0-1,1V69.51a1,1,0,0,0,1,1H59.48a1,1,0,0,0,1-1V58.2a1,1,0,0,0-1-1Z"/><path class="cls-1" d="M78.34,57.25H66.08a1,1,0,0,0-.94,1V69.51a.94.94,0,0,0,.94.94H78.34a.94.94,0,0,0,.94-.94V58.2a1,1,0,0,0-.94-1Z"/><path class="cls-1" d="M40.63,40.28V51.6H28.37V40.28H40.63m0-1H28.37a1,1,0,0,0-1,1V51.6a1,1,0,0,0,1,1H40.63a1,1,0,0,0,1-1V40.28a1,1,0,0,0-1-1Z"/><path class="cls-1" d="M59.48,40.28V51.6H47.23V40.28H59.48m0-1H47.23a1,1,0,0,0-1,1V51.6a1,1,0,0,0,1,1H59.48a1,1,0,0,0,1-1V40.28a1,1,0,0,0-1-1Z"/><path class="cls-1" d="M78.34,40.28V51.6H66.08V40.28H78.34m0-1H66.08a1,1,0,0,0-1,1V51.6a1,1,0,0,0,1,1H78.34a1,1,0,0,0,1-1V40.28a1,1,0,0,0-1-1Z"/><rect class="cls-1" x="70.99" y="14" width="2.87" height="13.91" rx="1.33" ry="1.33"/><rect class="cls-1" x="33.06" y="14" width="2.87" height="13.91" rx="1.33" ry="1.33"/><rect class="cls-1" x="51.92" y="14" width="2.87" height="13.91" rx="1.33" ry="1.33"/><path class="cls-1" d="M86.48,65.5a4.47,4.47,0,0,1-1.54-.28v9a1.89,1.89,0,0,1-1.89,1.89H23.66a1.89,1.89,0,0,1-1.89-1.89V33.68H84.94V55.85a40,40,0,0,1,3.77-3.57V25.2A4.73,4.73,0,0,0,84,20.49H74.8v3.84a3.3,3.3,0,1,1-4.75,0V20.49H55.73v3.84a3.31,3.31,0,1,1-4.75,0V20.49H36.87v3.84a3.31,3.31,0,0,1-4,5.19,2.81,2.81,0,0,1-1.27-1.28,3.37,3.37,0,0,1,.52-3.91V20.49H22.71A4.72,4.72,0,0,0,18,25.2v50a4.72,4.72,0,0,0,4.71,4.71H84a4.73,4.73,0,0,0,4.72-4.71V64.9A4.54,4.54,0,0,1,86.48,65.5Z"/><polyline class="cls-2" points="110.25 42.16 116.13 47.65 111.09 53.41"/><path class="cls-2" d="M86.48,61S96.66,46.68,114.9,47.83"/></g></svg>