<svg xmlns="http://www.w3.org/2000/svg" viewBox="0 0 200 90"><defs><style>.cls-1{fill:#1e5748;}</style></defs><title>bookAnAppointment</title><g id="bookAnAppointment"><path class="cls-1" d="M87,56.88v12H74v-12H87m0-1H74a1,1,0,0,0-1,1v12a1,1,0,0,0,1,1H87a1,1,0,0,0,1-1v-12a1,1,0,0,0-1-1Z"/><path class="cls-1" d="M107,56.88v12H94v-12h13m0-1H94a1,1,0,0,0-1,1v12a1,1,0,0,0,1,1h13a1,1,0,0,0,1-1v-12a1,1,0,0,0-1-1Z"/><path class="cls-1" d="M127,55.88H114a1,1,0,0,0-1,1v12a1,1,0,0,0,1,1h13a1,1,0,0,0,1-1v-12a1,1,0,0,0-1-1Z"/><path class="cls-1" d="M87,37.88v12H74v-12H87m0-1H74a1,1,0,0,0-1,1v12a1,1,0,0,0,1,1H87a1,1,0,0,0,1-1v-12a1,1,0,0,0-1-1Z"/><path class="cls-1" d="M107,37.88v12H94v-12h13m0-1H94a1,1,0,0,0-1,1v12a1,1,0,0,0,1,1h13a1,1,0,0,0,1-1v-12a1,1,0,0,0-1-1Z"/><path class="cls-1" d="M127,37.88v12H114v-12h13m0-1H114a1,1,0,0,0-1,1v12a1,1,0,0,0,1,1h13a1,1,0,0,0,1-1v-12a1,1,0,0,0-1-1Z"/><rect class="cls-1" x="119.21" y="10" width="3.04" height="14.76" rx="1.33" ry="1.33"/><rect class="cls-1" x="78.98" y="10" width="3.04" height="14.76" rx="1.33" ry="1.33"/><rect class="cls-1" x="98.98" y="10" width="3.04" height="14.76" rx="1.33" ry="1.33"/><path class="cls-1" d="M133,16.88h-9.75V21a3.5,3.5,0,1,1-5,0V16.88H103V21a3.5,3.5,0,1,1-5,0V16.88H83V21a3.48,3.48,0,0,1,1,2.42,3.53,3.53,0,0,1-5.23,3.08,3,3,0,0,1-1.35-1.35A3.55,3.55,0,0,1,78,21V16.88H68a5,5,0,0,0-5,5v53a5,5,0,0,0,5,5h65a5,5,0,0,0,5-5v-53A5,5,0,0,0,133,16.88Zm1,57a2,2,0,0,1-2,2H69a2,2,0,0,1-2-2v-43h67Z"/></g></svg>