<svg xmlns="http://www.w3.org/2000/svg" viewBox="0 0 200 90"><defs><style>.cls-1{fill:#1e5748;}</style></defs><title>TDpublic_illustrations_200x90_00_General</title><g id="ARTWORK"><g id="Layer_26" data-name="Layer 26"><path class="cls-1" d="M87,57V69H74V57H87m0-1H74a1,1,0,0,0-1,1V69a1,1,0,0,0,1,1H87a1,1,0,0,0,1-1V57a1,1,0,0,0-1-1Z"/><path class="cls-1" d="M107,57V69H94V57h13m0-1H94a1,1,0,0,0-1,1V69a1,1,0,0,0,1,1h13a1,1,0,0,0,1-1V57a1,1,0,0,0-1-1Z"/><path class="cls-1" d="M127,56H114a1,1,0,0,0-1,1V69a1,1,0,0,0,1,1h13a1,1,0,0,0,1-1V57a1,1,0,0,0-1-1Z"/><path class="cls-1" d="M87,38V50H74V38H87m0-1H74a1,1,0,0,0-1,1V50a1,1,0,0,0,1,1H87a1,1,0,0,0,1-1V38a1,1,0,0,0-1-1Z"/><path class="cls-1" d="M107,38V50H94V38h13m0-1H94a1,1,0,0,0-1,1V50a1,1,0,0,0,1,1h13a1,1,0,0,0,1-1V38a1,1,0,0,0-1-1Z"/><path class="cls-1" d="M127,38V50H114V38h13m0-1H114a1,1,0,0,0-1,1V50a1,1,0,0,0,1,1h13a1,1,0,0,0,1-1V38a1,1,0,0,0-1-1Z"/><rect class="cls-1" x="119.21" y="10.12" width="3.04" height="14.76" rx="1.33" ry="1.33"/><rect class="cls-1" x="78.98" y="10.12" width="3.04" height="14.76" rx="1.33" ry="1.33"/><rect class="cls-1" x="98.98" y="10.12" width="3.04" height="14.76" rx="1.33" ry="1.33"/><path class="cls-1" d="M133,17h-9.75v4.08a3.5,3.5,0,1,1-5,0V17H103v4.08a3.5,3.5,0,1,1-5,0V17H83v4.08a3.48,3.48,0,0,1,1,2.42,3.53,3.53,0,0,1-5.23,3.08,3,3,0,0,1-1.35-1.35A3.55,3.55,0,0,1,78,21.08V17H68a5,5,0,0,0-5,5V75a5,5,0,0,0,5,5h65a5,5,0,0,0,5-5V22A5,5,0,0,0,133,17Zm1,57a2,2,0,0,1-2,2H69a2,2,0,0,1-2-2V31h67Z"/></g></g></svg>