<svg xmlns="http://www.w3.org/2000/svg" viewBox="0 0 200 90"><defs><style>.cls-1{fill:#1e5748;}.cls-2,.cls-3,.cls-4,.cls-5,.cls-6{fill:none;stroke:#1e5748;}.cls-2,.cls-3,.cls-4{stroke-miterlimit:10;}.cls-2,.cls-3{stroke-width:2px;}.cls-3{stroke-dasharray:4.19 3.14;}.cls-4,.cls-5,.cls-6{stroke-linecap:round;}.cls-5,.cls-6{stroke-linejoin:round;}.cls-5{stroke-width:4px;}.cls-6{stroke-width:3px;}</style></defs><title>TDpublic_illustrations_200x90_02_CreditCards</title><g id="ARTWORK"><path class="cls-1" d="M64.16,49.27a2.25,2.25,0,0,0-2.88-1.15l-5.59,2-5.79-6a2.1,2.1,0,0,0-2.4-.6c-.63.23-1.94.69-1.25,2.63l2.94,6.25L44.58,54,42,51.9a1,1,0,0,0-1.06-.23c-.18.08-1.28.3-1,1.14l2.14,4.27,1,4.67c.22.6.72.53,1.47.29.5-.17.51-.38.63-.92L46,57.9l4.6-1.64L52.21,63a1.77,1.77,0,0,0,2.62,1.25,2.1,2.1,0,0,0,1.48-2l.74-8.3,5.6-2a2.24,2.24,0,0,0,1.51-2.68Z"/><line class="cls-2" x1="67.11" y1="29.39" x2="67.77" y2="31.28"/><line class="cls-3" x1="68.81" y1="34.25" x2="77.95" y2="60.45"/><line class="cls-2" x1="78.47" y1="61.93" x2="79.12" y2="63.82"/><line class="cls-4" x1="81.26" y1="48.66" x2="92.19" y2="44.95"/><line class="cls-4" x1="82.75" y1="53.04" x2="93.68" y2="49.32"/><path class="cls-5" d="M102.31,55.34,35.62,77.63A1.3,1.3,0,0,1,34,76.81L23.41,45.71a1.3,1.3,0,0,1,.8-1.65L90.89,21.77a1.3,1.3,0,0,1,1.64.82L103.1,53.69A1.3,1.3,0,0,1,102.31,55.34Z"/><path class="cls-6" d="M30.17,42.26l-2.26-6.65a1.3,1.3,0,0,1,.8-1.65L95.39,11.67a1.3,1.3,0,0,1,1.64.82L107.6,43.59a1.3,1.3,0,0,1-.8,1.65l-4.48,1.5"/><path class="cls-1" d="M81.88,43.49a.52.52,0,0,1-.25,0,.58.58,0,0,1-.41-.55l-.11-3.72-3.44-1a.59.59,0,0,1-.42-.54.57.57,0,0,1,.37-.57L81,35.94l-.24-3.71a.57.57,0,0,1,.35-.57.54.54,0,0,1,.63.2l2.17,3,3.29-1.32a.54.54,0,0,1,.64.19.6.6,0,0,1,0,.69l-2,3,2.27,2.89a.6.6,0,0,1,0,.69.53.53,0,0,1-.62.23l-3.41-1.1-1.89,3.11A.54.54,0,0,1,81.88,43.49Zm-.34-7.14h0Z"/><path class="cls-1" d="M145.63,22.86H126.11a7.33,7.33,0,0,0-7.32,7.32V72.47a7.33,7.33,0,0,0,7.32,7.32h19.52a7.33,7.33,0,0,0,7.32-7.32V30.18A7.33,7.33,0,0,0,145.63,22.86Zm4.88,49.61a4.89,4.89,0,0,1-4.88,4.88H126.11a4.89,4.89,0,0,1-4.88-4.88V30.18a4.89,4.89,0,0,1,4.88-4.88h19.52a4.89,4.89,0,0,1,4.88,4.88Z"/><rect class="cls-1" x="124.48" y="28.56" width="22.77" height="37.41" rx="0.81" ry="0.81"/><circle class="cls-1" cx="135.87" cy="71.66" r="2.44"/><path class="cls-1" d="M174.3,65.31,158.75,54.88a1.63,1.63,0,0,0-1.81,2.7L172.49,68a1.63,1.63,0,1,0,1.81-2.7Z"/><path class="cls-1" d="M157.85,46.33a1.62,1.62,0,0,0,.9-.28L174.3,35.62a1.63,1.63,0,1,0-1.81-2.7L156.94,43.35a1.63,1.63,0,0,0,.91,3Z"/><path class="cls-1" d="M176.53,48.89H157.83a1.63,1.63,0,1,0,0,3.25h18.71a1.63,1.63,0,0,0,0-3.25Z"/></g></svg>