<svg xmlns="http://www.w3.org/2000/svg" viewBox="0 0 200 90"><defs><style>.cls-1{fill:#1e5748;}.cls-2,.cls-3,.cls-4,.cls-5,.cls-6{fill:none;stroke:#1e5748;}.cls-2,.cls-5,.cls-6{stroke-linecap:round;}.cls-2,.cls-3,.cls-4{stroke-miterlimit:10;}.cls-4{stroke-dasharray:3.05 3.05;}.cls-5,.cls-6{stroke-linejoin:round;}.cls-5{stroke-width:3px;}.cls-6{stroke-width:2px;}</style></defs><title>TDpublic_illustrations_200x90_02_CreditCards</title><g id="ARTWORK"><path class="cls-1" d="M116.35,72.91c-1,0-2.13.88-3.27,1-2,.25-6.94.18-9.73.19s-7.69.06-9.73-.19c-1.14-.14-2.28-1-3.27-1-11.51,0-31.49,0-43,0v2a4.68,4.68,0,0,0,5,5h102a4.68,4.68,0,0,0,5-5v-2C147.83,72.92,127.86,72.93,116.35,72.91Z"/><path class="cls-1" d="M58.33,70.91h90s0-35.78,0-51.73c0-3.26-2.1-5.26-5.44-5.26-23.8,0-55.77,0-79.56,0-2.57,0-5.17,1.38-5.13,5C58.36,34.7,58.33,70.91,58.33,70.91Zm4-52.75a1.7,1.7,0,0,1,1-.24h79.56c1.37,0,1.44.46,1.44,1.27,0,12.47,0,38.48,0,47.72h-82c0-9.34,0-35.66-.12-48.06A1.29,1.29,0,0,1,62.33,18.16Z"/><line class="cls-2" x1="112.35" y1="49.83" x2="120.3" y2="49.84"/><line class="cls-2" x1="112.34" y1="53.02" x2="120.3" y2="53.03"/><path class="cls-1" d="M101.07,46.41A1.55,1.55,0,0,0,99.45,45l-4.09,0-2.44-5.19a1.45,1.45,0,0,0-1.43-.93c-.46,0-1.42,0-1.4,1.44l.52,4.73-3.38,0-1.21-2a.66.66,0,0,0-.64-.38c-.13,0-.9-.09-.9.53l.44,3.27-.37,3.27c0,.44.35.51.9.52.36,0,.41-.14.62-.46L87.27,48l3.36,0-.42,4.74c0,1.41,1,1.4,1.43,1.4a1.45,1.45,0,0,0,1.41-1l2.34-5.25,4.09,0a1.54,1.54,0,0,0,1.58-1.41Z"/><line class="cls-3" x1="107.42" y1="35.76" x2="107.43" y2="37.26"/><line class="cls-4" x1="107.45" y1="40.32" x2="107.56" y2="57.11"/><line class="cls-3" x1="107.57" y1="58.64" x2="107.58" y2="60.14"/><path class="cls-5" d="M124.58,58.88l-48.45-.34a.9.9,0,0,1-.89-.9l0-22.63a.9.9,0,0,1,.89-.9l48.45.34a.9.9,0,0,1,.89.9l0,22.63A.9.9,0,0,1,124.58,58.88Z"/><path class="cls-6" d="M80.46,34.26V29.42a.9.9,0,0,1,.89-.9l48.45.34a.9.9,0,0,1,.89.9l0,22.63a.9.9,0,0,1-.89.9l-3.25,0"/><path class="cls-1" d="M113.91,46.6a.36.36,0,0,1-.16-.07.4.4,0,0,1-.14-.45l.76-2.45-2-1.4a.4.4,0,0,1-.15-.44.39.39,0,0,1,.36-.29l2.44,0,.67-2.47a.39.39,0,0,1,.36-.29.37.37,0,0,1,.37.27l.75,2.43,2.44-.13a.38.38,0,0,1,.37.26.42.42,0,0,1-.14.46l-2,1.53.84,2.39a.42.42,0,0,1-.13.46.37.37,0,0,1-.45,0l-2-1.48-1.93,1.61A.37.37,0,0,1,113.91,46.6Zm1.37-4.73h0Z"/></g></svg>