<svg xmlns="http://www.w3.org/2000/svg" viewBox="0 0 200 90"><defs><style>.cls-1{fill:#1f5748;}</style></defs><title>borrowingMoney</title><g id="Borrowing_money" data-name="Borrowing money"><path class="cls-1" d="M153.27,39.91v.82A1.28,1.28,0,0,0,154.52,42h.08a1.28,1.28,0,0,0,1.26-1.3v-.81a7.08,7.08,0,0,0,3.44-1.32,5.28,5.28,0,0,0,.53-.46,5.51,5.51,0,0,0,1.56-4,4.84,4.84,0,0,0-1.91-3.89,6.72,6.72,0,0,0-3.76-1.57l-2-.33c-.65-.11-1.21-.42-1.23-.94,0-.84.48-1.27,1.48-1.27h0a4.37,4.37,0,0,1,2.89.88,1.89,1.89,0,0,0,1.27.49,2,2,0,0,0,1.43-.62,1.92,1.92,0,0,0-.13-2.71,7.38,7.38,0,0,0-3.57-1.69V21.27a1.25,1.25,0,0,0-.36-.92,1.29,1.29,0,0,0-.93-.39,1.3,1.3,0,0,0-1.29,1.29v1.06a5,5,0,0,0-4.61,5.07A4.16,4.16,0,0,0,150,30.67a6.42,6.42,0,0,0,3.05,1.43l2,.33c1.78.22,2.43.77,2.44,1.69a1.6,1.6,0,0,1-.61,1.41,4,4,0,0,1-2.43.62A4.35,4.35,0,0,1,151,34.83a1.91,1.91,0,1,0-2.71,2.71A7.78,7.78,0,0,0,153.27,39.91Z"/><path class="cls-1" d="M169,44.38H140.06a1.43,1.43,0,0,0-1.41,1.41v7a1.43,1.43,0,0,0,1.41,1.41h2.25l3.54,13.63a1.45,1.45,0,0,0,1.35,1h14.6a1.36,1.36,0,0,0,1.35-1L167,54.14h2a1.43,1.43,0,0,0,1.41-1.41V45.79A1.43,1.43,0,0,0,169,44.38Zm-1,7.32H141.1V46.83H168Z"/><path class="cls-1" d="M145.81,42.31a10.45,10.45,0,0,0-.2-4.73,7.7,7.7,0,0,0-3.42-4,9.7,9.7,0,0,0-6.58-1.33,8,8,0,0,0,.42,4.34,8.64,8.64,0,0,0,3.5,4.21A9.54,9.54,0,0,0,145.81,42.31Z"/><path class="cls-1" d="M173.46,31.86a9.7,9.7,0,0,0-6.58,1.33,7.7,7.7,0,0,0-3.42,4,10.45,10.45,0,0,0-.2,4.73,9.55,9.55,0,0,0,6.28-1.47A8.64,8.64,0,0,0,173,36.2,8,8,0,0,0,173.46,31.86Z"/><path class="cls-1" d="M62.91,55.88H29.36a1.8,1.8,0,0,0-1.77,1.82v20a1.8,1.8,0,0,0,1.77,1.82H62.91a1.8,1.8,0,0,0,1.77-1.82v-20A1.8,1.8,0,0,0,62.91,55.88Zm0,21.85H29.36V66.81H62.91Zm0-15.48H29.36V57.71H62.91Z"/><path class="cls-1" d="M51.18,19.59H39.6c-5.68,5.63-12.74,14.48-9.11,20.94,2.78,4.95,9,6.34,15.07,6.34h.57c6.29-.09,12.39-1.58,14.48-6.33C63.29,34.45,56.46,25.36,51.18,19.59Zm7.6,20.13c-1.82,4.13-7.9,5.07-12.68,5.14h-.55c-6.86,0-11.34-1.79-13.32-5.32-1.3-2.31-1.93-7.7,8.2-18H50.3C57.32,29.44,60.41,36,58.78,39.72Z"/><path class="cls-1" d="M40.83,18.39h10.3c1.3-1.78,4.78-6.75,3.47-7.54-1.59-1-3.55,1.08-4.94,1s-2.5-2.05-4.09-2-2.23,1.71-3.5,2-4.47-2.21-5.75-.82c-1,1.13,2.13,5.65,3.38,7.33Z"/><path class="cls-1" d="M46.3,31.56l-1.55-.26c-.47-.07-1-.27-1-.82A1.17,1.17,0,0,1,45,29.4a3.46,3.46,0,0,1,2.3.71,1.35,1.35,0,0,0,.91.35,1.43,1.43,0,0,0,1-.45,1.35,1.35,0,0,0,.36-1,1.38,1.38,0,0,0-.45-1,5.65,5.65,0,0,0-2.78-1.29v-1a.87.87,0,0,0-.24-.63.9.9,0,0,0-.65-.27.91.91,0,0,0-.89.89v.91A3.68,3.68,0,0,0,41,30.48a3.07,3.07,0,0,0,1,2.45A4.84,4.84,0,0,0,44.31,34l1.57.25a2.57,2.57,0,0,1,1.49.56c.45.38.48.57.48.85a1.36,1.36,0,0,1-.51,1.17,3.16,3.16,0,0,1-1.93.5,3.44,3.44,0,0,1-2.8-1,1.37,1.37,0,0,0-1.94,1.94A5.89,5.89,0,0,0,44.53,40v.72a.88.88,0,0,0,.87.86h.05a.88.88,0,0,0,.87-.89V40A5.39,5.39,0,0,0,49,39a3.63,3.63,0,0,0,.4-.34,4.14,4.14,0,0,0,1.18-3,3.63,3.63,0,0,0-1.43-2.92A5,5,0,0,0,46.3,31.56Z"/><rect class="cls-1" x="86.75" y="57.86" width="3" height="1.5" transform="translate(-11.3 22.37) rotate(-13.58)"/><rect class="cls-1" x="94.53" y="55.99" width="3" height="1.5" transform="translate(-10.62 24.07) rotate(-13.55)"/><rect class="cls-1" x="71.56" y="61.57" width="2.63" height="1.5" transform="translate(-12.57 18.81) rotate(-13.55)"/><rect class="cls-1" x="78.97" y="59.74" width="3" height="1.5" transform="translate(-11.93 20.53) rotate(-13.55)"/><rect class="cls-1" x="110.08" y="52.24" width="3" height="1.5" transform="translate(-9.31 27.61) rotate(-13.55)"/><rect class="cls-1" x="125.64" y="48.49" width="3" height="1.5" transform="translate(-8 31.17) rotate(-13.56)"/><rect class="cls-1" x="117.86" y="50.36" width="3" height="1.5" transform="translate(-8.65 29.38) rotate(-13.55)"/><rect class="cls-1" x="102.3" y="54.11" width="3" height="1.5" transform="translate(-9.96 25.84) rotate(-13.55)"/><rect class="cls-1" x="87.38" y="29.16" width="1.5" height="3" transform="translate(38.65 109.77) rotate(-77.15)"/><rect class="cls-1" x="79.58" y="27.38" width="1.5" height="3" transform="translate(34.32 100.78) rotate(-77.15)"/><rect class="cls-1" x="95.18" y="30.94" width="1.5" height="3" transform="translate(42.98 118.76) rotate(-77.15)"/><rect class="cls-1" x="72.05" y="25.93" width="1.5" height="2.46" transform="translate(30.13 92.09) rotate(-77.15)"/><rect class="cls-1" x="102.98" y="32.71" width="1.5" height="3" transform="translate(47.31 127.74) rotate(-77.15)"/><rect class="cls-1" x="110.78" y="34.49" width="1.5" height="3" transform="translate(51.64 136.73) rotate(-77.15)"/><rect class="cls-1" x="126.38" y="38.05" width="1.5" height="3" transform="translate(60.28 154.69) rotate(-77.14)"/><rect class="cls-1" x="118.58" y="36.27" width="1.5" height="3" transform="translate(55.97 145.72) rotate(-77.15)"/></g></svg>