<svg xmlns="http://www.w3.org/2000/svg" viewBox="0 0 200 90"><defs><style>.cls-1{fill:#1e5748;}</style></defs><title>budgetSpreadsheet</title><g id="ARTWORK"><path class="cls-1" d="M162.85,25.71l-8.43-8.41,0,0-.08-.07-1.76-1.75a1.71,1.71,0,0,0-1.21-.5H120.28a3.15,3.15,0,0,0-3.13,3.16V71.85A3.15,3.15,0,0,0,120.27,75l40,.16A3.15,3.15,0,0,0,163.36,72V28.89a1.71,1.71,0,0,0,0-.51V26.92A1.71,1.71,0,0,0,162.85,25.71Zm-2.92,46-39.37-.16V18.37h27.36v8.21a3.77,3.77,0,0,0,3.77,3.77h8.23Z"/><path class="cls-1" d="M156.26,66.07h-32V35.85h32Zm-30-2h28V37.85h-28Z"/><rect class="cls-1" x="125.24" y="43.22" width="30.01" height="2"/><rect class="cls-1" x="125.24" y="49.96" width="30.01" height="2"/><rect class="cls-1" x="125.24" y="56.7" width="30.01" height="2"/><rect class="cls-1" x="139.25" y="36.85" width="2" height="28.23"/><path class="cls-1" d="M95.44,50.09l0,.05a3.07,3.07,0,0,1-.31.27,3.32,3.32,0,0,1-.31.2,3.79,3.79,0,0,1-.69.33,4.76,4.76,0,0,1-1,.24v.47a.74.74,0,0,1-.73.75h0a.74.74,0,0,1-.73-.73v-.48a4.52,4.52,0,0,1-2.89-1.38,1.11,1.11,0,0,1,1.57-1.57,2.53,2.53,0,0,0,2.05.77,2.38,2.38,0,0,0,1.38-.34l0,0a.94.94,0,0,0,.35-.82c0-.17,0-.3-.34-.58a1.45,1.45,0,0,0-.72-.33l-.36-.07-1.18-.19a3.72,3.72,0,0,1-1.77-.83,2.41,2.41,0,0,1-.81-1.91,3,3,0,0,1,.3-1.32,2.69,2.69,0,0,1,.94-1.09A3.12,3.12,0,0,1,91.59,41v-.62a.76.76,0,0,1,.75-.75.75.75,0,0,1,.54.23.73.73,0,0,1,.21.53v.69a4.28,4.28,0,0,1,2.07,1,1.12,1.12,0,0,1,.08,1.57,1.15,1.15,0,0,1-.83.36,1.09,1.09,0,0,1-.74-.29,2.44,2.44,0,0,0-1.52-.5H92a1,1,0,0,0-.65.19.69.69,0,0,0-.21.54.51.51,0,0,0,0,.23,1.55,1.55,0,0,0,.68.31l.55.09.62.1.39.08a3.67,3.67,0,0,1,1.79.83,2.81,2.81,0,0,1,1.11,2.26A3.2,3.2,0,0,1,95.44,50.09Z"/><path class="cls-1" d="M95.21,28.29l5.61,0a2.17,2.17,0,1,0,0-4.34l-22.55-.1a8.15,8.15,0,0,0-5.52-5.31V12.2a2,2,0,0,0-2-2h-.12a2,2,0,0,0-2,2v6.29a8.14,8.14,0,0,0-5.76,5.2L40,23.58a2.17,2.17,0,1,0,0,4.34l6.25,0L37.19,54.24s0,6.55,11.79,6.55,11.79-6.55,11.79-6.55L51.7,28l10.9,0a8.15,8.15,0,0,0,6.05,6.23V68.16C62,68.8,56.2,72.47,53.88,77.71A1.63,1.63,0,0,0,55.37,80H86.05a1.63,1.63,0,0,0,1.49-2.29c-2.32-5.24-8.11-8.91-14.77-9.55v-34a8.16,8.16,0,0,0,5.69-6l11.1,0-9,26s0,6.55,11.79,6.55,11.79-6.55,11.79-6.55ZM40.07,54.24l8.77-25.76,9,25.76Zm30.48-23a4.87,4.87,0,1,1,4.87-4.87A4.88,4.88,0,0,1,70.55,31.23Zm12.92,23,8.77-25.76,9,25.76Z"/><path class="cls-1" d="M52,50.09l0,.05a3.07,3.07,0,0,1-.31.27,3.32,3.32,0,0,1-.31.2,3.79,3.79,0,0,1-.69.33,4.76,4.76,0,0,1-1,.24v.47a.74.74,0,0,1-.73.75h0a.74.74,0,0,1-.73-.73v-.48a4.52,4.52,0,0,1-2.89-1.38,1.11,1.11,0,0,1,1.57-1.57,2.53,2.53,0,0,0,2.05.77,2.38,2.38,0,0,0,1.38-.34l0,0a.94.94,0,0,0,.35-.82c0-.17,0-.3-.34-.58a1.45,1.45,0,0,0-.72-.33l-.36-.07-1.18-.19a3.72,3.72,0,0,1-1.77-.83,2.41,2.41,0,0,1-.81-1.91,3,3,0,0,1,.3-1.32,2.69,2.69,0,0,1,.94-1.09A3.12,3.12,0,0,1,48.19,41v-.62a.76.76,0,0,1,.75-.75.75.75,0,0,1,.54.23.73.73,0,0,1,.21.53v.69a4.28,4.28,0,0,1,2.07,1,1.12,1.12,0,0,1,.08,1.57A1.15,1.15,0,0,1,51,44a1.09,1.09,0,0,1-.74-.29,2.44,2.44,0,0,0-1.52-.5h-.16a1,1,0,0,0-.65.19.69.69,0,0,0-.21.54.51.51,0,0,0,0,.23,1.55,1.55,0,0,0,.68.31l.55.09.62.1.39.08a3.67,3.67,0,0,1,1.79.83,2.81,2.81,0,0,1,1.11,2.26A3.2,3.2,0,0,1,52,50.09Z"/></g></svg>