<svg xmlns="http://www.w3.org/2000/svg" viewBox="0 0 200 90"><title>002 copy 7</title><g id="49f409bb-4f22-42b7-9884-fc7d0383e06b" data-name="ARTWORK"><path d="M99.83,71.94H66.75V40.7H99.83Zm-31-2.07h29V42.77H68.82Z" style="fill:#1e5748"/><rect x="67.79" y="48.32" width="31.02" height="2.07" style="fill:#1e5748"/><rect x="67.79" y="55.29" width="31.02" height="2.07" style="fill:#1e5748"/><rect x="67.79" y="62.25" width="31.02" height="2.07" style="fill:#1e5748"/><rect x="82.26" y="41.74" width="2.07" height="29.17" style="fill:#1e5748"/><polygon points="136.07 63.03 125.31 52.27 119.91 68.38 136.07 63.03" style="fill:none;stroke:#1e5748;stroke-linejoin:round;stroke-width:3px"/><rect x="135.65" y="27.31" width="15.22" height="35.54" transform="translate(73.84 -88.1) rotate(45)" style="fill:none;stroke:#1e5748;stroke-linejoin:round;stroke-width:3px"/><line x1="144.64" y1="32.84" x2="154.99" y2="43.19" style="fill:none;stroke:#1e5748;stroke-linecap:round;stroke-linejoin:round;stroke-width:2px"/><line x1="141.47" y1="36.01" x2="151.81" y2="46.36" style="fill:none;stroke:#1e5748;stroke-linecap:round;stroke-linejoin:round;stroke-width:2px"/><path d="M70.55,35.86v.68a.77.77,0,0,0,.69.84h.16a.79.79,0,0,0,.84-.73v-.79a5.59,5.59,0,0,0,3-1.29,3.85,3.85,0,0,0,1.12-2.86,3.45,3.45,0,0,0-1.37-2.78,4.73,4.73,0,0,0-2.7-1.15l-1.48-.25c-.45-.06-1-.25-1-.78a1.11,1.11,0,0,1,1.18-1,3.32,3.32,0,0,1,2.19.68A1.31,1.31,0,0,0,75,26.3a1.4,1.4,0,0,0-.1-1.85,5.2,5.2,0,0,0-2.64-1.23v-.95a.78.78,0,0,0-.72-.84h-.12a.84.84,0,0,0-.85.84v.84a3.52,3.52,0,0,0-3.37,3.62,2.94,2.94,0,0,0,1,2.34,8.06,8.06,0,0,0,3.68,1.26c1.29.05,1.85.77,1.88,1.34a1.22,1.22,0,0,1-.49,1.11,2.94,2.94,0,0,1-1.84.48,3.37,3.37,0,0,1-2.69-.93,1.3,1.3,0,0,0-1.85,1.84A5.62,5.62,0,0,0,70.55,35.86Z" style="fill:#1e5748"/><path d="M106,77.73H60.13a1,1,0,0,1-1-1V16.86a1,1,0,0,1,1-1H92.71L107,31.35V76.73A1,1,0,0,1,106,77.73Z" style="fill:none;stroke:#1e5748;stroke-linecap:round;stroke-linejoin:round;stroke-width:4px"/><path d="M89.75,15.34V30a3,3,0,0,0,3,3h14.7a19.22,19.22,0,0,0-2.5-5.86L94.66,16.73A31.46,31.46,0,0,0,89.75,15.34Z" style="fill:#1e5748"/></g></svg>