<?xml version="1.0" encoding="utf-8"?>
<!-- Generator: Adobe Illustrator 22.0.1, SVG Export Plug-In . SVG Version: 6.00 Build 0)  -->
<svg version="1.1" id="Layer_1" xmlns="http://www.w3.org/2000/svg" xmlns:xlink="http://www.w3.org/1999/xlink" x="0px" y="0px"
	 viewBox="0 0 200 90" style="enable-background:new 0 0 200 90;" xml:space="preserve">
<style type="text/css">
	.st0{fill:#1E5748;}
</style>
<g>
	<path class="st0" d="M52.5,73v3c0,0.7,0,1.2-0.1,1.5s-0.2,0.6-0.5,0.9c-0.2,0.3-0.5,0.5-0.9,0.6c-0.3,0.1-0.7,0.2-1.1,0.2
		c-0.5,0-1-0.1-1.4-0.2s-0.6-0.3-0.9-0.6s-0.4-0.5-0.5-0.8S47,76.8,47,76.2V73c0-0.8,0.1-1.5,0.2-1.9c0.1-0.4,0.4-0.7,0.9-1
		s0.9-0.4,1.6-0.4c0.5,0,0.9,0.1,1.3,0.3c0.4,0.2,0.7,0.4,0.9,0.6s0.3,0.5,0.4,0.8C52.4,71.8,52.5,72.3,52.5,73z M50.2,72.2
		c0-0.5,0-0.8-0.1-0.9c0-0.1-0.2-0.2-0.3-0.2c-0.2,0-0.3,0.1-0.3,0.2c-0.1,0.1-0.1,0.4-0.1,0.9v4.4c0,0.5,0,0.8,0.1,1
		c0.1,0.1,0.2,0.2,0.3,0.2c0.2,0,0.3-0.1,0.3-0.2s0.1-0.4,0.1-0.9V72.2z"/>
</g>
<g>
	<path class="st0" d="M145.3,74c0.3,0.1,0.6,0.3,0.8,0.6c0.2,0.3,0.3,0.9,0.3,1.9c0,0.7-0.1,1.3-0.2,1.6c-0.1,0.3-0.4,0.6-0.8,0.9
		c-0.4,0.2-1,0.3-1.7,0.3s-1.2-0.1-1.6-0.3c-0.4-0.2-0.7-0.5-0.8-0.8c-0.2-0.4-0.3-0.9-0.3-1.8c0-0.6,0-1,0.1-1.4s0.3-0.7,0.8-1
		c-0.3-0.1-0.5-0.3-0.6-0.6c-0.1-0.3-0.2-0.7-0.2-1.1c0-0.8,0.2-1.4,0.7-1.8c0.4-0.4,1.1-0.6,1.9-0.6c1,0,1.7,0.2,2.1,0.6
		c0.4,0.4,0.6,1,0.6,1.8c0,0.5-0.1,0.8-0.2,1.1C145.9,73.6,145.7,73.8,145.3,74z M144,75.8c0-0.3,0-0.6-0.1-0.7s-0.2-0.2-0.3-0.2
		s-0.3,0.1-0.3,0.2c-0.1,0.1-0.1,0.3-0.1,0.7V77c0,0.4,0,0.6,0.1,0.8c0.1,0.1,0.2,0.2,0.3,0.2c0.2,0,0.3-0.1,0.3-0.2
		c0.1-0.1,0.1-0.4,0.1-0.8V75.8z M144,72c0-0.3,0-0.5-0.1-0.6s-0.2-0.1-0.3-0.1s-0.3,0.1-0.3,0.2c-0.1,0.1-0.1,0.3-0.1,0.6v0.7
		c0,0.3,0,0.5,0.1,0.6s0.2,0.2,0.3,0.2s0.3-0.1,0.3-0.2c0.1-0.1,0.1-0.3,0.1-0.6V72z"/>
	<path class="st0" d="M152.1,70.1v1.5h-2.8v1.5c0.4-0.4,0.8-0.6,1.4-0.6c0.6,0,1.1,0.2,1.4,0.5c0.3,0.4,0.5,1,0.5,2v1.3
		c0,0.6,0,1.1-0.1,1.4s-0.2,0.6-0.4,0.8c-0.2,0.3-0.5,0.5-0.8,0.6c-0.4,0.1-0.8,0.2-1.3,0.2c-0.6,0-1.1-0.1-1.5-0.3
		c-0.4-0.2-0.8-0.5-0.9-0.9c-0.2-0.4-0.3-1-0.3-1.9v-0.5h2.3v0.6c0,0.6,0,1,0.1,1.3c0,0.2,0.2,0.4,0.4,0.4c0.1,0,0.2,0,0.3-0.1
		s0.1-0.1,0.1-0.2s0-0.4,0-1.1v-1.8c0-0.3,0-0.6-0.1-0.7s-0.2-0.2-0.4-0.2c-0.1,0-0.2,0-0.3,0.1s-0.1,0.1-0.1,0.2s0,0.2,0,0.5h-2.2
		l0.1-4.6C147.5,70.1,152.1,70.1,152.1,70.1z"/>
	<path class="st0" d="M158.6,73.1v3c0,0.7,0,1.2-0.1,1.5s-0.2,0.6-0.5,0.9c-0.2,0.3-0.5,0.5-0.9,0.6s-0.7,0.2-1.1,0.2
		c-0.5,0-1-0.1-1.4-0.2s-0.6-0.3-0.9-0.6c-0.2-0.3-0.4-0.5-0.5-0.8s-0.1-0.8-0.1-1.4v-3.2c0-0.8,0.1-1.5,0.2-1.9
		c0.1-0.4,0.4-0.7,0.9-1c0.4-0.3,0.9-0.4,1.6-0.4c0.5,0,0.9,0.1,1.3,0.3c0.4,0.2,0.7,0.4,0.9,0.6c0.2,0.3,0.3,0.5,0.4,0.8
		C158.6,71.9,158.6,72.4,158.6,73.1z M156.4,72.4c0-0.5,0-0.8-0.1-0.9c0-0.1-0.2-0.2-0.3-0.2c-0.2,0-0.3,0.1-0.3,0.2
		c-0.1,0.1-0.1,0.4-0.1,0.9v4.4c0,0.5,0,0.8,0.1,1c0.1,0.1,0.2,0.2,0.3,0.2c0.2,0,0.3-0.1,0.3-0.2c0.1-0.1,0.1-0.4,0.1-0.9V72.4z"/>
</g>
<path class="st0" d="M68.1,39.2l-11-10C47.8,39.1,42.2,52,41.4,65.6h17.2c0.3-9.9,4-18.9,10-25.9L68.1,39.2z"/>
<path class="st0" d="M141.1,65.6h17.2c-0.9-13.6-6.5-26.6-15.9-36.5L131,39.6C137.1,46.6,140.9,55.6,141.1,65.6z"/>
<path class="st0" d="M99.2,25.4V10.7C83.6,10.8,69,17.1,58,28.2l11.4,10.5C76.9,30.7,87.5,25.6,99.2,25.4z"/>
<path class="st0" d="M141.6,28.1c-11-11.1-25.5-17.3-41.1-17.5l0,0v14.7c11.7,0.2,22.2,5.2,29.6,13.2L141.6,28.1z"/>
<path class="st0" d="M122.7,45h-8.3c-0.1,0-0.1,0-0.2,0h-0.1H114h-0.1h-0.1c-1,0.2-1.7,1.2-1.6,2.3s1.1,1.9,2.1,1.7h3.8l-12.7,13.6
	l-15.2-5.4c-0.3-0.2-0.7-0.3-1.1-0.2c-0.3,0-0.7,0.2-1,0.4L71.8,71.2c-0.1,0.1-0.2,0.1-0.2,0.2c-0.8,0.7-0.8,2-0.1,2.8
	c0.7,0.8,1.9,0.9,2.6,0.1l15.8-13.2l15.3,5.5c1,0.3,1.6,0.3,2.3-0.3L121,51.8V56c0,0,0,0,0,0.1c0,1.1,0.9,2,1.9,2s1.8-0.9,1.8-2V47
	C124.6,45.9,123.7,45,122.7,45z"/>
</svg>
