<svg xmlns="http://www.w3.org/2000/svg" viewBox="0 0 200 90"><defs><style>.cls-1{fill:#1e5748;}.cls-2,.cls-3,.cls-4,.cls-6,.cls-7,.cls-8{fill:none;}.cls-2,.cls-3,.cls-4{stroke:#1e5748;}.cls-2,.cls-4,.cls-6,.cls-7,.cls-8{stroke-linecap:round;stroke-linejoin:round;}.cls-2,.cls-6{stroke-width:4px;}.cls-3{stroke-miterlimit:10;}.cls-4,.cls-8{stroke-width:2px;}.cls-5{fill:#1e5748;}.cls-6,.cls-7,.cls-8{stroke:#1e5748;}.cls-7{stroke-width:3px;}</style></defs><title>TDpublic_illustrations_200x90_02_CreditCards</title><g id="ARTWORK"><circle class="cls-1" cx="36.13" cy="45.53" r="2.24" transform="translate(-21.61 38.88) rotate(-45)"/><rect class="cls-2" x="25.37" y="34.95" width="39.46" height="43.05"/><circle class="cls-1" cx="54.07" cy="45.53" r="2.24" transform="translate(-16.36 51.57) rotate(-45)"/><line class="cls-3" x1="25.65" y1="40.33" x2="64.83" y2="40.33"/><line class="cls-3" x1="26.26" y1="72.62" x2="64.94" y2="72.62"/><path class="cls-4" d="M36.13,44.82V30.46a9,9,0,1,1,17.94,0V44.82"/><path class="cls-5" d="M161.4,10.09a19,19,0,1,0,18.52,19.44A19,19,0,0,0,161.4,10.09ZM164.64,17a.31.31,0,0,1,.18.13.32.32,0,0,1,0,.32l-2.59,4.77h-2.63v0l-.06-.11h0l-.1-.18L164.4,17Zm-2.07,7.26.6,2.61-5.76,5.74,0-.16.91-4Zm-3.84,2.57.9-3.93h2.64l0,.16,0,.18ZM163.14,17,159,21.14,158.39,20h0l-.33-.61h0l-.19-.35,2.05-2Zm-6.12.14a.32.32,0,0,1,.28-.16h1.37l-1.24,1.23-.41-.76A.32.32,0,0,1,157,17.16Zm-.69,20.92a.32.32,0,0,1-.09-.3l.19-.81.61-2.69,6.37-6.34.38,1.67h0l.21.94-7.61,7.58ZM158,39.59l-.41-.36-.57-.5,7.17-7.15,0,.09.17.76.4,1.77-6.06,6Zm7.52-1.51-4.39,3.87a.32.32,0,0,1-.45,0l-1.17-1-.11-.1,5.62-5.6,0,.16.55,2.41A.32.32,0,0,1,165.56,38.07Z"/><circle class="cls-5" cx="123.64" cy="75.24" r="4.73"/><circle class="cls-5" cx="92.97" cy="75.24" r="4.73"/><polyline class="cls-6" points="72.88 27.48 81.23 29.4 89.73 65.87 125.73 65.87"/><polyline class="cls-7" points="82.63 35.8 132.01 35.84 126.61 58.84 88.57 58.8"/><line class="cls-8" x1="84.9" y1="43.67" x2="129.9" y2="43.67"/><line class="cls-8" x1="86.7" y1="51.17" x2="128.4" y2="51.17"/><path class="cls-8" d="M107.48,36.22c-.25.75,0,21.75,0,21.75"/><line class="cls-8" x1="119.85" y1="36.97" x2="117.85" y2="58.72"/><line class="cls-8" x1="95" y1="36.97" x2="97" y2="58.72"/></g></svg>