<svg xmlns="http://www.w3.org/2000/svg" viewBox="0 0 200 90"><defs><style>.cls-1{fill:#1e5748;}.cls-2{fill:none;stroke:#1e5748;stroke-linecap:round;stroke-miterlimit:10;stroke-width:3px;}</style></defs><title>buyingSecondProperty</title><g id="TITLES"><path class="cls-1" d="M103.38,58.31h-.16v2.27h.18c.29,0,.37-.09.37-.35V58.79C103.77,58.42,103.75,58.31,103.38,58.31Z"/><path class="cls-1" d="M126,47.59H96.27V45.35a1.1,1.1,0,1,0-2.19,0v2.24H90.85a1.11,1.11,0,0,0,0,2.21h3.23V78.31a1.1,1.1,0,1,0,2.19,0V49.8h8.81v3.26H99.55a1.1,1.1,0,0,0-1.1,1.1v14.3a1.09,1.09,0,0,0,1.1,1.09h24.2a1.09,1.09,0,0,0,1.09-1.09V54.16a1.09,1.09,0,0,0-1.09-1.1h-5.46V49.8H126a1.11,1.11,0,1,0,0-2.21Zm-20.39,12c0,1,0,1.49-.87,1.79.67.19.87.59.87,1.43v2.88h-1.87v-3c0-.36-.09-.47-.44-.47h-.11v3.51h-1.87V56.89h2.13c1.89,0,2.16.26,2.16,1.83Zm1.67-9.83h8.75v3.26h-8.75Zm3.12,8.51h-1.11v1.84h1.11v1.44h-1.11v2.7h1.11v1.44h-3V56.89h3Zm6.12,7.42h-1.74l-.94-4.34v4.34h-1.61V56.89H114l.93,4.53V56.89h1.62Zm5.4-8.84v1.46h-1v7.38h-1.87V58.35h-.95V56.89Z"/><path class="cls-1" d="M56.66,38.1l-12.5,0a1,1,0,0,0-.74.31,1,1,0,0,0-.3.74l.13,10.43a1.05,1.05,0,0,0,1,1l12.5,0a1.06,1.06,0,0,0,.74-.31,1,1,0,0,0,.3-.75l-.13-10.43A1.05,1.05,0,0,0,56.66,38.1ZM45.22,40.22h4.15l0,3.16-4.15,0Zm.1,8.34,0-3.09h4.16l0,3.09Zm6.14-8.36h4.17l0,3.17H51.5Zm.11,8.35,0-3.1H55.7l0,3.09Z"/><path class="cls-1" d="M77.06,49.52l6.74,0L77,42.79v-.08L77,23.94a1.57,1.57,0,0,0-1.57-1.56H70.73A1.57,1.57,0,0,0,69.17,24l0,11L53.44,19.38c-2.2-2.18-4-2.22-6.18-.06l-30,30.14s3.91,0,6.6,0L24,76.22h0v3.13h1.59l50.05-.13h1.55V72.52ZM46.83,67.29a1.57,1.57,0,1,1,1.56-1.57A1.57,1.57,0,0,1,46.83,67.29Zm11,8.84-.06-20.34a1,1,0,0,0-1-1l-12.52,0a1,1,0,0,0-1,1l.06,20.34-16.16,0L27,48.88,50.4,25.57,73.93,48.09l.07,28Z"/><path class="cls-1" d="M167.34,54.47a12.28,12.28,0,0,1,5.1,1,1.11,1.11,0,0,0-.05.25,1.13,1.13,0,0,0,0,.18,5.48,5.48,0,0,0-2.74-.61c-1,.26-3.51,1.76-3.12,5.47.23,2.23.58,2.16.58,2.16s1.11-3.33,2.54-4.5c.31-.26.64-.51.95-.75a1.3,1.3,0,0,0,1.28,1.12C171.28,60,170.08,62.48,169,65c0,0-.89,2.16-1.14,2.82l-1.57,5.65a37.64,37.64,0,0,0-.73,4.1h3.52s1.59-9.06,2.39-12.66a54.13,54.13,0,0,1,1.6-5.68,1.62,1.62,0,0,0,1.26.42,1.58,1.58,0,0,0,.71-.24c.34,1,.75,2.19.94,3,.46,1.75.75,3.73.75,3.73s.37.56,1.49-1.49.13-3.11-.74-4.48a5.45,5.45,0,0,0-1.74-1.58,1.65,1.65,0,0,0,.08-.7,1.29,1.29,0,0,0-.11-.44,26.32,26.32,0,0,1,2.77,2.18c1.09,1,3.46,4,3.64,3.64s-1.15-7.34-3.64-8a4.18,4.18,0,0,0-3.5.72,1.84,1.84,0,0,0,.05-.25,1.31,1.31,0,0,0-.51-1,3.85,3.85,0,0,0-.94-4.87,6.06,6.06,0,0,0-4.42-1.3l2.08,2.08a8.57,8.57,0,0,1,2,3.87l-.17.07a5,5,0,0,0-5-3.16c-2.49.14-4.69,3.12-4.69,3.12S162.73,54.55,167.34,54.47Z"/><path class="cls-1" d="M138.65,41.27a8.27,8.27,0,0,1,7.06,1.62,2.1,2.1,0,0,1,1-1.34c-1.65-3.27-.78-6.34,1.73-8.67,3.15-2.92,7.93-2.33,7.93-2.33l-3.73,3.73a15.55,15.55,0,0,0-3.77,7.32l.2.15a9.06,9.06,0,0,1,9.16-6.07c4.46.25,8.4,5.59,8.4,5.59s1.25.14-7,0a22.18,22.18,0,0,0-8.56,1.48,2.05,2.05,0,0,1,.85.45,7,7,0,0,1,3.52-.53c1.86.47,6.29,3.15,5.59,9.79-.42,4-1.05,3.88-1.05,3.88s-2-6-4.54-8.08c-1-.85-2.15-1.69-3.11-2.4a2.09,2.09,0,0,1-1.78,1c1,2,2.9,5.92,4.62,9.93l.54,1.26c.45,1.1.88,2.18,1.27,3.22l-2.94,1,3.61.9c.22.67.42,1.31.58,1.9.28,1,.53,2,.76,3l-3.55,1.18,4,1C160.51,75.1,161,79,161,79h-5.59s-2.92-16.66-4.2-22.37a89,89,0,0,0-2.42-8.7,2.06,2.06,0,0,1-1.08.3,2.09,2.09,0,0,1-1.48-.61c-.67,1.9-1.59,4.6-2,6.21-.86,3.29-1.4,7-1.4,7s-.7,1-2.8-2.8-.23-5.82,1.4-8.39a11.75,11.75,0,0,1,4.2-3.51,2.07,2.07,0,0,1,.54-1.38,1.7,1.7,0,0,1-.27-.39c-2.12.92-5.53,3.74-7.27,5.28-2.1,1.87-6.64,7.69-7,7S133.87,42.55,138.65,41.27Z"/><line class="cls-2" x1="17.13" y1="78.42" x2="181.61" y2="78.42"/></g></svg>