<svg xmlns="http://www.w3.org/2000/svg" viewBox="0 0 200 90"><defs><style>.cls-1{fill:#1e5748;}.cls-2,.cls-4{fill:none;stroke-linecap:round;stroke-linejoin:round;stroke-width:2px;}.cls-2{stroke:#1e5748;}.cls-3{fill:#1e5748;}.cls-4{stroke:#1e5748;}</style></defs><title>TDpublic_illustrations_200x90_02_CreditCards</title><g id="ARTWORK"><path class="cls-1" d="M106.17,29.84c.32,3.9-2.43,7.4-5.27,7.6a40.81,40.81,0,0,0,0-7.25,51.83,51.83,0,0,0-1-6.87C102.77,23.11,105.82,25.56,106.17,29.84Z"/><path class="cls-1" d="M59.8,29.9c-.27,3.9,2.28,7.35,5.13,7.54a33.17,33.17,0,0,1-.47-7.31,36.12,36.12,0,0,1,1.26-6.95C62.86,23,60.07,26,59.8,29.9Z"/><path class="cls-2" d="M64.43,24.54S66.67,11.36,83,11.34,101.12,24.5,101.12,24.5"/><rect class="cls-3" x="88.06" y="47.65" width="10.29" height="5.42" rx="1.08" ry="1.08" transform="translate(-0.06 0.11) rotate(-0.07)"/><path class="cls-4" d="M94.56,49.9s6.64-3.3,7.55-14.75"/><path class="cls-1" d="M110.61,62.48l-16.1-6.23A21.75,21.75,0,0,0,87.83,55H77.51a21.75,21.75,0,0,0-6.67,1.24l-16.1,6.23a6.8,6.8,0,0,0-4.1,6v6.59a5,5,0,0,0,5,5h54.09a5,5,0,0,0,5-5V68.46A6.79,6.79,0,0,0,110.61,62.48Zm.33,12.57a1.23,1.23,0,0,1-1.21,1.21H55.63a1.22,1.22,0,0,1-1.22-1.21V68.46A3,3,0,0,1,56.1,66l16.1-6.23a18.21,18.21,0,0,1,5.31-1H87.83a18.19,18.19,0,0,1,5.32,1L109.25,66h0a3,3,0,0,1,1.68,2.46Z"/><path class="cls-1" d="M82.68,53.12A14.71,14.71,0,0,0,95.49,45.9a25.45,25.45,0,0,0,3.73-13.44c0-11.64-6-18.32-16.54-18.32-10.36,0-16.55,6.85-16.55,18.32C66.13,42.41,71.31,53.12,82.68,53.12Zm2.64-30.75A22.94,22.94,0,0,0,95,27.48a23.65,23.65,0,0,1,.49,5c0,6.79-3.4,16.88-12.77,16.88-9,0-12.09-8.39-12.67-14.66C77.36,33.56,82.62,26.79,85.32,22.37Z"/><path class="cls-1" d="M140.68,20.43H122.35A7.32,7.32,0,0,0,115,27.76V53.43h25.67A7.32,7.32,0,0,0,148,46.1V27.76A7.32,7.32,0,0,0,140.68,20.43ZM133,45.26a1.6,1.6,0,0,1-.57,1.19A2.09,2.09,0,0,1,131,47a2.26,2.26,0,0,1-1.54-.51,1.56,1.56,0,0,1-.6-1.2v-.77a1.56,1.56,0,0,1,.6-1.2,2.27,2.27,0,0,1,1.54-.51,2.1,2.1,0,0,1,1.48.52,1.6,1.6,0,0,1,.57,1.19Zm4.24-11.14a4.67,4.67,0,0,1-.94,1.26,8,8,0,0,1-1.19.93,10.5,10.5,0,0,0-1.14.83,4.33,4.33,0,0,0-.85,1,2.24,2.24,0,0,0-.32,1.23v.48a1.53,1.53,0,0,1-.47,1,1.7,1.7,0,0,1-1.24.55H131a1.76,1.76,0,0,1-1.25-.44,1.42,1.42,0,0,1-.51-1.05,6.08,6.08,0,0,1,.37-2.26,6,6,0,0,1,.9-1.56,6.3,6.3,0,0,1,1.17-1.11c.41-.3.79-.59,1.12-.87a5.27,5.27,0,0,0,.83-.86,1.62,1.62,0,0,0,.31-1,1.81,1.81,0,0,0-.56-1.48,2.38,2.38,0,0,0-1.58-.49,6.58,6.58,0,0,0-1.12.08,3,3,0,0,0-.82.26,2.63,2.63,0,0,0-.68.5,6.72,6.72,0,0,0-.69.82,1.9,1.9,0,0,1-.94.67,1.74,1.74,0,0,1-1.37-.12,1.38,1.38,0,0,1-.79-.85,2,2,0,0,1,0-1,3.3,3.3,0,0,1,.53-1.07,5.25,5.25,0,0,1,1.21-1.23,7.43,7.43,0,0,1,1.94-1,8.17,8.17,0,0,1,2.76-.42,6.94,6.94,0,0,1,2.69.47,4.93,4.93,0,0,1,1.81,1.25,4.84,4.84,0,0,1,1,1.75,6.55,6.55,0,0,1,.31,2A3.92,3.92,0,0,1,137.29,34.12Z"/></g></svg>