<svg xmlns="http://www.w3.org/2000/svg" viewBox="0 0 200 90"><defs><style>.cls-1,.cls-3{fill:none;}.cls-2{fill:#1e5748;}.cls-3{stroke:#1e5748;stroke-linecap:round;stroke-linejoin:round;stroke-width:2px;}</style></defs><title>canadianGovernmentPrograms</title><g id="ARTWORK"><circle class="cls-1" cx="146.71" cy="61.51" r="1.49" transform="matrix(1, 0, 0, 1, -0.17, 0.4)"/><path class="cls-2" d="M157.14,52a1,1,0,0,0-1-1l-11.92,0a1,1,0,0,0-1,1l.05,19.37h0v3l13.91,0ZM146.71,63a1.49,1.49,0,1,1,1.49-1.49A1.49,1.49,0,0,1,146.71,63Z"/><path class="cls-2" d="M126.39,74.64a1.5,1.5,0,0,1-1.5-1.5V43.42a1.5,1.5,0,1,1,3,0V71.64l44.7-.07V44.17a1.5,1.5,0,0,1,3,0V73.07a1.5,1.5,0,0,1-1.5,1.5l-47.7.07Z"/><path class="cls-2" d="M172.52,44.72l3,1.34,6.37,0-6.44-6.39v-.07l0-17.88a1.49,1.49,0,0,0-1.49-1.49h-4.47A1.49,1.49,0,0,0,168,21.72l0,10.53L153,17.36c-2.09-2.08-3.83-2.12-5.89-.06L118.56,46s3.72,0,6.29,0v0l3-.61h0l22.29-22.2,22.41,21.45Z"/><polygon class="cls-3" points="156.24 46.14 144.18 46.14 144.18 36.15 156.24 36.15 156.24 41.05 156.24 46.14"/><path class="cls-2" d="M156.12,42.15H144.3a1,1,0,0,1,0-2h11.82a1,1,0,0,1,0,2Z"/><path class="cls-2" d="M150.21,47a1,1,0,0,1-1-1V36.29a1,1,0,0,1,2,0V46A1,1,0,0,1,150.21,47Z"/><path class="cls-2" d="M46,16.31l-5.37,9.52a.61.61,0,0,1-.48.28c-.1,0-5.83-3.16-5.83-3.16l3.42,14.94a.59.59,0,0,1,0,.22,1,1,0,0,1-1,1,1,1,0,0,1-.68-.27L30,31.72l-2.33,4.13a.74.74,0,0,1-.55.28l-7.63-1.49s2.59,8.2,2.59,8.28a.72.72,0,0,1-.36.62l-3.22,1.84L32.47,56.46a.69.69,0,0,1,.2.49c0,.09-1.47,5.8-1.47,5.8s12.3-2.55,12.35-2.55a.87.87,0,0,1,.85.87l-.26,13.4h3.71l-.23-13.4a.86.86,0,0,1,.84-.87S60.8,62.75,60.8,62.75,59.32,57,59.32,57a.72.72,0,0,1,.21-.49L73.47,45.38l-3.21-1.84a.71.71,0,0,1-.36-.62c0-.08,2.59-8.28,2.59-8.28l-7.62,1.49a.75.75,0,0,1-.56-.28L62,31.72,55.9,38.79a1.05,1.05,0,0,1-.69.27,1,1,0,0,1-1-1c0-.08,3.45-15.16,3.45-15.16S52,26.1,51.87,26.1a.58.58,0,0,1-.49-.28L46,16.31"/><path class="cls-2" d="M80.19,53.27v-4c0,2.2,4.45,4,9.95,4,.68,0,1.35,0,2-.08v4c-.64.05-1.31.08-2,.08C84.64,57.25,80.19,55.47,80.19,53.27Z"/><path class="cls-2" d="M80.19,55.26c0,2.2,4.45,4,9.95,4,.68,0,1.35,0,2-.08v4c-.64.05-1.31.08-2,.08-5.5,0-9.95-1.79-9.95-4Z"/><ellipse class="cls-2" cx="90.16" cy="35.37" rx="3.98" ry="9.95" transform="translate(54.7 125.49) rotate(-89.94)"/><path class="cls-2" d="M80.2,41.33v-4c0,2.2,4.45,4,9.95,4s10-1.77,10-4v4a1.65,1.65,0,0,1,0,.36c-3.26.58-5.86,1.85-7.11,3.45a24.07,24.07,0,0,1-2.8.16C84.66,45.31,80.2,43.53,80.2,41.33Z"/><path class="cls-2" d="M80.2,47.3v-4c0,2.2,4.45,4,9.95,4,.68,0,1.35,0,2-.08,0,0,0,.05,0,.08v3.9c-.64.05-1.31.08-2,.08C84.65,51.28,80.2,49.5,80.2,47.3Z"/><path class="cls-2" d="M104.06,63.24c-5.5,0-9.95-1.79-9.95-4v-4c0,2.2,4.45,4,9.95,4s10-1.77,10-4v4C114,61.47,109.56,63.25,104.06,63.24Z"/><path class="cls-2" d="M104.06,65.23c5.5,0,10-1.77,10-4v4c0,2.2-4.46,4-10,4s-9.95-1.79-9.95-4v-4C94.11,63.44,98.57,65.23,104.06,65.23Z"/><path class="cls-2" d="M104.07,57.27c-5.5,0-9.95-1.79-9.95-4v-4c0,2.2,4.45,4,9.95,4s10-1.77,10-4v4C114,55.5,109.56,57.28,104.07,57.27Z"/><ellipse class="cls-2" cx="104.08" cy="47.32" rx="3.98" ry="9.95" transform="translate(56.65 151.35) rotate(-89.94)"/></g></svg>