<svg xmlns="http://www.w3.org/2000/svg" viewBox="0 0 200 90"><defs><style>.cls-1{fill:#1e5748;}.cls-2{fill:none;}</style></defs><title>cashFlowCalculator</title><g id="ARTWORK"><path class="cls-1" d="M80.29,35l-.48-1.42,2.84-1L83.13,34Zm7.57-2.57L87.39,31l2.84-1,.48,1.42Zm7.58-2.57L95,28.39l2.84-1,.48,1.42ZM103,27.24l-.48-1.42,2.84-1,.48,1.42Zm7.57-2.57-.48-1.42,2.84-1,.48,1.42Z"/><path class="cls-1" d="M113,68.63l-2.84-1,.48-1.42,2.84,1Zm-7.58-2.57-2.84-1,.48-1.42,2.84,1ZM97.8,63.48l-2.84-1,.48-1.42,2.84,1Zm-7.58-2.57-2.84-1,.48-1.42,2.84,1Zm-7.58-2.57-2.84-1L80.29,56l2.84,1Z"/><path class="cls-1" d="M80.06,47.29l0-1.5,3,0,0,1.5Zm8-.09,0-1.5,3,0,0,1.5Zm8-.09,0-1.5,3,0,0,1.5Zm8-.09,0-1.5,3,0,0,1.5Zm8-.09,0-1.5,3,0,0,1.5Zm8-.09,0-1.5,3,0,0,1.5Zm8-.09,0-1.5,3,0,0,1.5Zm8-.09,0-1.5,3,0,0,1.5Zm8-.09,0-1.5,2.91,0,0,1.5Z"/><path class="cls-1" d="M146.37,66.82a1,1,0,0,0-.72-.3h-1.28a12.38,12.38,0,0,0-2.25-3.84,4.77,4.77,0,0,0,.71-2.84.83.83,0,0,0-.44-.55c-1-.47-1.94,0-3.93,1.14a10.46,10.46,0,0,0-1.81-.43,3.11,3.11,0,1,0-6,0,11.76,11.76,0,0,0-4.29,1.7,9,9,0,0,0-3.87,8.19,3.64,3.64,0,0,1-1.39-.24,2.45,2.45,0,0,0,.78-1.71,1.82,1.82,0,0,0-1.86-1.9,1.84,1.84,0,0,0-1.87,1.9,2.54,2.54,0,0,0,.69,1.68,2.71,2.71,0,0,1-1.22.19.62.62,0,0,0-.18,1.23,4.44,4.44,0,0,0,2.51-.55,5,5,0,0,0,2.41.65l.31,0a13.85,13.85,0,0,0,1.26,3c.6,1.14,1.41,2.58,2.12,3.74.11.19.35.54.55.84l.27.41a1.55,1.55,0,0,0,1.23.73h2.59a1,1,0,0,0,.71-.3,1,1,0,0,0,.29-.71v-1.6a15.8,15.8,0,0,0,2.66.09l.52,1.63,0,.06a1.34,1.34,0,0,0,.52.6,1.38,1.38,0,0,0,.77.23h2.72a1,1,0,0,0,.71-.3,1,1,0,0,0,.29-.72V76.13a7.22,7.22,0,0,0,4.58-3.87l1.46-.75a1.36,1.36,0,0,0,.59-.53,1.44,1.44,0,0,0,.2-.73V67.54A1,1,0,0,0,146.37,66.82ZM120,68.9l-.08.06a1.52,1.52,0,0,1-.58-1.05.6.6,0,0,1,.63-.66.64.64,0,0,1,.43.15.65.65,0,0,1,.18.5A1.49,1.49,0,0,1,120,68.9Zm25.44,1.35a.19.19,0,0,1,0,.09s0,0-.07.05l-1.7.87a.62.62,0,0,0-.3.34A6,6,0,0,1,139.08,75a.62.62,0,0,0-.5.61v2.92H136.1a.16.16,0,0,1-.09,0l0,0-.45-1.42a13.53,13.53,0,0,0,1.36-.31.62.62,0,0,0-.35-1.19,11.75,11.75,0,0,1-3.61.48l-.82-.05A7.45,7.45,0,0,1,129,75a.62.62,0,1,0-.68,1,7.47,7.47,0,0,0,2.1.87v1.64H128a.34.34,0,0,1-.21-.16l-.28-.42c-.19-.29-.41-.62-.52-.8-.69-1.14-1.49-2.55-2.08-3.67A9.8,9.8,0,0,1,123.67,70,7.79,7.79,0,0,1,127,62.69a10.68,10.68,0,0,1,4.12-1.55,3.11,3.11,0,0,0,1.13.94H130.5a.31.31,0,0,0,0,.62h6.21a.31.31,0,0,0,0-.62H135a3.1,3.1,0,0,0,1.09-.9,8.4,8.4,0,0,1,2.11.5.62.62,0,0,0,.6,0c1.62-.91,2.39-1.31,2.83-1.3a5.43,5.43,0,0,1-.81,2.08.62.62,0,0,0,.11.81,10.8,10.8,0,0,1,2.43,4.1.62.62,0,0,0,.58.41h1.49Z"/><path class="cls-1" d="M140.69,66.82a.93.93,0,1,0,.93.93A.93.93,0,0,0,140.69,66.82Z"/><path class="cls-1" d="M141.37,20.26a2.66,2.66,0,0,0-2.3-2.74l-.11-.33c-.43-1.35-.75-2.45-1-3.23-.13-.45-.23-.79-.3-1-.58-1.84-2.36-1.84-3.32-1.84h-8.29c-1,0-2.73,0-3.31,1.84-.07.23-.17.58-.3,1-.24.82-.58,2-1,3.46l0,.12a2.65,2.65,0,0,0-2.16,2.68l-.46,7h3.17v1.59a1.58,1.58,0,0,0,3.1,0V27.17h10.28v1.59a1.58,1.58,0,0,0,3.11,0V27.17h3.15Zm-17.45-5.88c.13-.44.22-.77.29-1,.18-.55.48-.78,1.87-.78h8.29c1.4,0,1.7.23,1.88.78.07.22.16.55.29,1,.22.76.53,1.83.94,3.13H123C123.39,16.21,123.7,15.14,123.92,14.38Zm-.39,9.08a1.66,1.66,0,1,1,1.66-1.66A1.66,1.66,0,0,1,123.53,23.46Zm10.18.31h-7a.47.47,0,0,1,0-.95h7a.47.47,0,0,1,0,.95Zm0-1.89h-7a.47.47,0,0,1,0-.95h7a.47.47,0,0,1,0,.95Zm3.15,1.58a1.66,1.66,0,1,1,1.66-1.66A1.66,1.66,0,0,1,136.86,23.46Z"/><polygon class="cls-2" points="161.56 43.12 163.07 43.12 163.06 42 161.55 42 161.56 43.12"/><circle class="cls-2" cx="162.09" cy="49.36" r="0.57"/><polygon class="cls-2" points="165.33 41.24 165.32 40.09 163.8 40.09 163.81 41.24 165.33 41.24"/><polygon class="cls-2" points="163.05 41.24 163.04 40.09 161.53 40.09 161.54 41.24 163.05 41.24"/><polygon class="cls-2" points="163.83 43.12 165.35 43.12 165.34 42 163.82 42 163.83 43.12"/><path class="cls-2" d="M154.9,43.22v9.94h5.88V45.76a.38.38,0,0,1,.38-.38h4.55a.38.38,0,0,1,.38.38v7.39H172V43l-8.53-8.21Zm11.17-3.51,0,3.79a.38.38,0,0,1-.38.38h-4.55a.38.38,0,0,1-.38-.38l0-3.79a.38.38,0,0,1,.38-.38h4.55A.38.38,0,0,1,166.07,39.71Z"/><path class="cls-1" d="M166.07,39.71a.38.38,0,0,0-.38-.37h-4.55a.38.38,0,0,0-.38.38l0,3.79a.38.38,0,0,0,.38.38h4.55a.38.38,0,0,0,.38-.38Zm-4.54.38H163v1.15h-1.51Zm0,3V42h1.51v1.12Zm2.24-3h1.52v1.15h-1.52Zm0,3V42h1.52v1.12Z"/><path class="cls-1" d="M173.1,41.05V34.2a.57.57,0,0,0-.57-.57h-1.71a.57.57,0,0,0-.57.57v4l-5.72-5.7a1.36,1.36,0,0,0-2.25,0L151.36,43.42l2.4,0V54.29H173.1V43.5h2.45Zm-11,8.88a.57.57,0,1,1,.57-.57A.57.57,0,0,1,162.09,49.93ZM172,53.16h-5.88V45.76a.38.38,0,0,0-.38-.38h-4.55a.38.38,0,0,0-.38.38v7.39H154.9V43.22l8.53-8.45L172,43Z"/><rect class="cls-1" x="31.43" y="35.33" width="7.35" height="7.35" rx="0.25" ry="0.25"/><rect class="cls-1" x="42.48" y="35.33" width="7.35" height="7.35" rx="0.25" ry="0.25"/><rect class="cls-1" x="53.83" y="35.33" width="7.35" height="7.35" rx="0.25" ry="0.25"/><rect class="cls-1" x="31.13" y="49.08" width="7.35" height="7.35" rx="0.25" ry="0.25"/><rect class="cls-1" x="42.48" y="49.08" width="7.35" height="7.35" rx="0.25" ry="0.25"/><rect class="cls-1" x="53.83" y="49.08" width="7.35" height="7.35" rx="0.25" ry="0.25"/><rect class="cls-1" x="31.13" y="62.97" width="7.35" height="7.35" rx="0.25" ry="0.25"/><rect class="cls-1" x="42.48" y="62.97" width="7.35" height="7.35" rx="0.25" ry="0.25"/><rect class="cls-1" x="53.83" y="62.97" width="7.35" height="7.35" rx="0.25" ry="0.25"/><path class="cls-1" d="M66.85,79.79H25.45a2.5,2.5,0,0,1-2.5-2.5V12.36a2.5,2.5,0,0,1,2.5-2.5h41.4a2.5,2.5,0,0,1,2.5,2.5V77.29A2.5,2.5,0,0,1,66.85,79.79Zm-40.9-3h40.4V12.86H26Z"/><path class="cls-1" d="M60.39,28.82H31.91a2,2,0,0,1-2-2V20.12a2,2,0,0,1,2-2H60.39a2,2,0,0,1,2,2v6.71A2,2,0,0,1,60.39,28.82Zm0-2v0ZM31.91,20.12v6.71H60.39V20.12Z"/></g></svg>