<svg xmlns="http://www.w3.org/2000/svg" viewBox="0 0 200 90"><defs><style>.cls-1,.cls-2,.cls-4,.cls-5{fill:none;}.cls-1,.cls-2,.cls-3,.cls-4,.cls-5{stroke:#1e5748;stroke-linejoin:round;}.cls-1,.cls-2,.cls-5{stroke-linecap:round;}.cls-1{stroke-width:4px;}.cls-2,.cls-3,.cls-4{stroke-width:2px;}.cls-3{fill:#1e5748;}</style></defs><title>chequingAccounts</title><g id="ARTWORK"><g id="Layer_24" data-name="Layer 24"><path class="cls-1" d="M146,76.68a1.11,1.11,0,0,1-1.1,1.11H55.14a1.1,1.1,0,0,1-1.1-1.1l.1-43.7a1.1,1.1,0,0,1,1.1-1.1l89.69-.1a1.1,1.1,0,0,1,1.1,1.1Z"/><line class="cls-2" x1="66.08" y1="43.78" x2="130.03" y2="43.55"/><line class="cls-2" x1="66.08" y1="51.78" x2="124.78" y2="51.55"/><path class="cls-3" d="M135.51,51.06l32.1-28.71a4.35,4.35,0,0,0,.32-6.13,4.3,4.3,0,0,0-6.1-.32l-32.1,28.71Z"/><path class="cls-4" d="M129.72,44.61l-9.07,13.78s14.55-7.29,14.86-7.33Z"/><path class="cls-5" d="M85.45,67.56c5.5,2.94,9.9,1.28,13.44-2.44A4,4,0,0,0,100,60.9c-.77-1.8-3.52-2-5.07-.48a5,5,0,0,0-1.35,2.81,4.68,4.68,0,0,0,2.26,4.84,10.34,10.34,0,0,0,7,.86c2.23-.44,6.25-2.33,8.16-5.45.65-1.06.76-3.33-1.24-3.89a3.42,3.42,0,0,0-4.34,2.66c-.46,2.59,2.34,6.36,5.27,6.73a8.76,8.76,0,0,0,5.88-1.19,13.07,13.07,0,0,0,4.88-4.25,3.85,3.85,0,0,0,.61-3.33,2.34,2.34,0,0,0-1.72-1.2"/></g></g></svg>