<svg xmlns="http://www.w3.org/2000/svg" viewBox="0 0 200 90"><defs><style>.cls-1{fill:#1e5748;}</style></defs><title>choosingAMortgage</title><g id="ARTWORK"><path class="cls-1" d="M126.59,55.44a11.77,11.77,0,1,0,10.81,12.65A11.75,11.75,0,0,0,126.59,55.44Zm.2,18.2a1.16,1.16,0,0,1-.41.86,1.51,1.51,0,0,1-1.07.38,1.64,1.64,0,0,1-1.11-.37,1.13,1.13,0,0,1-.44-.86v-.55a1.13,1.13,0,0,1,.44-.86,1.64,1.64,0,0,1,1.11-.37,1.52,1.52,0,0,1,1.07.38,1.16,1.16,0,0,1,.41.86Zm3-8a3.37,3.37,0,0,1-.68.91,5.82,5.82,0,0,1-.86.67,7.58,7.58,0,0,0-.82.6,3.13,3.13,0,0,0-.61.69,1.62,1.62,0,0,0-.23.89v.35a1.1,1.1,0,0,1-.34.72,1.23,1.23,0,0,1-.9.4h-.08a1.27,1.27,0,0,1-.91-.32,1,1,0,0,1-.37-.76,4.39,4.39,0,0,1,.27-1.63A4.33,4.33,0,0,1,125,67a4.56,4.56,0,0,1,.85-.81c.29-.21.57-.42.81-.63a3.82,3.82,0,0,0,.6-.62,1.17,1.17,0,0,0,.22-.74,1.31,1.31,0,0,0-.41-1.07,1.72,1.72,0,0,0-1.14-.35,4.76,4.76,0,0,0-.81.06,2.18,2.18,0,0,0-.59.19,1.9,1.9,0,0,0-.49.36,4.84,4.84,0,0,0-.5.59,1.37,1.37,0,0,1-.68.48,1.25,1.25,0,0,1-1-.09,1,1,0,0,1-.57-.61,1.41,1.41,0,0,1,0-.71,2.38,2.38,0,0,1,.38-.78,3.79,3.79,0,0,1,.87-.89,5.36,5.36,0,0,1,1.4-.73,5.9,5.9,0,0,1,2-.31,5,5,0,0,1,1.94.34,3.56,3.56,0,0,1,1.3.9,3.49,3.49,0,0,1,.72,1.26,4.73,4.73,0,0,1,.22,1.44A2.83,2.83,0,0,1,129.83,65.59Z"/><path class="cls-1" d="M90.25,35.14v1.71A6.9,6.9,0,0,0,83.59,44a5.78,5.78,0,0,0,1.94,4.59c2.43,2.05,7.25,2.49,7.25,2.49,2.54.11,3.62,1.5,3.69,2.63a2.41,2.41,0,0,1-1,2.19,5.92,5.92,0,0,1-3.62.94,6.56,6.56,0,0,1-5.24-2,2.69,2.69,0,0,0-3.63,0,2.65,2.65,0,0,0,0,3.63,11,11,0,0,0,7.23,3.38v1.35a1.52,1.52,0,0,0,1.67,1.62,1.56,1.56,0,0,0,1.68-1.67V61.84a11,11,0,0,0,5.79-2.53,7.53,7.53,0,0,0,2.2-5.62,6.8,6.8,0,0,0-2.68-5.47A9.39,9.39,0,0,0,93.58,46l-2.91-.48c-.88-.13-1.94-.5-1.94-1.54A2.19,2.19,0,0,1,91,42a6.49,6.49,0,0,1,4.3,1.33A2.59,2.59,0,0,0,99,43.11a2.76,2.76,0,0,0-.18-3.64A10.16,10.16,0,0,0,93.6,37V35.16a1.54,1.54,0,0,0-1.67-1.69A1.71,1.71,0,0,0,90.25,35.14Z"/><path class="cls-1" d="M116.79,33.25V16.72a1.65,1.65,0,0,0-1.65-1.65h-5a1.65,1.65,0,0,0-1.65,1.65V25L95.24,11.76C92.92,9.45,91,9.4,88.71,11.68L59,41.41s5.69,0,8.31.06l1.24-.1,2.66-2.49h0L92,18.29l21.4,20.52h0l2.66,2.49.73.18H125Z"/><path class="cls-1" d="M117,54.6V36.74a2,2,0,0,0-4,0V58.65A15,15,0,0,1,117,54.6Z"/><path class="cls-1" d="M111.07,70.87H71V37.16a2,2,0,0,0-4,0V72.87a2,2,0,0,0,2,2h43.88A14.79,14.79,0,0,1,111.07,70.87Z"/></g></svg>