<svg xmlns="http://www.w3.org/2000/svg" viewBox="0 0 200 90"><defs><style>.cls-1{fill:#1e5748;}.cls-2,.cls-3,.cls-4{fill:none;}.cls-3,.cls-4{stroke:#1e5748;stroke-linecap:round;stroke-linejoin:round;}.cls-3{stroke-width:2.5px;}.cls-4{stroke-width:1.5px;}</style></defs><title>choosingAHome</title><g id="ARTWORK"><path class="cls-1" d="M181.74,52.52l-9.16-9.07a1.55,1.55,0,0,0-.6-.37l-8.26-8.49a2.25,2.25,0,0,0-.34-1.82l0,0a1,1,0,0,1,.14-.57c.21-.41,1-1.42,3.55-1.88,1.19-.23,1.81-.8,1.87-1.71a1.85,1.85,0,0,0-1.47-1.91,6.72,6.72,0,0,0-2.17-.35c-3,0-6.21,1.77-9.63,5.27l-.08.09a9.51,9.51,0,0,0-2.11,3.69h-.19a2.42,2.42,0,0,0-1.75.74,2.64,2.64,0,0,0,0,3.58l.06.06,2.16,2.19a2.42,2.42,0,0,0,1.75.74,2.51,2.51,0,0,0,1.73-.7l0,0a2.59,2.59,0,0,0,.66-2.38c.17-.14.34-.27.48-.37l.35,0a2.44,2.44,0,0,0,.92-.19l8.17,8.42a1.62,1.62,0,0,0,.35.6L177,57.46a2.2,2.2,0,0,0,1.63.74,2.17,2.17,0,0,0,1.57-.67l1.65-1.73a2.28,2.28,0,0,0,.64-1.66A2.33,2.33,0,0,0,181.74,52.52ZM170.25,43.6l-1.07,1.1-.91.94-8-8.22,2-2Zm-14.16-2.83a1,1,0,0,1-.66.27.89.89,0,0,1-.64-.27l-2.16-2.19a1,1,0,0,1,0-1.34.87.87,0,0,1,1.24,0l2.29,2.39.06,0A.93.93,0,0,1,156.09,40.77Zm2.32-3.27a.35.35,0,0,0-.15,0c-.47,0-1.29.7-1.88,1.22l-1.69-1.77c.18-.29.32-.57.29-.7-.29-1,1.78-3.5,1.78-3.5,3.78-3.87,6.63-4.8,8.52-4.8a5.13,5.13,0,0,1,1.64.26c.64.23.51.36-.16.49-4.92.88-5.53,3.89-4.67,5a.69.69,0,0,1,0,.73l-3,3a1,1,0,0,1-.45.13A.58.58,0,0,1,158.41,37.5Z"/><path class="cls-1" d="M137.82,46a1.1,1.1,0,0,0-1,1.06v5A1.1,1.1,0,0,0,137.93,53h9.21A1.1,1.1,0,0,0,148.2,52V47A1.1,1.1,0,0,0,147.14,46Z"/><path class="cls-1" d="M150.18,46a1.1,1.1,0,0,0-1,1.06v5A1.1,1.1,0,0,0,150.29,53h9.21A1.1,1.1,0,0,0,160.56,52V47A1.1,1.1,0,0,0,159.5,46Z"/><path class="cls-1" d="M135,53.89A1.1,1.1,0,0,0,134,55v5A1.1,1.1,0,0,0,135.1,61h9.21a1.1,1.1,0,0,0,1.06-1.06V55a1.1,1.1,0,0,0-1.06-1.06H135Z"/><path class="cls-1" d="M147.18,53.89a1.1,1.1,0,0,0-1,1.06v5A1.1,1.1,0,0,0,147.29,61h9.21a1.1,1.1,0,0,0,1.06-1.06V55a1.1,1.1,0,0,0-1.06-1.06h-9.32Z"/><path class="cls-1" d="M137.82,61.82a1.1,1.1,0,0,0-1,1.06v5a1.1,1.1,0,0,0,1.06,1.06h9.21a1.1,1.1,0,0,0,1.06-1.06v-5a1.1,1.1,0,0,0-1.06-1.06Z"/><path class="cls-1" d="M150.18,61.82a1.1,1.1,0,0,0-1,1.06v5a1.1,1.1,0,0,0,1.06,1.06h9.21a1.1,1.1,0,0,0,1.06-1.06v-5a1.1,1.1,0,0,0-1.06-1.06Z"/><rect class="cls-1" x="81.03" y="17.59" width="7.77" height="10.87"/><rect class="cls-1" x="93.46" y="17.59" width="7.77" height="10.87"/><rect class="cls-1" x="81.03" y="32.96" width="7.77" height="10.87"/><rect class="cls-1" x="93.46" y="32.96" width="7.77" height="10.87"/><rect class="cls-1" x="81.03" y="48.32" width="7.77" height="10.87"/><rect class="cls-1" x="93.46" y="48.32" width="7.77" height="10.87"/><path class="cls-1" d="M99.14,66.2H76V13h30.13V48.23a5,5,0,0,1,2.82-1.35V12a1.87,1.87,0,0,0-1.88-1.88h-32A1.87,1.87,0,0,0,73.18,12v55.1A1.87,1.87,0,0,0,75.06,69h25.33C100,68.12,99.54,67.17,99.14,66.2Z"/><path class="cls-1" d="M125.28,62.62v3.14a28.1,28.1,0,0,1-1,7,25.38,25.38,0,0,0-1,6.56,1,1,0,0,1-1,1H109.59a1,1,0,0,1-1-1c0-1.63-.76-2.56-1.92-4a25.63,25.63,0,0,1-2.09-2.85,44.27,44.27,0,0,1-4.12-8.31,3.15,3.15,0,0,1,.23-2.79,2.61,2.61,0,0,1,2.15-1c1.22,0,2.56,1,3.66,2.38V52.16a3.14,3.14,0,1,1,6.27,0v4.36a3.08,3.08,0,0,1,3.72,1.28,3.55,3.55,0,0,1,.7-.29A3.08,3.08,0,0,1,121,59.72a2.6,2.6,0,0,1,1.16-.23A3.2,3.2,0,0,1,125.28,62.62Zm-2,3.14V62.39a1,1,0,0,0-2.09,0v1.28a1,1,0,0,1-2.09,0V60.3a1,1,0,0,0-2.09,0v2.32a1,1,0,0,1-2.09,0V59.25a1,1,0,0,0-2.09,0v2.32a1,1,0,0,1-2.09,0V52h0a1,1,0,0,0-2.09,0V67.91a1,1,0,1,1-2.09,0V67c-.93-2.38-3-4.47-3.66-4.47a.4.4,0,0,0-.46.23,1.28,1.28,0,0,0,0,.93,42.61,42.61,0,0,0,4,7.78,27.38,27.38,0,0,0,1.92,2.61,8.75,8.75,0,0,1,2.32,4.24H121.1a35.53,35.53,0,0,1,1-6,24.87,24.87,0,0,0,1-6.51h.12Z"/><circle class="cls-2" cx="37.32" cy="60.11" r="1.01" transform="translate(-0.16 0.1) rotate(-0.15)"/><path class="cls-1" d="M44.37,53.72a.67.67,0,0,0-.67-.67l-8,0a.67.67,0,0,0-.67.67l0,13.08h0v2l9.39,0Zm-7,7.4a1,1,0,1,1,1-1A1,1,0,0,1,37.32,61.12Z"/><polyline class="cls-3" points="55.8 48.41 55.8 67.92 23.6 67.97 23.6 47.9"/><path class="cls-1" d="M54.75,48.78l2.05.9h4.3l-4.35-4.31v0l0-12.07a1,1,0,0,0-1-1h-3a1,1,0,0,0-1,1l0,7.11L41.57,30.31c-1.41-1.41-2.59-1.43-4,0L18.32,49.65l4.24,0v0l2-.41h0l15-15L54.75,48.77Z"/><polygon class="cls-4" points="43.75 49.74 35.61 49.74 35.61 42.99 43.75 42.99 43.75 46.3 43.75 49.74"/><line class="cls-4" x1="35.69" y1="46.37" x2="43.67" y2="46.37"/><line class="cls-4" x1="39.68" y1="43.09" x2="39.68" y2="49.64"/></g></svg>