<svg xmlns="http://www.w3.org/2000/svg" viewBox="0 0 200 90"><defs><style>.cls-1{fill:#1e5748;}.cls-2{fill:none;stroke:#1e5748;stroke-miterlimit:10;stroke-width:1.5px;stroke-dasharray:3 5;}</style></defs><title>TDpublic_illustrations_200x90_Borrowing</title><g id="ARTWORK"><path class="cls-1" d="M174.2,16.76H140.73A1.8,1.8,0,0,0,139,18.58v20a1.8,1.8,0,0,0,1.76,1.82H174.2A1.8,1.8,0,0,0,176,38.56v-20A1.8,1.8,0,0,0,174.2,16.76Zm0,21.8H140.73V27.66H174.2Zm0-15.44H140.73V18.58H174.2Z"/><path class="cls-1" d="M43.81,20.71H33.15C27.92,25.89,21.42,34,24.76,40c2.64,4.7,8.61,5.91,14.4,5.83S50.56,44.35,52.49,40C54.95,34.39,48.66,26,43.81,20.71ZM42.17,38.26a3.34,3.34,0,0,1-.37.32,5,5,0,0,1-2.48.93v.66a.81.81,0,0,1-.8.82h0a.81.81,0,0,1-.8-.8v-.66a5.42,5.42,0,0,1-3.55-1.66,1.26,1.26,0,0,1,1.78-1.79,3.17,3.17,0,0,0,2.57,1,2.91,2.91,0,0,0,1.78-.46,1.25,1.25,0,0,0,.47-1.07c0-.25,0-.43-.44-.78a2.37,2.37,0,0,0-1.37-.51L37.48,34a4.46,4.46,0,0,1-2.12-1,2.83,2.83,0,0,1-1-2.26,3.39,3.39,0,0,1,3.27-3.5v-.84a.84.84,0,0,1,.82-.82.83.83,0,0,1,.59.25.8.8,0,0,1,.23.58v.93a5.2,5.2,0,0,1,2.56,1.19,1.27,1.27,0,0,1,.41.88,1.25,1.25,0,0,1-.33.9,1.31,1.31,0,0,1-.95.41,1.24,1.24,0,0,1-.84-.32,3.19,3.19,0,0,0-2.11-.65,1.08,1.08,0,0,0-1.14,1c0,.51.52.69,1,.76l1.43.24a4.61,4.61,0,0,1,2.62,1.09,3.34,3.34,0,0,1,1.32,2.69A3.81,3.81,0,0,1,42.17,38.26Z"/><path class="cls-1" d="M47,12.67c-1.46-.89-3.26,1-4.55.95s-2.3-1.89-3.77-1.84-2,1.57-3.23,1.84-4.11-2-5.29-.75c-1,1,2,5.2,3.11,6.74H43.76C45,18,48.16,13.39,47,12.67Z"/><path class="cls-1" d="M112.75,62v3.19a28.6,28.6,0,0,1-1.06,7.1,25.83,25.83,0,0,0-1.06,6.68A1.06,1.06,0,0,1,109.56,80H96.79a1.06,1.06,0,0,1-1.06-1.06c0-1.66-.77-2.6-2-4A26.09,26.09,0,0,1,91.65,72a45.06,45.06,0,0,1-4.2-8.46,3.21,3.21,0,0,1,.24-2.84,2.66,2.66,0,0,1,2.19-1c1.24,0,2.6,1.06,3.73,2.42V51.32a3.19,3.19,0,1,1,6.39,0v4.43a3.13,3.13,0,0,1,3.78,1.3,3.62,3.62,0,0,1,.71-.3,3.13,3.13,0,0,1,3.9,2.25,2.65,2.65,0,0,1,1.18-.24A3.26,3.26,0,0,1,112.75,62Zm-2.07,3.19V61.73a1.06,1.06,0,0,0-2.13,0V63a1.06,1.06,0,0,1-2.13,0V59.6a1.06,1.06,0,0,0-2.13,0V62a1.06,1.06,0,0,1-2.13,0V58.54a1.06,1.06,0,0,0-2.13,0V60.9a1.06,1.06,0,0,1-2.13,0V51.14h0a1.06,1.06,0,0,0-2.13,0v16.2a1.06,1.06,0,0,1-2.13,0v-.89c-.95-2.42-3-4.55-3.73-4.55a.4.4,0,0,0-.47.24,1.31,1.31,0,0,0,0,.95,43.37,43.37,0,0,0,4,7.92,27.87,27.87,0,0,0,2,2.66A8.9,8.9,0,0,1,97.79,78h10.7a36.16,36.16,0,0,1,1.06-6.15,25.31,25.31,0,0,0,1-6.62h.12Z"/><line class="cls-2" x1="134.2" y1="34.25" x2="113.7" y2="55.25"/><line class="cls-2" x1="58.95" y1="38.24" x2="84.79" y2="54.62"/></g></svg>