<svg xmlns="http://www.w3.org/2000/svg" viewBox="0 0 200 90"><defs><style>.cls-1{fill:#1e5748;}</style></defs><title>competitiveInterestRates</title><g id="ARTWORK"><path class="cls-1" d="M56,23.92a.23.23,0,0,0,.08-.27L55,20.56,57.7,18.7a.23.23,0,0,0-.14-.43l-3.26,0-1-3.11a.23.23,0,0,0-.45,0l-1,3.12-3.24-.06a.23.23,0,0,0-.14.42l2.67,1.86-1.06,3.09a.23.23,0,0,0,.36.26l2.6-2,2.61,2A.23.23,0,0,0,56,23.92Z"/><path class="cls-1" d="M56,36.43a.23.23,0,0,0,.08-.27L55,33.07l2.67-1.85a.23.23,0,0,0-.14-.43l-3.26,0-1-3.11a.23.23,0,0,0-.45,0l-1,3.12-3.24-.06a.23.23,0,0,0-.14.42l2.67,1.86-1.06,3.09a.23.23,0,0,0,.36.26l2.6-2,2.61,2A.23.23,0,0,0,56,36.43Z"/><path class="cls-1" d="M56,49a.23.23,0,0,0,.08-.27L55,45.61l2.67-1.85a.23.23,0,0,0-.14-.43l-3.26,0-1-3.11a.23.23,0,0,0-.45,0l-1,3.12-3.24-.06a.23.23,0,0,0-.14.42l2.67,1.86-1.06,3.09a.23.23,0,0,0,.36.26l2.6-2,2.61,2A.23.23,0,0,0,56,49Z"/><path class="cls-1" d="M56,61.47a.23.23,0,0,0,.08-.27L55,58.11l2.67-1.85a.23.23,0,0,0-.14-.43l-3.26,0-1-3.11a.23.23,0,0,0-.45,0l-1,3.12-3.24-.06a.23.23,0,0,0-.14.42l2.67,1.86-1.06,3.09a.23.23,0,0,0,.36.26l2.6-2,2.61,2A.23.23,0,0,0,56,61.47Z"/><path class="cls-1" d="M56,74.15a.23.23,0,0,0,.08-.27L55,70.79l2.67-1.85a.23.23,0,0,0-.14-.43l-3.26,0-1-3.11a.23.23,0,0,0-.45,0l-1,3.12-3.24-.06a.23.23,0,0,0-.14.42l2.67,1.86-1.06,3.09a.23.23,0,0,0,.36.26l2.6-2,2.61,2A.23.23,0,0,0,56,74.15Z"/><path class="cls-1" d="M93.09,31.45v5.06a8.93,8.93,0,0,1-.37,3,3.53,3.53,0,0,1-1.6,1.73,6.25,6.25,0,0,1-3.25.74,7.23,7.23,0,0,1-3.55-.7,3.71,3.71,0,0,1-1.65-1.68,7.34,7.34,0,0,1-.43-2.82v-5.3a8.73,8.73,0,0,1,.45-3.23,3.49,3.49,0,0,1,1.72-1.7,6.84,6.84,0,0,1,3.15-.66,6.92,6.92,0,0,1,3.37.72,3.77,3.77,0,0,1,1.73,1.74A8.42,8.42,0,0,1,93.09,31.45Zm-4.66-1.29a4.94,4.94,0,0,0-.12-1.44c-.08-.18-.29-.27-.65-.27a.64.64,0,0,0-.64.29,4.09,4.09,0,0,0-.15,1.42v7.43A5,5,0,0,0,87,39.11c.08.17.31.25.67.25a.61.61,0,0,0,.61-.29,4.12,4.12,0,0,0,.14-1.36Zm13.24-4.3L90.14,56.46h-2.8l11.57-30.6Zm5.1,19.83v5.08a9,9,0,0,1-.37,3,3.55,3.55,0,0,1-1.6,1.74,6.29,6.29,0,0,1-3.25.74A7.18,7.18,0,0,1,98,55.5a3.74,3.74,0,0,1-1.66-1.69A7.24,7.24,0,0,1,95.92,51V45.68a8.7,8.7,0,0,1,.45-3.21,3.53,3.53,0,0,1,1.72-1.71,6.74,6.74,0,0,1,3.15-.67,6.89,6.89,0,0,1,3.39.73,3.75,3.75,0,0,1,1.72,1.75A8.49,8.49,0,0,1,106.77,45.68Zm-4.66-1.27A5.18,5.18,0,0,0,102,43c-.08-.19-.3-.28-.65-.28s-.54.1-.63.29a4.38,4.38,0,0,0-.14,1.44v7.43a4.89,4.89,0,0,0,.13,1.51q.13.25.66.25c.33,0,.53-.09.62-.28a4.4,4.4,0,0,0,.13-1.38Z"/><path class="cls-1" d="M116.89,55.93V74.12l-3.37-2.8a1.89,1.89,0,0,0-2.53,0l-5.06,4.34-5.06-4.34a1.89,1.89,0,0,0-2.51,0L93.29,75.5l-4.9-4.19a1.9,1.9,0,0,0-2.55,0l-5,4.46-5-4.46a1.9,1.9,0,0,0-2.57,0l-3.4,2.91V13.86h47.11V30.69a22.21,22.21,0,0,1,3.79-4.18V12.09a1.84,1.84,0,0,0-1.9-1.77H67.88A1.84,1.84,0,0,0,66,12.09V78.43a1.84,1.84,0,0,0,1.9,1.77,1.89,1.89,0,0,0,.29-.05h0c.07,0,.14,0,.21-.05a2,2,0,0,0,.28-.07,1.66,1.66,0,0,0,.58-.34l5.22-4.62,5,4.46a1.9,1.9,0,0,0,2.57,0l5.06-4.47L92,79.48a1.9,1.9,0,0,0,2.51,0L99.58,75l5.08,4.35a1.89,1.89,0,0,0,2.53,0L112.25,75l5.14,4.42a1.93,1.93,0,0,0,1.39.59,1.84,1.84,0,0,0,1.9-1.77V60.11A22.21,22.21,0,0,1,116.89,55.93Z"/><path class="cls-1" d="M124.33,36.33a1.27,1.27,0,0,0-1,1.07c-.23,1,.48,2.46,1.9,3.82a13.61,13.61,0,0,0,3.09,2.17,23,23,0,0,1-1.42-6.47A3.67,3.67,0,0,0,124.33,36.33Z"/><path class="cls-1" d="M145.56,36.33a3.68,3.68,0,0,0-2.54.59,22.93,22.93,0,0,1-1.42,6.47,13.61,13.61,0,0,0,3.09-2.17c1.43-1.36,2.14-2.79,1.9-3.82A1.27,1.27,0,0,0,145.56,36.33Z"/><path class="cls-1" d="M134.95,23.5a19.74,19.74,0,1,0,19.74,19.74A19.74,19.74,0,0,0,134.95,23.5ZM146,42.59a16.35,16.35,0,0,1-5.84,3.48A8.35,8.35,0,0,1,136.61,49a8.82,8.82,0,0,0,2.73,4.41h1.58v3H129v-3h1.58A8.81,8.81,0,0,0,133.28,49a8.35,8.35,0,0,1-3.56-2.95,16.35,16.35,0,0,1-5.84-3.48c-2-1.88-2.84-3.87-2.44-5.61a3.14,3.14,0,0,1,2.48-2.51,5.12,5.12,0,0,1,2.84.29c0-.52,0-1,0-1.5h16.35c0,.48,0,1,0,1.5a5.11,5.11,0,0,1,2.84-.29A3.14,3.14,0,0,1,148.45,37C148.85,38.72,148,40.71,146,42.59Z"/></g></svg>