<svg id="ARTWORK" xmlns="http://www.w3.org/2000/svg" viewBox="0 0 320 180"><defs><style>.cls-1{fill:#1e5748;}</style></defs><title>compareLoansLinesofCredit</title><path class="cls-1" d="M272.66,33.65H203.85a3.69,3.69,0,0,0-3.62,3.74V78.47a3.69,3.69,0,0,0,3.62,3.74h68.81a3.69,3.69,0,0,0,3.62-3.74V37.38A3.69,3.69,0,0,0,272.66,33.65Zm0,44.82H203.85V56.06h68.81Zm0-31.75H203.85V37.38h68.81Z"/><path class="cls-1" d="M82.7,35.38H60.35c-11,10.86-24.58,27.94-17.58,40.39,5.53,9.84,18,12.39,30.18,12.22s23.9-3.06,27.94-12.22C106.05,64.06,92.88,46.51,82.7,35.38Zm-3.43,36.8a7,7,0,0,1-.77.66,10.4,10.4,0,0,1-5.19,1.95v1.38a1.7,1.7,0,0,1-1.67,1.72h-.1a1.7,1.7,0,0,1-1.68-1.67V74.83a11.36,11.36,0,0,1-7.45-3.48,2.65,2.65,0,0,1,3.74-3.74,6.64,6.64,0,0,0,5.4,2,6.09,6.09,0,0,0,3.73-1,2.63,2.63,0,0,0,1-2.25c0-.53-.06-.91-.93-1.64a5,5,0,0,0-2.87-1.07l-3-.49A9.34,9.34,0,0,1,65,61.14a5.93,5.93,0,0,1-2-4.73,7.11,7.11,0,0,1,6.86-7.35V47.3a1.76,1.76,0,0,1,1.72-1.72,1.73,1.73,0,0,1,1.25.52,1.68,1.68,0,0,1,.47,1.22v1.94a10.9,10.9,0,0,1,5.36,2.49,2.66,2.66,0,0,1,.87,1.85,2.61,2.61,0,0,1-.69,1.89,2.75,2.75,0,0,1-2,.86,2.6,2.6,0,0,1-1.76-.68,6.68,6.68,0,0,0-4.43-1.36,2.26,2.26,0,0,0-2.39,2.08c0,1.07,1.1,1.45,2,1.59l3,.49a9.67,9.67,0,0,1,5.49,2.28,7,7,0,0,1,2.76,5.63A8,8,0,0,1,79.27,72.18Z"/><path class="cls-1" d="M89.31,18.53c-3.07-1.86-6.84,2.09-9.53,2s-4.82-4-7.9-3.86S67.58,20,65.11,20.52,56.49,16.25,54,18.94c-2,2.18,4.12,10.9,6.51,14.13H82.6C85.11,29.65,91.82,20.05,89.31,18.53Z"/><path class="cls-1" d="M177.4,124v6.66a59.68,59.68,0,0,1-2.22,14.81A53.9,53.9,0,0,0,173,159.43a2.21,2.21,0,0,1-2.22,2.22H144.09a2.21,2.21,0,0,1-2.22-2.22c0-3.45-1.6-5.43-4.07-8.39a54.44,54.44,0,0,1-4.44-6,94,94,0,0,1-8.76-17.64c-.86-3-.25-4.94.49-5.92a5.55,5.55,0,0,1,4.56-2.1c2.59,0,5.43,2.22,7.77,5.06V101.81a6.66,6.66,0,1,1,13.32,0v9.25a6.54,6.54,0,0,1,7.9,2.71,7.55,7.55,0,0,1,1.48-.62,6.54,6.54,0,0,1,8.14,4.69,5.52,5.52,0,0,1,2.47-.49A6.8,6.8,0,0,1,177.4,124Zm-4.32,6.66v-7.16a2.22,2.22,0,0,0-4.44,0v2.71a2.22,2.22,0,0,1-4.44,0v-7.16a2.22,2.22,0,0,0-4.44,0V124a2.22,2.22,0,0,1-4.44,0v-7.16a2.22,2.22,0,0,0-4.44,0v4.94a2.22,2.22,0,0,1-4.44,0V101.44h0a2.22,2.22,0,0,0-4.44,0v33.81a2.22,2.22,0,1,1-4.44,0V133.4c-2-5.06-6.29-9.5-7.77-9.5a.84.84,0,0,0-1,.49,2.72,2.72,0,0,0,0,2,90.5,90.5,0,0,0,8.39,16.53,58.15,58.15,0,0,0,4.07,5.55c2.34,2.84,4.32,5.31,4.94,9h22.33a75.46,75.46,0,0,1,2.22-12.83,52.81,52.81,0,0,0,2.1-13.82h.25Z"/><rect class="cls-1" x="106.62" y="120.61" width="1.93" height="3.46" transform="translate(-54.56 106.5) rotate(-43.09)"/><rect class="cls-1" x="88.89" y="101.65" width="1.93" height="3.46" transform="translate(-46.39 89.28) rotate(-43.09)"/><rect class="cls-1" x="100.71" y="114.29" width="1.93" height="3.46" transform="translate(-51.84 100.76) rotate(-43.09)"/><rect class="cls-1" x="82.98" y="95.34" width="1.93" height="3.46" transform="translate(-43.67 83.54) rotate(-43.09)"/><rect class="cls-1" x="94.8" y="107.97" width="1.93" height="3.46" transform="translate(-49.11 95.02) rotate(-43.09)"/><rect class="cls-1" x="190.21" y="121.37" width="3.46" height="1.93" transform="translate(-28.52 178.92) rotate(-46.91)"/><rect class="cls-1" x="207.94" y="102.42" width="3.46" height="1.93" transform="translate(-9.07 185.86) rotate(-46.91)"/><rect class="cls-1" x="196.12" y="115.05" width="3.46" height="1.93" transform="translate(-22.04 181.23) rotate(-46.91)"/><rect class="cls-1" x="213.85" y="96.1" width="3.46" height="1.93" transform="translate(-2.59 188.18) rotate(-46.91)"/><rect class="cls-1" x="202.03" y="108.73" width="3.46" height="1.93" transform="translate(-15.55 183.55) rotate(-46.91)"/></svg>