<svg xmlns="http://www.w3.org/2000/svg" viewBox="0 0 200 90"><defs><style>.cls-1{fill:#1e5748;}</style></defs><title>confidence</title><g id="ARTWORK"><path class="cls-1" d="M161.74,51.6a4.41,4.41,0,0,0-2.06-3.74,4.39,4.39,0,0,0-3.55-7l-14-.06a42,42,0,0,0,2.08-12.76,4.68,4.68,0,0,0-9.28-1l-.1.52a33,33,0,0,1-6.35,14.14,7.14,7.14,0,0,1-5.7,2.8,1.26,1.26,0,0,0-1.26,1.25l-.07,16.33a1.3,1.3,0,0,0,.36.89,18.3,18.3,0,0,0,13,5.45l18.52.08a4.5,4.5,0,0,0,4.55-4.24,4.36,4.36,0,0,0-.64-2.44,4.38,4.38,0,0,0,1.91-6.27A4.4,4.4,0,0,0,161.74,51.6Zm-13.16-8.22,7.54,0a1.88,1.88,0,0,1,0,3.77l-7.54,0a1.88,1.88,0,1,1,0-3.77ZM145.78,66l-10.91,0A15.79,15.79,0,0,1,124,61.59L124.07,47a9.65,9.65,0,0,0,6.44-3.7A35.55,35.55,0,0,0,137.34,28l.1-.52a2.18,2.18,0,0,1,2.4-1.76,2.26,2.26,0,0,1,1.9,2.3,39.53,39.53,0,0,1-2.08,12.37l-.42,1.25a1.26,1.26,0,0,0,1.18,1.66l4.2,0a4.37,4.37,0,0,0,.87,5,4.38,4.38,0,0,0,0,6.28,4.38,4.38,0,0,0,.73,6.87,4.36,4.36,0,0,0-.41,4.44Zm7.6,0-3.64,0a1.88,1.88,0,0,1,0-3.77l3.77,0a1.89,1.89,0,0,1,1.88,2A2,2,0,0,1,153.38,66Zm2-6.27-6.91,0a1.88,1.88,0,0,1,0-3.77l6.91,0a1.88,1.88,0,0,1,0,3.77Zm1.91-6.27-8.8,0a1.88,1.88,0,1,1,0-3.77l8.8,0a1.88,1.88,0,0,1,0,3.77Z"/><path class="cls-1" d="M62.74,74.42l-13,2L41,22.57,62.4,19.11V15.64L40.21,19.24a3.15,3.15,0,0,0-2.59,3.62l8.81,54.41A3.15,3.15,0,0,0,50,79.89L64.55,77.6C64.7,76.39,63.38,75.54,62.74,74.42Z"/><path class="cls-1" d="M55.37,25.71a6.73,6.73,0,1,0,6,7.36A6.68,6.68,0,0,0,55.37,25.71Zm2,9.25-.17.23a2.87,2.87,0,0,1-1.4.79l.07.4a.52.52,0,0,1-.41.58h0a.54.54,0,0,1-.58-.41l-.07-.4a3.61,3.61,0,0,1-2.3-.64.73.73,0,0,1-.17-1,1.09,1.09,0,0,1,1.09-.18,1.91,1.91,0,0,0,1.64.34,1.56,1.56,0,0,0,1-.47.66.66,0,0,0,.2-.64c0-.15,0-.25-.32-.41a1.21,1.21,0,0,0-.84-.17h-.92a2.67,2.67,0,0,1-1.34-.39A1.72,1.72,0,0,1,52,31.31a2.06,2.06,0,0,1,1.59-2.4l-.08-.5a.54.54,0,0,1,.41-.58.52.52,0,0,1,.58.41l.09.55a3.18,3.18,0,0,1,1.65.44.81.81,0,0,1,.34.5.76.76,0,0,1-.11.58.81.81,0,0,1-.5.34.65.65,0,0,1-.53-.12,1.88,1.88,0,0,0-1.31-.19.66.66,0,0,0-.6.71c0,.3.36.35.62.36H55a2.78,2.78,0,0,1,1.64.39,2,2,0,0,1,1.06,1.46A2.33,2.33,0,0,1,57.37,35Z"/><path class="cls-1" d="M53.6,59a1.5,1.5,0,0,1-.24-3l9-1.49a1.5,1.5,0,1,1,.49,3l-9,1.49Z"/><path class="cls-1" d="M51.93,50.94A1.47,1.47,0,0,1,51.69,48l10.4-1.73a1.47,1.47,0,1,1,.48,2.91l-10.4,1.73Z"/><path class="cls-1" d="M55,67.61a1.5,1.5,0,0,1-.24-3l7.54-1.25a1.5,1.5,0,1,1,.49,3l-7.54,1.25Z"/><path class="cls-1" d="M110.64,22.39l-9.23-9.2,0,0-.08-.08-1.93-1.92a1.87,1.87,0,0,0-1.32-.55H64a3.45,3.45,0,0,0-3.43,3.46V74.36A3.45,3.45,0,0,0,64,77.82l43.73.17a3.45,3.45,0,0,0,3.43-3.46V25.87a1.87,1.87,0,0,0,0-.55v-1.6A1.87,1.87,0,0,0,110.64,22.39Zm-3.19,51.86-43.09-.17V14.35H94.31v9a4.13,4.13,0,0,0,4.12,4.12h9Z"/><path class="cls-1" d="M79.38,20.22a7.36,7.36,0,1,0,5.17,9A7.31,7.31,0,0,0,79.38,20.22Zm.49,10.34-.22.22a3.14,3.14,0,0,1-1.65.6v.44a.56.56,0,0,1-.55.55H77.4a.59.59,0,0,1-.55-.55v-.44a3.94,3.94,0,0,1-2.36-1.1.8.8,0,0,1,0-1.15,1.19,1.19,0,0,1,1.21,0,2.09,2.09,0,0,0,1.7.66,1.7,1.7,0,0,0,1.15-.33.72.72,0,0,0,.33-.66c0-.16,0-.27-.27-.49a1.33,1.33,0,0,0-.88-.33l-1-.16a2.92,2.92,0,0,1-1.37-.66,1.88,1.88,0,0,1-.6-1.48,2.25,2.25,0,0,1,2.14-2.31v-.55a.59.59,0,0,1,.55-.55.56.56,0,0,1,.55.55v.6a3.48,3.48,0,0,1,1.7.77.88.88,0,0,1,.27.6.83.83,0,0,1-.22.6.88.88,0,0,1-.6.27.71.71,0,0,1-.55-.22A2.06,2.06,0,0,0,77.23,25a.73.73,0,0,0-.77.66c0,.33.33.44.6.49l.93.16a3,3,0,0,1,1.7.71,2.14,2.14,0,0,1,.88,1.76A2.54,2.54,0,0,1,79.87,30.56Z"/><path class="cls-1" d="M101,56.48h0L71.91,56.3a1.5,1.5,0,0,1,0-3h0l29.08.18a1.5,1.5,0,0,1,0,3Z"/><path class="cls-1" d="M101,65.28h0l-29.08-.18a1.5,1.5,0,0,1,0-3h0l29.08.18a1.5,1.5,0,0,1,0,3Z"/><path class="cls-1" d="M88.41,48.13h0L72,47.88a1.47,1.47,0,0,1,0-2.95h0l16.42.25a1.47,1.47,0,0,1,0,2.95Z"/></g></svg>