<svg xmlns="http://www.w3.org/2000/svg" viewBox="0 0 200 89"><defs><style>.cls-1{fill:#1e5748;}</style></defs><title>connectWithAMortgageSpecialist</title><g id="ARTWORK"><path class="cls-1" d="M118.7,61.2l-17.1-6.6a21.73,21.73,0,0,0-7.1-1.3H83.6a24.71,24.71,0,0,0-7.1,1.3L59.4,61.2a7.26,7.26,0,0,0-4.3,6.3v7a5.34,5.34,0,0,0,5.3,5.3h57.4a5.34,5.34,0,0,0,5.3-5.3h0v-7A7.19,7.19,0,0,0,118.7,61.2Zm.4,13.4a1.32,1.32,0,0,1-1.3,1.3H60.4a1.32,1.32,0,0,1-1.3-1.3h0v-7A3.28,3.28,0,0,1,60.9,65L78,58.4a21.25,21.25,0,0,1,5.6-1H94.5a21.25,21.25,0,0,1,5.6,1L117.2,65h0a3.28,3.28,0,0,1,1.8,2.6v7Z"/><path class="cls-1" d="M89.1,51.3a15.48,15.48,0,0,0,13.6-7.7,27.45,27.45,0,0,0,4-14.2C106.7,17,100.3,10,89.1,10c-11,0-17.6,7.3-17.6,19.4C71.5,40,77,51.3,89.1,51.3Zm5-36.6a11.1,11.1,0,0,1,7.4,7.2A22.56,22.56,0,0,1,93,17c.6-1.2,1-2.1,1.1-2.3ZM75.5,29.4C75.5,16,84,14,89.1,14c1,0,2,.1,3,.2-1.2,2.4-7.2,13.9-16.5,15.5C75.6,29.6,75.5,29.5,75.5,29.4ZM91.9,18.7a23.44,23.44,0,0,0,10.2,5.4,23.25,23.25,0,0,1,.5,5.3c0,7.2-3.6,17.9-13.6,17.9-9.5,0-12.8-8.9-13.4-15.5C83.5,30.6,89,23.4,91.9,18.7Z"/><path class="cls-1" d="M141.8,16H121.2a8.24,8.24,0,0,0-8.2,8.2h0V53h28.8a8.24,8.24,0,0,0,8.2-8.2h0V24.2A8.24,8.24,0,0,0,141.8,16Zm-.5,17.9V46.4a.58.58,0,0,1-.6.6H122.4a.67.67,0,0,1-.7-.6V33.9h-3.3l11.8-11.7a.78.78,0,0,1,.4-.4,1.6,1.6,0,0,1,2.2.4l5.3,5.2V24.1a.68.68,0,0,1,.7-.7h2c.4,0,.6.3.6.7v6.5l3.3,3.3Z"/><path class="cls-1" d="M131.5,24.7,123,33.1V45.7h17V32.9Zm2.9,15.8a4.3,4.3,0,0,1-2.3,1v.6a.67.67,0,0,1-.7.6h-.1a.65.65,0,0,1-.6-.6v-.5a5.15,5.15,0,0,1-2.9-1.3,1,1,0,0,1,1.4-1.4,2.65,2.65,0,0,0,2.1.8,2.3,2.3,0,0,0,1.4-.4,1,1,0,0,0,.4-.9,1.33,1.33,0,0,0-1.5-1,6.3,6.3,0,0,1-2.9-1,2.5,2.5,0,0,1-.8-1.8,2.63,2.63,0,0,1,2.6-2.8v-.7h0a.56.56,0,0,1,.7-.6h.1a.54.54,0,0,1,.5.7v.7a4.12,4.12,0,0,1,2.1,1,1.07,1.07,0,0,1,.1,1.4h0a1,1,0,0,1-1.4,0,2.16,2.16,0,0,0-1.7-.5.82.82,0,0,0-.9.8.76.76,0,0,0,.8.6l1.1.2a4,4,0,0,1,2.1.9,2.66,2.66,0,0,1,1.1,2.2A2.11,2.11,0,0,1,134.4,40.5Z"/></g></svg>