<svg xmlns="http://www.w3.org/2000/svg" viewBox="0 0 200 90"><defs><style>.cls-1{fill:#1e5748;}</style></defs><title>contribute5500</title><g id="ARTWORK"><path class="cls-1" d="M175.37,17h-9.72v4.07a3.49,3.49,0,1,1-5,0V17H125.54v4.07a3.49,3.49,0,1,1-5,0V17h-9.95a5,5,0,0,0-5,5V74.8a5,5,0,0,0,5,5h64.8a5,5,0,0,0,5-5V22A5,5,0,0,0,175.37,17Zm1,56.82a2,2,0,0,1-2,2h-62.8a2,2,0,0,1-2-2V30.94h66.79Z"/><rect class="cls-1" x="161.62" y="10.13" width="3.03" height="14.71" rx="1.32" ry="1.32"/><rect class="cls-1" x="121.52" y="10.13" width="3.03" height="14.71" rx="1.32" ry="1.32"/><path class="cls-1" d="M116,71.29h13.39a1,1,0,0,0,1-1V57.91a1,1,0,0,0-1-1H116a1,1,0,0,0-1,1V70.26A1,1,0,0,0,116,71.29Zm0-13.39h13.39V70.26H116Z"/><path class="cls-1" d="M136.56,71.29h13.39a1,1,0,0,0,1-1V57.91a1,1,0,0,0-1-1H136.56a1,1,0,0,0-1,1V70.26A1,1,0,0,0,136.56,71.29Zm0-13.39h13.39V70.26H136.56Z"/><path class="cls-1" d="M116,51.73h13.39a1,1,0,0,0,1-1V38.34a1,1,0,0,0-1-1H116a1,1,0,0,0-1,1V50.7A1,1,0,0,0,116,51.73Zm0-13.39h13.39V50.7H116Z"/><path class="cls-1" d="M136.56,51.73h13.39a1,1,0,0,0,1-1V38.34a1,1,0,0,0-1-1H136.56a1,1,0,0,0-1,1V50.7A1,1,0,0,0,136.56,51.73Zm0-13.39h13.39V50.7H136.56Z"/><path class="cls-1" d="M157.16,51.73h13.39a1,1,0,0,0,1-1V38.34a1,1,0,0,0-1-1H157.16a1,1,0,0,0-1,1V50.7A1,1,0,0,0,157.16,51.73Zm0-13.39h13.39V50.7H157.16Z"/><path class="cls-1" d="M157.16,71.29h13.39a1,1,0,0,0,1-1V57.91a1,1,0,0,0-1-1H157.16a1,1,0,0,0-1,1V70.26A1,1,0,0,0,157.16,71.29Zm0-13.39h13.39V70.26H157.16Z"/><rect class="cls-1" x="115.51" y="38.06" width="14.31" height="13.1"/><path class="cls-1" d="M74.72,25.64V51.55H21.8V25.64H74.72m.93-2.8H20.87A1.87,1.87,0,0,0,19,24.71V52.48a1.87,1.87,0,0,0,1.87,1.87H75.66a1.87,1.87,0,0,0,1.87-1.87V24.71a1.87,1.87,0,0,0-1.87-1.87Z"/><path class="cls-1" d="M74.72,25.79V51.7H21.8V25.79H74.72m.93-2.8H20.87A1.87,1.87,0,0,0,19,24.85V52.63a1.87,1.87,0,0,0,1.87,1.87H75.66a1.87,1.87,0,0,0,1.87-1.87V24.85A1.87,1.87,0,0,0,75.66,23Z"/><path class="cls-1" d="M35.77,36.58h-2.9V36.1a3.14,3.14,0,0,0-.1-1,.42.42,0,0,0-.43-.24.44.44,0,0,0-.4.2,1.14,1.14,0,0,0-.13.61,1.33,1.33,0,0,0,.27,1,10.65,10.65,0,0,0,1.57,1.06,11.64,11.64,0,0,1,1.51,1,2.76,2.76,0,0,1,.68,1,4.15,4.15,0,0,1,.28,1.62,3.65,3.65,0,0,1-.75,2.43,3.42,3.42,0,0,1-2.24,1.09V46H31.79V44.83a3.48,3.48,0,0,1-2-.89,3.53,3.53,0,0,1-.87-2.72v-.57h2.9v.71a6.71,6.71,0,0,0,.09,1.45.4.4,0,0,0,.43.28.51.51,0,0,0,.44-.2,1,1,0,0,0,.14-.59,5,5,0,0,0-.14-1.4,2.06,2.06,0,0,0-.93-.92A20.27,20.27,0,0,1,30,38.78a3.24,3.24,0,0,1-.83-1.1,3.61,3.61,0,0,1-.35-1.61,2.76,2.76,0,0,1,.74-2,3.61,3.61,0,0,1,2.21-.91v-.93h1.34v.93a3.17,3.17,0,0,1,2,.9,2.87,2.87,0,0,1,.67,2Q35.8,36.21,35.77,36.58Z"/><path class="cls-1" d="M43.36,33.19V35h-3.6v2a2.17,2.17,0,0,1,1.74-.8,2.33,2.33,0,0,1,1.81.67,3.94,3.94,0,0,1,.61,2.58v1.66a9.94,9.94,0,0,1-.12,1.81A2.53,2.53,0,0,1,43.3,44a2.43,2.43,0,0,1-1.08.75,4.8,4.8,0,0,1-1.69.26,4.7,4.7,0,0,1-2-.39,2.36,2.36,0,0,1-1.21-1.17,6,6,0,0,1-.36-2.4v-.63h2.9v.73a11.11,11.11,0,0,0,.08,1.6.5.5,0,0,0,.55.47.48.48,0,0,0,.49-.43q0-.16,0-1.37V39.14a2,2,0,0,0-.14-.89.48.48,0,0,0-.45-.24.49.49,0,0,0-.34.12.56.56,0,0,0-.18.26,3.16,3.16,0,0,0,0,.65H37l.12-5.86Z"/><path class="cls-1" d="M51.25,33.19V35h-3.6v2a2.17,2.17,0,0,1,1.74-.8,2.33,2.33,0,0,1,1.81.67,3.94,3.94,0,0,1,.61,2.58v1.66a9.94,9.94,0,0,1-.12,1.81A2.53,2.53,0,0,1,51.19,44a2.43,2.43,0,0,1-1.08.75,4.8,4.8,0,0,1-1.69.26,4.7,4.7,0,0,1-2-.39,2.36,2.36,0,0,1-1.21-1.17,6,6,0,0,1-.36-2.4v-.63h2.9v.73a11.11,11.11,0,0,0,.08,1.6.5.5,0,0,0,.55.47.48.48,0,0,0,.49-.43q0-.16,0-1.37V39.14a2,2,0,0,0-.14-.89.48.48,0,0,0-.45-.24.49.49,0,0,0-.34.12.56.56,0,0,0-.18.26,3.16,3.16,0,0,0,0,.65H44.9L45,33.19Z"/><path class="cls-1" d="M59.65,37.12V41a9.18,9.18,0,0,1-.14,1.92,2.66,2.66,0,0,1-.6,1.13,2.57,2.57,0,0,1-1.09.75,4.2,4.2,0,0,1-1.43.23,5.32,5.32,0,0,1-1.73-.24,2.37,2.37,0,0,1-1.1-.75A3.21,3.21,0,0,1,53,43a6.7,6.7,0,0,1-.17-1.79V37.12a7.79,7.79,0,0,1,.28-2.4,2.37,2.37,0,0,1,1.1-1.28,3.88,3.88,0,0,1,2-.48,4.18,4.18,0,0,1,1.71.33,2.85,2.85,0,0,1,1.13.82,2.69,2.69,0,0,1,.51,1.08A9.91,9.91,0,0,1,59.65,37.12Zm-2.9-1A4.34,4.34,0,0,0,56.66,35a.4.4,0,0,0-.42-.23.42.42,0,0,0-.43.25,3.78,3.78,0,0,0-.1,1.15v5.67A4.21,4.21,0,0,0,55.8,43a.41.41,0,0,0,.42.21.41.41,0,0,0,.42-.24,3.64,3.64,0,0,0,.1-1.1Z"/><path class="cls-1" d="M67.54,37.12V41a9.18,9.18,0,0,1-.14,1.92,2.66,2.66,0,0,1-.6,1.13,2.57,2.57,0,0,1-1.09.75,4.2,4.2,0,0,1-1.43.23,5.32,5.32,0,0,1-1.73-.24,2.37,2.37,0,0,1-1.1-.75A3.21,3.21,0,0,1,60.86,43a6.7,6.7,0,0,1-.17-1.79V37.12a7.79,7.79,0,0,1,.28-2.4,2.37,2.37,0,0,1,1.1-1.28,3.88,3.88,0,0,1,2-.48,4.18,4.18,0,0,1,1.71.33,2.85,2.85,0,0,1,1.13.82,2.69,2.69,0,0,1,.51,1.08A9.91,9.91,0,0,1,67.54,37.12Zm-2.9-1A4.34,4.34,0,0,0,64.54,35a.4.4,0,0,0-.42-.23.42.42,0,0,0-.43.25,3.78,3.78,0,0,0-.1,1.15v5.67a4.21,4.21,0,0,0,.1,1.22.41.41,0,0,0,.42.21.41.41,0,0,0,.42-.24,3.64,3.64,0,0,0,.1-1.1Z"/><path class="cls-1" d="M100.11,41.38l-1.76-4.85a1.14,1.14,0,1,0-2.14.78l.67,1.85a16.5,16.5,0,0,0-13.45-1.09,1.14,1.14,0,0,0,.84,2.12,14,14,0,0,1,12.16,1.35l-2.83,1.07a1.14,1.14,0,1,0,.81,2.13l5-1.9A1.14,1.14,0,0,0,100.11,41.38Z"/></g></svg>