<svg xmlns="http://www.w3.org/2000/svg" viewBox="0 0 200 90"><defs><style>.cls-1{fill:#1f5748;}</style></defs><title>contributeToFuture</title><g id="Contribute_to_your_future" data-name="Contribute to your future"><path class="cls-1" d="M168.42,25.48H151.93V21.8a6,6,0,0,0-6-6H132.75a6,6,0,0,0-6,6v3.68H110.31a2.59,2.59,0,0,0-2.58,2.58V71.42A2.59,2.59,0,0,0,110.31,74h58.11A2.59,2.59,0,0,0,171,71.42V28.07A2.59,2.59,0,0,0,168.42,25.48ZM130.77,21.8a2,2,0,0,1,2-2H146a2,2,0,0,1,2,2v3.68h-17.2Zm-.12,40.64h-5.23V51.51l5.23-4Zm10.55,0-5.26,0V46.78l5.26,1.57Zm10.56-.06-5.25,0V47.14l5.25-5.25Zm3.49-22.26a1.21,1.21,0,0,1-2.42,0s0,0,0,0V37.61L144,46.45a1.36,1.36,0,0,1-1.5.19l-10-3.33-10.39,8.08a1.21,1.21,0,0,1-1.63-1.79l.15-.12L131.5,41a1.18,1.18,0,0,1,1.34-.11l10,3.31,8.31-8.29h-2.52a1.22,1.22,0,0,1-.34-2.42H154a1.21,1.21,0,0,1,1.21,1.21Z"/><path class="cls-1" d="M98.34,43.92a2.4,2.4,0,0,0-1.67-.7h-3a28.68,28.68,0,0,0-5.22-8.9c1.19-2.21,2.06-5.06,1.64-6.58a1.93,1.93,0,0,0-1-1.27c-2.28-1.08-4.49.06-9.11,2.64a24.24,24.24,0,0,0-4.2-1,7.2,7.2,0,1,0-14-.09A27.24,27.24,0,0,0,51.82,32a20.76,20.76,0,0,0-9,19,8.44,8.44,0,0,1-3.23-.55,5.67,5.67,0,0,0,1.81-4,4.21,4.21,0,0,0-4.3-4.4,4.26,4.26,0,0,0-4.34,4.4,5.88,5.88,0,0,0,1.6,3.89,6.29,6.29,0,0,1-2.83.45,1.44,1.44,0,0,0-.43,2.85,10.29,10.29,0,0,0,5.81-1.29,11.67,11.67,0,0,0,5.59,1.5c.24,0,.48,0,.72,0a32.09,32.09,0,0,0,2.91,7c1.39,2.65,3.27,6,4.91,8.66.26.43.8,1.25,1.27,2l.63.95A3.59,3.59,0,0,0,55.83,74h6a2.36,2.36,0,0,0,1.66-.7,2.32,2.32,0,0,0,.68-1.66v-3.7a36.62,36.62,0,0,0,6.16.2l1.2,3.78.05.14a3.1,3.1,0,0,0,1.2,1.4,3.19,3.19,0,0,0,1.78.54h6.3a2.36,2.36,0,0,0,1.65-.7,2.32,2.32,0,0,0,.68-1.66V65.49c4-1.16,8.65-4.27,10.61-9l3.39-1.74a3.14,3.14,0,0,0,1.37-1.23A3.33,3.33,0,0,0,99,51.86V45.58A2.33,2.33,0,0,0,98.34,43.92ZM37.19,48.73l-.18.15a3.53,3.53,0,0,1-1.34-2.44,1.4,1.4,0,0,1,1.46-1.52,1.47,1.47,0,0,1,1,.36,1.51,1.51,0,0,1,.43,1.17A3.45,3.45,0,0,1,37.19,48.73Zm59,3.13a.44.44,0,0,1,0,.21s0,.06-.17.12l-3.93,2a1.44,1.44,0,0,0-.69.79c-1.54,4.23-6.12,7.2-9.84,8a1.44,1.44,0,0,0-1.16,1.41v6.76H74.54a.38.38,0,0,1-.21-.08.32.32,0,0,1-.1-.09l-1-3.29a31.35,31.35,0,0,0,3.14-.73,1.44,1.44,0,0,0-.8-2.76,27.22,27.22,0,0,1-8.36,1.12c-.65,0-1.29-.07-1.89-.13A17.27,17.27,0,0,1,58,62.9a1.44,1.44,0,1,0-1.57,2.41,17.32,17.32,0,0,0,4.86,2v3.8h-5.4a.78.78,0,0,1-.48-.37l-.65-1c-.44-.67-1-1.44-1.21-1.84-1.61-2.65-3.45-5.91-4.82-8.51S46,54,45.74,51.29c-.58-7.06,2.17-13.08,7.72-17A24.74,24.74,0,0,1,63,30.74a7.2,7.2,0,0,0,2.61,2.18h-4a.72.72,0,1,0,0,1.44H76a.72.72,0,0,0,0-1.44H72a7.19,7.19,0,0,0,2.52-2.08A19.46,19.46,0,0,1,79.38,32a1.44,1.44,0,0,0,1.39,0c3.76-2.11,5.53-3,6.57-3a12.59,12.59,0,0,1-1.88,4.81,1.44,1.44,0,0,0,.26,1.88c2.93,2.55,4.91,7.49,5.63,9.49a1.44,1.44,0,0,0,1.36,1h3.45Z"/><path class="cls-1" d="M85.19,43.91a2.16,2.16,0,1,0,2.16,2.16A2.15,2.15,0,0,0,85.19,43.91Z"/></g></svg>