<svg xmlns="http://www.w3.org/2000/svg" viewBox="0 0 200 90"><defs><style>.cls-1{fill:#1e5748;}</style></defs><title>TDpublic_illustrations_200x90_01_Accounts</title><g id="ARTWORK"><g id="Layer_25" data-name="Layer 25"><path class="cls-1" d="M104.93,39.84h62.64V70.51H104.93V39.84m-1.1-3.31a2.21,2.21,0,0,0-2.21,2.21V71.62a2.21,2.21,0,0,0,2.21,2.21h64.84a2.21,2.21,0,0,0,2.21-2.21V38.74a2.21,2.21,0,0,0-2.21-2.21Z"/><path class="cls-1" d="M104.93,40h62.64V70.69H104.93V40m-1.1-3.31a2.21,2.21,0,0,0-2.21,2.21V71.79A2.21,2.21,0,0,0,103.82,74h64.84a2.21,2.21,0,0,0,2.21-2.21V38.91a2.21,2.21,0,0,0-2.21-2.21Z"/><path class="cls-1" d="M97,65.29h5.55V62H97a.59.59,0,0,1-.59-.59V30.79A.59.59,0,0,1,97,30.2h60.67a.59.59,0,0,1,.59.59v6.57h3.31V30.79a3.91,3.91,0,0,0-3.9-3.9H97a3.91,3.91,0,0,0-3.9,3.9v30.6A3.91,3.91,0,0,0,97,65.29Z"/><path class="cls-1" d="M89.32,18a3.91,3.91,0,0,0-3.9,3.9V52.5a3.91,3.91,0,0,0,3.9,3.9h5.55V53.09H89.32a.59.59,0,0,1-.59-.59V21.9a.59.59,0,0,1,.59-.59H150a.59.59,0,0,1,.59.59v6.57h3.31V21.9A3.91,3.91,0,0,0,150,18"/><path class="cls-1" d="M141,54.54a6.35,6.35,0,0,0-3.61-1.5l-2-.32c-.59-.09-1.31-.34-1.31-1a1.48,1.48,0,0,1,1.57-1.37,4.39,4.39,0,0,1,2.91.9,1.71,1.71,0,0,0,1.16.45,1.81,1.81,0,0,0,1.3-.56,1.72,1.72,0,0,0,.45-1.25,1.75,1.75,0,0,0-.57-1.22A7.16,7.16,0,0,0,137.38,47V45.7a1.1,1.1,0,0,0-.31-.8,1.14,1.14,0,0,0-.82-.34,1.16,1.16,0,0,0-1.13,1.13v1.15a4.67,4.67,0,0,0-4.51,4.83,3.9,3.9,0,0,0,1.31,3.11,6.14,6.14,0,0,0,2.91,1.36l2,.32a3.27,3.27,0,0,1,1.88.7c.57.48.61.73.61,1.08a1.73,1.73,0,0,1-.65,1.48,4,4,0,0,1-2.45.64A4.36,4.36,0,0,1,132.67,59a1.74,1.74,0,0,0-2.46,2.46,7.47,7.47,0,0,0,4.9,2.29v.91a1.12,1.12,0,0,0,1.1,1.1h.07a1.12,1.12,0,0,0,1.1-1.13v-.91a6.84,6.84,0,0,0,3.41-1.28,4.62,4.62,0,0,0,.51-.44,5.25,5.25,0,0,0,1.49-3.8A4.6,4.6,0,0,0,141,54.54Z"/><path class="cls-1" d="M74.29,64.52H61.42a1.23,1.23,0,0,1,0-2.46H74.29a1.23,1.23,0,1,1,0,2.46Z"/><path class="cls-1" d="M74.32,40.32H39.52a1.23,1.23,0,0,1,0-2.46h34.8a1.23,1.23,0,0,1,0,2.46Z"/><path class="cls-1" d="M74.7,28.16H30.79a1.23,1.23,0,1,1,0-2.46H74.7a1.23,1.23,0,1,1,0,2.46Z"/><path class="cls-1" d="M74.29,52.22H52.81a1.23,1.23,0,0,1,0-2.46H74.29a1.23,1.23,0,0,1,0,2.46Z"/></g></g></svg>