<svg xmlns="http://www.w3.org/2000/svg" viewBox="0 0 200 90"><defs><style>.cls-1{fill:#1e5748;}</style></defs><title>convenience</title><g id="ARTWORK"><path class="cls-1" d="M81,33.84A6,6,0,0,0,73.09,31a5.86,5.86,0,0,0-1.8,1.33,6.34,6.34,0,0,0-.51.65,4.66,4.66,0,0,0-.4.68,5.8,5.8,0,0,0-.54,1.53c0,.15-.06.31-.08.46s0,.32,0,.47A5.83,5.83,0,0,0,70.3,39a6,6,0,0,0,7.93,2.8l.25-.13.36-.21,0,0,.39-.27.22-.18a6.37,6.37,0,0,0,.59-.57A6,6,0,0,0,81,33.84Zm-2.82,3.92a.06.06,0,0,1,0,0,.72.72,0,0,1-.09.2l-.1.18a2.16,2.16,0,0,1-.27.33,2.73,2.73,0,0,1-.45.36l.12.23a.45.45,0,0,1,0,.32.45.45,0,0,1-.21.24h0a.41.41,0,0,1-.54-.19l-.12-.24a2.46,2.46,0,0,1-1.77,0,.61.61,0,0,1-.38-.79.63.63,0,0,1,.31-.35.61.61,0,0,1,.48,0A1.42,1.42,0,0,0,76.39,38a1.33,1.33,0,0,0,.61-.5v0a.53.53,0,0,0,0-.5c0-.09-.07-.15-.31-.21a.81.81,0,0,0-.44,0l-.2,0L75.4,37a2.08,2.08,0,0,1-1.08,0,1.37,1.37,0,0,1-.87-.76,1.83,1.83,0,0,1-.16-.74,1.37,1.37,0,0,1,0-.4,1.34,1.34,0,0,1,.16-.37,1.64,1.64,0,0,1,.59-.61l-.15-.31a.43.43,0,0,1,.2-.56.42.42,0,0,1,.33,0,.39.39,0,0,1,.23.21l.17.35a2.38,2.38,0,0,1,1.27,0,.63.63,0,0,1,.42.77.71.71,0,0,1-.33.39.67.67,0,0,1-.44,0,1.35,1.35,0,0,0-.88.11l-.09,0h0a.55.55,0,0,0-.28.26.37.37,0,0,0,0,.32.27.27,0,0,0,.07.11.86.86,0,0,0,.42,0l.3-.08.33-.1.22-.06a2.06,2.06,0,0,1,1.1,0,1.55,1.55,0,0,1,1.09.87A1.75,1.75,0,0,1,78.21,37.76Z"/><path class="cls-1" d="M108.57,15.4a8.83,8.83,0,0,0-14.3-3.16,7.83,7.83,0,0,0-.83.9,8,8,0,0,0-.67,1,9.22,9.22,0,0,0-1,2.21c-.06.23-.12.45-.16.68s-.08.46-.11.7a8.75,8.75,0,0,0,.56,4.23,8.87,8.87,0,0,0,11.49,5l.38-.17c.19-.09.38-.17.56-.27l.06,0c.21-.11.41-.23.61-.36a4.15,4.15,0,0,0,.34-.24,8.73,8.73,0,0,0,.93-.78A8.87,8.87,0,0,0,108.57,15.4ZM104,20.94l0,0a2.1,2.1,0,0,1-.15.3c0,.08-.12.17-.18.25a3.09,3.09,0,0,1-.43.46,4,4,0,0,1-.7.49l.15.36a.66.66,0,0,1,0,.48.64.64,0,0,1-.33.32h0a.62.62,0,0,1-.78-.33l-.14-.37a3.76,3.76,0,0,1-2.64-.18.92.92,0,0,1-.48-1.21.91.91,0,0,1,.5-.48,1,1,0,0,1,.71,0,2.06,2.06,0,0,0,1.81,0,2,2,0,0,0,.95-.68l0,0a.77.77,0,0,0,0-.74c0-.13-.09-.23-.43-.34a1.19,1.19,0,0,0-.66,0l-.3.06-1,.21a3.06,3.06,0,0,1-1.62-.09,2,2,0,0,1-1.2-1.22,2.43,2.43,0,0,1-.17-1.11A2.21,2.21,0,0,1,97,16.5,2.38,2.38,0,0,1,97.3,16a2.48,2.48,0,0,1,.94-.84l-.18-.47a.62.62,0,0,1,.34-.81.64.64,0,0,1,.49,0,.61.61,0,0,1,.32.35l.21.53a3.49,3.49,0,0,1,1.89.12.92.92,0,0,1,.54,1.19,1,1,0,0,1-.53.53.91.91,0,0,1-.65,0,2,2,0,0,0-1.32.08l-.13,0h0a.81.81,0,0,0-.44.35.54.54,0,0,0,0,.48.42.42,0,0,0,.1.17,1.28,1.28,0,0,0,.61,0l.45-.1.51-.11.33-.06a3.05,3.05,0,0,1,1.63.09,2.37,2.37,0,0,1,1.54,1.4A2.69,2.69,0,0,1,104,20.94Z"/><path class="cls-1" d="M119.59,74.72a19.42,19.42,0,0,0,7.93-9.54C116.2,70.63,108,72.9,95.52,74A86.18,86.18,0,0,0,119.59,74.72Z"/><path class="cls-1" d="M87.34,74.46c-1.85.08-3.79.15-5.84.21A34.74,34.74,0,0,0,100.56,80,36.45,36.45,0,0,0,115,77.17,81.87,81.87,0,0,1,87.34,74.46Z"/><path class="cls-1" d="M76,69.8a23,23,0,0,0,3.52,3.44c1.16,0,2.53,0,4.07,0A53.88,53.88,0,0,1,76,69.8Z"/><path class="cls-1" d="M104.33,51.18a5.37,5.37,0,0,0-3-1.27l-1.66-.27c-.5-.08-1.11-.29-1.11-.88a1.26,1.26,0,0,1,1.33-1.16,3.73,3.73,0,0,1,2.46.76,1.46,1.46,0,0,0,1,.37,1.55,1.55,0,0,0,1.1-.47,1.51,1.51,0,0,0,.38-1.06,1.44,1.44,0,0,0-.49-1,6,6,0,0,0-3-1.39V43.71A.89.89,0,0,0,101,43a.94.94,0,0,0-.69-.29,1,1,0,0,0-1,1v1a4,4,0,0,0-3.81,4.08,3.33,3.33,0,0,0,1.11,2.63,5.18,5.18,0,0,0,2.47,1.15l1.68.27a2.74,2.74,0,0,1,1.59.6c.48.4.52.61.52.91a1.47,1.47,0,0,1-.55,1.25,3.41,3.41,0,0,1-2.07.53,3.7,3.7,0,0,1-3-1.12,1.47,1.47,0,0,0-1-.43,1.5,1.5,0,0,0-1,.43,1.47,1.47,0,0,0,0,2.08A6.29,6.29,0,0,0,99.38,59v.78a.94.94,0,0,0,.94.92h.05a.92.92,0,0,0,.93-.95V59a5.78,5.78,0,0,0,2.89-1.08l.43-.37a4.46,4.46,0,0,0,1.26-3.21A3.89,3.89,0,0,0,104.33,51.18Z"/><path class="cls-1" d="M129.51,39.82a10.76,10.76,0,0,0-6.77-13.61,10.93,10.93,0,0,0-4-.53,10.51,10.51,0,0,0-1.48.19,10.64,10.64,0,0,0-1.37.37,11.08,11.08,0,0,0-2.62,1.31c-.23.16-.46.33-.68.51s-.44.36-.65.56a10.74,10.74,0,0,0,4,18l.49.14.72.18.08,0c.29.05.57.11.86.14l.5,0a12.19,12.19,0,0,0,1.48,0A10.76,10.76,0,0,0,129.51,39.82Zm-8.59,1.55,0,0-.38.16c-.12,0-.24.06-.36.09a3.86,3.86,0,0,1-.77.09,4.5,4.5,0,0,1-1-.09l-.15.45a.76.76,0,0,1-.38.44.73.73,0,0,1-.56,0h0a.75.75,0,0,1-.46-.93l.15-.45A4.56,4.56,0,0,1,114.59,39a1.12,1.12,0,0,1,.5-1.5,1.14,1.14,0,0,1,.85-.06,1.12,1.12,0,0,1,.65.56,2.55,2.55,0,0,0,1.71,1.39,2.41,2.41,0,0,0,1.42.11h0a1,1,0,0,0,.6-.67c0-.16.09-.28-.14-.66a1.46,1.46,0,0,0-.58-.55l-.32-.17-1.07-.57a3.76,3.76,0,0,1-1.42-1.35,2.41,2.41,0,0,1-.16-2.07,2.84,2.84,0,0,1,.71-1.16,3,3,0,0,1,.56-.46,3,3,0,0,1,2.22-.33l.2-.59a.75.75,0,0,1,1-.47.68.68,0,0,1,.44.39.71.71,0,0,1,0,.57l-.22.66a4.27,4.27,0,0,1,1.66,1.6,1.12,1.12,0,0,1-.43,1.52,1.14,1.14,0,0,1-.9.08,1.12,1.12,0,0,1-.62-.51,2.44,2.44,0,0,0-1.28-1l-.15-.06h0a1,1,0,0,0-.68,0,.69.69,0,0,0-.37.45.59.59,0,0,0-.05.24,1.62,1.62,0,0,0,.55.51l.5.26.56.3a4,4,0,0,1,.35.2A3.65,3.65,0,0,1,122.14,37a2.84,2.84,0,0,1,.33,2.51A3.25,3.25,0,0,1,120.92,41.37Z"/><path class="cls-1" d="M117.51,51.39c-.07-.55-.27-1.59-.27-1.59a9.41,9.41,0,0,1-1.78-.31c-.85-.24-1.67-.57-1.67-.57a35.2,35.2,0,0,1,.76,5.26c0,5.07-1.43,9.08-3.78,11.86-.84.73-6.09,1.42-10.12,1.42s-9.62-.59-10-1.26c-2.44-2.79-3.92-6.85-3.92-12,0-9.74,8.4-20.71,13.89-20.71A7.67,7.67,0,0,1,105,35.2a7.16,7.16,0,0,1,.9.87,17.5,17.5,0,0,1,.75-3.52,6.86,6.86,0,0,0-.6-.38,13.54,13.54,0,0,0-2-1.07l-.11-.05h0a8.48,8.48,0,0,0-3.28-.73c-6.84,0-15.5,10.59-16.85,21.09-7,1.7-11.2,4.86-11.2,10a10.92,10.92,0,0,0,.65,3.63A61.12,61.12,0,0,0,91,72.94c10.81-.72,25.26-3,37.08-10.16a10.24,10.24,0,0,0,.08-1.36C128.16,56.14,124.21,53,117.51,51.39Z"/></g></svg>