<svg xmlns="http://www.w3.org/2000/svg" viewBox="0 0 320 180"><defs><style>.cls-1,.cls-4{fill:#1e5748;}.cls-2,.cls-3{fill:none;stroke-width:3px;}.cls-2,.cls-3,.cls-4{stroke:#1e5748;}.cls-2{stroke-miterlimit:10;}.cls-3,.cls-4{stroke-linejoin:round;}.cls-4{stroke-width:4px;}</style></defs><title>Artboard 214</title><g id="ARTWORK"><rect class="cls-1" x="43.73" y="69.39" width="127.9" height="16.37"/><circle class="cls-2" cx="218.91" cy="66.26" r="8.03"/><circle class="cls-2" cx="226.94" cy="112.64" r="8.03"/><circle class="cls-2" cx="261.38" cy="89.45" r="8.03"/><path class="cls-1" d="M211.26,63.13h-13A2.86,2.86,0,0,0,195.4,66v.56a2.86,2.86,0,0,0,2.85,2.85h13Z"/><path class="cls-1" d="M280.3,63.13H226.53v6.26H280.3a2.86,2.86,0,0,0,2.85-2.85V66A2.86,2.86,0,0,0,280.3,63.13Z"/><path class="cls-1" d="M280.3,86.32H270.17v6.26H280.3a2.86,2.86,0,0,0,2.85-2.85v-.55A2.86,2.86,0,0,0,280.3,86.32Z"/><path class="cls-1" d="M252.72,86.32H198.25a2.86,2.86,0,0,0-2.85,2.86v.55a2.86,2.86,0,0,0,2.85,2.85h54.47Z"/><path class="cls-1" d="M280.3,109.51h-45v6.27h45a2.86,2.86,0,0,0,2.85-2.86v-.55A2.86,2.86,0,0,0,280.3,109.51Z"/><path class="cls-1" d="M218.62,109.51H198.25a2.86,2.86,0,0,0-2.85,2.86v.55a2.86,2.86,0,0,0,2.85,2.86h20.37Z"/><path class="cls-1" d="M169.74,46.87h-125a5,5,0,0,0-5,5v73a5,5,0,0,0,5,5h72.05a48.68,48.68,0,0,1-1.35-5H44.78v-73h125v73H164a49.27,49.27,0,0,1-1.37,5h7.15a5,5,0,0,0,5-5v-73A5,5,0,0,0,169.74,46.87Z"/><path class="cls-3" d="M139.74,97.68a24.93,24.93,0,0,1-20.92,7.49c0,30.93,10.1,36.26,20.92,41.75,10.52-5.49,20.93-10.93,20.93-41.85A24.46,24.46,0,0,1,139.74,97.68Z"/><path class="cls-4" d="M139.71,139.41c-7.59-4-13.45-8.48-14.22-27.91a26.56,26.56,0,0,0,14.25-5.4A26.16,26.16,0,0,0,154,111.46C153.17,130.7,147.07,135.44,139.71,139.41Z"/></g></svg>