<svg xmlns="http://www.w3.org/2000/svg" viewBox="0 0 200 90"><defs><style>.cls-1{fill:#1e5748;}</style></defs><title>creditScore</title><g id="ARTWORK"><path class="cls-1" d="M68.23,38.76l-11-10A58.54,58.54,0,0,0,41.5,65.12H58.73a41.12,41.12,0,0,1,10-25.9Z"/><path class="cls-1" d="M141.27,65.12H158.5a58.54,58.54,0,0,0-15.88-36.53l-11.48,10.5A41.12,41.12,0,0,1,141.27,65.12Z"/><path class="cls-1" d="M99.35,24.92V10.21a58.08,58.08,0,0,0-41.2,17.57L69.6,38.25A41.18,41.18,0,0,1,99.35,24.92Z"/><path class="cls-1" d="M141.73,27.66a58.1,58.1,0,0,0-41.08-17.45V24.92a41.18,41.18,0,0,1,29.64,13.21Z"/><path class="cls-1" d="M124,50.3l-20.44,1.91a4.3,4.3,0,1,0,.65,3.07Z"/><path class="cls-1" d="M140.42,76.48h2.37q0,.66,0,.83a.44.44,0,0,0,.14.29.49.49,0,0,0,.34.12.42.42,0,0,0,.3-.11.43.43,0,0,0,.13-.29c0-.12,0-.35,0-.71V75.1a1.2,1.2,0,0,1-.53.57,1.82,1.82,0,0,1-.87.19,1.94,1.94,0,0,1-1.15-.35,1.53,1.53,0,0,1-.63-.84,5.23,5.23,0,0,1-.13-1.33v-.76a10.41,10.41,0,0,1,.08-1.48,2,2,0,0,1,.41-.9,2.12,2.12,0,0,1,.91-.64,3.66,3.66,0,0,1,1.35-.23,4,4,0,0,1,1.56.26,2.12,2.12,0,0,1,.94.76,2.22,2.22,0,0,1,.39,1q.05.54.05,2.11v1.32q0,1.69,0,2.26a2.17,2.17,0,0,1-.41,1.08,2.2,2.2,0,0,1-1,.76,3.7,3.7,0,0,1-1.42.25,3.63,3.63,0,0,1-1.64-.32,1.94,1.94,0,0,1-.91-.91A3.44,3.44,0,0,1,140.42,76.48Zm2.37-3c0,.4.05.64.16.74a.47.47,0,0,0,.32.14.4.4,0,0,0,.36-.18,1.47,1.47,0,0,0,.11-.7V71.8a2,2,0,0,0-.11-.82.38.38,0,0,0-.36-.19.48.48,0,0,0-.32.15q-.16.15-.16.81Z"/><path class="cls-1" d="M152.5,72.72v3.16a7.49,7.49,0,0,1-.12,1.57,2.17,2.17,0,0,1-.49.92A2.1,2.1,0,0,1,151,79a3.43,3.43,0,0,1-1.17.19,4.34,4.34,0,0,1-1.41-.2,1.94,1.94,0,0,1-.9-.61,2.62,2.62,0,0,1-.47-.88,5.47,5.47,0,0,1-.14-1.46V72.72a6.29,6.29,0,0,1,.23-2,1.92,1.92,0,0,1,.89-1,3.17,3.17,0,0,1,1.63-.39,3.41,3.41,0,0,1,1.39.27,2.33,2.33,0,0,1,.92.67,2.22,2.22,0,0,1,.41.88A8.26,8.26,0,0,1,152.5,72.72Zm-2.37-.8a3.65,3.65,0,0,0-.07-.95.33.33,0,0,0-.34-.19.34.34,0,0,0-.35.2,3,3,0,0,0-.09.93v4.63a3.53,3.53,0,0,0,.08,1,.34.34,0,0,0,.34.17.33.33,0,0,0,.35-.2,3,3,0,0,0,.08-.9Z"/><path class="cls-1" d="M158.94,72.72v3.16a7.49,7.49,0,0,1-.12,1.57,2.17,2.17,0,0,1-.49.92,2.1,2.1,0,0,1-.89.62,3.43,3.43,0,0,1-1.17.19,4.34,4.34,0,0,1-1.41-.2,1.94,1.94,0,0,1-.9-.61,2.62,2.62,0,0,1-.47-.88,5.47,5.47,0,0,1-.14-1.46V72.72a6.29,6.29,0,0,1,.23-2,1.92,1.92,0,0,1,.89-1,3.17,3.17,0,0,1,1.63-.39,3.41,3.41,0,0,1,1.39.27,2.33,2.33,0,0,1,.92.67,2.22,2.22,0,0,1,.41.88A8.26,8.26,0,0,1,158.94,72.72Zm-2.37-.8a3.65,3.65,0,0,0-.07-.95.33.33,0,0,0-.34-.19.34.34,0,0,0-.35.2,3,3,0,0,0-.09.93v4.63a3.53,3.53,0,0,0,.08,1,.34.34,0,0,0,.34.17.33.33,0,0,0,.35-.2,3,3,0,0,0,.08-.9Z"/><path class="cls-1" d="M45.27,73.62a1.47,1.47,0,0,1,.8.59,4.37,4.37,0,0,1,.26,1.94,4.75,4.75,0,0,1-.26,1.76,1.83,1.83,0,0,1-.89,1,3.54,3.54,0,0,1-1.62.33,3.49,3.49,0,0,1-1.77-.38,1.83,1.83,0,0,1-.84-.93,6.16,6.16,0,0,1-.2-1.9v-.75h2.37v1.54a2.5,2.5,0,0,0,.07.78.32.32,0,0,0,.33.17.35.35,0,0,0,.36-.21,3.93,3.93,0,0,0,.09-1.1v-.66a1.92,1.92,0,0,0-.12-.8.61.61,0,0,0-.36-.33,3.75,3.75,0,0,0-.93-.09V73.16a4.77,4.77,0,0,0,1-.06.46.46,0,0,0,.29-.28,1.94,1.94,0,0,0,.09-.68v-.53a1.37,1.37,0,0,0-.1-.66.35.35,0,0,0-.32-.16.35.35,0,0,0-.34.17,1.77,1.77,0,0,0-.09.71v.78H40.75v-.81a2.22,2.22,0,0,1,.62-1.84,3.26,3.26,0,0,1,2-.48,3.07,3.07,0,0,1,2.3.66,2.63,2.63,0,0,1,.6,1.84A2.29,2.29,0,0,1,46,73,1.94,1.94,0,0,1,45.27,73.62Z"/><path class="cls-1" d="M52.77,72.72v3.16a7.49,7.49,0,0,1-.12,1.57,2.17,2.17,0,0,1-.49.92,2.1,2.1,0,0,1-.89.62,3.43,3.43,0,0,1-1.17.19A4.34,4.34,0,0,1,48.7,79a1.94,1.94,0,0,1-.9-.61,2.62,2.62,0,0,1-.47-.88A5.47,5.47,0,0,1,47.19,76V72.72a6.36,6.36,0,0,1,.23-2,1.93,1.93,0,0,1,.9-1,3.17,3.17,0,0,1,1.63-.39,3.41,3.41,0,0,1,1.39.27,2.33,2.33,0,0,1,.92.67,2.19,2.19,0,0,1,.41.88A8.08,8.08,0,0,1,52.77,72.72Zm-2.37-.8a3.54,3.54,0,0,0-.07-.95.32.32,0,0,0-.34-.19.34.34,0,0,0-.35.2,3.08,3.08,0,0,0-.08.93v4.63a3.44,3.44,0,0,0,.08,1,.34.34,0,0,0,.34.17.33.33,0,0,0,.35-.2,3,3,0,0,0,.08-.9Z"/><path class="cls-1" d="M59.2,72.72v3.16a7.49,7.49,0,0,1-.12,1.57,2.17,2.17,0,0,1-.49.92,2.1,2.1,0,0,1-.89.62,3.43,3.43,0,0,1-1.17.19,4.34,4.34,0,0,1-1.41-.2,1.94,1.94,0,0,1-.9-.61,2.62,2.62,0,0,1-.47-.88A5.47,5.47,0,0,1,53.62,76V72.72a6.36,6.36,0,0,1,.23-2,1.93,1.93,0,0,1,.9-1,3.17,3.17,0,0,1,1.63-.39,3.41,3.41,0,0,1,1.39.27,2.33,2.33,0,0,1,.92.67,2.19,2.19,0,0,1,.41.88A8.08,8.08,0,0,1,59.2,72.72Zm-2.37-.8a3.54,3.54,0,0,0-.07-.95.32.32,0,0,0-.34-.19.34.34,0,0,0-.35.2,3.08,3.08,0,0,0-.08.93v4.63a3.44,3.44,0,0,0,.08,1,.34.34,0,0,0,.34.17.33.33,0,0,0,.35-.2,3,3,0,0,0,.08-.9Z"/></g></svg>