<svg id="ARTWORK" xmlns="http://www.w3.org/2000/svg" viewBox="0 0 200 90"><defs><style>.cls-1{fill:#1e5748;}</style></defs><title>debtServiceRatioCalculator</title><path class="cls-1" d="M84.69,78.85C82.34,73.53,76.11,70,69.19,70S56,73.53,53.69,78.85A1.5,1.5,0,0,0,55.06,81H83.32a1.5,1.5,0,0,0,1.37-2.11Z"/><path class="cls-1" d="M88.74,56.73h2.47a15.39,15.39,0,0,1,3.24.22,2.48,2.48,0,0,1,1.28.72,2.29,2.29,0,0,1,.55,1.12,16.91,16.91,0,0,1,.11,2.42v4.45A10.35,10.35,0,0,1,96.24,68a1.73,1.73,0,0,1-.56.9,2.34,2.34,0,0,1-1,.46,8.9,8.9,0,0,1-1.78.13H88.74ZM92,58.91v8.37c.48,0,.77-.1.88-.29a4.19,4.19,0,0,0,.17-1.56V60.49A6.72,6.72,0,0,0,93,59.38a.53.53,0,0,0-.25-.36A1.64,1.64,0,0,0,92,58.91Z"/><path class="cls-1" d="M97.63,56.73h5.51v2.55h-2.21v2.41H103v2.42h-2.07v2.8h2.43v2.54H97.63Z"/><path class="cls-1" d="M104.32,56.73h3.3A8.67,8.67,0,0,1,110,57a2.35,2.35,0,0,1,1.3,1,4.43,4.43,0,0,1,.5,2.39,2.58,2.58,0,0,1-.35,1.55,2.44,2.44,0,0,1-1.38.67,2.45,2.45,0,0,1,1.56.86,3.31,3.31,0,0,1,.41,1.84v1.18a4.67,4.67,0,0,1-.29,1.91,1.59,1.59,0,0,1-.94.85,9.66,9.66,0,0,1-2.64.23h-3.83Zm3.31,2.18v2.83H108c.33,0,.53-.08.62-.24a3.93,3.93,0,0,0,.13-1.37,2.22,2.22,0,0,0-.11-.84.53.53,0,0,0-.29-.3A2.53,2.53,0,0,0,107.63,58.91Zm0,4.81v3.56a1.41,1.41,0,0,0,.89-.22,1.54,1.54,0,0,0,.19-1V64.9a1.67,1.67,0,0,0-.17-1A1.55,1.55,0,0,0,107.63,63.72Z"/><path class="cls-1" d="M119.87,56.73v2.55h-2V69.45H114.6V59.28h-2V56.73Z"/><path class="cls-1" d="M46,35.73a12.09,12.09,0,0,0-21.74-7.27c-.19.25-.38.52-.55.79s-.34.55-.49.83A12.09,12.09,0,0,0,33.92,47.83l.57,0c.28,0,.56,0,.84-.06h.1c.32,0,.65-.08,1-.15l.55-.14A12,12,0,0,0,46,35.73Zm-8.62,4.72,0,.06a3.48,3.48,0,0,1-.35.3,3.76,3.76,0,0,1-.35.23,4.28,4.28,0,0,1-.79.37,5.39,5.39,0,0,1-1.13.27v.53a.84.84,0,0,1-.83.85h-.05a.84.84,0,0,1-.82-.82V41.7a5.11,5.11,0,0,1-3.27-1.56,1.26,1.26,0,0,1,1.78-1.78,2.86,2.86,0,0,0,2.32.87,2.7,2.7,0,0,0,1.56-.39l0,0a1.07,1.07,0,0,0,.4-.93c0-.2,0-.34-.38-.66a1.64,1.64,0,0,0-.82-.38l-.41-.08-1.34-.22a4.21,4.21,0,0,1-2-.94A2.73,2.73,0,0,1,30,33.48,3.42,3.42,0,0,1,30.36,32a3,3,0,0,1,1.06-1.24A3.53,3.53,0,0,1,33,30.16v-.7a.86.86,0,0,1,.85-.85.84.84,0,0,1,.61.26.82.82,0,0,1,.23.6v.78a4.84,4.84,0,0,1,2.34,1.11,1.26,1.26,0,0,1,.09,1.78,1.3,1.3,0,0,1-.94.41,1.24,1.24,0,0,1-.84-.32,2.76,2.76,0,0,0-1.71-.57H33.5a1.08,1.08,0,0,0-.74.22.78.78,0,0,0-.23.61.57.57,0,0,0,0,.27,1.75,1.75,0,0,0,.77.35l.62.1.7.12.45.09a4.15,4.15,0,0,1,2,.94,3.18,3.18,0,0,1,1.25,2.56A3.62,3.62,0,0,1,37.41,40.46Z"/><path class="cls-1" d="M110.6,52.84l-5.13-13.79a1.49,1.49,0,0,0-.58-.73,1.49,1.49,0,0,0-.94-1.15L76.43,26.62a7.42,7.42,0,0,0-5.74-8.45V11.45a1.5,1.5,0,1,0-3,0v6.66a7.5,7.5,0,0,0-4.92,3.28L35,10.74a1.48,1.48,0,0,0-.85-.07,1.44,1.44,0,0,0-.22,0h0a1.5,1.5,0,0,0-1.4,1L27.32,25.4a1.5,1.5,0,0,0,2.81,1.06l3.8-10,3.73,10a1.5,1.5,0,0,0,2.81-1L36.41,14.49l25.27,9.68a7.43,7.43,0,0,0,6,8.64V79.45a1.5,1.5,0,0,0,3,0V32.76a7.5,7.5,0,0,0,4.69-3.33l27,10.35-4.94,13a1.5,1.5,0,0,0,2.81,1.06l3.8-10,3.73,10a1.5,1.5,0,0,0,2.81-1ZM73.52,25.51a4.48,4.48,0,0,1-9,0c0-.06,0-.11,0-.17a4.48,4.48,0,0,1,9,.17S73.52,25.49,73.52,25.51Z"/><rect class="cls-1" x="138.1" y="35.97" width="7.35" height="7.35" rx="0.25" ry="0.25"/><rect class="cls-1" x="149.15" y="35.97" width="7.35" height="7.35" rx="0.25" ry="0.25"/><rect class="cls-1" x="160.5" y="35.97" width="7.35" height="7.35" rx="0.25" ry="0.25"/><rect class="cls-1" x="137.79" y="49.72" width="7.35" height="7.35" rx="0.25" ry="0.25"/><rect class="cls-1" x="149.15" y="49.72" width="7.35" height="7.35" rx="0.25" ry="0.25"/><rect class="cls-1" x="160.5" y="49.72" width="7.35" height="7.35" rx="0.25" ry="0.25"/><rect class="cls-1" x="137.79" y="63.61" width="7.35" height="7.35" rx="0.25" ry="0.25"/><rect class="cls-1" x="149.15" y="63.61" width="7.35" height="7.35" rx="0.25" ry="0.25"/><rect class="cls-1" x="160.5" y="63.61" width="7.35" height="7.35" rx="0.25" ry="0.25"/><path class="cls-1" d="M173.52,80.43h-41.4a2.5,2.5,0,0,1-2.5-2.5V13a2.5,2.5,0,0,1,2.5-2.5h41.4A2.5,2.5,0,0,1,176,13V77.93A2.5,2.5,0,0,1,173.52,80.43Zm-40.9-3H173V13.5h-40.4Z"/><path class="cls-1" d="M167.06,29.47H138.58a2,2,0,0,1-2-2V20.76a2,2,0,0,1,2-2h28.47a2,2,0,0,1,2,2v6.71A2,2,0,0,1,167.06,29.47Zm0-2v0Zm-28.47-6.71v6.71h28.47V20.76Z"/></svg>