<svg xmlns="http://www.w3.org/2000/svg" viewBox="0 0 200 90"><defs><style>.cls-1{fill:#1e5748;}</style></defs><title>debtLoanCalculator</title><g id="ARTWORK"><path class="cls-1" d="M104.7,23.83H58.12a2.45,2.45,0,0,0-2.45,2.45V38.54H37.29A2.45,2.45,0,0,0,34.84,41V68a2.45,2.45,0,0,0,2.45,2.45H83.87A2.45,2.45,0,0,0,86.32,68V55.7H104.7a2.45,2.45,0,0,0,2.45-2.45v-27A2.45,2.45,0,0,0,104.7,23.83ZM71.51,53.25v.17c0,.23-.06.45-.09.66A10.62,10.62,0,0,1,71,55.7H83.87V68H37.29V53.42H51.07c0-.3,0-.61,0-.93a10.22,10.22,0,0,1,1.43-5.2H37.29V41H55.67v2.92a9.81,9.81,0,0,1,1.42-.78c.34-.15.68-.28,1-.4v-4H104.7V53.25H71.51ZM104.7,32.58H58.12v-6.3H104.7Zm-43.42,12A7.82,7.82,0,0,0,55.67,47l-.31.33a7.87,7.87,0,0,0-2,5.2,9.28,9.28,0,0,0,.06.93,7.89,7.89,0,0,0,15,2.28A7.3,7.3,0,0,0,69,54.08a6.49,6.49,0,0,0,.11-.66l0-.17c0-.25,0-.5,0-.76a7.92,7.92,0,0,0-7.9-7.89Zm5,8.66,0,.16a.5.5,0,0,1-.46.33H62.52V57a.47.47,0,0,1-.48.48H60.5A.48.48,0,0,1,60,57V53.75h-3.2a.5.5,0,0,1-.46-.33l0-.16V51.72a.49.49,0,0,1,.49-.49H60V48a.48.48,0,0,1,.49-.48h1.53a.48.48,0,0,1,.49.48v3.22h3.2a.49.49,0,0,1,.49.49v1.53Z"/><rect class="cls-1" x="127.13" y="35.5" width="7.35" height="7.35" rx="0.25" ry="0.25"/><rect class="cls-1" x="138.17" y="35.5" width="7.35" height="7.35" rx="0.25" ry="0.25"/><rect class="cls-1" x="149.53" y="35.5" width="7.35" height="7.35" rx="0.25" ry="0.25"/><rect class="cls-1" x="126.82" y="49.25" width="7.35" height="7.35" rx="0.25" ry="0.25"/><rect class="cls-1" x="138.17" y="49.25" width="7.35" height="7.35" rx="0.25" ry="0.25"/><rect class="cls-1" x="149.53" y="49.25" width="7.35" height="7.35" rx="0.25" ry="0.25"/><rect class="cls-1" x="126.82" y="63.14" width="7.35" height="7.35" rx="0.25" ry="0.25"/><rect class="cls-1" x="138.17" y="63.14" width="7.35" height="7.35" rx="0.25" ry="0.25"/><rect class="cls-1" x="149.53" y="63.14" width="7.35" height="7.35" rx="0.25" ry="0.25"/><path class="cls-1" d="M162.55,80h-41.4a2.51,2.51,0,0,1-2.5-2.5V12.53a2.51,2.51,0,0,1,2.5-2.5h41.4a2.51,2.51,0,0,1,2.5,2.5V77.47A2.51,2.51,0,0,1,162.55,80Zm-40.9-3h40.4V13h-40.4Z"/><path class="cls-1" d="M156.08,29H127.61a2,2,0,0,1-2-2V20.29a2,2,0,0,1,2-2h28.47a2,2,0,0,1,2,2V27A2,2,0,0,1,156.08,29Zm0-2v0Zm-28.47-6.71V27h28.47V20.29Z"/></g></svg>