<svg xmlns="http://www.w3.org/2000/svg" viewBox="0 0 200 90"><defs><style>.cls-1{fill:#1e5748;}</style></defs><title>TDpublic_illustrations_200x90_02_CreditCards</title><g id="ARTWORK"><path class="cls-1" d="M48.72,35.66l-.32-.29L47.95,35a11.31,11.31,0,0,0-2-1.28.89.89,0,0,0-.2-.05,11.61,11.61,0,0,0-2.94-.92v-2.7h0l5.07-2.25a.93.93,0,0,0,.57-.86V11a.94.94,0,0,0-.94-.94H34.44a.94.94,0,0,0-.94.94V27a.83.83,0,0,0,.57.86l5,2.2v2.71a11.68,11.68,0,1,0,9.6,2.94Zm-6.8-20.87a.94.94,0,1,1,1.87,0v9.35a.94.94,0,0,1-1.87,0Zm-3.74,9.35V14.79a.94.94,0,1,1,1.87,0v9.35a.94.94,0,1,1-1.87,0Zm7.22,26.4-4.56-2.4-4.56,2.4.87-5.08-3.69-3.59,5.1-.74,2.28-4.62,2.28,4.62,5.1.74-3.69,3.59Z"/><path class="cls-1" d="M102.61,31.92s-10.4-.13-12.56-.06a3.74,3.74,0,0,0-3.39,2.68c-.42,1.15-3.51,7.54-5.18,11.88l21.14,0a.55.55,0,0,0,.55-.55V32.48A.55.55,0,0,0,102.61,31.92Z"/><path class="cls-1" d="M168.74,55.07A1.5,1.5,0,0,0,167,56.33a2.65,2.65,0,0,1-1.64,2.26,2.76,2.76,0,0,1-2.19-.18,2.69,2.69,0,0,1-1.32-1.52c-.62-2.17,1.15-4,2.18-4.62l1-.62-1.25-3.9a1.5,1.5,0,0,0-1.18-1l-6-21.54a4.47,4.47,0,1,0-6.66-3.88c0,.07,0,.13,0,.2L113.22,50.73h6.94l21-16.71c-1.29,6.26-3.11,15.49-3.21,16l2.94.58c0-.16,2.8-14.17,3.95-19.52l7.4-5.89a4,4,0,0,0,2.84.52l6,21.64a1.49,1.49,0,0,0-.19,1.3l.57,1.77a7,7,0,0,0-2.5,7.28,5.8,5.8,0,0,0,5.5,4,5.94,5.94,0,0,0,1.82-.29A5.49,5.49,0,0,0,170,56.78,1.5,1.5,0,0,0,168.74,55.07ZM154.41,23.79a2.49,2.49,0,1,1,2.46-2.49A2.48,2.48,0,0,1,154.41,23.79Z"/><path class="cls-1" d="M155.34,62.88h-.71V51a1.74,1.74,0,0,0-1.74-1.74H110.18V31.82a6.4,6.4,0,0,0-6.38-6.41H87.34c-3,0-5.54,2-7.47,5.72l-5.33,12.1L67.1,44.67c-6.51.85-8.39,6.91-8.83,8.83L56.64,63a3,3,0,0,0-2.78,2.35l-.55,3,0,.18a2.86,2.86,0,0,0,2.81,2.78h6.12a10.59,10.59,0,0,0,20.79,0h44a10.59,10.59,0,0,0,20.79,0h7.57a1.55,1.55,0,0,0,1.55-1.55V64.43A1.55,1.55,0,0,0,155.34,62.88ZM61.2,54.09c.31-1.36,1.69-5.84,6.37-6.46l9.08-1.76,5.92-13.45c.94-1.83,2.53-4,4.77-4h16.46a3.4,3.4,0,0,1,3.38,3.41V62.94l-26,0A10.53,10.53,0,0,0,64,63H59.68Zm11.4,20.09a5,5,0,1,1,4.94-5A5,5,0,0,1,72.61,74.18Zm64.77,0a5,5,0,1,1,4.94-5A5,5,0,0,1,137.38,74.18Zm14.25-11.3H145.9a10.53,10.53,0,0,0-17.06,0l-18.66,0V52.25h41.45Z"/></g></svg>