<svg xmlns="http://www.w3.org/2000/svg" viewBox="0 0 200 90"><defs><style>.cls-1,.cls-10,.cls-11,.cls-4,.cls-5,.cls-6,.cls-7,.cls-8,.cls-9{fill:none;}.cls-1,.cls-11,.cls-12,.cls-2{stroke:#1e5748;}.cls-1,.cls-10,.cls-11,.cls-12,.cls-4,.cls-5,.cls-6,.cls-7,.cls-8,.cls-9{stroke-miterlimit:10;}.cls-1{stroke-width:2px;}.cls-2,.cls-3{fill:#1e5748;}.cls-11,.cls-12,.cls-2{stroke-linecap:round;}.cls-2{stroke-linejoin:round;}.cls-10,.cls-4,.cls-5,.cls-6,.cls-7,.cls-8,.cls-9{stroke:#fff;}.cls-5{stroke-dasharray:0.92 1.85;}.cls-6{stroke-dasharray:0.92 1.85 0.92 1.85;}.cls-7{stroke-dasharray:0.94 1.88;}.cls-8{stroke-dasharray:0.94 1.88 0.94 1.88;}.cls-9{stroke-dasharray:0.94 1.87;}.cls-10{stroke-dasharray:0.94 1.87 0.94 1.87;}.cls-11,.cls-12{stroke-width:1.5px;}.cls-12{fill:#7a7a7a;}</style></defs><title>diversifiedPortfolioOptions_1</title><g id="ARTWORK"><polygon class="cls-1" points="44.76 35.2 30.99 35.2 34.05 26.02 41.7 26.02 44.76 35.2"/><polygon class="cls-2" points="36.05 12.26 36.53 10.06 37.17 12.26 39.37 12.9 37.17 13.38 36.53 15.74 36.05 13.38 33.69 12.9 36.05 12.26"/><polygon class="cls-1" points="53.86 22.86 40.1 22.86 42.72 13.68 50.8 13.68 53.86 22.86"/><polygon class="cls-1" points="63.15 35.2 48.56 35.2 51.62 26.02 59.27 26.02 63.15 35.2"/><path class="cls-1" d="M44.35,53.79H28.79V52.11c0-.78-.54-1.16-1.31-1.16H18.89a1.39,1.39,0,0,0-.45.08,1.41,1.41,0,0,0-1,1.33V70.76a1.42,1.42,0,0,0,1.41,1.41H44.35a1.41,1.41,0,0,0,1.34-1,1.39,1.39,0,0,0,.08-.44V55.2A1.42,1.42,0,0,0,44.35,53.79Z"/><path class="cls-3" d="M86.54,57a16.93,16.93,0,1,0,15.38-10.81,15.48,15.48,0,0,0-4.48.73l5.16,16.43L86.54,57"/><path class="cls-1" d="M93.35,44.67A17.23,17.23,0,0,0,84,53.18l14,5.53Z"/><line class="cls-4" x1="102.34" y1="63.12" x2="102.73" y2="62.8"/><line class="cls-5" x1="104.14" y1="61.61" x2="105.55" y2="60.42"/><line class="cls-6" x1="106.26" y1="59.83" x2="114.04" y2="53.29"/><line class="cls-4" x1="114.74" y1="52.69" x2="115.13" y2="52.37"/><line class="cls-4" x1="102.34" y1="63.12" x2="102.67" y2="63.5"/><line class="cls-7" x1="103.92" y1="64.9" x2="105.17" y2="66.31"/><line class="cls-8" x1="105.79" y1="67.01" x2="112.64" y2="74.75"/><line class="cls-4" x1="113.26" y1="75.45" x2="113.6" y2="75.83"/><line class="cls-4" x1="102.34" y1="63.12" x2="102.12" y2="63.57"/><line class="cls-9" x1="101.26" y1="65.23" x2="100.41" y2="66.9"/><line class="cls-10" x1="99.99" y1="67.73" x2="95.3" y2="76.91"/><line class="cls-4" x1="94.88" y1="77.74" x2="94.65" y2="78.18"/><path class="cls-3" d="M23.12,46.51s-3-.21-3,2H30s1.49-.15,1.49,1.21v1.53H47.63s.88-.12.88,1.09V68.86a1.57,1.57,0,0,0,1,.35,1.34,1.34,0,0,0,1-.35V52.08a2.48,2.48,0,0,0-2.59-2.72H33.53v-.87a2.2,2.2,0,0,0-2.31-2Z"/><path class="cls-3" d="M157.14,72.74l-3.56-21.47,10.77-1.79-.09-1.37-11,1.83a1.26,1.26,0,0,0-1,1.45l3.6,21.68a1.26,1.26,0,0,0,1.44,1l7.64-1.24a6.05,6.05,0,0,1-.17-1.35Z"/><path class="cls-3" d="M159.81,52.42a3.07,3.07,0,1,0,2.74,3.36A3,3,0,0,0,159.81,52.42Zm.91,4.22-.08.11a1.31,1.31,0,0,1-.64.36l0,.18a.24.24,0,0,1-.19.26h0a.25.25,0,0,1-.26-.19l0-.18a1.65,1.65,0,0,1-1-.29.33.33,0,0,1-.08-.48.5.5,0,0,1,.5-.08.87.87,0,0,0,.75.16.71.71,0,0,0,.45-.21.3.3,0,0,0,.09-.29c0-.07,0-.11-.15-.18a.55.55,0,0,0-.38-.08h-.42a1.22,1.22,0,0,1-.61-.18.78.78,0,0,1-.35-.57.94.94,0,0,1,.72-1.1l0-.23a.25.25,0,0,1,.19-.26.24.24,0,0,1,.26.19l0,.25a1.45,1.45,0,0,1,.75.2.37.37,0,0,1,.15.23.35.35,0,0,1,0,.26.37.37,0,0,1-.23.15.29.29,0,0,1-.24-.05.86.86,0,0,0-.6-.09.3.3,0,0,0-.27.32c0,.14.17.16.28.16h.4a1.27,1.27,0,0,1,.75.18.89.89,0,0,1,.48.66A1.06,1.06,0,0,1,160.72,56.64Z"/><line class="cls-11" x1="158.51" y1="65.32" x2="164.61" y2="64.29"/><line class="cls-11" x1="157.95" y1="61.95" x2="164.54" y2="60.86"/><line class="cls-11" x1="159.07" y1="68.68" x2="164.54" y2="67.77"/><path class="cls-3" d="M183.88,51.38l-3.68-3.67h0l0,0-.77-.77a.75.75,0,0,0-.53-.22H165.3a1.37,1.37,0,0,0-1.37,1.38v24a1.37,1.37,0,0,0,1.36,1.38l17.43.07a1.37,1.37,0,0,0,1.37-1.38V52.77a.75.75,0,0,0,0-.22v-.64A.75.75,0,0,0,183.88,51.38ZM182.6,72.06,165.43,72V48.18h11.94v3.58A1.65,1.65,0,0,0,179,53.4h3.59Z"/><path class="cls-3" d="M172,50.54a3.37,3.37,0,1,0,2.37,4.13A3.34,3.34,0,0,0,172,50.54Zm.23,4.73-.1.1a1.44,1.44,0,0,1-.76.28v.2a.26.26,0,0,1-.25.25h0a.27.27,0,0,1-.25-.25v-.2a1.81,1.81,0,0,1-1.08-.5.37.37,0,0,1,0-.53.55.55,0,0,1,.55,0,1,1,0,0,0,.78.3.78.78,0,0,0,.53-.15.33.33,0,0,0,.15-.3c0-.08,0-.13-.13-.23a.61.61,0,0,0-.4-.15l-.45-.08a1.34,1.34,0,0,1-.63-.3.86.86,0,0,1-.28-.68,1,1,0,0,1,1-1.06v-.25a.27.27,0,0,1,.25-.25.26.26,0,0,1,.25.25V52a1.59,1.59,0,0,1,.78.35.4.4,0,0,1,.13.28.38.38,0,0,1-.1.28.4.4,0,0,1-.28.13.32.32,0,0,1-.25-.1.94.94,0,0,0-.63-.2.33.33,0,0,0-.35.3c0,.15.15.2.28.23l.43.08a1.39,1.39,0,0,1,.78.33,1,1,0,0,1,.4.81A1.16,1.16,0,0,1,172.19,55.27Z"/><line class="cls-12" x1="168.36" y1="61.01" x2="179.3" y2="61.01"/><line class="cls-12" x1="168.36" y1="64.41" x2="179.3" y2="64.41"/><line class="cls-12" x1="168.36" y1="67.8" x2="179.3" y2="67.8"/><path class="cls-1" d="M164.27,17.86H148.71V16.18c0-.78-.54-1.16-1.31-1.16h-8.59a1.39,1.39,0,0,0-.45.08,1.41,1.41,0,0,0-1,1.33V34.83a1.42,1.42,0,0,0,1.41,1.41h25.46a1.41,1.41,0,0,0,1.34-1,1.39,1.39,0,0,0,.08-.44V19.27A1.42,1.42,0,0,0,164.27,17.86Z"/><path class="cls-3" d="M143,10.58s-3-.21-3,2h9.89s1.49-.15,1.49,1.21v1.53h16.16s.88-.12.88,1.09V32.93a1.57,1.57,0,0,0,1,.35,1.34,1.34,0,0,0,1-.35V16.15a2.48,2.48,0,0,0-2.59-2.72H153.45v-.87a2.2,2.2,0,0,0-2.31-2Z"/><path class="cls-3" d="M118.93,50l-1-1.14,2.27-2,1,1.14ZM125,44.77l-1-1.14,2.27-2,1,1.14Zm6.06-5.22-1-1.14,2.27-2,1,1.14Z"/><path class="cls-3" d="M83.17,47.12l1-1.14-2.27-2-1,1.14ZM77.11,41.9l1-1.14-2.27-2-1,1.14ZM71,36.69l1-1.14-2.27-2-1,1.14Z"/><path class="cls-3" d="M53.71,63l0-1.5,3,0,0,1.5Zm8-.1,0-1.5,3,0,0,1.5Zm8-.11,0-1.5,3,0,0,1.5Zm8-.1,0-1.5,3,0,0,1.5Z"/><path class="cls-3" d="M122.37,63l0-1.5,3,0,0,1.5Zm8-.1,0-1.5,3,0,0,1.5Zm8-.11,0-1.5,3,0,0,1.5Zm8-.1,0-1.5,3,0,0,1.5Z"/></g></svg>