<svg xmlns="http://www.w3.org/2000/svg" viewBox="0 0 201 90"><defs><style>.cls-1{fill:#1e5748;}</style></defs><title>TDpublic_illustrations_200x90_01_Accounts</title><g id="ARTWORK"><g id="Layer_26" data-name="Layer 26"><path class="cls-1" d="M149.88,10.19h-99V29.72H80.73l-.11,46a4.17,4.17,0,0,0,4.17,4.17H116a4.17,4.17,0,0,0,4.17-4.17l-.11-46h29.77ZM105.7,65.42a4.71,4.71,0,0,1-.52.44,7,7,0,0,1-3.61,1.32v1.07a1,1,0,0,1-.3.75,1,1,0,0,1-.71.3h-.07a1,1,0,0,1-1-1V67.21a7.73,7.73,0,0,1-5.15-2.36,1.68,1.68,0,0,1,2.38-2.38,4.67,4.67,0,0,0,3.79,1.43,4.31,4.31,0,0,0,2.64-.69,1.92,1.92,0,0,0,.73-1.65c0-.39,0-.69-.69-1.22a3.51,3.51,0,0,0-2-.76l-2.08-.34a6.27,6.27,0,0,1-3-1.39,4,4,0,0,1-1.33-3.15,4.77,4.77,0,0,1,4.7-4.92V48.45a1.07,1.07,0,0,1,1-1,1.06,1.06,0,0,1,.76.32,1,1,0,0,1,.29.74V49.9a7.36,7.36,0,0,1,3.72,1.7,1.69,1.69,0,0,1,.12,2.38,1.75,1.75,0,0,1-1.26.55A1.65,1.65,0,0,1,103,54.1a4.72,4.72,0,0,0-3.13-1h0c-1.16,0-1.77.55-1.77,1.56,0,.46.12.58.12.58a2.92,2.92,0,0,0,1.36.64l2.05.34a6.53,6.53,0,0,1,3.7,1.54,4.69,4.69,0,0,1,1.85,3.76A5.35,5.35,0,0,1,105.7,65.42Zm3.94-26.54a1.8,1.8,0,0,1-2.53,0l-6.92-6.73-6.5,6.69a1.78,1.78,0,0,1-2.56-2.47l7.74-8a1.69,1.69,0,0,1,1.25-.54h0a1.86,1.86,0,0,1,1.26.5l8.21,8a1.77,1.77,0,0,1,0,2.51ZM146,25.81H120.09V21.91h22V18H58.69v3.91H80.75v3.91h-26V14.1H146Z"/></g></g></svg>