<svg xmlns="http://www.w3.org/2000/svg" viewBox="0 0 200 90"><defs><style>.cls-1,.cls-11,.cls-2{fill:#1e5748;}.cls-11,.cls-2,.cls-3{stroke:#1e5748;}.cls-11,.cls-2{stroke-linecap:round;}.cls-2{stroke-linejoin:round;}.cls-10,.cls-3,.cls-4,.cls-5,.cls-6,.cls-7,.cls-8,.cls-9{fill:none;}.cls-10,.cls-11,.cls-3,.cls-4,.cls-5,.cls-6,.cls-7,.cls-8,.cls-9{stroke-miterlimit:10;}.cls-3{stroke-width:2px;}.cls-10,.cls-4,.cls-5,.cls-6,.cls-7,.cls-8,.cls-9{stroke:#fff;}.cls-5{stroke-dasharray:0.92 1.85;}.cls-6{stroke-dasharray:0.92 1.85 0.92 1.85;}.cls-7{stroke-dasharray:0.94 1.88;}.cls-8{stroke-dasharray:0.94 1.88 0.94 1.88;}.cls-9{stroke-dasharray:0.94 1.87;}.cls-10{stroke-dasharray:0.94 1.87 0.94 1.87;}.cls-11{stroke-width:1.5px;}</style></defs><title>diversifiedPortfolioOptions</title><g id="ARTWORK"><path class="cls-1" d="M46,36.2H29.45L33.18,25h9.09Zm-13.77-2h11L40.83,27H34.62Z"/><polygon class="cls-2" points="35.9 12.26 36.38 10.06 37.02 12.26 39.22 12.9 37.02 13.38 36.38 15.74 35.9 13.38 33.54 12.9 35.9 12.26"/><path class="cls-1" d="M55.1,23.86H38.62l3.2-11.18h9.56Zm-13.83-2H52.33l-2.39-7.18H43.33Z"/><path class="cls-1" d="M64.51,36.2H47L50.75,25h9Zm-14.71-2h11.7l-3-7.18H52.19Z"/><path class="cls-1" d="M44.95,73.17H19.49a2.42,2.42,0,0,1-2.41-2.41V52.37a2.41,2.41,0,0,1,1.63-2.28,2.38,2.38,0,0,1,.78-.14h8.59a2.12,2.12,0,0,1,2.31,2.16v.67H44.95a2.42,2.42,0,0,1,2.41,2.41V70.76a2.35,2.35,0,0,1-.13.75A2.41,2.41,0,0,1,44.95,73.17ZM19.49,52l-.13,0a.42.42,0,0,0-.28.39V70.76a.42.42,0,0,0,.41.41H44.95a.41.41,0,0,0,.39-.29.44.44,0,0,0,0-.12V55.2a.42.42,0,0,0-.41-.41H28.39V52.11a.32.32,0,0,0,0-.11.88.88,0,0,0-.3,0Z"/><path class="cls-1" d="M86.39,57a16.93,16.93,0,1,0,15.38-10.81,15.48,15.48,0,0,0-4.48.73l5.16,16.43L86.39,57"/><path class="cls-3" d="M93.2,44.67a17.23,17.23,0,0,0-9.35,8.51l14,5.53Z"/><line class="cls-4" x1="102.19" y1="63.12" x2="102.58" y2="62.8"/><line class="cls-5" x1="103.99" y1="61.61" x2="105.4" y2="60.42"/><line class="cls-6" x1="106.11" y1="59.83" x2="113.89" y2="53.29"/><line class="cls-4" x1="114.59" y1="52.69" x2="114.98" y2="52.37"/><line class="cls-4" x1="102.19" y1="63.12" x2="102.52" y2="63.5"/><line class="cls-7" x1="103.77" y1="64.9" x2="105.02" y2="66.31"/><line class="cls-8" x1="105.64" y1="67.01" x2="112.49" y2="74.75"/><line class="cls-4" x1="113.11" y1="75.45" x2="113.45" y2="75.83"/><line class="cls-4" x1="102.19" y1="63.12" x2="101.97" y2="63.57"/><line class="cls-9" x1="101.11" y1="65.23" x2="100.26" y2="66.9"/><line class="cls-10" x1="99.84" y1="67.73" x2="95.15" y2="76.91"/><line class="cls-4" x1="94.73" y1="77.74" x2="94.5" y2="78.18"/><path class="cls-1" d="M23.72,46.51s-3-.21-3,2h9.89s1.49-.15,1.49,1.21v1.53H48.23s.88-.12.88,1.09V68.86a1.57,1.57,0,0,0,1,.35,1.34,1.34,0,0,0,1-.35V52.08a2.48,2.48,0,0,0-2.59-2.72H34.13v-.87a2.2,2.2,0,0,0-2.31-2Z"/><path class="cls-1" d="M164.39,71.4,157,72.6l-3.56-21.47,10.77-1.79L163.8,48,153.09,49.8a1.26,1.26,0,0,0-1,1.45l3.6,21.68a1.26,1.26,0,0,0,1.44,1l7.6-1.23Z"/><path class="cls-1" d="M166.66,48.49l0,0,0,0Z"/><path class="cls-1" d="M159.66,52.27a3.07,3.07,0,1,0,2.74,3.36A3,3,0,0,0,159.66,52.27Zm.91,4.22-.08.11a1.31,1.31,0,0,1-.64.36l0,.18a.24.24,0,0,1-.19.26h0a.25.25,0,0,1-.26-.19l0-.18a1.65,1.65,0,0,1-1-.29.33.33,0,0,1-.08-.48.5.5,0,0,1,.5-.08.87.87,0,0,0,.75.16.71.71,0,0,0,.45-.21.3.3,0,0,0,.09-.29c0-.07,0-.11-.15-.18a.55.55,0,0,0-.38-.08h-.42a1.22,1.22,0,0,1-.61-.18.78.78,0,0,1-.35-.57.94.94,0,0,1,.72-1.1l0-.23a.25.25,0,0,1,.19-.26.24.24,0,0,1,.26.19l0,.25a1.45,1.45,0,0,1,.75.2.37.37,0,0,1,.15.23.35.35,0,0,1,0,.26.37.37,0,0,1-.23.15.29.29,0,0,1-.24-.05.86.86,0,0,0-.6-.09.3.3,0,0,0-.27.32c0,.14.17.16.28.16h.4a1.27,1.27,0,0,1,.75.18.89.89,0,0,1,.48.66A1.06,1.06,0,0,1,160.57,56.5Z"/><line class="cls-11" x1="158.36" y1="65.17" x2="164.39" y2="64.17"/><line class="cls-11" x1="157.8" y1="61.81" x2="164.35" y2="60.67"/><line class="cls-11" x1="158.92" y1="68.54" x2="164.39" y2="67.63"/><path class="cls-1" d="M183.73,51.24,180,47.57h0l0,0-.77-.77a.75.75,0,0,0-.53-.22H165.15a1.37,1.37,0,0,0-1.37,1.38V72a1.37,1.37,0,0,0,1.36,1.38l17.43.07A1.37,1.37,0,0,0,183.95,72V52.63a.75.75,0,0,0,0-.22v-.64A.75.75,0,0,0,183.73,51.24Zm-1.27,20.67-17.17-.07V48h11.94v3.58a1.65,1.65,0,0,0,1.64,1.64h3.59Z"/><path class="cls-1" d="M171.82,50.39a3.37,3.37,0,1,0,2.37,4.13A3.34,3.34,0,0,0,171.82,50.39Zm.23,4.73-.1.1a1.44,1.44,0,0,1-.76.28v.2a.26.26,0,0,1-.25.25h0a.27.27,0,0,1-.25-.25v-.2a1.81,1.81,0,0,1-1.08-.5.37.37,0,0,1,0-.53.55.55,0,0,1,.55,0,1,1,0,0,0,.78.3.78.78,0,0,0,.53-.15.33.33,0,0,0,.15-.3c0-.08,0-.13-.13-.23a.61.61,0,0,0-.4-.15l-.45-.08a1.34,1.34,0,0,1-.63-.3.86.86,0,0,1-.28-.68,1,1,0,0,1,1-1.06v-.25a.27.27,0,0,1,.25-.25.26.26,0,0,1,.25.25v.28a1.59,1.59,0,0,1,.78.35.4.4,0,0,1,.13.28.38.38,0,0,1-.1.28.4.4,0,0,1-.28.13.32.32,0,0,1-.25-.1.94.94,0,0,0-.63-.2.33.33,0,0,0-.35.3c0,.15.15.2.28.23l.43.08a1.39,1.39,0,0,1,.78.33,1,1,0,0,1,.4.81A1.16,1.16,0,0,1,172,55.13Z"/><line class="cls-11" x1="168.21" y1="60.87" x2="179.15" y2="60.87"/><line class="cls-11" x1="168.21" y1="64.27" x2="179.15" y2="64.27"/><line class="cls-11" x1="168.21" y1="67.66" x2="179.15" y2="67.66"/><path class="cls-3" d="M162.92,17.86H147.36V16.18c0-.78-.54-1.16-1.31-1.16h-8.59a1.39,1.39,0,0,0-.45.08,1.41,1.41,0,0,0-1,1.33V34.83a1.42,1.42,0,0,0,1.41,1.41h25.46a1.41,1.41,0,0,0,1.34-1,1.39,1.39,0,0,0,.08-.44V19.27A1.42,1.42,0,0,0,162.92,17.86Z"/><path class="cls-1" d="M141.69,10.58s-3-.21-3,2h9.89s1.49-.15,1.49,1.21v1.53H166.2s.88-.12.88,1.09V32.93a1.57,1.57,0,0,0,1,.35,1.34,1.34,0,0,0,1-.35V16.15a2.48,2.48,0,0,0-2.59-2.72H152.1v-.87a2.2,2.2,0,0,0-2.31-2Z"/><path class="cls-1" d="M117.91,49.68l-1.06-1.06L119,46.5,120,47.57ZM123.59,44,122.53,43l2.13-2.11,1.06,1.06Zm5.67-5.64-1.06-1.06,2.13-2.11,1.06,1.06Z"/><path class="cls-1" d="M122.28,63.71l0-1.5,3,0,0,1.5Zm8-.1,0-1.5,3,0,0,1.5Zm8-.11,0-1.5,3,0,0,1.5Zm8-.1,0-1.5,3,0,0,1.5Z"/><path class="cls-1" d="M55.26,63.19l0-1.5,3,0,0,1.5Zm8-.1,0-1.5,3,0,0,1.5Zm8-.1,0-1.5,3,0,0,1.5Zm8-.1,0-1.5,2.91,0,0,1.5Z"/><path class="cls-1" d="M81.84,49.08,82.9,48,80.77,45.9,79.71,47Zm-5.67-5.64,1.06-1.06L75.1,40.26,74,41.32ZM70.5,37.8l1.06-1.06-2.13-2.11-1.06,1.06Z"/></g></svg>