<svg xmlns="http://www.w3.org/2000/svg" viewBox="0 0 200 90"><defs><style>.cls-1{fill:#1f5748;}</style></defs><title>diverseCommunities</title><g id="celebratingDiverseCommunities"><path class="cls-1" d="M130.28,53.18a.55.55,0,0,0,.32-.79L128.31,48h0l12.43-9.39A.57.57,0,0,0,141,38a.58.58,0,0,0-.13-.28.57.57,0,0,0-.26-.17l-4.13-1.36h0l3.17-6.78a.55.55,0,0,0-.38-.79h-.07a.56.56,0,0,0-.31,0l-6.55,3h0l.14-5a.54.54,0,0,0-.67-.57l-.08,0a.56.56,0,0,0-.26.17l-7.79,9.57,3.2-15.75a.57.57,0,0,0-.6-.68h0a.56.56,0,0,0-.29.13l-4.68,4L117.85,14a.57.57,0,0,0-.54-.38h0a.57.57,0,0,0-.54.39l-3.32,9.67-4.67-4a.57.57,0,0,0-.3-.13h0a.58.58,0,0,0-.6.68l.25,1.21h0l.69,3.37h0L111,35.91l-3.32-4.08-1.63-2h0L103.82,27l-.58-.71a.57.57,0,0,0-1,.38l.14,5-6.55-3a.57.57,0,0,0-.24-.05h0a.56.56,0,0,0-.56.47.57.57,0,0,0,0,.34h0l1.69,3.62.11.24h0l1.36,2.91-2.9,1h0l-.91.3-.32.11a.57.57,0,0,0-.17,1l1,.75h0L97.15,41l2.18,1.65h0l4.49,3.39L106.36,48h0l-2.29,4.42a.57.57,0,0,0,.51.84l.17,0,.67-.2h0l2.3-.69,1.54-.47h0l6.72-2v9a1.15,1.15,0,0,0,2.29,0V49.72h0l11.65,3.48a.58.58,0,0,0,.27,0Z"/><path class="cls-1" d="M108.29,54.24l-3,.89a2.52,2.52,0,0,1-2.16-.32,28.07,28.07,0,0,1-18.91,4.85c-5.58-.61-13.37-3.29-18.82-12.56-9.21-15.65,3-29.39,3.57-30a1.75,1.75,0,0,0-2.58-2.36c-.15.16-14.54,16.19-4,34.1,4.83,8.21,12.45,13.27,21.45,14.26.76.08,1.53.13,2.3.15V76.25H72.94a1.75,1.75,0,1,0,0,3.5h30a1.75,1.75,0,0,0,0-3.5H89.69v-13a30.46,30.46,0,0,0,19.53-9,1.74,1.74,0,0,0,.22-.3Z"/><path class="cls-1" d="M88.17,57.53a23.42,23.42,0,0,0,13.62-4.36V49.33a20.48,20.48,0,0,1-11.74,5.1c1.56-6.4-.34-10.8-2.75-12.83a7.22,7.22,0,0,0-8.09-.75,5.93,5.93,0,0,1-4.83.48A3.68,3.68,0,0,1,72.26,39a2.79,2.79,0,0,0-2.18-2,4.39,4.39,0,0,0-2.19.18A20.41,20.41,0,0,1,88.17,13.42c.39,0,.76,0,1.14.06-2.5,1.28-6.41,3.39-6.41,7.34,0,5.33,8,6.39,8.36,6.43a13.53,13.53,0,0,1,2.2.49,2.57,2.57,0,0,1,3.18-.85l3.62,1.68,0-1.79a2.57,2.57,0,0,1,4.57-1.69l.58.71,1.55,1.9c.09-.2.18-.4.28-.59l-1.33-6.53a2.57,2.57,0,0,1,.27-1.75,24,24,0,0,0-18-8.39,23.56,23.56,0,1,0,0,47.11Z"/></g></svg>