<svg xmlns="http://www.w3.org/2000/svg" viewBox="0 0 320 180"><defs><style>.cls-1{fill:#1e5748;}.cls-2,.cls-3{fill:none;stroke:#1e5748;}.cls-2{stroke-linejoin:round;stroke-width:3px;}.cls-3{stroke-miterlimit:10;stroke-width:2px;stroke-dasharray:4 5;}</style></defs><title>TDpublic_illustrations_200x90_02_CreditCards</title><g id="ARTWORK"><path class="cls-1" d="M238.63,143.28H217.57a1.16,1.16,0,0,0,0,2.32h21.05a1.16,1.16,0,0,0,0-2.32Z"/><path class="cls-1" d="M238.63,149.95H217.57a1.16,1.16,0,0,0,0,2.32h21.05a1.16,1.16,0,0,0,0-2.32Z"/><path class="cls-1" d="M238.63,156.84H217.57a1.16,1.16,0,0,0,0,2.32h21.05a1.16,1.16,0,0,0,0-2.32Z"/><path class="cls-2" d="M211.32,125.26a1.32,1.32,0,0,1,1.31-1.33h22.28l11,11,0,32.06a1.32,1.32,0,0,1-1.31,1.33l-32.12,0a1.32,1.32,0,0,1-1.31-1.33Z"/><path class="cls-1" d="M235.23,124.74h-1.57v9.9a1.79,1.79,0,0,0,1.79,1.79h10l0-1.26Z"/><path class="cls-2" d="M219.71,124.29v-5A1.32,1.32,0,0,1,221,118l32.12,0a1.32,1.32,0,0,1,1.31,1.33l-.16,41.69A1.32,1.32,0,0,1,253,162.4H245.9"/><path class="cls-1" d="M262.95,84.77l-.19-.17-.26-.21a6.55,6.55,0,0,0-1.14-.74l-.12,0a6.7,6.7,0,0,0-1.7-.53V81.54h0l2.93-1.3a.54.54,0,0,0,.33-.5V70.56a.54.54,0,0,0-.54-.54H254.7a.54.54,0,0,0-.54.54v9.19a.48.48,0,0,0,.33.5l2.92,1.27v1.56a6.75,6.75,0,1,0,5.55,1.7Zm-3.78-12.36a.54.54,0,0,1,1.08,0v5.4a.54.54,0,0,1-1.08,0ZM257,77.82v-5.4a.54.54,0,0,1,1.08,0v5.4a.54.54,0,0,1-1.08,0ZM261.18,93l-2.63-1.38L255.91,93l.5-2.93L254.28,88l2.94-.43,1.32-2.67,1.32,2.67,2.94.43-2.13,2.08Z"/><path class="cls-1" d="M295.25,72.57a2.21,2.21,0,0,1,2.2,2.2V98.6a2.21,2.21,0,0,1-2.2,2.2H249.9a2.21,2.21,0,0,1-2.2-2.2V74.77a2.21,2.21,0,0,1,2.2-2.2h45.34m0-3H249.9a5.22,5.22,0,0,0-5.2,5.2V98.6a5.22,5.22,0,0,0,5.2,5.2h45.34a5.22,5.22,0,0,0,5.2-5.2V74.77a5.22,5.22,0,0,0-5.2-5.2Z"/><path class="cls-1" d="M284.87,84.73H270.93a.77.77,0,0,0,0,1.54h13.94a.77.77,0,0,0,0-1.54Z"/><path class="cls-1" d="M284.87,89.15H270.93a.77.77,0,0,0,0,1.54h13.94a.77.77,0,0,0,0-1.54Z"/><path class="cls-1" d="M284.87,93.71H270.93a.77.77,0,0,0,0,1.54h13.94a.77.77,0,0,0,0-1.54Z"/><path class="cls-1" d="M292.6,84.73H278.67a.77.77,0,0,0,0,1.54H292.6a.77.77,0,0,0,0-1.54Z"/><path class="cls-1" d="M292.6,89.15H278.67a.77.77,0,0,0,0,1.54H292.6a.77.77,0,0,0,0-1.54Z"/><path class="cls-1" d="M292.6,93.71H278.67a.77.77,0,0,0,0,1.54H292.6a.77.77,0,0,0,0-1.54Z"/><line class="cls-3" x1="128.53" y1="114" x2="193.97" y2="141.61"/><line class="cls-3" x1="128.53" y1="69.61" x2="193.97" y2="42"/><line class="cls-3" x1="129.55" y1="91.85" x2="232.45" y2="91.85"/><path class="cls-1" d="M256.55,27.16a2.36,2.36,0,0,0-.64-.66,8.91,8.91,0,0,0,.43,2.44l.51-.32A1.94,1.94,0,0,0,256.55,27.16Z"/><path class="cls-1" d="M251.18,28.91l-8.34,5.33-.13.58a14.41,14.41,0,0,1-.26,1.49c-.06.52-.13,1-.26,1.61L238,34.56l-10-7.94c-1.42-1-3.16-1-5.17-.26a12.15,12.15,0,0,0-2.65,1.36l-7.43,4.84a2.76,2.76,0,0,1-3.81-.71c-.71-1.23-.58-2.33-.39-2.39l17.18-11.24c1.81-1.23,6.52,1.81,8.85,3.23l.78.52,12.08-7.88a1.43,1.43,0,0,0-.25-1.52,1.84,1.84,0,0,0-1.3-.87l-10.59,6.85c-3.23-2-6.52-3.81-9.24-3.42l-2.78-2.2c-2.71-2.2-7-.45-11.3,1.68l-5.25-4.25a1.23,1.23,0,0,0-1.75.49,1.29,1.29,0,0,0,.29,1.82l6.33,5.3.84-.39c2.39-1.23,7.36-3.75,9.11-2.39l1.68,1.36L207.06,27.07c-1.74,1.1-1.94,3.81-.45,6.26l.19.32a2.82,2.82,0,0,0,.39.45c1.49,1.49,3.62,2.91,5.43,2.07l9.3-6.2S225,28,226.5,29l15.24,12.14a1.58,1.58,0,0,1,.26,2.26,1.94,1.94,0,0,1-2.71.32L224.5,32l-1.74,2.2,16.47,13.11a1.54,1.54,0,1,1-1.94,2.39l-1-.84-.39-.39L221.27,37l-1.74,2.2,14.53,11.56a1.58,1.58,0,0,1,.26,2.26,1.65,1.65,0,0,1-2.33.26l-6.46-5.17-6.65-5.17-1.74,2.2,6.59,5.23a1.65,1.65,0,0,1,.26,2.32,1.73,1.73,0,0,1-2.39.26l-5.17-4.07-11.17-8.91c-1.87-1.49-2.07-5.55-2.26-8.27,0-.58-.06-1.1-.06-1.55l-.06-.65-7.47-5.81a1.34,1.34,0,0,0-1.7.6,1.46,1.46,0,0,0,0,1.66l6.46,5a4,4,0,0,0,.06.84c.13,2.65.32,6.39,2,8.91a4.43,4.43,0,0,0,.84,7.56,4.68,4.68,0,0,0-.06,4.52c0,.06.06.06.06.13s.06.06.06.13a4.59,4.59,0,0,0,4.07,1.81A4.41,4.41,0,0,0,207.9,57a4.54,4.54,0,0,0,6.26,1.29L217.59,56v.06l1.81-1.29.45.39a4.59,4.59,0,0,0,6.39-.71A4.68,4.68,0,0,0,227,53l3.23,2.58a4.51,4.51,0,0,0,6.33-.71,4,4,0,0,0,.9-2.07,4.56,4.56,0,0,0,4.2-1.42c0-.06.06-.06.06-.13s.06-.06.06-.13a4.43,4.43,0,0,0,.39-4.46,4.54,4.54,0,0,0,2-1.49,4.59,4.59,0,0,0,.52-4.78,29.55,29.55,0,0,0,.65-3.68c.06-.26.06-.58.13-.84L252,31.68A13.78,13.78,0,0,1,251.18,28.91ZM203.57,45.09a1.65,1.65,0,0,1,.45-2.26l.19-.13L207.13,45l-.9.58A1.84,1.84,0,0,1,203.57,45.09Zm4.13,6.65A1.52,1.52,0,1,1,206,49.23L209.58,47,212,48.9Zm4.84,4.13a1.68,1.68,0,0,1-2.33-.52,1.65,1.65,0,0,1,.45-2.26l3.55-2.39.39.32L217,52.91Z"/><polygon class="cls-1" points="99.33 73.99 99.36 73.95 100.19 75.5 100.17 75.51 101.73 78.39 112.25 67.9 104.08 67.89 98.85 73.1 99.33 73.99"/><path class="cls-1" d="M97.72,71l3.15-3.14H97.44a.82.82,0,0,0-.72,1.22Z"/><path class="cls-1" d="M116.08,67.92h-.6l-12.6,12.56.26.46h0l.15.27H110l6.6-12.17a.82.82,0,0,0,0-.81A.79.79,0,0,0,116.08,67.92Z"/><path class="cls-1" d="M95.15,118.72l-.48,2.07a.82.82,0,0,0,.24.75l.15.14,19.37-19.32-.55-2.4h0l-1-4.23L96.71,111.87Z"/><polygon class="cls-1" points="98.22 124.47 99.26 125.39 101.13 127.04 116.56 111.64 115.53 107.15 115.08 105.22 115.03 105 96.78 123.2 98.22 124.47"/><path class="cls-1" d="M117.15,114.27l-14.31,14.28.29.26,3,2.62a.82.82,0,0,0,1.15,0l11.18-9.86a.82.82,0,0,0,.22-.74l-1.41-6.24Z"/><polygon class="cls-1" points="110.21 83.81 110.09 83.35 110.01 82.95 103.29 82.95 101.01 92.98 110.21 83.81"/><polygon class="cls-1" points="97.73 107.31 97.65 107.72 112.32 93.08 110.81 86.43 100.07 97.13 97.73 107.31"/><path class="cls-1" d="M94.68,107.15H24V81.44H99.54s-5.66-10.57-5.7-10.66H24V60.07h81.31v4.3h3.45V60.52a4.22,4.22,0,0,0-4.2-4.2H24.74a4.22,4.22,0,0,0-4.2,4.2v46.19a4.22,4.22,0,0,0,4.2,4.2H93.82Z"/><path class="cls-1" d="M265.13,14.71a11.45,11.45,0,1,0,11.18,11.73A11.45,11.45,0,0,0,265.13,14.71Zm6.76,8.54a1.32,1.32,0,0,1-.44.65l-7.87,7.5a1.22,1.22,0,0,1-.76.42h-.06a1,1,0,0,1-.51-.31l-3.55-3.72a1.38,1.38,0,0,1-.41-.67c0-.08-.05-.32.32-.67a.9.9,0,0,1,.6-.31,1.21,1.21,0,0,1,.74.46l2.94,3.09,7.36-7a1.2,1.2,0,0,1,.77-.42.86.86,0,0,1,.57.32C271.95,22.94,271.9,23.18,271.89,23.25Z"/></g></svg>