<svg xmlns="http://www.w3.org/2000/svg" viewBox="0 0 200 90"><defs><style>.cls-1{fill:#1e5748;}</style></defs><title>downPayments</title><g id="ARTWORK"><path class="cls-1" d="M88.55,10.33l-37.4-.05a1.81,1.81,0,0,0-1.78,1.83l0,22.17L42.24,27c-1.93-2-3.54-2-5.45-.08L11.9,52.41s4.23,0,6.55.06l0,25.49a1.81,1.81,0,0,0,1.78,1.83l30.79,0H51l37.4.05a1.81,1.81,0,0,0,1.78-1.83l.1-65.92A1.81,1.81,0,0,0,88.55,10.33ZM43.88,53.88l-10.66,0a.9.9,0,0,0-.89.91l0,21.38L22,76.14l0-25.77L39.54,32.58,56.44,49.3h0l.62.64,0,26.25-12.29,0,0-21.38A.9.9,0,0,0,43.88,53.88Zm42.8,22.38-26.09,0V68.89h6.5l0-12.82h-6.5V50.71h6.5L67,50.58h.13l0-12.82H58.23l-.09,5.58-5.25-5.4,0-24,33.84,0ZM67.17,19.45H58.26l0,12.82h8.91Zm14.25,0H72.51l0,12.82H81.4Zm0,18.31H72.48l0,12.82h8.91Zm0,18.31H72.46l0,12.82h8.91Z"/><path class="cls-1" d="M120.69,46.93c-.43-.17-9.65-3.75-18.78,1.48l.92-2.55a1.59,1.59,0,0,0-3-1.09l-2.46,6.78a1.59,1.59,0,0,0,.93,2l7,2.66a1.59,1.59,0,1,0,1.13-3l-4-1.5c8.07-5.3,16.59-2.05,17-1.89a1.59,1.59,0,0,0,1.18-3Z"/><path class="cls-1" d="M171.7,69.12h0l-59.47-.07a1.16,1.16,0,0,1-.54-2.2L130,57.18a1.17,1.17,0,0,1,.54-.13l52.35,0h0a1.16,1.16,0,0,1,.77,2l-11.24,9.79A1.17,1.17,0,0,1,171.7,69.12Zm-54.77-2.4,54.34.07,8.56-7.46-48.95,0Z"/><rect class="cls-1" x="135.49" y="67.11" width="14.74" height="11.16"/><polygon class="cls-1" points="134.66 67.48 145.53 59.18 160.29 59.18 149.61 67.48 134.66 67.48"/><path class="cls-1" d="M182.93,62.3h-4.53l-2.55,2.33h4l-8.56,7.46L116.92,72l7.15-3.77-4.92,0-7.47,3.94a1.16,1.16,0,0,0,.54,2.2l59.47.07h0a1.17,1.17,0,0,0,.77-.29l11.24-9.79a1.16,1.16,0,0,0-.77-2Z"/><path class="cls-1" d="M182.93,67.66h-4.29L176,70h3.84l-8.56,7.46-54.34-.07,6.2-3.27L118.39,74l-6.71,3.53a1.16,1.16,0,0,0,.54,2.2l59.47.07h0a1.17,1.17,0,0,0,.77-.29L183.7,69.7a1.16,1.16,0,0,0-.77-2Z"/></g></svg>