<svg xmlns="http://www.w3.org/2000/svg" viewBox="0 0 200 90"><defs><style>.cls-1{fill:none;stroke:#1e5748;stroke-linecap:round;stroke-linejoin:round;stroke-width:3px;}.cls-2{fill:#1e5748;}</style></defs><title>TDpublic_illustrations_200x90_02_CreditCards</title><g id="ARTWORK"><path class="cls-1" d="M111.31,58.85,104,60.52a1,1,0,0,1-1.2-.75L95.08,26.06a1,1,0,0,1,.75-1.2l58-13.29a1,1,0,0,1,1.2.75l6.52,28.46"/><rect class="cls-2" x="98.03" y="27.42" width="60.2" height="7.36" transform="translate(-3.71 29.4) rotate(-12.9)"/><rect class="cls-1" x="112.79" y="42" width="61.51" height="36.59" rx="1" ry="1"/><path class="cls-2" d="M78.77,14.47h0a9,9,0,0,0-6.26,2.6L61.73,27.81,41.27,20.16l-.21-.06L40.81,20c-2-.53-5.12-1.32-8.38,1.94-.88.88-2.72,2.7-2.72,5.37a8,8,0,0,0,2.72,5.56l.15.13L34,34.21l-7.13,7.13A1.5,1.5,0,1,0,29,43.46l7.34-7.34,3.72,3-3.18,3.18A1.5,1.5,0,1,0,39,44.46l3.39-3.39,3.32,2.72-7.29,7.28-7.91-2a4.55,4.55,0,0,0-4.9,1.29l-.14.13a5.68,5.68,0,0,0-2.11,3.87,3.83,3.83,0,0,0,1.21,2.8l.19.17,10.29,8,8,10.29.17.2A3.7,3.7,0,0,0,45.86,77c1.84,0,3.44-1.51,4.23-2.24,1.73-1.73,1.41-3.17,1.1-4.57L49.33,62l7.25-7.26L59.24,58l-3.36,3.36A1.5,1.5,0,1,0,58,63.46l3.15-3.15,3.15,3.86-7.67,7.67A1.5,1.5,0,1,0,58.75,74l7.46-7.46,1.11,1.36.13.15C71,71.6,74.7,71.61,78.36,68c3.27-3.27,2.48-6.32,2-8.34l-.08-.3a2,2,0,0,0-.06-.2L72.58,38.65,83.32,27.88c2.88-2.88,3.8-8.12.59-11.34A7.17,7.17,0,0,0,78.77,14.47ZM35.25,24.8c1.65-1.65,2.68-1.39,4.56-.9L61.53,32l.08,0-6.77,6.77-21.08-11a2,2,0,0,1-.06-.45A4.18,4.18,0,0,1,35.25,24.8ZM35.18,30c-.19-.19-.39-.41-.57-.64L54.1,39.53,50.59,43A2,2,0,0,0,50,42.1ZM58.27,50.48a2,2,0,0,0-1-.67l3.58-3.58L71.06,65.88a8.58,8.58,0,0,1-.71-.62Zm18.12,10,.05.21c.48,1.85.74,2.87-.92,4.53-.91.89-1.74,1.7-2.92,1.48L61.55,45.49l6.8-6.8s0,.1,0,.15Zm4.1-35.4L68.85,36.73a2,2,0,0,0-.16.21L54.59,51l0,0-8.84,8.86a2,2,0,0,0-.54,1.85l2,8.95.08.35c.05.24.12.53.14.7l-.12.13A8,8,0,0,1,46,73L38,62.7a2,2,0,0,0-.35-.35l-10.28-8a4.55,4.55,0,0,1,.82-.94c.17-.17.31-.3.37-.38s.21-.24.92-.06l9,2.25a2,2,0,0,0,1.9-.52l9.66-9.64a2,2,0,0,0,.33-.45L63.14,31.91a2,2,0,0,0,.5-.36L75.32,19.91a5,5,0,0,1,3.43-1.43h0a3.2,3.2,0,0,1,2.3.88h0C82.58,20.86,82,23.57,80.49,25.05Z"/><path class="cls-2" d="M77,20.9a.49.49,0,0,0-.53.47.5.5,0,0,0,.47.53c.06,0,1.53.11,1.53,1.5a.5.5,0,0,0,1,0A2.51,2.51,0,0,0,77,20.9Z"/><path class="cls-2" d="M123.79,72.24a.53.53,0,0,1-.24-.06.54.54,0,0,1-.29-.57l.56-3.42-3.14-1.48a.54.54,0,0,1,.15-1l3.43-.53.43-3.44a.54.54,0,0,1,.44-.46.53.53,0,0,1,.57.29l1.56,3.1,3.4-.65a.54.54,0,0,1,.48.91l-2.46,2.44,1.67,3a.54.54,0,0,1-.72.74l-3.08-1.59-2.37,2.53A.54.54,0,0,1,123.79,72.24Zm.95-6.6h0Z"/><line class="cls-1" x1="138.72" y1="66.31" x2="164.65" y2="66.31"/><rect class="cls-2" x="113.8" y="50.52" width="60.49" height="6.53"/></g></svg>