<svg xmlns="http://www.w3.org/2000/svg" viewBox="0 0 200 90"><defs><style>.cls-1{fill:#1e5748;}</style></defs><title>TDpublic_illustrations_200x90_01_Accounts</title><g id="ARTWORK"><g id="Layer_28" data-name="Layer 28"><path class="cls-1" d="M112.9,73c-1,0-2.13.88-3.27,1-2,.25-6.94.18-9.73.19s-7.69.06-9.73-.19c-1.14-.14-2.28-1-3.27-1-11.51,0-31.49,0-43,0v2a4.68,4.68,0,0,0,5,5h102a4.68,4.68,0,0,0,5-5V73C144.39,73,124.41,73,112.9,73Z"/><path class="cls-1" d="M54.88,71h90s0-35.78,0-51.73c0-3.26-2.1-5.26-5.44-5.26-23.8,0-55.77,0-79.56,0-2.57,0-5.17,1.38-5.13,5C54.91,34.79,54.88,71,54.88,71Zm4-52.75a1.7,1.7,0,0,1,1-.24h79.56c1.37,0,1.44.46,1.44,1.27,0,12.47,0,38.48,0,47.72h-82c0-9.34,0-35.66-.12-48.06A1.29,1.29,0,0,1,58.88,18.25Z"/><rect class="cls-1" x="82.26" y="55.85" width="36.28" height="2.2" rx="0.55" ry="0.55"/><rect class="cls-1" x="80.06" y="59.15" width="40.68" height="2.2" rx="0.55" ry="0.55"/><rect class="cls-1" x="82.26" y="33.86" width="36.28" height="2.2" rx="0.55" ry="0.55"/><path class="cls-1" d="M81.16,32.81h38.48a.55.55,0,0,0,.23-1l-19.24-9a.55.55,0,0,0-.47,0l-19.24,9a.55.55,0,0,0,.23,1Z"/><rect class="cls-1" x="85.03" y="37.18" width="3.81" height="17.55" rx="0.53" ry="0.53"/><rect class="cls-1" x="94.22" y="37.18" width="3.81" height="17.55" rx="0.53" ry="0.53"/><rect class="cls-1" x="103.42" y="37.18" width="3.81" height="17.55" rx="0.53" ry="0.53"/><rect class="cls-1" x="112.51" y="37.18" width="3.81" height="17.55" rx="0.53" ry="0.53"/></g></g></svg>