<svg xmlns="http://www.w3.org/2000/svg" viewBox="0 0 200 90"><defs><style>.cls-1{fill:#1e5748;}</style></defs><title>educationSavingsCalculator</title><g id="ARTWORK"><rect class="cls-1" x="144.34" y="35.35" width="7.35" height="7.35" rx="0.25" ry="0.25"/><rect class="cls-1" x="154.93" y="35.35" width="7.35" height="7.35" rx="0.25" ry="0.25"/><rect class="cls-1" x="166.29" y="35.35" width="7.35" height="7.35" rx="0.25" ry="0.25"/><rect class="cls-1" x="144.03" y="49.11" width="7.35" height="7.35" rx="0.25" ry="0.25"/><rect class="cls-1" x="154.93" y="49.11" width="7.35" height="7.35" rx="0.25" ry="0.25"/><rect class="cls-1" x="166.29" y="49.11" width="7.35" height="7.35" rx="0.25" ry="0.25"/><rect class="cls-1" x="144.03" y="63" width="7.35" height="7.35" rx="0.25" ry="0.25"/><rect class="cls-1" x="154.93" y="63" width="7.35" height="7.35" rx="0.25" ry="0.25"/><rect class="cls-1" x="166.29" y="63" width="7.35" height="7.35" rx="0.25" ry="0.25"/><path class="cls-1" d="M179.31,79.82h-41.4a2.5,2.5,0,0,1-2.5-2.5V12.39a2.5,2.5,0,0,1,2.5-2.5h41.4a2.5,2.5,0,0,1,2.5,2.5V77.32A2.5,2.5,0,0,1,179.31,79.82Zm-40.9-3h40.4V12.89h-40.4Z"/><path class="cls-1" d="M172.84,28.85H144.37a2,2,0,0,1-2-2V20.14a2,2,0,0,1,2-2h28.47a2,2,0,0,1,2,2v6.71A2,2,0,0,1,172.84,28.85Zm0-2v0Zm-28.47-6.71v6.71h28.47V20.14Z"/><path class="cls-1" d="M127.77,47.11a2.61,2.61,0,0,0-1.81-.76h-3.22a31.13,31.13,0,0,0-5.67-9.66c1.3-2.39,2.24-5.5,1.78-7.14a2.09,2.09,0,0,0-1.11-1.38c-2.48-1.17-4.88.06-9.89,2.87A26.31,26.31,0,0,0,103.29,30a7.81,7.81,0,1,0-15.21-.1,29.57,29.57,0,0,0-10.79,4.28C70.47,38.91,67,46.2,67.54,54.75a9.16,9.16,0,0,1-3.5-.6,6.15,6.15,0,0,0,2-4.3,4.57,4.57,0,0,0-4.67-4.78,4.62,4.62,0,0,0-4.71,4.78,6.38,6.38,0,0,0,1.74,4.22,6.82,6.82,0,0,1-3.07.49,1.56,1.56,0,0,0-.46,3.09,11.16,11.16,0,0,0,6.3-1.39,12.66,12.66,0,0,0,6.07,1.63c.27,0,.52,0,.78,0a34.83,34.83,0,0,0,3.16,7.55c1.51,2.87,3.55,6.48,5.32,9.4.28.47.87,1.35,1.38,2.12l.68,1a3.89,3.89,0,0,0,3.09,1.82h6.5a2.56,2.56,0,0,0,1.8-.76,2.52,2.52,0,0,0,.74-1.8v-4a39.74,39.74,0,0,0,6.68.22l1.3,4.1.06.16a3.37,3.37,0,0,0,1.3,1.52,3.46,3.46,0,0,0,1.93.59h6.84a2.56,2.56,0,0,0,1.79-.76,2.52,2.52,0,0,0,.74-1.8V70.52c4.35-1.26,9.39-4.63,11.52-9.73l3.68-1.89A3.41,3.41,0,0,0,128,57.57a3.61,3.61,0,0,0,.5-1.84V48.91A2.53,2.53,0,0,0,127.77,47.11ZM61.41,52.34l-.19.16a3.83,3.83,0,0,1-1.46-2.65,1.52,1.52,0,0,1,1.58-1.65,1.6,1.6,0,0,1,1.08.39,1.64,1.64,0,0,1,.46,1.27A3.74,3.74,0,0,1,61.41,52.34Zm64,3.39a.48.48,0,0,1-.05.23s0,.07-.18.13l-4.26,2.19a1.56,1.56,0,0,0-.75.86c-1.67,4.59-6.64,7.81-10.68,8.63a1.56,1.56,0,0,0-1.25,1.53v7.33h-6.25a.41.41,0,0,1-.23-.09.35.35,0,0,1-.11-.1l-1.13-3.57a34,34,0,0,0,3.41-.79,1.56,1.56,0,0,0-.87-3,29.54,29.54,0,0,1-9.08,1.22c-.71,0-1.4-.08-2.06-.14A18.74,18.74,0,0,1,84,67.71a1.56,1.56,0,1,0-1.71,2.62,18.79,18.79,0,0,0,5.27,2.18v4.12H81.69a.85.85,0,0,1-.52-.4l-.7-1.06c-.48-.72-1-1.56-1.31-2-1.75-2.88-3.75-6.41-5.23-9.23s-3-5.92-3.24-8.82c-.63-7.66,2.35-14.19,8.38-18.4a26.84,26.84,0,0,1,10.35-3.9,7.81,7.81,0,0,0,2.83,2.36H87.89a.78.78,0,0,0,0,1.56h15.62a.78.78,0,0,0,0-1.56H99.14a7.81,7.81,0,0,0,2.74-2.25,21.12,21.12,0,0,1,5.31,1.25,1.56,1.56,0,0,0,1.51,0c4.08-2.29,6-3.3,7.13-3.28a13.66,13.66,0,0,1-2,5.22,1.56,1.56,0,0,0,.28,2c3.18,2.77,5.33,8.13,6.11,10.3a1.56,1.56,0,0,0,1.47,1h3.74Z"/><path class="cls-1" d="M113.51,47.11a2.34,2.34,0,1,0,2.34,2.34A2.34,2.34,0,0,0,113.51,47.11Z"/><path class="cls-1" d="M53,26.55V38c-.86.92-8.39,3.53-14.74,3.53C31.54,41.52,23.32,39,22.33,38V26.54l14.79,5.7a1.45,1.45,0,0,0,1.1,0ZM63.73,34,61.16,26.7a1.13,1.13,0,0,0,0-.17V20.16h0a1.17,1.17,0,0,0-.08-.41l-.06-.11a1.17,1.17,0,0,0-.16-.24l-.09-.1a1.17,1.17,0,0,0-.26-.18l-.09,0h0L38.17,10.58a1.18,1.18,0,0,0-.84,0L14.56,19a1.19,1.19,0,0,0,0,2.23l22.77,8.86a1.19,1.19,0,0,0,.87,0l20.62-8.21v4.62a1.13,1.13,0,0,0,0,.2L56.5,34a.89.89,0,0,0,.85,1.17h5.55A.89.89,0,0,0,63.73,34Zm-26-6.25L18.32,20.18,37.74,13l19,7.22ZM58.57,33.4,60,28.88l1.6,4.51Z"/></g></svg>