<svg xmlns="http://www.w3.org/2000/svg" viewBox="0 0 200 90"><defs><style>.cls-1{fill:#1e5748;}</style></defs><title>eligibleAccounts</title><g id="ARTWORK"><path class="cls-1" d="M139.72,34.77v1.72H138.4v6.87h-2.23V36.49h-1.32V34.77Z"/><path class="cls-1" d="M143.66,34.77l1.28,8.59h-2.28l-.12-1.54h-.8l-.13,1.54h-2.31l1.14-8.59Zm-1.18,5.52q-.17-1.46-.34-3.61-.34,2.47-.43,3.61Z"/><path class="cls-1" d="M150.11,34.77l-.79,3.8,1.18,4.79h-2.07a28.32,28.32,0,0,1-.68-3.13q-.08.82-.24,1.73l-.21,1.4h-2.17l.81-4.79-.81-3.8h2.16q.06.36.23,1.18c.09.42.17.81.23,1.16l.48-2.34Z"/><path class="cls-1" d="M142.65,26.34a12.9,12.9,0,1,0,12.9,12.91A12.89,12.89,0,0,0,142.65,26.34Zm-11,12.9a11,11,0,0,1,18.54-8L134.69,46.8A10.94,10.94,0,0,1,131.66,39.24Zm11,11a10.94,10.94,0,0,1-7.09-2.6L151,32.15a11,11,0,0,1-8.39,18.08Z"/><path class="cls-1" d="M177.71,27.31h-8.63a4,4,0,0,1-4-4V14.68a4,4,0,0,1,4-4h8.63a4,4,0,0,1,4,4v8.63A4,4,0,0,1,177.71,27.31Zm-8.63-14.63a2,2,0,0,0-2,2v8.63a2,2,0,0,0,2,2h8.63a2,2,0,0,0,2-2V14.68a2,2,0,0,0-2-2Z"/><path class="cls-1" d="M100.92,19.84H88.54a3,3,0,0,0-3,3V35.21a3,3,0,0,0,3,3h12.38a3,3,0,0,0,3-3V22.84A3,3,0,0,0,100.92,19.84Zm-.9,6.8L93.69,33l0,0,0,0a1.83,1.83,0,0,1-.22.17,1.39,1.39,0,0,1-.25.13l-.14,0h-.1a.82.82,0,0,1-.46-.17l0,0,0,0a.38.38,0,0,1-.1-.08l0,0-3-3a1.21,1.21,0,0,1-.44-.8,1,1,0,0,1,.34-.68,1.07,1.07,0,0,1,.7-.35,1.22,1.22,0,0,1,.8.45L92.9,31l5.72-5.72a1.2,1.2,0,0,1,.78-.44,1,1,0,0,1,.7.34,1,1,0,0,1,.34.69A1.16,1.16,0,0,1,100,26.64Z"/><path class="cls-1" d="M60.72,61.22a4.36,4.36,0,0,1-.48.41A6.46,6.46,0,0,1,57,62.83v.86a1.05,1.05,0,0,1-1,1.07h-.06a1.06,1.06,0,0,1-1-1v-.86a7.05,7.05,0,0,1-4.62-2.16,1.64,1.64,0,0,1,2.32-2.32,4.12,4.12,0,0,0,3.35,1.26,3.78,3.78,0,0,0,2.32-.6,1.63,1.63,0,0,0,.61-1.4c0-.33,0-.56-.58-1A3.08,3.08,0,0,0,56.5,56l-1.88-.3a5.8,5.8,0,0,1-2.75-1.29,3.68,3.68,0,0,1-1.24-2.94,4.41,4.41,0,0,1,4.26-4.56V45.78a1.09,1.09,0,0,1,1.07-1.07,1.07,1.07,0,0,1,.77.32,1,1,0,0,1,.29.75V47a6.76,6.76,0,0,1,3.33,1.55,1.65,1.65,0,0,1,.54,1.15,1.62,1.62,0,0,1-.43,1.18,1.71,1.71,0,0,1-1.23.53A1.61,1.61,0,0,1,58.14,51a4.15,4.15,0,0,0-2.75-.85,1.4,1.4,0,0,0-1.48,1.29c0,.66.68.9,1.24,1l1.86.31a6,6,0,0,1,3.41,1.42,4.35,4.35,0,0,1,1.71,3.49A5,5,0,0,1,60.72,61.22Z"/><path class="cls-1" d="M86.72,40a3,3,0,0,1-3-3V29.92H48.31V26.1a3.84,3.84,0,0,0-3.82-3.82H21.54a3.76,3.76,0,0,0-1.23.22,3.82,3.82,0,0,0-2.6,3.6V75.81a3.84,3.84,0,0,0,3.82,3.82H90.37A3.82,3.82,0,0,0,94,77a3.76,3.76,0,0,0,.21-1.18V40ZM56,70.66a16.2,16.2,0,1,1,16.21-16.2A16.19,16.19,0,0,1,56,70.66Z"/><path class="cls-1" d="M116.57,59.75A4.51,4.51,0,0,1,113,58.31a5.16,5.16,0,0,1-1-3.75V18.13a4.89,4.89,0,0,1,1.1-3.43,3.89,3.89,0,0,1,3-1.19h16.75a3.86,3.86,0,0,1,2.57,1.07,4,4,0,0,1,1.09,2.93v2.38h29.63v2H134.45V17.5A2.06,2.06,0,0,0,134,16a1.91,1.91,0,0,0-1.16-.48H116a2,2,0,0,0-1.51.54,3,3,0,0,0-.58,2V54.77a3.2,3.2,0,0,0,.55,2.24,2.64,2.64,0,0,0,2.08.74h52.5a2.34,2.34,0,0,0,2.38-2.52V26.31h2V55.23a4.34,4.34,0,0,1-4.37,4.52Z"/><path class="cls-1" d="M116,11.89h19.32a2.77,2.77,0,0,1,3,3v2.84h27V15.85h-24.7v-3s.05-3.11-3.83-3.11H118.53S116,9.73,116,11.89Z"/><path class="cls-1" d="M174.93,26.92V55.23a4,4,0,0,0,1.86-3.09V26.92Z"/></g></svg>