<svg xmlns="http://www.w3.org/2000/svg" viewBox="0 0 200 90"><defs><style>.cls-1{fill:#1e5748;}.cls-2,.cls-3,.cls-4{fill:none;}.cls-2{stroke:#1e5748;stroke-miterlimit:10;stroke-width:3px;}.cls-3{stroke:#1e5748;}.cls-3,.cls-4{stroke-linecap:round;stroke-linejoin:round;stroke-width:1.5px;}.cls-4{stroke:#1e5748;}</style></defs><title>TDpublic_illustrations_200x90_02_CreditCards</title><g id="ARTWORK"><rect class="cls-1" x="110.1" y="54.65" width="3.11" height="3"/><rect class="cls-1" x="116.12" y="54.65" width="3.11" height="3"/><rect class="cls-1" x="104.07" y="54.65" width="3.11" height="3"/><rect class="cls-1" x="122.14" y="54.65" width="3.11" height="3"/><rect class="cls-1" x="134.04" y="54.65" width="3.11" height="3"/><rect class="cls-1" x="128.17" y="54.65" width="3.11" height="3"/><rect class="cls-1" x="140.06" y="54.65" width="3.13" height="3"/><rect class="cls-1" x="145.99" y="54.65" width="3.13" height="3"/><rect class="cls-1" x="94.73" y="52.07" width="4.94" height="4.77"/><circle class="cls-2" cx="80.74" cy="54.15" r="22.84" transform="translate(-10.36 20.2) rotate(-13.41)"/><rect class="cls-1" x="74.2" y="49.23" width="10.25" height="10.25" rx="1.04" ry="1.04"/><rect class="cls-3" x="71.38" y="46.42" width="15.87" height="15.87" rx="1.04" ry="1.04"/><line class="cls-3" x1="87.25" y1="50.39" x2="91.56" y2="50.39"/><line class="cls-3" x1="87.25" y1="54.35" x2="91.56" y2="54.35"/><line class="cls-3" x1="87.25" y1="58.32" x2="91.56" y2="58.32"/><line class="cls-3" x1="67.09" y1="50.39" x2="71.39" y2="50.39"/><line class="cls-3" x1="67.09" y1="54.35" x2="71.39" y2="54.35"/><line class="cls-3" x1="67.09" y1="58.32" x2="71.39" y2="58.32"/><line class="cls-4" x1="83.29" y1="62.29" x2="83.29" y2="66.59"/><line class="cls-4" x1="79.32" y1="62.29" x2="79.32" y2="66.59"/><line class="cls-4" x1="75.35" y1="62.29" x2="75.35" y2="66.59"/><line class="cls-3" x1="83.29" y1="42.12" x2="83.29" y2="46.42"/><line class="cls-3" x1="79.32" y1="42.12" x2="79.32" y2="46.42"/><line class="cls-3" x1="75.35" y1="42.12" x2="75.35" y2="46.42"/><path class="cls-1" d="M63,40c.75-.94,1.5-1.79,2.19-2.5L44.32,24.23a5.59,5.59,0,0,0-7.52,2h0a5.09,5.09,0,0,0,1.76,7.13L59,46.35a21.69,21.69,0,0,1,1.53-2.93L49,36.08l2.19-3.59Z"/><path class="cls-1" d="M152.9,16.47H74.64a4.16,4.16,0,0,0-4.16,4.16V34.38c3.44-2.27,8-2.75,12.39-2.75,7.14,0,13.06,4.56,17,9.86h53V65.91H101a21.82,21.82,0,0,1-3.33,4.16H152.9a4.16,4.16,0,0,0,4.16-4.16V20.6A4.16,4.16,0,0,0,152.9,16.47Zm0,4.16V31.19H74.64V20.6H152.9Z"/></g></svg>