<svg xmlns="http://www.w3.org/2000/svg" viewBox="0 0 200 90"><defs><style>.cls-1{fill:#1e5748;}.cls-2{fill:#1e5748;}.cls-3{fill:none;stroke:#1e5748;stroke-linecap:round;stroke-linejoin:round;}</style></defs><title>TDpublic_illustrations_200x90_02_CreditCards</title><g id="ARTWORK"><path class="cls-1" d="M138.21,76.67A31.79,31.79,0,1,1,170,44.88,31.83,31.83,0,0,1,138.21,76.67Zm0-60.58A28.79,28.79,0,1,0,167,44.88,28.82,28.82,0,0,0,138.21,16.09Z"/><path class="cls-1" d="M124.84,41.9l.08,12.42,26.64-.15-.06-12.42Zm14.56,6.37v3.38a.5.5,0,0,1-.5.5H137.6a.5.5,0,0,1-.51-.49V48.28A2.19,2.19,0,0,1,136,46.37a2.24,2.24,0,0,1,4.47,0A2.19,2.19,0,0,1,139.41,48.27Z"/><path class="cls-1" d="M126.21,58.54a4.61,4.61,0,0,0,3.1,1.25l17.92-.13v0a4.39,4.39,0,0,0,4.23-3.39L125,56.44A4.23,4.23,0,0,0,126.21,58.54Z"/><path class="cls-2" d="M157,37.25a2.47,2.47,0,0,0-1.5-.59H153v-.38c-.1-7.11-6.52-13.1-14-13.1h-1.66c-7.65,0-13.89,5.77-13.92,12.86v.52h-1.78a3,3,0,0,0-2.89,3.1q0,.09,0,.18l.09,17.49a8.32,8.32,0,0,0,2.61,6,8.76,8.76,0,0,0,6.1,2.43L149,65.64a8.67,8.67,0,0,0,8.67-8.49V38.82A2.22,2.22,0,0,0,157,37.25Zm-9.76,24.5-17.92.11A6.45,6.45,0,0,1,124.78,60a6.29,6.29,0,0,1-1.92-4.5l-.08-14.64s0,0,0-.05a1,1,0,0,1,1-1h2.89V37.66A10.53,10.53,0,0,1,137.2,27.14h1.89a10.53,10.53,0,0,1,10.53,10.38v2.14h2.89a1.2,1.2,0,0,1,.74.3,1,1,0,0,1,.31.74l.08,14.64A6.42,6.42,0,0,1,147.23,61.75Z"/><path class="cls-1" d="M139,33.59h-1.83a4,4,0,0,0-4,4l0,0v2.15l9.94,0V37.51A4,4,0,0,0,139,33.59Z"/><path class="cls-2" d="M131.07,37.65a6.14,6.14,0,0,1,6.14-6.1h1.86a6.14,6.14,0,0,1,6.14,6v2.11h2.32V37.5a8.28,8.28,0,0,0-8.36-8.25h-2a8.42,8.42,0,0,0-8.42,8.4v2.18h2.33Z"/><rect class="cls-2" x="41.96" y="50.78" width="7.41" height="7.41" rx="1.04" ry="1.04"/><rect class="cls-3" x="39.92" y="48.75" width="11.48" height="11.48" rx="1.04" ry="1.04"/><line class="cls-3" x1="42.78" y1="48.75" x2="42.78" y2="45.64"/><line class="cls-3" x1="45.66" y1="48.75" x2="45.66" y2="45.64"/><line class="cls-3" x1="48.53" y1="48.75" x2="48.53" y2="45.64"/><line class="cls-3" x1="42.78" y1="63.34" x2="42.78" y2="60.23"/><line class="cls-3" x1="45.66" y1="63.34" x2="45.66" y2="60.23"/><line class="cls-3" x1="48.53" y1="63.34" x2="48.53" y2="60.23"/><line class="cls-3" x1="51.4" y1="51.62" x2="54.51" y2="51.62"/><line class="cls-3" x1="51.4" y1="54.49" x2="54.51" y2="54.49"/><line class="cls-3" x1="51.4" y1="57.36" x2="54.51" y2="57.36"/><line class="cls-3" x1="36.81" y1="51.62" x2="39.92" y2="51.62"/><line class="cls-3" x1="36.81" y1="54.49" x2="39.92" y2="54.49"/><line class="cls-3" x1="36.81" y1="57.36" x2="39.92" y2="57.36"/><rect class="cls-2" x="57.95" y="54.65" width="3.11" height="3"/><rect class="cls-2" x="70" y="54.65" width="3.11" height="3"/><rect class="cls-2" x="76.02" y="54.65" width="3.11" height="3"/><rect class="cls-2" x="63.98" y="54.65" width="3.11" height="3"/><rect class="cls-2" x="82.05" y="54.65" width="3.11" height="3"/><rect class="cls-2" x="93.94" y="54.65" width="3.11" height="3"/><rect class="cls-2" x="88.07" y="54.65" width="3.11" height="3"/><rect class="cls-2" x="99.96" y="54.65" width="3.13" height="3"/><rect class="cls-2" x="105.9" y="54.65" width="3.13" height="3"/><path class="cls-2" d="M111.79,59.25v6.83H33.73V41.73h73.56a26.59,26.59,0,0,1,3.44-10.28h-77V20.89h78.05l0,0v8.89a35.78,35.78,0,0,1,4.19-5.19V20.89a4.15,4.15,0,0,0-4.19-4.11h-78a4.15,4.15,0,0,0-4.15,4.15V66.08a4.15,4.15,0,0,0,4.15,4.15h78.05a4.15,4.15,0,0,0,4.15-4.15v-1.7A35.82,35.82,0,0,1,111.79,59.25Z"/></g></svg>