<svg xmlns="http://www.w3.org/2000/svg" viewBox="0 0 200 90"><defs><style>.cls-1{fill:#1e5748;}</style></defs><title>TDpublic_illustrations_200x90_PSI</title><g id="ARTWORK"><path class="cls-1" d="M81.79,68.45c4.75-3.16,8-7.18,9.42-11.32C77.77,63.6,68,66.29,53.22,67.54A102,102,0,0,0,81.79,68.45Z"/><path class="cls-1" d="M43.5,68.14c-2.19.1-4.5.18-6.93.25A41.3,41.3,0,0,0,59.2,74.74a43.31,43.31,0,0,0,17.19-3.38A97.19,97.19,0,0,1,43.5,68.14Z"/><path class="cls-1" d="M79.33,40.75c-1.62-12.45-11.89-25-20-25s-18.41,12.58-20,25C31,42.8,26,46.56,26,52.67A12.92,12.92,0,0,0,26.78,57a72.6,72.6,0,0,0,21.07,9.37c12.84-.86,30-3.62,44-12.06a13,13,0,0,0,.1-1.61C92,46.39,87.28,42.7,79.33,40.75Zm-8,17.4c-1,.87-7.23,1.68-12,1.68s-11.42-.7-11.85-1.49C44.58,55,42.82,50.2,42.82,44.06c0-11.56,10-24.58,16.5-24.58s16.5,13,16.5,24.58C75.81,50.08,74.12,54.84,71.33,58.15Z"/><path class="cls-1" d="M30,62.61a27.13,27.13,0,0,0,4.18,4.09c1.38,0,3,0,4.84,0A62.84,62.84,0,0,1,30,62.61Z"/><path class="cls-1" d="M63.68,40.5A6.37,6.37,0,0,0,60.06,39l-2-.33c-.59-.09-1.32-.34-1.32-1a1.49,1.49,0,0,1,1.58-1.37,4.41,4.41,0,0,1,2.92.9,1.71,1.71,0,0,0,1.16.45A1.82,1.82,0,0,0,63.73,37a1.72,1.72,0,0,0,.45-1.25,1.75,1.75,0,0,0-.57-1.22,7.19,7.19,0,0,0-3.53-1.65V31.64a1.11,1.11,0,0,0-.31-.8,1.14,1.14,0,0,0-.82-.34,1.16,1.16,0,0,0-1.13,1.13v1.16a4.69,4.69,0,0,0-4.52,4.84,3.91,3.91,0,0,0,1.32,3.12,6.16,6.16,0,0,0,2.92,1.37l2,.32a3.28,3.28,0,0,1,1.89.71c.57.48.61.73.61,1.08a1.73,1.73,0,0,1-.65,1.49,4,4,0,0,1-2.46.64A4.38,4.38,0,0,1,55.36,45a1.75,1.75,0,0,0-2.47,2.47,7.49,7.49,0,0,0,4.91,2.3v.92a1.12,1.12,0,0,0,1.11,1.1H59a1.12,1.12,0,0,0,1.1-1.14v-.91a6.86,6.86,0,0,0,3.43-1.28A4.63,4.63,0,0,0,64,48a5.26,5.26,0,0,0,1.5-3.81A4.62,4.62,0,0,0,63.68,40.5Z"/><path class="cls-1" d="M129.66,49.12v-5.2c0,2.87,5.82,5.21,13,5.22.89,0,1.76,0,2.6-.1v5.2c-.84.07-1.71.1-2.6.1C135.48,54.33,129.66,52,129.66,49.12Z"/><path class="cls-1" d="M129.66,51.72c0,2.87,5.82,5.21,13,5.22.89,0,1.76,0,2.6-.1V62c-.84.07-1.71.1-2.6.1-7.19,0-13-2.34-13-5.22Z"/><ellipse class="cls-1" cx="142.7" cy="25.71" rx="5.2" ry="13.01" transform="translate(116.84 168.39) rotate(-89.94)"/><path class="cls-1" d="M129.68,33.51V28.3c0,2.87,5.82,5.21,13,5.22s13-2.32,13-5.19v5.2a2.15,2.15,0,0,1-.06.46c-4.26.76-7.66,2.41-9.29,4.52a31.47,31.47,0,0,1-3.67.21C135.5,38.72,129.68,36.38,129.68,33.51Z"/><path class="cls-1" d="M129.67,41.32v-5.2c0,2.87,5.82,5.21,13,5.22.89,0,1.77,0,2.61-.1,0,0,0,.07,0,.11v5.1c-.84.07-1.71.1-2.6.1C135.49,46.53,129.67,44.19,129.67,41.32Z"/><path class="cls-1" d="M160.88,62.17c-7.19,0-13-2.34-13-5.22v-5.2c0,2.87,5.82,5.21,13,5.22s13-2.32,13-5.19V57C173.89,59.85,168.07,62.18,160.88,62.17Z"/><path class="cls-1" d="M160.88,64.77c7.19,0,13-2.32,13-5.19v5.2c0,2.87-5.83,5.2-13,5.19s-13-2.34-13-5.22v-5.2C147.87,62.43,153.69,64.76,160.88,64.77Z"/><path class="cls-1" d="M160.89,54.36c-7.19,0-13-2.34-13-5.22v-5.2c0,2.87,5.82,5.21,13,5.22s13-2.32,13-5.19v5.2C173.9,52,168.07,54.37,160.89,54.36Z"/><ellipse class="cls-1" cx="160.9" cy="41.35" rx="5.2" ry="13.01" transform="translate(119.38 202.21) rotate(-89.94)"/><path class="cls-1" d="M112.9,60c-7.19,0-13-2.34-13-5.22v-5.2c0,2.87,5.82,5.21,13,5.22s13-2.32,13-5.19v5.2C125.91,57.66,120.09,60,112.9,60Z"/><path class="cls-1" d="M112.9,62.58c7.19,0,13-2.32,13-5.19v5.2c0,2.87-5.83,5.2-13,5.19s-13-2.34-13-5.22v-5.2C99.89,60.24,105.71,62.57,112.9,62.58Z"/><path class="cls-1" d="M112.91,52.17c-7.19,0-13-2.34-13-5.22v-5.2c0,2.87,5.82,5.21,13,5.22s13-2.32,13-5.19V47C125.92,49.85,120.09,52.18,112.91,52.17Z"/><ellipse class="cls-1" cx="112.92" cy="39.16" rx="5.2" ry="13.01" transform="translate(73.65 152.04) rotate(-89.94)"/></g></svg>