<svg xmlns="http://www.w3.org/2000/svg" viewBox="0 0 200 90"><defs><style>.cls-1{fill:#1e5748;}</style></defs><title>TDpublic_illustrations_200x90_RESL_Release2</title><g id="RESL_Aug_2017" data-name="RESL Aug 2017"><path class="cls-1" d="M146.21,57.18A.83.83,0,0,0,147,58h10a.83.83,0,0,0,.83-.84l-.09-8.33A.83.83,0,0,0,157,48H147a.83.83,0,0,0-.83.84Zm10-.84h-3.34l0-2.47h3.34Zm-.07-6.67,0,2.53h-3.34l0-2.53Zm-4.93,6.67h-3.32l0-2.47h3.32Zm-.07-6.67,0,2.53h-3.32l0-2.53Zm26.69,27.18h-5.29V74l0-17.64h5.17l-5.19-5.14v-.06l0-14.4a1.2,1.2,0,0,0-1.2-1.2h-3.6a1.2,1.2,0,0,0-1.2,1.2l0,8.48-12.09-12c-1.69-1.68-3.09-1.71-4.74,0l-23,23.12,5.06,0,.06,20.48H56.53v-1.5l0-13.16h3.86l-3.87-3.84v0l0-10.74a.9.9,0,0,0-.9-.89H52.87a.9.9,0,0,0-.89.9l0,6.32L43,45c-1.26-1.25-2.3-1.27-3.53,0L22.29,62.16l3.78,0,0,14.67H21a1.5,1.5,0,0,0,0,3H177.82a1.5,1.5,0,1,0,0-3Zm-29.72-8a1.2,1.2,0,1,1,1.2,1.2A1.2,1.2,0,0,1,148.1,68.82Zm-14-12.92L152,38l18,17.27.06,21.47-12.4,0,0-15.59a.8.8,0,0,0-.8-.8l-9.6,0a.8.8,0,0,0-.8.8l0,15.59-11.26,0h-1.13Zm-96,14.16a.95.95,0,1,1,.95.94A.95.95,0,0,1,38.13,70.05ZM27.85,61.83,41.24,48.49,54.7,61.38l0,15.47H45.49l0-12a.6.6,0,0,0-.6-.6l-7.16,0a.6.6,0,0,0-.59.6l0,12H27.89Zm82.43-13.35a1.44,1.44,0,1,1,2-2l5.15,5.15.12-4a1.44,1.44,0,0,1,.44-1,1.41,1.41,0,0,1,1-.43,1.58,1.58,0,0,1,1.4,1.5L120.25,55a1.57,1.57,0,0,1-.41,1h0a1.39,1.39,0,0,1-1,.43l-7.35.22a1.68,1.68,0,0,1-1.13-.49,1.34,1.34,0,0,1-.41-.92,1.39,1.39,0,0,1,.42-1,1.54,1.54,0,0,1,1.06-.48l4-.12ZM67.85,55l-.22-7.39a1.58,1.58,0,0,1,1.4-1.5,1.41,1.41,0,0,1,1,.43,1.44,1.44,0,0,1,.44,1l.12,4,5.15-5.15a1.44,1.44,0,1,1,2,2l-5.15,5.15,4,.12a1.54,1.54,0,0,1,1.06.48,1.39,1.39,0,0,1,.42,1,1.34,1.34,0,0,1-.41.92,1.68,1.68,0,0,1-1.13.49l-7.35-.22a1.39,1.39,0,0,1-1-.43h0A1.57,1.57,0,0,1,67.85,55ZM94,46.57c6.22-.09,12.25-1.57,14.32-6.26,2.65-6-4.11-15-9.32-20.71H87.51c-5.62,5.57-12.6,14.32-9,20.71C81.34,45.35,87.75,46.66,94,46.57Zm-5.4-10.45a1.36,1.36,0,0,1,1.92,0,3.4,3.4,0,0,0,2.77,1,3.12,3.12,0,0,0,1.91-.5,1.35,1.35,0,0,0,.5-1.15c0-.27,0-.47-.48-.84a2.55,2.55,0,0,0-1.47-.55l-1.55-.25A4.79,4.79,0,0,1,89.9,32.8a3,3,0,0,1-1-2.43,3.64,3.64,0,0,1,3.52-3.77v-.9a.9.9,0,0,1,.88-.88.89.89,0,0,1,.64.27.86.86,0,0,1,.24.62v1A5.59,5.59,0,0,1,96.9,28a1.36,1.36,0,0,1,.45.95,1.34,1.34,0,0,1-.35,1,1.41,1.41,0,0,1-1,.44,1.33,1.33,0,0,1-.9-.35,3.43,3.43,0,0,0-2.27-.7,1.16,1.16,0,0,0-1.23,1.07c0,.55.56.74,1,.81l1.54.25A5,5,0,0,1,97,32.61a3.59,3.59,0,0,1,1.42,2.89,4.09,4.09,0,0,1-1.16,3,3.57,3.57,0,0,1-.4.34,5.33,5.33,0,0,1-2.66,1v.71a.87.87,0,0,1-.86.88h-.05a.87.87,0,0,1-.86-.85v-.71A5.83,5.83,0,0,1,88.57,38,1.36,1.36,0,0,1,88.57,36.12Zm-1-17.7c-1.23-1.66-4.36-6.13-3.34-7.25,1.27-1.38,4.42,1.1,5.69.81s1.89-1.92,3.47-2,2.67,1.92,4,2,3.32-2,4.89-1c1.29.78-2.15,5.7-3.44,7.46H87.61Z"/></g></svg>