<svg xmlns="http://www.w3.org/2000/svg" viewBox="0 0 200 90"><defs><style>.cls-1{fill:#1e5748;}</style></defs><title>findAForeignExchangeCenter</title><g id="ARTWORK"><path class="cls-1" d="M123.21,52.7a25.8,25.8,0,0,1-40.34-6.24,11.59,11.59,0,0,1-1.72,4.76,29.82,29.82,0,0,0,22.3,12.49V76.14H91a2,2,0,0,0,0,4h28.83a2,2,0,0,0,0-4H107.45V63.71A29.67,29.67,0,0,0,126,55.6a2,2,0,0,0-2.75-2.9Z"/><path class="cls-1" d="M79.76,36.49c-.08-.83-.12-1.67-.12-2.52A25.79,25.79,0,0,1,86,17.06a2,2,0,1,0-3-2.62,29.8,29.8,0,0,0-7.28,19.11,11.63,11.63,0,0,1,4.12,2.94Z"/><path class="cls-1" d="M77.27,36.86a10.08,10.08,0,0,0-7.82-2.25,10.41,10.41,0,0,0,.05-3.35,10.71,10.71,0,0,0-.84-2.87A11,11,0,0,0,68,27.1,10.81,10.81,0,0,0,48.22,35q.11.53.27,1a10.8,10.8,0,0,0,2.68,4.43,10.88,10.88,0,0,0,1.6,1.32,10.76,10.76,0,0,0,6,1.85c.31,0,.61,0,.92,0s.6-.07.89-.12A10.23,10.23,0,0,0,65,53.25q.31.21.63.39a10.25,10.25,0,0,0,10.19,0q.32-.18.63-.39a10.15,10.15,0,0,0,3.43-3.92c.1-.19.2-.38.28-.58a10.24,10.24,0,0,0-2.92-11.88Zm-15,4.82a9.56,9.56,0,0,1-3.47.66,9.57,9.57,0,1,1,9.3-7.46,9.44,9.44,0,0,1-.43,1.4A9.58,9.58,0,0,1,62.28,41.68Zm11.3,7.62H67.84a.66.66,0,0,1,0-1.32,1.54,1.54,0,0,0,1.54-1.54,2.8,2.8,0,0,0-.07-.64h-.67a.66.66,0,0,1,0-1.32h.15a4.51,4.51,0,0,1-.26-1.59,2.86,2.86,0,0,1,4.69-2.19.66.66,0,0,1,.08.93.66.66,0,0,1-.93.08,1.54,1.54,0,0,0-2.53,1.18,3.31,3.31,0,0,0,.37,1.59h1.12a.66.66,0,0,1,0,1.32h-.68a4.27,4.27,0,0,1,0,.64A2.86,2.86,0,0,1,70.25,48h3.34a.66.66,0,0,1,0,1.32Z"/><path class="cls-1" d="M59.41,31.92l-1-.16c-.3,0-.66-.17-.66-.52a.74.74,0,0,1,.79-.68A2.19,2.19,0,0,1,60,31a.88.88,0,0,0,1.23-.06.93.93,0,0,0-.06-1.23,3.43,3.43,0,0,0-1.76-.82v-.64a.52.52,0,0,0-.56-.57.58.58,0,0,0-.56.56v.58A2.33,2.33,0,0,0,56,31.24a2,2,0,0,0,.66,1.55,5.35,5.35,0,0,0,2.45.84c.86,0,1.22.51,1.25.89a.82.82,0,0,1-.32.74,2,2,0,0,1-1.23.32,2.22,2.22,0,0,1-1.77-.66.91.91,0,0,0-1.23,0,.9.9,0,0,0,0,1.23,3.73,3.73,0,0,0,2.45,1.14v.46a.51.51,0,0,0,.56.55.53.53,0,0,0,.57-.57v-.45a3.71,3.71,0,0,0,2-.86,2.55,2.55,0,0,0,.74-1.9,2.3,2.3,0,0,0-.91-1.85A3.17,3.17,0,0,0,59.41,31.92Z"/><path class="cls-1" d="M104.68,41.6a7.22,7.22,0,0,0-8.09-.75,5.93,5.93,0,0,1-4.83.48A3.68,3.68,0,0,1,89.64,39a2.79,2.79,0,0,0-2.18-2,4.39,4.39,0,0,0-2.19.18,20.41,20.41,0,0,1,20.28-23.73c.39,0,.76,0,1.14.06-2.5,1.28-6.41,3.39-6.41,7.34,0,5.33,8,6.39,8.36,6.43,0,0,4.5.52,5.77,2.86a3.52,3.52,0,0,1-.22,3.34c-1.91,3.82-2.43,6.94-1.42,8.58a2.13,2.13,0,0,0,1.87,1.05,22.49,22.49,0,0,0,9.65-3.87l-.38-.87c-.17-.46-.47-1.41-.5-1.5a20.25,20.25,0,0,1-.5-3s0-.21,0-.23a14.23,14.23,0,0,1,3.55-9.22l.41-.46a24.12,24.12,0,0,0-21.33-13.45,23.56,23.56,0,1,0,13.62,42.75V49.33a20.48,20.48,0,0,1-11.74,5.1C109,48,107.1,43.63,104.68,41.6Z"/><path class="cls-1" d="M137.21,22a11.72,11.72,0,0,0-8.85,4v0a11.74,11.74,0,0,0-2.93,7.66s0,.1,0,.12a18.19,18.19,0,0,0,.41,2.46s.26.84.42,1.25c0,.11,1.26,2.88,1.64,3.59A104.27,104.27,0,0,0,137.21,55S149,40.3,149,33.79A11.79,11.79,0,0,0,137.21,22Zm0,18a5.67,5.67,0,1,1,5.67-5.67A5.67,5.67,0,0,1,137.21,40Z"/></g></svg>