<svg xmlns="http://www.w3.org/2000/svg" viewBox="0 0 200 90"><defs><style>.cls-1{fill:#1e5748;}</style></defs><title>flexiblePayment</title><g id="ARTWORK"><path class="cls-1" d="M94.32,35.75c-10.75,4.7-19.65,6-26.6,5.78h-.14C56,41.11,49.86,36.45,49.45,36.13a2.9,2.9,0,0,0-3.61,4.54c.44.35,7,5.4,19,6.46.89,9.49-.7,16.62-4.8,21.16a17.48,17.48,0,0,1-12.27,5.38,2.9,2.9,0,0,0-.21,5.8h.29a23.07,23.07,0,0,0,16.43-7.22,23.82,23.82,0,0,0,5-9c3.65,0,11.59,1.46,14.15,13.93a2.9,2.9,0,0,0,2.84,2.32,2.86,2.86,0,0,0,.58-.06A2.9,2.9,0,0,0,89.14,76C87,65.59,81.65,61,76.68,59V46.82a74,74,0,0,0,20-5.76,2.9,2.9,0,1,0-2.32-5.31Z"/><path class="cls-1" d="M71.1,38.4a6.34,6.34,0,1,0-6.34-6.33A6.32,6.32,0,0,0,71.1,38.4Z"/><path class="cls-1" d="M143.85,66.2H116.12a.92.92,0,0,0,0,1.83h27.73a.92.92,0,0,0,0-1.83Z"/><path class="cls-1" d="M115.21,49a.91.91,0,0,0,.91.91h27.73a.91.91,0,1,0,0-1.82H116.12A.91.91,0,0,0,115.21,49Z"/><path class="cls-1" d="M143.85,57.23H116.12a.92.92,0,0,0,0,1.83h27.73a.92.92,0,0,0,0-1.83Z"/><path class="cls-1" d="M154.28,25.89l-9-8.95-.08-.08L143.34,15a1.81,1.81,0,0,0-1.28-.53H108.94a3.36,3.36,0,0,0-3.34,3.37h0V76.47a3.36,3.36,0,0,0,3.33,3.37l42.54.16a3.36,3.36,0,0,0,3.34-3.37h0V29.28a2.44,2.44,0,0,0,0-.54V27.18A1.83,1.83,0,0,0,154.28,25.89Zm-3.11,50.47-41.89-.17V18.08h29.14v8.74a4,4,0,0,0,4,4h8.77Z"/><path class="cls-1" d="M119.41,40.88v.74a.83.83,0,0,0,.74.91h.17a.86.86,0,0,0,.91-.8v-.85a6.06,6.06,0,0,0,3.19-1.39,4.2,4.2,0,0,0,1.21-3.09,3.75,3.75,0,0,0-1.48-3,5.12,5.12,0,0,0-2.92-1.24l-1.6-.27c-.48-.07-1.07-.27-1.07-.85a1.21,1.21,0,0,1,1.28-1.11,3.57,3.57,0,0,1,2.36.73,1.42,1.42,0,0,0,2-.1,1.52,1.52,0,0,0-.1-2,5.6,5.6,0,0,0-2.86-1.33v-1a.84.84,0,0,0-.78-.91h-.13a.91.91,0,0,0-.91.91v.91A3.79,3.79,0,0,0,115.78,31a3.16,3.16,0,0,0,1.06,2.52,8.63,8.63,0,0,0,4,1.36c1.39.06,2,.83,2,1.45a1.3,1.3,0,0,1-.53,1.2,3.19,3.19,0,0,1-2,.52,3.66,3.66,0,0,1-2.91-1,1.49,1.49,0,0,0-2,0,1.46,1.46,0,0,0,0,2A6.05,6.05,0,0,0,119.41,40.88Z"/></g></svg>