<svg xmlns="http://www.w3.org/2000/svg" viewBox="0 0 200 90"><defs><style>.cls-1{fill:#1e5748;}</style></defs><title>flexibleMutualFundOptions</title><g id="ARTWORK"><path class="cls-1" d="M97.23,26.86c-13.08,5.72-23.89,7.31-32.35,7h-.16c-14-.5-21.55-6.17-22.05-6.56a3.53,3.53,0,0,0-4.39,5.52c.54.43,8.5,6.57,23.09,7.86,1.08,11.54-.85,20.21-5.83,25.73C49.49,73.13,40.74,73,40.59,73a3.53,3.53,0,0,0-.25,7h.36c2.08,0,12.37-.44,20-8.78a28.94,28.94,0,0,0,6.15-11c4.44,0,14.1,1.77,17.21,16.95A3.53,3.53,0,0,0,87.48,80a3.48,3.48,0,0,0,.71-.07,3.53,3.53,0,0,0,2.75-4.16c-2.59-12.64-9.12-18.26-15.16-20.71V40.33a89.78,89.78,0,0,0,24.28-7,3.53,3.53,0,1,0-2.83-6.46Z"/><path class="cls-1" d="M69,30.09a7.7,7.7,0,1,0-7.7-7.71A7.71,7.71,0,0,0,69,30.09Z"/><path class="cls-1" d="M162.08,18.11H148V15a5.1,5.1,0,0,0-5.09-5.09H131.55A5.1,5.1,0,0,0,126.46,15v3.15H112.35a2.22,2.22,0,0,0-2.21,2.21v37.1a2.22,2.22,0,0,0,2.21,2.21h49.73a2.22,2.22,0,0,0,2.21-2.21V20.32A2.22,2.22,0,0,0,162.08,18.11ZM129.85,15a1.7,1.7,0,0,1,1.7-1.7h11.32a1.7,1.7,0,0,1,1.7,1.7v3.15H129.85Zm-.1,34.78h-4.48V40.38L129.75,37Zm9,0-4.5,0V36.33l4.5,1.35Zm9,0-4.49,0V36.65l4.49-4.49Zm3-19.05a1,1,0,0,1-2.07,0s0,0,0,0V28.49l-7.57,7.57a1.16,1.16,0,0,1-1.28.16l-8.59-2.85-8.89,6.92A1,1,0,0,1,121,38.75l.13-.1,9.33-7.26a1,1,0,0,1,1.15-.1l8.52,2.84,7.11-7.1h-2.15a1,1,0,0,1-.29-2.07h5a1,1,0,0,1,1,1Z"/></g></svg>