<svg xmlns="http://www.w3.org/2000/svg" viewBox="0 0 200 90"><defs><style>.cls-1{fill:#1e5748;}.cls-2,.cls-3{fill:none;stroke:#1e5748;stroke-miterlimit:10;}.cls-2{stroke-width:3px;}.cls-3{stroke-width:2px;}</style></defs><title>flexibleMortgagePaymentFeaturesCalculator</title><g id="ARTWORK"><path class="cls-1" d="M68.22,36c-10.75,4.7-19.64,6-26.6,5.78h-.14c-11.55-.42-17.72-5.07-18.13-5.39a2.9,2.9,0,0,0-3.61,4.54c.44.35,7,5.4,19,6.47.89,9.49-.7,16.62-4.8,21.16a17.47,17.47,0,0,1-12.28,5.38,2.9,2.9,0,0,0-.21,5.79h.29a23.07,23.07,0,0,0,16.42-7.22,23.8,23.8,0,0,0,5.05-9c3.65,0,11.59,1.45,14.15,13.93a2.9,2.9,0,0,0,2.84,2.32,2.86,2.86,0,0,0,.59-.06A2.9,2.9,0,0,0,63,76.25c-2.13-10.39-7.49-15-12.46-17V47.09a73.82,73.82,0,0,0,20-5.76A2.9,2.9,0,1,0,68.22,36Z"/><path class="cls-1" d="M45,38.67a6.33,6.33,0,1,0-6.33-6.34A6.34,6.34,0,0,0,45,38.67Z"/><path class="cls-1" d="M117.75,65.93H90a.91.91,0,0,0,0,1.82h27.73a.91.91,0,1,0,0-1.82Z"/><path class="cls-1" d="M89.11,48.77a.91.91,0,0,0,.91.91h27.73a.91.91,0,1,0,0-1.82H90A.91.91,0,0,0,89.11,48.77Z"/><path class="cls-1" d="M117.75,57H90a.91.91,0,0,0,0,1.82h27.73a.91.91,0,1,0,0-1.82Z"/><path class="cls-1" d="M128.18,25.62l-9-9-.08-.07-1.88-1.87A1.82,1.82,0,0,0,116,14.2H82.84a3.35,3.35,0,0,0-3.33,3.37h0V76.2a3.35,3.35,0,0,0,3.32,3.37l42.55.16a3.35,3.35,0,0,0,3.33-3.37h0V29a1.82,1.82,0,0,0,0-.54V26.91A1.82,1.82,0,0,0,128.18,25.62Zm-3.11,50.47-41.89-.16V17.8h29.14v8.74a4,4,0,0,0,4,4h8.77Z"/><path class="cls-1" d="M93.31,40.61v.74a.83.83,0,0,0,.74.91h.17a.86.86,0,0,0,.91-.91v-.74a6,6,0,0,0,3.19-1.39,4.14,4.14,0,0,0,1.21-3.09,3.74,3.74,0,0,0-1.48-3,5.16,5.16,0,0,0-2.92-1.25l-1.6-.26c-.48-.07-1.07-.27-1.07-.85a1.2,1.2,0,0,1,1.27-1.11,3.57,3.57,0,0,1,2.37.73,1.42,1.42,0,0,0,2-.1,1.52,1.52,0,0,0-.1-2,5.58,5.58,0,0,0-2.86-1.33v-1a.85.85,0,0,0-.78-.91h-.13a.91.91,0,0,0-.91.91v.91a3.8,3.8,0,0,0-3.64,3.92,3.18,3.18,0,0,0,1.07,2.52,8.66,8.66,0,0,0,4,1.37c1.39.05,2,.83,2,1.45a1.33,1.33,0,0,1-.53,1.2,3.25,3.25,0,0,1-2,.52,3.64,3.64,0,0,1-2.9-1,1.48,1.48,0,0,0-2,0,1.46,1.46,0,0,0,0,2A6.06,6.06,0,0,0,93.31,40.61Z"/><rect class="cls-1" x="144.52" y="38.09" width="6.84" height="6.84" rx="0.25" ry="0.25"/><rect class="cls-1" x="154.8" y="38.09" width="6.84" height="6.84" rx="0.25" ry="0.25"/><rect class="cls-1" x="165.37" y="38.09" width="6.84" height="6.84" rx="0.25" ry="0.25"/><rect class="cls-1" x="144.23" y="50.89" width="6.84" height="6.84" rx="0.25" ry="0.25"/><rect class="cls-1" x="154.8" y="50.89" width="6.84" height="6.84" rx="0.25" ry="0.25"/><rect class="cls-1" x="165.37" y="50.89" width="6.84" height="6.84" rx="0.25" ry="0.25"/><rect class="cls-1" x="144.23" y="63.82" width="6.84" height="6.84" rx="0.25" ry="0.25"/><rect class="cls-1" x="154.8" y="63.82" width="6.84" height="6.84" rx="0.25" ry="0.25"/><rect class="cls-1" x="165.37" y="63.82" width="6.84" height="6.84" rx="0.25" ry="0.25"/><rect class="cls-2" x="138.02" y="15.79" width="40.39" height="62.29" rx="1" ry="1"/><rect class="cls-3" x="144.04" y="23" width="28.36" height="8.1" rx="1" ry="1"/></g></svg>