<svg xmlns="http://www.w3.org/2000/svg" viewBox="0 0 200 90"><defs><style>.cls-1{fill:#1e5748;}.cls-2,.cls-3,.cls-4{fill:none;stroke:#1e5748;stroke-linejoin:round;}.cls-2,.cls-3{stroke-width:3px;}.cls-3{stroke-linecap:round;}.cls-4{stroke-width:2px;}</style></defs><title>TDpublic_illustrations_200x90_02_CreditCards</title><g id="ARTWORK"><path class="cls-1" d="M50.27,52.55H28.57a1.2,1.2,0,0,0,0,2.39h21.7a1.2,1.2,0,0,0,0-2.39Z"/><path class="cls-1" d="M50.27,45.85H28.57a1.2,1.2,0,0,0,0,2.39h21.7a1.2,1.2,0,0,0,0-2.39Z"/><path class="cls-1" d="M50.27,59.24H28.57a1.2,1.2,0,0,0,0,2.39h21.7a1.2,1.2,0,0,0,0-2.39Z"/><path class="cls-2" d="M21.45,26.69a1.36,1.36,0,0,1,1.35-1.37h23L57.14,36.66l0,30.74a1.36,1.36,0,0,1-1.35,1.37l-33.11,0a1.36,1.36,0,0,1-1.35-1.37Z"/><path class="cls-1" d="M46.1,26.16H44.48v10.2a1.85,1.85,0,0,0,1.85,1.85h10.3l0-1.3Z"/><polyline class="cls-3" points="75.55 57.03 75.55 68.47 110.54 68.45 110.53 57"/><path class="cls-1" d="M101.27,53.65a.84.84,0,0,0-.61-1.41h-4l0-25.48a.84.84,0,0,0-.84-.84H90.29a.84.84,0,0,0-.84.84l0,25.48h-4a.84.84,0,0,0-.77.51.85.85,0,0,0-.07.33.84.84,0,0,0,.24.58l7.75,8a.84.84,0,0,0,1.22,0Z"/><path class="cls-4" d="M138.88,36.4l.06-14.32A1.07,1.07,0,0,1,140,21h18.06l9,8.92v6.25"/><path class="cls-1" d="M158.33,21.65h-1.27v8a1.45,1.45,0,0,0,1.46,1.45h8.1l0-1Z"/><path class="cls-2" d="M168.18,49.94V67.44a1,1,0,0,1-1,1l-28.19,0a1,1,0,0,1-1-1V50a1,1,0,0,1,1-1l28.19,0a1,1,0,0,1,1,1"/><rect class="cls-1" x="142.18" y="54.37" width="22.12" height="1.3" rx="0.62" ry="0.62"/><rect class="cls-1" x="142.18" y="57.99" width="22.12" height="1.3" rx="0.62" ry="0.62"/><rect class="cls-1" x="142.18" y="61.62" width="22.12" height="1.3" rx="0.62" ry="0.62"/><path class="cls-1" d="M179.9,37.84a3,3,0,0,0-3-3l-49.56,0a3,3,0,0,0-3,3V56a3,3,0,0,0,3,3h10.51V56H127.4V37.88l49.56,0v18.1h-8v3h8a3,3,0,0,0,3-3Z"/></g></svg>