<svg xmlns="http://www.w3.org/2000/svg" viewBox="0 0 200 90"><defs><style>.cls-1{fill:#1e5748;}</style></defs><title>flexibleTerms</title><g id="ARTWORK"><path class="cls-1" d="M43.78,36.72H40.05l3.46-3.46h0a1.69,1.69,0,1,0-2.4-2.4l-2.46,2.46-3.93,3.93a1.69,1.69,0,0,0,0,2.4l3.93,3.93L41.12,46a1.61,1.61,0,0,0,2.4,0,1.69,1.69,0,0,0,0-2.4h0l-3.46-3.53h3.73A18.69,18.69,0,0,1,60.42,50.36a28.53,28.53,0,0,1,1.73-3.86A22.08,22.08,0,0,0,43.78,36.72Z"/><path class="cls-1" d="M93.57,37.18l-3.93-3.93-2.4-2.46a1.69,1.69,0,0,0-2.4,2.4h0l3.46,3.46H84.59A22.34,22.34,0,0,0,66.15,46.5c-.07.13-.2.33-.27.47a21.93,21.93,0,0,0-1.73,3.26,21.42,21.42,0,0,0-1.73,8.52V78a1.73,1.73,0,1,0,3.46,0V58.75A18.65,18.65,0,0,1,84.52,40.11h3.73l-3.46,3.46h0a1.69,1.69,0,0,0,0,2.4,1.79,1.79,0,0,0,1.2.53,1.67,1.67,0,0,0,1.2-.53l2.46-2.46,3.93-3.93A1.58,1.58,0,0,0,93.57,37.18Z"/><path class="cls-1" d="M59,19.54l3.46-3.46v25.3a25.8,25.8,0,0,1,1.73,2.06,25.8,25.8,0,0,1,1.73-2.06V16.08l3.46,3.46a1.61,1.61,0,0,0,2.4,0,1.69,1.69,0,0,0,0-2.4l-6.39-6.39a1.69,1.69,0,0,0-2.4,0l-6.39,6.39a1.69,1.69,0,1,0,2.4,2.4Z"/><path class="cls-1" d="M161.71,23.71h-8v3.37a2.89,2.89,0,1,1-4.16,0V23.71h-29v3.37a2.89,2.89,0,1,1-4.16,0V23.71h-8.23A4.13,4.13,0,0,0,104,27.83V71.52a4.13,4.13,0,0,0,4.12,4.12h53.58a4.13,4.13,0,0,0,4.12-4.12V27.83A4.13,4.13,0,0,0,161.71,23.71Zm.82,47a1.65,1.65,0,0,1-1.65,1.65H109a1.65,1.65,0,0,1-1.65-1.65V35.25h55.23Z"/><rect class="cls-1" x="150.34" y="18.04" width="2.51" height="12.17" rx="1.09" ry="1.09"/><rect class="cls-1" x="117.18" y="18.04" width="2.51" height="12.17" rx="1.09" ry="1.09"/><path class="cls-1" d="M112.59,68.62h11.07a.85.85,0,0,0,.85-.85V57.55a.85.85,0,0,0-.85-.85H112.59a.85.85,0,0,0-.85.85V67.77A.85.85,0,0,0,112.59,68.62Zm0-11.07h11.07V67.77H112.59Z"/><path class="cls-1" d="M129.62,68.62h11.07a.85.85,0,0,0,.85-.85V57.55a.85.85,0,0,0-.85-.85H129.62a.85.85,0,0,0-.85.85V67.77A.85.85,0,0,0,129.62,68.62Zm0-11.07h11.07V67.77H129.62Z"/><path class="cls-1" d="M112.59,52.44h11.07a.85.85,0,0,0,.85-.85V41.37a.85.85,0,0,0-.85-.85H112.59a.85.85,0,0,0-.85.85V51.59A.85.85,0,0,0,112.59,52.44Zm0-11.07h11.07V51.59H112.59Z"/><path class="cls-1" d="M129.62,52.44h11.07a.85.85,0,0,0,.85-.85V41.37a.85.85,0,0,0-.85-.85H129.62a.85.85,0,0,0-.85.85V51.59A.85.85,0,0,0,129.62,52.44Zm0-11.07h11.07V51.59H129.62Z"/><path class="cls-1" d="M146.65,52.44h11.07a.85.85,0,0,0,.85-.85V41.37a.85.85,0,0,0-.85-.85H146.65a.85.85,0,0,0-.85.85V51.59A.85.85,0,0,0,146.65,52.44Zm0-11.07h11.07V51.59H146.65Z"/><path class="cls-1" d="M146.65,68.62h11.07a.85.85,0,0,0,.85-.85V57.55a.85.85,0,0,0-.85-.85H146.65a.85.85,0,0,0-.85.85V67.77A.85.85,0,0,0,146.65,68.62Zm0-11.07h11.07V67.77H146.65Z"/><rect class="cls-1" x="112.21" y="41.14" width="11.83" height="10.83"/></g></svg>