<svg xmlns="http://www.w3.org/2000/svg" viewBox="0 0 200 90"><defs><style>.cls-1{fill:#1e5748;}</style></defs><title>TDpublic_illustrations_200x90_01_Accounts</title><g id="ARTWORK"><g id="Layer_20" data-name="Layer 20"><path class="cls-1" d="M149.67,57.94c0,2.15-4.48,3.92-9.9,3.92s-9.9-1.77-9.9-3.92v3.92c0,2.15,4.48,3.92,9.9,3.92s9.9-1.77,9.9-3.92Z"/><path class="cls-1" d="M139.68,59.9c5.51,0,9.9-1.77,9.9-3.92V52.06c0,2.15-4.48,3.92-9.9,3.92s-9.9-1.77-9.9-3.92V56C129.77,58.13,134.26,59.9,139.68,59.9Z"/><path class="cls-1" d="M139.68,54c5.51,0,9.9-1.77,9.9-3.92V46.17c0,2.15-4.48,3.92-9.9,3.92a16.72,16.72,0,0,1-8.41-1.87,2.61,2.61,0,0,1-1.49-2.06V50.1C129.77,52.24,134.26,54,139.68,54Z"/><path class="cls-1" d="M139.68,48c5.51,0,9.9-1.77,9.9-3.92V40.19c0,2.15-4.48,3.92-9.9,3.92a16.72,16.72,0,0,1-8.41-1.87,2.61,2.61,0,0,1-1.49-2.06v3.92C129.77,46.26,134.26,48,139.68,48Z"/><path class="cls-1" d="M131.36,40.29c1.77,1.12,4.86,1.77,8.31,1.77,5.51,0,9.9-1.77,9.9-3.92s-4.39-4-9.9-4A16.59,16.59,0,0,0,131.36,36a3.17,3.17,0,0,0-1.59,1.87v.28a2.35,2.35,0,0,0,.56,1.31C130.71,39.73,131,40,131.36,40.29Z"/><path class="cls-1" d="M174,57.94c0,2.15-4.48,3.92-9.9,3.92s-9.9-1.77-9.9-3.92v3.92c0,2.15,4.48,3.92,9.9,3.92S174,64,174,61.87Z"/><path class="cls-1" d="M164,59.9c5.51,0,9.9-1.77,9.9-3.92V52.06c0,2.15-4.48,3.92-9.9,3.92s-9.9-1.77-9.9-3.92V56C154.06,58.13,158.55,59.9,164,59.9Z"/><path class="cls-1" d="M164,54c5.51,0,9.9-1.77,9.9-3.92V46.17c0,2.15-4.48,3.92-9.9,3.92a16.72,16.72,0,0,1-8.41-1.87,2.61,2.61,0,0,1-1.49-2.06V50.1C154.06,52.24,158.55,54,164,54Z"/><path class="cls-1" d="M164,48c5.51,0,9.9-1.77,9.9-3.92V40.19c0,2.15-4.48,3.92-9.9,3.92a16.72,16.72,0,0,1-8.41-1.87,2.61,2.61,0,0,1-1.49-2.06v3.92C154.06,46.26,158.55,48,164,48Z"/><path class="cls-1" d="M164,41.85c5.51,0,9.9-1.77,9.9-3.92V34c0,2.15-4.48,3.92-9.9,3.92a16.72,16.72,0,0,1-8.41-1.87A2.61,2.61,0,0,1,154.06,34v3.92C154.06,40.08,158.55,41.85,164,41.85Z"/><path class="cls-1" d="M155.65,34.1c1.77,1.12,4.86,1.77,8.31,1.77,5.51,0,9.9-1.77,9.9-3.92s-4.39-4-9.9-4a16.59,16.59,0,0,0-8.31,1.87,3.17,3.17,0,0,0-1.59,1.87v.28a2.35,2.35,0,0,0,.56,1.31C155,33.54,155.28,33.82,155.65,34.1Z"/><path class="cls-1" d="M126,57.94c0,2.15-4.48,3.92-9.9,3.92s-9.9-1.68-9.9-3.92v3.92c0,2.15,4.48,3.92,9.9,3.92S126,64,126,61.87Z"/><path class="cls-1" d="M116.13,59.9c5.51,0,9.9-1.77,9.9-3.92V52.06c0,2.15-4.48,3.92-9.9,3.92s-9.9-1.77-9.9-4v3.92C106.23,58.13,110.62,59.9,116.13,59.9Z"/><path class="cls-1" d="M116.13,54c5.51,0,9.9-1.77,9.9-3.92V46.17c0,2.15-4.48,3.92-9.9,3.92a16.72,16.72,0,0,1-8.41-1.87,2.61,2.61,0,0,1-1.49-2.06V50.1C106.23,52.24,110.62,54,116.13,54Z"/><path class="cls-1" d="M107.82,45.89c1.77,1.12,4.86,1.77,8.31,1.77,5.51,0,9.9-1.77,9.9-3.92s-4.48-3.92-9.9-3.92a16.59,16.59,0,0,0-8.31,1.87,3.17,3.17,0,0,0-1.59,1.87v.28a2.35,2.35,0,0,0,.56,1.31C107.07,45.33,107.45,45.61,107.82,45.89Z"/><path class="cls-1" d="M61,13.63a31.27,31.27,0,0,1,20,7.13L76.44,21a1.75,1.75,0,0,0,.11,3.5h.11L85.42,24A1.75,1.75,0,0,0,87,21.91l-1.66-8.63a1.75,1.75,0,0,0-3.45.66l.72,3.73A35,35,0,0,0,25.94,45.14a1.75,1.75,0,0,0,3.51,0A31.51,31.51,0,0,1,61,13.63Z"/><path class="cls-1" d="M94.26,43.18a1.75,1.75,0,0,0-1.75,1.75A31.51,31.51,0,0,1,41.05,69.33L45.78,69a1.75,1.75,0,1,0-.22-3.5l-8.77.55a1.75,1.75,0,0,0-1.61,2.08l1.66,8.63a1.76,1.76,0,0,0,1.72,1.42,1.86,1.86,0,0,0,.33,0,1.76,1.76,0,0,0,1.39-2.06l-.68-3.51A35,35,0,0,0,96,44.94,1.75,1.75,0,0,0,94.26,43.18Z"/><path class="cls-1" d="M60.18,25.1c0-.18-.12-.3-.3-.24-2.73.83-5.11,4.34-6.54,9.33a.23.23,0,0,0,.18.3,43.43,43.43,0,0,0,6.42.65.26.26,0,0,0,.24-.24Z"/><path class="cls-1" d="M62,43.76a.26.26,0,0,0,.24.24H70a.26.26,0,0,0,.24-.24,35.73,35.73,0,0,0-.89-7.37c0-.12-.12-.18-.24-.18a41.59,41.59,0,0,1-6.89.71.26.26,0,0,0-.24.24Z"/><path class="cls-1" d="M60.18,37.17a.26.26,0,0,0-.24-.24,41.58,41.58,0,0,1-6.89-.71c-.12,0-.24.06-.24.18a46.31,46.31,0,0,0-.89,7.37.26.26,0,0,0,.24.24h7.79a.26.26,0,0,0,.24-.24Z"/><path class="cls-1" d="M62.26,24.86c-.18-.06-.3.06-.3.24v9.81a.26.26,0,0,0,.24.24,43.43,43.43,0,0,0,6.42-.65.23.23,0,0,0,.18-.3C67.37,29.2,65,25.7,62.26,24.86Z"/><path class="cls-1" d="M78.54,33c-.06-.12-.18-.12-.3-.06a27.33,27.33,0,0,1-6.89,2.79c-.12.06-.18.12-.18.24a39.44,39.44,0,0,1,.89,7.78c-.06.12.06.24.18.24h9.69a.26.26,0,0,0,.24-.24A21.53,21.53,0,0,0,78.54,33Z"/><path class="cls-1" d="M78.49,56.78A20.44,20.44,0,0,0,82.11,46a.26.26,0,0,0-.24-.24H72.25A.26.26,0,0,0,72,46a39.44,39.44,0,0,1-.89,7.79c0,.12.06.24.18.24a27.33,27.33,0,0,1,6.89,2.79C78.31,56.9,78.43,56.9,78.49,56.78Z"/><path class="cls-1" d="M43.66,56.78c.06.12.18.12.3.06A27.33,27.33,0,0,1,50.85,54c.12-.06.18-.12.18-.24A39.44,39.44,0,0,1,50.14,46a.26.26,0,0,0-.24-.24H40.21A.26.26,0,0,0,40,46,21,21,0,0,0,43.66,56.78Z"/><path class="cls-1" d="M43.66,33A20.44,20.44,0,0,0,40,43.76a.26.26,0,0,0,.24.24H50a.27.27,0,0,0,.18-.24A39.44,39.44,0,0,1,51,36c0-.12-.06-.24-.18-.24A27.33,27.33,0,0,1,44,32.95C43.84,32.89,43.72,32.89,43.66,33Z"/><path class="cls-1" d="M51.56,33.78c1.13-4,2.91-7.25,5.11-9.09a.24.24,0,0,0-.18-.42A21.52,21.52,0,0,0,45,31.16a.22.22,0,0,0,.06.36A22.73,22.73,0,0,0,51.27,34C51.39,34,51.5,33.9,51.56,33.78Z"/><path class="cls-1" d="M70.64,33.84a.18.18,0,0,0,.24.12,22.73,22.73,0,0,0,6.18-2.44.22.22,0,0,0,.06-.36,21.13,21.13,0,0,0-11.41-6.83c-.24-.06-.36.24-.18.42C67.67,26.59,69.45,29.8,70.64,33.84Z"/><path class="cls-1" d="M60.18,46a.26.26,0,0,0-.24-.24H52.16a.26.26,0,0,0-.24.24,35.74,35.74,0,0,0,.89,7.37c0,.12.12.18.24.18a41.6,41.6,0,0,1,6.89-.71.26.26,0,0,0,.24-.24Z"/><path class="cls-1" d="M65.65,65.51a21.13,21.13,0,0,0,11.41-6.83.22.22,0,0,0-.06-.36,22.73,22.73,0,0,0-6.18-2.44c-.06-.12-.18,0-.24.12-1.13,4-2.91,7.25-5.11,9.09A.24.24,0,0,0,65.65,65.51Z"/><path class="cls-1" d="M56.44,65.45c.24.06.36-.24.18-.42C54.48,63.2,52.69,60,51.5,55.95a.18.18,0,0,0-.24-.12,22.73,22.73,0,0,0-6.18,2.44.22.22,0,0,0-.06.36A21.13,21.13,0,0,0,56.44,65.45Z"/><path class="cls-1" d="M62,52.62a.26.26,0,0,0,.24.24,41.6,41.6,0,0,1,6.89.71c.12,0,.24-.06.24-.18A46.31,46.31,0,0,0,70.22,46a.26.26,0,0,0-.24-.24H62.2A.26.26,0,0,0,62,46Z"/><path class="cls-1" d="M59.88,64.92c.18.06.3-.06.3-.24V54.88a.26.26,0,0,0-.24-.24,43.43,43.43,0,0,0-6.42.65.23.23,0,0,0-.18.3C54.77,60.52,57.15,64.09,59.88,64.92Z"/><path class="cls-1" d="M62,64.68c0,.18.12.3.3.24,2.73-.83,5.11-4.34,6.54-9.33a.23.23,0,0,0-.18-.3,43.43,43.43,0,0,0-6.42-.65.26.26,0,0,0-.24.24Z"/></g></g></svg>