<svg xmlns="http://www.w3.org/2000/svg" viewBox="0 0 200 90"><defs><style>.cls-1{fill:#1e5748;}</style></defs><title>foreignCurrencyServices</title><g id="Calculate_foreign_currency" data-name="Calculate foreign currency"><path class="cls-1" d="M149.71,58c0,2.15-4.48,3.92-9.9,3.92s-9.9-1.77-9.9-3.92v3.92c0,2.15,4.48,3.92,9.9,3.92s9.9-1.77,9.9-3.92Z"/><path class="cls-1" d="M139.71,60c5.51,0,9.9-1.77,9.9-3.92v-4c0,2.15-4.48,3.92-9.9,3.92s-9.9-1.77-9.9-3.92V56C129.81,58.2,134.3,60,139.71,60Z"/><path class="cls-1" d="M139.71,54.09c5.51,0,9.9-1.77,9.9-3.92V46.24c0,2.15-4.48,3.92-9.9,3.92a16.72,16.72,0,0,1-8.41-1.87,2.61,2.61,0,0,1-1.49-2.06v3.92C129.81,52.31,134.3,54.09,139.71,54.09Z"/><path class="cls-1" d="M139.71,48.11c5.51,0,9.9-1.77,9.9-3.92V40.26c0,2.15-4.48,3.92-9.9,3.92a16.72,16.72,0,0,1-8.41-1.87,2.61,2.61,0,0,1-1.49-2.06v3.92C129.81,46.33,134.3,48.11,139.71,48.11Z"/><path class="cls-1" d="M131.4,40.35c1.77,1.12,4.86,1.77,8.31,1.77,5.51,0,9.9-1.77,9.9-3.92s-4.39-4-9.9-4a16.59,16.59,0,0,0-8.31,1.87,3.17,3.17,0,0,0-1.59,1.87v.28a2.35,2.35,0,0,0,.56,1.31C130.75,39.79,131,40.07,131.4,40.35Z"/><path class="cls-1" d="M174,58c0,2.15-4.48,3.92-9.9,3.92s-9.9-1.77-9.9-3.92v3.92c0,2.15,4.48,3.92,9.9,3.92s9.9-1.77,9.9-3.92Z"/><path class="cls-1" d="M164,60c5.51,0,9.9-1.77,9.9-3.92v-4c0,2.15-4.48,3.92-9.9,3.92s-9.9-1.77-9.9-3.92V56C154.12,58.2,158.59,60,164,60Z"/><path class="cls-1" d="M164,54.09c5.51,0,9.9-1.77,9.9-3.92V46.24c0,2.15-4.48,3.92-9.9,3.92a16.72,16.72,0,0,1-8.41-1.87,2.61,2.61,0,0,1-1.47-2.05v3.92C154.12,52.31,158.59,54.09,164,54.09Z"/><path class="cls-1" d="M164,48.11c5.51,0,9.9-1.77,9.9-3.92V40.26c0,2.15-4.48,3.92-9.9,3.92a16.72,16.72,0,0,1-8.41-1.87,2.61,2.61,0,0,1-1.47-2.05v3.92C154.12,46.33,158.59,48.11,164,48.11Z"/><path class="cls-1" d="M164,41.92c5.51,0,9.9-1.77,9.9-3.92V34.07c0,2.15-4.48,3.92-9.9,3.92a16.72,16.72,0,0,1-8.41-1.87,2.61,2.61,0,0,1-1.47-2V38C154.12,40.14,158.59,41.92,164,41.92Z"/><path class="cls-1" d="M155.69,34.17c1.77,1.12,4.86,1.77,8.31,1.77,5.51,0,9.9-1.77,9.9-3.92s-4.39-4-9.9-4a16.59,16.59,0,0,0-8.31,1.87,3.17,3.17,0,0,0-1.57,1.85V32a2.35,2.35,0,0,0,.56,1.31C155,33.61,155.32,33.89,155.69,34.17Z"/><path class="cls-1" d="M126.12,58c0,2.15-4.48,3.92-9.9,3.92s-9.9-1.68-9.9-3.92v3.92c0,2.15,4.48,3.92,9.9,3.92s9.9-1.77,9.9-3.92Z"/><path class="cls-1" d="M116.17,60c5.51,0,9.9-1.77,9.9-3.92v-4c0,2.15-4.48,3.92-9.9,3.92s-9.9-1.77-9.9-4V56C106.27,58.2,110.66,60,116.17,60Z"/><path class="cls-1" d="M116.17,54.09c5.51,0,9.9-1.77,9.9-3.92V46.24c0,2.15-4.48,3.92-9.9,3.92a16.72,16.72,0,0,1-8.41-1.87,2.61,2.61,0,0,1-1.49-2.06v3.92C106.27,52.31,110.66,54.09,116.17,54.09Z"/><path class="cls-1" d="M107.86,46c1.77,1.12,4.86,1.77,8.31,1.77,5.51,0,9.9-1.77,9.9-3.92s-4.48-3.92-9.9-3.92a16.59,16.59,0,0,0-8.31,1.87,3.17,3.17,0,0,0-1.59,1.87v.23a2.35,2.35,0,0,0,.56,1.31A11.53,11.53,0,0,1,107.86,46Z"/><path class="cls-1" d="M61,13.7a31.27,31.27,0,0,1,20,7.13l-4.48.28a1.75,1.75,0,1,0,.11,3.5h.11l8.77-.55A1.75,1.75,0,0,0,87.12,22l-1.66-8.63A1.76,1.76,0,1,0,82,14h0l.72,3.73A35,35,0,0,0,26,45.2a1.76,1.76,0,1,0,3.51,0A31.51,31.51,0,0,1,61,13.7Z"/><path class="cls-1" d="M94.3,43.25A1.75,1.75,0,0,0,92.54,45h0A31.51,31.51,0,0,1,41.12,69.4l4.72-.29a1.75,1.75,0,1,0-.22-3.5h0l-8.77.55a1.75,1.75,0,0,0-1.61,2.08l1.66,8.63a1.76,1.76,0,0,0,1.72,1.42h.33a1.76,1.76,0,0,0,1.37-2.08h0l-.68-3.51A35,35,0,0,0,96,45a1.75,1.75,0,0,0-1.75-1.75Z"/><path class="cls-1" d="M60.22,25.17a.22.22,0,0,0-.3-.24c-2.73.83-5.11,4.34-6.54,9.33a.23.23,0,0,0,.14.29h0a43.43,43.43,0,0,0,6.42.65.26.26,0,0,0,.24-.21Z"/><path class="cls-1" d="M62,43.83a.26.26,0,0,0,.24.24H70a.26.26,0,0,0,.24-.24,35.73,35.73,0,0,0-.89-7.37.21.21,0,0,0-.23-.18h0a41.59,41.59,0,0,1-6.89.71.26.26,0,0,0-.24.24v6.6Z"/><path class="cls-1" d="M60.22,37.23A.26.26,0,0,0,60,37a41.58,41.58,0,0,1-6.86-.72.21.21,0,0,0-.24.18h0A46.31,46.31,0,0,0,52,43.83a.26.26,0,0,0,.24.24H60a.26.26,0,0,0,.24-.24v-6.6Z"/><path class="cls-1" d="M62.3,24.93a.22.22,0,0,0-.3.24V35a.26.26,0,0,0,.24.24,43.43,43.43,0,0,0,6.42-.65.23.23,0,0,0,.19-.26v0C67.41,29.27,65,25.77,62.3,24.93Z"/><path class="cls-1" d="M78.58,33.07a.2.2,0,0,0-.27-.08l0,0a27.33,27.33,0,0,1-6.89,2.79.25.25,0,0,0-.18.24,39.44,39.44,0,0,1,.91,7.79.18.18,0,0,0,.11.23H82a.26.26,0,0,0,.24-.24A21.53,21.53,0,0,0,78.58,33.07Z"/><path class="cls-1" d="M78.52,56.85a20.44,20.44,0,0,0,3.6-10.76.26.26,0,0,0-.24-.24h-9.6a.26.26,0,0,0-.24.24,39.44,39.44,0,0,1-.92,7.78.21.21,0,0,0,.18.24h0a27.33,27.33,0,0,1,6.89,2.79.2.2,0,0,0,.28,0Z"/><path class="cls-1" d="M43.7,56.85a.2.2,0,0,0,.27.08l0,0a27.33,27.33,0,0,1,6.89-2.79.25.25,0,0,0,.18-.24,39.44,39.44,0,0,1-.89-7.79.26.26,0,0,0-.24-.24H40.25a.26.26,0,0,0-.24.24A21,21,0,0,0,43.7,56.85Z"/><path class="cls-1" d="M43.7,33.07a20.44,20.44,0,0,0-3.58,10.76.26.26,0,0,0,.24.24H50a.27.27,0,0,0,.18-.24A39.44,39.44,0,0,1,51.07,36a.21.21,0,0,0-.18-.24h0A27.33,27.33,0,0,1,44,33a.2.2,0,0,0-.28,0Z"/><path class="cls-1" d="M51.6,33.85c1.13-4,2.91-7.25,5.11-9.09a.24.24,0,0,0-.18-.42,21.52,21.52,0,0,0-11.47,6.89.22.22,0,0,0,0,.31l.07,0A22.73,22.73,0,0,0,51.3,34,.25.25,0,0,0,51.6,33.85Z"/><path class="cls-1" d="M70.68,33.91a.18.18,0,0,0,.22.13h0a22.73,22.73,0,0,0,6.2-2.44.22.22,0,0,0,.05-.31l-.05-.05A21.13,21.13,0,0,0,65.75,24.4a.23.23,0,0,0-.18.42C67.71,26.66,69.49,29.87,70.68,33.91Z"/><path class="cls-1" d="M60.22,46.09a.26.26,0,0,0-.24-.24H52.2a.26.26,0,0,0-.24.24,35.74,35.74,0,0,0,.89,7.37.21.21,0,0,0,.24.18h0A41.6,41.6,0,0,1,60,52.93a.26.26,0,0,0,.24-.24Z"/><path class="cls-1" d="M65.69,65.58a21.13,21.13,0,0,0,11.43-6.83.22.22,0,0,0,0-.31l-.07,0A22.73,22.73,0,0,0,70.86,56c-.06-.12-.18,0-.24.12-1.13,4-2.91,7.25-5.11,9.09a.24.24,0,0,0,.18.37Z"/><path class="cls-1" d="M56.48,65.52a.23.23,0,0,0,.18-.42c-2.14-1.84-3.92-5-5.11-9.09a.18.18,0,0,0-.22-.13h0a22.73,22.73,0,0,0-6.19,2.44.22.22,0,0,0-.11.29l0,.07A21.13,21.13,0,0,0,56.48,65.52Z"/><path class="cls-1" d="M62,52.69a.26.26,0,0,0,.24.24,41.6,41.6,0,0,1,6.89.71.21.21,0,0,0,.24-.18h0a46.31,46.31,0,0,0,.89-7.37.26.26,0,0,0-.24-.24H62.24a.26.26,0,0,0-.24.24Z"/><path class="cls-1" d="M59.92,65a.22.22,0,0,0,.3-.24V54.94A.26.26,0,0,0,60,54.7a43.43,43.43,0,0,0-6.42.65.23.23,0,0,0-.19.26v0C54.81,60.59,57.19,64.16,59.92,65Z"/><path class="cls-1" d="M62,64.75a.22.22,0,0,0,.3.24c2.73-.83,5.11-4.34,6.54-9.33a.23.23,0,0,0-.14-.29h0a43.43,43.43,0,0,0-6.42-.65.26.26,0,0,0-.24.24v9.81Z"/></g></svg>