<svg xmlns="http://www.w3.org/2000/svg" viewBox="0 0 200 90"><title>foreignInterest</title><g id="e77499c3-6d92-4068-a303-4a57e4332188" data-name="ARTWORK"><path d="M114.24,31.33c0-4.72,3.76-6.11,7.64-6.11s7.64,1.39,7.64,6.11V44.07c0,4.72-3.76,6.11-7.64,6.11s-7.64-1.39-7.64-6.11ZM120.59,45c0,.8.17,1.6,1.29,1.6s1.29-.8,1.29-1.6V30.68c0-.8-.17-1.6-1.29-1.6s-1.29.8-1.29,1.6Zm19.5-19.82h4.52L128.22,65.06h-4.46Zm-1.29,21c0-4.71,3.76-6.1,7.63-6.1s7.64,1.39,7.64,6.1V59c0,4.71-3.76,6.1-7.64,6.1s-7.63-1.39-7.63-6.1Zm6.34,13.39c0,.81.18,1.61,1.29,1.61s1.29-.8,1.29-1.61V45.25c0-.8-.17-1.61-1.29-1.61s-1.29.81-1.29,1.61Z" style="fill:#1e5748"/><path d="M47.24,44.58A26.86,26.86,0,1,1,74,71.59,26.87,26.87,0,0,1,47.24,44.58Z" style="fill:none;stroke:#1e5748;stroke-miterlimit:10;stroke-width:3px"/><path d="M60.07,44.62c.09-14.83,5.38-26.81,14.18-26.76S87.65,30,87.57,44.8,82.73,71.6,73.94,71.56,60,59.45,60.07,44.62Z" style="fill:none;stroke:#1e5748;stroke-miterlimit:10;stroke-width:3px"/><line x1="74.25" y1="18.07" x2="73.94" y2="72.43" style="fill:none;stroke:#1e5748;stroke-miterlimit:10;stroke-width:3px"/><path d="M49.41,33.29s7.45,3.2,24.31,3.3,24.67-3,24.67-3" style="fill:none;stroke:#1e5748;stroke-miterlimit:10;stroke-width:3px"/><path d="M50,58.58s7.3-3.12,23.79-3,24.08,3.3,24.08,3.3" style="fill:none;stroke:#1e5748;stroke-miterlimit:10;stroke-width:3px"/></g></svg>