<svg xmlns="http://www.w3.org/2000/svg" viewBox="0 0 200 90"><defs><style>.cls-1,.cls-2{fill:none;stroke-linejoin:round;}.cls-1,.cls-2,.cls-3{stroke:#1e5748;stroke-width:2px;}.cls-2{stroke-linecap:round;}.cls-3,.cls-4{fill:#1e5748;}.cls-3{stroke-miterlimit:10;}.cls-5{fill:#1e5748;}</style></defs><title>TDpublic_illustrations_200x90_02_CreditCards</title><g id="ARTWORK"><path class="cls-1" d="M70.5,24.58l61.79,0-.07,33.9a1.84,1.84,0,0,1-1.82,1.85l-58.3,0a1.84,1.84,0,0,1-1.82-1.85Z"/><line class="cls-2" x1="109.64" y1="42.45" x2="132.17" y2="25.01"/><line class="cls-2" x1="70.52" y1="25.05" x2="94.17" y2="43.31"/><line class="cls-3" x1="70.79" y1="58.85" x2="89.88" y2="41.06"/><line class="cls-3" x1="131.58" y1="59.27" x2="111.73" y2="40.94"/><path class="cls-4" d="M101.27,36.47a2.14,2.14,0,0,0-2.15,2.15v1.33h4.29V38.61A2.14,2.14,0,0,0,101.27,36.47Z"/><path class="cls-5" d="M101.28,29.65a11.83,11.83,0,1,0,11.83,11.83A11.83,11.83,0,0,0,101.28,29.65Zm4.82,16.83a1,1,0,0,1-1,1h-7.7a1,1,0,0,1-1-1V40.93a1,1,0,0,1,1-1h.1V38.58a3.81,3.81,0,1,1,7.63,0v1.33h0a1,1,0,0,1,1,1Z"/><path class="cls-4" d="M113.08,72.83c-1,0-2.13.88-3.27,1-2,.25-6.94.18-9.73.19s-7.69.06-9.73-.19c-1.14-.14-2.28-1-3.27-1-11.51,0-31.49,0-43,0v2a4.68,4.68,0,0,0,5,5h102a4.68,4.68,0,0,0,5-5v-2C144.57,72.84,124.6,72.85,113.08,72.83Z"/><path class="cls-5" d="M55.06,70.83h90s0-35.78,0-51.73c0-3.26-2.1-5.26-5.44-5.26-23.8,0-55.77,0-79.56,0-2.57,0-5.17,1.38-5.13,5C55.09,34.63,55.06,70.83,55.06,70.83Zm4-52.75a1.7,1.7,0,0,1,1-.24h79.56c1.37,0,1.44.46,1.44,1.27,0,12.47,0,38.48,0,47.72h-82c0-9.34,0-35.66-.12-48.06A1.29,1.29,0,0,1,59.06,18.09Z"/></g></svg>