<svg xmlns="http://www.w3.org/2000/svg" viewBox="0 0 200 90"><defs><style>.cls-1{fill:#1e5748;}</style></defs><title>fundingInvestments</title><g id="ARTWORK"><path class="cls-1" d="M115.24,53.66V50c0,2-4.1,3.67-9.15,3.67-.63,0-1.24,0-1.83-.07v3.66c.59,0,1.2.07,1.83.07C111.14,57.32,115.24,55.68,115.24,53.66Z"/><path class="cls-1" d="M115.24,55.49c0,2-4.1,3.67-9.15,3.67-.63,0-1.24,0-1.83-.07v3.66c.59,0,1.2.07,1.83.07,5.06,0,9.15-1.65,9.15-3.67Z"/><ellipse class="cls-1" cx="106.07" cy="37.19" rx="9.16" ry="3.66" transform="translate(-0.04 0.11) rotate(-0.06)"/><path class="cls-1" d="M115.23,42.67V39c0,2-4.1,3.67-9.15,3.67S96.92,41.05,96.91,39v3.66A1.51,1.51,0,0,0,97,43c3,.53,5.39,1.7,6.54,3.18a22.14,22.14,0,0,0,2.58.15C111.13,46.34,115.23,44.69,115.23,42.67Z"/><path class="cls-1" d="M115.23,48.16V44.5c0,2-4.1,3.67-9.15,3.67-.63,0-1.24,0-1.84-.07,0,0,0,0,0,.07v3.59c.59,0,1.2.07,1.83.07C111.14,51.83,115.24,50.19,115.23,48.16Z"/><path class="cls-1" d="M93.28,62.84c5.06,0,9.15-1.65,9.15-3.67V55.5c0,2-4.1,3.67-9.15,3.67s-9.16-1.63-9.16-3.65v3.66C84.12,61.21,88.22,62.84,93.28,62.84Z"/><path class="cls-1" d="M93.28,64.67c-5.06,0-9.16-1.63-9.16-3.65v3.66c0,2,4.1,3.66,9.16,3.65s9.15-1.65,9.15-3.67V61C102.43,63,98.33,64.66,93.28,64.67Z"/><path class="cls-1" d="M93.27,57.34c5.06,0,9.15-1.65,9.15-3.67V50c0,2-4.1,3.67-9.15,3.67S84.11,52.05,84.11,50v3.66C84.11,55.71,88.21,57.35,93.27,57.34Z"/><ellipse class="cls-1" cx="93.26" cy="48.19" rx="9.16" ry="3.66" transform="translate(-0.05 0.1) rotate(-0.06)"/><polygon class="cls-1" points="132.12 68.32 140.41 68.32 140.41 44.69 132.12 50.98 132.12 68.32"/><polygon class="cls-1" points="148.81 68.32 157.15 68.35 157.15 45.97 148.81 43.47 148.81 68.32"/><path class="cls-1" d="M177.51,20.33h-9.19a1.94,1.94,0,0,0,.54,3.84h4L159.68,37.32l-15.79-5.25a1.87,1.87,0,0,0-2.13.18L124.47,45.69a1.92,1.92,0,1,0,2.34,3l16.48-12.82,15.91,5.28a2.15,2.15,0,0,0,2.37-.3l14-14v4s0,0,0,.05a1.92,1.92,0,0,0,3.84-.05V22.25A1.92,1.92,0,0,0,177.51,20.33Z"/><polygon class="cls-1" points="165.57 68.32 173.9 68.26 173.9 35.73 165.57 44.06 165.57 68.32"/><path class="cls-1" d="M63.54,68.37H42.94a4,4,0,0,1-4-4L39,25.31H67.44l.07,39.08A4,4,0,0,1,63.54,68.37Zm-22-40.6-.07,36.62a1.52,1.52,0,0,0,1.52,1.51h20.6a1.52,1.52,0,0,0,1.52-1.52L65,27.77Z"/><path class="cls-1" d="M54.08,45.24a.82.82,0,0,0-.24-.6.86.86,0,0,0-.62-.26.87.87,0,0,0-.85.85v1.11a3.92,3.92,0,0,0-3.88,4A3.28,3.28,0,0,0,49.58,53,5.22,5.22,0,0,0,52,54.12l1.71.27a2.9,2.9,0,0,1,1.68.63c.53.45.57.7.57,1a1.6,1.6,0,0,1-.6,1.37,3.57,3.57,0,0,1-2.19.58,3.92,3.92,0,0,1-3.14-1.18,1.36,1.36,0,0,0-1-.4h0a1.38,1.38,0,0,0-1,2.35,6.38,6.38,0,0,0,4.25,2v.89a.86.86,0,0,0,.26.6.81.81,0,0,0,.58.24h0a.88.88,0,0,0,.59-.25.87.87,0,0,0,.24-.61v-.89a5.84,5.84,0,0,0,3-1.09A4.15,4.15,0,0,0,58.75,56a3.86,3.86,0,0,0-1.53-3.1,5.46,5.46,0,0,0-3-1.26l-1.7-.28a2.44,2.44,0,0,1-1.13-.53.75.75,0,0,1-.1-.48,1.26,1.26,0,0,1,.34-.93,1.64,1.64,0,0,1,1.13-.37,3.92,3.92,0,0,1,2.6.8,1.38,1.38,0,0,0,1.85-2.05,6.06,6.06,0,0,0-3.07-1.39Z"/><path class="cls-1" d="M46.81,38.73a1.17,1.17,0,0,1,.35-.84l5.41-5.26a1.22,1.22,0,0,1,.83-.33,1.12,1.12,0,0,1,.82.35l5.1,5.26a1.17,1.17,0,1,1-1.67,1.63l-4.29-4.42-4.57,4.44a1.17,1.17,0,0,1-2-.84Z"/><polygon class="cls-1" points="83.33 25.15 23.15 25.15 23.15 27.72 39.09 27.72 40.28 27.72 83.33 27.72 83.33 25.15"/><polygon class="cls-1" points="18 20 18 32.87 40.12 32.87 40.12 30.3 20.58 30.3 20.58 22.57 85.9 22.57 85.9 30.3 66.21 30.3 66.16 30.3 66.16 32.87 66.22 32.87 88.48 32.87 88.48 20 18 20"/></g></svg>