<svg xmlns="http://www.w3.org/2000/svg" viewBox="0 0 200 90"><defs><style>.cls-1,.cls-2,.cls-4,.cls-5,.cls-7{fill:none;stroke:#1e5748;}.cls-1,.cls-2{stroke-linecap:round;}.cls-1,.cls-2,.cls-7{stroke-linejoin:round;}.cls-1{stroke-width:3px;}.cls-2,.cls-5{stroke-width:2px;}.cls-3{fill:#1e5748;}.cls-4,.cls-5{stroke-miterlimit:10;}.cls-4{stroke-width:4.5px;}.cls-6{fill:#1e5748;}.cls-7{stroke-width:1.5px;}</style></defs><title>TDpublic_illustrations_200x90_02_CreditCards</title><g id="ARTWORK"><polygon class="cls-1" points="128.05 78.19 83.58 78.19 76.32 48.14 135.31 48.14 128.05 78.19"/><line class="cls-2" x1="105.81" y1="50.29" x2="105.81" y2="78.19"/><line class="cls-2" x1="79.6" y1="58.23" x2="132.1" y2="58.23"/><line class="cls-2" x1="81.54" y1="67.78" x2="130.18" y2="67.78"/><rect class="cls-3" x="71.51" y="42.66" width="68.85" height="7.63" rx="0.5" ry="0.5"/><line class="cls-2" x1="90.42" y1="48.86" x2="93.28" y2="77.12"/><line class="cls-2" x1="120.58" y1="48.86" x2="117.72" y2="77.12"/><line class="cls-4" x1="110.05" y1="30.73" x2="131.63" y2="46.48"/><line class="cls-4" x1="80.25" y1="45.91" x2="101.26" y2="30.42"/><circle class="cls-5" cx="105.48" cy="28.41" r="4.92"/><path class="cls-6" d="M76.92,23.93V17.76a.51.51,0,0,0-.51-.51l-6.47,0H69.6c-4-.06-4.4-.06-7.15,1.85l-.16.12L51.67,27.47,50.19,25.9a1.54,1.54,0,0,0-2.1-.13L25.89,44.1a1.54,1.54,0,0,0-.29.31L16,58.25a1.54,1.54,0,0,0,.43,2.17l2.22,1.44c-1.8,3.79-2.52,9.12-2.52,16.47a1.54,1.54,0,1,0,3.08,0c0-6.61.59-11.46,2-14.78l2.5,1.62a1.54,1.54,0,0,0,2.13-.46s.67-1,1.57-2.4a12.08,12.08,0,0,0,4.81,1.17c4.46,0,6.12-2.59,7.57-5.48l.53-1.07c.35-.72.77-1.56,1.13-2.27a23.78,23.78,0,0,1,4.59,1.69,1.54,1.54,0,0,0,1.71-.22C52.52,52,63.17,42.14,63.28,42a1.54,1.54,0,0,0,.07-2.19l-6.93-7.34,9.7-7.4c1.14-.71,1.13-.71,3.24-.69h.48l6.55,0A.51.51,0,0,0,76.92,23.93ZM29.83,58.83c.73-1.05,1.42-2,1.95-2.72C32.85,54.72,35.55,54,37.52,54l-.7,1.4-.11.19C34.62,59.08,34.42,60.32,29.83,58.83ZM60,40.84c-2.7,2.5-9.56,8.81-13.51,12.31-4.7-2.08-13.2-4.09-17.19,1.08-1.42,1.84-3.88,5.55-5.17,7.52l-4.7-3L28,46.34,48.94,29.06Z"/><path class="cls-6" d="M183.55,45.35H165.41a1.52,1.52,0,0,0-1.52,1.52v4a1.52,1.52,0,0,0,1.52,1.52h.49V78.08a1.67,1.67,0,0,0,1.67,1.67h13.81a1.67,1.67,0,0,0,1.67-1.67V52.4h.49a1.52,1.52,0,0,0,1.52-1.52v-4A1.52,1.52,0,0,0,183.55,45.35ZM167.93,77.73V52.4H181v2.88h-10.4a.51.51,0,0,0-.51.51V74.25a.51.51,0,0,0,.51.51H181v3ZM181,60H174.1a.51.51,0,1,0,0,1H181v2H174.1a.51.51,0,1,0,0,1H181v2H174.1a.51.51,0,1,0,0,1H181v2H174.1a.51.51,0,1,0,0,1H181v3.69h-9.9V56.29H181Zm2-9.6H165.92v-3H183Z"/><rect class="cls-7" x="157.11" y="14.51" width="7.04" height="17.65" rx="3.08" ry="3.08" transform="translate(21.72 107.31) rotate(-39.42)"/><path class="cls-6" d="M157.46,25.29l3.9,4.74a3.21,3.21,0,0,0,4.5.44l.5-.41a3.21,3.21,0,0,0,.44-4.5l-3.9-4.74Z"/><rect class="cls-7" x="150.18" y="32.7" width="7.04" height="17.65" rx="3.08" ry="3.08" transform="translate(246.07 171.2) rotate(-140.58)"/><path class="cls-6" d="M156.88,43.48,153,48.22a3.21,3.21,0,0,1-4.5.44l-.5-.41a3.21,3.21,0,0,1-.44-4.5l3.9-4.74Z"/></g></svg>