<svg xmlns="http://www.w3.org/2000/svg" viewBox="0 0 200 90"><defs><style>.cls-1{fill:#1e5748;}</style></defs><title>TDpublic_illustrations_200x90_PSI</title><g id="ARTWORK"><path class="cls-1" d="M114.29,34.45H97.11a1.27,1.27,0,1,0,0,2.54h17.17a1.27,1.27,0,1,0,0-2.54Z"/><path class="cls-1" d="M114.29,43.75H97.11a1.27,1.27,0,1,0,0,2.54h17.17a1.27,1.27,0,1,0,0-2.54Z"/><path class="cls-1" d="M114.29,53H97.11a1.27,1.27,0,0,0,0,2.54h17.17a1.27,1.27,0,0,0,0-2.54Z"/><path class="cls-1" d="M154.29,19H133.84c-6.69,0-10,1.57-11.55,3.21C120.7,20.52,117.43,19,110.74,19H90.29a1.77,1.77,0,0,0-1.76,1.78V69.14a1.77,1.77,0,0,0,1.76,1.77h20.45c4.32,0,8.63,1.85,8.67,2.07h0c.88.66.88.64,1.76.64h2.34c.89,0,.94,0,1.73-.82a22,22,0,0,1,8.57-1.89h20.45a1.77,1.77,0,0,0,1.76-1.77V20.73A1.77,1.77,0,0,0,154.29,19ZM119.64,69.71a20,20,0,0,0-8.82-2.07H92.09V22.23h18.73c8.61,0,8.82,3.15,8.82,3.15Zm7.81-41.86v-1a3.9,3.9,0,0,0,2.36-1.37h1.26v8.58h-2.14v-4.6a8.22,8.22,0,0,0,0-1.2.45.45,0,0,0-.26-.31,2.74,2.74,0,0,0-1-.1Zm3,14.15a.41.41,0,0,0-.36-.17.4.4,0,0,0-.36.19,1.61,1.61,0,0,0-.12.76v.82h-1.92v-.31a6.87,6.87,0,0,1,.07-1.14,2,2,0,0,1,.37-.82,1.83,1.83,0,0,1,.76-.61,2.75,2.75,0,0,1,1.12-.21,2.68,2.68,0,0,1,1.93.63,2.14,2.14,0,0,1,.65,1.6,3.82,3.82,0,0,1-.37,1.56A32,32,0,0,1,130,47.8h2.35v1.46h-4.71V48q2.09-3.43,2.49-4.24a3.2,3.2,0,0,0,.4-1.27A.92.92,0,0,0,130.44,42Zm2.09,21.48a1.66,1.66,0,0,1-.81.86,3.21,3.21,0,0,1-1.47.29,3.16,3.16,0,0,1-1.6-.34,1.67,1.67,0,0,1-.76-.84,5.58,5.58,0,0,1-.18-1.72v-.68h2.14v1.39a2.24,2.24,0,0,0,.07.71.28.28,0,0,0,.29.15.32.32,0,0,0,.33-.19,3.59,3.59,0,0,0,.08-1v-.59a1.74,1.74,0,0,0-.11-.72.55.55,0,0,0-.33-.3,3.4,3.4,0,0,0-.84-.08V59.19a4.41,4.41,0,0,0,.94-.06.41.41,0,0,0,.26-.25,1.76,1.76,0,0,0,.08-.62v-.48a1.25,1.25,0,0,0-.09-.59.32.32,0,0,0-.29-.14.32.32,0,0,0-.3.15,1.6,1.6,0,0,0-.08.64v.71h-2.14v-.73a2,2,0,0,1,.56-1.66,2.94,2.94,0,0,1,1.79-.43,2.78,2.78,0,0,1,2.08.6,2.38,2.38,0,0,1,.55,1.66,2.08,2.08,0,0,1-.2,1,1.75,1.75,0,0,1-.69.59,1.32,1.32,0,0,1,.73.54,4,4,0,0,1,.24,1.75A4.3,4.3,0,0,1,132.53,63.49Zm5.41-2.25h-2.25V60.06h2.25Zm0-15.21h-2.25V44.85h2.25Zm0-15.2h-2.25V29.65h2.25Zm3.56,30.41h-2.25V60.06h2.25Zm0-15.21h-2.25V44.85h2.25Zm0-15.2h-2.25V29.65h2.25Zm3.56,30.41H142.8V60.06h2.25Zm0-15.21H142.8V44.85h2.25Zm0-15.2H142.8V29.65h2.25Zm3.56,30.41h-2.25V60.06h2.25Zm0-15.21h-2.25V44.85h2.25Zm0-15.2h-2.25V29.65h2.25Z"/><polygon class="cls-1" points="49.52 67.86 55.3 67.86 55.3 51.41 49.52 55.79 49.52 67.86"/><polygon class="cls-1" points="61.14 67.86 66.95 67.89 66.95 52.3 61.14 50.56 61.14 67.86"/><path class="cls-1" d="M81.13,34.45h-6.4a1.35,1.35,0,0,0,.38,2.68h2.78l-9.17,9.15-11-3.66a1.3,1.3,0,0,0-1.48.13l-12,9.36-.17.13a1.34,1.34,0,0,0,1.8,2L57.3,45.3,68.38,49A1.5,1.5,0,0,0,70,48.76L79.79,39v2.8s0,0,0,0a1.34,1.34,0,0,0,2.68,0v-6A1.34,1.34,0,0,0,81.13,34.45Z"/><polygon class="cls-1" points="72.81 67.86 78.61 67.82 78.61 45.17 72.81 50.97 72.81 67.86"/></g></svg>