<svg xmlns="http://www.w3.org/2000/svg" viewBox="0 0 200 90"><defs><style>.cls-1{fill:#1e5748;}</style></defs><title>getPreapproved</title><g id="ARTWORK"><path class="cls-1" d="M91.68,34.19V35.9A6.9,6.9,0,0,0,85,43,5.78,5.78,0,0,0,87,47.63c2.43,2.05,7.25,2.49,7.25,2.49,2.54.11,3.62,1.5,3.69,2.63a2.41,2.41,0,0,1-1,2.19,5.92,5.92,0,0,1-3.62.94,6.56,6.56,0,0,1-5.24-2,2.69,2.69,0,0,0-3.63,0,2.65,2.65,0,0,0,0,3.63,11,11,0,0,0,7.23,3.38v1.35a1.52,1.52,0,0,0,1.67,1.62A1.56,1.56,0,0,0,95,62.23V60.89a11,11,0,0,0,5.79-2.53,7.53,7.53,0,0,0,2.2-5.62,6.8,6.8,0,0,0-2.68-5.47A9.39,9.39,0,0,0,95,45l-2.91-.48c-.88-.13-1.94-.5-1.94-1.54a2.19,2.19,0,0,1,2.32-2,6.49,6.49,0,0,1,4.3,1.33,2.59,2.59,0,0,0,3.63-.18,2.76,2.76,0,0,0-.18-3.64A10.16,10.16,0,0,0,95,36.09V34.21a1.54,1.54,0,0,0-1.67-1.69A1.71,1.71,0,0,0,91.68,34.19Z"/><path class="cls-1" d="M118.22,33.5V17a1.65,1.65,0,0,0-1.65-1.65h-5A1.65,1.65,0,0,0,110,17v8.3L96.67,12c-2.31-2.31-4.24-2.36-6.52-.08L60.42,41.66s5.69,0,8.31.06l1.24-.1,2.66-2.49h0L93.45,18.54l21.4,20.52h0l2.66,2.49.73.18h8.24Z"/><path class="cls-1" d="M127.77,56.06a11.83,11.83,0,1,0,10.86,12.72A11.81,11.81,0,0,0,127.77,56.06Zm5.5,9.94-7.9,6.75-.06,0-.06,0A2.12,2.12,0,0,1,125,73a1.62,1.62,0,0,1-.31.13l-.17,0h-.12a1,1,0,0,1-.52-.24l0,0,0,0a.44.44,0,0,1-.11-.1l-.05,0L120.45,69a1.41,1.41,0,0,1-.44-1,1.17,1.17,0,0,1,.45-.76,1.25,1.25,0,0,1,.84-.34,1.42,1.42,0,0,1,.88.59l2.44,2.86,7.15-6.11a1.39,1.39,0,0,1,.95-.44,1.18,1.18,0,0,1,.78.46,1.21,1.21,0,0,1,.33.83A1.35,1.35,0,0,1,133.27,66Z"/><path class="cls-1" d="M112.31,71.12H72.41V37.41a2,2,0,0,0-4,0V73.12a2,2,0,0,0,2,2h43.43A14.76,14.76,0,0,1,112.31,71.12Z"/><path class="cls-1" d="M118.43,55.6V37a2,2,0,0,0-4,0V59.65A15,15,0,0,1,118.43,55.6Z"/></g></svg>