<svg xmlns="http://www.w3.org/2000/svg" viewBox="0 0 200 90"><defs><style>.cls-1{fill:#1e5748;}</style></defs><title>TDpublic_illustrations_200x90_PSI</title><g id="ARTWORK"><path class="cls-1" d="M88,63.52a18.15,18.15,0,0,0,7.41-8.9A76.32,76.32,0,0,1,65.53,62.8,80.23,80.23,0,0,0,88,63.52Z"/><path class="cls-1" d="M57.89,63.28c-1.73.08-3.54.14-5.45.2a32.48,32.48,0,0,0,17.8,5,34.06,34.06,0,0,0,13.52-2.66A76.43,76.43,0,0,1,57.89,63.28Z"/><path class="cls-1" d="M86.06,41.73c-1.28-9.79-9.35-19.67-15.74-19.67S55.85,32,54.58,41.76c-6.53,1.59-10.46,4.54-10.46,9.34a10.16,10.16,0,0,0,.61,3.39,57.09,57.09,0,0,0,16.57,7.37c10.09-.67,23.58-2.84,34.62-9.49A10.22,10.22,0,0,0,96,51.11C96,46.17,92.32,43.27,86.06,41.73ZM79.77,55.42c-.78.68-5.68,1.32-9.45,1.32s-9-.55-9.32-1.17c-2.27-2.61-3.66-6.4-3.66-11.23,0-9.09,7.84-19.33,13-19.33s13,10.24,13,19.33C83.3,49.08,82,52.82,79.77,55.42Z"/><path class="cls-1" d="M47.3,58.92a21.33,21.33,0,0,0,3.28,3.21c1.09,0,2.37,0,3.8,0A49.42,49.42,0,0,1,47.3,58.92Z"/><path class="cls-1" d="M73.76,41.54a5,5,0,0,0-2.85-1.18l-1.55-.26c-.47-.07-1-.27-1-.82a1.17,1.17,0,0,1,1.24-1.08,3.47,3.47,0,0,1,2.3.71,1.35,1.35,0,0,0,.91.35,1.43,1.43,0,0,0,1-.45,1.35,1.35,0,0,0,.36-1,1.38,1.38,0,0,0-.45-1,5.65,5.65,0,0,0-2.78-1.29v-1a.87.87,0,0,0-.24-.63.9.9,0,0,0-.65-.27.91.91,0,0,0-.89.89v.91a3.69,3.69,0,0,0-3.56,3.81,3.07,3.07,0,0,0,1,2.45,4.85,4.85,0,0,0,2.3,1.08l1.57.25a2.58,2.58,0,0,1,1.49.56c.45.38.48.57.48.85a1.36,1.36,0,0,1-.51,1.17,3.16,3.16,0,0,1-1.93.5,3.44,3.44,0,0,1-2.8-1A1.37,1.37,0,0,0,65.28,47a5.89,5.89,0,0,0,3.86,1.81v.72a.88.88,0,0,0,.87.86h.05a.88.88,0,0,0,.87-.89v-.72a5.4,5.4,0,0,0,2.69-1,3.64,3.64,0,0,0,.4-.34,4.14,4.14,0,0,0,1.18-3A3.63,3.63,0,0,0,73.76,41.54Z"/><path class="cls-1" d="M129.06,18.62A26.65,26.65,0,1,0,155.7,45.27,26.62,26.62,0,0,0,129.06,18.62Zm-9.32,35.15-7.12,7.12a22.67,22.67,0,0,1,32.05-32.05l-7.2,7.2m-15,15-2.21,2.21M140.95,36l5.42-5.42a22.68,22.68,0,0,1-32,32l8.82-8.82"/><path class="cls-1" d="M123.17,36.24v3.48h-2.69V53.64H116V39.73h-2.67V36.24Z"/><path class="cls-1" d="M131.14,36.24l2.59,17.39H129.1l-.24-3.13h-1.62L127,53.64h-4.67l2.31-17.39Zm-2.4,11.18q-.34-3-.69-7.3-.69,5-.87,7.3Z"/><path class="cls-1" d="M144.21,36.24l-1.59,7.69,2.4,9.7h-4.19a57,57,0,0,1-1.37-6.34q-.17,1.66-.48,3.5l-.42,2.84h-4.4l1.64-9.7-1.64-7.69h4.37q.12.72.47,2.39.28,1.28.46,2.35l1-4.75Z"/></g></svg>