<svg xmlns="http://www.w3.org/2000/svg" viewBox="0 0 200 90"><defs><style>.cls-1{fill:#1e5748;}</style></defs><title>governmentGrants</title><g id="ARTWORK"><path class="cls-1" d="M171.69,51.3V63.38c-.91,1-8.87,3.73-15.57,3.73-7.1,0-15.78-2.63-16.83-3.71V51.29l15.62,6a1.53,1.53,0,0,0,1.16,0ZM183,59.16l-2.72-7.7a1.19,1.19,0,0,0,0-.18V44.55h0a1.24,1.24,0,0,0-.09-.44L180.2,44a1.23,1.23,0,0,0-.17-.26l-.1-.1a1.24,1.24,0,0,0-.28-.19l-.09-.05h0L156,34.43a1.24,1.24,0,0,0-.89,0l-24.05,8.95a1.26,1.26,0,0,0,0,2.35l24.05,9.36a1.25,1.25,0,0,0,.92,0l21.78-8.67v4.87a1.19,1.19,0,0,0,0,.21l-2.49,7.69a.94.94,0,0,0,.9,1.23h5.86a.94.94,0,0,0,.89-1.26Zm-27.45-6.6-20.51-8,20.51-7.63,20,7.63Zm22,6,1.54-4.77,1.69,4.77Z"/><path class="cls-1" d="M36.58,44.29V79.87h9.16V71.5H51v8.37h8.63V44.29ZM42.83,58.5H40.39V55.36h2.44Zm0-7.7H40.39v-3h2.44Zm6.62,7.7H46.66V55.36h2.79Zm0-7.7H46.66v-3h2.79Zm6.35,7.7H53.36V55.36H55.8Zm0-7.7H53.36v-3H55.8Z"/><path class="cls-1" d="M47,13.94V23a9.16,9.16,0,0,0-8.36,8.4l0,4H57.51l0-4A9.16,9.16,0,0,0,49.14,23V20.28l7.33-.09V14.55H49.14v-.62Z"/><path class="cls-1" d="M35,37.48H61.18v4.71H35Z"/><path class="cls-1" d="M18.79,46.9v3.66h16V46.9Z"/><path class="cls-1" d="M61.44,46.9v3.66h16V46.9Z"/><path class="cls-1" d="M61.44,52.66V79.87H75.3V52.66ZM69.59,59H67.15V55.91h2.44Z"/><path class="cls-1" d="M20.88,52.66V79.87H34.75V52.66ZM28.76,59H26.32V55.91h2.44Z"/><path class="cls-1" d="M87.64,54.4v-4c0,2.2,4.45,4,9.95,4,.68,0,1.35,0,2-.08v4c-.64.05-1.31.08-2,.08C92.09,58.38,87.63,56.6,87.64,54.4Z"/><path class="cls-1" d="M87.63,56.39c0,2.2,4.45,4,9.95,4,.68,0,1.35,0,2-.08v4c-.64.05-1.31.08-2,.08-5.5,0-9.95-1.79-9.95-4Z"/><ellipse class="cls-1" cx="97.61" cy="36.5" rx="3.98" ry="9.95" transform="translate(61 134.07) rotate(-89.94)"/><path class="cls-1" d="M87.65,42.46v-4c0,2.2,4.45,4,9.95,4s10-1.77,10-4v4a1.65,1.65,0,0,1,0,.36c-3.26.58-5.86,1.85-7.11,3.45a24.07,24.07,0,0,1-2.8.16C92.1,46.44,87.65,44.66,87.65,42.46Z"/><path class="cls-1" d="M87.64,48.43v-4c0,2.2,4.45,4,9.95,4,.68,0,1.35,0,2-.08,0,0,0,.05,0,.08v3.9c-.64.05-1.31.08-2,.08C92.09,52.41,87.64,50.63,87.64,48.43Z"/><path class="cls-1" d="M111.51,64.38c-5.5,0-9.95-1.79-9.95-4v-4c0,2.2,4.45,4,9.95,4s10-1.77,10-4v4C121.46,62.6,117,64.38,111.51,64.38Z"/><path class="cls-1" d="M111.5,66.37c5.5,0,10-1.77,10-4v4c0,2.2-4.46,4-10,4s-9.95-1.79-9.95-4v-4C101.56,64.57,106,66.36,111.5,66.37Z"/><path class="cls-1" d="M111.51,58.41c-5.5,0-9.95-1.79-9.95-4v-4c0,2.2,4.45,4,9.95,4s10-1.77,10-4v4C121.47,56.63,117,58.41,111.51,58.41Z"/><ellipse class="cls-1" cx="111.52" cy="48.45" rx="3.98" ry="9.95" transform="translate(62.95 159.93) rotate(-89.94)"/></g></svg>