<svg xmlns="http://www.w3.org/2000/svg" viewBox="0 0 200 90"><defs><style>.cls-1{fill:#1e5748;}.cls-2,.cls-3,.cls-4,.cls-5,.cls-6{fill:none;stroke:#1e5748;}.cls-2,.cls-3,.cls-4{stroke-linecap:round;stroke-linejoin:round;}.cls-2{stroke-width:3px;}.cls-3{stroke-width:4px;}.cls-4,.cls-6{stroke-width:2px;}.cls-5,.cls-6{stroke-miterlimit:10;}.cls-5{stroke-width:4.5px;}</style></defs><title>groceryFoodBills</title><g id="TITLES"><path class="cls-1" d="M148.72,45.81v.75a.84.84,0,0,0,.75.93h.18a.87.87,0,0,0,.93-.93v-.75a6.15,6.15,0,0,0,3.25-1.42,4.22,4.22,0,0,0,1.23-3.15,3.82,3.82,0,0,0-1.5-3.06,5.26,5.26,0,0,0-3-1.27l-1.63-.27c-.49-.07-1.09-.28-1.09-.86a1.23,1.23,0,0,1,1.3-1.13,3.64,3.64,0,0,1,2.41.74,1.45,1.45,0,0,0,2-.1,1.55,1.55,0,0,0-.1-2,5.69,5.69,0,0,0-2.92-1.36v-1a.86.86,0,0,0-.79-.93h-.14a.93.93,0,0,0-.93.93v.93a3.87,3.87,0,0,0-3.71,4,3.24,3.24,0,0,0,1.09,2.57,8.83,8.83,0,0,0,4.06,1.39c1.42.06,2,.85,2.07,1.48a1.36,1.36,0,0,1-.54,1.23,3.31,3.31,0,0,1-2,.53,3.71,3.71,0,0,1-3-1,1.5,1.5,0,0,0-2,0,1.49,1.49,0,0,0,0,2A6.18,6.18,0,0,0,148.72,45.81Z"/><line class="cls-2" x1="145.57" y1="53.6" x2="173.73" y2="53.6"/><line class="cls-2" x1="145.57" y1="61.33" x2="173.73" y2="61.33"/><line class="cls-2" x1="145.57" y1="69.06" x2="173.73" y2="69.06"/><path class="cls-3" d="M180,78H139.1a.9.9,0,0,1-.9-.9V23.8a.9.9,0,0,1,.9-.9h29l12.75,13.8V77.1A.9.9,0,0,1,180,78Z"/><path class="cls-1" d="M165.48,22.44V35.5a2.7,2.7,0,0,0,2.69,2.69h13.08A17,17,0,0,0,179,33l-9.18-9.3A27.63,27.63,0,0,0,165.48,22.44Z"/><path class="cls-1" d="M120.36,46.92s.66-31.47.66-34.47c0-1.76-.8-3-2.61-2.51-.64.17-1.19,1.34-1.53,2.25a57.32,57.32,0,0,0-3.41,16.1c-.31,9.1,1.12,14.42,2.72,18.24l-1.85,30.18a2.93,2.93,0,0,0,.76,2.21,3.32,3.32,0,0,0,2.46,1h.3a3.34,3.34,0,0,0,3.3-3.53Z"/><path class="cls-1" d="M109.09,31.86s-.84-12.72-1-15.46a1,1,0,0,0-1.06-.93,1,1,0,0,0-.93,1.06c.3,4.49.72,10.8.88,13.43h0A1,1,0,0,1,105,30h0c-.07-3.4-.27-12.33-.3-13.55a1,1,0,0,0-1-1h0a1,1,0,0,0-1,1c.09,3.93.24,10.68.3,13.5h0a1,1,0,0,1-1.89,0h0c.06-2.83.21-9.57.3-13.5a1,1,0,0,0-1-1h0a1,1,0,0,0-1,1c0,1.21-.23,10.14-.3,13.55h0a1,1,0,0,1-1.89,0h0c.17-2.63.58-8.95.88-13.43a1,1,0,0,0-.93-1.06A1,1,0,0,0,96,16.4L95,31.86s0,.07,0,.11c0,3.67,2.64,5.6,4.79,6.79a1.23,1.23,0,0,0,.34.12h0l-1,38.1a3,3,0,0,0,5.9,0s-.89-38-.89-38.11c.18-.1.66-.37,1-.65,1.53-1.09,3.94-3,3.94-6.24C109.09,31.94,109.09,31.9,109.09,31.86Z"/><polygon class="cls-2" points="72.59 78.44 28.12 78.44 20.86 48.39 79.85 48.39 72.59 78.44"/><line class="cls-4" x1="50.35" y1="50.54" x2="50.35" y2="78.44"/><line class="cls-4" x1="24.14" y1="58.48" x2="76.64" y2="58.48"/><line class="cls-4" x1="26.08" y1="68.03" x2="74.72" y2="68.03"/><rect class="cls-1" x="16.05" y="42.91" width="68.85" height="7.63" rx="0.5" ry="0.5"/><line class="cls-4" x1="34.96" y1="49.11" x2="37.82" y2="77.37"/><line class="cls-4" x1="65.12" y1="49.11" x2="62.26" y2="77.37"/><line class="cls-5" x1="54.58" y1="30.98" x2="76.16" y2="46.73"/><line class="cls-5" x1="24.78" y1="46.16" x2="45.79" y2="30.67"/><circle class="cls-6" cx="50.02" cy="28.66" r="4.92"/></g></svg>