<svg xmlns="http://www.w3.org/2000/svg" viewBox="0 0 200 90"><defs><style>.cls-1{fill:#1e5748;}.cls-2,.cls-3,.cls-4,.cls-5,.cls-6{fill:none;stroke:#1e5748;}.cls-2,.cls-3,.cls-4{stroke-linecap:round;stroke-linejoin:round;}.cls-2{stroke-width:3px;}.cls-3{stroke-width:4px;}.cls-4,.cls-6{stroke-width:2px;}.cls-5,.cls-6{stroke-miterlimit:10;}.cls-5{stroke-width:4.5px;}</style></defs><title>groceryBills</title><g id="TITLES"><path class="cls-1" d="M128.47,45.81v.75a.84.84,0,0,0,.75.93h.18a.87.87,0,0,0,.93-.93v-.75a6.15,6.15,0,0,0,3.25-1.42,4.22,4.22,0,0,0,1.23-3.15,3.82,3.82,0,0,0-1.5-3.06,5.26,5.26,0,0,0-3-1.27l-1.63-.27c-.49-.07-1.09-.28-1.09-.86a1.23,1.23,0,0,1,1.3-1.13,3.64,3.64,0,0,1,2.41.74,1.45,1.45,0,0,0,2-.1,1.55,1.55,0,0,0-.1-2,5.69,5.69,0,0,0-2.92-1.36v-1a.86.86,0,0,0-.79-.93h-.14a.93.93,0,0,0-.93.93v.93a3.87,3.87,0,0,0-3.71,4,3.24,3.24,0,0,0,1.09,2.57,8.83,8.83,0,0,0,4.06,1.39c1.42.06,2,.85,2.07,1.48a1.36,1.36,0,0,1-.54,1.23,3.31,3.31,0,0,1-2,.53,3.71,3.71,0,0,1-3-1,1.5,1.5,0,0,0-2,0,1.49,1.49,0,0,0,0,2A6.18,6.18,0,0,0,128.47,45.81Z"/><line class="cls-2" x1="125.32" y1="53.6" x2="153.48" y2="53.6"/><line class="cls-2" x1="125.32" y1="61.33" x2="153.48" y2="61.33"/><line class="cls-2" x1="125.32" y1="69.06" x2="153.48" y2="69.06"/><path class="cls-3" d="M159.72,78H118.85a.9.9,0,0,1-.9-.9V23.8a.9.9,0,0,1,.9-.9h29l12.75,13.8V77.1A.9.9,0,0,1,159.72,78Z"/><path class="cls-1" d="M145.23,22.44V35.5a2.7,2.7,0,0,0,2.69,2.69H161A17,17,0,0,0,158.78,33l-9.18-9.3A27.63,27.63,0,0,0,145.23,22.44Z"/><polygon class="cls-2" points="90.54 78.44 46.07 78.44 38.81 48.39 97.8 48.39 90.54 78.44"/><line class="cls-4" x1="68.3" y1="50.54" x2="68.3" y2="78.44"/><line class="cls-4" x1="42.09" y1="58.48" x2="94.59" y2="58.48"/><line class="cls-4" x1="44.03" y1="68.03" x2="92.67" y2="68.03"/><rect class="cls-1" x="34" y="42.91" width="68.85" height="7.63" rx="0.5" ry="0.5"/><line class="cls-4" x1="52.91" y1="49.11" x2="55.77" y2="77.37"/><line class="cls-4" x1="83.07" y1="49.11" x2="80.21" y2="77.37"/><line class="cls-5" x1="72.53" y1="30.98" x2="94.11" y2="46.73"/><line class="cls-5" x1="42.73" y1="46.16" x2="63.74" y2="30.67"/><circle class="cls-6" cx="67.97" cy="28.66" r="4.92"/></g></svg>