<svg xmlns="http://www.w3.org/2000/svg" viewBox="0 0 200 90"><defs><style>.cls-1{fill:#1e5748;}.cls-2{fill:none;stroke:#1e5748;stroke-miterlimit:10;stroke-width:2px;stroke-dasharray:3 4;}</style></defs><title>growPortfolioEasily</title><g id="ARTWORK"><path class="cls-1" d="M81.18,36.59H48.05v-3a3,3,0,0,0-3-3H27a3,3,0,0,0-.93.16,3,3,0,0,0-1.93,1.95,3,3,0,0,1,1-.2H43.22a3,3,0,0,1,3,3v3H79.37a3,3,0,0,1,3,3V74.65a3,3,0,0,1-.15.9A3,3,0,0,0,84,73.79a3,3,0,0,0,.2-1V39.6A3,3,0,0,0,81.18,36.59Z"/><path class="cls-1" d="M77.49,40.41H44.36v-3a3,3,0,0,0-3-3H23.27a3,3,0,0,0-1,.17,3,3,0,0,0-2,2.84V76.55a3,3,0,0,0,3,3H77.49a3,3,0,0,0,2.85-2.08,3,3,0,0,0,.16-.93V43.42A3,3,0,0,0,77.49,40.41ZM42.9,73.52H38.26v-9.7L42.9,60.3Zm9.36,0-4.67,0V59.62L52.26,61Zm9.37-.05-4.66,0V59.94l4.66-4.66Zm3.1-19.75a1.08,1.08,0,0,1-2.15,0s0,0,0,0V51.49l-7.84,7.84a1.2,1.2,0,0,1-1.33.17l-8.9-3-9.22,7.17a1.07,1.07,0,1,1-1.44-1.59L34,62l9.67-7.52a1,1,0,0,1,1.19-.1l8.83,2.94L61.05,50H58.82a1.09,1.09,0,0,1-.3-2.15h5.14a1.08,1.08,0,0,1,1.07,1.07Z"/><path class="cls-1" d="M160.44,28.15v.76a1.18,1.18,0,0,0,1.16,1.16h.07a1.18,1.18,0,0,0,1.17-1.2v-.75A6.55,6.55,0,0,0,166,26.9a4.88,4.88,0,0,0,.49-.42,5.1,5.1,0,0,0,1.45-3.69,4.48,4.48,0,0,0-1.76-3.6,6.21,6.21,0,0,0-3.48-1.45l-1.87-.31c-.6-.1-1.11-.39-1.14-.87,0-.78.45-1.17,1.37-1.17h0a4,4,0,0,1,2.67.82,1.74,1.74,0,0,0,1.18.46,1.83,1.83,0,0,0,1.32-.58,1.78,1.78,0,0,0-.12-2.51,6.82,6.82,0,0,0-3.3-1.56v-1.1a1.16,1.16,0,0,0-.33-.85,1.19,1.19,0,0,0-.86-.36,1.2,1.2,0,0,0-1.19,1.19v1a4.6,4.6,0,0,0-4.27,4.68,3.85,3.85,0,0,0,1.28,3,5.93,5.93,0,0,0,2.82,1.32l1.89.3c1.65.21,2.24.71,2.26,1.57a1.48,1.48,0,0,1-.56,1.31,3.74,3.74,0,0,1-2.25.58,4,4,0,0,1-3.27-1.22,1.77,1.77,0,1,0-2.5,2.5A7.2,7.2,0,0,0,160.44,28.15Z"/><path class="cls-1" d="M175,32.29H148.23a1.32,1.32,0,0,0-1.3,1.3V40a1.32,1.32,0,0,0,1.3,1.3h2.08l3.27,12.6a1.34,1.34,0,0,0,1.24,1h13.5a1.26,1.26,0,0,0,1.24-1l3.52-12.6H175a1.32,1.32,0,0,0,1.3-1.3V33.59A1.32,1.32,0,0,0,175,32.29Zm-1,6.77H149.19V34.55H174Z"/><path class="cls-1" d="M153.54,30.37a9.66,9.66,0,0,0-.19-4.37,7.12,7.12,0,0,0-3.16-3.66,9,9,0,0,0-6.08-1.23,7.35,7.35,0,0,0,.39,4A8,8,0,0,0,147.73,29,8.82,8.82,0,0,0,153.54,30.37Z"/><path class="cls-1" d="M179.1,20.71A9,9,0,0,0,173,21.94a7.12,7.12,0,0,0-3.16,3.66,9.66,9.66,0,0,0-.19,4.37,8.82,8.82,0,0,0,5.81-1.36,8,8,0,0,0,3.24-3.89A7.35,7.35,0,0,0,179.1,20.71Z"/><polyline class="cls-2" points="89.89 63.31 103.49 49.06 120.37 59.99 141.38 38.86"/></g></svg>