<svg xmlns="http://www.w3.org/2000/svg" viewBox="0 0 200 90"><defs><style>.cls-1{fill:#1e5748;}</style></defs><title>guaranteedPrincipal</title><g id="ARTWORK"><path class="cls-1" d="M112.48,10.06V35.47h-6.34V21.84A24,24,0,0,0,106,18.3a1.32,1.32,0,0,0-.78-.9,8,8,0,0,0-2.83-.31h-.63v-3a11.54,11.54,0,0,0,7-4.07Z"/><path class="cls-1" d="M129.91,18.66v8.48a20.21,20.21,0,0,1-.31,4.21,5.84,5.84,0,0,1-1.3,2.46,5.6,5.6,0,0,1-2.39,1.65,9.19,9.19,0,0,1-3.12.5,11.59,11.59,0,0,1-3.78-.53,5.16,5.16,0,0,1-2.4-1.64,7,7,0,0,1-1.27-2.35,14.63,14.63,0,0,1-.38-3.92V18.66a17,17,0,0,1,.6-5.25,5.17,5.17,0,0,1,2.4-2.79,8.49,8.49,0,0,1,4.36-1.05,9.11,9.11,0,0,1,3.73.73,6.21,6.21,0,0,1,2.47,1.78,5.9,5.9,0,0,1,1.11,2.37A21.73,21.73,0,0,1,129.91,18.66Zm-6.34-2.13a9.54,9.54,0,0,0-.2-2.54.87.87,0,0,0-.92-.51.91.91,0,0,0-.93.54,8.24,8.24,0,0,0-.23,2.51v12.4a9.26,9.26,0,0,0,.21,2.67.91.91,0,0,0,.92.45.89.89,0,0,0,.93-.53,7.94,7.94,0,0,0,.22-2.4Z"/><path class="cls-1" d="M147.15,18.66v8.48a20.21,20.21,0,0,1-.31,4.21,5.84,5.84,0,0,1-1.3,2.46,5.6,5.6,0,0,1-2.39,1.65A9.19,9.19,0,0,1,140,36a11.59,11.59,0,0,1-3.78-.53,5.16,5.16,0,0,1-2.4-1.64,7,7,0,0,1-1.27-2.35,14.63,14.63,0,0,1-.38-3.92V18.66a17,17,0,0,1,.6-5.25,5.17,5.17,0,0,1,2.4-2.79,8.49,8.49,0,0,1,4.36-1.05,9.11,9.11,0,0,1,3.73.73,6.21,6.21,0,0,1,2.47,1.78,5.9,5.9,0,0,1,1.11,2.37A21.73,21.73,0,0,1,147.15,18.66Zm-6.34-2.13a9.54,9.54,0,0,0-.2-2.54.87.87,0,0,0-.92-.51.91.91,0,0,0-.93.54,8.24,8.24,0,0,0-.23,2.51v12.4a9.26,9.26,0,0,0,.21,2.67.91.91,0,0,0,.92.45.89.89,0,0,0,.93-.53,7.94,7.94,0,0,0,.22-2.4Z"/><path class="cls-1" d="M158.21,14.39v4.36a7.7,7.7,0,0,1-.32,2.57,3,3,0,0,1-1.38,1.49,5.39,5.39,0,0,1-2.8.64,6.23,6.23,0,0,1-3.06-.6,3.2,3.2,0,0,1-1.42-1.45,6.33,6.33,0,0,1-.37-2.43V14.39a7.53,7.53,0,0,1,.39-2.79,3,3,0,0,1,1.48-1.47,5.9,5.9,0,0,1,2.72-.57,6,6,0,0,1,2.91.62,3.25,3.25,0,0,1,1.49,1.5A7.26,7.26,0,0,1,158.21,14.39Zm-4-1.12a4.26,4.26,0,0,0-.1-1.24c-.07-.15-.25-.23-.56-.23A.56.56,0,0,0,153,12a3.53,3.53,0,0,0-.13,1.22v6.4A4.3,4.3,0,0,0,153,21c.07.15.27.22.58.22a.52.52,0,0,0,.53-.25,3.56,3.56,0,0,0,.12-1.18Zm11.41-3.7L155.67,36h-2.42l10-26.39ZM170,26.66V31a7.77,7.77,0,0,1-.32,2.56,3.06,3.06,0,0,1-1.38,1.5,5.42,5.42,0,0,1-2.8.64,6.19,6.19,0,0,1-3.05-.61A3.23,3.23,0,0,1,161,33.67a6.24,6.24,0,0,1-.37-2.42V26.66a7.5,7.5,0,0,1,.39-2.77,3,3,0,0,1,1.48-1.48,5.81,5.81,0,0,1,2.71-.57,5.94,5.94,0,0,1,2.92.63A3.23,3.23,0,0,1,169.63,24,7.32,7.32,0,0,1,170,26.66Zm-4-1.1a4.47,4.47,0,0,0-.1-1.25c-.07-.16-.26-.24-.56-.24s-.46.08-.54.25a3.78,3.78,0,0,0-.12,1.24V32a4.21,4.21,0,0,0,.11,1.3q.11.22.57.22c.28,0,.46-.08.53-.24a3.79,3.79,0,0,0,.11-1.19Z"/><path class="cls-1" d="M107.86,70.51c0,2.45-5.12,4.48-11.31,4.48s-11.31-2-11.31-4.48V75c0,2.45,5.12,4.48,11.31,4.48s11.31-2,11.31-4.48Z"/><path class="cls-1" d="M96.45,72.75c6.29,0,11.31-2,11.31-4.48V63.79c0,2.45-5.12,4.48-11.31,4.48s-11.31-2-11.31-4.48v4.48C85.14,70.72,90.26,72.75,96.45,72.75Z"/><path class="cls-1" d="M96.45,66c6.29,0,11.31-2,11.31-4.48V57.07c0,2.45-5.12,4.48-11.31,4.48-4.05,0-7.57-.85-9.6-2.13a3,3,0,0,1-1.71-2.35v4.48C85.14,64,90.26,66,96.45,66Z"/><path class="cls-1" d="M96.45,59.2c6.29,0,11.31-2,11.31-4.48V50.24c0,2.45-5.12,4.48-11.31,4.48-4.05,0-7.57-.85-9.6-2.13a3,3,0,0,1-1.71-2.35v4.48C85.14,57.18,90.26,59.2,96.45,59.2Z"/><path class="cls-1" d="M87,50.35c2,1.28,5.55,2,9.49,2,6.29,0,11.31-2,11.31-4.48s-5-4.59-11.31-4.59c-3.95,0-7.47.85-9.49,2.13a3.62,3.62,0,0,0-1.81,2.13v.32a2.68,2.68,0,0,0,.64,1.49C86.21,49.71,86.53,50,87,50.35Z"/><path class="cls-1" d="M80.87,70.51C80.87,73,75.75,75,69.57,75s-11.31-1.92-11.31-4.48V75c0,2.45,5.12,4.48,11.31,4.48s11.31-2,11.31-4.48Z"/><path class="cls-1" d="M69.57,72.75c6.29,0,11.31-2,11.31-4.48V63.79c0,2.45-5.12,4.48-11.31,4.48s-11.31-2-11.31-4.59v4.48C58.26,70.72,63.27,72.75,69.57,72.75Z"/><path class="cls-1" d="M69.57,66c6.29,0,11.31-2,11.31-4.48V57.07c0,2.45-5.12,4.48-11.31,4.48-4.05,0-7.57-.85-9.6-2.13a3,3,0,0,1-1.71-2.35v4.48C58.26,64,63.27,66,69.57,66Z"/><path class="cls-1" d="M60.07,56.75c2,1.28,5.55,2,9.49,2,6.29,0,11.31-2,11.31-4.48s-5.12-4.48-11.31-4.48c-3.95,0-7.47.85-9.49,2.13a3.62,3.62,0,0,0-1.81,2.13v.32a2.68,2.68,0,0,0,.64,1.49C59.22,56.11,59.65,56.43,60.07,56.75Z"/><path class="cls-1" d="M54.21,70.72c0,2.45-5.12,4.48-11.31,4.48s-11.31-1.92-11.31-4.48V75.2c0,2.45,5.12,4.48,11.31,4.48s11.31-2,11.31-4.48Z"/><path class="cls-1" d="M42.9,73c6.29,0,11.31-2,11.31-4.48V64c0,2.45-5.12,4.48-11.31,4.48s-11.31-2-11.31-4.59v4.48C31.59,70.94,36.61,73,42.9,73Z"/><path class="cls-1" d="M33.41,63.36c2,1.28,5.55,2,9.49,2,6.29,0,11.31-2,11.31-4.48s-5.12-4.48-11.31-4.48c-3.95,0-7.47.85-9.49,2.13a3.62,3.62,0,0,0-1.81,2.13V61a2.68,2.68,0,0,0,.64,1.49C32.55,62.72,33,63,33.41,63.36Z"/><path class="cls-1" d="M87.72,24.27h-8a1.7,1.7,0,0,0,.47,3.36h3.49L72.12,39.13l-13.81-4.6a1.64,1.64,0,0,0-1.86.16L41.32,46.46l-.21.16a1.68,1.68,0,0,0,2.26,2.49L57.79,37.9,71.7,42.52a1.88,1.88,0,0,0,2.07-.26L86,30v3.52s0,0,0,0a1.68,1.68,0,0,0,3.36,0V25.95A1.68,1.68,0,0,0,87.72,24.27Z"/></g></svg>