<svg xmlns="http://www.w3.org/2000/svg" viewBox="0 0 200 90"><defs><style>.cls-1,.cls-3{fill:none;stroke:#1e5748;}.cls-1{stroke-miterlimit:10;stroke-width:4px;}.cls-2{fill:#1e5748;}.cls-3{stroke-linecap:round;stroke-linejoin:round;stroke-width:3px;}</style></defs><title>highInterestSavings</title><g id="ARTWORK"><circle class="cls-1" cx="57.39" cy="37.94" r="25.88"/><path class="cls-2" d="M54.05,30.77c0-2.45,2-3.17,4-3.17s4,.72,4,3.17v6.61c0,2.45-2,3.17-4,3.17s-4-.72-4-3.17Zm3.29,7.11c0,.42.09.83.67.83s.67-.42.67-.83V30.44c0-.42-.09-.83-.67-.83s-.67.42-.67.83ZM67.46,27.6h2.35l-8.5,20.67H59ZM66.79,38.5c0-2.44,2-3.17,4-3.17s4,.72,4,3.17v6.61c0,2.45-2,3.17-4,3.17s-4-.72-4-3.17Zm3.29,6.95c0,.42.09.83.67.83s.67-.42.67-.83V38c0-.42-.09-.83-.67-.83s-.67.42-.67.83Z"/><line class="cls-3" x1="44.88" y1="29.76" x2="45.05" y2="47.61"/><polyline class="cls-3" points="40.06 34.43 44.83 29.59 49.72 34.4"/><path class="cls-2" d="M122,24a9.37,9.37,0,0,1,8.53-9.32,7.85,7.85,0,1,0-7.43,13.69A9.3,9.3,0,0,1,122,24Z"/><path class="cls-2" d="M167.49,47.27a2.61,2.61,0,0,0-1.81-.76h-3.22a31.13,31.13,0,0,0-5.67-9.66c1.3-2.39,2.24-5.5,1.78-7.14a2.09,2.09,0,0,0-1.11-1.38c-2.48-1.17-4.88.06-9.89,2.87A26.31,26.31,0,0,0,143,30.13,7.81,7.81,0,1,0,127.8,30,29.57,29.57,0,0,0,117,34.31c-6.82,4.75-10.25,12.05-9.74,20.59a9.16,9.16,0,0,1-3.5-.6,6.15,6.15,0,0,0,2-4.3,4.57,4.57,0,0,0-4.67-4.78A4.62,4.62,0,0,0,96.36,50a6.38,6.38,0,0,0,1.74,4.22,6.82,6.82,0,0,1-3.07.49,1.56,1.56,0,0,0-.46,3.09,11.16,11.16,0,0,0,6.3-1.39A12.66,12.66,0,0,0,106.94,58c.27,0,.52,0,.78,0a34.83,34.83,0,0,0,3.16,7.55c1.51,2.87,3.55,6.48,5.32,9.4.28.47.87,1.35,1.38,2.12l.68,1a3.89,3.89,0,0,0,3.09,1.82h6.5a2.56,2.56,0,0,0,1.8-.76,2.52,2.52,0,0,0,.74-1.8v-4a39.74,39.74,0,0,0,6.68.22l1.3,4.1.06.16a3.37,3.37,0,0,0,1.3,1.52,3.46,3.46,0,0,0,1.93.59h6.84a2.56,2.56,0,0,0,1.79-.76,2.52,2.52,0,0,0,.74-1.8V70.68c4.35-1.26,9.39-4.63,11.52-9.73l3.68-1.89a3.41,3.41,0,0,0,1.49-1.33,3.61,3.61,0,0,0,.5-1.84V49.07A2.53,2.53,0,0,0,167.49,47.27Zm-66.36,5.22-.19.16A3.83,3.83,0,0,1,99.49,50a1.52,1.52,0,0,1,1.58-1.65,1.6,1.6,0,0,1,1.08.39,1.64,1.64,0,0,1,.46,1.27A3.74,3.74,0,0,1,101.13,52.49Zm64,3.39a.48.48,0,0,1-.05.23s0,.07-.18.13l-4.26,2.19a1.56,1.56,0,0,0-.75.86c-1.67,4.59-6.64,7.81-10.68,8.63a1.56,1.56,0,0,0-1.25,1.53v7.33h-6.25a.41.41,0,0,1-.23-.09.35.35,0,0,1-.11-.1L140.2,73a34,34,0,0,0,3.41-.79,1.56,1.56,0,0,0-.87-3,29.54,29.54,0,0,1-9.08,1.22c-.71,0-1.4-.08-2.06-.14a18.74,18.74,0,0,1-7.89-2.45A1.56,1.56,0,1,0,122,70.49a18.79,18.79,0,0,0,5.27,2.18v4.12h-5.86a.85.85,0,0,1-.52-.4l-.7-1.06c-.48-.72-1-1.56-1.31-2-1.75-2.88-3.75-6.41-5.23-9.23s-3-5.92-3.24-8.82c-.63-7.66,2.35-14.19,8.38-18.4A26.84,26.84,0,0,1,129.15,33,7.81,7.81,0,0,0,132,35.33h-4.37a.78.78,0,0,0,0,1.56h15.62a.78.78,0,0,0,0-1.56h-4.37a7.81,7.81,0,0,0,2.74-2.25,21.12,21.12,0,0,1,5.31,1.25,1.56,1.56,0,0,0,1.51,0c4.08-2.29,6-3.3,7.13-3.28a13.66,13.66,0,0,1-2,5.22,1.56,1.56,0,0,0,.28,2c3.18,2.77,5.33,8.13,6.11,10.3a1.56,1.56,0,0,0,1.47,1h3.74Z"/><path class="cls-2" d="M153.23,47.26a2.34,2.34,0,1,0,2.34,2.34A2.34,2.34,0,0,0,153.23,47.26Z"/><path class="cls-2" d="M126.2,28.32a9.35,9.35,0,0,1,11.32-9.15A7.85,7.85,0,1,0,126.37,30.1,9.36,9.36,0,0,1,126.2,28.32Z"/></g></svg>