<svg xmlns="http://www.w3.org/2000/svg" viewBox="0 0 200 90"><defs><style>.cls-1{fill:#1e5748;}</style></defs><title>highPotentialReturn</title><g id="ARTWORK"><path class="cls-1" d="M139.12,22.29a1.29,1.29,0,0,0,.94,2.17h6.21V79.14a1.29,1.29,0,0,0,1.29,1.29H156a1.29,1.29,0,0,0,1.29-1.29V24.45h6.21a1.29,1.29,0,0,0,1.19-.79,1.3,1.3,0,0,0,.1-.5,1.29,1.29,0,0,0-.36-.9L152.48,10a1.29,1.29,0,0,0-1.87,0Z"/><path class="cls-1" d="M133.75,67.64c0,3.16-6.6,5.77-14.57,5.77s-14.57-2.61-14.57-5.77v5.77c0,3.16,6.6,5.77,14.57,5.77s14.57-2.61,14.57-5.77Z"/><path class="cls-1" d="M119,70.52c8.11,0,14.57-2.61,14.57-5.77V59c0,3.16-6.6,5.77-14.57,5.77S104.48,62.14,104.48,59v5.77C104.48,67.91,111.08,70.52,119,70.52Z"/><path class="cls-1" d="M119,61.86c8.11,0,14.57-2.61,14.57-5.77V50.32c0,3.16-6.6,5.77-14.57,5.77-5.22,0-9.76-1.1-12.37-2.75a3.84,3.84,0,0,1-2.2-3v5.77C104.48,59.25,111.08,61.86,119,61.86Z"/><path class="cls-1" d="M119,53.07c8.11,0,14.57-2.61,14.57-5.77V41.52c0,3.16-6.6,5.77-14.57,5.77-5.22,0-9.76-1.1-12.37-2.75a3.84,3.84,0,0,1-2.2-3V47.3C104.48,50.46,111.08,53.07,119,53.07Z"/><path class="cls-1" d="M106.81,41.66c2.61,1.65,7.15,2.61,12.23,2.61,8.11,0,14.57-2.61,14.57-5.77s-6.46-5.91-14.57-5.91c-5.08,0-9.62,1.1-12.23,2.75a4.66,4.66,0,0,0-2.34,2.75v.41a3.45,3.45,0,0,0,.82,1.92C105.85,40.84,106.27,41.25,106.81,41.66Z"/><path class="cls-1" d="M99,67.64c0,3.16-6.6,5.77-14.57,5.77s-14.57-2.47-14.57-5.77v5.77c0,3.16,6.6,5.77,14.57,5.77S99,76.57,99,73.41Z"/><path class="cls-1" d="M84.41,70.52c8.11,0,14.57-2.61,14.57-5.77V59c0,3.16-6.6,5.77-14.57,5.77s-14.57-2.61-14.57-5.91v5.77C69.85,67.91,76.31,70.52,84.41,70.52Z"/><path class="cls-1" d="M84.41,61.86c8.11,0,14.57-2.61,14.57-5.77V50.32c0,3.16-6.6,5.77-14.57,5.77-5.22,0-9.76-1.1-12.37-2.75a3.84,3.84,0,0,1-2.2-3v5.77C69.85,59.25,76.31,61.86,84.41,61.86Z"/><path class="cls-1" d="M72.18,49.91c2.61,1.65,7.15,2.61,12.23,2.61,8.11,0,14.57-2.61,14.57-5.77S92.38,41,84.41,41c-5.08,0-9.62,1.1-12.23,2.75a4.66,4.66,0,0,0-2.34,2.75v.41a3.45,3.45,0,0,0,.82,1.92C71.08,49.08,71.63,49.49,72.18,49.91Z"/><path class="cls-1" d="M64.62,67.91c0,3.16-6.6,5.77-14.57,5.77s-14.57-2.47-14.57-5.77v5.77c0,3.16,6.6,5.77,14.57,5.77s14.57-2.61,14.57-5.77Z"/><path class="cls-1" d="M50.06,70.8c8.11,0,14.57-2.61,14.57-5.77V59.25C64.62,62.41,58,65,50.06,65s-14.57-2.61-14.57-5.91v5.77C35.49,68.19,41.95,70.8,50.06,70.8Z"/><path class="cls-1" d="M37.82,58.43C40.44,60.08,45,61,50.06,61c8.11,0,14.57-2.61,14.57-5.77S58,49.49,50.06,49.49c-5.08,0-9.62,1.1-12.23,2.75A4.66,4.66,0,0,0,35.49,55v.41a3.45,3.45,0,0,0,.82,1.92C36.73,57.6,37.27,58,37.82,58.43Z"/></g></svg>