<svg id="Layer_1" data-name="Layer 1" xmlns="http://www.w3.org/2000/svg" viewBox="0 0 200 90">
  <title>howToCCGettingStarted</title>
  <g id="ARTWORK">
    <path d="M97.9,54.81h17.27v0a1,1,0,0,0,0-1.95H97.9a1,1,0,0,0-.71.3v1.41A1,1,0,0,0,97.9,54.81Z" style="fill: #1e5748"/>
    <path d="M115.18,36.43H97.9a1,1,0,0,0-.71.3v1.41a1,1,0,0,0,.71.3h17.27a1,1,0,0,0,0-2Z" style="fill: #1e5748"/>
    <path d="M97.9,46.62h17.27a1.07,1.07,0,0,0,.67-.7,1,1,0,0,0-.65-1.25H97.9a1,1,0,0,0-.71.3v1.41A1,1,0,0,0,97.9,46.62Z" style="fill: #1e5748"/>
    <path d="M92.12,27.82h-49a2.59,2.59,0,0,0-2.58,2.58V58.79a2.59,2.59,0,0,0,2.58,2.58h49a2.59,2.59,0,0,0,2.58-2.58V30.4A2.59,2.59,0,0,0,92.12,27.82Zm.47,31.24h-50V43.28h50Zm0-22.35h-50V30.13h50V36.7Z" style="fill: #1e5748"/>
    <path d="M157.31,18.19H136.45c-6.81,0-10.14,1.6-11.75,3.26-1.6-1.66-4.93-3.26-11.74-3.26H92.14A1.8,1.8,0,0,0,90.35,20h0v5.8h1.87V20h20.23c9.34,0,9.57,3.41,9.57,3.41v48a21.6,21.6,0,0,0-9.56-2.24H92.22V63.38H90.35v5.88a1.8,1.8,0,0,0,1.79,1.81H113c4.39,0,8.78,1.88,8.83,2.11a2,2,0,0,0,1.79.65H126c.91,0,1,0,1.76-.84a22.37,22.37,0,0,1,8.73-1.92h20.82a1.8,1.8,0,0,0,1.79-1.81h0V20A1.8,1.8,0,0,0,157.31,18.19ZM129.5,28V27a3.9,3.9,0,0,0,2.36-1.37h1.26v8.58H131v-4.6a8,8,0,0,0,0-1.2.45.45,0,0,0-.26-.31,2.73,2.73,0,0,0-1-.1Zm3,14.15a.41.41,0,0,0-.36-.17.4.4,0,0,0-.36.19,1.6,1.6,0,0,0-.12.76v.82h-1.92V43.4a6.77,6.77,0,0,1,.07-1.14,2,2,0,0,1,.37-.82,1.84,1.84,0,0,1,.76-.61,2.76,2.76,0,0,1,1.12-.21,2.68,2.68,0,0,1,1.93.63,2.14,2.14,0,0,1,.66,1.6,3.81,3.81,0,0,1-.37,1.56,32,32,0,0,1-2.17,3.49h2.35v1.46h-4.71V48.16q2.09-3.43,2.49-4.24a3.21,3.21,0,0,0,.39-1.27A.93.93,0,0,0,132.49,42.12Zm2.08,21.48a1.66,1.66,0,0,1-.81.86,3.2,3.2,0,0,1-1.47.29,3.16,3.16,0,0,1-1.6-.34,1.66,1.66,0,0,1-.76-.84,5.58,5.58,0,0,1-.18-1.72v-.68h2.14v1.39a2.27,2.27,0,0,0,.07.71.29.29,0,0,0,.29.15.32.32,0,0,0,.33-.19,3.57,3.57,0,0,0,.08-1v-.59a1.74,1.74,0,0,0-.11-.72.55.55,0,0,0-.33-.3,3.41,3.41,0,0,0-.84-.08V59.3a4.39,4.39,0,0,0,.94-.06.41.41,0,0,0,.26-.25,1.76,1.76,0,0,0,.08-.62V57.9a1.25,1.25,0,0,0-.09-.59.38.38,0,0,0-.59,0,1.6,1.6,0,0,0-.08.64v.71h-2.14v-.73a2,2,0,0,1,.56-1.66,3,3,0,0,1,1.79-.43,2.78,2.78,0,0,1,2.08.6,2.38,2.38,0,0,1,.55,1.66,2.08,2.08,0,0,1-.2,1,1.75,1.75,0,0,1-.69.59,1.33,1.33,0,0,1,.73.54,4,4,0,0,1,.24,1.75A4.28,4.28,0,0,1,134.58,63.61ZM140,61.36h-2.25V60.17H140Zm0-15.21h-2.25V45H140Zm0-15.2h-2.25V29.76H140Zm3.6,30.41h-2.25V60.17h2.25Zm0-15.21h-2.25V45h2.25Zm0-15.2h-2.25V29.76h2.25Zm3.6,30.41h-2.25V60.17h2.25Zm0-15.21h-2.25V45h2.25Zm0-15.2h-2.25V29.76h2.25Zm3.6,30.41h-2.25V60.17h2.25Zm0-15.21h-2.25V45h2.25Zm0-15.2h-2.25V29.76h2.25Z" style="fill: #1e5748"/>
  </g>
</svg>
