<svg xmlns="http://www.w3.org/2000/svg" viewBox="0 0 200 90"><defs><style>.cls-1,.cls-4,.cls-5{fill:none;}.cls-1,.cls-4,.cls-5,.cls-6{stroke:#1e5748;}.cls-1,.cls-5{stroke-linecap:round;stroke-linejoin:round;}.cls-1{stroke-width:4px;}.cls-2{fill:#1e5748;}.cls-3{fill:#1e5748;}.cls-4,.cls-6{stroke-miterlimit:10;}.cls-4,.cls-5{stroke-width:2px;}.cls-6{fill:#1e5748;}</style></defs><title>TDpublic_illustrations_200x90_02_CreditCards</title><g id="ARTWORK"><rect class="cls-1" x="120.45" y="26.19" width="47.49" height="51.81"/><circle class="cls-2" cx="133.25" cy="35.6" r="2.7" transform="translate(13.86 104.65) rotate(-45)"/><circle class="cls-3" cx="154.84" cy="35.6" r="2.7" transform="translate(20.18 119.91) rotate(-45)"/><line class="cls-4" x1="121.38" y1="66.3" x2="167.93" y2="66.3"/><path class="cls-5" d="M133.25,34.74V21.3a10.79,10.79,0,0,1,21.59,0V34.74"/><rect class="cls-6" x="120.3" y="71.3" width="48" height="6"/><path class="cls-2" d="M159.65,48.34l-3.42.67-1.56-3.11a.53.53,0,0,0-.57-.29.55.55,0,0,0-.45.47l-.48,3.42-3.43.53a.55.55,0,0,0-.15,1l3.15,1.47L152.18,56a.55.55,0,0,0,.3.57.53.53,0,0,0,.24,0,.55.55,0,0,0,.46-.1L155.55,54l3.09,1.6a.55.55,0,0,0,.72-.74l-1.67-3,2.48-2.48a.55.55,0,0,0-.51-1Z"/><path class="cls-3" d="M147.59,42.25a2.11,2.11,0,0,0-2.9.19l-3.93,3.94-7.32-2.73a2,2,0,0,0-2.28.46,1.66,1.66,0,0,0,0,2.73l5,4.1-3.25,3.25-3.05-.75a.9.9,0,0,0-1,.24c-.12.14-1,.77-.37,1.37l3.54,2.75,2.76,3.53c.43.42.83.16,1.36-.35.35-.35.27-.53.16-1l-.68-3,3.23-3.25,4.11,5a1.66,1.66,0,0,0,2.73,0,2,2,0,0,0,.45-2.28l-2.73-7.32,3.93-3.95a2.1,2.1,0,0,0,.19-2.88Z"/><path class="cls-3" d="M104.95,34.71a1,1,0,0,0-1.68.73v4.82H90.5a1,1,0,0,0-1,1v6.52a1,1,0,0,0,1,1h12.77V53.6a1,1,0,0,0,1.7.72l9.55-9.24a1,1,0,0,0,0-1.41l0,0Z"/><rect class="cls-4" x="30.2" y="29.51" width="52.06" height="31.25" rx="1" ry="1"/><rect class="cls-3" x="30.78" y="37.54" width="51.24" height="6.56"/></g></svg>