<svg xmlns="http://www.w3.org/2000/svg" viewBox="0 0 200 90"><defs><style>.cls-1{fill:#1e5748;}</style></defs><title>TDpublic_illustrations_200x90_02_CreditCards</title><g id="ARTWORK"><path class="cls-1" d="M129.46,15.54h0a8.59,8.59,0,0,0-6,2.48l-10.24,10.2L93.81,20.95l-.19-.06-.25-.06c-1.94-.5-4.87-1.26-8,1.85a7.35,7.35,0,0,0-2.58,5.1,7.56,7.56,0,0,0,2.58,5.29l.14.13,1.37,1.12-6.78,6.78a1.43,1.43,0,1,0,2,2l7-7L92.65,39l-3,3a1.43,1.43,0,1,0,2,2l3.22-3.22L98,43.42,91.1,50.34l-7.52-1.88a4.33,4.33,0,0,0-4.66,1.22l-.13.12a5.4,5.4,0,0,0-2,3.68,3.64,3.64,0,0,0,1.15,2.66l.18.16,9.78,7.61,7.61,9.78.17.19A3.51,3.51,0,0,0,98.17,75c1.75,0,3.27-1.44,4-2.13a4,4,0,0,0,1-4.34l-1.76-7.83,6.89-6.91,2.53,3.09L107.7,60.1a1.43,1.43,0,1,0,2,2l3-3,3,3.67-7.29,7.29a1.43,1.43,0,1,0,2,2L117.52,65l1.06,1.29.13.14c3.41,3.41,6.88,3.42,10.37,0,3.1-3.11,2.36-6,1.86-7.93l-.07-.29a1.94,1.94,0,0,0-.06-.19l-7.22-19.5,10.2-10.24c2.74-2.74,3.62-7.72.56-10.78A6.82,6.82,0,0,0,129.46,15.54ZM88.09,25.36c1.57-1.57,2.55-1.32,4.33-.86l20.65,7.7.08,0-6.43,6.43-20-10.46a1.87,1.87,0,0,1-.06-.42A4,4,0,0,1,88.09,25.36ZM88,30.31c-.18-.18-.37-.39-.54-.61L106,39.36l-3.34,3.34a1.9,1.9,0,0,0-.6-.9Zm22,19.47a1.9,1.9,0,0,0-1-.64l3.4-3.4,9.74,18.67a8.15,8.15,0,0,1-.67-.59Zm17.22,9.48.05.2c.45,1.76.7,2.72-.88,4.31-.87.85-1.66,1.62-2.77,1.4L113.09,45l6.47-6.47s0,.09,0,.14Zm3.89-33.66L120,36.7a1.86,1.86,0,0,0-.15.2L106.47,50.31l0,0L98,58.77a1.9,1.9,0,0,0-.51,1.76L99.45,69l.07.33c.05.23.11.51.13.66l-.11.12a7.62,7.62,0,0,1-1.21,1l-7.59-9.76a1.85,1.85,0,0,0-.33-.33l-9.78-7.61a4.33,4.33,0,0,1,.78-.89c.17-.16.29-.29.35-.36s.2-.23.88-.06l8.58,2.14a1.9,1.9,0,0,0,1.8-.5l9.18-9.16a1.89,1.89,0,0,0,.31-.43L114.6,32.11a1.89,1.89,0,0,0,.48-.34l11.1-11.07a4.71,4.71,0,0,1,3.26-1.36h0a3,3,0,0,1,2.19.84h0C133.08,21.62,132.51,24.19,131.09,25.6Z"/><path class="cls-1" d="M127.75,21.65a.47.47,0,0,0-.5.44.48.48,0,0,0,.44.5c.06,0,1.46.11,1.46,1.43a.48.48,0,1,0,1,0A2.39,2.39,0,0,0,127.75,21.65Z"/><path class="cls-1" d="M168.18,34.29a1,1,0,0,0-.75-.22,17.84,17.84,0,0,1-15.25-5.4.94.94,0,0,0-.67-.28h0a1,1,0,0,0-.67.28,18.16,18.16,0,0,1-15.26,5.48.93.93,0,0,0-.75.23.94.94,0,0,0-.32.71c0,24.47,8.42,28.74,16.57,32.87a.93.93,0,0,0,.43.1,1,1,0,0,0,.44-.11c8.14-4.25,16.56-8.65,16.56-32.95A1,1,0,0,0,168.18,34.29ZM151.5,66.05c-7.71-3.92-14.88-8-15.1-29.92a20,20,0,0,0,15.1-5.48,19.68,19.68,0,0,0,15.11,5.41C166.39,57.87,159.21,62,151.5,66.05Z"/><path class="cls-1" d="M163.76,38a21.47,21.47,0,0,1-11.69-4.39.94.94,0,0,0-1.14,0A21.82,21.82,0,0,1,139.24,38a.94.94,0,0,0-.88,1C139,56.08,144.27,60.15,151,63.69a.94.94,0,0,0,.89,0c6.53-3.52,12-7.82,12.72-24.72A.94.94,0,0,0,163.76,38Z"/><path class="cls-1" d="M78.36,39.32l4.89-4.89a13,13,0,0,1-1.42-1.82H32.58v7.58H77.72A3.87,3.87,0,0,1,78.36,39.32Z"/><path class="cls-1" d="M76.76,58.42H32.91V24.35H81.08a10,10,0,0,1,1.24-2H32.91a2,2,0,0,0-2,2V58.42a2,2,0,0,0,2,2H79.33Z"/></g></svg>