<svg xmlns="http://www.w3.org/2000/svg" viewBox="0 0 200 90"><defs><style>.cls-1{fill:#1e5748;}.cls-2,.cls-3,.cls-4,.cls-6{fill:none;stroke:#1e5748;}.cls-2,.cls-3,.cls-6{stroke-miterlimit:10;}.cls-2{stroke-width:2px;}.cls-4{stroke-linecap:round;stroke-linejoin:round;}.cls-4,.cls-6{stroke-width:1.5px;}.cls-5{fill:#1e5748;}.cls-6{stroke-dasharray:3 5;}</style></defs><title>TDpublic_illustrations_200x90_02_CreditCards</title><g id="ARTWORK"><polygon class="cls-1" points="65.76 34.84 65.78 34.82 66.26 35.72 66.25 35.73 67.16 37.41 73.3 31.29 68.53 31.28 65.48 34.32 65.76 34.84"/><path class="cls-1" d="M64.82,33.11l1.84-1.83h-2a.48.48,0,0,0-.42.71Z"/><path class="cls-1" d="M75.53,31.3h-.35l-7.35,7.33.15.27h0l.09.16H72L75.83,32a.48.48,0,0,0,0-.47A.46.46,0,0,0,75.53,31.3Z"/><path class="cls-1" d="M63.32,60.94,63,62.15a.48.48,0,0,0,.14.44l.09.08L74.57,51.4,74.25,50h0l-.56-2.47-9.46,9.41Z"/><polygon class="cls-1" points="65.11 64.29 65.72 64.83 66.81 65.79 75.81 56.81 75.21 54.19 74.95 53.06 74.92 52.93 64.27 63.55 65.11 64.29"/><path class="cls-1" d="M76.16,58.34l-8.35,8.33.17.15,1.73,1.53a.48.48,0,0,0,.67,0L76.9,62.6a.48.48,0,0,0,.13-.43l-.82-3.64Z"/><polygon class="cls-1" points="72.11 40.57 72.04 40.3 71.99 40.07 68.07 40.07 66.74 45.92 72.11 40.57"/><polygon class="cls-1" points="64.83 54.28 64.78 54.52 73.34 45.98 72.46 42.1 66.19 48.34 64.83 54.28"/><path class="cls-2" d="M145.52,77.27a12.72,12.72,0,1,1,4.39-17.45,12.72,12.72,0,0,1-4.39,17.45Z"/><path class="cls-2" d="M143.29,73.18a8.09,8.09,0,1,1,2.79-11.1h0A8.09,8.09,0,0,1,143.29,73.18Z"/><path class="cls-3" d="M140.93,63.86a37.91,37.91,0,0,1,.89-4.81l-.9-.23h-.06l-.9-.23a37.82,37.82,0,0,1-1.5,4.66,37.79,37.79,0,0,1-2.78-4l-.79.48h-.06l-.79.47a37.72,37.72,0,0,1,2.24,4.35,37.86,37.86,0,0,1-4.81-.89l-.23.9v.06l-.23.9a37.8,37.8,0,0,1,4.66,1.5,38,38,0,0,1-4,2.78l.48.79v.06l.46.83A37.69,37.69,0,0,1,137,69.24a37.91,37.91,0,0,1-.89,4.81l.9.23H137l.9.2a37.81,37.81,0,0,1,1.5-4.66,37.83,37.83,0,0,1,2.78,4l.79-.47h.06l.79-.48a37.86,37.86,0,0,1-2.23-4.39,38,38,0,0,1,4.81.89l.23-.9v-.06l.23-.9a37.9,37.9,0,0,1-4.66-1.5,37.9,37.9,0,0,1,4-2.78l-.44-.75v-.06l-.48-.79A37.65,37.65,0,0,1,140.93,63.86Z"/><circle class="cls-2" cx="138.93" cy="66.57" r="2.54" transform="translate(-14.47 80.77) rotate(-30.89)"/><rect class="cls-1" x="164.72" y="40.87" width="9.8" height="9.8" rx="1" ry="1"/><rect class="cls-4" x="162.03" y="38.19" width="15.18" height="15.18" rx="1" ry="1"/><line class="cls-4" x1="165.83" y1="38.19" x2="165.83" y2="34.08"/><line class="cls-4" x1="169.62" y1="38.19" x2="169.62" y2="34.08"/><line class="cls-4" x1="173.41" y1="38.19" x2="173.41" y2="34.08"/><line class="cls-4" x1="165.83" y1="57.48" x2="165.83" y2="53.36"/><line class="cls-4" x1="169.62" y1="57.48" x2="169.62" y2="53.36"/><line class="cls-4" x1="173.41" y1="57.48" x2="173.41" y2="53.36"/><line class="cls-4" x1="177.21" y1="41.98" x2="181.32" y2="41.98"/><line class="cls-4" x1="177.21" y1="45.78" x2="181.32" y2="45.78"/><line class="cls-4" x1="177.21" y1="49.57" x2="181.32" y2="49.57"/><line class="cls-4" x1="157.92" y1="41.98" x2="162.03" y2="41.98"/><line class="cls-4" x1="157.92" y1="45.78" x2="162.03" y2="45.78"/><line class="cls-4" x1="157.92" y1="49.57" x2="162.03" y2="49.57"/><path class="cls-1" d="M150.13,14.14a.63.63,0,0,0-.5-.15,11.92,11.92,0,0,1-10.2-3.61.63.63,0,0,0-.45-.19h0a.63.63,0,0,0-.45.19A12.13,12.13,0,0,1,128.34,14a.62.62,0,0,0-.5.15.63.63,0,0,0-.21.47c0,16.34,5.63,19.19,11.07,22a.62.62,0,0,0,.28.07.64.64,0,0,0,.3-.07c5.44-2.84,11.06-5.78,11.06-22A.63.63,0,0,0,150.13,14.14ZM139,35.35c-5.15-2.62-9.94-5.31-10.08-20A13.37,13.37,0,0,0,139,11.69a13.14,13.14,0,0,0,10.09,3.61C148.93,29.88,144.14,32.65,139,35.35Z"/><path class="cls-5" d="M139,20.13a1.38,1.38,0,0,0-1.39,1.37s0,0,0,0v.86h2.8v-.86a1.38,1.38,0,0,0-1.36-1.4Z"/><path class="cls-1" d="M147.17,16.6a14.34,14.34,0,0,1-7.81-2.93.63.63,0,0,0-.76,0,14.57,14.57,0,0,1-7.81,3,.63.63,0,0,0-.59.65c.45,11.4,3.95,14.12,8.47,16.49a.63.63,0,0,0,.59,0c4.36-2.35,8-5.22,8.49-16.51a.63.63,0,0,0-.55-.7Zm-5,10a.66.66,0,0,1-.66.66h-5a.66.66,0,0,1-.66-.66h0V23a.66.66,0,0,1,.66-.66h.07v-.81a2.47,2.47,0,1,1,4.94,0v.86h0a.67.67,0,0,1,.62.66v3.6Z"/><line class="cls-6" x1="83.39" y1="34.19" x2="119.14" y2="22.04"/><line class="cls-6" x1="83.39" y1="56.6" x2="119.14" y2="68.74"/><line class="cls-6" x1="83.39" y1="46.48" x2="150.3" y2="45.75"/><path class="cls-1" d="M63,54.19H21.79v-15H65.88L62.55,33H21.79V26.72H69.23v2.36h2V27a2.46,2.46,0,0,0-2.45-2.45H22.24A2.46,2.46,0,0,0,19.79,27v27a2.46,2.46,0,0,0,2.45,2.45h40.3Z"/></g></svg>