<svg xmlns="http://www.w3.org/2000/svg" viewBox="0 0 200 90"><defs><style>.cls-1,.cls-2,.cls-4,.cls-5,.cls-6,.cls-7{fill:none;stroke:#1e5748;}.cls-1,.cls-4,.cls-6{stroke-miterlimit:10;}.cls-1,.cls-7{stroke-width:1.5px;}.cls-1{stroke-dasharray:3 5;}.cls-2,.cls-5,.cls-7{stroke-linecap:round;stroke-linejoin:round;}.cls-2,.cls-6{stroke-width:2px;}.cls-3{fill:#1e5748;}</style></defs><title>TDpublic_illustrations_200x90_02_CreditCards</title><g id="ARTWORK"><line class="cls-1" x1="83.03" y1="35.98" x2="118.78" y2="23.83"/><line class="cls-1" x1="83.03" y1="58.39" x2="118.78" y2="70.53"/><line class="cls-1" x1="83.03" y1="48.27" x2="149.94" y2="47.54"/><rect class="cls-2" x="129.39" y="14.82" width="18.34" height="20"/><circle class="cls-3" cx="134.4" cy="18.34" r="1.04" transform="translate(26.4 100.41) rotate(-45)"/><circle class="cls-3" cx="142.74" cy="18.33" r="1.04" transform="translate(28.84 106.3) rotate(-45)"/><line class="cls-4" x1="129.82" y1="30.11" x2="147.79" y2="30.11"/><path class="cls-5" d="M134.4,18V12.82a4.17,4.17,0,0,1,8.33,0V18"/><rect class="cls-3" x="129.4" y="32.13" width="18.53" height="2.32"/><path class="cls-3" d="M135.71,22.43l2.19.42,1-2a.34.34,0,0,1,.37-.19.35.35,0,0,1,.28.3l.28,2.21,2.2.34a.35.35,0,0,1,.09.66l-2,1,.36,2.2a.35.35,0,0,1-.19.37.52.52,0,0,1-.4-.11L138.37,26l-2,1a.35.35,0,0,1-.46-.47l1.07-2L135.4,23a.35.35,0,0,1,.31-.54Z"/><path class="cls-6" d="M145.25,80.07a12.72,12.72,0,1,1,4.29-17.47,12.72,12.72,0,0,1-4.29,17.47Z"/><path class="cls-6" d="M143,76a8.09,8.09,0,1,1,2.72-11.11h0A8.09,8.09,0,0,1,143,76Z"/><path class="cls-4" d="M140.59,66.69a37.91,37.91,0,0,1,.86-4.81l-.9-.22h-.06l-.9-.22a37.82,37.82,0,0,1-1.47,4.67,37.79,37.79,0,0,1-2.8-4l-.79.48h-.06l-.79.47a37.72,37.72,0,0,1,2.26,4.34,37.86,37.86,0,0,1-4.81-.86l-.22.9v.06l-.22.9a37.8,37.8,0,0,1,4.67,1.47,38,38,0,0,1-4,2.8l.48.79v.06l.46.83a37.69,37.69,0,0,1,4.34-2.26,37.91,37.91,0,0,1-.86,4.81l.9.22h.06l.9.22a37.81,37.81,0,0,1,1.47-4.67,37.83,37.83,0,0,1,2.8,4l.79-.47h.06l.79-.48a37.86,37.86,0,0,1-2.26-4.41,38,38,0,0,1,4.81.86l.22-.9v-.06l.22-.9a37.9,37.9,0,0,1-4.67-1.47,37.9,37.9,0,0,1,4-2.8l-.43-.75v-.06l-.48-.79A37.65,37.65,0,0,1,140.59,66.69Z"/><circle class="cls-6" cx="138.6" cy="69.41" r="2.54" transform="translate(-15.91 81.87) rotate(-31.21)"/><rect class="cls-3" x="164.36" y="42.66" width="9.8" height="9.8" rx="1" ry="1"/><rect class="cls-7" x="161.67" y="39.98" width="15.18" height="15.18" rx="1" ry="1"/><line class="cls-7" x1="165.47" y1="39.98" x2="165.47" y2="35.87"/><line class="cls-7" x1="169.26" y1="39.98" x2="169.26" y2="35.87"/><line class="cls-7" x1="173.05" y1="39.98" x2="173.05" y2="35.87"/><line class="cls-7" x1="165.47" y1="59.27" x2="165.47" y2="55.15"/><line class="cls-7" x1="169.26" y1="59.27" x2="169.26" y2="55.15"/><line class="cls-7" x1="173.05" y1="59.27" x2="173.05" y2="55.15"/><line class="cls-7" x1="176.85" y1="43.77" x2="180.96" y2="43.77"/><line class="cls-7" x1="176.85" y1="47.57" x2="180.96" y2="47.57"/><line class="cls-7" x1="176.85" y1="51.36" x2="180.96" y2="51.36"/><line class="cls-7" x1="157.56" y1="43.77" x2="161.67" y2="43.77"/><line class="cls-7" x1="157.56" y1="47.57" x2="161.67" y2="47.57"/><line class="cls-7" x1="157.56" y1="51.36" x2="161.67" y2="51.36"/><rect class="cls-6" x="23.51" y="31.73" width="52.06" height="31.25" rx="1" ry="1"/><rect class="cls-3" x="24.09" y="39.75" width="51.24" height="6.56"/></g></svg>