<svg xmlns="http://www.w3.org/2000/svg" viewBox="0 0 200 90"><defs><style>.cls-1{fill:#1e5748;}.cls-2,.cls-4,.cls-5{fill:none;}.cls-2,.cls-4,.cls-5,.cls-6{stroke:#1e5748;}.cls-2,.cls-5{stroke-linecap:round;stroke-linejoin:round;}.cls-2{stroke-width:4px;}.cls-3{fill:#1e5748;}.cls-4,.cls-6{stroke-miterlimit:10;}.cls-4,.cls-5{stroke-width:2px;}.cls-6{fill:#1e5748;}</style></defs><title>TDpublic_illustrations_200x90_02_CreditCards</title><g id="ARTWORK"><path class="cls-1" d="M107.13,33.84a1,1,0,0,0-1.68.73v4.82H92.68a1,1,0,0,0-1,1v6.52a1,1,0,0,0,1,1h12.77v4.82a1,1,0,0,0,1.7.72l9.55-9.24a1,1,0,0,0,0-1.41l0,0Z"/><rect class="cls-2" x="123.15" y="26.19" width="47.49" height="51.81"/><circle class="cls-3" cx="135.95" cy="35.6" r="2.7" transform="translate(14.65 106.56) rotate(-45)"/><circle class="cls-1" cx="157.54" cy="35.6" r="2.7" transform="translate(20.97 121.82) rotate(-45)"/><line class="cls-4" x1="124.08" y1="66.3" x2="170.63" y2="66.3"/><path class="cls-5" d="M135.95,34.74V21.3a10.79,10.79,0,0,1,21.59,0V34.74"/><rect class="cls-6" x="123" y="71.3" width="48" height="6"/><path class="cls-3" d="M162.36,48.34l-3.42.67-1.56-3.11a.53.53,0,0,0-.57-.29.55.55,0,0,0-.45.47l-.48,3.42-3.43.53a.55.55,0,0,0-.15,1l3.15,1.47L154.88,56a.55.55,0,0,0,.3.57.53.53,0,0,0,.24,0,.55.55,0,0,0,.46-.1L158.25,54l3.09,1.6a.55.55,0,0,0,.72-.74l-1.67-3,2.48-2.48a.55.55,0,0,0-.51-1Z"/><path class="cls-1" d="M150.3,42.25a2.11,2.11,0,0,0-2.9.19l-3.93,3.94-7.32-2.73a2,2,0,0,0-2.28.46,1.66,1.66,0,0,0,0,2.73l5,4.1-3.25,3.25-3.05-.75a.9.9,0,0,0-1,.24c-.12.14-1,.77-.37,1.37l3.54,2.75,2.76,3.53c.43.42.83.16,1.36-.35.35-.35.27-.53.16-1l-.68-3,3.23-3.25,4.11,5a1.66,1.66,0,0,0,2.73,0,2,2,0,0,0,.45-2.28l-2.73-7.32,3.93-3.95a2.1,2.1,0,0,0,.19-2.88Z"/><polygon class="cls-1" points="75.38 38.39 75.4 38.37 75.9 39.32 75.89 39.33 76.85 41.09 83.31 34.66 78.29 34.64 75.08 37.84 75.38 38.39"/><path class="cls-1" d="M74.39,36.57l1.94-1.93h-2.1a.51.51,0,0,0-.44.75Z"/><path class="cls-1" d="M85.66,34.67h-.37l-7.73,7.71.16.28h0l.09.17h4.11L86,35.36a.51.51,0,0,0,0-.49A.48.48,0,0,0,85.66,34.67Z"/><path class="cls-1" d="M72.81,65.85l-.29,1.27a.51.51,0,0,0,.15.46l.09.08L84.65,55.81l-.34-1.47h0l-.59-2.6-10,9.9Z"/><polygon class="cls-1" points="74.69 69.38 75.33 69.94 76.48 70.95 85.95 61.51 85.32 58.75 85.05 57.56 85.01 57.42 73.81 68.6 74.69 69.38"/><path class="cls-1" d="M86.32,63.12l-8.79,8.76.18.16,1.82,1.61a.51.51,0,0,0,.7,0L87.1,67.6a.51.51,0,0,0,.14-.45l-.86-3.83Z"/><polygon class="cls-1" points="82.06 44.42 81.98 44.13 81.93 43.89 77.81 43.89 76.41 50.05 82.06 44.42"/><polygon class="cls-1" points="74.4 58.84 74.34 59.1 83.35 50.11 82.42 46.03 75.83 52.59 74.4 58.84"/><path class="cls-1" d="M72.52,58.75H29.11V43H75.5L72,36.42H29.11V29.85H79v2.64h2.11V30.12a2.59,2.59,0,0,0-2.58-2.58h-49A2.59,2.59,0,0,0,27,30.12V58.48a2.59,2.59,0,0,0,2.58,2.58H72Z"/></g></svg>