<svg xmlns="http://www.w3.org/2000/svg" viewBox="0 0 200 90"><defs><style>.cls-1{fill:#1e5748;}.cls-2,.cls-3,.cls-4,.cls-5{fill:none;stroke:#1e5748;}.cls-2,.cls-3{stroke-miterlimit:10;}.cls-2,.cls-4{stroke-width:3px;}.cls-3,.cls-5{stroke-width:2px;}.cls-4,.cls-5{stroke-linecap:round;stroke-linejoin:round;}</style></defs><title>howMuchCanIAffordCalculator</title><g id="ARTWORK"><rect class="cls-1" x="121.98" y="35.47" width="7.35" height="7.35" rx="0.25" ry="0.25"/><rect class="cls-1" x="133.02" y="35.47" width="7.35" height="7.35" rx="0.25" ry="0.25"/><rect class="cls-1" x="144.38" y="35.47" width="7.35" height="7.35" rx="0.25" ry="0.25"/><rect class="cls-1" x="121.67" y="49.22" width="7.35" height="7.35" rx="0.25" ry="0.25"/><rect class="cls-1" x="133.02" y="49.22" width="7.35" height="7.35" rx="0.25" ry="0.25"/><rect class="cls-1" x="144.38" y="49.22" width="7.35" height="7.35" rx="0.25" ry="0.25"/><rect class="cls-1" x="121.67" y="63.11" width="7.35" height="7.35" rx="0.25" ry="0.25"/><rect class="cls-1" x="133.02" y="63.11" width="7.35" height="7.35" rx="0.25" ry="0.25"/><rect class="cls-1" x="144.38" y="63.11" width="7.35" height="7.35" rx="0.25" ry="0.25"/><rect class="cls-2" x="115" y="11.5" width="43.4" height="66.93" rx="1" ry="1"/><rect class="cls-3" x="121.46" y="19.26" width="30.47" height="8.71" rx="1" ry="1"/><path class="cls-1" d="M79.08,57.42a1,1,0,0,0-1-1l-11.92,0a1,1,0,0,0-1,1l.05,19.37h0v3l13.91,0Zm-10.43,11a1.49,1.49,0,1,1,1.49-1.49A1.49,1.49,0,0,1,68.65,68.37Z"/><polyline class="cls-4" points="96.02 49.54 96.02 78.45 48.33 78.52 48.33 48.79"/><path class="cls-1" d="M94.46,50.1l3,1.34,6.37,0L97.42,45V45l0-17.88a1.49,1.49,0,0,0-1.49-1.49H91.41a1.49,1.49,0,0,0-1.49,1.49l0,10.53-15-14.89c-2.09-2.08-3.83-2.12-5.89-.06L40.5,51.39s3.72,0,6.29,0v0l3-.61h0l22.29-22.2L94.46,50.08Z"/><polygon class="cls-5" points="78.17 51.52 66.11 51.52 66.11 41.53 78.17 41.53 78.17 46.42 78.17 51.52"/><line class="cls-5" x1="66.23" y1="46.52" x2="78.05" y2="46.52"/><line class="cls-5" x1="72.14" y1="41.67" x2="72.14" y2="51.38"/></g></svg>