<svg xmlns="http://www.w3.org/2000/svg" viewBox="0 0 200 90"><defs><style>.cls-1{fill:#1e5748;}.cls-2,.cls-3,.cls-4{fill:none;stroke:#1e5748;stroke-linecap:round;}.cls-2,.cls-3{stroke-linejoin:round;}.cls-2{stroke-width:2px;}.cls-3{stroke-width:2.5px;}.cls-4{stroke-miterlimit:10;stroke-width:4px;}</style></defs><title>howMuchCanIAfford</title><g id="ARTWORK"><path class="cls-1" d="M99.44,32.8a7.49,7.49,0,1,1,7.49-7.49A7.49,7.49,0,0,1,99.44,32.8Zm0-12a4.49,4.49,0,1,0,4.49,4.49A4.49,4.49,0,0,0,99.44,20.83Z"/><path class="cls-1" d="M127.29,53.23V54A3,3,0,0,0,124.42,57a2.48,2.48,0,0,0,.83,2,6.8,6.8,0,0,0,3.12,1.07c1.09,0,1.56.65,1.59,1.13a1,1,0,0,1-.41.94,2.54,2.54,0,0,1-1.56.4,2.82,2.82,0,0,1-2.25-.85,1.16,1.16,0,0,0-1.56,0,1.14,1.14,0,0,0,0,1.56,4.75,4.75,0,0,0,3.11,1.45v.58a.65.65,0,0,0,.72.7.67.67,0,0,0,.72-.72v-.58a4.72,4.72,0,0,0,2.49-1.09,3.24,3.24,0,0,0,.95-2.42A2.93,2.93,0,0,0,131,58.85a4,4,0,0,0-2.29-1l-1.25-.21c-.38-.06-.83-.22-.83-.66a.94.94,0,0,1,1-.87,2.79,2.79,0,0,1,1.85.57,1.11,1.11,0,0,0,1.56-.08,1.19,1.19,0,0,0-.08-1.56,4.37,4.37,0,0,0-2.24-1v-.81a.66.66,0,0,0-.72-.73A.74.74,0,0,0,127.29,53.23Z"/><path class="cls-1" d="M136.72,53.23V54A3,3,0,0,0,133.86,57a2.48,2.48,0,0,0,.83,2,6.8,6.8,0,0,0,3.12,1.07c1.09,0,1.56.65,1.59,1.13a1,1,0,0,1-.41.94,2.54,2.54,0,0,1-1.56.4,2.82,2.82,0,0,1-2.25-.85,1.16,1.16,0,0,0-1.56,0,1.14,1.14,0,0,0,0,1.56,4.75,4.75,0,0,0,3.11,1.45v.58a.65.65,0,0,0,.72.7.67.67,0,0,0,.72-.72v-.58a4.72,4.72,0,0,0,2.49-1.09,3.24,3.24,0,0,0,.95-2.42,2.93,2.93,0,0,0-1.15-2.35,4,4,0,0,0-2.29-1l-1.25-.21c-.38-.06-.83-.22-.83-.66a.94.94,0,0,1,1-.87,2.79,2.79,0,0,1,1.85.57,1.11,1.11,0,0,0,1.56-.08,1.19,1.19,0,0,0-.08-1.56,4.37,4.37,0,0,0-2.24-1v-.81a.66.66,0,0,0-.72-.73A.74.74,0,0,0,136.72,53.23Z"/><path class="cls-1" d="M151,53.74h-4.56l-.4-.1-1.47-1.38h0L132.73,40.92l-11.52,11.4h0l-1.47,1.38-.68.05-4.59,0,16.44-16.44c1.26-1.26,2.33-1.23,3.61,0Z"/><polyline class="cls-2" points="145.46 51.12 145.46 71.1 120.01 71.1 120.01 51.35"/><path class="cls-1" d="M62.17,21.56v.7a2.84,2.84,0,0,0-2.74,2.93,2.38,2.38,0,0,0,.8,1.89,6.5,6.5,0,0,0,3,1c1,0,1.49.62,1.52,1.08a1,1,0,0,1-.39.9,2.43,2.43,0,0,1-1.49.39,2.7,2.7,0,0,1-2.16-.81,1.11,1.11,0,0,0-1.5,0,1.09,1.09,0,0,0,0,1.49,4.54,4.54,0,0,0,3,1.39v.56a.62.62,0,0,0,.69.67.64.64,0,0,0,.69-.69v-.55a4.52,4.52,0,0,0,2.38-1,3.1,3.1,0,0,0,.91-2.31,2.8,2.8,0,0,0-1.1-2.25A3.86,3.86,0,0,0,63.54,26l-1.2-.2c-.36-.05-.8-.21-.8-.63a.9.9,0,0,1,1-.83,2.67,2.67,0,0,1,1.77.55,1.07,1.07,0,0,0,1.49-.07,1.14,1.14,0,0,0-.07-1.5,4.18,4.18,0,0,0-2.14-1v-.77a.63.63,0,0,0-.69-.69A.7.7,0,0,0,62.17,21.56Z"/><path class="cls-1" d="M77.13,24.2H73.57l-.31-.08L72.11,23h0l-9.24-8.86-9,8.9h0l-1.15,1.07-.53,0-3.59,0L61.44,11.33c1-1,1.82-1,2.82,0Z"/><polyline class="cls-3" points="72.81 22.16 72.81 37.76 52.93 37.76 52.93 22.34"/><path class="cls-1" d="M113.72,79.91H85.46a1.5,1.5,0,0,1-1.37-2.11c2.35-5.32,8.58-8.89,15.5-8.89s13.15,3.57,15.5,8.89a1.5,1.5,0,0,1-1.37,2.11Z"/><line class="cls-4" x1="99.59" y1="32" x2="99.59" y2="73.5"/><line class="cls-4" x1="99.59" y1="18.8" x2="99.59" y2="12.15"/><path class="cls-1" d="M94.08,25.5A5.6,5.6,0,0,1,95.3,22L64,10.25A2,2,0,1,0,62.63,14L94.1,25.83C94.09,25.72,94.08,25.61,94.08,25.5Z"/><path class="cls-1" d="M133.16,36.25,105.32,25.78a5.6,5.6,0,0,1-1.61,3.67l28,10.55a2,2,0,0,0,1.41-3.74Z"/></g></svg>