<svg xmlns="http://www.w3.org/2000/svg" viewBox="0 0 200 90"><defs><style>.cls-1{fill:#1e5748;}</style></defs><title>howTo</title><g id="ARTWORK"><path class="cls-1" d="M90.46,33.14H68.67a1.61,1.61,0,1,1,0-3.22H90.46a1.61,1.61,0,1,1,0,3.22Zm0,11.79H68.67a1.61,1.61,0,1,1,0-3.22H90.46a1.61,1.61,0,1,1,0,3.22Zm0,11.79H68.67a1.61,1.61,0,1,1,0-3.22H90.46a1.61,1.61,0,0,1,0,3.22Z"/><path class="cls-1" d="M140.65,10.08H112.29c-3.7,0-9.27.15-12.32,3.84-3.06-3.7-8.62-3.84-12.32-3.84H59.29a2.09,2.09,0,0,0-2.09,2.09V74a2.09,2.09,0,0,0,2.09,2.09h0L81.23,76a36.9,36.9,0,0,1,13.39,2.26h0a8.94,8.94,0,0,1,1.77,1.07,3.66,3.66,0,0,0,1.05.63,5.47,5.47,0,0,0,1.1.08h2.76a5.47,5.47,0,0,0,1.1-.08,3.67,3.67,0,0,0,1.05-.63c.63-.41,1.06-.7,1.47-.91A36.46,36.46,0,0,1,118.7,76l21.94.1h0A2.09,2.09,0,0,0,142.74,74V12.18A2.09,2.09,0,0,0,140.65,10.08Zm-20.32,33v1.45h-2.77V43.06Zm-2.77-17.21V24.4h2.77v1.45Zm2.77,35.88v1.45h-2.77V61.74Zm4.37-18.68v1.45h-2.77V43.06Zm-2.77-17.21V24.4h2.77v1.45Zm2.77,35.88v1.45h-2.77V61.74Zm4.37-18.68v1.45H126.3V43.06ZM126.3,25.85V24.4h2.77v1.45Zm2.77,35.88v1.45H126.3V61.74Zm4.37-18.68v1.45h-2.77V43.06Zm-2.77-17.21V24.4h2.77v1.45Zm2.77,35.88v1.45h-2.77V61.74Zm-24.22-39a.55.55,0,0,0-.32-.37,3.33,3.33,0,0,0-1.17-.13h-.26V21a4.78,4.78,0,0,0,2.9-1.69h1.55V29.82h-2.63V24.17A9.93,9.93,0,0,0,109.22,22.7Zm1.91,16.88a.51.51,0,0,0-.45-.21.49.49,0,0,0-.45.23,2,2,0,0,0-.15.93v1h-2.36v-.38a8.27,8.27,0,0,1,.09-1.4,2.44,2.44,0,0,1,.45-1,2.26,2.26,0,0,1,.93-.75,3.38,3.38,0,0,1,1.37-.25,3.29,3.29,0,0,1,2.37.78,2.62,2.62,0,0,1,.8,2,4.68,4.68,0,0,1-.45,1.91,39.4,39.4,0,0,1-2.67,4.28h2.88v1.8h-5.79V47q2.57-4.21,3.06-5.21a3.94,3.94,0,0,0,.49-1.56A1.14,1.14,0,0,0,111.13,39.58ZM107.77,63h2.63v1.71a2.77,2.77,0,0,0,.08.87.35.35,0,0,0,.36.19.39.39,0,0,0,.4-.23,4.36,4.36,0,0,0,.1-1.22v-.73a2.12,2.12,0,0,0-.14-.88.68.68,0,0,0-.4-.37,4.18,4.18,0,0,0-1-.1V60.67a5.3,5.3,0,0,0,1.16-.07.51.51,0,0,0,.32-.31,2.15,2.15,0,0,0,.1-.76v-.59a1.53,1.53,0,0,0-.11-.73.39.39,0,0,0-.36-.18.39.39,0,0,0-.37.19,2,2,0,0,0-.1.79v.87h-2.63V59a2.46,2.46,0,0,1,.69-2,3.62,3.62,0,0,1,2.19-.53,3.41,3.41,0,0,1,2.55.74,2.92,2.92,0,0,1,.67,2,2.55,2.55,0,0,1-.24,1.28,2.15,2.15,0,0,1-.85.72,1.64,1.64,0,0,1,.89.66A4.85,4.85,0,0,1,114,64a5.29,5.29,0,0,1-.29,2,2,2,0,0,1-1,1.05,3.93,3.93,0,0,1-1.8.36,3.87,3.87,0,0,1-2-.42,2,2,0,0,1-.94-1,6.86,6.86,0,0,1-.22-2.11ZM96.06,74.51A41,41,0,0,0,81.21,72l-20,.1v-58H87.65c2.54,0,7.26,0,9.24,2.39L98,17.82V75.26Z"/></g></svg>