<svg xmlns="http://www.w3.org/2000/svg" viewBox="0 0 200 90"><defs><style>.cls-1{fill:#1e5748;}</style></defs><title>howToRenew</title><g id="ARTWORK"><path class="cls-1" d="M114.12,40.75H96.95a1.27,1.27,0,1,0,0,2.54h17.17a1.27,1.27,0,1,0,0-2.54Z"/><path class="cls-1" d="M114.12,50H96.95a1.27,1.27,0,1,0,0,2.54h17.17a1.27,1.27,0,1,0,0-2.54Z"/><path class="cls-1" d="M114.12,59.34H96.95a1.27,1.27,0,0,0,0,2.54h17.17a1.27,1.27,0,0,0,0-2.54Z"/><path class="cls-1" d="M154.12,25.25H133.67c-6.69,0-10,1.57-11.55,3.21-1.59-1.63-4.86-3.21-11.55-3.21H90.12A1.77,1.77,0,0,0,88.36,27V75.44a1.77,1.77,0,0,0,1.76,1.77h20.45c4.32,0,8.63,1.85,8.67,2.07h0c.88.66.88.64,1.76.64h2.34c.89,0,.94,0,1.73-.82a22,22,0,0,1,8.57-1.89h20.45a1.77,1.77,0,0,0,1.76-1.77V27A1.77,1.77,0,0,0,154.12,25.25ZM119.47,76a20,20,0,0,0-8.82-2.07H91.92V28.53h18.73c8.61,0,8.82,3.15,8.82,3.15Zm7.16-31a1,1,0,0,1,.56-1.31,1,1,0,0,1,1.31.56l.87,2.18a11.66,11.66,0,0,1,4-4.73,10.55,10.55,0,0,1,8.26-1.65,10.88,10.88,0,0,1,8.12,8.52,1,1,0,0,1-.15.76,1,1,0,0,1-1.83-.38A8.86,8.86,0,0,0,141.19,42a8.51,8.51,0,0,0-6.68,1.34,9.66,9.66,0,0,0-3.36,4l2.44-1a1,1,0,1,1,.75,1.87L130,50a1.27,1.27,0,0,1-.47.09,1.27,1.27,0,0,1-1.18-.8Zm24.94,13.46A1,1,0,0,1,151,59a1,1,0,0,1-1.31-.56l-.87-2.18a11.66,11.66,0,0,1-4,4.73,10.61,10.61,0,0,1-6,1.9,10.34,10.34,0,0,1-2.26-.25,10.88,10.88,0,0,1-8.12-8.52,1,1,0,0,1,.15-.76,1,1,0,0,1,1.83.38A8.87,8.87,0,0,0,137,60.65a8.53,8.53,0,0,0,6.68-1.34,9.67,9.67,0,0,0,3.36-4l-2.44,1a1,1,0,0,1-1.31-.56,1,1,0,0,1,.56-1.31l4.33-1.73a1.27,1.27,0,0,1,1.65.71l1.73,4.33A1,1,0,0,1,151.57,58.45Z"/><path class="cls-1" d="M70.68,10.43H52.35A7.32,7.32,0,0,0,45,17.76V43.43H70.68A7.32,7.32,0,0,0,78,36.1V17.76A7.32,7.32,0,0,0,70.68,10.43ZM63,35.26a1.6,1.6,0,0,1-.57,1.19A2.09,2.09,0,0,1,61,37a2.26,2.26,0,0,1-1.54-.51,1.56,1.56,0,0,1-.6-1.2v-.77a1.56,1.56,0,0,1,.6-1.2A2.27,2.27,0,0,1,61,32.78a2.1,2.1,0,0,1,1.48.52A1.6,1.6,0,0,1,63,34.49Zm4.24-11.14a4.67,4.67,0,0,1-.94,1.26,8,8,0,0,1-1.19.93,10.5,10.5,0,0,0-1.14.83,4.33,4.33,0,0,0-.85,1,2.24,2.24,0,0,0-.32,1.23v.48a1.53,1.53,0,0,1-.47,1,1.7,1.7,0,0,1-1.24.55H61a1.76,1.76,0,0,1-1.25-.44,1.42,1.42,0,0,1-.51-1.05,6.08,6.08,0,0,1,.37-2.26,6,6,0,0,1,.9-1.56,6.3,6.3,0,0,1,1.17-1.11c.41-.3.79-.59,1.12-.87a5.27,5.27,0,0,0,.83-.86,1.62,1.62,0,0,0,.31-1,1.81,1.81,0,0,0-.56-1.48,2.38,2.38,0,0,0-1.58-.49,6.58,6.58,0,0,0-1.12.08,3,3,0,0,0-.82.26,2.63,2.63,0,0,0-.68.5,6.72,6.72,0,0,0-.69.82,1.9,1.9,0,0,1-.94.67,1.74,1.74,0,0,1-1.37-.12,1.38,1.38,0,0,1-.79-.85,2,2,0,0,1,0-1A3.3,3.3,0,0,1,56,19.54a5.25,5.25,0,0,1,1.21-1.23,7.43,7.43,0,0,1,1.94-1,8.17,8.17,0,0,1,2.76-.42,6.94,6.94,0,0,1,2.69.47,4.93,4.93,0,0,1,1.81,1.25,4.84,4.84,0,0,1,1,1.75,6.55,6.55,0,0,1,.31,2A3.92,3.92,0,0,1,67.29,24.12Z"/></g></svg>