<svg xmlns="http://www.w3.org/2000/svg" viewBox="0 0 201 90"><defs><style>.cls-1{fill:#1e5748;}.cls-2,.cls-3{fill:none;stroke:#1e5748;stroke-linejoin:round;stroke-width:2px;}.cls-3{stroke-linecap:round;}</style></defs><title>howToRefinance</title><g id="ARTWORK"><path class="cls-1" d="M102.87,40.56H85.69a1.27,1.27,0,1,0,0,2.54h17.17a1.27,1.27,0,1,0,0-2.54Z"/><path class="cls-1" d="M102.87,49.86H85.69a1.27,1.27,0,1,0,0,2.54h17.17a1.27,1.27,0,1,0,0-2.54Z"/><path class="cls-1" d="M102.87,59.16H85.69a1.27,1.27,0,0,0,0,2.54h17.17a1.27,1.27,0,0,0,0-2.54Z"/><path class="cls-1" d="M140.92,50.68a3,3,0,0,1,.73-1.18l3-3V26.84a1.77,1.77,0,0,0-1.76-1.78H122.42c-6.69,0-10,1.57-11.55,3.21-1.59-1.63-4.86-3.21-11.55-3.21H78.86a1.77,1.77,0,0,0-1.76,1.78V75.26A1.77,1.77,0,0,0,78.86,77H99.32c4.32,0,8.63,1.85,8.67,2.07h0c.88.66.88.64,1.76.64h2.34c.89,0,.94,0,1.73-.82A22,22,0,0,1,122.42,77h20.45a1.77,1.77,0,0,0,1.76-1.77V66.11l-4.29,1.42a3,3,0,0,1-.81.14H116.69a1.27,1.27,0,1,1,0-2.54h19.74a3,3,0,0,1,.11-1.42Zm-32.7,25.14a20,20,0,0,0-8.82-2.07H80.67V28.35H99.4c8.61,0,8.82,3.15,8.82,3.15Zm27.21-28.34V58.14a.68.68,0,0,1-.68.68H119.13a.68.68,0,0,1-.68-.68V47.49l-2.71,0,10.08-10.08a1.34,1.34,0,0,1,2.21,0l4.51,4.49V39.1a.56.56,0,0,1,.56-.56h1.68a.56.56,0,0,1,.56.56V44.7l2.8,2.79Z"/><path class="cls-1" d="M134.06,46.45l-7.12-6.83-7.06,7h0l-.07.07V57.46h14.26v-3.9h0Zm-4.62,6.68a3.73,3.73,0,0,1-2,.86v.46a.53.53,0,0,1-.57.57.51.51,0,0,1-.57-.55V54a3.74,3.74,0,0,1-2.45-1.15.9.9,0,0,1,0-1.23.91.91,0,0,1,1.23,0,2.22,2.22,0,0,0,1.78.67,2,2,0,0,0,1.23-.32.82.82,0,0,0,.32-.74c0-.38-.39-.86-1.25-.89a5.36,5.36,0,0,1-2.46-.84,2,2,0,0,1-.66-1.56,2.34,2.34,0,0,1,2.26-2.42v-.58a.58.58,0,0,1,.57-.57.52.52,0,0,1,.57.57v.64a3.44,3.44,0,0,1,1.77.82.94.94,0,0,1,.06,1.23.88.88,0,0,1-1.23.06,2.2,2.2,0,0,0-1.46-.45.74.74,0,0,0-.79.69c0,.35.36.48.66.52l1,.16a3.18,3.18,0,0,1,1.81.75,2.31,2.31,0,0,1,.91,1.85A2.55,2.55,0,0,1,129.45,53.13Z"/><path class="cls-1" d="M59.43,10.25H41.1a7.32,7.32,0,0,0-7.33,7.33V43.25H59.43a7.32,7.32,0,0,0,7.33-7.33V17.58A7.32,7.32,0,0,0,59.43,10.25ZM51.79,35.08a1.6,1.6,0,0,1-.57,1.19,2.09,2.09,0,0,1-1.48.52,2.26,2.26,0,0,1-1.54-.51,1.56,1.56,0,0,1-.6-1.2v-.77a1.56,1.56,0,0,1,.6-1.2,2.27,2.27,0,0,1,1.54-.51,2.1,2.1,0,0,1,1.48.52,1.6,1.6,0,0,1,.57,1.19ZM56,23.94a4.67,4.67,0,0,1-.94,1.26,8,8,0,0,1-1.19.93,10.5,10.5,0,0,0-1.14.83,4.33,4.33,0,0,0-.85,1,2.24,2.24,0,0,0-.32,1.23v.48a1.53,1.53,0,0,1-.47,1,1.7,1.7,0,0,1-1.24.55h-.11a1.76,1.76,0,0,1-1.25-.44A1.42,1.42,0,0,1,48,29.69a6.08,6.08,0,0,1,.37-2.26,6,6,0,0,1,.9-1.56,6.3,6.3,0,0,1,1.17-1.11c.41-.3.79-.59,1.12-.87a5.27,5.27,0,0,0,.83-.86,1.62,1.62,0,0,0,.31-1,1.81,1.81,0,0,0-.56-1.48A2.38,2.38,0,0,0,50.59,20a6.58,6.58,0,0,0-1.12.08,3,3,0,0,0-.82.26,2.63,2.63,0,0,0-.68.5,6.72,6.72,0,0,0-.69.82,1.9,1.9,0,0,1-.94.67A1.74,1.74,0,0,1,45,22.26a1.38,1.38,0,0,1-.79-.85,2,2,0,0,1,0-1,3.3,3.3,0,0,1,.53-1.07,5.25,5.25,0,0,1,1.21-1.23,7.43,7.43,0,0,1,1.94-1,8.17,8.17,0,0,1,2.76-.42,6.94,6.94,0,0,1,2.69.47,4.93,4.93,0,0,1,1.81,1.25,4.84,4.84,0,0,1,1,1.75,6.55,6.55,0,0,1,.31,2A3.92,3.92,0,0,1,56,23.94Z"/><polygon class="cls-2" points="151.52 60.33 143.75 52.55 139.85 64.19 151.52 60.33"/><rect class="cls-2" x="151.22" y="34.52" width="10.99" height="25.68" transform="translate(79.39 -96.94) rotate(45)"/><line class="cls-3" x1="158.1" y1="38.57" x2="165.34" y2="45.84"/><line class="cls-3" x1="155.68" y1="41.32" x2="162.83" y2="48.35"/></g></svg>