<svg xmlns="http://www.w3.org/2000/svg" viewBox="0 0 200 90"><defs><style>.cls-1{fill:#1e5748;}.cls-2{fill:none;stroke:#1e5748;stroke-miterlimit:10;stroke-width:3px;}</style></defs><title>incomeSplitting</title><g id="ARTWORK"><path class="cls-1" d="M128.14,30.32c0,1.85-3.87,3.38-8.54,3.38s-8.54-1.53-8.54-3.38V33.7c0,1.85,3.87,3.38,8.54,3.38s8.54-1.53,8.54-3.38Z"/><path class="cls-1" d="M119.52,32c4.75,0,8.54-1.53,8.54-3.38V25.24c0,1.85-3.87,3.38-8.54,3.38S111,27.1,111,25.24v3.38C111,30.48,114.85,32,119.52,32Z"/><path class="cls-1" d="M119.52,26.93c4.75,0,8.54-1.53,8.54-3.38V20.17c0,1.85-3.87,3.38-8.54,3.38a14.42,14.42,0,0,1-7.25-1.61A2.25,2.25,0,0,1,111,20.17v3.38C111,25.4,114.85,26.93,119.52,26.93Z"/><path class="cls-1" d="M119.52,21.78c4.75,0,8.54-1.53,8.54-3.38V15c0,1.85-3.87,3.38-8.54,3.38a14.42,14.42,0,0,1-7.25-1.61A2.25,2.25,0,0,1,111,15v3.38C111,20.25,114.85,21.78,119.52,21.78Z"/><path class="cls-1" d="M112.35,15.09a14.38,14.38,0,0,0,7.17,1.53c4.75,0,8.54-1.53,8.54-3.38s-3.79-3.46-8.54-3.46a14.31,14.31,0,0,0-7.17,1.61A2.73,2.73,0,0,0,111,13v.24a2,2,0,0,0,.48,1.13C111.79,14.61,112,14.85,112.35,15.09Z"/><path class="cls-1" d="M107.76,30.32c0,1.85-3.87,3.38-8.54,3.38s-8.54-1.45-8.54-3.38V33.7c0,1.85,3.87,3.38,8.54,3.38s8.54-1.53,8.54-3.38Z"/><path class="cls-1" d="M99.22,32c4.75,0,8.54-1.53,8.54-3.38V25.24c0,1.85-3.87,3.38-8.54,3.38s-8.54-1.53-8.54-3.46v3.38C90.68,30.48,94.46,32,99.22,32Z"/><path class="cls-1" d="M99.22,26.93c4.75,0,8.54-1.53,8.54-3.38V20.17c0,1.85-3.87,3.38-8.54,3.38A14.42,14.42,0,0,1,92,21.94a2.25,2.25,0,0,1-1.29-1.77v3.38C90.68,25.4,94.46,26.93,99.22,26.93Z"/><path class="cls-1" d="M92,19.92a14.38,14.38,0,0,0,7.17,1.53c4.75,0,8.54-1.53,8.54-3.38s-3.87-3.38-8.54-3.38A14.31,14.31,0,0,0,92,16.3a2.73,2.73,0,0,0-1.37,1.61v.24a2,2,0,0,0,.48,1.13C91.4,19.44,91.72,19.68,92,19.92Z"/><path class="cls-1" d="M87.61,30.48c0,1.85-3.87,3.38-8.54,3.38s-8.54-1.45-8.54-3.38v3.38c0,1.85,3.87,3.38,8.54,3.38s8.54-1.53,8.54-3.38Z"/><path class="cls-1" d="M79.07,32.17c4.75,0,8.54-1.53,8.54-3.38V25.4c0,1.85-3.87,3.38-8.54,3.38s-8.54-1.53-8.54-3.46v3.38C70.53,30.64,74.32,32.17,79.07,32.17Z"/><path class="cls-1" d="M71.9,24.92a14.38,14.38,0,0,0,7.17,1.53c4.75,0,8.54-1.53,8.54-3.38s-3.87-3.38-8.54-3.38a14.31,14.31,0,0,0-7.17,1.61,2.73,2.73,0,0,0-1.37,1.61v.24A2,2,0,0,0,71,24.28C71.26,24.44,71.58,24.68,71.9,24.92Z"/><path class="cls-1" d="M83.63,45.79H80.76l2.67-2.67h0a1.31,1.31,0,0,0-1.85-1.85l-1.9,1.9-3,3a1.3,1.3,0,0,0,0,1.85l3,3,1.9,1.9a1.24,1.24,0,0,0,1.85,0,1.3,1.3,0,0,0,0-1.85h0l-2.67-2.72h2.87a14.39,14.39,0,0,1,12.82,7.9,22,22,0,0,1,1.33-3A17,17,0,0,0,83.63,45.79Z"/><path class="cls-1" d="M122,46.15l-3-3-1.85-1.9a1.31,1.31,0,0,0-1.85,1.85h0l2.67,2.67h-2.87a17.2,17.2,0,0,0-14.2,7.59c-.05.1-.15.26-.21.36a16.89,16.89,0,0,0-1.33,2.51A16.5,16.5,0,0,0,98,62.77V68a1.33,1.33,0,1,0,2.67,0V62.77A14.36,14.36,0,0,1,115,48.41h2.87l-2.67,2.67h0a1.3,1.3,0,0,0,0,1.85,1.38,1.38,0,0,0,.92.41,1.28,1.28,0,0,0,.92-.41L119,51l3-3A1.22,1.22,0,0,0,122,46.15Z"/><path class="cls-2" d="M66.49,67,55.08,63a25.67,25.67,0,0,0-6.36-1.35h0L44,61.62h0l-2.87,0h0a26.08,26.08,0,0,0-6.38,1.19l-11.5,3.68A3.44,3.44,0,0,0,20.68,70c0,.5,0,1,0,1.52l0,2.55a3.6,3.6,0,0,0,3.71,3.87l13.28.17,14.17.18,13.29.17a3.65,3.65,0,0,0,3.87-3.77l0-2.55C69,70.09,69,67.88,66.49,67Z"/><path class="cls-1" d="M44.8,57.47A11.06,11.06,0,0,0,54.43,52a19.13,19.13,0,0,0,2.81-10.1c0-8.75-4.53-13.77-12.43-13.77S32.36,33.32,32.36,41.94C32.36,49.42,36.25,57.47,44.8,57.47Zm2-23.11A17.24,17.24,0,0,0,54,38.2a17.77,17.77,0,0,1,.37,3.74c0,5.1-2.56,12.69-9.6,12.69-6.74,0-9.09-6.31-9.52-11C40.81,42.77,44.76,37.68,46.79,34.36Z"/><path class="cls-2" d="M178.86,67l-11.41-4a25.67,25.67,0,0,0-6.36-1.35h0l-4.66-.06h0l-2.87,0h0a26.08,26.08,0,0,0-6.38,1.19l-11.5,3.68A3.44,3.44,0,0,0,133.05,70c0,.5,0,1,0,1.52l0,2.55a3.6,3.6,0,0,0,3.71,3.87L150,78.1l14.17.18,13.29.17a3.65,3.65,0,0,0,3.87-3.77l0-2.55C181.37,70.09,181.34,67.88,178.86,67Z"/><path class="cls-1" d="M157.17,57.47A11.06,11.06,0,0,0,166.8,52a19.13,19.13,0,0,0,2.81-10.1c0-8.75-4.53-13.77-12.43-13.77s-12.44,5.15-12.44,13.77C144.73,49.42,148.62,57.47,157.17,57.47Zm2-23.11a17.24,17.24,0,0,0,7.24,3.85,17.77,17.77,0,0,1,.37,3.74c0,5.1-2.56,12.69-9.6,12.69-6.74,0-9.09-6.31-9.52-11C153.18,42.77,157.13,37.68,159.16,34.36Z"/></g></svg>