<svg xmlns="http://www.w3.org/2000/svg" viewBox="0 0 200 90"><defs><style>.cls-1{fill:#1e5748;}</style></defs><title>industryLeadingMutualFunds</title><g id="ARTWORK"><polygon class="cls-1" points="114.59 42.46 114.59 53.41 110.31 53.41 110.31 46.04 102.84 46.04 102.84 53.31 99.36 53.31 99.36 55.8 137.29 55.8 137.29 53.31 133.81 53.31 133.81 33.6 126.34 33.6 126.34 53.41 122.06 53.41 122.06 42.46 114.59 42.46"/><path class="cls-1" d="M100.85,41c6.47-1.69,13.94-5.48,18.52-10.35v3.68a1.29,1.29,0,1,0,2.59,0V27.42a1.32,1.32,0,0,0-1.29-1.29H114a1.29,1.29,0,1,0,0,2.59h3.78c-4.28,4.68-11.45,8.26-17.52,9.86a1.22,1.22,0,0,0-.9,1.49A1.14,1.14,0,0,0,100.85,41Z"/><path class="cls-1" d="M61.2,33.5a1.39,1.39,0,0,0-1.13,1.17c-.26,1.12.52,2.68,2.08,4.17a14.86,14.86,0,0,0,3.38,2.37A25.09,25.09,0,0,1,64,34.14,4,4,0,0,0,61.2,33.5Z"/><path class="cls-1" d="M84.4,33.5a4,4,0,0,0-2.77.64,25,25,0,0,1-1.55,7.07,14.87,14.87,0,0,0,3.38-2.37c1.56-1.49,2.33-3,2.08-4.17A1.39,1.39,0,0,0,84.4,33.5Z"/><path class="cls-1" d="M72.8,19.49A21.56,21.56,0,1,0,94.36,41.05,21.56,21.56,0,0,0,72.8,19.49ZM84.88,40.35a17.86,17.86,0,0,1-6.37,3.8,9.12,9.12,0,0,1-3.89,3.22,9.63,9.63,0,0,0,3,4.82h1.73V55.4H66.27V52.18H68a9.62,9.62,0,0,0,3-4.82,9.12,9.12,0,0,1-3.89-3.22,17.85,17.85,0,0,1-6.37-3.8c-2.15-2.05-3.1-4.23-2.67-6.13a3.43,3.43,0,0,1,2.71-2.74,5.59,5.59,0,0,1,3.11.32c0-.56,0-1.11,0-1.64H81.73c0,.53,0,1.08,0,1.64a5.58,5.58,0,0,1,3.1-.32,3.43,3.43,0,0,1,2.71,2.74C88,36.12,87,38.29,84.88,40.35Z"/><path class="cls-1" d="M144,10H92.49a1.32,1.32,0,0,0-1.29,1.29V24.61a16.43,16.43,0,0,1,2.59,4.25V20.25h48.88V62.07H93.78v-9a13.2,13.2,0,0,1-2.59,4v6.12a1.32,1.32,0,0,0,1.29,1.29h10.25L97.27,78.4a1.23,1.23,0,0,0,2.39.6l5.58-14.44h11.65V78.7a1.29,1.29,0,0,0,2.59,0v-14h11.65L137.69,79a1.23,1.23,0,0,0,2.39-.6l-6.47-13.74h10.25a1.32,1.32,0,0,0,1.29-1.29V11.29A1.23,1.23,0,0,0,144,10Zm-39.82,6.27A1.32,1.32,0,0,1,102.84,15a1.26,1.26,0,0,1,1.29-1.29,1.29,1.29,0,0,1,0,2.59Zm28.18,0A1.32,1.32,0,0,1,131,15a1.25,1.25,0,0,1,1.29-1.29,1.29,1.29,0,0,1,0,2.59Z"/></g></svg>