<svg xmlns="http://www.w3.org/2000/svg" viewBox="0 0 200 90"><defs><style>.cls-1{fill:#1e5748;}</style></defs><title>inflationProof</title><g id="ARTWORK"><path class="cls-1" d="M134.17,22.94a1.1,1.1,0,0,0,.8,1.85h5.29V71.36a1.1,1.1,0,0,0,1.1,1.1h7.15a1.1,1.1,0,0,0,1.1-1.1V24.79h5.29a1.1,1.1,0,0,0,1-.67,1.11,1.11,0,0,0,.09-.43,1.1,1.1,0,0,0-.31-.76L145.55,12.45a1.1,1.1,0,0,0-1.59,0Z"/><path class="cls-1" d="M128.13,68.56c.94-.69,1.48-1.25,1.48-2.08V61.56c0,1.53-1.83,2.91-4.66,3.81Z"/><path class="cls-1" d="M111.55,65.93c-4-.82-6.76-2.48-6.76-4.37v4.92c0,2.69,5.39,4.92,12.18,4.92C114.78,69.2,113,67.39,111.55,65.93Z"/><path class="cls-1" d="M123,63.43c3.88-.84,6.49-2.47,6.49-4.32V54.19c0,2.49-4.79,4.57-10.87,4.88Z"/><path class="cls-1" d="M86.69,64h.9C94.5,64,100,61.8,100,59.1V54.19c0,2.09-3.38,3.9-8.07,4.6Z"/><path class="cls-1" d="M79,57.72c-2.37-.91-3.86-2.2-3.86-3.65V59a2.6,2.6,0,0,0,.73,1.72C77.26,59.37,78.08,58.68,79,57.72Z"/><path class="cls-1" d="M117.08,56.65c6.9,0,12.41-2.22,12.41-4.92V46.82c0,2.69-5.62,4.92-12.41,4.92a27.39,27.39,0,0,1-6.48-.73c1.86,1.86,2.79,2.83,5.59,5.64Z"/><path class="cls-1" d="M117.08,49.16c6.9,0,12.41-2.22,12.41-4.92V39.33c0,2.69-5.62,4.92-12.41,4.92a23.91,23.91,0,0,1-9-1.57l-2.89,2.91C106.64,47.63,111.46,49.16,117.08,49.16Z"/><path class="cls-1" d="M109.91,40.8a27.48,27.48,0,0,0,7.17.87c6.9,0,12.41-2.22,12.41-4.92,0-2.45-4.54-4.6-10.55-5"/><path class="cls-1" d="M87.59,66.48a31.1,31.1,0,0,1-3.19-.16l-4.11,4.12a26.57,26.57,0,0,0,7.31,1c6.79,0,12.41-2.22,12.41-4.92V61.56C100,64.25,94.38,66.48,87.59,66.48Z"/><path class="cls-1" d="M104.57,59c0,1.34,1.25,2.54,3.3,3.44C107.05,61.64,104.57,59,104.57,59Z"/><path class="cls-1" d="M85,51.63a18.5,18.5,0,0,1-8-2.24,3.27,3.27,0,0,1-1.87-2.57v4.92c0,1.73,2.26,3.26,5.71,4.14C82.6,54.17,84.27,52.4,85,51.63Z"/><path class="cls-1" d="M95.05,55.66a9.79,9.79,0,0,0,4.09-2.14c-.36-.36-.52-.45-1-.94Z"/><path class="cls-1" d="M84.63,39a18,18,0,0,0-7.46,2.19,4,4,0,0,0-2,2.34v.35a2.94,2.94,0,0,0,.7,1.64c.35.23.82.59,1.29.94,2.22,1.4,6.57,2.22,10.9,2.22,1-.86,2.22-2.32,3.1-3.13C90,44.37,85.52,39.94,84.63,39Z"/><path class="cls-1" d="M70.74,66V61.8c0,2.69-5.62,4.92-12.41,4.92S45.93,64.6,45.93,61.8v4.92c0,2.69,5.62,4.92,12.41,4.92a20.69,20.69,0,0,0,8-1.17"/><path class="cls-1" d="M58.33,64.25c6.9,0,12.41-2.22,12.41-4.92V54.42c0,2.69-5.62,4.92-12.41,4.92s-12.41-2.22-12.41-5v4.92C45.93,62,51.43,64.25,58.33,64.25Z"/><path class="cls-1" d="M47.92,53.72c2.22,1.4,6.09,2.22,10.42,2.22,6.9,0,12.41-2.22,12.41-4.92s-5.62-4.92-12.41-4.92c-4.33,0-8.19.94-10.42,2.34a4,4,0,0,0-2,2.34v.35a2.94,2.94,0,0,0,.7,1.64C47,53,47.45,53.37,47.92,53.72Z"/><path class="cls-1" d="M101,45.56,132.22,14a2.08,2.08,0,0,0,0-2.94,2.24,2.24,0,0,0-1.48-.6,2.06,2.06,0,0,0-1.47.62L98.08,42.6,67.36,11.52a2.06,2.06,0,0,0-1.47-.62,2.24,2.24,0,0,0-1.48.6,2.08,2.08,0,0,0,0,2.94L95.16,45.56,64.4,76.67a2.08,2.08,0,1,0,3,2.92L98.08,48.51l30.72,31.08a2.08,2.08,0,1,0,3-2.92Z"/></g></svg>