<svg xmlns="http://www.w3.org/2000/svg" viewBox="0 0 200 90"><defs><style>.cls-1{fill:#1e5748;}</style></defs><title>internationalAppeal</title><g id="ARTWORK"><path class="cls-1" d="M115.92,59.74c-2-.48-4.59-1-7.78-1.45a76.67,76.67,0,0,0,1.14-13.15,80.46,80.46,0,0,0-.53-9.85c2.86-.37,5.23-.79,7.14-1.2a20.07,20.07,0,0,1,6.31-5A34.94,34.94,0,0,0,91.16,10h-.21a35.08,35.08,0,0,0-.19,70.17H91A34.92,34.92,0,0,0,120.6,63.81,20.09,20.09,0,0,1,115.92,59.74ZM68.35,22.17A32,32,0,0,1,81,14.44c-3.75,3.84-6.53,10-8,17.78A69.89,69.89,0,0,1,62.51,30,32.23,32.23,0,0,1,68.35,22.17ZM58.8,44.85A32.12,32.12,0,0,1,61.25,32.7,68.88,68.88,0,0,0,72.6,35.12a75.67,75.67,0,0,0-.67,9.77,69.36,69.36,0,0,0,1.13,13.21,67.93,67.93,0,0,0-10.44,2.11A32,32,0,0,1,58.8,44.85Zm5.38,18A70.16,70.16,0,0,1,73.68,61c1.54,6.27,4,11.29,7.27,14.6A32.3,32.3,0,0,1,64.19,62.82ZM89.3,77c-5.84-.9-10.4-7-12.74-16.37,3.6-.36,7.86-.61,12.83-.61Zm.11-19.91a132.66,132.66,0,0,0-13.48.65,67.87,67.87,0,0,1-1.08-12.86,71.71,71.71,0,0,1,.65-9.42c3.9.44,8.56.75,14,.81Zm.13-23.74c-5.27-.06-9.78-.37-13.56-.79C78.13,21.35,83.14,13.92,89.66,13Zm29.91-3.22a69.93,69.93,0,0,1-11.12,2.24A45.78,45.78,0,0,0,105,20.72a23.6,23.6,0,0,0-4.06-6.26A32,32,0,0,1,119.46,30.16ZM92.59,13c4.93.77,8,5.18,9.72,8.94a42.93,42.93,0,0,1,3.11,10.79c-3.65.37-8,.63-12.94.66Zm-.13,23.3c5.16,0,9.61-.3,13.37-.68a77,77,0,0,1,.52,9.5,72.74,72.74,0,0,1-1.17,12.8c-3.63-.41-7.9-.71-12.84-.79ZM92.23,77l.1-17c4.69.08,8.76.36,12.24.75C102.45,69.51,98.42,76.16,92.23,77Zm8.24-1.28c3.15-3.25,5.57-8.22,7.07-14.58a74.68,74.68,0,0,1,9.94,2A31.92,31.92,0,0,1,100.47,75.76Z"/><path class="cls-1" d="M122.28,41.07a1.07,1.07,0,0,0-.87.9c-.2.87.4,2.07,1.6,3.22a11.46,11.46,0,0,0,2.6,1.83,19.35,19.35,0,0,1-1.19-5.45A3.09,3.09,0,0,0,122.28,41.07Z"/><path class="cls-1" d="M139.79,40.93a3.08,3.08,0,0,0-2.13.49,19.22,19.22,0,0,1-1.19,5.43A11.41,11.41,0,0,0,139.06,45c1.2-1.14,1.79-2.34,1.6-3.2A1.07,1.07,0,0,0,139.79,40.93Z"/><path class="cls-1" d="M131.23,30.27a16.63,16.63,0,1,0,16.63,16.63A16.63,16.63,0,0,0,131.23,30.27Zm9.32,16.08a13.77,13.77,0,0,1-4.92,2.93,7,7,0,0,1-3,2.48,7.43,7.43,0,0,0,2.3,3.71h1.33V58H126.19V55.47h1.33a7.42,7.42,0,0,0,2.3-3.71,7,7,0,0,1-3-2.48,13.77,13.77,0,0,1-4.92-2.93c-1.66-1.58-2.39-3.26-2.06-4.73a2.65,2.65,0,0,1,2.09-2.11,4.31,4.31,0,0,1,2.39.24c0-.43,0-.86,0-1.26h13.77c0,.41,0,.83,0,1.26a4.31,4.31,0,0,1,2.39-.24,2.65,2.65,0,0,1,2.09,2.11C142.94,43.09,142.2,44.76,140.54,46.35Z"/></g></svg>