<svg xmlns="http://www.w3.org/2000/svg" viewBox="0 0 319 181"><title>internationalStudent</title><g id="0a3f30bb-3afa-483e-9495-67068cb84ca2" data-name="Calculate foreign currency"><path d="M159.58,90.2,192,97.64a2.65,2.65,0,0,0,1,0l51-9.82a2.77,2.77,0,0,0,.63-.22,9.1,9.1,0,0,1,.52-2.07l.39-1a2.28,2.28,0,0,0-.95-.79,2.22,2.22,0,0,0-1-.24,4,4,0,0,0-.49,0L192.65,93.2l-30.1-6.91V75.94l30.1,7L244.4,73l1-.28a2.15,2.15,0,0,0,1.29-1.89,2.22,2.22,0,0,0-1.81-2.18l-32.44-7.42a2.33,2.33,0,0,0-1,0l-51.76,9.82h-.41l-.34.15h0l-.35.23-.09.1-.2.2-.11.13-.14.21-.08.14-.09.25v0h0V73h0V87.83A2.23,2.23,0,0,0,159.58,90.2Zm47.88-24.79,23,5.73-15.09,2.78a5,5,0,0,1-2.25-.09l-22.63-5Z" style="fill:#1e5748"/><path d="M192.71,117l-6.11-1.19v4.49l5.42,1.29a2.65,2.65,0,0,0,1,0l40.67-7.92a20.33,20.33,0,0,1-1.45-4.23Z" style="fill:#1e5748"/><path d="M162.55,99.92l30.16,6.66L233,98.88a15.22,15.22,0,0,1,3-4.81h0l-43.14,8.07a2.65,2.65,0,0,0-1.05,0l-32-7.14h-.38l-.33.15h0a2.16,2.16,0,0,0-.35.24l-.09.09-.21.21-.1.12-.15.21-.07.14a1.25,1.25,0,0,0-.09.25v.09h0a1.13,1.13,0,0,0,0,.26.49.49,0,0,0,0,.17h0V111.8a2.23,2.23,0,0,0,1.81,2.12l10.93,2.51V111.9l-8-1.81Z" style="fill:#1e5748"/><polygon points="173.59 131.37 178.36 128.63 183.15 134 183.15 111.28 173.59 109.1 173.59 131.37" style="fill:#1e5748"/><path d="M271.32,96.14a9.89,9.89,0,0,0-7.25-3.68,8.17,8.17,0,0,0-1,0,11.47,11.47,0,0,0-1.3.25A21.64,21.64,0,0,0,258.22,94a12.29,12.29,0,0,1-1.15.49,5.24,5.24,0,0,1-2.39.25l-.54-.09-.37-.09-.67-.27-.65-.29-.67-.29a15,15,0,0,0-4-1.3,8,8,0,0,0-1.19-.09h-.12a7.84,7.84,0,0,0-1.29.14A10.72,10.72,0,0,0,239.4,96a11.63,11.63,0,0,0-1.48,2,14,14,0,0,0-1.81,7.9,16.21,16.21,0,0,0,.39,2.77,16.89,16.89,0,0,0,1.55,4.19,17.63,17.63,0,0,0,2.59,3.59A14.23,14.23,0,0,0,251,121.28h1.09a3.93,3.93,0,0,0,1-.3,6.45,6.45,0,0,1,2.34-.49,6.08,6.08,0,0,1,2.3.49,3.81,3.81,0,0,0,.93.27H260a14.25,14.25,0,0,0,10.35-4.85,17,17,0,0,0,4.49-10.54A13.45,13.45,0,0,0,271.32,96.14Z" style="fill:#1e5748"/><path d="M255.18,92.83l.08.1.08.1a1.08,1.08,0,0,0,.34-.23,6.69,6.69,0,0,0,1.07-1.46l.17-.31.11-.21a8.22,8.22,0,0,0,.66-1.77c.38-1.69,1-1.87.7-.17a7.65,7.65,0,0,1-.61,2,9,9,0,0,1-.84,1.52,6,6,0,0,1-.49.64,2.89,2.89,0,0,1-.5.49,5.33,5.33,0,0,0,4.41-2.58,5.81,5.81,0,0,0,.43-1.21,4.79,4.79,0,0,0-3.15-5.94c-2.72-1.11-.81.52-1.06,1.49a5.8,5.8,0,0,1-1.29,1.62,8.69,8.69,0,0,0-.66.84,3.46,3.46,0,0,0-.31,3.74A6.85,6.85,0,0,0,255.18,92.83Z" style="fill:#1e5748"/><path d="M249,90.65a3.25,3.25,0,0,0,2.42,1.93,3.66,3.66,0,0,0,1.94-.65,2.57,2.57,0,0,1-1.18-.32h0a6.43,6.43,0,0,1-1.29-.76,5.53,5.53,0,0,1-.64-.64,2.45,2.45,0,0,1-.26-.37c-.22-.43.26-.3.69.2h0l.12.13A6.63,6.63,0,0,0,252,91a4.59,4.59,0,0,0,.49.26,1.34,1.34,0,0,0,1,.13c.09-.34.14-.47.22-.87a1.82,1.82,0,0,0-1.37-2.08l-1.23-.39a3.68,3.68,0,0,1-2.21-1.48,5.11,5.11,0,0,0-.3,2.89A4.34,4.34,0,0,0,249,90.65Z" style="fill:#1e5748"/><path d="M87.05,49.15a.44.44,0,0,0-.37-.52.42.42,0,0,0-.25,0c-5.68,1.73-10.63,9-13.61,19.42a.47.47,0,0,0,.3.6l.08,0A89.22,89.22,0,0,0,86.55,70a.52.52,0,0,0,.5-.43Z" style="fill:#1e5748"/><path d="M90.76,88a.54.54,0,0,0,.5.5h16.19a.55.55,0,0,0,.5-.5,74.63,74.63,0,0,0-1.86-15.33.43.43,0,0,0-.48-.38h0a86.2,86.2,0,0,1-14.33,1.48.54.54,0,0,0-.5.5V88Z" style="fill:#1e5748"/><path d="M87.05,74.25a.54.54,0,0,0-.5-.48,85.51,85.51,0,0,1-14.27-1.5.44.44,0,0,0-.5.37h0A95.22,95.22,0,0,0,69.93,88a.54.54,0,0,0,.5.5H86.64a.54.54,0,0,0,.5-.5V74.25Z" style="fill:#1e5748"/><path d="M91.38,48.65a.46.46,0,0,0-.59.25.37.37,0,0,0,0,.25V69.61a.54.54,0,0,0,.5.5,89.5,89.5,0,0,0,13.36-1.36.48.48,0,0,0,.39-.55.19.19,0,0,0,0-.07C102,57.68,97.06,50.4,91.38,48.65Z" style="fill:#1e5748"/><path d="M125.26,65.59a.42.42,0,0,0-.57-.16l-.06,0a56.64,56.64,0,0,1-14.33,5.8.53.53,0,0,0-.38.5A81.92,81.92,0,0,1,111.82,88a.37.37,0,0,0,.22.48.39.39,0,0,0,.15,0h20.16a.54.54,0,0,0,.5-.5A44.79,44.79,0,0,0,125.26,65.59Z" style="fill:#1e5748"/><path d="M125.13,115.07a42.55,42.55,0,0,0,7.5-22.39.54.54,0,0,0-.5-.49h-20a.54.54,0,0,0-.5.49,82.39,82.39,0,0,1-1.91,16.19.43.43,0,0,0,.36.5h0a57.1,57.1,0,0,1,14.34,5.81.42.42,0,0,0,.59,0A.34.34,0,0,0,125.13,115.07Z" style="fill:#1e5748"/><path d="M52.68,115.07a.41.41,0,0,0,.56.17l.06,0a57.26,57.26,0,0,1,14.34-5.81.51.51,0,0,0,.37-.5,82.44,82.44,0,0,1-1.85-16.21.54.54,0,0,0-.5-.49H45.5a.54.54,0,0,0-.5.49A43.67,43.67,0,0,0,52.68,115.07Z" style="fill:#1e5748"/><path d="M52.68,65.59A42.49,42.49,0,0,0,45.23,88a.54.54,0,0,0,.5.5H65.89a.56.56,0,0,0,.38-.5A81.87,81.87,0,0,1,68,71.69a.43.43,0,0,0-.36-.5h0A57.06,57.06,0,0,1,53.3,65.45a.41.41,0,0,0-.58.08A.21.21,0,0,0,52.68,65.59Z" style="fill:#1e5748"/><path d="M69.12,67.21c2.35-8.32,6-15.08,10.63-18.91a.49.49,0,0,0,0-.7.46.46,0,0,0-.42-.17A44.78,44.78,0,0,0,55.51,61.76a.46.46,0,0,0,0,.65.45.45,0,0,0,.14.1,47.57,47.57,0,0,0,12.86,5A.53.53,0,0,0,69.12,67.21Z" style="fill:#1e5748"/><path d="M108.82,67.34a.37.37,0,0,0,.46.26h0a47.2,47.2,0,0,0,12.9-5.08.45.45,0,0,0,.11-.64.57.57,0,0,0-.11-.11A44,44,0,0,0,98.56,47.55a.48.48,0,0,0-.59.32.46.46,0,0,0,.22.55C102.64,52.25,106.34,58.93,108.82,67.34Z" style="fill:#1e5748"/><path d="M87.05,92.68a.54.54,0,0,0-.5-.49H70.37a.54.54,0,0,0-.5.49A74,74,0,0,0,71.72,108a.44.44,0,0,0,.49.38h0a86.2,86.2,0,0,1,14.33-1.48.54.54,0,0,0,.5-.5Z" style="fill:#1e5748"/><path d="M98.44,133.24A43.94,43.94,0,0,0,122.22,119a.47.47,0,0,0,0-.65.45.45,0,0,0-.14-.1,47.12,47.12,0,0,0-12.91-5c-.12-.25-.37,0-.49.25-2.36,8.32-6.06,15.08-10.64,18.91a.5.5,0,0,0,.15.69A.49.49,0,0,0,98.44,133.24Z" style="fill:#1e5748"/><path d="M79.27,133.12a.48.48,0,0,0,.38-.88c-4.46-3.83-8.16-10.51-10.64-18.91a.38.38,0,0,0-.46-.27l0,0a47.37,47.37,0,0,0-12.88,5.07.46.46,0,0,0-.22.61.45.45,0,0,0,.1.14A44,44,0,0,0,79.27,133.12Z" style="fill:#1e5748"/><path d="M90.76,106.42a.54.54,0,0,0,.5.5,86.09,86.09,0,0,1,14.33,1.48.44.44,0,0,0,.5-.37h0A96.36,96.36,0,0,0,108,92.68a.54.54,0,0,0-.5-.49H91.26a.54.54,0,0,0-.5.49Z" style="fill:#1e5748"/><path d="M86.43,132a.46.46,0,0,0,.6-.25.42.42,0,0,0,0-.25V111.1a.54.54,0,0,0-.5-.5A90.55,90.55,0,0,0,73.2,112a.49.49,0,0,0-.4.55s0,0,0,.08C75.8,122.86,80.75,130.29,86.43,132Z" style="fill:#1e5748"/><path d="M90.76,131.51a.46.46,0,0,0,.37.53.43.43,0,0,0,.25,0c5.68-1.72,10.64-9,13.61-19.41a.48.48,0,0,0-.3-.61l-.07,0a90.82,90.82,0,0,0-13.36-1.35.54.54,0,0,0-.5.5v20.39Z" style="fill:#1e5748"/></g></svg>