<svg xmlns="http://www.w3.org/2000/svg" viewBox="0 0 200 90"><defs><style>.cls-1{fill:#1f5748;}</style></defs><title>investingYourSavings</title><g id="Investing_your_savings" data-name="Investing your savings"><path class="cls-1" d="M100.61,43.92a2.4,2.4,0,0,0-1.67-.7H96a28.68,28.68,0,0,0-5.22-8.9c1.19-2.21,2.06-5.06,1.64-6.58a1.93,1.93,0,0,0-1-1.27c-2.28-1.08-4.49.06-9.11,2.64a24.24,24.24,0,0,0-4.2-1A7.2,7.2,0,1,0,64,28,27.24,27.24,0,0,0,54.09,32a20.76,20.76,0,0,0-9,19,8.44,8.44,0,0,1-3.23-.55,5.67,5.67,0,0,0,1.81-4A4.21,4.21,0,0,0,39.4,42a4.26,4.26,0,0,0-4.34,4.4,5.88,5.88,0,0,0,1.6,3.89,6.29,6.29,0,0,1-2.83.45,1.44,1.44,0,0,0-.43,2.85,10.29,10.29,0,0,0,5.81-1.29,11.67,11.67,0,0,0,5.59,1.5c.24,0,.48,0,.72,0a32.09,32.09,0,0,0,2.91,7c1.39,2.65,3.27,6,4.91,8.66.26.43.8,1.25,1.27,2l.63.95A3.59,3.59,0,0,0,58.1,74h6a2.36,2.36,0,0,0,1.66-.7,2.32,2.32,0,0,0,.68-1.66v-3.7a36.62,36.62,0,0,0,6.16.2l1.2,3.78.05.14a3.1,3.1,0,0,0,1.2,1.4,3.19,3.19,0,0,0,1.78.54h6.3a2.36,2.36,0,0,0,1.65-.7,2.32,2.32,0,0,0,.68-1.66V65.49c4-1.16,8.65-4.27,10.61-9l3.39-1.74a3.14,3.14,0,0,0,1.37-1.23,3.33,3.33,0,0,0,.46-1.69V45.58A2.33,2.33,0,0,0,100.61,43.92ZM39.46,48.73l-.18.15a3.53,3.53,0,0,1-1.34-2.44,1.4,1.4,0,0,1,1.46-1.52,1.47,1.47,0,0,1,1,.36,1.51,1.51,0,0,1,.43,1.17A3.45,3.45,0,0,1,39.46,48.73Zm59,3.13a.44.44,0,0,1,0,.21s0,.06-.17.12l-3.93,2a1.44,1.44,0,0,0-.69.79c-1.54,4.23-6.12,7.2-9.84,8a1.44,1.44,0,0,0-1.16,1.41v6.76H76.82A.38.38,0,0,1,76.6,71a.32.32,0,0,1-.1-.09l-1-3.29a31.35,31.35,0,0,0,3.14-.73,1.44,1.44,0,0,0-.8-2.76,27.22,27.22,0,0,1-8.36,1.12c-.65,0-1.29-.07-1.89-.13a17.27,17.27,0,0,1-7.27-2.26,1.44,1.44,0,1,0-1.57,2.41,17.32,17.32,0,0,0,4.86,2v3.8h-5.4a.78.78,0,0,1-.48-.37l-.65-1c-.44-.67-1-1.44-1.21-1.84C54.21,65.28,52.36,62,51,59.42S48.23,54,48,51.29c-.58-7.06,2.17-13.08,7.72-17a24.74,24.74,0,0,1,9.54-3.6,7.2,7.2,0,0,0,2.61,2.18h-4a.72.72,0,0,0,0,1.44h14.4a.72.72,0,0,0,0-1.44h-4a7.19,7.19,0,0,0,2.52-2.08A19.46,19.46,0,0,1,81.65,32,1.44,1.44,0,0,0,83,32c3.76-2.11,5.53-3,6.57-3a12.59,12.59,0,0,1-1.88,4.81A1.44,1.44,0,0,0,88,35.65c2.93,2.55,4.91,7.49,5.63,9.49a1.44,1.44,0,0,0,1.36,1h3.45Z"/><path class="cls-1" d="M87.47,43.91a2.16,2.16,0,1,0,2.16,2.16A2.15,2.15,0,0,0,87.47,43.91Z"/><path class="cls-1" d="M119.7,41c6.47-1.69,13.94-5.48,18.52-10.35v3.68a1.29,1.29,0,1,0,2.59,0V27.42a1.32,1.32,0,0,0-1.29-1.29h-6.67a1.29,1.29,0,1,0,0,2.59h3.78c-4.28,4.68-11.45,8.26-17.52,9.86a1.22,1.22,0,0,0-.9,1.49A1.14,1.14,0,0,0,119.7,41Z"/><polygon class="cls-1" points="133.44 42.46 133.44 53.41 129.15 53.41 129.15 46.04 121.69 46.04 121.69 53.31 118.2 53.31 118.2 55.8 156.13 55.8 156.13 53.31 152.65 53.31 152.65 33.6 145.18 33.6 145.18 53.41 140.9 53.41 140.9 42.46 133.44 42.46"/><path class="cls-1" d="M162.81,10H111.33A1.32,1.32,0,0,0,110,11.29v52a1.32,1.32,0,0,0,1.29,1.29h10.25L116.11,78.4a1.23,1.23,0,0,0,2.39.6l5.58-14.44h11.65V78.7a1.29,1.29,0,0,0,2.59,0v-14H150L156.53,79a1.23,1.23,0,1,0,2.39-.6l-6.47-13.74h10.25A1.32,1.32,0,0,0,164,63.36V11.29A1.23,1.23,0,0,0,162.81,10Zm-11.65,3.68A1.29,1.29,0,1,1,149.86,15,1.25,1.25,0,0,1,151.16,13.68Zm-28.18,0A1.29,1.29,0,1,1,121.69,15,1.25,1.25,0,0,1,123,13.68Zm38.53,48.39H112.63V20.25h48.88Z"/></g></svg>