<svg xmlns="http://www.w3.org/2000/svg" viewBox="0 0 200 90"><defs><style>.cls-1{fill:#1e5748;}.cls-2{fill:#1f5748;}</style></defs><title>TDpublic_illustrations_200x90_PSI</title><g id="ARTWORK"><path class="cls-1" d="M98,27.79a1,1,0,0,1-1-1v-1a1,1,0,0,1,2,0v1A1,1,0,0,1,98,27.79Z"/><path class="cls-1" d="M98,39.05a1,1,0,0,1-1-1V36.44a1,1,0,0,1,2,0v1.61A1,1,0,0,1,98,39.05Zm0-5.63a1,1,0,0,1-1-1V30.81a1,1,0,1,1,2,0v1.61A1,1,0,0,1,98,33.42Z"/><path class="cls-1" d="M98,55.94a1,1,0,0,1-1-1V53.33a1,1,0,0,1,2,0v1.61A1,1,0,0,1,98,55.94Zm0-5.63a1,1,0,0,1-1-1V47.71a1,1,0,1,1,2,0v1.61A1,1,0,0,1,98,50.31Zm0-5.63a1,1,0,0,1-1-1V42.07a1,1,0,0,1,2,0v1.61A1,1,0,0,1,98,44.68Z"/><path class="cls-1" d="M98,61a1,1,0,0,1-1-1V59a1,1,0,0,1,2,0v1A1,1,0,0,1,98,61Z"/><path class="cls-1" d="M115.18,27.79a1,1,0,0,1-1-1v-1a1,1,0,1,1,2,0v1A1,1,0,0,1,115.18,27.79Z"/><path class="cls-1" d="M115.18,39.05a1,1,0,0,1-1-1V36.44a1,1,0,0,1,2,0v1.61A1,1,0,0,1,115.18,39.05Zm0-5.63a1,1,0,0,1-1-1V30.81a1,1,0,0,1,2,0v1.61A1,1,0,0,1,115.18,33.42Z"/><path class="cls-1" d="M115.18,55.94a1,1,0,0,1-1-1V53.33a1,1,0,0,1,2,0v1.61A1,1,0,0,1,115.18,55.94Zm0-5.63a1,1,0,0,1-1-1V47.71a1,1,0,0,1,2,0v1.61A1,1,0,0,1,115.18,50.31Zm0-5.63a1,1,0,0,1-1-1V42.07a1,1,0,1,1,2,0v1.61A1,1,0,0,1,115.18,44.68Z"/><path class="cls-1" d="M115.18,61a1,1,0,0,1-1-1V59a1,1,0,0,1,2,0v1A1,1,0,0,1,115.18,61Z"/><path class="cls-1" d="M132.33,27.79a1,1,0,0,1-1-1v-1a1,1,0,0,1,2,0v1A1,1,0,0,1,132.33,27.79Z"/><path class="cls-1" d="M132.33,39.05a1,1,0,0,1-1-1V36.44a1,1,0,0,1,2,0v1.61A1,1,0,0,1,132.33,39.05Zm0-5.63a1,1,0,0,1-1-1V30.81a1,1,0,1,1,2,0v1.61A1,1,0,0,1,132.33,33.42Z"/><path class="cls-1" d="M132.33,55.94a1,1,0,0,1-1-1V53.33a1,1,0,0,1,2,0v1.61A1,1,0,0,1,132.33,55.94Zm0-5.63a1,1,0,0,1-1-1V47.71a1,1,0,1,1,2,0v1.61A1,1,0,0,1,132.33,50.31Zm0-5.63a1,1,0,0,1-1-1V42.07a1,1,0,0,1,2,0v1.61A1,1,0,0,1,132.33,44.68Z"/><path class="cls-1" d="M132.33,61a1,1,0,0,1-1-1V59a1,1,0,0,1,2,0v1A1,1,0,0,1,132.33,61Z"/><path class="cls-2" d="M47.6,51.49c4.73-1.24,10.19-4,13.53-7.57v2.69a.95.95,0,1,0,1.89,0v-5a1,1,0,0,0-.95-.95H57.2a.95.95,0,1,0,0,1.89H60c-3.13,3.42-8.37,6-12.81,7.2a.89.89,0,0,0-.65,1.09A.83.83,0,0,0,47.6,51.49Z"/><polygon class="cls-2" points="57.64 52.59 57.64 60.59 54.51 60.59 54.51 55.2 49.05 55.2 49.05 60.52 46.51 60.52 46.51 62.34 74.23 62.34 74.23 60.52 71.68 60.52 71.68 46.11 66.22 46.11 66.22 60.59 63.09 60.59 63.09 52.59 57.64 52.59"/><path class="cls-2" d="M79.1,28.87H41.49a1,1,0,0,0-.95.95v38a1,1,0,0,0,.95.95H49L45,78.85a.9.9,0,0,0,1.75.44L50.8,68.74h8.51V79.07a.95.95,0,0,0,1.89,0V68.81h8.51l4.8,10.48a.9.9,0,0,0,1.75-.44l-4.73-10H79a1,1,0,0,0,.95-.95V29.81A.9.9,0,0,0,79.1,28.87Zm-8.51,2.69a.95.95,0,1,1-.95.95A.92.92,0,0,1,70.59,31.56ZM50,31.56a.95.95,0,1,1-.95.95A.92.92,0,0,1,50,31.56ZM78.16,66.92H42.43V36.36H78.16Z"/><path class="cls-1" d="M90.27,59.52A2,2,0,0,1,89,55.94l20-15.48a2,2,0,0,1,1.89-.3l15.7,5.58L145,27.85a2,2,0,0,1,2.79,2.86L128.52,49.47a2,2,0,0,1-2.07.45l-15.84-5.63L91.49,59.1A2,2,0,0,1,90.27,59.52Z"/><path class="cls-1" d="M156,16.51H77.14a3.22,3.22,0,0,0-3.21,3.21v7.14h3V19.73a.23.23,0,0,1,.23-.23H156a.23.23,0,0,1,.23.23V65.56a.23.23,0,0,1-.23.23H82v2.08a2.91,2.91,0,0,1-.16.91H156a3.22,3.22,0,0,0,3.21-3.21V19.73A3.22,3.22,0,0,0,156,16.51Z"/></g></svg>