<svg xmlns="http://www.w3.org/2000/svg" viewBox="0 0 200 90"><defs><style>.cls-1{fill:#1f5748;}</style></defs><title>investingMakingTrades</title><g id="Investing_and_making_trades" data-name="Investing and making trades"><path class="cls-1" d="M113.07,72.66c-1,0-2.14.89-3.29,1-2.05.25-7,.18-9.78.19s-7.73.06-9.78-.19c-1.14-.14-2.3-1-3.29-1-11.57,0-31.64,0-43.22,0v2a4.7,4.7,0,0,0,5,5H151.26a4.7,4.7,0,0,0,5-5v-2C144.71,72.67,124.64,72.69,113.07,72.66Z"/><polygon class="cls-1" points="86.5 59.87 92.27 59.87 92.27 43.43 86.5 47.8 86.5 59.87"/><polygon class="cls-1" points="98.11 59.87 103.92 59.9 103.92 44.32 98.11 42.58 98.11 59.87"/><path class="cls-1" d="M118.09,26.47H111.7a1.35,1.35,0,0,0,.38,2.67h2.78l-9.17,9.15-11-3.66a1.3,1.3,0,0,0-1.48.13l-12,9.36-.17.13a1.34,1.34,0,0,0,1.8,2l11.47-8.92L105.35,41a1.5,1.5,0,0,0,1.65-.21L116.76,31v2.8s0,0,0,0a1.34,1.34,0,0,0,2.67,0v-6A1.34,1.34,0,0,0,118.09,26.47Z"/><polygon class="cls-1" points="109.78 59.87 115.58 59.83 115.58 37.19 109.78 42.98 109.78 59.87"/><polygon class="cls-1" points="144.68 45.48 154.01 55.25 156.67 52.48 147.35 42.78 151.35 38.62 135.36 33.07 140.69 49.7 144.68 45.48"/><path class="cls-1" d="M141.29,52.5c0,5.26,0,11.23,0,14.14H58.84c0-9.38,0-35.84-.12-48.31a1.29,1.29,0,0,1,.12-.69,1.71,1.71,0,0,1,1-.24h80c1.38,0,1.44.46,1.44,1.27,0,3.51,0,11.17,0,14.24l4,1.3c0-3,0-11.84,0-15.54,0-3.27-2.11-5.29-5.46-5.29-23.92,0-56.05,0-80,0-2.58,0-5.19,1.39-5.16,5,.14,15.9.11,52.29.11,52.29h90.48s0-8.9,0-18.36l-1.91-2.12Z"/></g></svg>