<svg xmlns="http://www.w3.org/2000/svg" viewBox="0 0 200 90"><defs><style>.cls-1{fill:#1e5748;}</style></defs><title>TDpublic_illustrations_200x90_00_General</title><g id="ARTWORK"><g id="Layer_27" data-name="Layer 27"><path class="cls-1" d="M147.23,78.14,133,58a1.5,1.5,0,0,0-.7-.54l-15.18-5.69a1.49,1.49,0,0,0-1.16,0L99.8,59.28,83.59,51.8a1.5,1.5,0,0,0-1.16,0L67.26,57.45a1.5,1.5,0,0,0-.68.52L51.79,78.11a1.5,1.5,0,0,0,1.82,2.26L78,69.43l21.3,10.9a1.5,1.5,0,0,0,1.38,0l20.88-10.89,23.8,10.92a1.5,1.5,0,0,0,1.85-2.23Zm-25-11.68-.12-.36a1,1,0,0,0-1.9.64v0L100,77.31,79.35,66.75h0a1,1,0,0,0-1.9-.63l-.12.35L57.57,75.31,68.73,60.1l14-5.25.17-.07,0,0L98.8,62.13v.66a1,1,0,1,0,2,0v-.66l15.85-7.32,0,0,.17.07,14,5.24,10.72,15.22Z"/><path class="cls-1" d="M81.88,56.06a1,1,0,0,0-1.27.63l-.53,1.57a1,1,0,1,0,1.9.63l.53-1.57A1,1,0,0,0,81.88,56.06Z"/><path class="cls-1" d="M80.3,60.76a1,1,0,0,0-1.27.63L78.51,63a1,1,0,0,0,1.9.64L80.93,62A1,1,0,0,0,80.3,60.76Z"/><path class="cls-1" d="M119.5,58.26,119,56.69a1,1,0,0,0-1.9.63l.53,1.57a1,1,0,0,0,1.9-.63Z"/><path class="cls-1" d="M120.55,61.39a1,1,0,1,0-1.9.64l.53,1.57a1,1,0,0,0,1.9-.64Z"/><path class="cls-1" d="M99.8,72.68a1,1,0,0,0-1,1v2.18a1,1,0,1,0,2,0V73.68A1,1,0,0,0,99.8,72.68Z"/><path class="cls-1" d="M99.8,66.15a1,1,0,0,0-1,1v2.18a1,1,0,1,0,2,0V67.15A1,1,0,0,0,99.8,66.15Z"/><path class="cls-1" d="M99.94,52l12.53-12.53c6.92-6.21,7-17.38,0-24.3a17.68,17.68,0,0,0-25,.06c-6.92,6.92-7,18.13,0,24.34ZM88,21h17.71C110,21,112,23.07,112,28.29c0,6.87-3,7.71-7.13,7.71H97.75V23.92h3.58v10h3.45c2.38,0,3.38-1.56,3.38-5.54s-1.14-5.19-3.55-5.19H96.75V36H93.2V23.14H88Z"/></g></g></svg>