<svg xmlns="http://www.w3.org/2000/svg" viewBox="0 0 200 90"><title>lowCarbonLending</title><g id="eb6942e8-1225-4218-86ff-79ae227643c8" data-name="ARTWORK"><polyline points="114.28 37.27 108.12 40.89 104.49 34.73" style="fill:none;stroke:#1e5748;stroke-linecap:round;stroke-miterlimit:10;stroke-width:3.13912975788116px"/><polyline points="162.22 52.45 168.09 48.36 172.18 54.23" style="fill:none;stroke:#1e5748;stroke-linecap:round;stroke-miterlimit:10;stroke-width:3.13912975788116px"/><path d="M138.21,16.63a28.71,28.71,0,0,1,28.2,23.55h3.18a31.8,31.8,0,0,0-62.77,0H110A28.69,28.69,0,0,1,138.21,16.63Z" style="fill:#1e5748"/><path d="M166.41,50.39a28.66,28.66,0,0,1-56.4,0h-3.19a31.8,31.8,0,0,0,62.77,0Z" style="fill:#1e5748"/><path d="M39.06,38.22a2.47,2.47,0,0,1,1.21,1c.43-.86.93-2,1.5-3.41,2.13-5.38,3.18-10,2.36-10.34s-3.22,3.77-5.35,9.16a36.42,36.42,0,0,0-1.21,3.46A2.46,2.46,0,0,1,39.06,38.22Z" style="fill:#1e5748"/><path d="M37.57,42a1.49,1.49,0,0,0,1.17,0,1.51,1.51,0,0,0,.79-2h0a1.49,1.49,0,0,0-.84-.81,1.55,1.55,0,0,0-.56-.11,1.41,1.41,0,0,0-.6.13,1.51,1.51,0,0,0-.8,2A1.55,1.55,0,0,0,37.57,42Z" style="fill:#1e5748"/><path d="M42.54,43.65c-.77-.95-1.43-1.7-2-2.32,0,.05,0,.11-.05.16a2.54,2.54,0,0,1-1.34,1.39,2.58,2.58,0,0,1-1,.21,2.52,2.52,0,0,1-.93-.18c-.09,0-.17-.09-.26-.13V69.7h2.53V45l.57.72c3.66,4.49,7.17,7.68,7.86,7.12S46.19,48.15,42.54,43.65Z" style="fill:#1e5748"/><path d="M35.82,41.57a2.53,2.53,0,0,1,0-1.93,2.63,2.63,0,0,1,.21-.41c-.84-.08-1.87-.14-3.11-.17-5.79-.13-10.5.48-10.52,1.37S27,42.14,32.81,42.28c1.4,0,2.53,0,3.44-.05A2.28,2.28,0,0,1,35.82,41.57Z" style="fill:#1e5748"/><path d="M61.5,42a1.49,1.49,0,0,0,1.17,0,1.51,1.51,0,0,0,.79-2h0a1.49,1.49,0,0,0-.84-.81,1.55,1.55,0,0,0-.56-.11,1.41,1.41,0,0,0-.6.13,1.52,1.52,0,0,0-.82.83,1.58,1.58,0,0,0,0,1.17A1.55,1.55,0,0,0,61.5,42Z" style="fill:#1e5748"/><path d="M63,38.22a2.47,2.47,0,0,1,1.21,1c.43-.86.93-2,1.5-3.41,2.13-5.38,3.18-10,2.36-10.34s-3.22,3.77-5.35,9.16a36.42,36.42,0,0,0-1.21,3.46A2.46,2.46,0,0,1,63,38.22Z" style="fill:#1e5748"/><path d="M59.75,41.57a2.53,2.53,0,0,1,0-1.93,2.63,2.63,0,0,1,.21-.41c-.84-.08-1.87-.14-3.11-.17-5.79-.13-10.5.48-10.52,1.37S51,42.14,56.74,42.28c1.4,0,2.53,0,3.44-.05A2.28,2.28,0,0,1,59.75,41.57Z" style="fill:#1e5748"/><path d="M66.47,43.65c-.77-.95-1.43-1.7-2-2.32,0,.05,0,.11,0,.16a2.5,2.5,0,0,1-1.34,1.39,2.51,2.51,0,0,1-1.94,0c-.09,0-.17-.09-.26-.13V69.7H63.4V45l.57.72c3.66,4.49,7.17,7.68,7.86,7.12S70.12,48.15,66.47,43.65Z" style="fill:#1e5748"/><path d="M88.29,38.22a2.47,2.47,0,0,1,1.21,1c.44-.86.93-2,1.5-3.41,2.13-5.38,3.19-10,2.36-10.34S90.14,29.26,88,34.65a36.42,36.42,0,0,0-1.21,3.46A2.46,2.46,0,0,1,88.29,38.22Z" style="fill:#1e5748"/><path d="M86.8,42a1.52,1.52,0,0,0,2-2h0a1.5,1.5,0,0,0-.83-.81,1.65,1.65,0,0,0-.57-.11,1.41,1.41,0,0,0-.6.13,1.51,1.51,0,0,0-.79,2A1.53,1.53,0,0,0,86.8,42Z" style="fill:#1e5748"/><path d="M85.05,41.57a2.51,2.51,0,0,1,.18-2.34c-.85-.08-1.87-.14-3.11-.17-5.79-.13-10.51.48-10.53,1.37S76.25,42.14,82,42.28c1.41,0,2.53,0,3.44-.05A2.68,2.68,0,0,1,85.05,41.57Z" style="fill:#1e5748"/><path d="M91.77,43.65c-.77-.95-1.43-1.7-2-2.32,0,.05,0,.11-.05.16a2.51,2.51,0,0,1-3.27,1.42,2.24,2.24,0,0,1-.27-.13V69.7H88.7V45l.58.73c3.65,4.49,7.17,7.68,7.86,7.12S95.42,48.15,91.77,43.65Z" style="fill:#1e5748"/><path d="M146.78,55c5.47-5.47,6.75-23.44,6.75-23.44A27.84,27.84,0,0,1,143.89,34c-5.59.48-10.77,1.27-13.8,4.3-4.69,4.69-5.86,11.35-3.19,16.06,2.93-4.6,15-11.17,15-11.17-8.65,6.19-13.07,11-19,19.46l2.92.78a33.53,33.53,0,0,1,4-5.81C134.58,60.94,141.8,59.94,146.78,55Z" style="fill:#1e5748"/></g></svg>