<svg xmlns="http://www.w3.org/2000/svg" viewBox="0 0 200 90"><defs><style>.cls-1{fill:#1e5748;}</style></defs><title>lowManagementFees</title><g id="ARTWORK"><path class="cls-1" d="M136.07,59.35a2.63,2.63,0,0,1-2.22-1.21L130.1,52.3l-6.46,2.51a2.64,2.64,0,0,1-3.59-2.61l.4-6.92-6.7-1.76a2.64,2.64,0,0,1-1.37-4.22l4.39-5.37-4.39-5.37a2.64,2.64,0,0,1,1.37-4.22l6.7-1.76-.4-6.92A2.64,2.64,0,0,1,123.64,13l6.46,2.51,3.75-5.83a2.61,2.61,0,0,1,2.22-1.18h0a2.61,2.61,0,0,1,2.22,1.18L142,15.56l6.46-2.51a2.64,2.64,0,0,1,3.59,2.61l-.39,6.92,6.7,1.76a2.64,2.64,0,0,1,1.37,4.22l-4.39,5.37,4.39,5.37a2.64,2.64,0,0,1-1.37,4.22l-6.71,1.76.39,6.92a2.64,2.64,0,0,1-3.59,2.61L142,52.3l-3.75,5.83A2.63,2.63,0,0,1,136.07,59.35ZM130.7,49a1.5,1.5,0,0,1,1.26.69L136.07,56l4.11-6.39a1.5,1.5,0,0,1,1.81-.59l7.08,2.75-.43-7.58a1.5,1.5,0,0,1,1.12-1.54l7.35-1.93-4.81-5.88a1.5,1.5,0,0,1,0-1.9l4.81-5.88-7.35-1.93a1.5,1.5,0,0,1-1.12-1.54l.43-7.58L142,18.8a1.5,1.5,0,0,1-1.81-.59l-4.11-6.39L132,18.22a1.5,1.5,0,0,1-1.81.59L123.08,16l.43,7.58a1.5,1.5,0,0,1-1.12,1.54L115,27.1,119.86,33a1.5,1.5,0,0,1,0,1.9L115,40.77l7.35,1.93a1.5,1.5,0,0,1,1.12,1.54l-.43,7.58,7.08-2.76A1.49,1.49,0,0,1,130.7,49Zm26.75-7.76h0ZM136.38,11.35h0Z"/><path class="cls-1" d="M142.38,30.76c-1.88,0-3.7.68-3.7,3V39.9c0,2.29,1.82,3,3.7,3s3.7-.67,3.7-3V33.72C146.09,31.43,144.26,30.76,142.38,30.76Zm.63,9.46c0,.39-.09.78-.63.78s-.63-.39-.63-.78v-7c0-.39.09-.78.63-.78s.63.39.63.78Z"/><path class="cls-1" d="M134.18,32.68V26.5c0-2.29-1.82-3-3.7-3s-3.7.68-3.7,3v6.18c0,2.29,1.82,3,3.7,3S134.18,35,134.18,32.68Zm-4.33.47v-7c0-.39.08-.78.63-.78s.63.39.63.78v7c0,.39-.09.78-.63.78S129.84,33.54,129.84,33.15Z"/><path class="cls-1" d="M134.94,42.77l-1.68.78,8.23-20H139.3l-8,19.47-.88-1.89a1,1,0,0,0-1.81.84l1.85,4a1,1,0,0,0,.91.58,1,1,0,0,0,.42-.09l4-1.85a1,1,0,0,0-.84-1.81Z"/><path class="cls-1" d="M110.11,61.88l-16.6-6c-.55-.2-1.32-.44-2.18-.69L86.22,76.14,82.16,61.6l3.32-6a.61.61,0,0,0,0-.59.53.53,0,0,0-.47-.31H74.8a.53.53,0,0,0-.47.31.61.61,0,0,0,0,.59l3.32,6L73.63,75.85l-5.4-21.16A43.18,43.18,0,0,0,64,55.92l-16.6,6c-2.94,1.12-3.5,3.25-3.59,5.58,0,.78,0,1.58,0,2.37v4c0,3.54,2.21,6,5.45,6h59c3.24,0,5.53-2.42,5.53-6v-4C113.8,66.66,113.72,63.2,110.11,61.88Z"/><path class="cls-1" d="M80.4,53.51a14.28,14.28,0,0,0,12.44-7,24.71,24.71,0,0,0,3.62-13c0-11.3-5.85-17.78-16.06-17.78S64.33,22.32,64.33,33.46C64.33,43.11,69.36,53.51,80.4,53.51ZM84.95,20a10.14,10.14,0,0,1,6.76,6.56A19.82,19.82,0,0,1,83.91,22C84.49,21,84.84,20.22,84.95,20ZM68,33.46c0-12.29,7.77-14.12,12.41-14.12a17,17,0,0,1,2.72.23C82.05,21.75,76.5,32.31,68,33.78,68,33.67,68,33.56,68,33.46Zm15-9.8a22.27,22.27,0,0,0,9.35,5,23,23,0,0,1,.48,4.83c0,6.59-3.3,16.39-12.4,16.39-8.71,0-11.74-8.15-12.3-14.23C75.24,34.52,80.34,27.95,83,23.65Z"/></g></svg>