<svg xmlns="http://www.w3.org/2000/svg" viewBox="0 0 200 90"><defs><style>.cls-1{fill:#1e5748;}</style></defs><title>lowMinimumInvestment</title><g id="ARTWORK"><path class="cls-1" d="M92.41,58.36c0,2.69-5.62,4.92-12.41,4.92S67.6,61.17,67.6,58.36v4.92c0,2.69,5.62,4.92,12.41,4.92S92.41,66,92.41,63.27Z"/><path class="cls-1" d="M80,60.81c6.9,0,12.41-2.22,12.41-4.92V51c0,2.69-5.62,4.92-12.41,4.92s-12.41-2.22-12.41-5v4.92C67.6,58.59,73.1,60.81,80,60.81Z"/><path class="cls-1" d="M69.59,50.28c2.22,1.4,6.09,2.22,10.42,2.22,6.9,0,12.41-2.22,12.41-4.92S86.79,42.67,80,42.67c-4.33,0-8.19.94-10.42,2.34a4,4,0,0,0-2,2.34v.35a2.94,2.94,0,0,0,.7,1.64C68.65,49.58,69.12,49.93,69.59,50.28Z"/><path class="cls-1" d="M61,51.47a.7.7,0,0,0-.51-1.17H57.17V20.7a.7.7,0,0,0-.7-.7H51.93a.7.7,0,0,0-.7.7V50.3H47.87a.7.7,0,0,0-.64.42.71.71,0,0,0-.06.27.7.7,0,0,0,.2.48l6.44,6.66a.7.7,0,0,0,1,0Z"/><path class="cls-1" d="M108.62,41c6.47-1.69,13.94-5.48,18.52-10.35v3.68a1.29,1.29,0,1,0,2.59,0V27.42a1.32,1.32,0,0,0-1.29-1.29h-6.67a1.29,1.29,0,1,0,0,2.59h3.78C121.26,33.4,114.09,37,108,38.57a1.22,1.22,0,0,0-.9,1.49A1.14,1.14,0,0,0,108.62,41Z"/><polygon class="cls-1" points="122.36 42.46 122.36 53.41 118.08 53.41 118.08 46.04 110.61 46.04 110.61 53.31 107.12 53.31 107.12 55.8 145.06 55.8 145.06 53.31 141.57 53.31 141.57 33.6 134.1 33.6 134.1 53.41 129.82 53.41 129.82 42.46 122.36 42.46"/><path class="cls-1" d="M151.73,10H100.25A1.32,1.32,0,0,0,99,11.29v52a1.32,1.32,0,0,0,1.29,1.29h10.25L105,78.4a1.23,1.23,0,0,0,2.39.6L113,64.56h11.65V78.7a1.29,1.29,0,0,0,2.59,0v-14h11.65L145.46,79a1.23,1.23,0,1,0,2.39-.6l-6.47-13.74h10.25a1.32,1.32,0,0,0,1.29-1.29V11.29A1.23,1.23,0,0,0,151.73,10Zm-11.65,3.68A1.29,1.29,0,1,1,138.78,15,1.25,1.25,0,0,1,140.08,13.68Zm-28.18,0A1.29,1.29,0,1,1,110.61,15,1.25,1.25,0,0,1,111.9,13.68Zm38.53,48.39H101.55V20.25h48.88Z"/></g></svg>