<svg xmlns="http://www.w3.org/2000/svg" viewBox="0 0 200 90"><title>lowVolatility</title><g id="a3b3be3c-2973-42f8-833c-e9aa705144a4" data-name="ARTWORK"><path d="M104.83,53.39,107,46.76l2.88,8.07,1.93-.53-3.92-11a1,1,0,0,0-1-.66,1,1,0,0,0-.94.69l-2.91,9Z" style="fill:#1e5748"/><path d="M120.05,52l6.5-25.79a1,1,0,1,0-1.94-.49l-6.77,26.89Z" style="fill:#1e5748"/><path d="M70.11,46.59a1,1,0,0,0,1.28-.6l2.83-7.93L78.83,52a.94.94,0,0,0,.25.37l1.69-.52L87,20.92l5,27.4,1.93-.6L88.07,15.47a1,1,0,0,0-2,0L79.55,47.77,75.2,34.67a1,1,0,0,0-.94-.69,1,1,0,0,0-1,.67l-3.8,10.66A1,1,0,0,0,70.11,46.59Z" style="fill:#1e5748"/><path d="M113.22,64.27l1.09,3a1,1,0,0,0,1,.66,1,1,0,0,0,.92-.75l1-4.06Z" style="fill:#1e5748"/><path d="M99.93,62.1l-2.08,6.47-1.57-8.52L94,58.77,96.6,72.83a1,1,0,0,0,.92.82h.06a1,1,0,0,0,1-.69l3.17-9.86Z" style="fill:#1e5748"/><polyline points="55.89 11.69 55.89 77.8 143.73 77.8" style="fill:none;stroke:#1e5748;stroke-linecap:round;stroke-miterlimit:10;stroke-width:4px"/><polyline points="130.56 46.11 140.42 50.65 135.49 61.33" style="fill:none;stroke:#1e5748;stroke-linecap:round;stroke-miterlimit:10;stroke-width:5px"/><polyline points="138.54 52.12 107.54 60.65 93.92 52.98 65.92 61.65" style="fill:none;stroke:#1e5748;stroke-linecap:round;stroke-miterlimit:10;stroke-width:5px"/></g></svg>