<svg xmlns="http://www.w3.org/2000/svg" viewBox="0 0 320 180"><title>manageAccounts02</title><g id="60c2581a-59f9-4617-ba6b-2bc5e7668a22" data-name="ARTWORK"><path d="M71.69,44.1a3.15,3.15,0,0,1,3.1-2.6h3.47a3.14,3.14,0,0,1,3.1,2.6l.72,4a21.45,21.45,0,0,1,5.1,2.11l3.4-2.39a3.15,3.15,0,0,1,4,.35l2.45,2.45a3.14,3.14,0,0,1,.35,4L95,58.11a20.91,20.91,0,0,1,2.12,5.1l4.09.72a3.15,3.15,0,0,1,2.6,3.1V70.5a3.14,3.14,0,0,1-2.62,3.14l-4.09.72A20.91,20.91,0,0,1,95,79.46l2.39,3.41a3.15,3.15,0,0,1-.34,4L94.6,89.34a3.15,3.15,0,0,1-4,.35l-3.4-2.39a21.45,21.45,0,0,1-5.1,2.11l-.72,4.09a3.16,3.16,0,0,1-3.11,2.61H74.79a3.15,3.15,0,0,1-3.1-2.61L71,89.41a21.28,21.28,0,0,1-5.1-2.11l-3.41,2.39a3.14,3.14,0,0,1-4-.35L56,86.89a3.15,3.15,0,0,1-.34-4L58,79.45a20.91,20.91,0,0,1-2.12-5.1l-4.09-.72a3.14,3.14,0,0,1-2.6-3.09V67.07A3.14,3.14,0,0,1,51.8,64l4.09-.73A21,21,0,0,1,58,58.15l-2.39-3.41a3.15,3.15,0,0,1,.34-4l2.46-2.44a3.14,3.14,0,0,1,4-.35l3.4,2.39A21.23,21.23,0,0,1,71,48.15ZM63.6,68.8A12.92,12.92,0,1,0,76.52,55.88,12.93,12.93,0,0,0,63.6,68.8Z" style="fill:#1e5748"/><line x1="104.56" y1="86.84" x2="205.55" y2="86.48" style="fill:none;stroke:#1e5748;stroke-linecap:round;stroke-linejoin:round;stroke-width:3px"/><line x1="104.56" y1="99.48" x2="197.26" y2="99.11" style="fill:none;stroke:#1e5748;stroke-linecap:round;stroke-linejoin:round;stroke-width:3px"/><path d="M214.2,98.33l52.54-46.89a6.84,6.84,0,0,0-9.13-10.18l-52.55,46.9Z" style="fill:#1e5748;stroke:#1e5748;stroke-linejoin:round;stroke-width:3px"/><path d="M205.06,88.16l-14.33,21.75s23-11.5,23.47-11.58Z" style="fill:none;stroke:#1e5748;stroke-linejoin:round;stroke-width:3px"/><path d="M135.15,124.39c8.68,4.64,15.63,2,21.22-3.85,1.87-2,2.61-4.53,1.7-6.66-1.21-2.85-5.55-3.11-8-.75a8,8,0,0,0-2.14,4.44,7.4,7.4,0,0,0,3.58,7.64c3.09,1.84,7.43,2.06,11,1.35s9.87-3.68,12.88-8.6c1-1.68,1.21-5.25-2-6.14a5.41,5.41,0,0,0-6.85,4.2c-.72,4.1,3.69,10,8.33,10.64a13.87,13.87,0,0,0,9.28-1.88,20.67,20.67,0,0,0,7.7-6.71c.67-.93,1.79-3.4,1-5.25a3.68,3.68,0,0,0-2.72-1.9" style="fill:none;stroke:#1e5748;stroke-linecap:round;stroke-linejoin:round;stroke-width:3px"/><path d="M71.69,44.1a3.15,3.15,0,0,1,3.1-2.6h3.47a3.14,3.14,0,0,1,3.1,2.6l.72,4a21.45,21.45,0,0,1,5.1,2.11l3.4-2.39a3.15,3.15,0,0,1,4,.35l2.45,2.45a3.14,3.14,0,0,1,.35,4L95,58.11a20.91,20.91,0,0,1,2.12,5.1l4.09.72a3.15,3.15,0,0,1,2.6,3.1V70.5a3.14,3.14,0,0,1-2.62,3.14l-4.09.72A20.91,20.91,0,0,1,95,79.46l2.39,3.41a3.15,3.15,0,0,1-.34,4L94.6,89.34a3.15,3.15,0,0,1-4,.35l-3.4-2.39a21.45,21.45,0,0,1-5.1,2.11l-.72,4.09a3.16,3.16,0,0,1-3.11,2.61H74.79a3.15,3.15,0,0,1-3.1-2.61L71,89.41a21.28,21.28,0,0,1-5.1-2.11l-3.41,2.39a3.14,3.14,0,0,1-4-.35L56,86.89a3.15,3.15,0,0,1-.34-4L58,79.45a20.91,20.91,0,0,1-2.12-5.1l-4.09-.72a3.14,3.14,0,0,1-2.6-3.09V67.07A3.14,3.14,0,0,1,51.8,64l4.09-.73A21,21,0,0,1,58,58.15l-2.39-3.41a3.15,3.15,0,0,1,.34-4l2.46-2.44a3.14,3.14,0,0,1,4-.35l3.4,2.39A21.23,21.23,0,0,1,71,48.15ZM63.6,68.8A12.92,12.92,0,1,0,76.52,55.88,12.93,12.93,0,0,0,63.6,68.8Z" style="fill:#1e5748"/><path d="M233.32,69.62a4.25,4.25,0,0,0-4.24-4.23h0l-120.89.14a7.51,7.51,0,0,1,.15,1.51v3.49l120-.14V138H88l.1-44.57-.15-.1-1.21-.85-.75.31-.25,1.46a7.67,7.67,0,0,1-2.65,4.56l-.1,40A4.23,4.23,0,0,0,87.26,143H229.09a4.26,4.26,0,0,0,4.23-4.25Z" style="fill:#1e5748"/></g></svg>