<svg xmlns="http://www.w3.org/2000/svg" viewBox="0 0 200 90"><defs><style>.cls-1,.cls-4{fill:none;}.cls-1,.cls-3,.cls-4{stroke:#1e5748;stroke-linejoin:round;}.cls-1{stroke-linecap:round;}.cls-2,.cls-3{fill:#1e5748;}.cls-3,.cls-4{stroke-width:2px;}.cls-5{fill:#1e5748;}</style></defs><title>TDpublic_illustrations_200x90_01_Accounts</title><g id="ARTWORK"><path class="cls-1" d="M85.6,67.78c5.5,2.94,9.9,1.28,13.44-2.44a4,4,0,0,0,1.08-4.22c-.77-1.8-3.52-2-5.07-.48a5,5,0,0,0-1.35,2.81A4.68,4.68,0,0,0,96,68.3a10.34,10.34,0,0,0,7,.86c2.23-.44,6.25-2.33,8.16-5.45.65-1.06.76-3.33-1.24-3.89a3.42,3.42,0,0,0-4.34,2.66c-.46,2.59,2.34,6.36,5.27,6.73A8.76,8.76,0,0,0,116.67,68a13.07,13.07,0,0,0,4.88-4.25,3.85,3.85,0,0,0,.61-3.33,2.34,2.34,0,0,0-1.72-1.2"/><path class="cls-2" d="M66,53.21a1,1,0,0,1,0-2L124.41,51h1.25c.55,0-.25.45-.25,1a1,1,0,0,1-1,1L66,53.21Z"/><path class="cls-2" d="M66,45.32a1,1,0,0,1,0-2l64.38-.23h1.25l-1.25,2L66,45.32Z"/><path class="cls-3" d="M135.39,51.48l32.1-28.71a4.35,4.35,0,0,0,.32-6.13,4.3,4.3,0,0,0-6.1-.32L129.61,45Z"/><path class="cls-4" d="M129.61,45l-9.07,13.78s14.55-7.29,14.86-7.33Z"/><path class="cls-2" d="M144.82,30.21h0L66,30.28c0,.11,0,.22,0,.34v2.12a4.85,4.85,0,0,1-.24,1.54l78.09-.08v42h-88L56,48l-3.83-.23a5,5,0,0,1-.16.52l0,28.79A3.1,3.1,0,0,0,55,80.21h89.82a3.11,3.11,0,0,0,3.09-3.11V33.3A3.11,3.11,0,0,0,144.82,30.21Z"/><path class="cls-5" d="M43.37,16.56a1.93,1.93,0,0,1,1.9-1.6H47.4a1.93,1.93,0,0,1,1.9,1.6L49.74,19a13,13,0,0,1,3.13,1.3L55,18.87a1.93,1.93,0,0,1,2.47.21l1.5,1.5a1.93,1.93,0,0,1,.21,2.47l-1.46,2.09A13,13,0,0,1,59,28.27l2.51.44a1.93,1.93,0,0,1,1.6,1.9v2.13a1.93,1.93,0,0,1-1.61,1.92L59,35.11a13,13,0,0,1-1.3,3.13l1.46,2.09a1.93,1.93,0,0,1-.21,2.47l-1.5,1.5a1.93,1.93,0,0,1-2.47.21L52.86,43a12.93,12.93,0,0,1-3.13,1.3l-.44,2.51a1.93,1.93,0,0,1-1.9,1.6H45.28a1.93,1.93,0,0,1-1.9-1.6l-.44-2.51A13,13,0,0,1,39.81,43L37.72,44.5a1.93,1.93,0,0,1-2.49-.21l-1.5-1.5a1.93,1.93,0,0,1-.21-2.47L35,38.23a13,13,0,0,1-1.3-3.13l-2.51-.44a1.93,1.93,0,0,1-1.6-1.9V30.64a1.93,1.93,0,0,1,1.6-1.9l2.51-.44A13,13,0,0,1,35,25.17l-1.46-2.09a1.93,1.93,0,0,1,.21-2.47l1.5-1.5a1.93,1.93,0,0,1,2.47-.21l2.09,1.46A13,13,0,0,1,42.94,19Zm-5,15.14a7.92,7.92,0,1,0,7.92-7.92,7.92,7.92,0,0,0-7.92,7.92Z"/></g></svg>