<svg xmlns="http://www.w3.org/2000/svg" viewBox="0 0 200 90"><defs><style>.cls-1,.cls-2{fill:#1e5748;}.cls-2{stroke:#1e5748;stroke-miterlimit:10;stroke-width:0.5px;}</style></defs><title>manyWaysToBank</title><g id="ARTWORK"><rect class="cls-1" x="135.88" y="63.96" width="45.32" height="2.75" rx="0.69" ry="0.69"/><rect class="cls-1" x="133.13" y="68.08" width="50.82" height="2.75" rx="0.69" ry="0.69"/><rect class="cls-1" x="135.88" y="36.5" width="45.32" height="2.75" rx="0.69" ry="0.69"/><path class="cls-1" d="M134.51,35.18h48.07a.69.69,0,0,0,.29-1.31l-24-11.3a.68.68,0,0,0-.58,0l-24,11.3a.69.69,0,0,0,.29,1.31Z"/><rect class="cls-1" x="139.34" y="40.64" width="4.76" height="21.93" rx="0.66" ry="0.66"/><rect class="cls-1" x="150.83" y="40.64" width="4.76" height="21.93" rx="0.66" ry="0.66"/><rect class="cls-1" x="162.32" y="40.64" width="4.76" height="21.93" rx="0.66" ry="0.66"/><rect class="cls-1" x="173.67" y="40.64" width="4.76" height="21.93" rx="0.66" ry="0.66"/><path class="cls-2" d="M35.48,32.69H22.36a4.84,4.84,0,0,0-4.84,4.84V65.7a4.84,4.84,0,0,0,4.84,4.84H35.48a4.84,4.84,0,0,0,4.84-4.84V37.53A4.84,4.84,0,0,0,35.48,32.69Zm3.23,33a3.23,3.23,0,0,1-3.23,3.23H22.36a3.23,3.23,0,0,1-3.23-3.23V37.53a3.23,3.23,0,0,1,3.23-3.23H35.48a3.23,3.23,0,0,1,3.23,3.23Z"/><rect class="cls-1" x="21.44" y="36.77" width="14.95" height="24.57" rx="0.53" ry="0.53"/><circle class="cls-2" cx="28.92" cy="65.08" r="1.6"/><path class="cls-1" d="M96.48,65.42c-.74,0-1.6.66-2.46.77-1.54.18-5.22.13-7.32.14s-5.79,0-7.32-.14c-.86-.1-1.72-.77-2.46-.77-8.67,0-23.69,0-32.36,0v1.49a3.52,3.52,0,0,0,3.76,3.76h76.76a3.52,3.52,0,0,0,3.76-3.76V65.43C120.18,65.43,105.15,65.44,96.48,65.42Z"/><path class="cls-1" d="M52.82,63.91h67.74s0-26.93,0-38.93a3.74,3.74,0,0,0-4.09-4H56.6c-1.93,0-3.89,1-3.86,3.74C52.84,36.67,52.82,63.91,52.82,63.91Zm3-39.69A1.28,1.28,0,0,1,56.6,24h59.87c1,0,1.08.34,1.08,1,0,9.38,0,29,0,35.91H55.83c0-7,0-26.84-.09-36.17A1,1,0,0,1,55.83,24.22Z"/><polygon class="cls-1" points="86.05 44.12 90.58 48.86 91.87 47.52 87.35 42.81 89.29 40.79 81.53 38.1 84.11 46.17 86.05 44.12"/></g></svg>