<svg xmlns="http://www.w3.org/2000/svg" viewBox="0 0 200 90"><defs><style>.cls-1{fill:#1e5748;}</style></defs><title>marketGrowthGICs</title><g id="ARTWORK"><path class="cls-1" d="M143,72.43a16.1,16.1,0,0,0,6-1.16A18.34,18.34,0,0,1,134,45.74c.17-.4.37-.8.57-1.18s.45-.8.69-1.19a18.44,18.44,0,0,1,1.51-2.11A16.2,16.2,0,0,0,143,72.43Z"/><path class="cls-1" d="M134.69,53a16.22,16.22,0,0,0,16.2,16.2c.26,0,.51,0,.77,0s.75,0,1.12-.08l.13,0c.43-.05.86-.11,1.29-.2.25-.05.49-.13.74-.19A16.19,16.19,0,1,0,142.87,39a16.46,16.46,0,0,0-4.9,4.32c-.26.34-.5.69-.74,1.05s-.46.73-.66,1.11A16.09,16.09,0,0,0,134.69,53Zm10.66,3.53a1.69,1.69,0,0,1,2.38,0,3.83,3.83,0,0,0,3.11,1.16,3.61,3.61,0,0,0,2.09-.52l0,0a1.43,1.43,0,0,0,.54-1.24c0-.26,0-.45-.51-.88a2.19,2.19,0,0,0-1.09-.51l-.54-.1-1.79-.29a5.64,5.64,0,0,1-2.68-1.26A3.66,3.66,0,0,1,145.66,50a4.57,4.57,0,0,1,.46-2,4.08,4.08,0,0,1,1.42-1.66,4.73,4.73,0,0,1,2.18-.8v-.93a1.15,1.15,0,0,1,1.14-1.14,1.13,1.13,0,0,1,.82.34,1.1,1.1,0,0,1,.31.81v1a6.49,6.49,0,0,1,3.14,1.49,1.69,1.69,0,0,1,.12,2.38,1.74,1.74,0,0,1-1.26.55,1.66,1.66,0,0,1-1.12-.43,3.7,3.7,0,0,0-2.3-.76l-.24,0h0a1.44,1.44,0,0,0-1,.29A1,1,0,0,0,149,50a.77.77,0,0,0,.05.36,2.34,2.34,0,0,0,1,.47l.83.14.94.15c.22,0,.4.08.6.12a5.56,5.56,0,0,1,2.71,1.26,4.26,4.26,0,0,1,1.67,3.42,4.85,4.85,0,0,1-1.31,3.43l-.06.08a4.65,4.65,0,0,1-.47.4,5,5,0,0,1-.47.3,5.73,5.73,0,0,1-1.05.5A7.21,7.21,0,0,1,152,61v.71a1.12,1.12,0,0,1-1.11,1.14h-.07a1.13,1.13,0,0,1-1.1-1.1V61a6.84,6.84,0,0,1-4.37-2.08A1.69,1.69,0,0,1,145.34,56.55Z"/><path class="cls-1" d="M38.58,43.81C67.66,43.93,84.72,22,84.72,22l.08,0v5.16a1.89,1.89,0,0,0,3.78,0v-10a1.92,1.92,0,0,0-1.89-1.89H77A1.89,1.89,0,1,0,77,19h5.14S65.7,40.76,39,40.76c-1.43,0-3.75-.5-3.73,1.45C35.26,44,38.58,43.81,38.58,43.81Z"/><path class="cls-1" d="M170.38,78.38A1.5,1.5,0,0,0,169,76.89v-.07H142.87a16.27,16.27,0,0,0,5-2.91,18.33,18.33,0,0,1-22.33-23.35,16.15,16.15,0,0,0,6.32,26.26H106V30.06h-12V76.82H85.54v-38H73.69V76.88H66.89v-24H55v24H48.24V58.53H36.39V76.82H30.86v.06a1.5,1.5,0,0,0,0,3v.07H169v-.09A1.5,1.5,0,0,0,170.38,78.38Z"/></g></svg>