<svg xmlns="http://www.w3.org/2000/svg" viewBox="0 0 200 90"><defs><style>.cls-1{fill:#1f5748;}</style></defs><title>mentoringPartnership</title><g id="The_Mentoring_Partnership" data-name="The Mentoring Partnership"><path class="cls-1" d="M36.59,45.64c0,.54,0,1.09,0,1.64V50c0,2.46,1.53,4.13,3.77,4.13H81.22A3.81,3.81,0,0,0,85.05,50V47.28c0-2.19-.05-4.59-2.55-5.51L71,37.64c-.38-.14-.92-.31-1.51-.48L66,51.67,63.14,41.58l2.3-4.14a.42.42,0,0,0,0-.41.37.37,0,0,0-.33-.21H58a.37.37,0,0,0-.33.21.42.42,0,0,0,0,.41L60,41.57l-2.81,9.89L53.49,36.79a29.85,29.85,0,0,0-2.92.85L39.08,41.77C37,42.55,36.66,44,36.59,45.64Z"/><path class="cls-1" d="M61.92,36a9.89,9.89,0,0,0,8.61-4.86A17.17,17.17,0,0,0,73,22C73,14.2,69,9.71,61.92,9.71S50.79,14.32,50.79,22C50.79,28.75,54.27,36,61.92,36Zm3.15-23.27a7,7,0,0,1,4.68,4.55,13.72,13.72,0,0,1-5.4-3.13C64.75,13.38,65,12.86,65.07,12.69ZM53.33,22c0-8.53,5.38-9.8,8.59-9.8a11.75,11.75,0,0,1,1.89.16c-.74,1.52-4.58,8.85-10.47,9.87C53.33,22.2,53.33,22.12,53.33,22Zm10.37-6.8a15.42,15.42,0,0,0,6.48,3.45A16,16,0,0,1,70.51,22c0,4.57-2.29,11.38-8.59,11.38-6,0-8.13-5.65-8.52-9.88C58.35,22.78,61.88,18.23,63.7,15.24Z"/><path class="cls-1" d="M148.7,66l-11-3.7c-1.38-.46-5.86-1.21-6.37-1.29l-7.58,0-.24,0c-.51.08-5,.84-6.35,1.28L106.07,66a4.8,4.8,0,0,0-3.39,4.79c0,.49,0,3.41,0,4a5,5,0,0,0,5.12,5.19L147,80h0a5,5,0,0,0,5.17-5.18V72.32C152.17,70.39,152.17,67.17,148.7,66Zm.46,8.78A2,2,0,0,1,147,77h0l-39.2,0a2,2,0,0,1-2.12-2.19c0-1.32,0-3.52,0-3.84.05-1.15.26-1.7,1.37-2.09l11-3.67c.81-.27,3.92-.84,5.77-1.15h7.09c1.84.31,4.93.87,5.78,1.16l11,3.69c1.22.42,1.43,1.24,1.43,3.49Z"/><path class="cls-1" d="M115.75,44c0,7,3.64,14.56,11.63,14.56a10.34,10.34,0,0,0,9-5.08A18,18,0,0,0,139,44c0-8.2-4.24-12.91-11.63-12.91S115.76,35.89,115.75,44Zm13.5-7.11A16.12,16.12,0,0,0,136,40.47a16.7,16.7,0,0,1,.35,3.51c0,4.78-2.4,11.9-9,11.9-6.31,0-8.5-5.92-8.91-10.33C123.66,44.74,127.35,40,129.25,36.86Z"/><path class="cls-1" d="M178.68,38.94a.39.39,0,0,0-.27-.31l-2.84-.93L177.76,33a.39.39,0,0,0-.52-.52l-4.5,2.08.1-3.45a.39.39,0,0,0-.26-.38.4.4,0,0,0-.44.12l-5.36,6.58L169,26.63a.39.39,0,0,0-.64-.38L165.11,29l-2.32-6.64a.4.4,0,0,0-.37-.26h0a.39.39,0,0,0-.37.27L159.76,29l-3.21-2.77a.39.39,0,0,0-.64.38l2.2,10.83-2.28-2.8-2.68-3.29-.4-.49a.4.4,0,0,0-.44-.12.4.4,0,0,0-.26.38l.1,3.45-4.5-2.08a.39.39,0,0,0-.52.52h0l1.16,2.49,1,2.17-2.61.86-.22.07a.39.39,0,0,0-.11.69L148.55,41l4.59,3.46,1.75,1.32-1.57,3a.39.39,0,0,0,.35.58l.11,0,2-.62,5.68-1.72v6.16a.79.79,0,1,0,1.58,0V47l8,2.39a.4.4,0,0,0,.42-.13.4.4,0,0,0,0-.43l-1.57-3,8.55-6.45A.39.39,0,0,0,178.68,38.94Z"/><path class="cls-1" d="M77.64,18.24c15,0,29.37,3.12,39.6,8.58l-4.91.33a1,1,0,0,0,.07,2h.07l7.93-.54-.52-7.67a1,1,0,0,0-1.07-.93,1,1,0,0,0-.93,1.07l.27,4c-10.51-5.6-25.16-8.79-40.51-8.79a1,1,0,0,0,0,2Z"/><path class="cls-1" d="M90.4,66.73a1,1,0,0,0,.37,1.37l3.87,2.22a105.17,105.17,0,0,1-16.71,1.32C48.19,71.63,24,59.75,24,45.15c0-8.36,8.28-16.34,22.15-21.35a1,1,0,1,0-.68-1.88C30.77,27.22,22,35.91,22,45.15c0,15.71,25.09,28.48,55.93,28.48a107.27,107.27,0,0,0,17-1.34l-2.17,3.79a1,1,0,0,0,1.74,1l3.95-6.89-6.67-3.82A1,1,0,0,0,90.4,66.73Z"/></g></svg>