<svg xmlns="http://www.w3.org/2000/svg" viewBox="0 0 200 90"><title>monthlyOverdraft</title><g id="25ddfe86-1a81-4e7b-9804-52d077a2439c" data-name="ARTWORK"><path d="M97.71,22.66H89.57v3.41a2.86,2.86,0,0,1,.82,2,2.93,2.93,0,1,1-5-2V22.66H72.67v3.41a2.86,2.86,0,0,1,.82,2,2.93,2.93,0,1,1-5-2V22.66H56v3.41a2.86,2.86,0,0,1,.82,2,2.92,2.92,0,1,1-5.84,0,2.89,2.89,0,0,1,.81-2V22.66H43.42a4.18,4.18,0,0,0-4.18,4.17V71.11a4.19,4.19,0,0,0,4.18,4.17H97.71a4.19,4.19,0,0,0,4.18-4.17V26.83A4.18,4.18,0,0,0,97.71,22.66Zm.84,47.61a1.67,1.67,0,0,1-1.67,1.67H44.25a1.67,1.67,0,0,1-1.67-1.67V34.35h56Z" style="fill:#1e5748"/><path d="M48.43,66.93H59.29a.84.84,0,0,0,.83-.84v-10a.84.84,0,0,0-.83-.84H48.43a.85.85,0,0,0-.84.84v10A.85.85,0,0,0,48.43,66.93Zm0-10.86H59.29v10H48.43Z" style="fill:#1e5748"/><path d="M65.14,66.93H76a.84.84,0,0,0,.83-.84v-10a.84.84,0,0,0-.83-.84H65.14a.84.84,0,0,0-.84.84v10A.84.84,0,0,0,65.14,66.93Zm0-10.86H76v10H65.14Z" style="fill:#1e5748"/><path d="M81.79,66.93H92.65a.84.84,0,0,0,.83-.84v-10a.84.84,0,0,0-.83-.84H81.79a.84.84,0,0,0-.84.84v10A.84.84,0,0,0,81.79,66.93Zm0-10.86H92.65v10H81.79Z" style="fill:#1e5748"/><path d="M48.43,51.06H59.29a.84.84,0,0,0,.83-.84v-10a.84.84,0,0,0-.83-.84H48.43a.85.85,0,0,0-.84.84v10A.85.85,0,0,0,48.43,51.06Zm0-10.86H59.29v10H48.43Z" style="fill:#1e5748"/><path d="M65.14,51.06H76a.84.84,0,0,0,.83-.84v-10a.84.84,0,0,0-.83-.84H65.14a.84.84,0,0,0-.84.84v10A.84.84,0,0,0,65.14,51.06Zm0-10.86H76v10H65.14Z" style="fill:#1e5748"/><path d="M81.84,51.06H92.7a.85.85,0,0,0,.84-.84v-10a.85.85,0,0,0-.84-.84H81.84a.84.84,0,0,0-.83.84v10A.84.84,0,0,0,81.84,51.06Zm0-10.86H92.7v10H81.84Z" style="fill:#1e5748"/><rect x="86.2" y="16.91" width="2.54" height="12.33" rx="1.11" ry="1.11" style="fill:#1e5748"/><rect x="52.59" y="16.91" width="2.54" height="12.33" rx="1.11" ry="1.11" style="fill:#1e5748"/><rect x="69.3" y="16.91" width="2.54" height="12.33" rx="1.11" ry="1.11" style="fill:#1e5748"/><path d="M159.91,26.38a1.85,1.85,0,0,0-1.49-.44,24.59,24.59,0,0,1-21-7.44,1.87,1.87,0,0,0-1.33-.56h0a1.85,1.85,0,0,0-1.33.56,25.05,25.05,0,0,1-21,7.53,1.87,1.87,0,0,0-2.11,1.61,2.11,2.11,0,0,0,0,.26c0,34.8,12,40.9,23.64,46.79a1.91,1.91,0,0,0,1.74,0c11.59-6.06,23.54-12.33,23.54-46.9A1.87,1.87,0,0,0,159.91,26.38ZM136.06,70.92c-10.54-5.37-20.28-11.1-20.7-40.94a28.8,28.8,0,0,0,20.72-7.53,28.21,28.21,0,0,0,20.65,7.4c-.38,29.66-10.14,35.53-20.68,41.05Z" style="fill:#1e5748"/><path d="M151.54,33.44a27,27,0,0,1-14.72-5.53,1.26,1.26,0,0,0-1.52,0,27.43,27.43,0,0,1-14.73,5.58,1.27,1.27,0,0,0-1.17,1.26c.85,21.58,7.53,26.73,16,31.22a1.24,1.24,0,0,0,1.18,0c8.27-4.45,15.18-9.89,16.09-31.26A1.25,1.25,0,0,0,151.54,33.44ZM141.09,53.31a5.62,5.62,0,0,1-.53.46A7.12,7.12,0,0,1,137,55.09V56h0a1.16,1.16,0,0,1-1.14,1.18h-.07a1.16,1.16,0,0,1-1.15-1.14v-.94a7.72,7.72,0,0,1-5.09-2.39,1.79,1.79,0,0,1,0-2.44,1.82,1.82,0,0,1,2.56-.12,4.51,4.51,0,0,0,3.69,1.38,4.2,4.2,0,0,0,2.55-.66,1.82,1.82,0,0,0,.67-1.54c0-.36,0-.62-.63-1.12a3.41,3.41,0,0,0-2-.72l-2.11-.34a6.34,6.34,0,0,1-3-1.42,4.05,4.05,0,0,1-1.37-3.24v0a4.85,4.85,0,0,1,4.71-5V36.29a1.21,1.21,0,0,1,1.18-1.18,1.18,1.18,0,0,1,.85.36,1.16,1.16,0,0,1,.29.83v1.37a7.5,7.5,0,0,1,3.67,1.71,1.81,1.81,0,0,1,.59,1.27,1.76,1.76,0,0,1-.46,1.29,1.87,1.87,0,0,1-1.35.59,1.74,1.74,0,0,1-1.21-.48,4.54,4.54,0,0,0-3-.94,1.54,1.54,0,0,0-1.63,1.42c0,.7.75,1,1.37,1.06l2,.34a6.68,6.68,0,0,1,3.76,1.56,4.8,4.8,0,0,1,1.93,3.87A5.47,5.47,0,0,1,141.09,53.31Z" style="fill:#1e5748"/></g></svg>