<svg xmlns="http://www.w3.org/2000/svg" viewBox="0 0 200 90"><defs><style>.cls-1{fill:#1e5748;}.cls-2,.cls-3,.cls-4,.cls-5,.cls-6{fill:none;}.cls-3,.cls-4,.cls-5,.cls-6{stroke:#1e5748;}.cls-3,.cls-4{stroke-linecap:round;stroke-linejoin:round;}.cls-3{stroke-width:2.5px;}.cls-4{stroke-width:1.5px;}.cls-5,.cls-6{stroke-miterlimit:10;}.cls-5{stroke-width:3px;}.cls-6{stroke-width:2px;}</style></defs><title>mortgagePrepaymentCalculator</title><g id="ARTWORK"><path class="cls-1" d="M122,64.83a10.62,10.62,0,0,1,.33-2.58h-47l.06-26.7,56.75-.06v18.7l.53,0a10.61,10.61,0,0,1,2.76.37v-20a2.37,2.37,0,0,0-2.37-2.36l-58.6.07a2.37,2.37,0,0,0-2.36,2.36L72,63.18a2.36,2.36,0,0,0,2.36,2.36H122C122,65.31,122,65.07,122,64.83Z"/><path class="cls-1" d="M81.55,42.51a.82.82,0,0,1,0-1.65l45.18-.15h0a.82.82,0,0,1,0,1.65l-45.18.15Z"/><path class="cls-1" d="M81.55,47.73a.82.82,0,0,1,0-1.65l45.18-.15h0a.82.82,0,0,1,0,1.65l-45.18.15Z"/><path class="cls-1" d="M104.24,58.55a8.86,8.86,0,0,1-3.1-.64,2.61,2.61,0,0,1-.69-.4,8.4,8.4,0,0,1-6.21.58.41.41,0,1,1,.21-.8,7.5,7.5,0,0,0,5.43-.41,3.73,3.73,0,0,1-.48-2.59,4.46,4.46,0,0,1,1-2,3,3,0,0,1,2.92-.8,1.49,1.49,0,0,1,1.12,1.34,2.52,2.52,0,0,1-.57,1.63A10.29,10.29,0,0,1,101.23,57l.21.1a6.38,6.38,0,0,0,4.23.36q1.06-.38,1.92-.78a4,4,0,0,1-.24-.38,3.07,3.07,0,0,1-.19-2.79c.37-.76,1.35-2.76,3.74-1.85a1.52,1.52,0,0,1,.89,1,2.5,2.5,0,0,1-.28,2,7.9,7.9,0,0,1-2.57,2.18,2.59,2.59,0,0,0,1.24.5,5.57,5.57,0,0,0,3.11-.49A10.34,10.34,0,0,0,117.67,54a1.55,1.55,0,0,0,.36-1.48,1.14,1.14,0,0,0-.77-.54.41.41,0,0,1,0-.82,1.92,1.92,0,0,1,1.48,1,2.29,2.29,0,0,1-.48,2.35,11.07,11.07,0,0,1-4.67,3.13,6.43,6.43,0,0,1-3.54.55,3.47,3.47,0,0,1-1.93-.9,21.66,21.66,0,0,1-2.21.91A5.05,5.05,0,0,1,104.24,58.55Zm-1.67-6.36a2.16,2.16,0,0,0-1.55.59,3.65,3.65,0,0,0-.8,1.65,2.87,2.87,0,0,0,.39,2A9.55,9.55,0,0,0,103.18,54a1.7,1.7,0,0,0,.42-1.08.66.66,0,0,0-.54-.62A1.69,1.69,0,0,0,102.57,52.19Zm7.17.1c-1,0-1.43.79-1.84,1.62a2.25,2.25,0,0,0,.17,2,3.16,3.16,0,0,0,.26.4,7.22,7.22,0,0,0,2.51-2A1.7,1.7,0,0,0,111,53a.7.7,0,0,0-.4-.5A2.43,2.43,0,0,0,109.75,52.28Z"/><path class="cls-1" d="M133,56.15a8.7,8.7,0,1,0,8.7,8.7A8.7,8.7,0,0,0,133,56.15Zm-.27,8.79L128.58,67a.48.48,0,0,1-.69-.42V62.47a.46.46,0,0,1,.22-.4.54.54,0,0,1,.24-.07.65.65,0,0,1,.2,0l4.14,2a.49.49,0,0,1,.27.42A.46.46,0,0,1,132.69,64.93Zm6.27,0L134.85,67a.48.48,0,0,1-.69-.42V62.47a.46.46,0,0,1,.22-.4.54.54,0,0,1,.24-.07.65.65,0,0,1,.2,0l4.14,2a.49.49,0,0,1,.27.42A.58.58,0,0,1,139,64.93Z"/><circle class="cls-2" cx="37.61" cy="63.21" r="1.2" transform="translate(-0.17 0.1) rotate(-0.15)"/><path class="cls-1" d="M46,55.58a.8.8,0,0,0-.8-.8l-9.61,0a.8.8,0,0,0-.8.8l0,15.62h0v2.4l11.22,0Zm-8.41,8.84a1.2,1.2,0,1,1,1.2-1.2A1.2,1.2,0,0,1,37.62,64.42Z"/><polyline class="cls-3" points="59.69 49.23 59.69 72.54 21.22 72.6 21.22 48.62"/><path class="cls-1" d="M58.43,49.68l2.45,1.08H66l-5.2-5.15v-.06l0-14.42a1.2,1.2,0,0,0-1.2-1.2H56a1.2,1.2,0,0,0-1.2,1.2l0,8.49-12.11-12c-1.69-1.68-3.09-1.71-4.75,0l-23,23.16,5.07,0v0l2.4-.49h0l18-17.91,18.07,17.3Z"/><polygon class="cls-4" points="45.3 50.83 35.57 50.83 35.57 42.77 45.3 42.77 45.3 46.72 45.3 50.83"/><line class="cls-4" x1="35.67" y1="46.8" x2="45.2" y2="46.8"/><line class="cls-4" x1="40.43" y1="42.88" x2="40.43" y2="50.71"/><rect class="cls-1" x="153.22" y="37.73" width="5.95" height="5.95" rx="0.25" ry="0.25"/><rect class="cls-1" x="162.16" y="37.73" width="5.95" height="5.95" rx="0.25" ry="0.25"/><rect class="cls-1" x="171.35" y="37.73" width="5.95" height="5.95" rx="0.25" ry="0.25"/><rect class="cls-1" x="152.97" y="48.87" width="5.95" height="5.95" rx="0.25" ry="0.25"/><rect class="cls-1" x="162.16" y="48.87" width="5.95" height="5.95" rx="0.25" ry="0.25"/><rect class="cls-1" x="171.35" y="48.87" width="5.95" height="5.95" rx="0.25" ry="0.25"/><rect class="cls-1" x="152.97" y="60.11" width="5.95" height="5.95" rx="0.25" ry="0.25"/><rect class="cls-1" x="162.16" y="60.11" width="5.95" height="5.95" rx="0.25" ry="0.25"/><rect class="cls-1" x="171.35" y="60.11" width="5.95" height="5.95" rx="0.25" ry="0.25"/><rect class="cls-5" x="147.57" y="18.33" width="35.13" height="54.18" rx="1" ry="1"/><rect class="cls-6" x="152.8" y="24.61" width="24.67" height="7.05" rx="1" ry="1"/></g></svg>