<svg xmlns="http://www.w3.org/2000/svg" viewBox="0 0 200 90"><defs><style>.cls-1{fill:#1e5748;}.cls-2,.cls-3{fill:none;stroke:#1e5748;stroke-miterlimit:10;}.cls-2{stroke-width:3px;}.cls-3{stroke-width:2px;}</style></defs><title>mortgagePaymentCalculator</title><g id="ARTWORK"><path class="cls-1" d="M94.17,42.43v-15a1.5,1.5,0,0,0-1.5-1.5h-4.5a1.5,1.5,0,0,0-1.5,1.5v7.54l-12.08-12c-2.1-2.1-3.86-2.15-5.93-.08l-27,27s5.18,0,7.56.06V78.44a1.5,1.5,0,0,0,1.5,1.5h42a1.5,1.5,0,0,0,1.5-1.5V49.91h7.51Zm-3,34.51h-39V48.1L71.66,28.83,91.17,47.55Z"/><path class="cls-1" d="M70.13,43.75v1.47a5.94,5.94,0,0,0-5.73,6.14,5,5,0,0,0,1.67,4c2.09,1.77,6.24,2.14,6.24,2.14,2.19.09,3.12,1.29,3.18,2.27a2.08,2.08,0,0,1-.82,1.88,5.09,5.09,0,0,1-3.12.81A5.65,5.65,0,0,1,67,60.73a2.32,2.32,0,0,0-3.13,0,2.28,2.28,0,0,0,0,3.13,9.5,9.5,0,0,0,6.23,2.91v1.16a1.31,1.31,0,0,0,1.44,1.39A1.35,1.35,0,0,0,73,67.9V66.74a9.46,9.46,0,0,0,5-2.18,6.49,6.49,0,0,0,1.9-4.84A5.86,5.86,0,0,0,77.58,55,8.08,8.08,0,0,0,73,53.1l-2.51-.41c-.75-.11-1.67-.43-1.67-1.33a1.89,1.89,0,0,1,2-1.74,5.59,5.59,0,0,1,3.7,1.14,2.23,2.23,0,0,0,3.13-.15,2.38,2.38,0,0,0-.15-3.13A8.75,8.75,0,0,0,73,45.39V43.77a1.33,1.33,0,0,0-1.44-1.45A1.47,1.47,0,0,0,70.13,43.75Z"/><rect class="cls-1" x="120.23" y="35.47" width="7.35" height="7.35" rx="0.25" ry="0.25"/><rect class="cls-1" x="131.27" y="35.47" width="7.35" height="7.35" rx="0.25" ry="0.25"/><rect class="cls-1" x="142.63" y="35.47" width="7.35" height="7.35" rx="0.25" ry="0.25"/><rect class="cls-1" x="119.92" y="49.22" width="7.35" height="7.35" rx="0.25" ry="0.25"/><rect class="cls-1" x="131.27" y="49.22" width="7.35" height="7.35" rx="0.25" ry="0.25"/><rect class="cls-1" x="142.63" y="49.22" width="7.35" height="7.35" rx="0.25" ry="0.25"/><rect class="cls-1" x="119.92" y="63.11" width="7.35" height="7.35" rx="0.25" ry="0.25"/><rect class="cls-1" x="131.27" y="63.11" width="7.35" height="7.35" rx="0.25" ry="0.25"/><rect class="cls-1" x="142.63" y="63.11" width="7.35" height="7.35" rx="0.25" ry="0.25"/><rect class="cls-2" x="113.25" y="11.5" width="43.4" height="66.93" rx="1" ry="1"/><rect class="cls-3" x="119.71" y="19.26" width="30.47" height="8.71" rx="1" ry="1"/></g></svg>