<svg id="ARTWORK" xmlns="http://www.w3.org/2000/svg" viewBox="0 0 200 90"><defs><style>.cls-1{fill:#1e5748;}.cls-2,.cls-3{fill:none;}.cls-3{stroke:#1e5748;stroke-linecap:round;stroke-miterlimit:10;stroke-width:3px;}</style></defs><title>RESL</title><path class="cls-1" d="M93.05,56.51h-.18V59h.19c.32,0,.4-.09.4-.38V57C93.46,56.63,93.45,56.51,93.05,56.51Z"/><path class="cls-1" d="M117.56,44.91H85.36V42.48a1.19,1.19,0,1,0-2.38,0v2.42H79.49a1.19,1.19,0,1,0,0,2.39H83V78.15a1.19,1.19,0,1,0,2.38,0V47.3h9.53v3.53h-6A1.19,1.19,0,0,0,87.71,52V67.49a1.19,1.19,0,0,0,1.19,1.18h26.19a1.19,1.19,0,0,0,1.18-1.18V52a1.19,1.19,0,0,0-1.18-1.19h-5.92V47.3h8.39a1.19,1.19,0,1,0,0-2.39Zm-22.07,13c0,1.07,0,1.61-.94,1.93.73.21.94.65.94,1.56v3.11h-2V61.25c0-.39-.09-.51-.47-.51h-.12v3.79h-2V55h2.31c2,0,2.33.28,2.33,2ZM97.3,47.3h9.46v3.53H97.3Zm3.37,9.21h-1.2v2h1.2v1.56h-1.2V63h1.2v1.56H97.46V55h3.22Zm6.62,8h-1.88l-1-4.69v4.69h-1.74V55h1.89l1,4.9V55h1.76ZM113.15,55v1.58h-1v8h-2v-8h-1V55Z"/><polygon class="cls-2" points="156.05 49.23 152.85 49.24 152.88 51.67 156.09 51.66 156.05 49.23"/><polygon class="cls-2" points="148.12 53.28 148.15 55.65 151.34 55.64 151.31 53.27 148.12 53.28"/><polygon class="cls-2" points="152.91 53.27 152.94 55.64 156.14 55.63 156.11 53.26 152.91 53.27"/><circle class="cls-2" cx="149.3" cy="68.81" r="1.2" transform="translate(-0.19 0.4) rotate(-0.15)"/><polygon class="cls-2" points="151.25 49.24 148.06 49.25 148.1 51.68 151.28 51.67 151.25 49.24"/><path class="cls-2" d="M152,38,134.1,55.89l.06,21,12.4,0,0-15.59a.8.8,0,0,1,.8-.8l9.6,0a.8.8,0,0,1,.8.8l0,15.59,12.4,0-.06-21.47Zm5.48,19a.8.8,0,0,1-.57.24l-9.59,0a.8.8,0,0,1-.8-.79l-.11-8a.8.8,0,0,1,.8-.81l9.59,0a.8.8,0,0,1,.8.79l.11,8A.8.8,0,0,1,157.52,57Z"/><path class="cls-1" d="M156.84,47.63l-9.59,0a.8.8,0,0,0-.8.81l.11,8a.8.8,0,0,0,.8.79l9.59,0a.8.8,0,0,0,.8-.81l-.11-8A.8.8,0,0,0,156.84,47.63Zm-8.78,1.62h3.19l0,2.43H148.1Zm.08,6.4,0-2.37h3.19l0,2.37Zm4.7-6.41h3.2l0,2.43h-3.2Zm.08,6.4,0-2.37h3.2l0,2.37Z"/><path class="cls-1" d="M172.48,56.38h5.17l-5.19-5.14v-.06l0-14.4a1.2,1.2,0,0,0-1.2-1.2h-3.6a1.2,1.2,0,0,0-1.2,1.2l0,8.48-12.09-12c-1.69-1.68-3.09-1.71-4.74,0l-23,23.12,5.06,0,.06,20.49h0v2.4H133l38.38-.1h1.19V74ZM149.3,70a1.2,1.2,0,1,1,1.2-1.2A1.2,1.2,0,0,1,149.3,70Zm8.44,6.77,0-15.59a.8.8,0,0,0-.8-.8l-9.6,0a.8.8,0,0,0-.8.8l0,15.59-12.4,0-.06-21L152,38l18,17.27.06,21.47Z"/><path class="cls-1" d="M68.69,77.39V12.54a2.2,2.2,0,0,0-2.21-2.21H28.8a2.2,2.2,0,0,0-2.21,2.21V77.39A2.2,2.2,0,0,0,28.8,79.6H66.48A2.2,2.2,0,0,0,68.69,77.39ZM29.91,76.28V13.64H65.37V76.28Z"/><rect class="cls-1" x="35.84" y="19.08" width="9.14" height="12.8"/><rect class="cls-1" x="50.47" y="19.08" width="9.14" height="12.8"/><rect class="cls-1" x="35.84" y="37.16" width="9.14" height="12.8"/><rect class="cls-1" x="50.47" y="37.16" width="9.14" height="12.8"/><rect class="cls-1" x="35.84" y="55.24" width="9.14" height="12.8"/><rect class="cls-1" x="50.47" y="55.24" width="9.14" height="12.8"/><line class="cls-3" x1="17.33" y1="78.35" x2="181.82" y2="78.35"/></svg>