<svg id="ARTWORK" xmlns="http://www.w3.org/2000/svg" viewBox="0 0 200 90"><defs><style>.cls-1{fill:#1e5748;}</style></defs><title>netWorthCalculator</title><path class="cls-1" d="M48.62,29.73a30.66,30.66,0,0,0,.47,5.34A28.44,28.44,0,0,0,50,38.68q.28.89.63,1.75a21.36,21.36,0,0,0,1.65,3.3,16.11,16.11,0,0,0,3.55,4.09,13.52,13.52,0,0,0,3.13,1.9,14.86,14.86,0,0,0,6,1.17c11.53,0,16.27-12,16.27-21.16S77.66,11.2,64.9,11.2C52.59,11.2,48.62,20.61,48.62,29.73Z"/><path class="cls-1" d="M95.7,62.92,79.47,57.51a36.38,36.38,0,0,0-9-1.8H59.62a37,37,0,0,0-9,1.8L34.37,62.92c-2.88,1-3.42,2.95-3.52,5.07,0,.71,0,1.43,0,2.15v3.61a5.11,5.11,0,0,0,5.33,5.41H93.9a5.17,5.17,0,0,0,5.41-5.41V70.13C99.31,67.26,99.23,64.12,95.7,62.92Z"/><path class="cls-1" d="M112.7,43.76h0a13.46,13.46,0,0,0-13.42-13.1h0a13.46,13.46,0,1,0,13.49,13.46A.9.9,0,0,0,112.7,43.76Zm-9.21,4.9-.37.37a5.3,5.3,0,0,1-2.78,1v.74a1,1,0,0,1-.92.93h-.09a1,1,0,0,1-.93-.92v-.74a6.66,6.66,0,0,1-4-1.83,1.35,1.35,0,0,1,0-1.95,2,2,0,0,1,2,0,3.53,3.53,0,0,0,2.88,1.09,2.88,2.88,0,0,0,1.95-.57,1.21,1.21,0,0,0,.55-1.12c0-.28,0-.46-.47-.83a2.24,2.24,0,0,0-1.49-.55l-1.67-.27A4.93,4.93,0,0,1,95.84,43a3.17,3.17,0,0,1-1-2.5,3.81,3.81,0,0,1,3.59-3.92v-.93a1,1,0,0,1,.92-.93,1,1,0,0,1,.93.92v1a5.87,5.87,0,0,1,2.89,1.28,1.49,1.49,0,0,1,.47,1,1.4,1.4,0,0,1-.36,1,1.49,1.49,0,0,1-1,.47,1.19,1.19,0,0,1-.93-.36A3.47,3.47,0,0,0,99,39.32a1.23,1.23,0,0,0-1.29,1.12c0,.56.56.74,1,.83l1.58.27a5.14,5.14,0,0,1,2.89,1.19,3.61,3.61,0,0,1,1.5,3A4.29,4.29,0,0,1,103.49,48.66Z"/><rect class="cls-1" x="129.43" y="35.33" width="7.35" height="7.35" rx="0.25" ry="0.25"/><rect class="cls-1" x="140.48" y="35.33" width="7.35" height="7.35" rx="0.25" ry="0.25"/><rect class="cls-1" x="151.83" y="35.33" width="7.35" height="7.35" rx="0.25" ry="0.25"/><rect class="cls-1" x="129.12" y="49.08" width="7.35" height="7.35" rx="0.25" ry="0.25"/><rect class="cls-1" x="140.48" y="49.08" width="7.35" height="7.35" rx="0.25" ry="0.25"/><rect class="cls-1" x="151.83" y="49.08" width="7.35" height="7.35" rx="0.25" ry="0.25"/><rect class="cls-1" x="129.12" y="62.97" width="7.35" height="7.35" rx="0.25" ry="0.25"/><rect class="cls-1" x="140.48" y="62.97" width="7.35" height="7.35" rx="0.25" ry="0.25"/><rect class="cls-1" x="151.83" y="62.97" width="7.35" height="7.35" rx="0.25" ry="0.25"/><path class="cls-1" d="M164.85,79.79h-41.4a2.5,2.5,0,0,1-2.5-2.5V12.36a2.5,2.5,0,0,1,2.5-2.5h41.4a2.5,2.5,0,0,1,2.5,2.5V77.29A2.5,2.5,0,0,1,164.85,79.79Zm-40.9-3h40.4V12.86h-40.4Z"/><path class="cls-1" d="M158.39,28.82H129.91a2,2,0,0,1-2-2V20.12a2,2,0,0,1,2-2h28.47a2,2,0,0,1,2,2v6.71A2,2,0,0,1,158.39,28.82Zm0-2v0Zm-28.47-6.71v6.71h28.47V20.12Z"/></svg>