<svg xmlns="http://www.w3.org/2000/svg" viewBox="0 0 200 90"><defs><style>.cls-1{fill:#1e5748;}</style></defs><title>noAdditionalCosts</title><g id="ARTWORK"><path class="cls-1" d="M73.84,37.73a16.91,16.91,0,0,0,7.57-1.53c-2.9-2.9-4.07-4-6-6-.5,0-1,0-1.55,0-5.21,0-9.44,1.7-9.44,3.79S68.63,37.73,73.84,37.73Z"/><path class="cls-1" d="M76.43,60.24a23,23,0,0,1-2.56.14c-.65,0-1.28,0-1.89-.07V56.53c.61,0,1.24.07,1.89.07a17,17,0,0,0,7.55-1.52C80,56.5,79.18,57.49,76.43,60.24Z"/><path class="cls-1" d="M83.28,41.49v3.78c0,2.09-4.22,3.78-9.44,3.79-.65,0-1.28,0-1.89-.07v-3.7s0-.05,0-.08c.61,0,1.25.08,1.9.07C79.06,45.27,83.29,43.58,83.28,41.49Z"/><path class="cls-1" d="M83.28,38.07V39.6c0,2.09-4.22,3.78-9.44,3.79a22.85,22.85,0,0,1-2.66-.15C70,41.71,67.54,40.51,64.44,40a1.56,1.56,0,0,1,0-.34V35.85c0,2.09,4.23,3.77,9.44,3.77,3.9,0,7.24-1,8.68-2.3Z"/><path class="cls-1" d="M83.29,47.16v3.78c0,2.09-4.22,3.78-9.44,3.79-.65,0-1.28,0-1.89-.07V50.87c.61,0,1.24.07,1.89.07C79.07,50.94,83.29,49.24,83.29,47.16Z"/><ellipse class="cls-1" cx="60.63" cy="45.29" rx="9.44" ry="3.78" transform="translate(-0.05 0.06) rotate(-0.06)"/><path class="cls-1" d="M70.07,47.17v3.78c0,2.09-4.22,3.78-9.44,3.79S51.2,53.05,51.2,51V47.19c0,2.09,4.23,3.77,9.44,3.77S70.08,49.25,70.07,47.17Z"/><path class="cls-1" d="M70.08,52.83v3.78c0,2.09-4.22,3.78-9.44,3.79s-9.44-1.68-9.44-3.77V52.85c0,2.09,4.23,3.77,9.44,3.77S70.08,54.92,70.08,52.83Z"/><path class="cls-1" d="M70.09,58.5v3.78c0,2.09-4.22,3.78-9.44,3.79s-9.44-1.68-9.44-3.77V58.52c0,2.09,4.23,3.77,9.44,3.77S70.09,60.58,70.09,58.5Z"/><path class="cls-1" d="M117.62,58.5a.71.71,0,0,0,.11-.39v-.56a4.22,4.22,0,0,0,2.11-.79,2.87,2.87,0,0,0,.31-.27,3.24,3.24,0,0,0,.92-2.34,2.84,2.84,0,0,0-1.12-2.28,3.92,3.92,0,0,0-2.22-.93l-1.21-.2c-.37-.06-.81-.21-.81-.64a.91.91,0,0,1,1-.84,2.71,2.71,0,0,1,1.8.55,1.05,1.05,0,0,0,.71.28,1.12,1.12,0,0,0,.8-.35,1.06,1.06,0,0,0,.28-.77,1.08,1.08,0,0,0-.35-.75,4.42,4.42,0,0,0-2.17-1v-.79a.68.68,0,0,0-.19-.49.7.7,0,0,0-.51-.21.71.71,0,0,0-.7.7v.71a2.88,2.88,0,0,0-2.78,3,2.4,2.4,0,0,0,.81,1.92,3.79,3.79,0,0,0,1.8.84l1.23.2a2,2,0,0,1,1.16.43c.35.3.38.45.38.66a1.07,1.07,0,0,1-.4.91,2.47,2.47,0,0,1-1.51.39,2.69,2.69,0,0,1-2.19-.82,1.08,1.08,0,0,0-1.24-.2"/><path class="cls-1" d="M106.47,61.26H98.28V53l-.37-.29c-.85.85-2.23,2.35-2.23,2.35v6.18a2.6,2.6,0,0,0,2.6,2.6h10.8Z"/><path class="cls-1" d="M145,30.95H119.52c-.65.65-1.55,1.68-2.48,2.62l28,0L145,49.55h-2.42V38.73a2.67,2.67,0,0,0-2.66-2.66H114.53l-2.58,2.62,28,0-.06,17.47H137.7V43.84a2.6,2.6,0,0,0-2.6-2.6H109.4l-2.61,2.6H135.1V61.26H120.43l2.58,2.6H135.1a2.6,2.6,0,0,0,2.6-2.6V58.81h2.18a2.67,2.67,0,0,0,2.66-2.67v-4H145a2.67,2.67,0,0,0,2.66-2.67V33.61A2.67,2.67,0,0,0,145,30.95Z"/><path class="cls-1" d="M100.51,45.12l31.21-31.56a2.08,2.08,0,0,0,0-2.94,2.24,2.24,0,0,0-1.48-.6,2.06,2.06,0,0,0-1.47.62L97.59,42.17,66.86,11.09a2.06,2.06,0,0,0-1.47-.62,2.24,2.24,0,0,0-1.48.6,2.08,2.08,0,0,0,0,2.94L94.66,45.12,63.9,76.24a2.08,2.08,0,1,0,3,2.92L97.59,48.08l30.72,31.08a2.08,2.08,0,1,0,3-2.92Z"/></g></svg>