<svg xmlns="http://www.w3.org/2000/svg" viewBox="0 0 200 90"><defs><style>.cls-1{fill:#1e5748;}.cls-2{fill:none;stroke:#1e5748;stroke-linejoin:round;stroke-width:3px;}</style></defs><title>noAnnualMaximum</title><g id="ARTWORK"><path class="cls-1" d="M176.83,22.56H169v3.29a2.82,2.82,0,1,1-4.06,0V22.56H136.57v3.29a2.82,2.82,0,1,1-4.06,0V22.56h-8a4,4,0,0,0-4,4V69.28a4,4,0,0,0,4,4h52.36a4,4,0,0,0,4-4V26.59A4,4,0,0,0,176.83,22.56Zm.81,45.91A1.62,1.62,0,0,1,176,70.08H125.28a1.62,1.62,0,0,1-1.61-1.61V33.83h54Z"/><rect class="cls-1" x="165.72" y="17.02" width="2.45" height="11.89" rx="1.07" ry="1.07"/><rect class="cls-1" x="133.32" y="17.02" width="2.45" height="11.89" rx="1.07" ry="1.07"/><path class="cls-1" d="M128.83,66.44h10.82a.83.83,0,0,0,.83-.83v-10a.83.83,0,0,0-.83-.83H128.83a.83.83,0,0,0-.83.83v10A.83.83,0,0,0,128.83,66.44Zm0-10.82h10.82v10H128.83Z"/><path class="cls-1" d="M145.47,66.44h10.82a.83.83,0,0,0,.83-.83v-10a.83.83,0,0,0-.83-.83H145.47a.83.83,0,0,0-.83.83v10A.83.83,0,0,0,145.47,66.44Zm0-10.82h10.82v10H145.47Z"/><path class="cls-1" d="M128.83,50.63h10.82a.83.83,0,0,0,.83-.83v-10a.83.83,0,0,0-.83-.83H128.83a.83.83,0,0,0-.83.83v10A.83.83,0,0,0,128.83,50.63Zm0-10.82h10.82v10H128.83Z"/><path class="cls-1" d="M145.47,50.63h10.82a.83.83,0,0,0,.83-.83v-10a.83.83,0,0,0-.83-.83H145.47a.83.83,0,0,0-.83.83v10A.83.83,0,0,0,145.47,50.63Zm0-10.82h10.82v10H145.47Z"/><path class="cls-1" d="M162.11,50.63h10.82a.83.83,0,0,0,.83-.83v-10a.83.83,0,0,0-.83-.83H162.11a.83.83,0,0,0-.83.83v10A.83.83,0,0,0,162.11,50.63Zm0-10.82h10.82v10H162.11Z"/><path class="cls-1" d="M162.11,66.44h10.82a.83.83,0,0,0,.83-.83v-10a.83.83,0,0,0-.83-.83H162.11a.83.83,0,0,0-.83.83v10A.83.83,0,0,0,162.11,66.44Zm0-10.82h10.82v10H162.11Z"/><path class="cls-1" d="M114.61,45.66l-3-5.49a1.38,1.38,0,0,0-2.42,1.31l1.12,2.06a19.9,19.9,0,0,0-16.26,1.14,1.38,1.38,0,0,0,1.39,2.38,17,17,0,0,1,14.79-.56l-3.19,1.79a1.38,1.38,0,1,0,1.35,2.4l5.67-3.18A1.38,1.38,0,0,0,114.61,45.66Z"/><path class="cls-2" d="M38.44,37.11v-4.3a1.47,1.47,0,0,1,1.47-1.47H79.57A1.47,1.47,0,0,1,81,32.81v20a1.47,1.47,0,0,1-1.47,1.47H75.94"/><path class="cls-2" d="M43.48,31.3V27a1.47,1.47,0,0,1,1.47-1.47H84.6A1.47,1.47,0,0,1,86.07,27V47a1.47,1.47,0,0,1-1.47,1.47H81"/><path class="cls-1" d="M57,48.68a4.15,4.15,0,0,0-2.36-1l-1.29-.21c-.39-.06-.86-.22-.86-.68a1,1,0,0,1,1-.89,2.87,2.87,0,0,1,1.9.59,1.12,1.12,0,0,0,.76.29,1.18,1.18,0,0,0,.85-.37,1.12,1.12,0,0,0,.29-.81,1.14,1.14,0,0,0-.37-.8,4.68,4.68,0,0,0-2.3-1.07V42.9a.72.72,0,0,0-.2-.52.74.74,0,0,0-.54-.22.76.76,0,0,0-.74.74v.75a3.05,3.05,0,0,0-2.95,3.16,2.55,2.55,0,0,0,.86,2,4,4,0,0,0,1.9.89l1.3.21a2.13,2.13,0,0,1,1.23.46c.37.31.4.48.4.7a1.13,1.13,0,0,1-.42,1,2.62,2.62,0,0,1-1.6.42,2.85,2.85,0,0,1-2.32-.87A1.14,1.14,0,0,0,50,53.23a4.88,4.88,0,0,0,3.2,1.5v.6a.73.73,0,0,0,.72.72h0a.73.73,0,0,0,.72-.74V54.7a4.47,4.47,0,0,0,2.23-.84,3,3,0,0,0,.33-.29,3.43,3.43,0,0,0,1-2.49A3,3,0,0,0,57,48.68Z"/><path class="cls-1" d="M38.25,57.8H38a3.18,3.18,0,0,0-2.34,1l-2,2.18,2,2.18a3.27,3.27,0,0,0,2.34,1h.22a3.19,3.19,0,1,0,0-6.37Z"/><path class="cls-1" d="M26.38,57.8h-.22a3.19,3.19,0,1,0,0,6.37h.22a3.18,3.18,0,0,0,2.34-1l2-2.18-2-2.18A3.27,3.27,0,0,0,26.38,57.8Z"/><path class="cls-1" d="M32.09,46.11A14.72,14.72,0,1,0,46.81,60.83,14.71,14.71,0,0,0,32.09,46.11Zm6,19.59h-.26a4.74,4.74,0,0,1-3.45-1.49l-2.29-2.47-2.29,2.47a4.74,4.74,0,0,1-3.45,1.49h-.26a4.71,4.71,0,1,1,0-9.43h.26a4.74,4.74,0,0,1,3.45,1.49l2.29,2.47,2.29-2.47a4.74,4.74,0,0,1,3.45-1.49h.26a4.71,4.71,0,1,1,0,9.43Z"/><path class="cls-2" d="M49.39,60.83H73.76a1.47,1.47,0,0,0,1.47-1.47v-20a1.47,1.47,0,0,0-1.47-1.47H34.1a1.47,1.47,0,0,0-1.47,1.47v4.2"/></g></svg>