<svg xmlns="http://www.w3.org/2000/svg" viewBox="0 0 200 90"><defs><style>.cls-1{fill:#1e5748;}</style></defs><title>noFees</title><g id="ARTWORK"><path class="cls-1" d="M77.28,34h9.52v4.32H82.9v4.1h3.47v4.11H82.9v9.08H77.28Z"/><path class="cls-1" d="M117.55,41.82A4.24,4.24,0,0,1,116,40.5a3.55,3.55,0,0,1-.29-1.63,2.41,2.41,0,0,1,.26-1.26.85.85,0,0,1,.77-.41.74.74,0,0,1,.67.31,3.15,3.15,0,0,1,.2,1.43v1.6h5.22v-.85a9.44,9.44,0,0,0-.5-3.65,3.91,3.91,0,0,0-2-1.78,8.13,8.13,0,0,0-2.73-.67l-7,7.1a6.43,6.43,0,0,0,.39,1.77A4.72,4.72,0,0,0,112,44.18a25.89,25.89,0,0,0,2.78,2,16.61,16.61,0,0,1,2.63,2,4,4,0,0,1,.52,2.5,2.51,2.51,0,0,1-.27,1.31.91.91,0,0,1-.83.44.85.85,0,0,1-.78-.35,3.47,3.47,0,0,1-.22-1.56V47.87h-5.22v1.41a11.14,11.14,0,0,0,.49,3.75,4.19,4.19,0,0,0,2.09,2.18,8.06,8.06,0,0,0,3.85.85,8.28,8.28,0,0,0,3.6-.74,4.23,4.23,0,0,0,2.09-1.84,8.07,8.07,0,0,0,.54-3.4,8.38,8.38,0,0,0-1-4.61Q121.3,44,117.55,41.82Z"/><polygon class="cls-1" points="74.28 75.25 71.53 72.5 127.38 16.23 130.13 18.98 74.28 75.25"/><polygon class="cls-1" points="93.78 48.09 93.78 46.53 95.32 46.53 97.29 44.55 97.29 42.42 93.78 42.42 93.78 38.32 97.53 38.32 97.53 34 88.16 34 88.16 53.75 93.78 48.09"/><polygon class="cls-1" points="95.65 55.61 97.9 55.61 97.9 53.34 95.65 55.61"/><path class="cls-1" d="M76,66a32,32,0,0,1,44.92-45.26L123,18.64A35,35,0,0,0,73.84,68.17Z"/><path class="cls-1" d="M127.56,23.46l-2.13,2.14a32,32,0,0,1-44.62,45L78.68,72.7a35,35,0,0,0,48.88-49.24Z"/><polygon class="cls-1" points="107.76 34 99.52 34 99.52 42.3 107.76 34"/><polygon class="cls-1" points="105.13 46.53 108.64 46.53 108.64 42.51 99.52 51.71 99.52 55.61 109.26 55.61 109.26 51.28 105.13 51.28 105.13 46.53"/></g></svg>