<svg xmlns="http://www.w3.org/2000/svg" viewBox="0 0 200 90"><defs><style>.cls-1{fill:#1e5748;}.cls-2{fill:none;stroke:#1e5748;stroke-miterlimit:10;}</style></defs><title>TDpublic_illustrations_200x90_01_Accounts</title><g id="ARTWORK"><g id="Layer_23" data-name="Layer 23"><path class="cls-1" d="M112.85,73c-1,0-2.13.88-3.27,1-2,.25-6.94.18-9.73.19s-7.69.06-9.73-.19c-1.14-.14-2.28-1-3.27-1-11.51,0-31.49,0-43,0v2a4.68,4.68,0,0,0,5,5h102a4.68,4.68,0,0,0,5-5V73C144.33,73,124.36,73,112.85,73Z"/><path class="cls-1" d="M54.83,71h90s0-35.78,0-51.73c0-3.26-2.1-5.26-5.44-5.26-23.8,0-55.77,0-79.56,0-2.57,0-5.17,1.38-5.13,5C54.86,34.79,54.83,71,54.83,71Zm4-52.75a1.7,1.7,0,0,1,1-.24h79.56c1.37,0,1.44.46,1.44,1.27,0,12.47,0,38.48,0,47.72h-82c0-9.34,0-35.66-.12-48.06A1.29,1.29,0,0,1,58.83,18.25Z"/><path class="cls-1" d="M132.28,33.78h-41a.8.8,0,1,1,0-1.6h41a.8.8,0,1,1,0,1.6Z"/><path class="cls-1" d="M132.28,41.16h-41a.8.8,0,1,1,0-1.6h41a.8.8,0,1,1,0,1.6Z"/><path class="cls-1" d="M132.35,48.54h-65a.8.8,0,1,1,0-1.6h65a.8.8,0,0,1,0,1.6Z"/><path class="cls-2" d="M132.32,55.43h-65a.3.3,0,0,1,0-.6h65a.3.3,0,1,1,0,.6Z"/><line class="cls-2" x1="67.34" y1="55.13" x2="104.77" y2="55.13"/><path class="cls-1" d="M77.13,43.43a9.49,9.49,0,1,0-9.49-9.49,9.47,9.47,0,0,0,9.49,9.49Zm-3.5-6.86a1,1,0,0,1,1.35,0,2.38,2.38,0,0,0,2.15.81c1.08,0,1.88-.54,1.88-1.28,0-1.08-1.55-1.28-2.69-1.28a2.6,2.6,0,0,1-2.49-2.62,2.7,2.7,0,0,1,2.62-2.76h.07V28.7a.61.61,0,1,1,1.21,0v.81a4.89,4.89,0,0,1,2.09.94.9.9,0,0,1,0,1.35,1,1,0,0,1-1.35,0,2.37,2.37,0,0,0-1.75-.54,1,1,0,0,0-.94.87c0,.87,2,.87,2,.87A3.26,3.26,0,0,1,81,36.17,3.36,3.36,0,0,1,77.8,39.4V40a.6.6,0,0,1-.61.61h0a.6.6,0,0,1-.61-.61v-.74a4.33,4.33,0,0,1-2.89-1.35.85.85,0,0,1-.07-1.35Z"/></g></g></svg>