<svg xmlns="http://www.w3.org/2000/svg" viewBox="0 0 200 90"><defs><style>.cls-1{fill:#1e5748;}</style></defs><title>onlineInvesting</title><g id="ARTWORK"><path class="cls-1" d="M113.65,73.54c-1,0-2.14.89-3.29,1-2.05.25-7,.18-9.78.19s-7.73.06-9.78-.19c-1.14-.14-2.3-1-3.29-1-11.57,0-31.64,0-43.22,0v2a4.7,4.7,0,0,0,5,5H151.84a4.7,4.7,0,0,0,5-5v-2C145.3,73.55,125.22,73.56,113.65,73.54Z"/><polygon class="cls-1" points="85.97 60.75 91.75 60.75 91.75 44.3 85.97 48.68 85.97 60.75"/><polygon class="cls-1" points="97.59 60.75 103.4 60.77 103.4 45.19 97.59 43.45 97.59 60.75"/><path class="cls-1" d="M117.58,27.34h-6.39a1.35,1.35,0,0,0,.38,2.67h2.78l-9.17,9.15-11-3.66a1.3,1.3,0,0,0-1.48.13L80.65,45l-.17.13a1.34,1.34,0,0,0,1.8,2l11.47-8.92,11.07,3.68a1.5,1.5,0,0,0,1.65-.21l9.76-9.76v2.8s0,0,0,0a1.34,1.34,0,0,0,2.67,0v-6A1.34,1.34,0,0,0,117.58,27.34Z"/><polygon class="cls-1" points="109.27 60.75 115.06 60.71 115.06 38.07 109.27 43.86 109.27 60.75"/><polygon class="cls-1" points="144.12 46.35 153.45 56.12 156.11 53.35 146.79 43.65 150.79 39.49 134.8 33.95 140.13 50.58 144.12 46.35"/><path class="cls-1" d="M141.81,53.37c0,5.26,0,11.23,0,14.14H59.36c0-9.38,0-35.84-.12-48.31a1.29,1.29,0,0,1,.12-.69,1.71,1.71,0,0,1,1-.24h80c1.38,0,1.44.46,1.44,1.27,0,3.51,0,11.17,0,14.24l4,1.3c0-3,0-11.84,0-15.54,0-3.27-2.11-5.29-5.46-5.29-23.92,0-56.05,0-80,0-2.58,0-5.19,1.39-5.16,5,.14,15.9.11,52.29.11,52.29h90.48s0-8.9,0-18.36L143.91,51Z"/></g></svg>