<svg xmlns="http://www.w3.org/2000/svg" viewBox="0 0 200 90"><defs><style>.cls-1{fill:#1e5748;}.cls-2{fill:none;stroke:#1e5748;stroke-miterlimit:10;stroke-width:4px;}</style></defs><title>openLaterLonger</title><g id="TITLES"><path class="cls-1" d="M156.53,37.31a1.6,1.6,0,0,0-1.72-.3,15.29,15.29,0,0,1-7.08,1.72,15.5,15.5,0,0,1-15.51-15.51,15.75,15.75,0,0,1,1.72-7.08,1.47,1.47,0,0,0-.3-1.72,1.6,1.6,0,0,0-1.72-.3,18.75,18.75,0,0,0-10,16.55A18.41,18.41,0,0,0,156.75,39,1.35,1.35,0,0,0,156.53,37.31Z"/><path class="cls-1" d="M96.88,23.11a2.34,2.34,0,1,0-2.34-2.34A2.34,2.34,0,0,0,96.88,23.11Zm0,48.37a2.34,2.34,0,1,0-2.34-2.34A2.34,2.34,0,0,0,96.88,71.49ZM118.59,45a2.34,2.34,0,1,0,2.34-2.34A2.34,2.34,0,0,0,118.59,45ZM70.21,45a2.34,2.34,0,1,0,2.34-2.34A2.34,2.34,0,0,0,70.21,45ZM86,26a2.34,2.34,0,1,0-3.2-.86A2.34,2.34,0,0,0,86,26Zm24.19,41.89a2.34,2.34,0,1,0-3.2-.86A2.34,2.34,0,0,0,110.15,67.93ZM77.83,34a2.34,2.34,0,1,0-3.2.86A2.34,2.34,0,0,0,77.83,34Zm41.89,24.19a2.34,2.34,0,1,0-3.2.86A2.34,2.34,0,0,0,119.72,58.22Zm-8.71-33a2.34,2.34,0,1,0-3.2.86A2.34,2.34,0,0,0,111,25.18ZM86.82,67.07a2.34,2.34,0,1,0-3.2.86A2.34,2.34,0,0,0,86.82,67.07Zm32-32.18a2.34,2.34,0,1,0-3.2-.86A2.34,2.34,0,0,0,118.86,34.89ZM77,59.08a2.34,2.34,0,1,0-3.2-.86A2.34,2.34,0,0,0,77,59.08Zm34-7.42-12.1-7.3L106.84,33A1.73,1.73,0,1,0,104,31L95,43.89l0,.05,0,0a1.64,1.64,0,0,0-.1.28,1.73,1.73,0,0,0-.11.32,1.67,1.67,0,0,0,0,.34,1,1,0,0,0,.14.63,1.67,1.67,0,0,0,.14.3,1.73,1.73,0,0,0,.24.25,1.63,1.63,0,0,0,.19.2l.06,0,0,0,13.69,8.26a1.73,1.73,0,0,0,1.79-3Z"/><circle class="cls-2" cx="96.74" cy="44.96" r="32.93"/></g></svg>