<svg xmlns="http://www.w3.org/2000/svg" viewBox="0 0 200 90"><defs><style>.cls-1,.cls-2,.cls-3,.cls-5,.cls-6{fill:none;stroke:#1e5748;}.cls-1,.cls-5{stroke-linecap:round;stroke-linejoin:round;}.cls-1{stroke-width:4px;}.cls-2,.cls-3,.cls-6{stroke-miterlimit:10;}.cls-2{stroke-width:3px;}.cls-3,.cls-5{stroke-width:2px;}.cls-4{fill:#1e5748;}</style></defs><title>TDpublic_illustrations_200x90_02_CreditCards</title><g id="ARTWORK"><rect class="cls-1" x="118.09" y="46.83" width="54" height="31"/><line class="cls-2" x1="172.26" y1="54.83" x2="118.38" y2="54.83"/><line class="cls-2" x1="172.17" y1="62.22" x2="118.29" y2="62.22"/><line class="cls-2" x1="171.98" y1="69.62" x2="118.09" y2="69.62"/><rect class="cls-1" x="27.09" y="39.94" width="27" height="37.89"/><path class="cls-3" d="M33.13,40.11V34.83a7.75,7.75,0,0,1,7.48-8,7.75,7.75,0,0,1,7.48,8v5.45"/><circle class="cls-4" cx="33.42" cy="44.71" r="1.32"/><circle class="cls-4" cx="40.61" cy="44.71" r="1.32"/><circle class="cls-4" cx="47.79" cy="44.71" r="1.32"/><circle class="cls-4" cx="33.42" cy="55.81" r="1.32"/><circle class="cls-4" cx="40.61" cy="55.81" r="1.32"/><circle class="cls-4" cx="47.79" cy="55.81" r="1.32"/><circle class="cls-4" cx="33.42" cy="66.9" r="1.32"/><circle class="cls-4" cx="40.61" cy="66.9" r="1.32"/><circle class="cls-4" cx="47.79" cy="66.9" r="1.32"/><circle class="cls-4" cx="37.04" cy="50.26" r="1.32"/><circle class="cls-4" cx="44.17" cy="50.26" r="1.32"/><circle class="cls-4" cx="29.41" cy="50.26" r="1.32"/><circle class="cls-4" cx="51.94" cy="50.26" r="1.32"/><circle class="cls-4" cx="37.04" cy="61.36" r="1.32"/><circle class="cls-4" cx="44.17" cy="61.36" r="1.32"/><circle class="cls-4" cx="29.41" cy="61.36" r="1.32"/><circle class="cls-4" cx="51.94" cy="61.36" r="1.32"/><circle class="cls-4" cx="37.04" cy="72.45" r="1.32"/><circle class="cls-4" cx="44.17" cy="72.45" r="1.32"/><circle class="cls-4" cx="29.41" cy="72.45" r="1.32"/><circle class="cls-4" cx="51.94" cy="72.45" r="1.32"/><path class="cls-5" d="M133.09,46.83v-6a12,12,0,0,1,24,0v6"/><circle class="cls-4" cx="76.27" cy="41.7" r="2.5" transform="translate(-7.15 66.14) rotate(-45)"/><rect class="cls-1" x="64.27" y="29.9" width="44" height="48"/><circle class="cls-4" cx="96.27" cy="41.7" r="2.5" transform="translate(-1.29 80.28) rotate(-45)"/><line class="cls-6" x1="64.58" y1="35.9" x2="108.27" y2="35.9"/><line class="cls-6" x1="65.27" y1="71.9" x2="108.39" y2="71.9"/><path class="cls-5" d="M76.27,40.9v-16a10,10,0,1,1,20,0v16"/></g></svg>