<svg xmlns="http://www.w3.org/2000/svg" viewBox="0 0 200 90"><defs><style>.cls-1{fill:#1e5748;}.cls-2,.cls-3{fill:none;stroke-width:3px;}.cls-2{stroke:#1e5748;}.cls-2,.cls-3,.cls-4{stroke-linejoin:round;}.cls-3,.cls-4{stroke:#1e5748;}.cls-4{fill:#1e5748;stroke-width:2px;}</style></defs><title>TDpublic_illustrations_200x90_01_Accounts</title><g id="ARTWORK"><path class="cls-1" d="M100.35,36v30.8H38V36h62.35m1-3H37a2,2,0,0,0-2,2v32.8a2,2,0,0,0,2,2h64.35a2,2,0,0,0,2-2V35a2,2,0,0,0-2-2Z"/><path class="cls-1" d="M100.35,36.21V67H38V36.21h62.35m1-3H37a2,2,0,0,0-2,2V68a2,2,0,0,0,2,2h64.35a2,2,0,0,0,2-2V35.21a2,2,0,0,0-2-2Z"/><path class="cls-2" d="M45.79,33.86V27.37A2.22,2.22,0,0,1,48,25.16h59.87a2.22,2.22,0,0,1,2.22,2.22V57.57a2.22,2.22,0,0,1-2.22,2.22H102.4"/><path class="cls-2" d="M53.39,25.09V18.61a2.22,2.22,0,0,1,2.22-2.22h59.87a2.22,2.22,0,0,1,2.22,2.22V48.8A2.22,2.22,0,0,1,115.49,51H110"/><path class="cls-1" d="M73.83,50.81a6.27,6.27,0,0,0-3.56-1.48L68.33,49c-.59-.09-1.3-.34-1.3-1a1.46,1.46,0,0,1,1.55-1.35,4.33,4.33,0,0,1,2.87.89A1.68,1.68,0,0,0,72.6,48a1.79,1.79,0,0,0,1.28-.56,1.69,1.69,0,0,0,.44-1.23,1.72,1.72,0,0,0-.56-1.2,7.07,7.07,0,0,0-3.48-1.62V42.09A1.09,1.09,0,0,0,70,41.3a1.12,1.12,0,0,0-.81-.34,1.14,1.14,0,0,0-1.12,1.12v1.14A4.61,4.61,0,0,0,63.61,48a3.85,3.85,0,0,0,1.3,3.07,6.06,6.06,0,0,0,2.88,1.35l2,.32a3.22,3.22,0,0,1,1.86.69c.56.47.6.72.6,1.06a1.7,1.7,0,0,1-.64,1.46,4,4,0,0,1-2.42.63,4.31,4.31,0,0,1-3.5-1.31,1.72,1.72,0,0,0-2.43,2.43,7.37,7.37,0,0,0,4.83,2.26v.9a1.11,1.11,0,0,0,1.09,1.08h.07a1.1,1.1,0,0,0,1.08-1.12v-.9a6.75,6.75,0,0,0,3.37-1.26,4.56,4.56,0,0,0,.5-.43,5.18,5.18,0,0,0,1.47-3.75A4.54,4.54,0,0,0,73.83,50.81Z"/><path class="cls-3" d="M146.53,36a21.49,21.49,0,0,1-18,6.45c0,26.63,8.7,31.22,18,36,9.06-4.73,18-9.41,18-36A21.07,21.07,0,0,1,146.53,36Z"/><path class="cls-4" d="M146.5,71.93c-6.53-3.42-11.59-7.3-12.25-24a22.87,22.87,0,0,0,12.27-4.65,22.52,22.52,0,0,0,12.28,4.61C158.09,64.43,152.83,68.52,146.5,71.93Z"/></g></svg>