<svg xmlns="http://www.w3.org/2000/svg" viewBox="0 0 200 90"><defs><style>.cls-1{fill:#1e5748;}.cls-2{fill:#7b7b7b;}</style></defs><title>personalizedAdvice</title><g id="ARTWORK"><path class="cls-1" d="M160.87,26.34l-5.66-8,0,0-.05-.07L154,16.56a1.41,1.41,0,0,0-.91-.58l-19.71-3.44a9.06,9.06,0,0,1-.54,2.77l17,3-1.16,6.66a3.11,3.11,0,0,0,2.53,3.59l6.69,1.17L151.8,64.4l-8.74-1.56c-.31.91-2.86,1.4-3.11,2.31l11.61,2.07a2.6,2.6,0,0,0,3-2.12L160.83,29a1.41,1.41,0,0,0,.07-.41l.21-1.19A1.41,1.41,0,0,0,160.87,26.34Z"/><line class="cls-2" x1="143.34" y1="47.85" x2="150.19" y2="49.1"/><path class="cls-1" d="M150.19,50.6l-.27,0-6.85-1.25a1.5,1.5,0,1,1,.54-3l6.85,1.25a1.5,1.5,0,0,1-.27,3Z"/><line class="cls-2" x1="143.48" y1="40.78" x2="151.4" y2="42.16"/><path class="cls-1" d="M151.4,43.66l-.26,0-7.92-1.38a1.5,1.5,0,1,1,.52-3l7.92,1.38a1.5,1.5,0,0,1-.26,3Z"/><line class="cls-2" x1="143.4" y1="54.97" x2="148.98" y2="56.04"/><path class="cls-1" d="M149,57.54l-.29,0-5.58-1.07a1.5,1.5,0,1,1,.57-2.95l5.58,1.07a1.5,1.5,0,0,1-.28,3Z"/><path class="cls-1" d="M144.25,19.59,136.65,12l0,0-.07-.06L135,10.34a1.54,1.54,0,0,0-1.09-.45h-28a2.84,2.84,0,0,0-2.82,2.85V57.12l3.08,1.08V13H130.8v7.4a3.4,3.4,0,0,0,3.4,3.39h7.42V62.31l-31-.12.18,3.08,31.11.12a2.84,2.84,0,0,0,2.82-2.85V22.46a1.54,1.54,0,0,0,0-.46V20.69A1.54,1.54,0,0,0,144.25,19.59Z"/><path class="cls-1" d="M111.65,44.81c4.31-1.13,9.39-3.67,12.43-7H121.4a.92.92,0,1,1,0-1.84h4.73a.93.93,0,0,1,.92.92v4.87a.92.92,0,0,1-1.84,0V39.17c-3.25,3.46-8.54,6.14-13.14,7.34a.81.81,0,0,1-1.06-.64.86.86,0,0,1,.64-1.06Z"/><polygon class="cls-1" points="113.49 55.34 113.49 50.11 118.78 50.11 118.78 55.34 121.82 55.34 121.82 47.57 127.12 47.57 127.12 55.34 130.15 55.34 130.15 41.28 135.45 41.28 135.45 55.27 137.88 55.27 137.88 57.03 111.02 57.03 111.02 55.27 113.49 55.27 113.49 55.34"/><path class="cls-1" d="M103.09,61.88l-16.6-6c-.55-.2-1.32-.44-2.18-.69L79.2,76.14,75.14,61.6l3.32-6a.61.61,0,0,0,0-.59.53.53,0,0,0-.47-.31H67.78a.53.53,0,0,0-.47.31.61.61,0,0,0,0,.59l3.32,6L66.61,75.85l-5.4-21.16A43.18,43.18,0,0,0,57,55.92l-16.6,6c-2.94,1.12-3.5,3.25-3.59,5.58,0,.78,0,1.58,0,2.37v4c0,3.54,2.21,6,5.45,6h59c3.24,0,5.53-2.42,5.53-6v-4C106.78,66.66,106.71,63.2,103.09,61.88Z"/><path class="cls-1" d="M73.38,53.51a14.28,14.28,0,0,0,12.44-7,24.71,24.71,0,0,0,3.62-13c0-11.3-5.85-17.78-16.06-17.78S57.31,22.32,57.31,33.46C57.31,43.11,62.34,53.51,73.38,53.51ZM77.93,20a10.14,10.14,0,0,1,6.76,6.56A19.82,19.82,0,0,1,76.89,22C77.47,21,77.82,20.22,77.93,20ZM61,33.46c0-12.29,7.77-14.12,12.41-14.12a17,17,0,0,1,2.72.23C75,21.75,69.48,32.31,61,33.78,61,33.67,61,33.56,61,33.46Zm15-9.8a22.27,22.27,0,0,0,9.35,5,23,23,0,0,1,.48,4.83c0,6.59-3.3,16.39-12.4,16.39-8.71,0-11.74-8.15-12.3-14.23C68.22,34.52,73.32,27.95,75.95,23.65Z"/><path class="cls-1" d="M118.47,19.63a6.06,6.06,0,1,0,4.26,7.43A6,6,0,0,0,118.47,19.63Zm.41,8.52-.18.18a2.59,2.59,0,0,1-1.36.5v.36a.46.46,0,0,1-.45.45h0a.49.49,0,0,1-.45-.45v-.36a3.25,3.25,0,0,1-1.95-.91.66.66,0,0,1,0-1,1,1,0,0,1,1,0,1.72,1.72,0,0,0,1.4.54,1.4,1.4,0,0,0,1-.27.59.59,0,0,0,.27-.54c0-.14,0-.23-.23-.41a1.09,1.09,0,0,0-.72-.27l-.82-.14a2.41,2.41,0,0,1-1.13-.54,1.55,1.55,0,0,1-.5-1.22,1.86,1.86,0,0,1,1.77-1.9v-.45a.49.49,0,0,1,.45-.45.46.46,0,0,1,.45.45v.5a2.87,2.87,0,0,1,1.4.63.73.73,0,0,1,.23.5.68.68,0,0,1-.18.5.73.73,0,0,1-.5.23.58.58,0,0,1-.45-.18,1.7,1.7,0,0,0-1.13-.36.6.6,0,0,0-.63.54c0,.27.27.36.5.41l.77.14a2.51,2.51,0,0,1,1.4.59,1.76,1.76,0,0,1,.72,1.45A2.1,2.1,0,0,1,118.88,28.14Z"/></g></svg>