<svg id="ARTWORK" xmlns="http://www.w3.org/2000/svg" viewBox="0 0 200 90"><defs><style>.cls-1{fill:#1e5748;}</style></defs><title>personalLineOfCredit</title><path class="cls-1" d="M85,51A15.34,15.34,0,0,0,98.34,43.5a26.88,26.88,0,0,0,3.94-14.19c0-12.2-6.3-19.2-17.29-19.2-10.83,0-17.3,7.18-17.3,19.2C67.68,39.77,73.1,51,85,51Z"/><path class="cls-1" d="M108.64,72.47a3.89,3.89,0,0,1-3.88-3.88V58.43c-5.47-2-11.27-4-12.15-4.15s-14.5-.09-15.24,0c-1.72.21-22.28,7.87-22.28,7.87A6.76,6.76,0,0,0,51,68.09v7.1A4.84,4.84,0,0,0,55.84,80h58.28A4.84,4.84,0,0,0,119,75.19V72.47Z"/><path class="cls-1" d="M145.41,45H109.64a1.89,1.89,0,0,0-1.88,1.88V67.59a1.89,1.89,0,0,0,1.88,1.88h35.77a1.89,1.89,0,0,0,1.88-1.88V46.88A1.89,1.89,0,0,0,145.41,45Zm0,22.59H109.64V56.3h35.77Zm0-16H109.64V46.88h35.77Z"/></svg>