<svg xmlns="http://www.w3.org/2000/svg" viewBox="0 0 200 90"><defs><style>.cls-1{fill:#1e5748;}</style></defs><title>TDpublic_illustrations_200x90_00_General</title><g id="ARTWORK"><g id="Layer_24" data-name="Layer 24"><path class="cls-1" d="M102,10H78a9,9,0,0,0-9,9V71a9,9,0,0,0,9,9h24a9,9,0,0,0,9-9V19A9,9,0,0,0,102,10Zm6,61a6,6,0,0,1-6,6H78a6,6,0,0,1-6-6V19a6,6,0,0,1,6-6h24a6,6,0,0,1,6,6Z"/><rect class="cls-1" x="76" y="17" width="28" height="46" rx="1" ry="1"/><circle class="cls-1" cx="90" cy="70" r="3"/><path class="cls-1" d="M137.26,62.19,118.14,49.36a2,2,0,0,0-2.23,3.32L135,65.51a2,2,0,1,0,2.23-3.32Z"/><path class="cls-1" d="M117,38.85a2,2,0,0,0,1.11-.34l19.12-12.83A2,2,0,1,0,135,22.36L115.91,35.19A2,2,0,0,0,117,38.85Z"/><path class="cls-1" d="M140,42H117a2,2,0,0,0,0,4h23a2,2,0,0,0,0-4Z"/></g></g></svg>