<svg xmlns="http://www.w3.org/2000/svg" viewBox="0 0 200 90"><defs><style>.cls-1{fill:#1e5748;}</style></defs><title>phone</title><g id="ARTWORK"><g id="Layer_24" data-name="Layer 24"><path class="cls-1" d="M102,10H78a9,9,0,0,0-9,9V71a9,9,0,0,0,9,9h24a9,9,0,0,0,9-9V19A9,9,0,0,0,102,10Zm6,61a6,6,0,0,1-6,6H78a6,6,0,0,1-6-6V19a6,6,0,0,1,6-6h24a6,6,0,0,1,6,6Z"/><rect class="cls-1" x="76" y="17" width="28" height="46" rx="1" ry="1"/><path class="cls-1" d="M137.43,62.19,118.3,49.36a2,2,0,0,0-2.23,3.32L135.2,65.51a2,2,0,0,0,2.23-3.32Z"/><path class="cls-1" d="M117.19,38.85a2,2,0,0,0,1.11-.34l19.12-12.83a2,2,0,0,0-2.23-3.32L116.08,35.19a2,2,0,0,0,1.12,3.66Z"/><path class="cls-1" d="M140.17,42h-23a2,2,0,0,0,0,4h23a2,2,0,0,0,0-4Z"/><rect class="cls-1" x="88.53" y="63.86" width="2.94" height="13.4" rx="0.54" ry="0.54" transform="translate(160.54 -19.46) rotate(89.98)"/></g></g></svg>