<svg xmlns="http://www.w3.org/2000/svg" viewBox="0 0 200 90"><defs><style>.cls-1{fill:#1e5748;}.cls-2{fill:none;stroke:#1e5748;stroke-miterlimit:10;stroke-width:3px;}</style></defs><title>TDpublic_illustrations_200x90_02_CreditCards</title><g id="ARTWORK"><path class="cls-1" d="M83.3,38.91H80.83l1.23-2.14a1.09,1.09,0,0,0-1.89-1.09l-1.23,2.14-1.23-2.14a1.09,1.09,0,0,0-1.89,1.09l1.23,2.14H74.59a1.09,1.09,0,0,0,0,2.18h2.47l-1.23,2.14a1.09,1.09,0,0,0,.4,1.49,1.09,1.09,0,0,0,1.49-.4l1.23-2.14,1.23,2.14a1.09,1.09,0,0,0,1.89-1.09l-1.23-2.14H83.3a1.09,1.09,0,0,0,0-2.18Z"/><path class="cls-1" d="M96.37,38.91H93.9l1.23-2.14a1.09,1.09,0,0,0-1.89-1.09L92,37.82l-1.23-2.14a1.09,1.09,0,0,0-1.89,1.09l1.23,2.14H87.66a1.09,1.09,0,0,0,0,2.18h2.47l-1.23,2.14a1.09,1.09,0,0,0,.4,1.49,1.09,1.09,0,0,0,1.49-.4L92,42.18l1.23,2.14a1.09,1.09,0,0,0,1.89-1.09L93.9,41.09h2.47a1.09,1.09,0,0,0,0-2.18Z"/><path class="cls-1" d="M109.43,38.91H107l1.23-2.14a1.09,1.09,0,0,0-1.89-1.09l-1.23,2.14-1.23-2.14A1.09,1.09,0,0,0,102,36.77l1.23,2.14h-2.47a1.09,1.09,0,0,0,0,2.18h2.47L102,43.23a1.09,1.09,0,0,0,.4,1.49,1.09,1.09,0,0,0,1.49-.4l1.23-2.14,1.23,2.14a1.09,1.09,0,0,0,1.89-1.09L107,41.09h2.47a1.09,1.09,0,0,0,0-2.18Z"/><path class="cls-1" d="M122.5,38.91H120l1.23-2.14a1.09,1.09,0,0,0-1.89-1.09l-1.23,2.14-1.23-2.14A1.09,1.09,0,0,0,115,36.77l1.23,2.14h-2.47a1.09,1.09,0,0,0,0,2.18h2.47L115,43.23a1.09,1.09,0,0,0,.4,1.49,1.09,1.09,0,0,0,1.49-.4l1.23-2.14,1.23,2.14a1.09,1.09,0,1,0,1.89-1.09L120,41.09h2.47a1.09,1.09,0,0,0,0-2.18Z"/><path class="cls-1" d="M164,52.51v3.8a34.08,34.08,0,0,1-1.27,8.45,30.77,30.77,0,0,0-1.27,8A1.26,1.26,0,0,1,160.17,74H145a1.26,1.26,0,0,1-1.27-1.27c0-2-.92-3.1-2.32-4.79a31.08,31.08,0,0,1-2.54-3.45,53.68,53.68,0,0,1-5-10.07,3.82,3.82,0,0,1,.28-3.38,3.17,3.17,0,0,1,2.61-1.2c1.48,0,3.1,1.27,4.44,2.89V39.84a3.8,3.8,0,1,1,7.61,0v5.28a3.73,3.73,0,0,1,4.51,1.55,4.31,4.31,0,0,1,.85-.35A3.73,3.73,0,0,1,158.77,49a3.15,3.15,0,0,1,1.41-.28A3.88,3.88,0,0,1,164,52.51Zm-2.47,3.8V52.23a1.27,1.27,0,0,0-2.54,0v1.55a1.27,1.27,0,0,1-2.54,0V49.7a1.27,1.27,0,0,0-2.54,0v2.82a1.27,1.27,0,0,1-2.54,0V48.43a1.27,1.27,0,0,0-2.54,0v2.82a1.27,1.27,0,0,1-2.54,0V39.62h0a1.27,1.27,0,0,0-2.54,0v19.3a1.27,1.27,0,1,1-2.54,0V57.87c-1.13-2.89-3.59-5.42-4.44-5.42a.48.48,0,0,0-.56.28,1.56,1.56,0,0,0,0,1.13A51.67,51.67,0,0,0,141,63.29a33.2,33.2,0,0,0,2.32,3.17c1.34,1.62,2.47,3,2.82,5.14h12.75a43.08,43.08,0,0,1,1.27-7.33,27.56,27.56,0,0,0,1.34-7.5Z"/><path class="cls-2" d="M135.37,54H40a2,2,0,0,1-2-2V28a2,2,0,0,1,2-2H152.76a2,2,0,0,1,2,2V47.4"/><path class="cls-1" d="M64,24.5H40a3.5,3.5,0,0,0-3.5,3.5V52A3.5,3.5,0,0,0,40,55.5H64a3.5,3.5,0,0,0,3.5-3.5V28A3.5,3.5,0,0,0,64,24.5ZM58,46.59a1.26,1.26,0,0,1-1.26,1.26H47.3A1.26,1.26,0,0,1,46,46.59V39.75a1.26,1.26,0,0,1,1.26-1.26h.13V36.85a4.7,4.7,0,1,1,9.4,0v1.64h0A1.28,1.28,0,0,1,58,39.75Z"/><path class="cls-1" d="M52.09,34.25a2.63,2.63,0,0,0-2.64,2.64v1.64h5.29V36.9A2.63,2.63,0,0,0,52.09,34.25Z"/></g></svg>