<svg xmlns="http://www.w3.org/2000/svg" viewBox="0 0 200 90"><defs><style>.cls-1{fill:none;stroke:#1e5748;stroke-miterlimit:10;stroke-width:3px;}.cls-2{fill:#1e5748;}.cls-3{fill:#1e5748;}.cls-4{fill:#1e5748;}</style></defs><title>TDpublic_illustrations_200x90_01_Accounts</title><g id="ARTWORK"><g id="Layer_34" data-name="Layer 34"><polygon class="cls-1" points="128.07 42.96 177 22.48 152.23 70.27 144.29 51.98 128.07 42.96"/><line class="cls-1" x1="174.42" y1="24.93" x2="144.29" y2="51.98"/><path class="cls-2" d="M78,22.23l-9.59-9.56,0,0-.09-.08-2-2A2,2,0,0,0,64.89,10H29.56A3.58,3.58,0,0,0,26,13.59V76.23a3.58,3.58,0,0,0,3.55,3.59L75,80a3.58,3.58,0,0,0,3.56-3.59V25.85a1.94,1.94,0,0,0,0-.57V23.61A2,2,0,0,0,78,22.23ZM74.65,76.11l-44.76-.18v-62H61v9.33a4.29,4.29,0,0,0,4.28,4.28h9.36Z"/><path class="cls-3" d="M106.86,36.07a1,1,0,0,0-1.68.73v4.82H92.41a1,1,0,0,0-1,1v6.52a1,1,0,0,0,1,1h12.76V55a1,1,0,0,0,.61.92,1,1,0,0,0,.39.08,1,1,0,0,0,.7-.28l9.55-9.24a1,1,0,0,0,0-1.45Z"/><path class="cls-4" d="M52.59,31.59A14.66,14.66,0,1,0,67.25,46.26,14.66,14.66,0,0,0,52.59,31.59ZM61.5,42.32a1.69,1.69,0,0,1-.54.85L51.12,53a1.56,1.56,0,0,1-1,.56h-.07a1.32,1.32,0,0,1-.66-.38l-4.66-4.66a1.77,1.77,0,0,1-.55-.84c0-.1-.08-.4.39-.87a1.15,1.15,0,0,1,.76-.42,1.54,1.54,0,0,1,1,.57l3.86,3.86,9.21-9.21a1.54,1.54,0,0,1,1-.56,1.1,1.1,0,0,1,.74.4C61.56,41.92,61.51,42.22,61.5,42.32Z"/></g></g></svg>