<svg xmlns="http://www.w3.org/2000/svg" viewBox="0 0 200 90"><defs><style>.cls-1{fill:#1e5748;}.cls-2{fill:none;stroke:#1e5748;stroke-linecap:round;stroke-linejoin:round;stroke-width:2px;}</style></defs><title>TDpublic_illustrations_200x90_02_CreditCards</title><g id="ARTWORK"><path class="cls-1" d="M79.56,39.49v.91a1,1,0,0,0,.91,1.13h.21a1.06,1.06,0,0,0,1.13-1.13v-.91a7.46,7.46,0,0,0,3.94-1.72,5.12,5.12,0,0,0,1.5-3.82,4.63,4.63,0,0,0-1.82-3.72,6.38,6.38,0,0,0-3.61-1.54l-2-.33c-.6-.09-1.32-.34-1.32-1a1.49,1.49,0,0,1,1.58-1.37,4.41,4.41,0,0,1,2.93.9,1.76,1.76,0,0,0,2.47-.12,1.88,1.88,0,0,0-.12-2.48,6.9,6.9,0,0,0-3.54-1.64V21.33a1,1,0,0,0-1-1.13H80.7a1.13,1.13,0,0,0-1.13,1.13v1.13a4.7,4.7,0,0,0-4.5,4.84,3.93,3.93,0,0,0,1.32,3.12C78,31.81,81.3,32.1,81.3,32.1c1.72.07,2.47,1,2.51,1.79a1.64,1.64,0,0,1-.65,1.49A4,4,0,0,1,80.7,36a4.5,4.5,0,0,1-3.59-1.25,1.82,1.82,0,0,0-2.47,0,1.8,1.8,0,0,0,0,2.47A7.5,7.5,0,0,0,79.56,39.49Z"/><line class="cls-2" x1="75.74" y1="48.94" x2="109.89" y2="48.94"/><line class="cls-2" x1="75.74" y1="58.31" x2="109.89" y2="58.31"/><line class="cls-2" x1="75.74" y1="67.68" x2="109.89" y2="67.68"/><path class="cls-1" d="M99.89,11.15V27a3.27,3.27,0,0,0,3.26,3.26H119a20.64,20.64,0,0,0-2.69-6.33L105.18,12.64A33.51,33.51,0,0,0,99.89,11.15Z"/><path class="cls-1" d="M117,69.74V77H68.3V13.2h34.12L117,29V43.46a18.18,18.18,0,0,1,3-2.28V28.44a1.5,1.5,0,0,0-.4-1L104.18,10.68a1.5,1.5,0,0,0-1.1-.48H67.89a2.59,2.59,0,0,0-2.59,2.59V77.45A2.59,2.59,0,0,0,67.89,80h49.57A2.59,2.59,0,0,0,120,77.45V72A18.14,18.14,0,0,1,117,69.74Z"/><path class="cls-1" d="M129.81,41.54A15.08,15.08,0,1,0,144.52,57,15.08,15.08,0,0,0,129.81,41.54Zm8.9,11.25a1.74,1.74,0,0,1-.58.86l-10.36,9.87a1.6,1.6,0,0,1-1,.55h-.07a1.35,1.35,0,0,1-.67-.41l-4.68-4.91a1.82,1.82,0,0,1-.54-.88c0-.1-.07-.42.42-.88a1.18,1.18,0,0,1,.79-.41,1.59,1.59,0,0,1,1,.61l3.88,4.07,9.7-9.24a1.58,1.58,0,0,1,1-.55,1.13,1.13,0,0,1,.75.43C138.78,52.37,138.73,52.68,138.71,52.78Z"/></g></svg>