<svg xmlns="http://www.w3.org/2000/svg" viewBox="0 0 200 90"><defs><style>.cls-1{fill:#1e5748;}</style></defs><title>preauthorizedTransferService</title><g id="Automatic_transfers" data-name="Automatic transfers"><path class="cls-1" d="M125.27,42.81l18.48,10.27,9,20.72,28.12-54.26Zm6.86.38,38.18-16-25.6,23Zm14.6,9.22,25.66-23L153,66.82Z"/><path class="cls-1" d="M74.7,21.62l-9.86-9.83-.09-.08L62.67,9.62A2,2,0,0,0,61.26,9H24.92a3.68,3.68,0,0,0-3.66,3.7h0V77.16a3.68,3.68,0,0,0,3.65,3.7L71.63,81a3.68,3.68,0,0,0,3.66-3.7h0v-52a2,2,0,0,0,0-.59V23A2,2,0,0,0,74.7,21.62ZM71.29,77l-46-.18V13h32v9.6A4.41,4.41,0,0,0,61.66,27h9.63Z"/><path class="cls-1" d="M104.77,36.11a1,1,0,0,0-1.68.73v4.82H90.32a1,1,0,0,0-1,1v6.52a1,1,0,0,0,1,1h12.76V55a1,1,0,0,0,1.7.72l9.55-9.24a1,1,0,0,0,0-1.41l0,0Z"/><path class="cls-1" d="M48.6,31.25A15.08,15.08,0,1,0,63.68,46.33,15.08,15.08,0,0,0,48.6,31.25ZM57.26,43.2,47.09,53.28a1.6,1.6,0,0,1-1,.57H46a1.36,1.36,0,0,1-.68-.4l-4.79-4.79A1.82,1.82,0,0,1,40,47.8a1,1,0,0,1,.4-.89,1.18,1.18,0,0,1,.78-.43,1.59,1.59,0,0,1,1,.59l4,4,9.47-9.47a1.58,1.58,0,0,1,1-.57,1.13,1.13,0,0,1,.76.41,1,1,0,0,1,.41.88A1.74,1.74,0,0,1,57.26,43.2Z"/></g></svg>