<svg xmlns="http://www.w3.org/2000/svg" viewBox="0 0 200 90"><defs><style>.cls-1{fill:#1e5748;}</style></defs><title>preferredRates</title><g id="ARTWORK"><path class="cls-1" d="M102.44,51.33A5.16,5.16,0,0,0,100,47a5.07,5.07,0,0,0,1-3,5.17,5.17,0,0,0-5.16-5.16l-16.45-.06a48.4,48.4,0,0,0,2.45-14.9A5.52,5.52,0,0,0,70.9,22.68l-.11.61A38.43,38.43,0,0,1,63.3,39.8a8.44,8.44,0,0,1-6.71,3.27,1.48,1.48,0,0,0-1.49,1.46L55,63.61a1.57,1.57,0,0,0,.43,1A21.71,21.71,0,0,0,70.77,71l21.81.08a5.28,5.28,0,0,0,5.36-5,5.07,5.07,0,0,0-.76-2.85,5.13,5.13,0,0,0,3-4.63A5,5,0,0,0,99.43,56,5.13,5.13,0,0,0,102.44,51.33Zm-15.5-9.6,8.88,0a2.2,2.2,0,1,1,0,4.4l-8.88,0a2.2,2.2,0,1,1,0-4.4Zm-3.3,26.39-12.86-.05A18.68,18.68,0,0,1,58,63l.07-17.07a11.37,11.37,0,0,0,7.58-4.32A41.42,41.42,0,0,0,73.7,23.82l.11-.6a2.55,2.55,0,0,1,2.82-2,2.64,2.64,0,0,1,2.24,2.68A45.62,45.62,0,0,1,76.42,38.3l-.5,1.45a1.47,1.47,0,0,0,.2,1.33,1.49,1.49,0,0,0,1.2.61l5,0a5,5,0,0,0-.52,2.2,5,5,0,0,0,1.55,3.67,5.09,5.09,0,0,0,0,7.34,5.09,5.09,0,0,0,.85,8,5,5,0,0,0-.48,5.17Zm9,0-4.29,0a2.2,2.2,0,1,1,0-4.4l4.44,0A2.22,2.22,0,0,1,95,66,2.31,2.31,0,0,1,92.6,68.16ZM95,60.84l-8.14,0a2.2,2.2,0,1,1,0-4.4l8.14,0a2.21,2.21,0,1,1,0,4.41Zm2.25-7.33-10.36,0a2.2,2.2,0,1,1,0-4.4l10.36,0a2.28,2.28,0,0,1,.45,0,2.2,2.2,0,0,1-.47,4.36Z"/><path class="cls-1" d="M125,34.77V42.1a13,13,0,0,1-.54,4.32,5.19,5.19,0,0,1-2.35,2.51A9.23,9.23,0,0,1,117.35,50a10.65,10.65,0,0,1-5.2-1,5.38,5.38,0,0,1-2.41-2.44,10.7,10.7,0,0,1-.62-4.09V34.77a12.48,12.48,0,0,1,.65-4.69,5.06,5.06,0,0,1,2.51-2.47,10,10,0,0,1,4.61-.95,10.29,10.29,0,0,1,4.94,1,5.51,5.51,0,0,1,2.52,2.52A12.06,12.06,0,0,1,125,34.77Zm-6.82-1.88A7.07,7.07,0,0,0,118,30.8c-.11-.26-.43-.39-1-.39a1,1,0,0,0-.93.42,6,6,0,0,0-.21,2.06V43.66a7,7,0,0,0,.19,2.22c.12.25.45.37,1,.37s.76-.14.89-.42a5.69,5.69,0,0,0,.2-2Zm19.37-6.23L120.68,71h-4.1L133.5,26.66ZM145,55.41v7.37a13,13,0,0,1-.54,4.3,5.16,5.16,0,0,1-2.35,2.52,9.16,9.16,0,0,1-4.75,1.07,10.56,10.56,0,0,1-5.19-1,5.47,5.47,0,0,1-2.42-2.45,10.41,10.41,0,0,1-.63-4.07V55.41a12.37,12.37,0,0,1,.66-4.66,5.12,5.12,0,0,1,2.51-2.48,10,10,0,0,1,4.61-1,10.2,10.2,0,0,1,5,1,5.42,5.42,0,0,1,2.51,2.54A12.14,12.14,0,0,1,145,55.41Zm-6.82-1.85a7.65,7.65,0,0,0-.17-2.1c-.12-.27-.43-.41-.95-.41a.92.92,0,0,0-.92.43,6.42,6.42,0,0,0-.2,2.08V64.34a7.17,7.17,0,0,0,.19,2.19c.12.24.44.37,1,.37s.78-.14.91-.41a6.56,6.56,0,0,0,.18-2Z"/></g></svg>