<svg xmlns="http://www.w3.org/2000/svg" viewBox="0 0 200 90"><defs><style>.cls-1{fill:#1e5748;}</style></defs><title>professionallyManaged</title><g id="ARTWORK"><path class="cls-1" d="M164,36.11h-11.4V33.56a4.12,4.12,0,0,0-4.12-4.12h-9.15a4.12,4.12,0,0,0-4.12,4.12v2.55h-11.4A1.79,1.79,0,0,0,122,37.9V58.66l3,1.06a5.33,5.33,0,0,1,4.1,5.14v4.8H164a1.79,1.79,0,0,0,1.79-1.79v-30A1.79,1.79,0,0,0,164,36.11Zm-26-2.55a1.37,1.37,0,0,1,1.37-1.37h9.15a1.37,1.37,0,0,1,1.37,1.37v2.55H137.91ZM138,62h-3.62V54.45L138,51.71Zm7.3,0h-3.64V51.18l3.64,1.09Zm7.31,0L149,62V51.43l3.63-3.63ZM155,46.6a.84.84,0,0,1-1.68,0s0,0,0,0V44.84L147.21,51a.94.94,0,0,1-1,.13l-6.94-2.3-7.19,5.59a.84.84,0,1,1-1.13-1.24L131,53l7.54-5.86a.82.82,0,0,1,.93-.08l6.89,2.29,5.75-5.73h-1.74a.85.85,0,0,1-.24-1.68h4a.84.84,0,0,1,.84.84Z"/><path class="cls-1" d="M49.19,11.59a2,2,0,0,1,2-1.65h2.19a2,2,0,0,1,2,1.65l.45,2.56A13.4,13.4,0,0,1,59,15.49L61.14,14a2,2,0,0,1,2.55.22l1.55,1.55a2,2,0,0,1,.22,2.55L64,20.45a13.42,13.42,0,0,1,1.34,3.23l2.59.46a2,2,0,0,1,1.65,2v2.19a2,2,0,0,1-1.66,2l-2.59.46A13.41,13.41,0,0,1,63.94,34l1.51,2.15a2,2,0,0,1-.22,2.55l-1.55,1.55a2,2,0,0,1-2.55.22L59,38.92a13.34,13.34,0,0,1-3.23,1.34l-.46,2.59a2,2,0,0,1-2,1.65H51.15a2,2,0,0,1-2-1.65l-.45-2.59a13.38,13.38,0,0,1-3.23-1.34l-2.15,1.51a2,2,0,0,1-2.57-.22l-1.55-1.55A2,2,0,0,1,39,36.11L40.53,34a13.43,13.43,0,0,1-1.34-3.23l-2.59-.46a2,2,0,0,1-1.65-2V26.12a2,2,0,0,1,1.65-2l2.59-.46a13.44,13.44,0,0,1,1.34-3.23L39,18.32a2,2,0,0,1,.22-2.55l1.55-1.55A2,2,0,0,1,43.34,14l2.15,1.51a13.44,13.44,0,0,1,3.24-1.36ZM44.08,27.21A8.17,8.17,0,1,0,52.25,19a8.17,8.17,0,0,0-8.17,8.17Z"/><path class="cls-1" d="M122.4,61.88l-16.6-6c-.55-.2-1.32-.44-2.18-.69L98.51,76.14,94.44,61.6l3.32-6a.61.61,0,0,0,0-.59.53.53,0,0,0-.47-.31H87.08a.53.53,0,0,0-.47.31.61.61,0,0,0,0,.59l3.32,6L85.91,75.85l-5.4-21.16a43.18,43.18,0,0,0-4.21,1.23l-16.6,6c-2.94,1.12-3.5,3.25-3.59,5.58,0,.78,0,1.58,0,2.37v4c0,3.54,2.21,6,5.45,6h59c3.24,0,5.53-2.42,5.53-6v-4C126.08,66.66,126,63.2,122.4,61.88Z"/><path class="cls-1" d="M92.68,53.51a14.28,14.28,0,0,0,12.44-7,24.71,24.71,0,0,0,3.62-13c0-11.3-5.85-17.78-16.06-17.78S76.61,22.32,76.61,33.46C76.61,43.11,81.64,53.51,92.68,53.51ZM97.23,20A10.14,10.14,0,0,1,104,26.53,19.82,19.82,0,0,1,96.2,22C96.78,21,97.12,20.22,97.23,20Zm-17,13.48c0-12.29,7.77-14.12,12.41-14.12a17,17,0,0,1,2.72.23c-1.07,2.19-6.62,12.75-15.12,14.22C80.28,33.67,80.28,33.56,80.28,33.46Zm15-9.8a22.27,22.27,0,0,0,9.35,5,23,23,0,0,1,.48,4.83c0,6.59-3.3,16.39-12.4,16.39-8.71,0-11.74-8.15-12.3-14.23C87.52,34.52,92.62,27.95,95.25,23.65Z"/></g></svg>