<svg xmlns="http://www.w3.org/2000/svg" viewBox="0 0 200 90"><defs><style>.cls-1{fill:#1e5748;}.cls-2{fill:#1e5748;}</style></defs><title>TDpublic_illustrations_200x90_02_CreditCards</title><g id="ARTWORK"><path class="cls-1" d="M125.81,62.43,109.7,56.19A21.78,21.78,0,0,0,103,54.94H92.68A21.77,21.77,0,0,0,86,56.19L69.88,62.43a6.8,6.8,0,0,0-4.1,6V75a5,5,0,0,0,5,5h54.16a5,5,0,0,0,5-5v-6.6A6.8,6.8,0,0,0,125.81,62.43ZM126.14,75a1.23,1.23,0,0,1-1.22,1.21H70.77A1.22,1.22,0,0,1,69.55,75v-6.6a3,3,0,0,1,1.69-2.46l16.12-6.24a18.23,18.23,0,0,1,5.32-1H103a18.21,18.21,0,0,1,5.32,1l16.12,6.24h0a3,3,0,0,1,1.68,2.46Z"/><path class="cls-1" d="M83.62,48.47H44.81V35.84H78.93a31.62,31.62,0,0,1-.21-3.47c0-.63,0-1.24.07-1.85h-34V25H79.66a22,22,0,0,1,.7-2.13H44.81A2.14,2.14,0,0,0,42.68,25V48.47a2.14,2.14,0,0,0,2.13,2.13H85.43A19.3,19.3,0,0,1,83.62,48.47Z"/><path class="cls-1" d="M156.49,27.29a1,1,0,0,0-.79-.23,18.79,18.79,0,0,1-16.06-5.68,1,1,0,0,0-.71-.3h0a1,1,0,0,0-.71.29,19.13,19.13,0,0,1-16.07,5.77,1,1,0,0,0-.79.24,1,1,0,0,0-.34.75c0,25.77,8.87,30.27,17.45,34.62a1,1,0,0,0,.45.11,1,1,0,0,0,.47-.11c8.57-4.48,17.44-9.11,17.44-34.7A1,1,0,0,0,156.49,27.29ZM138.93,60.74c-8.12-4.13-15.67-8.38-15.9-31.51a21.08,21.08,0,0,0,15.91-5.77,20.72,20.72,0,0,0,15.91,5.7C154.61,52.12,147,56.49,138.93,60.74Z"/><path class="cls-2" d="M139,36.74a2.18,2.18,0,0,0-2.19,2.19v1.36h4.39V38.93A2.18,2.18,0,0,0,139,36.74Z"/><path class="cls-1" d="M151.84,31.18a22.62,22.62,0,0,1-12.31-4.63,1,1,0,0,0-1.2,0A23,23,0,0,1,126,31.22a1,1,0,0,0-.93,1c.71,18,6.22,22.26,13.36,26a1,1,0,0,0,.93,0c6.88-3.71,12.64-8.23,13.4-26A1,1,0,0,0,151.84,31.18ZM143.91,47a1,1,0,0,1-1,1H135a1,1,0,0,1-1-1V41.3a1,1,0,0,1,1-1h.1V38.9a3.9,3.9,0,1,1,7.8,0v1.36h0a1.06,1.06,0,0,1,1,1Z"/><path class="cls-1" d="M97.85,53.05a14.73,14.73,0,0,0,12.83-7.23,25.48,25.48,0,0,0,3.74-13.45c0-11.66-6-18.34-16.56-18.34-10.38,0-16.57,6.86-16.57,18.34C81.28,42.33,86.46,53.05,97.85,53.05Zm4.69-34.59a10.46,10.46,0,0,1,7,6.76,20.44,20.44,0,0,1-8-4.65C102.07,19.49,102.43,18.72,102.54,18.47ZM85.05,32.37c0-12.67,8-14.56,12.79-14.56a17.53,17.53,0,0,1,2.81.23c-1.1,2.26-6.83,13.15-15.6,14.66C85.06,32.59,85.05,32.48,85.05,32.37Zm15.44-10.11a23,23,0,0,0,9.65,5.12,23.68,23.68,0,0,1,.49,5c0,6.8-3.41,16.91-12.79,16.91-9,0-12.1-8.4-12.69-14.68C92.53,33.46,97.79,26.69,100.49,22.26Z"/></g></svg>