<svg xmlns="http://www.w3.org/2000/svg" viewBox="0 0 200 90"><defs><style>.cls-1{fill:#1e5748;}.cls-2{fill:#fff;}</style></defs><title>putBackAnyAmount</title><g id="ARTWORK"><path class="cls-1" d="M78.2,74.44H53.09a4.85,4.85,0,0,1-4.85-4.85l.09-47.65H83l.09,47.64A4.86,4.86,0,0,1,78.2,74.44ZM51.32,24.94l-.08,44.65a1.85,1.85,0,0,0,1.85,1.85H78.2a1.85,1.85,0,0,0,1.85-1.85L80,24.94Z"/><ellipse class="cls-1" cx="148.2" cy="29.25" rx="10.1" ry="4.04" transform="translate(-0.03 0.16) rotate(-0.06)"/><path class="cls-1" d="M158.32,43.39c0,2.23-4.52,4-10.1,4.05-.69,0-1.37,0-2-.08v4c.65.05,1.33.08,2,.08a20,20,0,0,0,7.08-1.17,3.19,3.19,0,0,1,0-.45c0-1.63,1.21-2.91,3.06-3.82Z"/><path class="cls-1" d="M155.26,52.35a20.05,20.05,0,0,1-7,1.15c-.69,0-1.37,0-2-.08v4c.65.05,1.33.08,2,.08a20,20,0,0,0,7.08-1.17,3.19,3.19,0,0,1,0-.45Z"/><path class="cls-1" d="M158.31,35.3v-4c0,2.23-4.52,4-10.1,4.05s-10.11-1.8-10.11-4v4a1.67,1.67,0,0,0,0,.36c3.31.59,5.95,1.88,7.22,3.51a24.46,24.46,0,0,0,2.85.16C153.79,39.35,158.31,37.54,158.31,35.3Z"/><path class="cls-1" d="M158.31,41.37v-4c0,2.23-4.52,4-10.1,4.05-.69,0-1.37,0-2-.08,0,0,0,.05,0,.08v4c.65.05,1.33.08,2,.08C153.79,45.41,158.32,43.6,158.31,41.37Z"/><path class="cls-1" d="M134.07,51.5c5.58,0,10.1-1.82,10.1-4.05v-4c0,2.23-4.52,4-10.1,4.05s-10.11-1.8-10.11-4v4C124,49.7,128.49,51.5,134.07,51.5Z"/><path class="cls-1" d="M134.08,57.56c5.58,0,10.1-1.82,10.1-4.05v-4c0,2.23-4.52,4-10.1,4.05s-10.11-1.8-10.11-4v4C124,55.76,128.5,57.57,134.08,57.56Z"/><ellipse class="cls-1" cx="134.06" cy="41.39" rx="10.1" ry="4.04" transform="translate(-0.04 0.14) rotate(-0.06)"/><path class="cls-1" d="M134.08,59.58c-5.58,0-10.11-1.8-10.11-4v4c0,2.23,4.53,4,10.11,4s10.1-1.82,10.1-4.05v-4C144.19,57.76,139.66,59.57,134.08,59.58Z"/><path class="cls-1" d="M176.91,64c0,2.23-4.52,4-10.1,4.05s-10.11-1.8-10.11-4v4c0,2.23,4.53,4,10.11,4s10.1-1.82,10.1-4.05Z"/><path class="cls-1" d="M166.8,66c5.58,0,10.1-1.82,10.1-4.05v-4c0,2.23-4.52,4-10.1,4.05s-10.11-1.8-10.11-4v4C156.7,64.22,161.22,66,166.8,66Z"/><path class="cls-1" d="M166.8,60c5.58,0,10.1-1.82,10.1-4.05v-4c0,2.23-4.52,4-10.1,4.05-3.61,0-6.78-.75-8.56-1.89a2.75,2.75,0,0,1-1.55-2.14v4C156.69,58.16,161.22,60,166.8,60Z"/><path class="cls-1" d="M158.33,52.07a17.24,17.24,0,0,0,8.46,1.83c5.58,0,10.1-1.82,10.1-4.05s-4.53-4-10.11-4c-3.57,0-6.7.75-8.49,1.87a3,3,0,0,0-1.58,1.93,1.66,1.66,0,0,0,0,.25,2.06,2.06,0,0,0,.6,1.36A4.65,4.65,0,0,0,158.33,52.07Z"/><rect class="cls-2" x="117.49" y="53.38" width="2.43" height="3.13"/><path class="cls-1" d="M66.67,46.23a1,1,0,0,0-.29-.73,1,1,0,0,0-.76-.32,1.06,1.06,0,0,0-1,1v1.35a4.78,4.78,0,0,0-4.73,4.93,4,4,0,0,0,1.33,3.16,6.36,6.36,0,0,0,3,1.4l2.09.33a3.53,3.53,0,0,1,2,.77c.65.55.69.85.69,1.25a2,2,0,0,1-.73,1.67,4.35,4.35,0,0,1-2.66.7,4.77,4.77,0,0,1-3.83-1.44,1.66,1.66,0,0,0-1.18-.49h0a1.68,1.68,0,0,0-1.19,2.86,7.78,7.78,0,0,0,5.18,2.38v1.08a1,1,0,0,0,.32.73,1,1,0,0,0,.71.29h.05a1.07,1.07,0,0,0,.72-.3,1.06,1.06,0,0,0,.29-.74V65.06a7.11,7.11,0,0,0,3.64-1.33,5.06,5.06,0,0,0,2-4.33,4.7,4.7,0,0,0-1.86-3.78,6.66,6.66,0,0,0-3.71-1.54l-2.07-.34a3,3,0,0,1-1.37-.65.91.91,0,0,1-.13-.59,1.54,1.54,0,0,1,.41-1.14A2,2,0,0,1,65,50.92a4.77,4.77,0,0,1,3.17,1,1.68,1.68,0,0,0,2.26-2.5,7.39,7.39,0,0,0-3.74-1.7Z"/><path class="cls-1" d="M57.8,38.3a1.42,1.42,0,0,1,.43-1l6.6-6.41a1.49,1.49,0,0,1,1-.4,1.36,1.36,0,0,1,1,.43l6.22,6.41a1.42,1.42,0,0,1-2,2l-5.23-5.39-5.57,5.42a1.42,1.42,0,0,1-2.42-1Z"/><path class="cls-1" d="M130.8,25a16.52,16.52,0,0,0-13.12.2l.85-1.74a1.14,1.14,0,0,0-2-1l-2.26,4.64a1.14,1.14,0,0,0,.51,1.52l4.37,2.13a1.14,1.14,0,1,0,1-2l-2.22-1.07a14.09,14.09,0,0,1,11.95-.58,1.14,1.14,0,0,0,1-2.07Z"/><polygon class="cls-1" points="102.33 21.74 28.96 21.74 28.96 24.88 48.39 24.88 49.84 24.88 102.33 24.88 102.33 21.74"/><polygon class="cls-1" points="22.68 15.46 22.68 31.16 49.64 31.16 49.64 28.02 25.82 28.02 25.82 18.6 105.47 18.6 105.47 28.02 81.46 28.02 81.39 28.02 81.39 31.16 81.47 31.16 108.61 31.16 108.61 15.46 22.68 15.46"/></g></svg>