<svg xmlns="http://www.w3.org/2000/svg" viewBox="0 0 200 90"><defs><style>.cls-1{fill:#1e5748;}.cls-2{fill:none;stroke:#1e5748;stroke-miterlimit:10;stroke-width:3px;}.cls-3{fill:#1e5748;}</style></defs><title>TDpublic_illustrations_200x90_01_Accounts</title><g id="ARTWORK"><g id="Layer_26" data-name="Layer 26"><path class="cls-1" d="M93.75,55h5.68V51.61H93.75a.61.61,0,0,1-.61-.6V19.69a.61.61,0,0,1,.61-.61h62.09a.61.61,0,0,1,.6.61v6.72h3.39V19.69a4,4,0,0,0-4-4H93.75a4,4,0,0,0-4,4V51A4,4,0,0,0,93.75,55Z"/><path class="cls-1" d="M102.32,65.08H108V61.69h-5.68a.61.61,0,0,1-.61-.6V29.78a.61.61,0,0,1,.61-.61h62.09a.61.61,0,0,1,.6.61V36.5h3.39V29.78a4,4,0,0,0-4-4H102.32a4,4,0,0,0-4,4V61.09A4,4,0,0,0,102.32,65.08Z"/><path class="cls-1" d="M50.9,27.18A1.94,1.94,0,1,0,49,25.24,1.94,1.94,0,0,0,50.9,27.18Zm0,40A1.94,1.94,0,1,0,49,65.24,1.94,1.94,0,0,0,50.9,67.18ZM68.85,45.24a1.94,1.94,0,1,0,1.94-1.94A1.94,1.94,0,0,0,68.85,45.24Zm-40,0a1.94,1.94,0,1,0,1.94-1.94A1.94,1.94,0,0,0,28.86,45.24Zm13-15.64a1.94,1.94,0,1,0-2.65-.71A1.94,1.94,0,0,0,41.87,29.6Zm20,34.64a1.94,1.94,0,1,0-2.65-.71A1.94,1.94,0,0,0,61.87,64.24Zm-26.72-28a1.94,1.94,0,1,0-2.65.71A1.94,1.94,0,0,0,35.15,36.21Zm34.64,20a1.94,1.94,0,1,0-2.65.71A1.94,1.94,0,0,0,69.79,56.21ZM62.58,28.89a1.94,1.94,0,1,0-2.65.71A1.94,1.94,0,0,0,62.58,28.89Zm-20,34.64a1.94,1.94,0,1,0-2.65.71A1.94,1.94,0,0,0,42.58,63.53ZM69.08,36.92a1.94,1.94,0,1,0-2.65-.71A1.94,1.94,0,0,0,69.08,36.92Zm-34.64,20a1.94,1.94,0,1,0-2.65-.71A1.94,1.94,0,0,0,34.44,56.92Zm28.14-6.14-10-6,6.57-9.4a1.43,1.43,0,0,0-2.35-1.64L49.35,44.36l0,0,0,0a1.35,1.35,0,0,0-.08.23,1.43,1.43,0,0,0-.09.26,1.38,1.38,0,0,0,0,.28.86.86,0,0,0,.11.52,1.38,1.38,0,0,0,.11.24,1.43,1.43,0,0,0,.2.21,1.35,1.35,0,0,0,.16.17l0,0,0,0L61.1,53.24a1.43,1.43,0,0,0,1.48-2.45Z"/><circle class="cls-2" cx="50.79" cy="45.24" r="27.22"/><path class="cls-1" d="M110.41,39.22h64.1V70.61h-64.1V39.22m-1.13-3.39A2.26,2.26,0,0,0,107,38.09V71.74A2.26,2.26,0,0,0,109.28,74h66.36a2.26,2.26,0,0,0,2.26-2.26V38.09a2.26,2.26,0,0,0-2.26-2.26Z"/><path class="cls-3" d="M147.29,54.08a6.5,6.5,0,0,0-3.69-1.54l-2-.33c-.61-.09-1.34-.35-1.34-1.07a1.52,1.52,0,0,1,1.61-1.4,4.49,4.49,0,0,1,3,.92,1.75,1.75,0,0,0,1.18.46,1.85,1.85,0,0,0,1.33-.58,1.76,1.76,0,0,0,.46-1.27,1.79,1.79,0,0,0-.58-1.25,7.33,7.33,0,0,0-3.61-1.68V45a1.13,1.13,0,0,0-.32-.82,1.16,1.16,0,0,0-.84-.35A1.19,1.19,0,0,0,141.3,45v1.18a4.78,4.78,0,0,0-4.61,4.94A4,4,0,0,0,138,54.33a6.29,6.29,0,0,0,3,1.4l2,.33a3.34,3.34,0,0,1,1.93.72c.58.49.63.74.63,1.1a1.77,1.77,0,0,1-.66,1.52,4.1,4.1,0,0,1-2.51.65,4.47,4.47,0,0,1-3.63-1.36,1.78,1.78,0,0,0-2.52,2.52,7.64,7.64,0,0,0,5,2.34v.94a1.15,1.15,0,0,0,1.13,1.12h.07a1.14,1.14,0,0,0,1.12-1.16v-.93a7,7,0,0,0,3.49-1.31,4.73,4.73,0,0,0,.52-.45,5.37,5.37,0,0,0,1.53-3.89A4.71,4.71,0,0,0,147.29,54.08Z"/></g></g></svg>