<svg xmlns="http://www.w3.org/2000/svg" viewBox="0 0 200 90"><defs><style>.cls-1,.cls-2{fill:#1e5748;}.cls-2,.cls-3,.cls-4{stroke:#1e5748;stroke-linejoin:round;}.cls-2,.cls-3{stroke-width:2px;}.cls-3,.cls-4{fill:none;}.cls-4{stroke-linecap:round;}</style></defs><title>bankAccounts</title><g id="ARTWORK"><path class="cls-1" d="M95.27,45.78a2.73,2.73,0,0,0-1.9-.79H90c-1-2.63-3-7.08-5.94-10.13,1.36-2.51,2.34-5.76,1.86-7.48a2.19,2.19,0,0,0-1.16-1.45c-2.6-1.23-5.11.06-10.37,3a27.58,27.58,0,0,0-4.78-1.13,8.19,8.19,0,1,0-15.94-.1,31,31,0,0,0-11.31,4.48c-7.15,5-10.75,12.63-10.21,21.59a9.6,9.6,0,0,1-3.67-.62,6.45,6.45,0,0,0,2.06-4.51,4.79,4.79,0,0,0-4.89-5,4.85,4.85,0,0,0-4.94,5,6.68,6.68,0,0,0,1.83,4.42,7.15,7.15,0,0,1-3.22.51,1.64,1.64,0,0,0-.49,3.24,11.7,11.7,0,0,0,6.61-1.46,13.28,13.28,0,0,0,6.36,1.71c.28,0,.55,0,.82,0a36.51,36.51,0,0,0,3.32,7.91c1.58,3,3.72,6.79,5.58,9.86.3.49.91,1.42,1.45,2.22l.71,1.08A4.08,4.08,0,0,0,46.91,80h6.82a2.68,2.68,0,0,0,1.88-.8,2.64,2.64,0,0,0,.78-1.88V73.11a41.66,41.66,0,0,0,7,.23l1.36,4.3.06.16a3.53,3.53,0,0,0,1.36,1.59,3.63,3.63,0,0,0,2,.62h7.17a2.69,2.69,0,0,0,1.88-.79A2.64,2.64,0,0,0,78,77.32v-7c4.56-1.32,9.85-4.86,12.08-10.2l3.86-2a3.57,3.57,0,0,0,1.56-1.39,3.79,3.79,0,0,0,.52-1.93V47.67A2.65,2.65,0,0,0,95.27,45.78ZM25.71,51.26l-.2.17A4,4,0,0,1,24,48.65a1.59,1.59,0,0,1,1.66-1.73,1.68,1.68,0,0,1,1.13.41,1.72,1.72,0,0,1,.49,1.33A3.93,3.93,0,0,1,25.71,51.26Zm67.07,3.56a.5.5,0,0,1-.05.24s0,.07-.19.14l-4.47,2.3a1.64,1.64,0,0,0-.79.9c-1.75,4.81-7,8.19-11.2,9A1.64,1.64,0,0,0,74.76,69v7.69H68.2a.43.43,0,0,1-.24-.09.37.37,0,0,1-.12-.11l-1.19-3.74A35.67,35.67,0,0,0,70.23,72a1.64,1.64,0,0,0-.91-3.14,31,31,0,0,1-9.51,1.28c-.74,0-1.47-.08-2.15-.14a19.65,19.65,0,0,1-8.27-2.57,1.64,1.64,0,1,0-1.79,2.74,19.7,19.7,0,0,0,5.52,2.29v4.32H47a.89.89,0,0,1-.55-.42l-.74-1.12c-.51-.76-1.09-1.63-1.37-2.1-1.83-3-3.93-6.72-5.48-9.68s-3.14-6.2-3.39-9.25c-.66-8,2.46-14.88,8.79-19.29a28.14,28.14,0,0,1,10.85-4.09,8.19,8.19,0,0,0,3,2.48H53.46a.82.82,0,0,0,0,1.64H69.84a.82.82,0,0,0,0-1.64H65.26a8.18,8.18,0,0,0,2.87-2.36,22.14,22.14,0,0,1,5.57,1.31,1.64,1.64,0,0,0,1.58,0c4.28-2.4,6.29-3.46,7.47-3.44a14.32,14.32,0,0,1-2.14,5.48,1.64,1.64,0,0,0,.29,2.14c3.33,2.9,5.59,8.52,6.41,10.8a1.64,1.64,0,0,0,1.54,1.09h3.92Z"/><path class="cls-1" d="M80.32,45.77a2.46,2.46,0,1,0,2.46,2.46A2.45,2.45,0,0,0,80.32,45.77Z"/><path class="cls-2" d="M149.55,45.58l30.4-27.19a4.12,4.12,0,0,0,.3-5.81,4.07,4.07,0,0,0-5.78-.3l-30.4,27.19Z"/><path class="cls-3" d="M144.07,39.48l-8.59,13s13.78-6.9,14.07-6.95Z"/><path class="cls-4" d="M102.14,61.2c5.21,2.78,9.38,1.21,12.73-2.31a3.75,3.75,0,0,0,1-4c-.73-1.71-3.33-1.86-4.8-.45a4.75,4.75,0,0,0-1.28,2.66,4.43,4.43,0,0,0,2.14,4.58,9.8,9.8,0,0,0,6.61.81c2.11-.41,5.92-2.21,7.73-5.16.62-1,.72-3.15-1.18-3.68A3.24,3.24,0,0,0,121,56.19c-.44,2.46,2.21,6,5,6.38a8.3,8.3,0,0,0,5.56-1.12,12.37,12.37,0,0,0,4.62-4,3.65,3.65,0,0,0,.58-3.15,2.21,2.21,0,0,0-1.63-1.14"/><path class="cls-1" d="M161.52,28.36a3,3,0,0,0-3-3h0l-69.19.08a6.52,6.52,0,0,1,.34.91,6.94,6.94,0,0,1,.18.9c0,.1,0,.19,0,.29s0,.1,0,.15,0,.34,0,.51,0,.21,0,.32,0,.12,0,.18,0,.39,0,.58,0,.12,0,.19h0l67.68-.07V68.89h-69q-.71.64-1.46,1.21h0q-.75.57-1.52,1.07h0q-.76.49-1.53.92l0,0q-.78.43-1.55.78h76a3.05,3.05,0,0,0,3-3.05Z"/><path class="cls-1" d="M144.36,37.47h0l-53.7.19c.38.67.72,1.34,1,2l52.66-.19a1,1,0,0,0,0-2Z"/><path class="cls-1" d="M139.39,45h0l-40.26.16a6.64,6.64,0,0,1,.45,2L139.4,47a1,1,0,0,0,0-2Z"/></g></svg>