<svg xmlns="http://www.w3.org/2000/svg" viewBox="0 0 200 90"><defs><style>.cls-1{fill:#1e5748;}</style></defs><title>savingInvesting</title><g id="ARTWORK"><path class="cls-1" d="M111.38,41c6.47-1.69,13.94-5.48,18.52-10.35v3.68a1.29,1.29,0,0,0,2.59,0V27.47a1.32,1.32,0,0,0-1.29-1.29h-6.67a1.29,1.29,0,1,0,0,2.59h3.78C124,33.44,116.86,37,110.78,38.62a1.22,1.22,0,0,0-.9,1.49A1.14,1.14,0,0,0,111.38,41Z"/><polygon class="cls-1" points="125.12 42.5 125.12 53.46 120.84 53.46 120.84 46.09 113.37 46.09 113.37 53.36 109.89 53.36 109.89 55.84 147.82 55.84 147.82 53.36 144.34 53.36 144.34 33.64 136.87 33.64 136.87 53.46 132.59 53.46 132.59 42.5 125.12 42.5"/><path class="cls-1" d="M154.49,10H103a1.32,1.32,0,0,0-1.29,1.29v52A1.32,1.32,0,0,0,103,64.61h10.25L107.8,78.45a1.23,1.23,0,0,0,2.39.6l5.58-14.44h11.65V78.75a1.29,1.29,0,1,0,2.59,0v-14h11.65L148.22,79a1.23,1.23,0,0,0,2.39-.6l-6.47-13.74h10.25a1.32,1.32,0,0,0,1.29-1.29V11.34A1.24,1.24,0,0,0,154.49,10Zm-11.65,3.68A1.29,1.29,0,1,1,141.55,15,1.25,1.25,0,0,1,142.84,13.73Zm-28.18,0A1.29,1.29,0,1,1,113.37,15,1.26,1.26,0,0,1,114.67,13.73ZM153.2,62.12H104.31V20.3H153.2V62.12Z"/><ellipse class="cls-1" cx="63.68" cy="33.85" rx="10.1" ry="4.04" transform="translate(-0.04 0.07) rotate(-0.06)"/><path class="cls-1" d="M73.8,48c0,2.23-4.52,4-10.1,4.05-.69,0-1.37,0-2-.08v4c.65.05,1.33.08,2,.08a20,20,0,0,0,7.08-1.17,3.19,3.19,0,0,1,0-.45c0-1.63,1.21-2.91,3.06-3.82Z"/><path class="cls-1" d="M70.75,56.95a20.05,20.05,0,0,1-7,1.15c-.69,0-1.37,0-2-.08v4c.65.05,1.33.08,2,.08A20,20,0,0,0,70.79,61a3.19,3.19,0,0,1,0-.45Z"/><path class="cls-1" d="M73.79,39.9v-4c0,2.23-4.52,4-10.1,4.05s-10.11-1.8-10.11-4v4a1.67,1.67,0,0,0,0,.36c3.31.59,5.95,1.88,7.22,3.51a24.46,24.46,0,0,0,2.85.16C69.27,44,73.79,42.14,73.79,39.9Z"/><path class="cls-1" d="M73.8,46v-4c0,2.23-4.52,4-10.1,4.05-.69,0-1.37,0-2-.08,0,0,0,.05,0,.08v4c.65.05,1.33.08,2,.08C69.28,50,73.8,48.2,73.8,46Z"/><path class="cls-1" d="M49.56,56.1c5.58,0,10.1-1.82,10.1-4.05V48c0,2.23-4.52,4-10.1,4.05s-10.11-1.8-10.11-4v4C39.45,54.3,44,56.1,49.56,56.1Z"/><path class="cls-1" d="M49.56,62.16c5.58,0,10.1-1.82,10.1-4.05v-4c0,2.23-4.52,4-10.1,4.05s-10.11-1.8-10.11-4v4C39.46,60.36,44,62.17,49.56,62.16Z"/><ellipse class="cls-1" cx="49.55" cy="45.99" rx="10.1" ry="4.04" transform="translate(-0.05 0.05) rotate(-0.06)"/><path class="cls-1" d="M49.57,64.18c-5.58,0-10.11-1.8-10.11-4v4c0,2.23,4.53,4,10.11,4s10.1-1.82,10.1-4.05v-4C59.67,62.36,55.15,64.17,49.57,64.18Z"/><path class="cls-1" d="M92.39,68.59c0,2.23-4.52,4-10.1,4.05s-10.11-1.8-10.11-4v4c0,2.23,4.53,4,10.11,4s10.1-1.82,10.1-4.05Z"/><path class="cls-1" d="M82.29,70.62c5.58,0,10.1-1.82,10.1-4.05v-4c0,2.23-4.52,4-10.1,4.05s-10.11-1.8-10.11-4v4C72.18,68.82,76.71,70.63,82.29,70.62Z"/><path class="cls-1" d="M82.28,64.56c5.58,0,10.1-1.82,10.1-4.05v-4c0,2.23-4.52,4-10.1,4.05-3.61,0-6.78-.75-8.56-1.89a2.75,2.75,0,0,1-1.55-2.14v4C72.17,62.76,76.7,64.57,82.28,64.56Z"/><path class="cls-1" d="M73.81,56.67a17.24,17.24,0,0,0,8.46,1.83c5.58,0,10.1-1.82,10.1-4.05s-4.53-4-10.11-4c-3.57,0-6.7.75-8.49,1.87a3,3,0,0,0-1.58,1.93,1.66,1.66,0,0,0,0,.25,2.06,2.06,0,0,0,.6,1.36A4.65,4.65,0,0,0,73.81,56.67Z"/></g></svg>