<svg xmlns="http://www.w3.org/2000/svg" viewBox="0 0 320 180"><defs><style>.cls-1{fill:#1e5748;}</style></defs><title>retirementSavingsCalculator-320x180</title><g id="ARTWORK"><path class="cls-1" d="M147.34,134.71c7.66-5.09,12.95-11.6,15.21-18.28-21.71,10.46-37.5,14.8-61.34,16.81A164.33,164.33,0,0,0,147.34,134.71Z"/><path class="cls-1" d="M85.52,134.23c-3.54.15-7.26.28-11.19.4a66.64,66.64,0,0,0,36.53,10.24,70,70,0,0,0,27.8-5.44C118.54,140.61,100.71,138.66,85.52,134.23Z"/><path class="cls-1" d="M143.36,90c-2.61-20.11-19.2-40.37-32.31-40.37S81.33,69.93,78.73,90.05c-13.4,3.25-21.47,9.33-21.47,19.19a20.87,20.87,0,0,0,1.25,7,117.47,117.47,0,0,0,34,15.12c20.73-1.39,48.38-5.84,71.06-19.47a22.85,22.85,0,0,0,.17-2.6C163.79,99.11,156.2,93.15,143.36,90Zm-72.12,11.1a9.12,9.12,0,0,0-2,2.51A9.12,9.12,0,0,1,71.24,101.09Zm-2.67,5.23h0a6.61,6.61,0,0,0,0,.89A6.61,6.61,0,0,1,68.57,106.32Zm61.88,11.73c-1.6,1.41-11.67,2.71-19.4,2.71s-18.44-1.09-19.14-2.35c-4.67-5.35-7.56-13.14-7.56-23,0-18.66,16.1-39.69,26.64-39.69s26.69,21,26.69,39.67c0,9.72-2.73,17.4-7.25,22.76Z"/><path class="cls-1" d="M63.78,125.28a43.83,43.83,0,0,0,6.74,6.6h7.82A100.87,100.87,0,0,1,63.78,125.28Z"/><path class="cls-1" d="M118.1,89.6a10.28,10.28,0,0,0-5.84-2.44l-3.2-.5c-1-.15-2.14-.56-2.14-1.69a2.42,2.42,0,0,1,2.56-2.24,7.18,7.18,0,0,1,4.72,1.51,2.76,2.76,0,0,0,1.87.73,2.91,2.91,0,0,0,2.1-.92,2.81,2.81,0,0,0,.73-2,2.86,2.86,0,0,0-.92-2,11.69,11.69,0,0,0-5.7-2.66V75.28a1.81,1.81,0,0,0-1.83-1.86,1.87,1.87,0,0,0-1.83,1.83v1.89a7.56,7.56,0,0,0-7.3,7.81h0a6.29,6.29,0,0,0,2.11,5,10,10,0,0,0,4.72,2.21l3.3.51a5.29,5.29,0,0,1,3,1.13c.92.79,1,1.18,1,1.74a2.8,2.8,0,0,1-1,2.41,6.55,6.55,0,0,1-4,1,7.08,7.08,0,0,1-5.75-2.17,2.81,2.81,0,1,0-4,4,12.07,12.07,0,0,0,7.93,3.71v1.51a1.82,1.82,0,0,0,1.74,1.77h.11a1.81,1.81,0,0,0,1.78-1.83v-1.51a11.13,11.13,0,0,0,5.54-2.07,9.14,9.14,0,0,0,.81-.71,8.47,8.47,0,0,0,2.42-6.16A7.44,7.44,0,0,0,118.1,89.6Z"/><rect class="cls-1" x="195.15" y="75.73" width="11.47" height="11.47" rx="0.25" ry="0.25"/><rect class="cls-1" x="212.39" y="75.73" width="11.47" height="11.47" rx="0.25" ry="0.25"/><rect class="cls-1" x="230.1" y="75.73" width="11.47" height="11.47" rx="0.25" ry="0.25"/><rect class="cls-1" x="194.67" y="97.2" width="11.47" height="11.47" rx="0.25" ry="0.25"/><rect class="cls-1" x="212.39" y="97.2" width="11.47" height="11.47" rx="0.25" ry="0.25"/><rect class="cls-1" x="230.1" y="97.2" width="11.47" height="11.47" rx="0.25" ry="0.25"/><rect class="cls-1" x="194.67" y="118.88" width="11.47" height="11.47" rx="0.25" ry="0.25"/><rect class="cls-1" x="212.39" y="118.88" width="11.47" height="11.47" rx="0.25" ry="0.25"/><rect class="cls-1" x="230.1" y="118.88" width="11.47" height="11.47" rx="0.25" ry="0.25"/><path class="cls-1" d="M250.86,144.88H185.37a3.21,3.21,0,0,1-3.21-3.21V39.46A3.12,3.12,0,0,1,183.37,37a2.86,2.86,0,0,1,2.2-.57h65.09a2.89,2.89,0,0,1,2.21.57,3.14,3.14,0,0,1,1.2,2.48V141.67A3.21,3.21,0,0,1,250.86,144.88Zm-64.52-4.18H249.9V40.59H186.34Z"/><path class="cls-1" d="M240.92,65.24l-45.73,0a2.46,2.46,0,0,1-1.9-2.3V51.56a2.08,2.08,0,0,1,.8-1.65,1.92,1.92,0,0,1,1.49-.35h45.08a1.93,1.93,0,0,1,1.49.35,2.07,2.07,0,0,1,.79,1.65V62.9a2.46,2.46,0,0,1-1.89,2.3Zm-45.29-2.09h45c.16-.07.25-.18.25-.25V51.65H195.39V62.9C195.38,63,195.48,63.08,195.63,63.15Z"/></g></svg>