<svg xmlns="http://www.w3.org/2000/svg" viewBox="0 0 200 90"><defs><style>.cls-1{fill:#1e5748;}.cls-2,.cls-3,.cls-4,.cls-5,.cls-6,.cls-7{fill:none;stroke:#1e5748;}.cls-2,.cls-4,.cls-6,.cls-7{stroke-linecap:round;}.cls-2,.cls-7{stroke-linejoin:round;}.cls-2{stroke-width:4px;}.cls-3,.cls-4,.cls-5,.cls-6{stroke-miterlimit:10;}.cls-3,.cls-4,.cls-5{stroke-width:2px;}.cls-5{stroke-dasharray:4.19 3.14;}.cls-7{stroke-width:3px;}</style></defs><title>TDpublic_illustrations_200x90_02_CreditCards</title><g id="ARTWORK"><path class="cls-1" d="M132.84,71.86a.61.61,0,0,1-.27-.12.69.69,0,0,1-.21-.78l1.48-4.13-3.36-2.55a.69.69,0,0,1-.23-.77.67.67,0,0,1,.65-.46l4.19.13L136.43,59a.67.67,0,0,1,.64-.48.64.64,0,0,1,.61.49l1.1,4.21,4.19,0a.64.64,0,0,1,.62.48.71.71,0,0,1-.27.77l-3.5,2.47,1.25,4.16a.71.71,0,0,1-.26.77.63.63,0,0,1-.78,0l-3.27-2.68-3.42,2.6A.63.63,0,0,1,132.84,71.86Zm2.71-8h0Z"/><path class="cls-1" d="M155.88,71.86a.61.61,0,0,1-.27-.12.69.69,0,0,1-.21-.78l1.48-4.13-3.36-2.55a.69.69,0,0,1-.23-.77.67.67,0,0,1,.65-.46l4.19.13L159.47,59a.67.67,0,0,1,.64-.48.64.64,0,0,1,.61.49l1.1,4.21,4.19,0a.64.64,0,0,1,.62.48.71.71,0,0,1-.27.77l-3.5,2.47,1.25,4.16a.71.71,0,0,1-.26.77.63.63,0,0,1-.78,0l-3.27-2.68-3.42,2.6A.63.63,0,0,1,155.88,71.86Zm2.71-8h0Z"/><path class="cls-1" d="M144.39,58a.61.61,0,0,1-.27-.12.69.69,0,0,1-.22-.77l1.44-4.15L142,50.41a.69.69,0,0,1-.23-.77.67.67,0,0,1,.64-.47l4.19.09,1.3-4.19a.67.67,0,0,1,.63-.48.64.64,0,0,1,.61.49l1.14,4.2,4.19-.07a.64.64,0,0,1,.62.47.71.71,0,0,1-.26.77l-3.48,2.51,1.29,4.15a.71.71,0,0,1-.25.78.63.63,0,0,1-.78,0l-3.29-2.65-3.39,2.64A.63.63,0,0,1,144.39,58ZM147,50h0Z"/><rect class="cls-2" x="124.14" y="35.49" width="48.59" height="42.51" rx="1" ry="1"/><path class="cls-3" d="M148.5,34.89c8.48-.47,16.26-5.62,12.72-10.12S149.08,27.61,148.5,34.89Z"/><path class="cls-3" d="M148.43,34.89c-8.48-.47-16.26-5.62-12.72-10.12S147.85,27.61,148.43,34.89Z"/><line class="cls-4" x1="148.43" y1="36.65" x2="133.25" y2="44.6"/><line class="cls-4" x1="148.43" y1="36.65" x2="163.62" y2="44.6"/><path class="cls-1" d="M67.71,49.57a2.25,2.25,0,0,0-2.88-1.15l-5.59,2-5.79-6a2.1,2.1,0,0,0-2.4-.6c-.63.23-1.94.69-1.25,2.63l2.94,6.25-4.62,1.63-2.59-2.13A1,1,0,0,0,44.48,52c-.18.08-1.28.3-1,1.14l2.14,4.27,1,4.67c.22.6.72.53,1.47.29.5-.17.51-.38.63-.92l.73-3.23,4.6-1.64,1.65,6.71a1.77,1.77,0,0,0,2.62,1.25,2.1,2.1,0,0,0,1.48-2l.74-8.3,5.6-2a2.24,2.24,0,0,0,1.51-2.68Z"/><line class="cls-3" x1="70.66" y1="29.7" x2="71.32" y2="31.59"/><line class="cls-5" x1="72.35" y1="34.55" x2="81.49" y2="60.75"/><line class="cls-3" x1="82.01" y1="62.24" x2="82.67" y2="64.12"/><line class="cls-6" x1="84.8" y1="48.97" x2="95.73" y2="45.25"/><line class="cls-6" x1="86.29" y1="53.35" x2="97.22" y2="49.63"/><path class="cls-2" d="M105.85,55.64,39.17,77.93a1.3,1.3,0,0,1-1.64-.82L27,46a1.3,1.3,0,0,1,.8-1.65L94.44,22.08a1.3,1.3,0,0,1,1.64.82L106.65,54A1.3,1.3,0,0,1,105.85,55.64Z"/><path class="cls-7" d="M33.71,42.57l-2.26-6.65a1.3,1.3,0,0,1,.8-1.65L98.94,12a1.3,1.3,0,0,1,1.64.82l10.57,31.09a1.3,1.3,0,0,1-.8,1.65L105.87,47"/><path class="cls-1" d="M85.43,43.8a.52.52,0,0,1-.25,0,.58.58,0,0,1-.41-.55l-.11-3.72-3.44-1A.59.59,0,0,1,80.8,38a.57.57,0,0,1,.37-.57l3.34-1.19-.24-3.71a.57.57,0,0,1,.35-.57.54.54,0,0,1,.63.2l2.17,3,3.29-1.32a.54.54,0,0,1,.64.19.6.6,0,0,1,0,.69l-2,3,2.27,2.89a.6.6,0,0,1,0,.69.53.53,0,0,1-.62.23l-3.41-1.1-1.89,3.11A.54.54,0,0,1,85.43,43.8Zm-.34-7.14h0Z"/></g></svg>