<?xml version="1.0" encoding="utf-8"?>
<!-- Generator: Adobe Illustrator 21.0.2, SVG Export Plug-In . SVG Version: 6.00 Build 0)  -->
<svg version="1.1" id="Layer_1" xmlns="http://www.w3.org/2000/svg" xmlns:xlink="http://www.w3.org/1999/xlink" x="0px" y="0px"
	 viewBox="0 0 254.1 106.8" style="enable-background:new 0 0 254.1 106.8;" xml:space="preserve">
<style type="text/css">
	.st0{fill:#C69214;}
</style>
<g>
	<path d="M246.7,64.6l5.2,5.2l-0.3,1.4l-10.2-2.5l0.5-2l5.7,1.4l-3.4-3.4l0.3-1.4l4.6-1.5l-5.7-1.4l0.5-2l10.2,2.5l-0.3,1.4
		L246.7,64.6z"/>
	<path d="M247.6,79.7c-1.6,2.8-4.8,3.6-7.4,2.1c-2.6-1.5-3.6-4.6-2-7.5c1.6-2.8,4.8-3.6,7.4-2.1C248.2,73.8,249.2,76.9,247.6,79.7z
		 M239.8,75.3c-1,1.7-0.3,3.8,1.4,4.8c1.7,1,3.9,0.5,4.9-1.2c1-1.7,0.3-3.8-1.4-4.8C242.9,73.1,240.8,73.5,239.8,75.3z"/>
	<path d="M242.4,87.4l-1,1l-9-0.6l4.9,4.8l-1.4,1.4l-7.5-7.4l1-1l9,0.6l-4.9-4.8l1.4-1.4L242.4,87.4z"/>
	<path d="M232.3,96.9l-1.2,0.7l-8.6-2.9l3.5,5.9l-1.8,1l-5.4-9.1l1.2-0.7l8.6,2.9l-3.5-5.9l1.7-1L232.3,96.9z"/>
	<path d="M217.8,93.1l-1.5,11.4l-1.4,0.4l-7.2-8.9l2-0.6l1.6,2l4.1-1.2l0.3-2.5L217.8,93.1z M215.2,98.1l-2.6,0.7l2.1,2.6
		L215.2,98.1z"/>
	<path d="M207.4,106.5l-2,0.2l-1-10.5l2-0.2L207.4,106.5z"/>
	<path d="M199.6,104.9l0.1-2.2l-3.2-0.1l0.1-1.8l3.2,0.1l0.1-2.9l-4.4-0.2l0.1-1.8l6.5,0.3l-0.5,10.5l-6.3-0.3l0.1-1.8L199.6,104.9z
		"/>
	<g>
		<path d="M186.2,98.5l1.6-4.4l1.9,0.7l-3.6,9.9l-3.6-1.3c-1-0.4-1.6-0.9-1.9-1.5c-0.3-0.7-0.4-1.6-0.1-2.3c0.3-0.8,0.9-1.4,1.6-1.7
			c0.4-0.2,0.8-0.2,1.2-0.2l-2-5.9l2.4,0.9l1.9,5.7L186.2,98.5z M184,99.6c-0.6-0.2-0.8-0.2-1.1-0.1c-0.2,0.1-0.5,0.4-0.6,0.6
			c-0.1,0.3-0.1,0.6,0,0.9c0.1,0.2,0.3,0.5,0.8,0.7l1.6,0.6l0.8-2.1L184,99.6z"/>
		<path d="M171.4,98c-2.7-1.8-3.3-5.1-1.6-7.6c1.7-2.5,4.9-3.3,7.6-1.5c2.7,1.8,3.3,5.1,1.6,7.6C177.3,99,174.1,99.8,171.4,98z
			 M176.4,90.4c-1.7-1.1-3.8-0.6-4.9,1.1c-1.1,1.7-0.8,3.8,0.9,4.9c1.7,1.1,3.8,0.6,4.9-1.1C178.4,93.7,178,91.5,176.4,90.4z"/>
		<path d="M166.3,86.1l3.4-3.4l1.4,1.4l-3.4,3.4l-1.5,6.6l-1.6-1.6l1-4.3l-4.3,1l-1.6-1.6L166.3,86.1z"/>
		<path d="M168.3,81.6L157,83.7l-0.8-1.2l6.2-9.6l1.2,1.8l-1.4,2.1l2.4,3.5l2.5-0.5L168.3,81.6z M162.7,80.7l-1.5-2.2l-1.8,2.9
			L162.7,80.7z"/>
		<path d="M152.3,75.6l-0.8-1.9l8.1-3.2l-1.6-4.1l1.7-0.7l2.4,6L152.3,75.6z"/>
		<path d="M150.3,64l2.1-0.5l-0.7-3.2l1.8-0.4l0.7,3.2l2.9-0.6l-0.9-4.3l1.8-0.4l1.4,6.3L149,66.4l-1.3-6.2l1.8-0.4L150.3,64z"/>
	</g>
	<g>
		<path d="M231.2,44.5c-2,0.3-3.3,2.1-3,4.1c0.2,1.4,1,2.2,1.9,2.7l-1,1.6c-1.3-0.7-2.4-2.1-2.7-4c-0.5-3.2,1.4-5.9,4.4-6.4
			c3-0.5,5.7,1.4,6.3,4.6c0.3,1.5-0.1,3-0.9,4l-1.6-1.1c0.5-0.7,0.8-1.7,0.7-2.7C235,45.4,233.2,44.2,231.2,44.5z"/>
		<path d="M227.4,53.8l9.3,6.7l-0.3,1.4L225.1,64l0.5-2.1l2.5-0.5l0.9-4.1l-2.1-1.5L227.4,53.8z M230.6,58.5l-0.6,2.6l3.3-0.6
			L230.6,58.5z"/>
		<path d="M232.8,71.7l-0.9,1.1l-9,0.5l5.4,4.2l-1.2,1.6l-8.4-6.4l0.9-1.1l9-0.5l-5.4-4.2l1.2-1.6L232.8,71.7z"/>
		<path d="M217.7,73.7l0.9,11.4l-1.3,0.7l-8.9-7.2l1.9-1l2,1.6l3.7-2l-0.2-2.5L217.7,73.7z M216.2,79.2l-2.4,1.2l2.6,2.1L216.2,79.2
			z"/>
		<path d="M204.3,89.5c-1.7,0.1-2.8-0.2-3.7-0.7c-1.4-0.9-2.3-2.4-2.4-4.1c-0.1-1.7,0.6-3.4,1.8-4.4c0.8-0.7,1.9-1.1,3.6-1.2
			l3.3-0.2l0.7,10.5L204.3,89.5z M201.2,86.8c0.6,0.7,1.5,1.1,2.8,1l1.5-0.1l-0.5-6.9l-1.5,0.1c-1.2,0.1-2.1,0.6-2.6,1.4
			c-0.4,0.6-0.7,1.5-0.6,2.3C200.4,85.4,200.7,86.2,201.2,86.8z"/>
		<path d="M194,89.2l-2-0.4l2.3-10.3l2,0.4L194,89.2z"/>
		<path d="M185.4,84.2l1-1.9l-2.9-1.5l0.9-1.6l2.9,1.5l1.4-2.6l-3.9-2.1l0.9-1.6l5.7,3.1l-5,9.3l-5.6-3l0.9-1.6L185.4,84.2z"/>
		<path d="M175.4,79.6l-0.9-1.1l1.7-8.9l-5.4,4.3l-1.3-1.6l8.2-6.6l0.9,1.1l-1.7,8.9l5.4-4.3l1.3,1.6L175.4,79.6z"/>
		<path d="M166.3,65.6l-0.3-1.4l5.5-7.2l-6.7,1.4l-0.4-2l10.3-2.2l0.3,1.4l-5.5,7.2l6.7-1.4l0.4,2L166.3,65.6z"/>
		<path d="M166.8,48.1l2.1,0.4l0.7-3.2l1.8,0.4l-0.7,3.2l2.9,0.6l0.9-4.3l1.8,0.4l-1.3,6.3l-10.3-2.2l1.3-6.2l1.8,0.4L166.8,48.1z"
			/>
	</g>
	<path d="M154.1,45.4l4.6,1l-0.4,2l-10.3-2.2l0.8-3.8c0.2-1.1,0.7-1.7,1.2-2.1c0.6-0.5,1.5-0.6,2.3-0.5c0.8,0.2,1.5,0.7,1.9,1.4
		c0.2,0.3,0.3,0.7,0.4,1.2l5.5-2.9l-0.5,2.5l-5.3,2.7L154.1,45.4z M152.6,43.4c0.1-0.6,0.1-0.8-0.1-1.1c-0.2-0.2-0.4-0.4-0.7-0.5
		c-0.3-0.1-0.6,0-0.9,0.1c-0.2,0.1-0.4,0.4-0.5,0.9l-0.3,1.7l2.2,0.5L152.6,43.4z"/>
	<path d="M152.4,30.7c1.4-2.9,4.5-3.9,7.2-2.7c2.7,1.3,4,4.3,2.6,7.3c-1.4,2.9-4.5,3.9-7.2,2.7C152.3,36.7,151,33.7,152.4,30.7z
		 M160.6,34.6c0.8-1.8,0-3.8-1.8-4.7c-1.8-0.8-3.9-0.2-4.7,1.6c-0.8,1.8,0,3.8,1.8,4.7C157.7,37,159.8,36.4,160.6,34.6z"/>
	<path d="M163.4,24l3.8,2.9l-1.2,1.6l-3.8-2.9l-6.8-0.6l1.4-1.9l4.4,0.4l-1.6-4.1l1.4-1.9L163.4,24z"/>
	<path d="M168.2,25.4l-3.8-10.8l1.1-1l10.4,4.7l-1.6,1.4l-2.3-1.1l-3.1,2.9l0.8,2.4L168.2,25.4z M168.3,19.7l2-1.8l-3.1-1.4
		L168.3,19.7z"/>
	<path d="M171.7,8.6l1.8-1l4.4,7.6l3.8-2.2l0.9,1.6l-5.6,3.2L171.7,8.6z"/>
	<path d="M186.8,7.3c0.5,2,2.4,3.1,4.3,2.7c1.3-0.3,2.1-1.2,2.6-2.1l1.7,0.9c-0.6,1.4-2,2.5-3.8,3c-3.2,0.8-6-1-6.7-4
		c-0.7-2.9,0.9-5.8,4.1-6.6c1.5-0.4,3-0.1,4.1,0.6l-0.9,1.7c-0.8-0.5-1.7-0.7-2.7-0.5C187.4,3.4,186.3,5.4,186.8,7.3z"/>
	<path d="M195.7,10.6L200.1,0l1.4,0l4.7,10.5l-2.1,0l-1-2.3l-4.2,0.1l-1,2.3L195.7,10.6z M199.5,6.4l2.7,0l-1.4-3.1L199.5,6.4z"/>
	<path d="M209.6,0.5l1.4,0.4l4,8.1l1.7-6.7l2,0.5L216.1,13l-1.4-0.4l-4-8.1l-1.7,6.7l-2-0.5L209.6,0.5z"/>
	<path d="M217.2,13.5l9-7l1.3,0.7l-1.1,11.4l-1.9-1l0.3-2.5l-3.7-2l-2,1.6L217.2,13.5z M222.6,11.7l2.3,1.3l0.3-3.4L222.6,11.7z"/>
	<path d="M236.8,13.7c1.2,1.1,1.8,2.1,2,3.2c0.3,1.6-0.2,3.3-1.4,4.6c-1.2,1.3-2.8,1.9-4.4,1.7c-1.1-0.1-2.1-0.6-3.3-1.7l-2.4-2.3
		l7.2-7.7L236.8,13.7z M236.9,17.9c0.1-0.9-0.3-1.8-1.2-2.7l-1.1-1l-4.7,5.1l1.1,1c0.9,0.8,1.8,1.1,2.8,1c0.8-0.1,1.5-0.5,2.1-1.2
		C236.5,19.4,236.8,18.6,236.9,17.9z"/>
	<path d="M242.7,19.9l1.2,1.6l-8.3,6.5l-1.2-1.6L242.7,19.9z"/>
	<path d="M236.5,28.9L248,28l0.7,1.3l-7.2,8.9l-1-1.9l1.6-2l-2-3.7l-2.5,0.2L236.5,28.9z M242,30.5l1.2,2.4l2.1-2.6L242,30.5z"/>
	<path d="M252.1,37l0.3,1.4l-5.4,7.2l6.7-1.5l0.5,2l-10.3,2.3l-0.3-1.4l5.4-7.2l-6.7,1.5l-0.5-2L252.1,37z"/>
	<path d="M185.6,27.5l0.1-7.4l1.2-0.7l5.4,9.1l-1.8,1l-3-5.1l-0.1,4.9l-1.2,0.7l-4.3-2.3l3,5.1l-1.7,1l-5.4-9.1l1.2-0.7L185.6,27.5z
		"/>
	<path d="M194.6,17.1l2-0.3l1.5,10.4l-2,0.3L194.6,17.1z"/>
	<path d="M204.4,16.9l1.4,0.3l4.2,8l1.5-6.7l2,0.4l-2.3,10.3l-1.4-0.3l-4.2-8l-1.5,6.7l-2-0.4L204.4,16.9z"/>
	<path d="M225,25.3l-1,1.5l-2.3-1.6l-5,7.2l-1.7-1.2l5-7.2l-2.3-1.6l1-1.5L225,25.3z"/>
</g>
<g>
	<path class="st0" d="M71,90.2c0-5.7-4.7-10.4-10.4-10.4c-5.7,0-10.4,4.7-10.4,10.4c0,5.7,4.7,10.4,10.4,10.4
		C66.3,100.6,71,96,71,90.2z"/>
	<path class="st0" d="M85.1,86c-5.7,0-10.4,4.7-10.4,10.4c0,5.7,4.7,10.4,10.4,10.4c5.7,0,10.4-4.7,10.4-10.4
		C95.5,90.7,90.9,86,85.1,86z"/>
	<circle class="st0" cx="65.6" cy="70.3" r="7.3"/>
	<circle class="st0" cx="41.2" cy="85.5" r="7.5"/>
	<path class="st0" d="M98.6,77.7c5,0,9-4,9-9c0-5-4-9-9-9c-5,0-9,4-9,9C89.6,73.7,93.6,77.7,98.6,77.7z"/>
	<circle class="st0" cx="82.6" cy="77" r="7.5"/>
	<circle class="st0" cx="75.5" cy="50.1" r="6.9"/>
	<circle class="st0" cx="51.1" cy="73.9" r="6.4"/>
	<circle class="st0" cx="108.7" cy="51.9" r="5.4"/>
	<circle class="st0" cx="67.8" cy="39.6" r="4.8"/>
	<ellipse class="st0" cx="70.9" cy="101.5" rx="3.4" ry="3.4"/>
	<path class="st0" d="M45.6,93.3c-2.8,0.1-4.9,2.5-4.8,5.3c0.1,2.7,2.3,4.8,5,4.8l0,0c0.1,0,0.2,0,0.2,0c2.8-0.1,4.9-2.5,4.8-5.3
		C50.7,95.3,48.4,93.2,45.6,93.3z"/>
	<circle class="st0" cx="114" cy="72.2" r="5.4"/>
	<circle class="st0" cx="83.6" cy="61.9" r="6.4"/>
	<circle class="st0" cx="99.3" cy="85.3" r="6.4"/>
	<ellipse class="st0" cx="95.7" cy="52.3" rx="6.4" ry="6.4"/>
	<circle class="st0" cx="119.9" cy="48.2" r="4.6"/>
	<ellipse class="st0" cx="101.7" cy="40.8" rx="3.3" ry="3.3"/>
	<path class="st0" d="M109.8,61.4c0,2.2,1.8,4,4,4h0c2.2,0,4-1.8,4-4c0-2.2-1.8-4-4-4C111.6,57.4,109.8,59.1,109.8,61.4z"/>
	<circle class="st0" cx="45.5" cy="63.3" r="4.2"/>
	<circle class="st0" cx="80.7" cy="38.9" r="4.2"/>
	<ellipse class="st0" cx="47.1" cy="37.3" rx="4.6" ry="4.6"/>
	<path class="st0" d="M123.6,66c-1.8,0-3.3,1.5-3.3,3.3c0,1.8,1.5,3.3,3.3,3.3h0c1.8,0,3.3-1.5,3.3-3.3
		C126.9,67.4,125.4,66,123.6,66z"/>
	<path class="st0" d="M39.2,61.9c-1-4-4.6-6.7-8.7-6.7c-0.8,0-1.5,0.1-2.3,0.3c-2.3,0.6-4.3,2.1-5.5,4.2c-1.2,2.1-1.6,4.5-1,6.8
		c1,4,4.6,6.7,8.7,6.8c0.8,0,1.5-0.1,2.3-0.3C37.5,71.7,40.4,66.7,39.2,61.9z"/>
	<path class="st0" d="M12.7,64.6c1.4-0.4,2.5-1.2,3.3-2.5c0.7-1.2,0.9-2.7,0.6-4.1c-0.6-2.4-2.7-4-5.2-4c-0.5,0-0.9,0.1-1.4,0.2
		c-1.4,0.4-2.6,1.2-3.3,2.5c-0.7,1.2-0.9,2.7-0.6,4.1c0.6,2.4,2.8,4,5.2,4C11.8,64.8,12.3,64.7,12.7,64.6z"/>
	<path class="st0" d="M28.9,75.2c-0.3,0-0.5,0-0.8,0.1c-1.6,0.4-2.6,2.1-2.2,3.7c0.4,1.3,1.6,2.2,3,2.2c0.3,0,0.5,0,0.8-0.1
		c1.6-0.4,2.6-2.1,2.2-3.7C31.5,76.1,30.3,75.2,28.9,75.2z"/>
	<path class="st0" d="M26.4,50.3c0.6,2.2,2.5,3.7,4.7,3.7c0.4,0,0.8-0.1,1.2-0.2c1.3-0.3,2.3-1.1,3-2.3c0.7-1.1,0.8-2.5,0.5-3.7
		c-0.6-2.2-2.5-3.7-4.8-3.7c-0.4,0-0.8,0.1-1.2,0.2C27.3,45,25.7,47.7,26.4,50.3z"/>
	<path class="st0" d="M21.1,75.1c0.9-1.5,1.1-3.2,0.7-4.8c-0.7-2.8-3.3-4.8-6.2-4.8c-0.5,0-1.1,0.1-1.6,0.2c-1.6,0.4-3,1.5-3.9,2.9
		c-0.9,1.5-1.1,3.2-0.7,4.8c0.7,2.8,3.3,4.8,6.2,4.8c0.5,0,1.1-0.1,1.6-0.2C18.8,77.6,20.2,76.5,21.1,75.1z"/>
	<path class="st0" d="M5.9,54c0.4,0,0.8-0.1,1.2-0.1c1.2-0.3,2.2-1.1,2.8-2.1c0.6-1.1,0.8-2.3,0.5-3.5c-0.5-2-2.4-3.5-4.5-3.5
		c-0.4,0-0.8,0.1-1.2,0.2c-1.2,0.3-2.2,1.1-2.8,2.1c-0.6,1.1-0.8,2.3-0.5,3.5C2,52.6,3.8,54,5.9,54z"/>
	<path class="st0" d="M3.3,65.5c-0.3,0-0.6,0-0.8,0.1c-0.9,0.2-1.6,0.8-2,1.5c-0.4,0.8-0.6,1.6-0.3,2.5c0.4,1.5,1.7,2.5,3.2,2.5
		c0.3,0,0.6,0,0.8-0.1c1.8-0.5,2.8-2.3,2.4-4C6.1,66.5,4.8,65.5,3.3,65.5z"/>
	<path class="st0" d="M77.1,87.4c0.4-0.7,0.5-1.5,0.3-2.3c-0.3-1.3-1.5-2.2-2.9-2.2c-0.2,0-0.5,0-0.8,0.1c-1.6,0.4-2.5,2-2.1,3.6
		c0.3,1.3,1.5,2.2,2.9,2.2c0.3,0,0.5,0,0.7-0.1C76,88.6,76.7,88.1,77.1,87.4z"/>
	<path class="st0" d="M65.5,57.3c-0.4,0.7-0.5,1.6-0.3,2.4c0.4,1.4,1.6,2.4,3.1,2.4c0.3,0,0.5,0,0.8-0.1c0.8-0.2,1.5-0.7,1.9-1.5
		c0.4-0.7,0.6-1.6,0.3-2.4c-0.4-1.4-1.6-2.4-3.1-2.4c-0.3,0-0.5,0-0.8,0.1C66.6,56,66,56.5,65.5,57.3z"/>
	<path class="st0" d="M20.2,56.7c0.4,0,0.8-0.1,1.2-0.2c1.3-0.3,2.4-1.1,3-2.3c0.7-1.1,0.9-2.5,0.5-3.8c-0.6-2.2-2.5-3.7-4.8-3.7
		c-0.4,0-0.8,0.1-1.2,0.2c-1.3,0.3-2.4,1.1-3,2.3c-0.7,1.1-0.9,2.5-0.5,3.8C16,55.2,18,56.7,20.2,56.7z"/>
	<path class="st0" d="M32.4,86.5c-0.5-2-2.3-3.4-4.4-3.4c-0.4,0-0.8,0.1-1.2,0.2c-1.2,0.3-2.2,1.1-2.8,2.1c-0.6,1.1-0.8,2.3-0.5,3.5
		c0.5,2,2.3,3.4,4.4,3.4c0.4,0,0.8-0.1,1.2-0.2C31.5,91.5,33,89,32.4,86.5z"/>
	<path class="st0" d="M25.7,44.2L25.7,44.2c0.3,0,0.6,0,0.8-0.1c0.9-0.2,1.6-0.8,2-1.5c0.4-0.8,0.6-1.6,0.3-2.5
		c-0.4-1.5-1.7-2.5-3.2-2.5c-0.3,0-0.6,0-0.8,0.1c-0.9,0.2-1.6,0.8-2,1.5c-0.4,0.8-0.6,1.6-0.3,2.5C22.9,43.2,24.2,44.2,25.7,44.2z"
		/>
	<path class="st0" d="M23.8,81c-0.4-1.4-1.7-2.4-3.3-2.4c-0.3,0-0.7,0-1,0.1c-1.9,0.5-3,2.4-2.5,4.2c0.4,1.4,1.7,2.4,3.3,2.4
		c0.3,0,0.6,0,1-0.1C23.1,84.6,24.2,82.7,23.8,81z"/>
	<ellipse class="st0" cx="68" cy="13.8" rx="3.1" ry="3.1"/>
	<circle class="st0" cx="42.6" cy="30.1" r="2.3"/>
	<circle class="st0" cx="39.7" cy="54.8" r="2.7"/>
	<circle class="st0" cx="39.8" cy="74.2" r="2.4"/>
	<path class="st0" d="M33.7,91.6c-0.7,0-1.3,0.3-1.8,0.8c-0.5,0.5-0.7,1.2-0.7,1.9c0.1,1.4,1.2,2.5,2.6,2.5c0,0,0.1,0,0.1,0
		c0.7,0,1.3-0.3,1.8-0.8c0.5-0.5,0.7-1.2,0.7-1.9C36.3,92.6,35.1,91.5,33.7,91.6z"/>
	<path class="st0" d="M75.8,70.4L75.8,70.4c1.2,0,2.2-1,2.2-2.2c0-1.2-1-2.2-2.2-2.2c-1.2,0-2.2,1-2.2,2.2S74.6,70.4,75.8,70.4z"/>
	<path class="st0" d="M107.7,76.4c-1.5,0-2.7,1.2-2.7,2.7c0,1.5,1.2,2.7,2.7,2.7l0,0c1.5,0,2.7-1.2,2.7-2.7
		C110.5,77.6,109.2,76.4,107.7,76.4z"/>
	<path class="st0" d="M65.9,51.3c0-2.7-1.1-5.3-3-7.2c-1.9-1.9-4.5-3-7.2-3c-2.7,0-5.3,1.1-7.2,3c-1.9,1.9-3,4.5-3,7.2
		c0,2.7,1.1,5.3,3,7.2c1.9,1.9,4.5,3,7.2,3h0c2.7,0,5.3-1.1,7.2-3C64.8,56.6,65.9,54,65.9,51.3z"/>
	<path class="st0" d="M57.4,23.3L57.4,23.3c1.6,0,3.1-0.6,4.3-1.8c1.1-1.1,1.8-2.7,1.8-4.3c0-1.6-0.6-3.1-1.8-4.3
		c-1.1-1.1-2.7-1.8-4.3-1.8c-1.6,0-3.2,0.6-4.3,1.8c-1.1,1.1-1.8,2.7-1.8,4.3c0,1.6,0.6,3.1,1.8,4.3C54.3,22.7,55.8,23.3,57.4,23.3z
		"/>
	<path class="st0" d="M81.2,33.5c1.6,0,3.1-0.6,4.3-1.8c2.4-2.4,2.4-6.2,0-8.6c-1.1-1.1-2.7-1.8-4.3-1.8c-1.6,0-3.1,0.6-4.3,1.8
		c-2.4,2.4-2.4,6.2,0,8.6C78.1,32.9,79.6,33.5,81.2,33.5z"/>
	<path class="st0" d="M38.8,98.7c-0.9-0.8-2.1-1.3-3.4-1.2c-1.2,0.1-2.4,0.6-3.2,1.5c-0.8,0.9-1.3,2.1-1.2,3.4
		c0.1,1.2,0.6,2.4,1.5,3.2c0.9,0.8,2,1.2,3.1,1.2l0,0c0.1,0,0.2,0,0.2,0c1.2-0.1,2.4-0.6,3.2-1.5c0.8-0.9,1.3-2.1,1.2-3.4
		C40.3,100.7,39.7,99.5,38.8,98.7z"/>
	<path class="st0" d="M58.6,24.2c-1.8,0-3.6,0.7-4.9,2c-1.3,1.3-2,3-2,4.9c0,1.8,0.7,3.6,2,4.9c1.3,1.3,3,2,4.9,2h0
		c1.8,0,3.6-0.7,4.9-2c1.3-1.3,2-3,2-4.9c0-1.8-0.7-3.6-2-4.9C62.1,24.9,60.4,24.2,58.6,24.2z"/>
	<path class="st0" d="M63.4,10.4c1.4,0,2.7-0.5,3.7-1.5c2-2,2-5.4,0-7.4c-1-1-2.3-1.5-3.7-1.5c-1.4,0-2.7,0.5-3.7,1.5
		c-1,1-1.5,2.3-1.5,3.7c0,1.4,0.5,2.7,1.5,3.7C60.7,9.9,62,10.4,63.4,10.4z"/>
	<path class="st0" d="M38.9,22c1,0,1.9-0.4,2.6-1.1c1.4-1.4,1.4-3.8,0-5.2c-0.7-0.7-1.6-1.1-2.6-1.1c-1,0-1.9,0.4-2.6,1.1
		c-1.4,1.4-1.4,3.8,0,5.2C37,21.6,37.9,22,38.9,22z"/>
	<path class="st0" d="M47.6,27.9c1.1,0,2.1-0.4,2.8-1.2c1.6-1.6,1.6-4.1,0-5.7c-0.8-0.8-1.8-1.2-2.8-1.2c-1.1,0-2.1,0.4-2.8,1.2
		c-1.6,1.6-1.5,4.1,0,5.7C45.5,27.5,46.6,27.9,47.6,27.9z"/>
	<path class="st0" d="M65.8,19.8c-2,2-2,5.2,0,7.2c1,1,2.2,1.5,3.6,1.5c1.4,0,2.7-0.5,3.6-1.5c2-2,2-5.2,0-7.2c-1-1-2.2-1.5-3.6-1.5
		C68.1,18.3,66.8,18.8,65.8,19.8z"/>
	<path class="st0" d="M87.8,22.3c1,0,1.9-0.4,2.6-1.1c1.4-1.4,1.4-3.8,0-5.2c-0.7-0.7-1.6-1.1-2.6-1.1c-1,0-1.9,0.4-2.6,1.1
		c-1.4,1.4-1.4,3.8,0,5.2C85.9,21.9,86.8,22.3,87.8,22.3z"/>
	<circle class="st0" cx="72.6" cy="32.6" r="2.2"/>
</g>
</svg>
