<svg xmlns="http://www.w3.org/2000/svg" viewBox="0 0 200 90"><defs><style>.cls-1{fill:#1e5748;}</style></defs><title>RSPPlans</title><g id="ARTWORK"><path class="cls-1" d="M166.9,47a2.62,2.62,0,0,0-1.81-.76h-3.23a31.17,31.17,0,0,0-5.66-9.66c1.29-2.39,2.23-5.49,1.78-7.14a2.07,2.07,0,0,0-1.11-1.37C154.39,26.9,152,28.14,147,31a25,25,0,0,0-4.56-1.08,7.54,7.54,0,0,0,.22-1.78,7.81,7.81,0,1,0-15.62,0,7.72,7.72,0,0,0,.19,1.68A29.49,29.49,0,0,0,116.42,34c-6.82,4.76-10.25,12.06-9.74,20.6a9.13,9.13,0,0,1-3.5-.6,6.12,6.12,0,0,0,2-4.3A4.56,4.56,0,0,0,100.48,45a4.62,4.62,0,0,0-4.71,4.78A6.4,6.4,0,0,0,97.51,54a7,7,0,0,1-3.07.49A1.56,1.56,0,0,0,94,57.54a11.2,11.2,0,0,0,6.31-1.4,12.67,12.67,0,0,0,6.07,1.63c.26,0,.52,0,.78,0a34.6,34.6,0,0,0,3.16,7.55c1.51,2.87,3.55,6.48,5.33,9.4.28.47.87,1.35,1.38,2.12.28.41.52.78.68,1a3.9,3.9,0,0,0,3.09,1.82h6.5a2.58,2.58,0,0,0,1.8-.76,2.53,2.53,0,0,0,.74-1.8v-4a38.42,38.42,0,0,0,6.68.22l1.3,4.1.06.15a3.29,3.29,0,0,0,1.3,1.52,3.45,3.45,0,0,0,1.93.59h6.84a2.56,2.56,0,0,0,1.79-.76,2.5,2.5,0,0,0,.75-1.8V70.41c4.35-1.26,9.39-4.63,11.51-9.73l3.69-1.89a3.42,3.42,0,0,0,1.49-1.33,3.67,3.67,0,0,0,.49-1.84V48.81A2.53,2.53,0,0,0,166.9,47Zm-66.36,5.22-.19.16a3.83,3.83,0,0,1-1.46-2.65,1.52,1.52,0,0,1,1.59-1.65,1.56,1.56,0,0,1,1.07.39,1.61,1.61,0,0,1,.47,1.26A3.75,3.75,0,0,1,100.54,52.23Zm64,3.39a.49.49,0,0,1-.05.23s0,.07-.18.13L160,58.17a1.55,1.55,0,0,0-.75.86c-1.67,4.59-6.64,7.81-10.68,8.63a1.56,1.56,0,0,0-1.26,1.53v7.33h-6.25a.45.45,0,0,1-.23-.08.37.37,0,0,1-.11-.1l-1.13-3.58A33.15,33.15,0,0,0,143,72,1.57,1.57,0,0,0,144.08,70,1.55,1.55,0,0,0,142.14,69a29.36,29.36,0,0,1-9.07,1.21c-.71,0-1.4-.07-2.06-.13a18.79,18.79,0,0,1-7.89-2.46,1.56,1.56,0,0,0-1.71,2.62,18.7,18.7,0,0,0,5.27,2.18v4.12h-5.85a.84.84,0,0,1-.52-.4l-.71-1.07c-.48-.72-1-1.56-1.31-2-1.75-2.87-3.75-6.41-5.23-9.23s-3-5.92-3.23-8.82c-.63-7.66,2.35-14.2,8.38-18.4a26.67,26.67,0,0,1,10.35-3.9,7.9,7.9,0,0,0,2.83,2.36H127a.78.78,0,0,0,0,1.56h15.62a.78.78,0,0,0,0-1.56h-4.37A7.9,7.9,0,0,0,141,32.81a21.26,21.26,0,0,1,5.31,1.25,1.56,1.56,0,0,0,1.51,0c4.08-2.29,6-3.3,7.13-3.28a13.67,13.67,0,0,1-2,5.23,1.57,1.57,0,0,0,.28,2c3.18,2.77,5.33,8.13,6.11,10.3a1.56,1.56,0,0,0,1.47,1h3.74Z"/><path class="cls-1" d="M152.64,47A2.35,2.35,0,1,0,155,49.34,2.34,2.34,0,0,0,152.64,47Z"/><path class="cls-1" d="M76.9,55a19.72,19.72,0,0,0,8-9.67c-11.49,5.53-19.85,7.83-32.46,8.9A87.46,87.46,0,0,0,76.9,55Z"/><path class="cls-1" d="M44.19,54.76q-2.8.14-5.92.22A35.28,35.28,0,0,0,57.6,60.4a37,37,0,0,0,14.68-2.89A82.84,82.84,0,0,1,44.19,54.76Z"/><path class="cls-1" d="M74.79,31.36C73.41,20.72,64.63,10,57.7,10S42,20.74,40.6,31.39c-7.09,1.72-11.36,4.94-11.36,10.15a10.94,10.94,0,0,0,.67,3.68,61.72,61.72,0,0,0,18,8c11-.73,25.61-3.09,37.6-10.3a10.66,10.66,0,0,0,.09-1.38C85.6,36.18,81.59,33,74.79,31.36ZM68,46.23c-.85.74-6.18,1.43-10.26,1.43s-9.76-.59-10.12-1.27c-2.47-2.83-4-7-4-12.2,0-9.87,8.51-21,14.09-21s14.09,11.13,14.09,21C71.79,39.34,70.34,43.4,68,46.23Z"/><path class="cls-1" d="M32.69,50a22.34,22.34,0,0,0,3.57,3.49c1.18,0,2.57,0,4.13,0A52.72,52.72,0,0,1,32.69,50Z"/><path class="cls-1" d="M61.43,31.15a5.44,5.44,0,0,0-3.09-1.28l-1.69-.28c-.51-.08-1.13-.29-1.13-.9a1.27,1.27,0,0,1,1.35-1.17,3.77,3.77,0,0,1,2.5.77,1.44,1.44,0,0,0,1,.38,1.53,1.53,0,0,0,1.11-.48,1.45,1.45,0,0,0,.39-1.07,1.49,1.49,0,0,0-.49-1,6.15,6.15,0,0,0-3-1.41V23.58a.93.93,0,0,0-.26-.69,1,1,0,0,0-.7-.29,1,1,0,0,0-1,1v1a4,4,0,0,0-3.87,4.14,3.34,3.34,0,0,0,1.13,2.66,5.22,5.22,0,0,0,2.5,1.17l1.7.28a2.82,2.82,0,0,1,1.62.6c.49.41.52.62.52.92a1.47,1.47,0,0,1-.55,1.27,3.44,3.44,0,0,1-2.1.55,3.74,3.74,0,0,1-3-1.14,1.49,1.49,0,0,0-2.11,2.11,6.47,6.47,0,0,0,4.2,2v.78a1,1,0,0,0,.94.94h.06a.94.94,0,0,0,.66-.28,1,1,0,0,0,.28-.69v-.78A5.89,5.89,0,0,0,61.27,38a4,4,0,0,0,.44-.38A4.51,4.51,0,0,0,63,34.32,3.94,3.94,0,0,0,61.43,31.15Z"/></g></svg>