<svg xmlns="http://www.w3.org/2000/svg" viewBox="0 0 200 90"><defs><style>.cls-1{fill:#1e5748;}</style></defs><title>TDpublic_illustrations_200x90_02_CreditCards</title><g id="ARTWORK"><rect class="cls-1" x="66.88" y="69.88" width="66" height="4" rx="1" ry="1"/><rect class="cls-1" x="62.88" y="75.88" width="74" height="4" rx="1" ry="1"/><rect class="cls-1" x="66.88" y="29.88" width="66" height="4" rx="1" ry="1"/><path class="cls-1" d="M64.88,28h70a1,1,0,0,0,.43-1.91l-35-16.46a1,1,0,0,0-.85,0l-35,16.46A1,1,0,0,0,64.88,28Z"/><rect class="cls-1" x="71.92" y="35.91" width="6.93" height="31.93" rx="0.97" ry="0.97"/><rect class="cls-1" x="121.92" y="35.91" width="6.93" height="31.93" rx="0.97" ry="0.97"/><path class="cls-1" d="M100.32,45.59a2.78,2.78,0,0,0-2.79,2.79v1.73h5.58V48.38A2.78,2.78,0,0,0,100.32,45.59Z"/><path class="cls-1" d="M100.27,36.78a15.33,15.33,0,1,0,15.33,15.33A15.33,15.33,0,0,0,100.27,36.78Zm6.33,21.84a1.33,1.33,0,0,1-1.33,1.33h-10a1.33,1.33,0,0,1-1.33-1.33V51.39a1.33,1.33,0,0,1,1.33-1.33h.13V48.34a5,5,0,1,1,9.92,0v1.73h0a1.35,1.35,0,0,1,1.24,1.33Z"/></g></svg>