<svg xmlns="http://www.w3.org/2000/svg" viewBox="0 0 200 90"><defs><style>.cls-1{fill:#1e5748;}</style></defs><title>safetySecurityInvestment</title><g id="ARTWORK"><path class="cls-1" d="M112.22,10.2V35.61h-6.34V22a24,24,0,0,0-.14-3.55,1.32,1.32,0,0,0-.78-.9,8,8,0,0,0-2.83-.31h-.63v-3a11.54,11.54,0,0,0,7-4.07Z"/><path class="cls-1" d="M129.65,18.8v8.48a20.21,20.21,0,0,1-.31,4.21A5.84,5.84,0,0,1,128,34a5.6,5.6,0,0,1-2.39,1.65,9.19,9.19,0,0,1-3.12.5,11.59,11.59,0,0,1-3.78-.53,5.16,5.16,0,0,1-2.4-1.64,7,7,0,0,1-1.27-2.35,14.63,14.63,0,0,1-.38-3.92V18.8a17,17,0,0,1,.6-5.25,5.17,5.17,0,0,1,2.4-2.79A8.49,8.49,0,0,1,122,9.71a9.11,9.11,0,0,1,3.73.73,6.21,6.21,0,0,1,2.47,1.78,5.9,5.9,0,0,1,1.11,2.37A21.73,21.73,0,0,1,129.65,18.8Zm-6.34-2.13a9.54,9.54,0,0,0-.2-2.54.87.87,0,0,0-.92-.51.91.91,0,0,0-.93.54,8.24,8.24,0,0,0-.23,2.51v12.4a9.26,9.26,0,0,0,.21,2.67.91.91,0,0,0,.92.45.89.89,0,0,0,.93-.53,7.94,7.94,0,0,0,.22-2.4Z"/><path class="cls-1" d="M146.88,18.8v8.48a20.21,20.21,0,0,1-.31,4.21,5.84,5.84,0,0,1-1.3,2.46,5.6,5.6,0,0,1-2.39,1.65,9.19,9.19,0,0,1-3.12.5,11.59,11.59,0,0,1-3.78-.53,5.16,5.16,0,0,1-2.4-1.64,7,7,0,0,1-1.27-2.35,14.63,14.63,0,0,1-.38-3.92V18.8a17,17,0,0,1,.6-5.25,5.17,5.17,0,0,1,2.4-2.79,8.49,8.49,0,0,1,4.36-1.05,9.11,9.11,0,0,1,3.73.73,6.21,6.21,0,0,1,2.47,1.78,5.9,5.9,0,0,1,1.11,2.37A21.73,21.73,0,0,1,146.88,18.8Zm-6.34-2.13a9.54,9.54,0,0,0-.2-2.54.87.87,0,0,0-.92-.51.91.91,0,0,0-.93.54,8.24,8.24,0,0,0-.23,2.51v12.4a9.26,9.26,0,0,0,.21,2.67.91.91,0,0,0,.92.45.89.89,0,0,0,.93-.53,7.94,7.94,0,0,0,.22-2.4Z"/><path class="cls-1" d="M157.95,14.53V18.9a7.7,7.7,0,0,1-.32,2.57A3,3,0,0,1,156.24,23a5.39,5.39,0,0,1-2.8.64,6.23,6.23,0,0,1-3.06-.6A3.2,3.2,0,0,1,149,21.53a6.33,6.33,0,0,1-.37-2.43V14.53a7.53,7.53,0,0,1,.39-2.79,3,3,0,0,1,1.48-1.47,5.9,5.9,0,0,1,2.72-.57,6,6,0,0,1,2.91.62,3.25,3.25,0,0,1,1.49,1.5A7.26,7.26,0,0,1,157.95,14.53Zm-4-1.12a4.26,4.26,0,0,0-.1-1.24c-.07-.15-.25-.23-.56-.23a.56.56,0,0,0-.55.25,3.53,3.53,0,0,0-.13,1.22v6.4a4.3,4.3,0,0,0,.11,1.32c.07.15.27.22.58.22a.52.52,0,0,0,.53-.25,3.56,3.56,0,0,0,.12-1.18Zm11.41-3.7L155.41,36.1H153L163,9.71Zm4.4,17.09v4.38a7.77,7.77,0,0,1-.32,2.56,3.06,3.06,0,0,1-1.38,1.5,5.42,5.42,0,0,1-2.8.64,6.19,6.19,0,0,1-3.05-.61,3.23,3.23,0,0,1-1.43-1.46,6.24,6.24,0,0,1-.37-2.42V26.81a7.5,7.5,0,0,1,.39-2.77,3,3,0,0,1,1.48-1.48A5.81,5.81,0,0,1,165,22a5.94,5.94,0,0,1,2.92.63,3.23,3.23,0,0,1,1.48,1.51A7.32,7.32,0,0,1,169.74,26.81Zm-4-1.1a4.47,4.47,0,0,0-.1-1.25c-.07-.16-.26-.24-.56-.24s-.46.08-.54.25a3.78,3.78,0,0,0-.12,1.24v6.4a4.21,4.21,0,0,0,.11,1.3q.11.22.57.22c.28,0,.46-.08.53-.24a3.79,3.79,0,0,0,.11-1.19Z"/><path class="cls-1" d="M107.6,70.65c0,2.45-5.12,4.48-11.31,4.48S85,73.11,85,70.65v4.48c0,2.45,5.12,4.48,11.31,4.48s11.31-2,11.31-4.48Z"/><path class="cls-1" d="M96.18,72.9c6.29,0,11.31-2,11.31-4.48V63.93c0,2.45-5.12,4.48-11.31,4.48s-11.31-2-11.31-4.48v4.48C84.88,70.87,90,72.9,96.18,72.9Z"/><path class="cls-1" d="M96.18,66.17c6.29,0,11.31-2,11.31-4.48V57.21c0,2.45-5.12,4.48-11.31,4.48-4.05,0-7.57-.85-9.6-2.13a3,3,0,0,1-1.71-2.35v4.48C84.88,64.15,90,66.17,96.18,66.17Z"/><path class="cls-1" d="M96.18,59.35c6.29,0,11.31-2,11.31-4.48V50.39c0,2.45-5.12,4.48-11.31,4.48-4.05,0-7.57-.85-9.6-2.13a3,3,0,0,1-1.71-2.35v4.48C84.88,57.32,90,59.35,96.18,59.35Z"/><path class="cls-1" d="M86.69,50.49c2,1.28,5.55,2,9.49,2,6.29,0,11.31-2,11.31-4.48s-5-4.59-11.31-4.59c-3.95,0-7.47.85-9.49,2.13a3.62,3.62,0,0,0-1.81,2.13V48a2.68,2.68,0,0,0,.64,1.49C85.94,49.85,86.26,50.17,86.69,50.49Z"/><path class="cls-1" d="M80.61,70.65c0,2.45-5.12,4.48-11.31,4.48S58,73.22,58,70.65v4.48c0,2.45,5.12,4.48,11.31,4.48s11.31-2,11.31-4.48Z"/><path class="cls-1" d="M69.3,72.9c6.29,0,11.31-2,11.31-4.48V63.93c0,2.45-5.12,4.48-11.31,4.48S58,66.39,58,63.83v4.48C58,70.87,63,72.9,69.3,72.9Z"/><path class="cls-1" d="M69.3,66.17c6.29,0,11.31-2,11.31-4.48V57.21c0,2.45-5.12,4.48-11.31,4.48-4.05,0-7.57-.85-9.6-2.13A3,3,0,0,1,58,57.21v4.48C58,64.15,63,66.17,69.3,66.17Z"/><path class="cls-1" d="M59.81,56.89c2,1.28,5.55,2,9.49,2,6.29,0,11.31-2,11.31-4.48S75.49,50,69.3,50c-3.95,0-7.47.85-9.49,2.13A3.62,3.62,0,0,0,58,54.23v.32A2.68,2.68,0,0,0,58.64,56C59,56.25,59.38,56.57,59.81,56.89Z"/><path class="cls-1" d="M53.94,70.87c0,2.45-5.12,4.48-11.31,4.48s-11.31-1.92-11.31-4.48v4.48c0,2.45,5.12,4.48,11.31,4.48s11.31-2,11.31-4.48Z"/><path class="cls-1" d="M42.64,73.11c6.29,0,11.31-2,11.31-4.48V64.15c0,2.45-5.12,4.48-11.31,4.48S31.33,66.6,31.33,64v4.48C31.33,71.08,36.34,73.11,42.64,73.11Z"/><path class="cls-1" d="M33.14,63.51c2,1.28,5.55,2,9.49,2,6.29,0,11.31-2,11.31-4.48s-5.12-4.48-11.31-4.48c-3.95,0-7.47.85-9.49,2.13a3.62,3.62,0,0,0-1.81,2.13v.32A2.68,2.68,0,0,0,32,62.65C32.29,62.87,32.72,63.19,33.14,63.51Z"/><path class="cls-1" d="M87.46,24.41h-8a1.7,1.7,0,0,0,.47,3.36h3.49L71.86,39.27,58,34.68a1.64,1.64,0,0,0-1.86.16L41.06,46.6l-.21.16a1.68,1.68,0,0,0,2.26,2.49L57.52,38l13.92,4.62a1.88,1.88,0,0,0,2.07-.26L85.78,30.14v3.52s0,0,0,0a1.68,1.68,0,0,0,3.36,0V26.09A1.68,1.68,0,0,0,87.46,24.41Z"/></g></svg>