<svg xmlns="http://www.w3.org/2000/svg" viewBox="0 0 200 90"><defs><style>.cls-1{fill:#1e5748;}.cls-2{fill:#fff;}</style></defs><title>TDpublic_illustrations_200x90_PSI</title><g id="ARTWORK"><path class="cls-1" d="M99.47,74.37a2.59,2.59,0,0,1-.34-.17,2.2,2.2,0,0,1-.38-.28c-.83-.77-5.11-4.55-5.31-4.72a34.1,34.1,0,0,1-3.91-3.86,8.64,8.64,0,0,1-2.24-5.76,7.52,7.52,0,0,1,7.44-7.81,8,8,0,0,1,6.08,3,8,8,0,0,1,6.09-3,7.52,7.52,0,0,1,7.44,7.81,8.64,8.64,0,0,1-2.24,5.76c-.87,1.07-6.39,6-6.48,6.11-1.06.94-1.92,1.7-2.75,2.47a2.17,2.17,0,0,1-.39.29,2.51,2.51,0,0,1-.36.17l.23-.11a3.49,3.49,0,0,1-3.09,0Z"/><path class="cls-1" d="M157,14.69l-17.06-4.57a1.5,1.5,0,0,0-1.78.88,81.22,81.22,0,0,0-3.27,9.76c-3.39,12.66-6.17,27.36,1.46,31L130.14,75l-3.86-1a1.5,1.5,0,1,0-.78,2.9l10.62,2.85a1.54,1.54,0,0,0,.39.05,1.5,1.5,0,0,0,.39-2.95l-3.86-1,6.21-23.18c.16,0,.32,0,.47,0C148,52.6,153,37.89,156,26.43a81.2,81.2,0,0,0,2-10.08A1.5,1.5,0,0,0,157,14.69Zm-16.54-1.33,14.48,3.88a79,79,0,0,1-1.78,8.4c-.07.27-.15.52-.22.78a9.91,9.91,0,0,1-7-1.72,16.66,16.66,0,0,1-2.32-2.4c-1.29-1.54-2.64-3.11-5-3.75C139.21,16.79,139.79,15,140.44,13.37Z"/><path class="cls-1" d="M77,75a1.51,1.51,0,0,0-1.84-1.06l-3.86,1L65.07,51.81c7.64-3.68,4.86-18.39,1.46-31A81.61,81.61,0,0,0,63.27,11a1.5,1.5,0,0,0-1.78-.88L44.44,14.69a1.5,1.5,0,0,0-1.1,1.65,81.15,81.15,0,0,0,2,10.08c3.07,11.46,8,26.17,16.31,26.17.16,0,.32,0,.47,0l6.21,23.18-3.86,1a1.5,1.5,0,0,0,.39,2.95,1.54,1.54,0,0,0,.39-.05l10.62-2.85A1.5,1.5,0,0,0,77,75ZM61,13.37c.65,1.67,1.23,3.42,1.78,5.2-2.34.64-3.69,2.21-5,3.75a16.66,16.66,0,0,1-2.32,2.4,10,10,0,0,1-7,1.71l-.22-.78a79,79,0,0,1-1.78-8.4Z"/><path class="cls-1" d="M94.25,20.51A1.5,1.5,0,0,1,93,19.79l-2.77-4.57a1.5,1.5,0,0,1,2.56-1.56l2.77,4.57a1.5,1.5,0,0,1-1.28,2.28Z"/><path class="cls-1" d="M107.38,20.51a1.5,1.5,0,0,1-1.28-2.28l2.77-4.57a1.5,1.5,0,1,1,2.56,1.56l-2.77,4.57A1.5,1.5,0,0,1,107.38,20.51Z"/><path class="cls-1" d="M100.9,20.51A1.5,1.5,0,0,1,99.4,19v-5.4a1.5,1.5,0,0,1,3,0V19A1.5,1.5,0,0,1,100.9,20.51Z"/><path class="cls-2" d="M100,24.8a9.83,9.83,0,1,0,5.41,12.81A9.83,9.83,0,0,0,100,24.8Zm-6.1,15a6.36,6.36,0,1,1,8.29-3.5A6.36,6.36,0,0,1,93.93,39.81Z"/><path class="cls-1" d="M96.31,44.75A10.83,10.83,0,1,1,106.36,38,10.77,10.77,0,0,1,96.31,44.75Zm0-19.67a8.86,8.86,0,1,0,3.33.66h0A8.82,8.82,0,0,0,96.32,25.07Zm0,16.2a7.36,7.36,0,0,1-2.77-.55h0a7.3,7.3,0,1,1,2.77.55Zm0-12.73a5.36,5.36,0,0,0-2,10.33h0a5.36,5.36,0,1,0,2-10.33Z"/><path class="cls-2" d="M108.71,28.52a9.83,9.83,0,1,0,5.41,12.81A9.83,9.83,0,0,0,108.71,28.52Zm-6.1,15a6.36,6.36,0,1,1,8.29-3.5A6.36,6.36,0,0,1,102.62,43.52Z"/><path class="cls-1" d="M105,48.46A10.83,10.83,0,1,1,115,41.71,10.79,10.79,0,0,1,105,48.46Zm0-19.67a8.83,8.83,0,1,0,3.31.65A8.85,8.85,0,0,0,105,28.79ZM105,45a7.38,7.38,0,1,1,2.86-.58A7.36,7.36,0,0,1,105,45Zm0-12.73a5.37,5.37,0,1,0,2,.4A5.35,5.35,0,0,0,105,32.26Z"/><path class="cls-2" d="M99,39.54a6.36,6.36,0,0,1-3.51.56"/><path class="cls-1" d="M96.3,41.15a7.29,7.29,0,0,1-.92-.06l.25-2a5.37,5.37,0,0,0,3-.47l.85,1.81A7.36,7.36,0,0,1,96.3,41.15Z"/><path class="cls-2" d="M97.23,43.71A9.88,9.88,0,0,0,101,42.56"/><path class="cls-1" d="M97.32,44.7l-.19-2a8.8,8.8,0,0,0,3.38-1l1,1.76A10.8,10.8,0,0,1,97.32,44.7Z"/><path class="cls-2" d="M101.56,41.06a6.51,6.51,0,0,1-1-1.13,9.23,9.23,0,0,1-4.65,1.22,7.35,7.35,0,0,1-2-.31,11.22,11.22,0,0,0,.71,1.72A8.87,8.87,0,0,0,101.56,41.06Z"/></g></svg>