<svg xmlns="http://www.w3.org/2000/svg" viewBox="0 0 200 90"><defs><style>.cls-1{fill:#1e5748;}</style></defs><title>TDpublic_illustrations_200x90_PSI</title><g id="ARTWORK"><path class="cls-1" d="M166.9,47a2.61,2.61,0,0,0-1.81-.76h-3.22a31.13,31.13,0,0,0-5.67-9.66c1.3-2.39,2.24-5.5,1.78-7.14a2.09,2.09,0,0,0-1.11-1.38c-2.48-1.17-4.88.06-9.89,2.87a26.31,26.31,0,0,0-4.56-1.08,7.81,7.81,0,1,0-15.21-.1A29.57,29.57,0,0,0,116.42,34c-6.82,4.75-10.25,12.05-9.74,20.59a9.16,9.16,0,0,1-3.5-.6,6.15,6.15,0,0,0,2-4.3A4.57,4.57,0,0,0,100.48,45a4.62,4.62,0,0,0-4.71,4.78A6.38,6.38,0,0,0,97.51,54a6.82,6.82,0,0,1-3.07.49A1.56,1.56,0,0,0,94,57.54a11.16,11.16,0,0,0,6.3-1.39,12.66,12.66,0,0,0,6.07,1.63c.27,0,.52,0,.78,0a34.83,34.83,0,0,0,3.16,7.55c1.51,2.87,3.55,6.48,5.32,9.4.28.47.87,1.35,1.38,2.12l.68,1a3.89,3.89,0,0,0,3.09,1.82h6.5a2.56,2.56,0,0,0,1.8-.76,2.52,2.52,0,0,0,.74-1.8v-4a39.74,39.74,0,0,0,6.68.22l1.3,4.1.06.16a3.37,3.37,0,0,0,1.3,1.52,3.46,3.46,0,0,0,1.93.59h6.84a2.56,2.56,0,0,0,1.79-.76,2.52,2.52,0,0,0,.74-1.8V70.41c4.35-1.26,9.39-4.63,11.52-9.73l3.68-1.89a3.41,3.41,0,0,0,1.49-1.33,3.61,3.61,0,0,0,.5-1.84V48.81A2.53,2.53,0,0,0,166.9,47Zm-66.36,5.22-.19.16a3.83,3.83,0,0,1-1.46-2.65,1.52,1.52,0,0,1,1.58-1.65,1.6,1.6,0,0,1,1.08.39,1.64,1.64,0,0,1,.46,1.27A3.74,3.74,0,0,1,100.54,52.23Zm64,3.39a.48.48,0,0,1-.05.23s0,.07-.18.13L160,58.17a1.56,1.56,0,0,0-.75.86c-1.67,4.59-6.64,7.81-10.68,8.63a1.56,1.56,0,0,0-1.25,1.53v7.33h-6.25a.41.41,0,0,1-.23-.09.35.35,0,0,1-.11-.1l-1.13-3.57A34,34,0,0,0,143,72a1.56,1.56,0,0,0-.87-3,29.54,29.54,0,0,1-9.08,1.22c-.71,0-1.4-.08-2.06-.14a18.74,18.74,0,0,1-7.89-2.45,1.56,1.56,0,1,0-1.71,2.62,18.79,18.79,0,0,0,5.27,2.18v4.12h-5.86a.85.85,0,0,1-.52-.4l-.7-1.06c-.48-.72-1-1.56-1.31-2-1.75-2.88-3.75-6.41-5.23-9.23s-3-5.92-3.24-8.82c-.63-7.66,2.35-14.19,8.38-18.4a26.84,26.84,0,0,1,10.35-3.9,7.81,7.81,0,0,0,2.83,2.36H127a.78.78,0,0,0,0,1.56h15.63a.78.78,0,0,0,0-1.56h-4.37A7.81,7.81,0,0,0,141,32.81a21.12,21.12,0,0,1,5.31,1.25,1.56,1.56,0,0,0,1.51,0c4.08-2.29,6-3.3,7.13-3.28a13.66,13.66,0,0,1-2,5.22,1.56,1.56,0,0,0,.28,2c3.18,2.77,5.33,8.13,6.11,10.3a1.56,1.56,0,0,0,1.47,1h3.74Z"/><path class="cls-1" d="M152.64,47A2.34,2.34,0,1,0,155,49.34,2.34,2.34,0,0,0,152.64,47Z"/><path class="cls-1" d="M76.9,55a19.72,19.72,0,0,0,8-9.67c-11.49,5.53-19.85,7.83-32.46,8.89A87.14,87.14,0,0,0,76.9,55Z"/><path class="cls-1" d="M44.19,54.76c-1.87.08-3.84.15-5.92.21A35.28,35.28,0,0,0,57.6,60.4a37,37,0,0,0,14.68-2.89A83,83,0,0,1,44.19,54.76Z"/><path class="cls-1" d="M74.79,31.36C73.41,20.72,64.63,10,57.7,10S42,20.74,40.6,31.39c-7.09,1.72-11.36,4.94-11.36,10.15a11,11,0,0,0,.67,3.68,62,62,0,0,0,18,8c11-.73,25.62-3.09,37.61-10.3a11.1,11.1,0,0,0,.09-1.38C85.6,36.18,81.59,33,74.79,31.36ZM68,46.23c-.85.74-6.17,1.43-10.26,1.43s-9.76-.59-10.12-1.27c-2.47-2.83-4-7-4-12.2,0-9.87,8.52-21,14.09-21s14.09,11.13,14.09,21C71.79,39.34,70.34,43.4,68,46.23Z"/><path class="cls-1" d="M32.69,50a23.17,23.17,0,0,0,3.57,3.49c1.18,0,2.57,0,4.13,0A53.68,53.68,0,0,1,32.69,50Z"/><path class="cls-1" d="M61.43,31.15a5.45,5.45,0,0,0-3.09-1.29l-1.69-.28c-.51-.08-1.12-.29-1.12-.89a1.27,1.27,0,0,1,1.35-1.17,3.76,3.76,0,0,1,2.49.77,1.46,1.46,0,0,0,1,.38,1.55,1.55,0,0,0,1.12-.48,1.47,1.47,0,0,0,.39-1.07,1.5,1.5,0,0,0-.49-1,6.14,6.14,0,0,0-3-1.41V23.58a.94.94,0,0,0-.27-.68,1,1,0,0,0-.7-.29,1,1,0,0,0-1,1v1a4,4,0,0,0-3.86,4.14,3.34,3.34,0,0,0,1.12,2.66,5.26,5.26,0,0,0,2.5,1.17l1.71.28a2.8,2.8,0,0,1,1.62.6c.49.41.52.62.52.92a1.48,1.48,0,0,1-.55,1.27,3.43,3.43,0,0,1-2.1.55,3.74,3.74,0,0,1-3-1.14,1.49,1.49,0,0,0-2.11,2.11,6.4,6.4,0,0,0,4.2,2v.78a1,1,0,0,0,.95.94h.06a1,1,0,0,0,.94-1v-.78A5.86,5.86,0,0,0,61.27,38a4,4,0,0,0,.43-.37A4.5,4.5,0,0,0,63,34.32,4,4,0,0,0,61.43,31.15Z"/></g></svg>