<svg xmlns="http://www.w3.org/2000/svg" viewBox="0 0 200 90"><defs><style>.cls-1{fill:#1e5748;}.cls-2{fill:none;stroke:#1e5748;stroke-linecap:round;stroke-linejoin:round;stroke-width:2px;}</style></defs><title>TDpublic_illustrations_200x90_01_Accounts</title><g id="ARTWORK"><path class="cls-1" d="M172.26,47.36a2.61,2.61,0,0,0-1.81-.76h-3.22a31.13,31.13,0,0,0-5.67-9.66c1.3-2.39,2.24-5.5,1.78-7.14a2.09,2.09,0,0,0-1.11-1.38c-2.48-1.17-4.88.06-9.89,2.87a26.31,26.31,0,0,0-4.56-1.08,7.81,7.81,0,1,0-15.21-.1,29.57,29.57,0,0,0-10.79,4.28C115,39.15,111.53,46.45,112,55a9.16,9.16,0,0,1-3.5-.6,6.15,6.15,0,0,0,2-4.3,4.57,4.57,0,0,0-4.67-4.78,4.62,4.62,0,0,0-4.71,4.78,6.38,6.38,0,0,0,1.74,4.22,6.82,6.82,0,0,1-3.07.49,1.56,1.56,0,0,0-.46,3.09,11.16,11.16,0,0,0,6.3-1.39,12.66,12.66,0,0,0,6.07,1.63c.27,0,.52,0,.78,0a34.83,34.83,0,0,0,3.16,7.55c1.51,2.87,3.55,6.48,5.32,9.4.28.47.87,1.35,1.38,2.12l.68,1A3.89,3.89,0,0,0,126.13,80h6.5a2.56,2.56,0,0,0,1.8-.76,2.52,2.52,0,0,0,.74-1.8v-4a39.74,39.74,0,0,0,6.68.22l1.3,4.1.06.16a3.37,3.37,0,0,0,1.3,1.52,3.46,3.46,0,0,0,1.93.59h6.84a2.56,2.56,0,0,0,1.79-.76,2.52,2.52,0,0,0,.74-1.8V70.76c4.35-1.26,9.39-4.63,11.52-9.73L171,59.14a3.41,3.41,0,0,0,1.49-1.33A3.61,3.61,0,0,0,173,56V49.16A2.53,2.53,0,0,0,172.26,47.36ZM105.9,52.58l-.19.16a3.83,3.83,0,0,1-1.46-2.65,1.52,1.52,0,0,1,1.58-1.65,1.6,1.6,0,0,1,1.08.39,1.64,1.64,0,0,1,.46,1.27A3.74,3.74,0,0,1,105.9,52.58Zm64,3.39a.48.48,0,0,1-.05.23s0,.07-.18.13l-4.26,2.19a1.56,1.56,0,0,0-.75.86C163,64,158,67.19,153.94,68a1.56,1.56,0,0,0-1.25,1.53v7.33h-6.25a.41.41,0,0,1-.23-.09.35.35,0,0,1-.11-.1L145,73.11a34,34,0,0,0,3.41-.79,1.56,1.56,0,0,0-.87-3,29.54,29.54,0,0,1-9.08,1.22c-.71,0-1.4-.08-2.06-.14A18.74,18.74,0,0,1,128.48,68a1.56,1.56,0,1,0-1.71,2.62A18.79,18.79,0,0,0,132,72.75v4.12h-5.86a.85.85,0,0,1-.52-.4l-.7-1.06c-.48-.72-1-1.56-1.31-2-1.75-2.88-3.75-6.41-5.23-9.23s-3-5.92-3.24-8.82c-.63-7.66,2.35-14.19,8.38-18.4a26.84,26.84,0,0,1,10.35-3.9,7.81,7.81,0,0,0,2.83,2.36h-4.37a.78.78,0,0,0,0,1.56H148a.78.78,0,0,0,0-1.56h-4.37a7.81,7.81,0,0,0,2.74-2.25,21.12,21.12,0,0,1,5.31,1.25,1.56,1.56,0,0,0,1.51,0c4.08-2.29,6-3.3,7.13-3.28a13.66,13.66,0,0,1-2,5.22,1.56,1.56,0,0,0,.28,2c3.18,2.77,5.33,8.13,6.11,10.3a1.56,1.56,0,0,0,1.47,1h3.74Z"/><path class="cls-1" d="M158,47.35a2.34,2.34,0,1,0,2.34,2.34A2.34,2.34,0,0,0,158,47.35Z"/><path class="cls-1" d="M85.15,16.06H77v3.41a2.92,2.92,0,1,1-4.21,0V16.06H60.11v3.41a2.92,2.92,0,1,1-4.21,0V16.06H43.4v3.41a2.92,2.92,0,1,1-4.21,0V16.06H30.86a4.19,4.19,0,0,0-4.18,4.18V64.51a4.19,4.19,0,0,0,4.18,4.18h54.3a4.19,4.19,0,0,0,4.18-4.18V20.24A4.19,4.19,0,0,0,85.15,16.06ZM86,63.68a1.68,1.68,0,0,1-1.67,1.67H31.69A1.68,1.68,0,0,1,30,63.68V27.76H86Z"/><path class="cls-1" d="M35.87,60.34H46.73a.84.84,0,0,0,.84-.84v-10a.84.84,0,0,0-.84-.84H35.87a.84.84,0,0,0-.84.84v10A.84.84,0,0,0,35.87,60.34Zm0-10.86H46.73v10H35.87Z"/><path class="cls-1" d="M52.58,60.34H63.44a.84.84,0,0,0,.84-.84v-10a.84.84,0,0,0-.84-.84H52.58a.84.84,0,0,0-.84.84v10A.84.84,0,0,0,52.58,60.34Zm0-10.86H63.44v10H52.58Z"/><path class="cls-1" d="M35.87,44.46H46.73a.84.84,0,0,0,.84-.84v-10a.84.84,0,0,0-.84-.84H35.87a.84.84,0,0,0-.84.84v10A.84.84,0,0,0,35.87,44.46Zm0-10.86H46.73v10H35.87Z"/><path class="cls-1" d="M52.58,44.46H63.44a.84.84,0,0,0,.84-.84v-10a.84.84,0,0,0-.84-.84H52.58a.84.84,0,0,0-.84.84v10A.84.84,0,0,0,52.58,44.46Zm0-10.86H63.44v10H52.58Z"/><path class="cls-1" d="M69.28,44.46H80.14a.84.84,0,0,0,.84-.84v-10a.84.84,0,0,0-.84-.84H69.28a.84.84,0,0,0-.84.84v10A.84.84,0,0,0,69.28,44.46Zm0-10.86H80.14v10H69.28Z"/><rect class="cls-1" x="73.64" y="10.32" width="2.54" height="12.33" rx="1.11" ry="1.11"/><rect class="cls-1" x="40.03" y="10.32" width="2.54" height="12.33" rx="1.11" ry="1.11"/><rect class="cls-1" x="56.74" y="10.32" width="2.54" height="12.33" rx="1.11" ry="1.11"/><path class="cls-1" d="M80.14,48.64H69.28a.84.84,0,0,0-.84.84v10a.84.84,0,0,0,.84.84H80.14A.84.84,0,0,0,81,59.5v-10A.84.84,0,0,0,80.14,48.64Zm-3.53,8.43-.19.16a2.57,2.57,0,0,1-1.28.48v.34a.42.42,0,0,1-.41.43h0a.42.42,0,0,1-.41-.41v-.34a2.81,2.81,0,0,1-1.84-.86.65.65,0,0,1,.92-.92,1.64,1.64,0,0,0,1.33.5,1.5,1.5,0,0,0,.92-.24.65.65,0,0,0,.24-.56c0-.13,0-.22-.23-.4a1.23,1.23,0,0,0-.71-.26l-.75-.12a2.31,2.31,0,0,1-1.09-.51,1.46,1.46,0,0,1-.49-1.17,1.75,1.75,0,0,1,1.69-1.81v-.43a.44.44,0,0,1,.42-.42.43.43,0,0,1,.31.13.41.41,0,0,1,.12.3v.48a2.69,2.69,0,0,1,1.32.62.66.66,0,0,1,.21.46.65.65,0,0,1-.17.47.68.68,0,0,1-.49.21.64.64,0,0,1-.43-.17,1.65,1.65,0,0,0-1.09-.34.56.56,0,0,0-.59.51c0,.26.27.36.49.39l.74.12a2.39,2.39,0,0,1,1.35.56,1.73,1.73,0,0,1,.68,1.39A2,2,0,0,1,76.61,57.07Z"/><polyline class="cls-2" points="110.11 19.76 110.38 24.48 106.52 24.59"/><path class="cls-2" d="M93.69,18.43s10.12-2.36,16.13,5.75"/></g></svg>