<svg xmlns="http://www.w3.org/2000/svg" viewBox="0 0 200 90"><defs><style>.cls-1{fill:#1e5748;}</style></defs><title>TDpublic_illustrations_200x90_PSI</title><g id="ARTWORK"><path class="cls-1" d="M168.74,46.72a1,1,0,0,1-.34-1.94l3.73-1.36a.1.1,0,0,0,0-.12l-9.45-26a.1.1,0,0,0-.13-.06L106.86,37.12a.1.1,0,0,0,0,.12l2,5.56a1,1,0,0,1-1.88.68l-2-5.55a2.1,2.1,0,0,1,1.23-2.68l55.76-19.85a2.11,2.11,0,0,1,2.67,1.26l9.45,26a2.1,2.1,0,0,1-1.23,2.68l-3.74,1.36A1,1,0,0,1,168.74,46.72Z"/><path class="cls-1" d="M112.72,74.36a2.61,2.61,0,0,1-2.45-1.71l-9.45-26a2.61,2.61,0,0,1,1.52-3.32l55.77-19.86a2.61,2.61,0,0,1,3.31,1.56l9.45,26a2.61,2.61,0,0,1-1.53,3.32h0L113.58,74.22A2.58,2.58,0,0,1,112.72,74.36ZM103.77,46,113,71.26l55-19.57-9.18-25.21Zm65,6.92h0Z"/><path class="cls-1" d="M151,48.18a.5.5,0,0,1-.17-1L160,43.9a.5.5,0,1,1,.34.94l-9.13,3.31A.49.49,0,0,1,151,48.18Z"/><path class="cls-1" d="M152.32,51.85a.5.5,0,0,1-.17-1l9.14-3.31a.5.5,0,0,1,.34.94l-9.14,3.31A.5.5,0,0,1,152.32,51.85Z"/><path class="cls-1" d="M136.63,48.47a1.89,1.89,0,0,0-2.45-.94l-4.69,1.71-5-4.94a1.77,1.77,0,0,0-2-.47c-.53.19-1.63.59-1,2.24l2.57,5.21-3.88,1.41L118,50.9a.81.81,0,0,0-.89-.17c-.15.05-1.07.27-.81,1l1.87,3.57.94,3.91c.18.5.61.44,1.25.22.41-.15.41-.33.52-.79l.63-2.57,3.86-1.4,1.5,5.61a1.5,1.5,0,0,0,2.23,1,1.77,1.77,0,0,0,1.2-1.74l.49-7,4.69-1.71a1.88,1.88,0,0,0,1.22-2.28Z"/><rect class="cls-1" x="139.28" y="33.54" width="1" height="1.83" transform="translate(-3.25 50.83) rotate(-20.38)"/><path class="cls-1" d="M148.08,58.21l-.77-2.07.94-.35.77,2.07Zm-1.83-4.92-1.06-2.86.94-.35,1.06,2.86Zm-2.12-5.72-1.06-2.86.94-.35,1.06,2.86ZM142,41.85,140.94,39l.94-.35,1.06,2.86Z"/><path class="cls-1" d="M151.44,43.32a.44.44,0,0,1-.21,0,.49.49,0,0,1-.35-.46l-.15-3.13L147.85,39a.49.49,0,0,1-.36-.44.48.48,0,0,1,.29-.48l2.8-1-.26-3.11a.48.48,0,0,1,.29-.48.45.45,0,0,1,.54.16L153,36l2.75-1.17a.46.46,0,0,1,.53.14.51.51,0,0,1,0,.59l-1.66,2.59,2,2.39a.51.51,0,0,1,0,.58.45.45,0,0,1-.52.19l-2.91-.86-1.54,2.65A.45.45,0,0,1,151.44,43.32Zm-.4-6"/><path class="cls-1" d="M74,47.47a17.15,17.15,0,0,1,7.18,1.35.77.77,0,0,0,0,.6c-.91-.4-2.78-1.12-3.86-.85-1.47.37-4.95,2.47-4.4,7.7.33,3.14.83,3,.83,3s1.56-4.7,3.57-6.35c.44-.36.89-.72,1.34-1.06a1.84,1.84,0,0,0,1.8,1.59c-.89,1.78-2.57,5.24-4.1,8.79,0,0-1.26,3-1.6,4l-2.22,8a54.1,54.1,0,0,0-1,5.78h5s2.24-12.77,3.38-17.83a78.29,78.29,0,0,1,2.24-8,2.29,2.29,0,0,0,2.78.25c.48,1.37,1.05,3.08,1.33,4.15.65,2.47,1.05,5.26,1.05,5.26s.53.79,2.1-2.1.18-4.38-1.05-6.31a7.82,7.82,0,0,0-2.45-2.23,2.21,2.21,0,0,0,0-1.6,38.68,38.68,0,0,1,3.9,3.06c1.54,1.37,4.87,5.64,5.13,5.13S93.16,49.44,89.66,48.5a5.93,5.93,0,0,0-4.94,1,1.77,1.77,0,0,0,.07-.36,1.83,1.83,0,0,0-.72-1.43,5.44,5.44,0,0,0-1.31-6.87C80.29,38.58,76.53,39,76.53,39L79.46,42a12,12,0,0,1,2.89,5.46l-.24.09a7.1,7.1,0,0,0-7-4.45c-3.5.2-6.6,4.4-6.6,4.4S67.48,47.57,74,47.47Z"/><path class="cls-1" d="M34.51,30.24a10.86,10.86,0,0,1,9.29,2.13,2.75,2.75,0,0,1,1.32-1.76c-2.17-4.32-1-8.37,2.29-11.43,4.15-3.84,10.44-3.07,10.44-3.07L52.94,21a20.53,20.53,0,0,0-5,9.65,2.76,2.76,0,0,1,.26.2,11.94,11.94,0,0,1,12.08-8c5.87.34,11.06,7.37,11.06,7.37s1.65.18-9.21,0a29.32,29.32,0,0,0-11.28,1.94,2.75,2.75,0,0,1,1.12.6,9.31,9.31,0,0,1,4.63-.7c2.46.61,8.29,4.15,7.37,12.9-.55,5.26-1.39,5.11-1.39,5.11s-2.61-7.87-6-10.64c-1.37-1.12-2.83-2.24-4.1-3.17a2.75,2.75,0,0,1-2.35,1.33c1.32,2.65,3.83,7.8,6.1,13.08L57,52.36c.6,1.44,1.17,2.86,1.68,4.24l-3.88,1.29,4.76,1.19c.29.87.56,1.72.77,2.5.36,1.33.69,2.66,1,4L56.62,67.1,62,68.43C63.31,74.82,64,80,64,80H56.62S52.78,58,51.1,50.51a117.75,117.75,0,0,0-3.18-11.46,2.74,2.74,0,0,1-3.38-.4c-.88,2.51-2.1,6.06-2.65,8.18C40.75,51.16,40,56,40,56s-.92,1.38-3.69-3.69S36,44.68,38.2,41.3a15.49,15.49,0,0,1,5.53-4.63,2.74,2.74,0,0,1,.72-1.82,2.75,2.75,0,0,1-.36-.51c-2.79,1.22-7.28,4.93-9.57,7-2.76,2.46-8.75,10.14-9.21,9.21S28.21,31.93,34.51,30.24Z"/></g></svg>