<svg xmlns="http://www.w3.org/2000/svg" viewBox="0 0 200 90"><defs><style>.cls-1{fill:#1e5748;}.cls-2,.cls-3{fill:none;stroke:#1e5748;stroke-linecap:round;stroke-width:2px;}.cls-2{stroke-miterlimit:10;}.cls-3{stroke-linejoin:round;}</style></defs><title>TDpublic_illustrations_200x90_PSI</title><g id="ARTWORK"><path class="cls-1" d="M60.76,38a1,1,0,0,0-1.16-.63,1,1,0,0,0-.15.07,50.67,50.67,0,0,0-6.32-9.22L53,28,49.73,26.6a1,1,0,0,0-.93-1.36H46.57l-.67-.29,0,.29-5.14,0a.77.77,0,0,0-.35.06l-9.18,3.4a1,1,0,0,0-.53.45l-4.88,8.68a1,1,0,0,0-1.78.19c-3.24,8.69-1.28,19-1,20.18a1,1,0,0,0,.22.45c2.2,2.57,10.22,3.67,11.13,3.78h.13a1,1,0,0,0,.38-1.94C26.56,57,25.69,43.69,25.64,42.7L25.7,42c8-1.78,16.67-6.62,21.35-11.64,2.31,5.87,8.08,11.29,12.09,11.75l.05.61c0,1-.71,14.83-9,17.73a1,1,0,0,0,.33,2h.13c.89-.12,8.74-1.21,10.93-3.78a1,1,0,0,0,.22-.45C62,57,64,46.66,60.76,38Z"/><path class="cls-2" d="M48.47,51.41a6.77,6.77,0,0,1-12.1-.09"/><path class="cls-3" d="M33.58,46.29a2.35,2.35,0,0,1,4.59-.36"/><path class="cls-3" d="M51.14,46.29a2.35,2.35,0,0,0-4.59-.36"/><circle class="cls-1" cx="80.14" cy="44.86" r="1.71"/><circle class="cls-1" cx="94.55" cy="44.86" r="1.71"/><path class="cls-2" d="M93.39,51.41a6.77,6.77,0,0,1-12.1-.09"/><path class="cls-1" d="M104.9,38.87h-.1c-5.36,0-9.06-6.22-9.29-9.63a1,1,0,0,0-.66-.88A1,1,0,0,0,94.5,28a1,1,0,0,0-1.38.36,10.62,10.62,0,0,1-4.35,4.55A8.18,8.18,0,0,1,85.12,34a31.8,31.8,0,0,0,2.29-2.74,1,1,0,0,0-1.61-1.21c-2.7,3.57-4.8,5.27-7.54,5.86a18.87,18.87,0,0,0,2.79-3.48,1,1,0,1,0-1.73-1c-1.93,3.26-6.67,7.1-9.22,7.46a1,1,0,0,0,.14,2h.14a12.68,12.68,0,0,0,5.3-2.68A11.77,11.77,0,0,0,82.94,36c.57.06,1.12.09,1.66.09a10.24,10.24,0,0,0,5.13-1.35,11.45,11.45,0,0,0,4.07-3.64c1.11,4.08,5.07,9.81,11,9.81h.12a1,1,0,0,0,0-2Z"/><path class="cls-1" d="M87.34,26.55c8.94,0,16.21,7.88,16.21,17.57S96.28,61.69,87.34,61.69,71.14,53.81,71.14,44.12s7.27-17.57,16.21-17.57m0-3c-10.61,0-19.21,9.21-19.21,20.57s8.6,20.57,19.21,20.57,19.21-9.21,19.21-20.57S98,23.55,87.34,23.55Z"/><path class="cls-1" d="M42.36,26.55c8.94,0,16.21,7.88,16.21,17.57S51.29,61.69,42.36,61.69,26.15,53.81,26.15,44.12s7.27-17.57,16.21-17.57m0-3c-10.61,0-19.21,9.21-19.21,20.57s8.6,20.57,19.21,20.57,19.21-9.21,19.21-20.57S53,23.55,42.36,23.55Z"/><path class="cls-1" d="M114.12,41l18.3,4.2a1.51,1.51,0,0,0,.59,0l28.75-5.54a1.41,1.41,0,0,0,.36-.12,5.12,5.12,0,0,1,.29-1.17l.22-.57a1.32,1.32,0,0,0-.54-.45,1.25,1.25,0,0,0-.58-.13l-.28,0-28.46,5.49-17-3.89V33l17,3.89L162,31.33l.58-.16a1.22,1.22,0,0,0,.75-1.06,1.26,1.26,0,0,0-1-1.23L144,24.68a1.49,1.49,0,0,0-.59,0l-29.2,5.54-.12,0-.09,0-.19.09h0a1.11,1.11,0,0,0-.2.13l-.05,0-.11.11-.05.07-.08.12,0,.08-.05.14,0,0a.19.19,0,0,0,0,0,1,1,0,0,0,0,.15.75.75,0,0,0,0,.09V39.8A1.26,1.26,0,0,0,114.12,41Zm27-14,13,3.24-8.51,1.57a2.84,2.84,0,0,1-1.27-.05l-12.71-2.84Z"/><path class="cls-1" d="M132.8,56.11l-3.44-.67V58l3.06.71a1.48,1.48,0,0,0,.59,0l22.94-4.47a11.3,11.3,0,0,1-.82-2.38Z"/><path class="cls-1" d="M115.79,46.48l17,3.76,22.72-4.34a8.62,8.62,0,0,1,1.67-2.72h0l-24.34,4.56a1.48,1.48,0,0,0-.59,0l-18.08-4-.12,0-.09,0-.19.09h0a1.14,1.14,0,0,0-.2.13l-.05,0-.11.11-.05.07-.08.12,0,.08-.05.14,0,0a.2.2,0,0,0,0,0,1,1,0,0,0,0,.15.77.77,0,0,0,0,.09v8.42a1.26,1.26,0,0,0,1,1.2l6.17,1.42V53.35l-4.51-1Z"/><polygon class="cls-1" points="122.01 64.22 124.7 62.68 127.4 65.71 127.4 52.89 122.01 51.67 122.01 64.22"/><path class="cls-1" d="M177.14,44.37a5.57,5.57,0,0,0-4.07-2.07,5,5,0,0,0-.56,0,5.92,5.92,0,0,0-.75.14,12,12,0,0,0-2,.75l-.65.28a3,3,0,0,1-1.35.14l-.3-.05-.21-.05-.38-.16-.37-.16-.38-.17a8.54,8.54,0,0,0-2.27-.7,5,5,0,0,0-.67-.05h-.06a4.38,4.38,0,0,0-.76.08,6,6,0,0,0-3.25,2,6.71,6.71,0,0,0-.83,1.13,7.87,7.87,0,0,0-1,4.46,9.35,9.35,0,0,0,.22,1.56,9.55,9.55,0,0,0,.88,2.37,9.68,9.68,0,0,0,1.43,2,8,8,0,0,0,5.82,2.74l.61,0a2.24,2.24,0,0,0,.59-.16,3.6,3.6,0,0,1,1.32-.28,3.34,3.34,0,0,1,1.3.28,2.11,2.11,0,0,0,.52.16c.23,0,.47,0,.7,0a8,8,0,0,0,5.82-2.74A9.58,9.58,0,0,0,179,50,7.58,7.58,0,0,0,177.14,44.37Z"/><path class="cls-1" d="M168.06,42.48l0,.06,0,.06a.62.62,0,0,0,.19-.13,3.55,3.55,0,0,0,.61-.82l.1-.17.06-.11a4.86,4.86,0,0,0,.37-1c.21-.95.54-1,.39-.1a4.49,4.49,0,0,1-.34,1.12,5.27,5.27,0,0,1-.48.85c-.1.14-.19.27-.28.37a1.66,1.66,0,0,1-.28.28A3,3,0,0,0,171,41.47a2.94,2.94,0,0,0,.24-.68,2.7,2.7,0,0,0-1.77-3.35c-1.53-.63-.46.29-.6.84a3.22,3.22,0,0,1-.7.91,4.8,4.8,0,0,0-.37.47,2,2,0,0,0-.18,2.11A3.82,3.82,0,0,0,168.06,42.48Z"/><path class="cls-1" d="M164.56,41.28a1.82,1.82,0,0,0,1.37,1.09A2.09,2.09,0,0,0,167,42a1.45,1.45,0,0,1-.66-.18h0a3.5,3.5,0,0,1-.7-.43,2.72,2.72,0,0,1-.36-.36,1.15,1.15,0,0,1-.15-.21c-.13-.24.15-.17.39.11v0l.07.07a3.9,3.9,0,0,0,.65.49l.28.15a.71.71,0,0,0,.56.07c0-.19.08-.27.12-.49a1,1,0,0,0-.78-1.18l-.69-.22a2.09,2.09,0,0,1-1.25-.83,3,3,0,0,0-.17,1.63A2.47,2.47,0,0,0,164.56,41.28Z"/></g></svg>