<svg xmlns="http://www.w3.org/2000/svg" viewBox="0 0 200 90"><defs><style>.cls-1{fill:#1e5748;}</style></defs><title>savingsAccounts</title><g id="ARTWORK"><g id="Layer_24" data-name="Layer 24"><path class="cls-1" d="M143.12,41.48a3.07,3.07,0,0,0-2.14-.89h-3.8c-1.15-3-3.42-8-6.67-11.38,1.53-2.82,2.63-6.47,2.09-8.41a2.46,2.46,0,0,0-1.3-1.62c-2.92-1.38-5.74.07-11.65,3.38a31,31,0,0,0-5.37-1.27,9.2,9.2,0,1,0-17.91-.12,34.82,34.82,0,0,0-12.71,5c-8,5.6-12.07,14.19-11.47,24.26a10.79,10.79,0,0,1-4.13-.7,7.24,7.24,0,0,0,2.32-5.07,5.38,5.38,0,0,0-5.5-5.63,5.44,5.44,0,0,0-5.55,5.63,7.51,7.51,0,0,0,2.05,5,8,8,0,0,1-3.62.57,1.84,1.84,0,0,0-.55,3.64,13.15,13.15,0,0,0,7.42-1.64,14.92,14.92,0,0,0,7.15,1.92c.31,0,.62,0,.92,0A41,41,0,0,0,76.46,63c1.78,3.38,4.18,7.63,6.27,11.07.33.55,1,1.59,1.63,2.49l.8,1.21a4.58,4.58,0,0,0,3.64,2.15h7.66a3,3,0,0,0,2.12-.9,3,3,0,0,0,.87-2.12V72.19a46.8,46.8,0,0,0,7.87.25l1.53,4.83.07.18a4,4,0,0,0,1.53,1.78,4.08,4.08,0,0,0,2.27.7h8.06a3,3,0,0,0,2.11-.89,3,3,0,0,0,.87-2.12V69.05c5.12-1.48,11.06-5.46,13.57-11.46l4.34-2.23a4,4,0,0,0,1.75-1.57,4.25,4.25,0,0,0,.59-2.17v-8A3,3,0,0,0,143.12,41.48ZM65,47.64l-.22.19A4.51,4.51,0,0,1,63,44.7a1.78,1.78,0,0,1,1.87-1.95,1.88,1.88,0,0,1,1.27.46,1.93,1.93,0,0,1,.55,1.49A4.41,4.41,0,0,1,65,47.64Zm75.35,4a.57.57,0,0,1-.06.27s0,.08-.21.16l-5,2.58a1.84,1.84,0,0,0-.89,1c-2,5.4-7.82,9.2-12.58,10.16a1.84,1.84,0,0,0-1.48,1.8v8.64h-7.36a.49.49,0,0,1-.27-.1.41.41,0,0,1-.13-.12L111,71.82a40.07,40.07,0,0,0,4-.93,1.84,1.84,0,0,0-1-3.53,34.79,34.79,0,0,1-10.69,1.43c-.83,0-1.65-.09-2.42-.16a22.08,22.08,0,0,1-9.3-2.89,1.84,1.84,0,1,0-2,3.08,22.13,22.13,0,0,0,6.21,2.57v4.85h-6.9a1,1,0,0,1-.61-.47l-.83-1.25c-.57-.85-1.23-1.84-1.54-2.36-2.06-3.39-4.42-7.56-6.16-10.88s-3.53-7-3.81-10.39c-.74-9,2.77-16.71,9.87-21.67A31.62,31.62,0,0,1,98,24.64a9.2,9.2,0,0,0,3.33,2.78H96.15a.92.92,0,0,0,0,1.84h18.4a.92.92,0,1,0,0-1.84h-5.15a9.19,9.19,0,0,0,3.23-2.65,24.87,24.87,0,0,1,6.26,1.47,1.84,1.84,0,0,0,1.78,0c4.81-2.69,7.07-3.89,8.39-3.86a16.09,16.09,0,0,1-2.4,6.15,1.84,1.84,0,0,0,.33,2.4c3.75,3.26,6.28,9.57,7.2,12.14a1.84,1.84,0,0,0,1.73,1.22h4.4Z"/><path class="cls-1" d="M126.33,41.48a2.76,2.76,0,1,0,2.76,2.76A2.75,2.75,0,0,0,126.33,41.48Z"/></g></g></svg>