<svg xmlns="http://www.w3.org/2000/svg" viewBox="0 0 200 90"><defs><style>.cls-1{fill:#1e5748;}</style></defs><title>TDpublic_illustrations_200x90_01_Accounts</title><g id="ARTWORK"><g id="Layer_27" data-name="Layer 27"><path class="cls-1" d="M99.72,51.4a3.51,3.51,0,0,0-3.53,3.53v2.18h7.06V54.93A3.51,3.51,0,0,0,99.72,51.4Z"/><path class="cls-1" d="M149.27,10h-99V29.53H80.12l-.11,46a4.17,4.17,0,0,0,4.17,4.17h31.25a4.17,4.17,0,0,0,4.17-4.17l-.11-46h29.77Zm-41.6,57.87A1.68,1.68,0,0,1,106,69.55H93.33a1.68,1.68,0,0,1-1.68-1.68V58.74a1.69,1.69,0,0,1,1.68-1.68h.17V54.87a6.27,6.27,0,1,1,12.55,0v2.18h.06a1.71,1.71,0,0,1,1.57,1.68ZM109,38.69a1.8,1.8,0,0,1-2.53,0L99.59,32l-6.5,6.69a1.78,1.78,0,0,1-2.56-2.47l7.74-8a1.69,1.69,0,0,1,1.25-.54h0a1.86,1.86,0,0,1,1.26.5l8.21,8a1.77,1.77,0,0,1,0,2.51Zm36.33-13.06H119.49V21.72h22V17.81H58.08v3.91H80.14v3.91h-26V13.91h91.19Z"/></g></g></svg>