<svg xmlns="http://www.w3.org/2000/svg" viewBox="0 0 320 180"><defs><style>.cls-1{fill:#1e5748;}.cls-2,.cls-3,.cls-4,.cls-5,.cls-6,.cls-8,.cls-9{fill:none;}.cls-2,.cls-3,.cls-4,.cls-5,.cls-6{stroke:#1e5748;}.cls-2,.cls-5,.cls-6{stroke-linecap:round;}.cls-2,.cls-6{stroke-linejoin:round;}.cls-2{stroke-width:3px;}.cls-3,.cls-4,.cls-5,.cls-8,.cls-9{stroke-miterlimit:10;}.cls-4{stroke-dasharray:2.87 2.87;}.cls-6{stroke-width:2px;}.cls-7{fill:#1e5748;}.cls-8,.cls-9{stroke:#1e5748;}.cls-8{stroke-width:4px;}.cls-9{stroke-width:2.5px;}</style></defs><title>TDpublic_illustrations_200x90_02_CreditCards</title><g id="ARTWORK"><path class="cls-1" d="M37.95,130.51a5.48,5.48,0,0,1-.27-1.7H13.39V107.08H82.23v2.85l2.91-1V89.33a3.57,3.57,0,0,0-3.55-3.55H14a3.57,3.57,0,0,0-3.55,3.55v39.1A3.57,3.57,0,0,0,14,132H38.45ZM13.39,89H82.23V98H13.39Z"/><path class="cls-2" d="M43.6,132.71l-1.24-3.65A1,1,0,0,1,43,127.8l51.17-17.1a1,1,0,0,1,1.26.63l8.11,23.86a1,1,0,0,1-.61,1.26l-3.43,1.15"/><rect class="cls-1" x="180" y="116" width="3.15" height="1.76"/><rect class="cls-1" x="203.59" y="116" width="3.15" height="1.76"/><rect class="cls-1" x="187.86" y="116" width="3.15" height="1.76"/><rect class="cls-1" x="211.46" y="116" width="3.15" height="1.76"/><rect class="cls-1" x="195.73" y="116" width="3.15" height="1.76"/><rect class="cls-1" x="165.92" y="105.57" width="1.76" height="3.15"/><rect class="cls-1" x="165.92" y="81.98" width="1.76" height="3.15"/><rect class="cls-1" x="165.92" y="97.71" width="1.76" height="3.15"/><rect class="cls-1" x="165.92" y="74.11" width="1.76" height="3.15"/><rect class="cls-1" x="165.92" y="89.84" width="1.76" height="3.15"/><rect class="cls-1" x="165.92" y="66.82" width="1.76" height="3.15"/><rect class="cls-1" x="105.27" y="115.84" width="3.15" height="1.76"/><rect class="cls-1" x="128.86" y="115.84" width="3.15" height="1.76"/><rect class="cls-1" x="113.13" y="115.84" width="3.15" height="1.76"/><rect class="cls-1" x="136.73" y="115.84" width="3.15" height="1.76"/><rect class="cls-1" x="121" y="115.84" width="3.15" height="1.76"/><path class="cls-1" d="M178.66,129.56a5,5,0,0,0-2.25.45,6,6,0,0,0-7.43-4.28,6.89,6.89,0,0,0-1.35.56,6,6,0,0,0-7.21-2.48v-8.45a6.08,6.08,0,0,0-12.17,0V136c-2.14-2.59-4.73-4.62-7.1-4.62a5.07,5.07,0,0,0-4.17,1.91c-.68.9-1.24,2.7-.45,5.41a85.83,85.83,0,0,0,8,16.11,49.7,49.7,0,0,0,4.05,5.52c2.25,2.7,3.72,4.51,3.72,7.66a2,2,0,0,0,2,2h24.33a2,2,0,0,0,2-2,49.21,49.21,0,0,1,2-12.73,54.48,54.48,0,0,0,2-13.52v-6.08A6.2,6.2,0,0,0,178.66,129.56ZM181.47,142a117.53,117.53,0,0,1-2.11,13.1,71.55,71.55,0,0,0-2.11,12.17H155.47s-.44-4.25-2.94-6.56c-2-1.84-5-7.24-5-7.24a85.81,85.81,0,0,1-8-15.68,2.58,2.58,0,0,1,0-1.87,1.56,1.56,0,0,1,.92-1c2.71-.87,6.74,4,8.54,8.67,0,0,.46,2.13,1.58,2.13,1.54,0,1.35-3,1.35-3.67V114.14a2.1,2.1,0,0,1,4.2-.12,2,2,0,0,1,.28,1v18.59a2,2,0,0,0,2,2l.25,0a2.1,2.1,0,0,0,1.67-2.06v-4.68a2.11,2.11,0,1,1,4.21,0v6.79a2.09,2.09,0,0,0,.57,1.44,2,2,0,0,0,3.44-1.46v-4.51a2,2,0,0,1,.76-1.58A2.1,2.1,0,0,1,173,131v6.79a2.09,2.09,0,0,0,1.09,1.84,2,2,0,0,0,2.61-1.93v-2.48a2,2,0,0,1,2-2h0a2.08,2.08,0,0,1,2.65,2Z"/><path class="cls-1" d="M88.18,126.57l-2.35.86-1.47-2a.39.39,0,0,0-.44-.14.39.39,0,0,0-.26.38l.09,2.5-2.38.77a.39.39,0,0,0,0,.75l2.41.69v2.51a.39.39,0,0,0,.28.37.38.38,0,0,0,.18,0,.39.39,0,0,0,.26-.17l1.4-2.08,2.38.78a.39.39,0,0,0,.43-.61l-1.54-2,1.47-2a.39.39,0,0,0-.45-.6Z"/><path class="cls-1" d="M70.11,139.77a1.84,1.84,0,0,0-2.35-.94l-4.57,1.62-4.73-4.9a1.72,1.72,0,0,0-2-.49,1.45,1.45,0,0,0-1,2.15l2.4,5.11-3.78,1.34L52,141.93a.78.78,0,0,0-.86-.18c-.15.07-1,.25-.8.94l1.75,3.5L52.9,150c.18.49.59.43,1.2.24.41-.14.41-.31.52-.75l.6-2.64L59,145.5,60.33,151a1.45,1.45,0,0,0,2.15,1,1.72,1.72,0,0,0,1.21-1.62l.61-6.79L68.88,142a1.83,1.83,0,0,0,1.23-2.19Z"/><line class="cls-3" x1="73.18" y1="123.48" x2="73.67" y2="124.9"/><line class="cls-4" x1="74.59" y1="127.61" x2="81.52" y2="147.98"/><line class="cls-3" x1="81.98" y1="149.34" x2="82.46" y2="150.76"/><line class="cls-5" x1="83.33" y1="137.23" x2="92.27" y2="134.19"/><line class="cls-5" x1="84.55" y1="140.81" x2="93.49" y2="137.77"/><path class="cls-2" d="M99.44,144.2,48.28,161.3a1,1,0,0,1-1.26-.63l-8.11-23.86a1,1,0,0,1,.61-1.26l51.17-17.1a1,1,0,0,1,1.26.63l8.11,23.86A1,1,0,0,1,99.44,144.2Z"/><path class="cls-1" d="M250.1,129.09c0-.1,0-.19,0-.28H225V107.08h68.83v12l2.91,2.12V89.33a3.57,3.57,0,0,0-3.55-3.55H225.69a3.57,3.57,0,0,0-3.55,3.55v39.1a3.57,3.57,0,0,0,3.55,3.55H250.1ZM225,89h68.83V98H225Z"/><path class="cls-1" d="M296.77,128.64l-2.89-2.11v2.28H265.51l-3.79,2.8H256.1v.32h2.28l0,.07h34.83A3.56,3.56,0,0,0,296.77,128.64Z"/><polygon class="cls-2" points="299.91 157.98 263.09 157.98 257.08 133.1 305.92 133.1 299.91 157.98"/><line class="cls-6" x1="281.5" y1="134.88" x2="281.5" y2="157.98"/><line class="cls-6" x1="259.8" y1="141.45" x2="303.26" y2="141.45"/><line class="cls-6" x1="261.41" y1="149.36" x2="301.67" y2="149.36"/><rect class="cls-7" x="253.1" y="128.56" width="57" height="6.32" rx="0.5" ry="0.5"/><line class="cls-6" x1="268.76" y1="133.69" x2="271.13" y2="157.09"/><line class="cls-6" x1="293.73" y1="133.69" x2="291.36" y2="157.09"/><line class="cls-8" x1="285" y1="118.68" x2="302.87" y2="131.72"/><line class="cls-8" x1="260.33" y1="131.25" x2="277.73" y2="118.42"/><circle class="cls-9" cx="281.22" cy="116.76" r="4.07"/><polygon class="cls-1" points="186.21 24.26 186.24 24.23 186.93 25.53 186.92 25.54 188.23 27.96 197.07 19.15 190.2 19.13 185.81 23.51 186.21 24.26"/><path class="cls-1" d="M184.86,21.77l2.65-2.63h-2.88a.69.69,0,0,0-.6,1Z"/><path class="cls-1" d="M200.28,19.16h-.5L189.19,29.71l.22.39h0l.13.23h5.63l5.54-10.22a.69.69,0,0,0,0-.68A.66.66,0,0,0,200.28,19.16Z"/><path class="cls-1" d="M182.7,61.83l-.4,1.74a.69.69,0,0,0,.2.63l.13.12L198.9,48.1l-.46-2h0l-.81-3.56L184,56.07Z"/><polygon class="cls-1" points="185.28 66.65 186.16 67.43 187.72 68.81 200.68 55.89 199.82 52.11 199.44 50.49 199.4 50.3 184.07 65.59 185.28 66.65"/><path class="cls-1" d="M201.18,58.09l-12,12,.24.22,2.49,2.2a.69.69,0,0,0,1,0l9.39-8.28a.69.69,0,0,0,.19-.62l-1.18-5.24Z"/><polygon class="cls-1" points="195.35 32.51 195.25 32.12 195.18 31.79 189.54 31.79 187.62 40.21 195.35 32.51"/><polygon class="cls-1" points="184.87 52.24 184.8 52.59 197.13 40.3 195.86 34.71 186.83 43.69 184.87 52.24"/><path class="cls-1" d="M182.31,52.11H122.92V30.52h63.47s-4.75-8.88-4.79-9H122.92v-9h68.29v3.61h2.89V12.94a3.54,3.54,0,0,0-3.53-3.53h-67A3.54,3.54,0,0,0,120,12.94v38.8a3.54,3.54,0,0,0,3.53,3.53h58Z"/></g></svg>