<svg xmlns="http://www.w3.org/2000/svg" viewBox="0 0 199 90"><defs><style>.cls-1,.cls-5{fill:#1e5748;}.cls-2,.cls-3,.cls-4,.cls-6{fill:none;}.cls-2,.cls-3,.cls-4,.cls-5,.cls-6{stroke:#1e5748;stroke-linejoin:round;}.cls-2,.cls-3,.cls-4{stroke-linecap:round;}.cls-2,.cls-5,.cls-6{stroke-width:2px;}.cls-3{stroke-width:3px;}</style></defs><title>signReceipt</title><g id="ARTWORK"><path class="cls-1" d="M87.28,34.36v.77a.86.86,0,0,0,.77.95h.18a.89.89,0,0,0,.95-.95v-.77a6.27,6.27,0,0,0,3.31-1.45,4.31,4.31,0,0,0,1.26-3.21,3.89,3.89,0,0,0-1.53-3.12,5.37,5.37,0,0,0-3-1.3L87.5,25c-.5-.08-1.11-.28-1.11-.88A1.25,1.25,0,0,1,87.72,23a3.71,3.71,0,0,1,2.46.76,1.48,1.48,0,0,0,2.07-.1,1.58,1.58,0,0,0-.1-2.08,5.8,5.8,0,0,0-3-1.38V19.1a.88.88,0,0,0-.81-.95h-.14a1,1,0,0,0-.95.95V20a4,4,0,0,0-3.79,4.07,3.3,3.3,0,0,0,1.11,2.62,9,9,0,0,0,4.14,1.42c1.45.06,2.07.86,2.11,1.5a1.38,1.38,0,0,1-.55,1.25,3.38,3.38,0,0,1-2.07.54,3.79,3.79,0,0,1-3-1.05,1.53,1.53,0,0,0-2.07,0,1.51,1.51,0,0,0,0,2.07A6.3,6.3,0,0,0,87.28,34.36Z"/><line class="cls-2" x1="70.63" y1="41.14" x2="105.84" y2="41.14"/><line class="cls-2" x1="70.63" y1="48.86" x2="105.84" y2="48.86"/><path class="cls-3" d="M113.74,54.6V78.45l-6.74-6-6.55,6-6.3-5.94L88,78.48l-6-6-6.55,5.94L69,72.54l-6.28,5.91V12.6a1,1,0,0,1,1-1h49a1,1,0,0,1,1,1V45.2"/><path class="cls-4" d="M73,62.06c4.55,3,9.05.57,11.39-2.07a3.44,3.44,0,0,0,.91-3.58c-.65-1.53-3-1.67-4.3-.4a4,4,0,0,0-1.15,2.38,4.77,4.77,0,0,0,1.92,4.1c1.59,1.11,4.7,1.27,6.59.75a11.22,11.22,0,0,0,6.38-3.81,2.67,2.67,0,0,0-1.19-4.12,2.9,2.9,0,0,0-3.67,2.25c-.39,2.2,2,5.39,4.47,5.71a7.42,7.42,0,0,0,5-1,11.07,11.07,0,0,0,4.13-3.6"/><path class="cls-5" d="M117.29,52.36l21.94-19.73a4.35,4.35,0,0,0,.32-6.13,4.3,4.3,0,0,0-6.1-.32L111.51,45.91Z"/><path class="cls-6" d="M111.51,45.91l-7.36,12.14s12.83-5.64,13.14-5.69Z"/></g></svg>