<svg xmlns="http://www.w3.org/2000/svg" viewBox="0 0 200 90"><defs><style>.cls-1{fill:#1e5748;}</style></defs><title>TDpublic_illustrations_200x90_01_Accounts</title><g id="ARTWORK"><g id="Layer_26" data-name="Layer 26"><path class="cls-1" d="M47.09,28.13a16.94,16.94,0,0,1,.84-5.26A15,15,0,0,0,68.65,44.53a17,17,0,0,1-21.56-16.4Z"/><path class="cls-1" d="M54.44,25.15a16.92,16.92,0,0,1,1.4-6.75c.16-.37.34-.74.53-1.1s.42-.75.64-1.11a17.1,17.1,0,0,1,1.4-2A15,15,0,0,0,69.68,42.09,17.05,17.05,0,0,1,54.44,25.15Z"/><path class="cls-1" d="M86.49,25.15a15,15,0,0,0-27-9c-.24.32-.47.64-.68,1s-.42.68-.61,1A15,15,0,0,0,71.47,40.18c.24,0,.47,0,.71,0s.7,0,1-.07l.12,0c.4-.05.8-.11,1.19-.19.23,0,.46-.12.68-.18A14.93,14.93,0,0,0,86.49,25.15ZM75.79,31l-.06.07a4.32,4.32,0,0,1-.44.37,4.67,4.67,0,0,1-.43.28,5.32,5.32,0,0,1-1,.46,6.69,6.69,0,0,1-1.4.33v.66a1,1,0,0,1-1,1.06H71.4a1,1,0,0,1-1-1v-.67a6.35,6.35,0,0,1-4.06-1.93,1.56,1.56,0,0,1,2.21-2.21,3.55,3.55,0,0,0,2.88,1.08A3.35,3.35,0,0,0,73.35,29l0,0a1.33,1.33,0,0,0,.5-1.15c0-.24,0-.42-.47-.82a2,2,0,0,0-1-.47l-.5-.09-1.66-.27A5.23,5.23,0,0,1,67.75,25a3.39,3.39,0,0,1-1.13-2.68A4.24,4.24,0,0,1,67,20.5,3.78,3.78,0,0,1,68.36,19a4.38,4.38,0,0,1,2-.74v-.87a1.06,1.06,0,0,1,1.05-1.05,1,1,0,0,1,.76.32,1,1,0,0,1,.29.75v1a6,6,0,0,1,2.91,1.38,1.57,1.57,0,0,1,.11,2.21,1.62,1.62,0,0,1-1.17.51,1.54,1.54,0,0,1-1-.4,3.43,3.43,0,0,0-2.13-.7l-.22,0h0a1.34,1.34,0,0,0-.92.27,1,1,0,0,0-.29.76.73.73,0,0,0,0,.33,2.19,2.19,0,0,0,1,.43l.77.13.87.14c.2,0,.37.07.55.11a5.16,5.16,0,0,1,2.51,1.17A4,4,0,0,1,77,27.84,4.5,4.5,0,0,1,75.79,31Z"/><path class="cls-1" d="M92,16.74a19.05,19.05,0,0,1,16.06,2.77L103.58,21a1,1,0,0,0,.32,1.95,1,1,0,0,0,.32-.05l7.54-2.5-2.42-7.3a1,1,0,1,0-1.9.63l1.25,3.77a21.12,21.12,0,0,0-17.16-2.7A1,1,0,1,0,92,16.74Z"/><path class="cls-1" d="M155.13,47.38a2.61,2.61,0,0,0-1.81-.76h-3.22A31.13,31.13,0,0,0,144.43,37c1.3-2.39,2.24-5.5,1.78-7.14a2.09,2.09,0,0,0-1.11-1.38c-2.48-1.17-4.88.06-9.89,2.87a26.31,26.31,0,0,0-4.56-1.08,7.81,7.81,0,1,0-15.21-.1,29.57,29.57,0,0,0-10.79,4.28C97.84,39.17,94.4,46.47,94.91,55a9.16,9.16,0,0,1-3.5-.6,6.15,6.15,0,0,0,2-4.3,4.57,4.57,0,0,0-4.67-4.78A4.62,4.62,0,0,0,84,50.11a6.38,6.38,0,0,0,1.74,4.22,6.82,6.82,0,0,1-3.07.49,1.56,1.56,0,0,0-.46,3.09,11.16,11.16,0,0,0,6.3-1.39,12.66,12.66,0,0,0,6.07,1.63c.27,0,.52,0,.78,0a34.83,34.83,0,0,0,3.16,7.55c1.51,2.87,3.55,6.48,5.32,9.4.28.47.87,1.35,1.38,2.12l.68,1A3.89,3.89,0,0,0,109,80h6.5a2.56,2.56,0,0,0,1.8-.76,2.52,2.52,0,0,0,.74-1.8v-4a39.74,39.74,0,0,0,6.68.22l1.3,4.1.06.16a3.37,3.37,0,0,0,1.3,1.52,3.46,3.46,0,0,0,1.93.59h6.84a2.56,2.56,0,0,0,1.79-.76,2.52,2.52,0,0,0,.74-1.8V70.78c4.35-1.26,9.39-4.63,11.52-9.73l3.68-1.89a3.41,3.41,0,0,0,1.49-1.33,3.61,3.61,0,0,0,.5-1.84V49.18A2.53,2.53,0,0,0,155.13,47.38ZM88.77,52.6l-.19.16a3.83,3.83,0,0,1-1.46-2.65,1.52,1.52,0,0,1,1.58-1.65,1.6,1.6,0,0,1,1.08.39,1.64,1.64,0,0,1,.46,1.27A3.74,3.74,0,0,1,88.77,52.6Zm64,3.39a.48.48,0,0,1-.05.23s0,.07-.18.13l-4.26,2.19a1.56,1.56,0,0,0-.75.86c-1.67,4.59-6.64,7.81-10.68,8.63a1.56,1.56,0,0,0-1.25,1.53v7.33h-6.25a.41.41,0,0,1-.23-.09.35.35,0,0,1-.11-.1l-1.13-3.57a34,34,0,0,0,3.41-.79,1.56,1.56,0,0,0-.87-3,29.54,29.54,0,0,1-9.08,1.22c-.71,0-1.4-.08-2.06-.14A18.74,18.74,0,0,1,111.35,68a1.56,1.56,0,1,0-1.71,2.62,18.79,18.79,0,0,0,5.27,2.18v4.12h-5.86a.85.85,0,0,1-.52-.4l-.7-1.06c-.48-.72-1-1.56-1.31-2-1.75-2.88-3.75-6.41-5.23-9.23s-3-5.92-3.24-8.82c-.63-7.66,2.35-14.19,8.38-18.4a26.84,26.84,0,0,1,10.35-3.9,7.81,7.81,0,0,0,2.83,2.36h-4.37a.78.78,0,0,0,0,1.56h15.63a.78.78,0,0,0,0-1.56H126.5a7.81,7.81,0,0,0,2.74-2.25,21.12,21.12,0,0,1,5.31,1.25,1.56,1.56,0,0,0,1.51,0c4.08-2.29,6-3.3,7.13-3.28a13.66,13.66,0,0,1-2,5.22,1.56,1.56,0,0,0,.28,2c3.18,2.77,5.33,8.13,6.11,10.3a1.56,1.56,0,0,0,1.47,1h3.74Z"/><path class="cls-1" d="M140.87,47.37a2.34,2.34,0,1,0,2.34,2.34A2.34,2.34,0,0,0,140.87,47.37Z"/></g></g></svg>