<svg xmlns="http://www.w3.org/2000/svg" viewBox="0 0 200 90"><defs><style>.cls-1{fill:#1e5748;}</style></defs><title>TDpublic_illustrations_200x90_02_CreditCards</title><g id="ARTWORK"><path class="cls-1" d="M91.47,31.92s-10.4-.13-12.56-.06a3.74,3.74,0,0,0-3.39,2.68C75.1,35.7,72,42.09,70.33,46.42l21.14,0a.55.55,0,0,0,.55-.55V32.48A.55.55,0,0,0,91.47,31.92Z"/><path class="cls-1" d="M157.6,55.07a1.5,1.5,0,0,0-1.71,1.25,2.65,2.65,0,0,1-1.64,2.26,2.76,2.76,0,0,1-2.19-.18,2.69,2.69,0,0,1-1.32-1.52c-.62-2.17,1.15-4,2.18-4.62l1-.62-1.25-3.9a1.5,1.5,0,0,0-1.18-1l-6-21.54a4.47,4.47,0,1,0-6.66-3.88c0,.07,0,.13,0,.2L102.07,50.73H109L130,34c-1.29,6.26-3.11,15.49-3.21,16l2.94.58c0-.16,2.8-14.17,3.95-19.52l7.4-5.89a4,4,0,0,0,2.84.52l6,21.64a1.49,1.49,0,0,0-.19,1.3l.57,1.77a7,7,0,0,0-2.5,7.28,5.8,5.8,0,0,0,5.5,4,5.94,5.94,0,0,0,1.82-.29,5.49,5.49,0,0,0,3.68-4.66A1.5,1.5,0,0,0,157.6,55.07ZM143.27,23.79a2.49,2.49,0,1,1,2.46-2.49A2.48,2.48,0,0,1,143.27,23.79Z"/><path class="cls-1" d="M144.19,62.88h-.71V51a1.74,1.74,0,0,0-1.74-1.74H99V31.82a6.4,6.4,0,0,0-6.38-6.41H76.19c-3,0-5.54,2-7.47,5.72l-5.33,12.1-7.44,1.44c-6.51.85-8.39,6.91-8.83,8.83L45.49,63a3,3,0,0,0-2.78,2.35l-.55,3,0,.18a2.86,2.86,0,0,0,2.81,2.78h6.12a10.59,10.59,0,0,0,20.79,0h44a10.59,10.59,0,0,0,20.79,0h7.57a1.55,1.55,0,0,0,1.55-1.55V64.43A1.55,1.55,0,0,0,144.19,62.88ZM50.06,54.09c.31-1.36,1.69-5.84,6.37-6.46l9.08-1.76,5.92-13.45c.94-1.83,2.53-4,4.77-4H92.65A3.4,3.4,0,0,1,96,31.82V62.94L70,63a10.53,10.53,0,0,0-17.17,0H48.54Zm11.4,20.09a5,5,0,1,1,4.94-5A5,5,0,0,1,61.46,74.18Zm64.77,0a5,5,0,1,1,4.94-5A5,5,0,0,1,126.23,74.18Zm14.25-11.3h-5.73a10.53,10.53,0,0,0-17.06,0L99,62.93V52.25h41.45Z"/></g></svg>