<svg xmlns="http://www.w3.org/2000/svg" viewBox="0 0 200 90"><defs><style>.cls-1{fill:#1f5748;}</style></defs><title>startingABusiness</title><g id="Starting_a_business" data-name="Starting a business"><path class="cls-1" d="M53.6,66.2l1.16,1.1L67.92,54.24l-1.09-1.18Z"/><path class="cls-1" d="M61.26,54.44l-1.1-1.29L53.6,59.52l1.23,1.41Z"/><path class="cls-1" d="M60.26,66l1.06,1.34,6.47-6.36-1.11-1.35Z"/><path class="cls-1" d="M93.36,62.18V58.82a1.76,1.76,0,1,0-1,0v3.36a1.76,1.76,0,1,0,1,0Z"/><path class="cls-1" d="M166.82,76.85h-64V47.3a7,7,0,0,0,3.8-6.22V35.64l-9-15.7H52.2l-9,15.7v5.45A7,7,0,0,0,47,47.3V76.85H32.33a1.5,1.5,0,1,0,0,3H166.82a1.5,1.5,0,0,0,0-3ZM87.69,22.77l4.47,13.62V40.2h0a5,5,0,0,1-10.1,0V36.31L80.58,22.77Zm-25.58,0h7.11L67.74,36.31V40.2a5,5,0,0,1-10.1,0V36.39h0ZM50.17,48.09a7,7,0,0,0,6.18-3.72,7,7,0,0,0,12.37,0,7,7,0,0,0,6.18,3.72,6.91,6.91,0,0,0,3.16-.77V76.23H50.17Zm30.91-3.72a7,7,0,0,0,12.37,0,7,7,0,0,0,6.18,3.72V76.85H81.08Z"/><path class="cls-1" d="M156.84,41.66H122V39a1.29,1.29,0,0,0-2.58,0v2.63h-3.78a1.29,1.29,0,1,0,0,2.58h3.78V77.65a1.29,1.29,0,0,0,2.58,0V44.23h10.33v3.82h-6.49a1.29,1.29,0,0,0-1.29,1.29V66.1a1.29,1.29,0,0,0,1.29,1.29h28.35a1.29,1.29,0,0,0,1.29-1.29V49.35a1.29,1.29,0,0,0-1.29-1.29h-6.4V44.23h9.09a1.29,1.29,0,1,0,0-2.58ZM134.9,44.23h10.26v3.82H134.9Zm18,6.4V64.81H127.1V50.64Z"/><polygon class="cls-1" points="132.45 57.88 133.6 61.74 135.53 61.74 135.53 53.24 133.69 53.24 133.69 57.07 132.45 53.24 130.6 53.24 130.6 61.74 132.45 61.74 132.45 57.88"/><polygon class="cls-1" points="140.57 60.04 138.95 60.04 138.95 58.17 140.33 58.17 140.33 56.55 138.95 56.55 138.95 54.94 140.43 54.94 140.43 53.24 136.74 53.24 136.74 61.74 140.57 61.74 140.57 60.04"/><path class="cls-1" d="M144.82,61.74q.48-3.38.62-4.45.29,2.5.67,4.45h2.76l1-8.49H147.7q-.43,3-.62,6L146.84,56q-.19-2.43-.24-2.8H144.3q-.49,3.6-.61,5.83l-.23-2.87-.23-3h-2.15l1,8.49Z"/></g></svg>