<svg xmlns="http://www.w3.org/2000/svg" viewBox="0 0 200 90"><defs><style>.cls-1{fill:#1e5748;}.cls-2{fill:none;stroke:#1e5748;stroke-linejoin:round;stroke-width:3px;}</style></defs><title>TDpublic_illustrations_200x90_02_CreditCards</title><g id="ARTWORK"><path class="cls-1" d="M82.23,49.06H57.79a1.35,1.35,0,0,0,0,2.69H82.23a1.35,1.35,0,0,0,0-2.69Z"/><path class="cls-1" d="M82.23,56.8H57.79a1.35,1.35,0,0,0,0,2.69H82.23a1.35,1.35,0,0,0,0-2.69Z"/><path class="cls-1" d="M82.23,64.8H57.79a1.35,1.35,0,0,0,0,2.69H82.23a1.35,1.35,0,0,0,0-2.69Z"/><path class="cls-2" d="M50,28.44a1.54,1.54,0,0,1,1.52-1.55H77.38L90.19,39.67l-.06,37.21a1.53,1.53,0,0,1-1.52,1.55l-37.13,0A1.53,1.53,0,0,1,50,76.84Z"/><path class="cls-1" d="M77.76,27.54H75.94V39A2.08,2.08,0,0,0,78,41.11h11.6l0-1.46Z"/><path class="cls-2" d="M60.14,27V21.26a1.53,1.53,0,0,1,1.52-1.55l37.28,0a1.53,1.53,0,0,1,1.52,1.55l-.18,48.4a1.54,1.54,0,0,1-1.52,1.55H90.54"/><path class="cls-1" d="M151,46.26V42.11a2.94,2.94,0,0,0-2.93-2.93h-5.72v2.4a2.05,2.05,0,1,1-3,0v-2.4H118.77v2.4a2.05,2.05,0,1,1-3,0v-2.4H110A2.94,2.94,0,0,0,107,42.11v4.15Z"/><rect class="cls-1" x="140.01" y="35.14" width="1.78" height="8.66" rx="0.78" ry="0.78"/><rect class="cls-1" x="116.4" y="35.14" width="1.78" height="8.66" rx="0.78" ry="0.78"/><rect class="cls-1" x="100.27" y="61.54" width="4.25" height="3"/><path class="cls-1" d="M108.59,36.86a5.41,5.41,0,0,1,1.36-.18h1.64l.09-23.59a3,3,0,0,0-3-3L71.39,10a3,3,0,0,0-3,3v6.21h3l0-6.26,37.3.08Z"/><path class="cls-1" d="M107.07,47.86V73.47A2.94,2.94,0,0,0,110,76.4h38.14a2.94,2.94,0,0,0,2.93-2.93V47.86Zm21.61,20.72a.5.5,0,0,1-.8.4l-8.67-6.45a.5.5,0,0,1,0-.8l8.67-6.45a.5.5,0,0,1,.8.4Zm10.45,0a.5.5,0,0,1-.81.39l-8.22-6.45a.5.5,0,0,1,0-.79l8.22-6.45a.5.5,0,0,1,.81.39Z"/></g></svg>