<svg xmlns="http://www.w3.org/2000/svg" viewBox="0 0 258 164"><defs><style>.cls-1{fill:#1e5748;}</style></defs><title>studentAccount-Compare</title><g id="ARTWORK"><path class="cls-1" d="M20.87,56.31,52,63.46a2.56,2.56,0,0,0,1,0L102,54a2.4,2.4,0,0,0,.61-.21,8.72,8.72,0,0,1,.49-2l.37-1a2.24,2.24,0,0,0-.91-.76,2.13,2.13,0,0,0-1-.23,2.56,2.56,0,0,0-.47,0L52.63,59.27,23.72,52.63v-10l28.91,6.62,49.72-9.46,1-.28a2.08,2.08,0,0,0,1.28-1.81,2.14,2.14,0,0,0-1.74-2.09L71.72,28.52a2.53,2.53,0,0,0-1,0L21,37.93l-.2.06-.16,0a2.29,2.29,0,0,0-.33.15l0,0a1.9,1.9,0,0,0-.34.23l-.09.08a2.21,2.21,0,0,0-.19.19l-.09.13-.13.2-.07.14a2.36,2.36,0,0,0-.09.23l0,.08a.33.33,0,0,0,0,.06,1.78,1.78,0,0,0,0,.25,1.28,1.28,0,0,0,0,.16s0,0,0,0V54.27A2.14,2.14,0,0,0,20.87,56.31Zm46-23.82L88.92,38,74.43,40.68a4.83,4.83,0,0,1-2.16-.09L50.61,35.75Z"/><path class="cls-1" d="M52.69,82.05l-5.86-1.14v4.32L52,86.43a2.53,2.53,0,0,0,1,0L92.1,78.84a19.24,19.24,0,0,1-1.39-4.06Z"/><path class="cls-1" d="M23.72,65.65l29,6.4,38.69-7.39A14.69,14.69,0,0,1,94.23,60h0L52.78,67.78a2.52,2.52,0,0,0-1,0L21,60.89l-.2.06-.16,0a2.36,2.36,0,0,0-.33.15l0,0a1.94,1.94,0,0,0-.34.22l-.09.08a2.19,2.19,0,0,0-.19.19l-.09.13a2.08,2.08,0,0,0-.13.2l-.07.14a2.23,2.23,0,0,0-.09.23l0,.08a.33.33,0,0,0,0,.06,1.78,1.78,0,0,0,0,.25,1.32,1.32,0,0,0,0,.16.42.42,0,0,0,0,0V77.24a2.14,2.14,0,0,0,1.74,2l10.51,2.41,0-4.35L23.72,75.6Z"/><polygon class="cls-1" points="34.31 95.86 38.91 93.23 43.5 98.39 43.5 76.56 34.31 74.47 34.31 95.86"/><path class="cls-1" d="M128.2,62.06c-2.16-2.34-4.49-3.53-6.94-3.53a8.48,8.48,0,0,0-1,.06,10.08,10.08,0,0,0-1.28.23,20.4,20.4,0,0,0-3.42,1.27c-.41.19-.78.35-1.11.48a5.15,5.15,0,0,1-2.29.24,5.09,5.09,0,0,1-.52-.09l-.35-.09-.65-.27-.62-.27-.65-.29a14.54,14.54,0,0,0-3.86-1.19,8.55,8.55,0,0,0-1.14-.09h-.11a7.46,7.46,0,0,0-1.3.14,10.26,10.26,0,0,0-5.53,3.38A11.43,11.43,0,0,0,96.07,64a13.41,13.41,0,0,0-1.74,7.59,15.92,15.92,0,0,0,.37,2.66,16.26,16.26,0,0,0,1.49,4,16.49,16.49,0,0,0,2.43,3.44,13.7,13.7,0,0,0,9.91,4.66c.35,0,.7,0,1,0a3.81,3.81,0,0,0,1-.28,6.13,6.13,0,0,1,2.25-.47,5.69,5.69,0,0,1,2.21.47,3.6,3.6,0,0,0,.89.27c.39,0,.79.06,1.2.06A13.67,13.67,0,0,0,127,81.7a16.32,16.32,0,0,0,4.31-10.13A12.91,12.91,0,0,0,128.2,62.06Z"/><path class="cls-1" d="M112.73,58.83l.08.1.08.1a1.06,1.06,0,0,0,.32-.23,6.05,6.05,0,0,0,1-1.4l.17-.29.11-.19a8.28,8.28,0,0,0,.63-1.7c.36-1.61.92-1.79.67-.17a7.65,7.65,0,0,1-.58,1.91,9,9,0,0,1-.81,1.45c-.17.24-.33.46-.47.63a2.82,2.82,0,0,1-.48.47,5.12,5.12,0,0,0,4.23-2.41,5,5,0,0,0,.41-1.16,4.6,4.6,0,0,0-3-5.71c-2.61-1.08-.79.5-1,1.43a5.49,5.49,0,0,1-1.2,1.56,8.17,8.17,0,0,0-.63.8,3.34,3.34,0,0,0-.3,3.6A6.5,6.5,0,0,0,112.73,58.83Z"/><path class="cls-1" d="M106.77,56.79a3.11,3.11,0,0,0,2.33,1.86A3.56,3.56,0,0,0,111,58a2.47,2.47,0,0,1-1.13-.31h0a6,6,0,0,1-1.2-.73,4.63,4.63,0,0,1-.61-.61,2,2,0,0,1-.25-.36c-.22-.41.25-.28.66.19l0,0,.12.13a6.65,6.65,0,0,0,1.12.84,4.12,4.12,0,0,0,.48.25,1.21,1.21,0,0,0,1,.12c.08-.32.13-.45.21-.84a1.76,1.76,0,0,0-1.32-2l-1.18-.37a3.55,3.55,0,0,1-2.12-1.42,5,5,0,0,0-.29,2.77A4.21,4.21,0,0,0,106.77,56.79Z"/><path class="cls-1" d="M171.61,59.09a12.81,12.81,0,0,1,11.66-12.74A10.74,10.74,0,1,0,173.1,65.07,12.71,12.71,0,0,1,171.61,59.09Z"/><path class="cls-1" d="M233.86,90.92a3.57,3.57,0,0,0-2.48-1H227c-1.34-3.44-4-9.24-7.75-13.21,1.77-3.27,3.06-7.51,2.43-9.76A2.86,2.86,0,0,0,220.15,65c-3.39-1.6-6.67.08-13.52,3.92a36,36,0,0,0-6.23-1.47,10.68,10.68,0,1,0-20.8-.14,40.42,40.42,0,0,0-14.75,5.85c-9.32,6.5-14,16.48-13.32,28.16a12.52,12.52,0,0,1-4.79-.81,8.41,8.41,0,0,0,2.69-5.88A6.25,6.25,0,0,0,143,88.12a6.32,6.32,0,0,0-6.44,6.53,8.72,8.72,0,0,0,2.38,5.77,9.33,9.33,0,0,1-4.2.67,2.14,2.14,0,0,0-.63,4.23,15.26,15.26,0,0,0,8.62-1.91,17.31,17.31,0,0,0,8.3,2.23c.36,0,.72,0,1.07-.06a47.62,47.62,0,0,0,4.32,10.32c2.06,3.93,4.85,8.85,7.28,12.86.39.64,1.19,1.85,1.89,2.89l.93,1.4a5.32,5.32,0,0,0,4.22,2.49h8.89a3.5,3.5,0,0,0,2.46-1,3.45,3.45,0,0,0,1-2.46v-5.49a54.33,54.33,0,0,0,9.14.29l1.78,5.6c0,.07.05.14.08.21a4.6,4.6,0,0,0,1.78,2.07,4.73,4.73,0,0,0,2.64.81h9.35a3.51,3.51,0,0,0,2.45-1,3.44,3.44,0,0,0,1-2.46v-9.13c5.95-1.72,12.84-6.34,15.75-13.3l5-2.59a4.66,4.66,0,0,0,2-1.82,4.94,4.94,0,0,0,.68-2.51V93.38A3.45,3.45,0,0,0,233.86,90.92Zm-90.73,7.14-.26.22a5.23,5.23,0,0,1-2-3.62A2.07,2.07,0,0,1,143,92.39a2.18,2.18,0,0,1,1.47.53,2.24,2.24,0,0,1,.63,1.73C145.15,96.1,143.89,97.41,143.13,98.06Zm87.47,4.64a.66.66,0,0,1-.07.31s-.06.09-.25.18l-5.83,3a2.14,2.14,0,0,0-1,1.17c-2.28,6.27-9.08,10.68-14.61,11.8a2.14,2.14,0,0,0-1.71,2.09v10h-8.55a.57.57,0,0,1-.32-.12.48.48,0,0,1-.15-.14l-1.55-4.88a46.52,46.52,0,0,0,4.66-1.08A2.14,2.14,0,0,0,200,121a40.39,40.39,0,0,1-12.41,1.66c-1,0-1.91-.11-2.81-.19A25.63,25.63,0,0,1,174,119.08a2.14,2.14,0,1,0-2.33,3.58,25.69,25.69,0,0,0,7.21,3v5.63h-8a1.16,1.16,0,0,1-.71-.54l-1-1.46c-.66-1-1.42-2.13-1.79-2.74-2.39-3.93-5.13-8.77-7.15-12.63s-4.1-8.09-4.42-12.06C155,91.38,159,82.45,167.29,76.7c3.9-2.72,9.17-4.45,14.16-5.34a10.68,10.68,0,0,0,3.87,3.23h-6a1.07,1.07,0,1,0,0,2.14H200.7a1.07,1.07,0,0,0,0-2.14h-6a10.67,10.67,0,0,0,3.75-3.08c3.16.46,6.09,1.07,7.26,1.71a2.13,2.13,0,0,0,2.06,0c5.58-3.13,8.21-4.52,9.74-4.48a18.68,18.68,0,0,1-2.79,7.14,2.14,2.14,0,0,0,.38,2.79c4.35,3.79,7.29,11.11,8.36,14.09a2.13,2.13,0,0,0,2,1.42h5.11Z"/><path class="cls-1" d="M214.36,90.91a3.2,3.2,0,1,0,3.2,3.2A3.2,3.2,0,0,0,214.36,90.91Z"/><path class="cls-1" d="M177.4,65a12.78,12.78,0,0,1,15.47-12.51,10.74,10.74,0,1,0-15.23,14.94A12.79,12.79,0,0,1,177.4,65Z"/></g></svg>