<svg id="ARTWORK" xmlns="http://www.w3.org/2000/svg" viewBox="0 0 200 90"><defs><style>.cls-1{fill:#1e5748;}</style></defs><title>studentLineOfCredit</title><path class="cls-1" d="M50.38,39.82l29.49,6.76a2.43,2.43,0,0,0,.95,0l47.07-8.93a2,2,0,0,0-.4-3.94,2.42,2.42,0,0,0-.45,0L80.43,42.61,51.91,36.34V26.91l28.52,6.26,47.06-9,.94-.26a2,2,0,0,0,1.21-1.71,2,2,0,0,0-1.64-2L98.5,13.51a2.4,2.4,0,0,0-1,0L50.48,22.41l-.19.05-.15,0a2.16,2.16,0,0,0-.31.14l0,0a1.8,1.8,0,0,0-.32.22l-.08.08-.18.18-.09.12-.13.19-.07.13a2.24,2.24,0,0,0-.09.22l0,.08a.31.31,0,0,0,0,.06,1.68,1.68,0,0,0,0,.24,1.21,1.21,0,0,0,0,.15s0,0,0,0V37.89A2,2,0,0,0,50.38,39.82Z"/><path class="cls-1" d="M79.63,50.65l-29.15-6.5-.19.05-.15,0-.31.14,0,0a1.84,1.84,0,0,0-.32.21l-.08.08-.18.18-.09.12-.13.19-.07.13a2.11,2.11,0,0,0-.09.22l0,.08a.31.31,0,0,0,0,.06,1.69,1.69,0,0,0,0,.24,1.25,1.25,0,0,0,0,.15.39.39,0,0,0,0,0V59.63a2,2,0,0,0,1.64,1.93l9.94,2.28V59.72l-8.44-1.9V48.34l28.6,6.37,26.91-5V45.77l-26.83,4.9A2.38,2.38,0,0,0,79.63,50.65Z"/><path class="cls-1" d="M74.94,63.1v4.08l4.93,1.14a2.4,2.4,0,0,0,.95,0l26.58-5V59.17l-26.91,5Z"/><polygon class="cls-1" points="63.1 77.25 67.44 74.76 71.79 79.64 71.79 58.98 63.1 57.01 63.1 77.25"/><path class="cls-1" d="M151.13,44.35H113.41a2,2,0,0,0-2,2V68.17a2,2,0,0,0,2,2h37.71a2,2,0,0,0,2-2V46.33A2,2,0,0,0,151.13,44.35Zm0,23.82H113.41V56.26h37.71Zm0-16.87H113.41v-5h37.71Z"/></svg>