<svg xmlns="http://www.w3.org/2000/svg" viewBox="0 0 200 90"><title>studentManageMoney</title><g id="76a02d94-92f0-4500-9100-b4715182cf59" data-name="TITLES"><path d="M103.31,41l20.48,4.7a1.47,1.47,0,0,0,.66,0l32.18-6.2a1.72,1.72,0,0,0,.4-.14,5.85,5.85,0,0,1,.33-1.31l.25-.64a1.56,1.56,0,0,0-1.25-.65h-.31L124.18,42.9l-19-4.36V32l19,4.39,32.69-6.22.65-.18a1.36,1.36,0,0,0,.82-1.2,1.4,1.4,0,0,0-1.14-1.37l-20.49-4.69a1.83,1.83,0,0,0-.66,0l-32.69,6.2h-.26l-.21.1h0a1.07,1.07,0,0,0-.22.15l-.06.06-.13.13-.07.08-.08.13,0,.09a.94.94,0,0,0-.06.15v0h0v.27h0v9.39A1.4,1.4,0,0,0,103.31,41Zm30.23-15.65L148.05,29l-9.53,1.75a3.24,3.24,0,0,1-1.42,0l-14.3-3.18Z" style="fill:#1e5748"/><path d="M124.23,57.93l-3.86-.76V60l3.42.82a1.83,1.83,0,0,0,.66,0l25.69-5a12.67,12.67,0,0,1-.92-2.68Z" style="fill:#1e5748"/><path d="M105.18,47.14l19,4.21,25.45-4.86a9.53,9.53,0,0,1,1.87-3h0l-27.24,5.1a1.47,1.47,0,0,0-.66,0L103.4,44h-.23l-.22.1h0a1.43,1.43,0,0,0-.22.15l0,.06-.13.13-.07.08-.09.13,0,.09-.06.16v0h0v.27h0v9.39A1.41,1.41,0,0,0,103.43,56l6.9,1.59V54.71l-5-1.15Z" style="fill:#1e5748"/><polygon points="112.15 67 115.16 65.27 118.19 68.66 118.19 54.31 112.15 52.94 112.15 67" style="fill:#1e5748"/><path d="M173.87,44.75a6.25,6.25,0,0,0-4.58-2.32h-.63a7.25,7.25,0,0,0-.81.16,12.6,12.6,0,0,0-2.25.82l-.73.31a3.5,3.5,0,0,1-1.51.15l-.34-.06-.23-.05-.43-.17-.41-.18-.42-.19A9.55,9.55,0,0,0,159,42.4a6.32,6.32,0,0,0-.75-.06h-.08a5.71,5.71,0,0,0-.82.09,6.72,6.72,0,0,0-3.63,2.23,7.12,7.12,0,0,0-.93,1.25,8.84,8.84,0,0,0-1.15,5,11.53,11.53,0,0,0,.25,1.75,10.75,10.75,0,0,0,1,2.64,10.46,10.46,0,0,0,1.63,2.27A9,9,0,0,0,161,60.63h.69a2.17,2.17,0,0,0,.66-.19,4.17,4.17,0,0,1,1.48-.31,3.81,3.81,0,0,1,1.45.31,2.51,2.51,0,0,0,.59.18h.82a9,9,0,0,0,6.54-3.07,10.73,10.73,0,0,0,2.83-6.66A8.48,8.48,0,0,0,173.87,44.75Z" style="fill:#1e5748"/><path d="M163.68,42.66l0,.07.05.06a.6.6,0,0,0,.21-.14,4.11,4.11,0,0,0,.68-.93l.1-.19.08-.13a5.21,5.21,0,0,0,.41-1.12c.24-1.07.61-1.18.44-.11a5.09,5.09,0,0,1-.38,1.26,5.9,5.9,0,0,1-.53,1,3.15,3.15,0,0,1-.31.41,1.57,1.57,0,0,1-.32.31A3.36,3.36,0,0,0,167,41.47a3.44,3.44,0,0,0,.27-.76,3,3,0,0,0-2-3.75c-1.72-.7-.51.33-.67.94a3.51,3.51,0,0,1-.82,1,4.17,4.17,0,0,0-.41.53,2.18,2.18,0,0,0-.2,2.36A4,4,0,0,0,163.68,42.66Z" style="fill:#1e5748"/><path d="M159.77,41.29a2.05,2.05,0,0,0,1.53,1.22,2.38,2.38,0,0,0,1.23-.41,1.66,1.66,0,0,1-.75-.21h0a3.68,3.68,0,0,1-.81-.48,3.09,3.09,0,0,1-.41-.4,1.43,1.43,0,0,1-.16-.24c-.14-.27.16-.18.43.14h0l.08.08a4.31,4.31,0,0,0,.73.54,2.38,2.38,0,0,0,.31.17.82.82,0,0,0,.63.08,4.86,4.86,0,0,0,.14-.55,1.14,1.14,0,0,0-.86-1.31l-.78-.25a2.37,2.37,0,0,1-1.4-.93,3.33,3.33,0,0,0-.19,1.82A3.06,3.06,0,0,0,159.77,41.29Z" style="fill:#1e5748"/><path d="M32,37.61V32.1a1.88,1.88,0,0,1,1.88-1.88H84.7a1.89,1.89,0,0,1,1.9,1.88h0V57.71a1.89,1.89,0,0,1-1.88,1.89H80.05" style="fill:none;stroke:#1e5748;stroke-linejoin:round;stroke-width:2.5px"/><path d="M37.2,31.44V25.93a1.87,1.87,0,0,1,1.87-1.87H89.88a1.88,1.88,0,0,1,1.89,1.86h0V51.55a1.88,1.88,0,0,1-1.88,1.88H86.13" style="fill:none;stroke:#1e5748;stroke-linejoin:round;stroke-width:2.5px"/><path d="M80.38,35.87H25.78a1.69,1.69,0,0,0-1.69,1.69V65.39a1.7,1.7,0,0,0,1.69,1.7h54.6a1.7,1.7,0,0,0,1.7-1.7V37.56A1.7,1.7,0,0,0,80.38,35.87ZM57.94,57.73a3.47,3.47,0,0,1-.46.4,6.36,6.36,0,0,1-3.15,1.18v.84a1,1,0,0,1-.3.74,1,1,0,0,1-.71.3h-.07a1,1,0,0,1-1-1v-.85a6.89,6.89,0,0,1-4.52-2.12A1.6,1.6,0,0,1,50,55a4,4,0,0,0,3.27,1.23,3.75,3.75,0,0,0,2.26-.59,1.6,1.6,0,0,0,.59-1.37c0-.31,0-.55-.56-1a3,3,0,0,0-1.74-.65L52,52.29a5.59,5.59,0,0,1-2.68-1.23,3.64,3.64,0,0,1-1.21-2.87,4.32,4.32,0,0,1,4.16-4.45V42.68a1.07,1.07,0,0,1,1-1A1,1,0,0,1,54,42a1,1,0,0,1,.29.74v1.19a6.6,6.6,0,0,1,3.24,1.48l0,0a1.57,1.57,0,0,1,.08,2.23,1.64,1.64,0,0,1-1.19.61,1.56,1.56,0,0,1-1.07-.41A4,4,0,0,0,52.71,47a1.37,1.37,0,0,0-1.46,1.26c0,.61.67.85,1.22.93l1.81.3a5.91,5.91,0,0,1,3.33,1.34,4.28,4.28,0,0,1,1.71,3.4A4.82,4.82,0,0,1,57.94,57.73Z" style="fill:#1e5748"/></g></svg>