<svg xmlns="http://www.w3.org/2000/svg" viewBox="0 0 320 180"><defs><style>.cls-1,.cls-4{fill:#1e5748;}.cls-2,.cls-3{fill:none;stroke:#1e5748;stroke-width:3px;}.cls-2{stroke-linecap:round;stroke-linejoin:round;}.cls-3,.cls-4{stroke-miterlimit:10;}.cls-4{stroke:#fff;}</style></defs><title>studentAdvice</title><g id="TITLES"><rect class="cls-1" x="189.55" y="103.75" width="3.46" height="1.93"/><rect class="cls-1" x="215.5" y="103.75" width="3.46" height="1.93"/><rect class="cls-1" x="198.2" y="103.75" width="3.46" height="1.93"/><rect class="cls-1" x="224.15" y="103.75" width="3.46" height="1.93"/><rect class="cls-1" x="206.85" y="103.75" width="3.46" height="1.93"/><rect class="cls-1" x="174.91" y="93.53" width="3.46" height="1.93" transform="translate(14.6 212.29) rotate(-64.16)"/><rect class="cls-1" x="186.22" y="70.19" width="3.46" height="1.93" transform="translate(41.99 209.3) rotate(-64.16)"/><rect class="cls-1" x="178.68" y="85.75" width="3.46" height="1.93" transform="translate(23.73 211.29) rotate(-64.16)"/><rect class="cls-1" x="189.98" y="62.4" width="3.46" height="1.93" transform="translate(51.13 208.29) rotate(-64.16)"/><rect class="cls-1" x="182.45" y="77.97" width="3.46" height="1.93" transform="translate(32.86 210.3) rotate(-64.16)"/><rect class="cls-1" x="100.15" y="103.75" width="3.46" height="1.93"/><rect class="cls-1" x="126.09" y="103.75" width="3.46" height="1.93"/><rect class="cls-1" x="108.79" y="103.75" width="3.46" height="1.93"/><rect class="cls-1" x="134.74" y="103.75" width="3.46" height="1.93"/><rect class="cls-1" x="117.44" y="103.75" width="3.46" height="1.93"/><rect class="cls-1" x="146.76" y="92.77" width="1.93" height="3.46" transform="translate(-26.42 73.84) rotate(-25.84)"/><rect class="cls-1" x="135.45" y="69.43" width="1.93" height="3.46" transform="translate(-17.37 66.57) rotate(-25.84)"/><rect class="cls-1" x="142.99" y="84.99" width="1.93" height="3.46" transform="translate(-23.41 71.42) rotate(-25.84)"/><rect class="cls-1" x="131.68" y="61.63" width="1.93" height="3.46" transform="translate(-14.35 64.15) rotate(-25.84)"/><rect class="cls-1" x="139.22" y="77.21" width="1.93" height="3.46" transform="translate(-20.39 68.99) rotate(-25.84)"/><path class="cls-1" d="M122.25,133.65l25.07,5.75a2.06,2.06,0,0,0,.81,0l39.38-7.59a1.93,1.93,0,0,0,.49-.17,7,7,0,0,1,.4-1.6l.3-.79a1.8,1.8,0,0,0-.73-.61,1.71,1.71,0,0,0-.79-.18,2.06,2.06,0,0,0-.38,0l-39,7.51-23.26-5.34v-8L147.8,128l40-7.61.8-.22a1.67,1.67,0,0,0,1-1.46,1.72,1.72,0,0,0-1.4-1.68l-25.07-5.74a2,2,0,0,0-.81,0l-40,7.59H122l-.26.12h0a1.53,1.53,0,0,0-.27.18l-.07.07-.16.16-.08.1-.11.16-.06.11a1.9,1.9,0,0,0-.07.19V120h0a1.43,1.43,0,0,0,0,.2,1,1,0,0,0,0,.13h0v11.49A1.72,1.72,0,0,0,122.25,133.65Zm37-19.16L177,118.92l-11.66,2.15a3.89,3.89,0,0,1-1.74-.07l-17.49-3.89Z"/><path class="cls-1" d="M147.85,154.36l-4.72-.92v3.47l4.19,1a2,2,0,0,0,.81,0l31.43-6.12a15.48,15.48,0,0,1-1.12-3.27Z"/><path class="cls-1" d="M124.54,141.16l23.31,5.15L179,140.36a11.82,11.82,0,0,1,2.29-3.72h0l-33.34,6.24a2,2,0,0,0-.81,0l-24.77-5.52h-.29l-.26.12h0a1.56,1.56,0,0,0-.27.18l-.07.07-.16.16-.08.1-.11.16-.06.11a1.79,1.79,0,0,0-.07.19v.07h0a1.43,1.43,0,0,0,0,.2,1.06,1.06,0,0,0,0,.13h0v11.49a1.72,1.72,0,0,0,1.4,1.64l8.45,1.94v-3.5l-6.17-1.4Z"/><polygon class="cls-1" points="133.07 165.47 136.76 163.35 140.46 167.5 140.46 149.94 133.07 148.26 133.07 165.47"/><path class="cls-1" d="M208.6,138.24A7.63,7.63,0,0,0,203,135.4a6.82,6.82,0,0,0-.77,0,8.11,8.11,0,0,0-1,.19,16.41,16.41,0,0,0-2.75,1c-.33.15-.63.28-.89.38a4.15,4.15,0,0,1-1.85.19l-.42-.07-.28-.07-.52-.21-.5-.22-.52-.23a11.69,11.69,0,0,0-3.11-1,6.88,6.88,0,0,0-.92-.07h-.09a6,6,0,0,0-1,.11,8.26,8.26,0,0,0-4.45,2.72,9.19,9.19,0,0,0-1.14,1.54,10.78,10.78,0,0,0-1.4,6.11,12.8,12.8,0,0,0,.3,2.14,13.08,13.08,0,0,0,1.2,3.24,13.27,13.27,0,0,0,2,2.77,11,11,0,0,0,8,3.75h.84a3.07,3.07,0,0,0,.81-.23,4.93,4.93,0,0,1,1.81-.38,4.57,4.57,0,0,1,1.78.38,2.89,2.89,0,0,0,.72.21h1a11,11,0,0,0,8-3.75,13.13,13.13,0,0,0,3.47-8.15A10.38,10.38,0,0,0,208.6,138.24Z"/><path class="cls-1" d="M196.13,135.68l.06.08.06.08a.85.85,0,0,0,.26-.18,4.87,4.87,0,0,0,.83-1.13l.13-.24.09-.16a6.66,6.66,0,0,0,.51-1.37c.29-1.3.74-1.44.54-.13a6.16,6.16,0,0,1-.47,1.54,7.22,7.22,0,0,1-.65,1.17,4.62,4.62,0,0,1-.38.5,2.27,2.27,0,0,1-.39.38,4.12,4.12,0,0,0,3.41-2,4,4,0,0,0,.33-.93,3.7,3.7,0,0,0-2.43-4.59c-2.1-.86-.63.4-.82,1.15a4.41,4.41,0,0,1-1,1.25,6.57,6.57,0,0,0-.51.65,2.68,2.68,0,0,0-.24,2.89A5.23,5.23,0,0,0,196.13,135.68Z"/><path class="cls-1" d="M191.35,134a2.5,2.5,0,0,0,1.87,1.49,2.87,2.87,0,0,0,1.5-.5,2,2,0,0,1-.91-.25h0a4.8,4.8,0,0,1-1-.59,3.72,3.72,0,0,1-.49-.49,1.57,1.57,0,0,1-.2-.29c-.17-.33.2-.23.53.16h0l.09.1a5.35,5.35,0,0,0,.9.67,3.32,3.32,0,0,0,.38.2,1,1,0,0,0,.77.1c.07-.26.11-.36.17-.67a1.41,1.41,0,0,0-1.06-1.61l-.95-.3a2.86,2.86,0,0,1-1.71-1.14,4,4,0,0,0-.23,2.23A3.39,3.39,0,0,0,191.35,134Z"/><path class="cls-1" d="M92.34,46.09a.47.47,0,0,1-.21,0,.48.48,0,0,1-.26-.51l.5-3-2.79-1.31a.48.48,0,0,1,.13-.91l3-.47.42-3.15a.48.48,0,0,1,.91-.15l1.39,2.75,3-.58a.48.48,0,0,1,.43.81L96.7,41.74l1.49,2.7a.48.48,0,0,1-.64.66l-2.74-1.41-2.12,2.25A.48.48,0,0,1,92.34,46.09Zm.84-5.85Z"/><line class="cls-2" x1="105.63" y1="40.45" x2="130.94" y2="40.45"/><rect class="cls-3" x="81.72" y="17.07" width="56.81" height="34.1" rx="1" ry="1"/><rect class="cls-1" x="82.16" y="25.82" width="55.92" height="7.16"/><path class="cls-1" d="M87.42,103.24a2.19,2.19,0,0,0-1.52-.63H83.19a26.14,26.14,0,0,0-4.76-8.11c1.09-2,1.88-4.62,1.49-6A1.76,1.76,0,0,0,79,87.34c-2.08-1-4.1.05-8.31,2.41a22.1,22.1,0,0,0-3.83-.91,6.56,6.56,0,1,0-12.72-.08,24.83,24.83,0,0,0-9.06,3.59,18.93,18.93,0,0,0-8.18,17.3,7.69,7.69,0,0,1-2.94-.5,5.16,5.16,0,0,0,1.65-3.61,3.84,3.84,0,0,0-3.68-4h-.24a3.88,3.88,0,0,0-4,3.76q0,.12,0,.24a5.36,5.36,0,0,0,1.45,3.54,5.73,5.73,0,0,1-2.58.41,1.31,1.31,0,1,0-.39,2.6h0a9.38,9.38,0,0,0,5.29-1.17,10.64,10.64,0,0,0,5.1,1.37h.66a29.25,29.25,0,0,0,2.66,6.34c1.27,2.41,3,5.44,4.47,7.9.24.39.73,1.14,1.16,1.78l.57.86a3.27,3.27,0,0,0,2.59,1.53h5.47a2.15,2.15,0,0,0,1.51-.64,2.12,2.12,0,0,0,.62-1.51v-3.37a33.38,33.38,0,0,0,5.61.18L63,128.8v.13a2.83,2.83,0,0,0,1.17,1.23,2.91,2.91,0,0,0,1.62.5H71.5A2.15,2.15,0,0,0,73,130a2.12,2.12,0,0,0,.62-1.51V122.9c3.65-1.06,7.89-3.89,9.67-8.17l3.09-1.59A2.86,2.86,0,0,0,87.63,112a3,3,0,0,0,.42-1.54v-5.72A2.12,2.12,0,0,0,87.42,103.24Zm-55.74,4.39-.16.13a3.21,3.21,0,0,1-1.22-2.22,1.27,1.27,0,0,1,1.14-1.39h.19a1.34,1.34,0,0,1,.9.33,1.38,1.38,0,0,1,.39,1.06,3.14,3.14,0,0,1-1.24,2.08Zm53.74,2.85a.4.4,0,0,1,0,.19s0,.06-.15.11l-3.58,1.84a1.31,1.31,0,0,0-.63.72c-1.4,3.85-5.58,6.56-9,7.25A1.31,1.31,0,0,0,71,121.88V128H65.73a.35.35,0,0,1-.19-.07.29.29,0,0,1-.09-.08l-1-3a28.58,28.58,0,0,0,2.86-.66,1.31,1.31,0,0,0-.73-2.52h0a24.81,24.81,0,0,1-7.62,1,16.19,16.19,0,0,1-1.73-.12,15.74,15.74,0,0,1-6.63-2.06,1.31,1.31,0,0,0-1.43,2.2h0a15.78,15.78,0,0,0,4.43,1.83V128H48.72a.72.72,0,0,1-.44-.33l-.59-.89c-.4-.61-.88-1.31-1.1-1.68-1.47-2.42-3.15-5.39-4.39-7.76s-2.52-5-2.72-7.41a16.45,16.45,0,0,1,7-15.45,22.55,22.55,0,0,1,8.74-3.26,6.56,6.56,0,0,0,2.38,2H53.92a.66.66,0,0,0,0,1.31H67a.66.66,0,0,0,0-1.31H63.37a6.56,6.56,0,0,0,2.3-1.89,17.74,17.74,0,0,1,4.46,1,1.31,1.31,0,0,0,1.27,0c3.43-1.92,5-2.78,6-2.75A11.47,11.47,0,0,1,75.69,94a1.31,1.31,0,0,0,.23,1.71c2.67,2.33,4.48,6.83,5.13,8.65a1.31,1.31,0,0,0,1.24.87h3.14Z"/><path class="cls-1" d="M75.44,103.24a2,2,0,1,0,2,2A2,2,0,0,0,75.44,103.24Z"/><path class="cls-1" d="M238.85,42.6l-2.07-5.85-1.89,5.85Zm-.61-8.67,3.35,9.44a1.17,1.17,0,0,1-1.1,1.55h-7.17a1.16,1.16,0,0,1-1.1-1.52l3-9.42a1.26,1.26,0,0,1-.06-.27v-6L208.49,38.37a1.5,1.5,0,0,1-.57.11,1.42,1.42,0,0,1-.56-.11L177.86,26.9a1.54,1.54,0,0,1,0-2.88l29.5-11a1.46,1.46,0,0,1,1.08,0l28.81,11h0l.12.06a1.65,1.65,0,0,1,.33.23l.12.13a1.39,1.39,0,0,1,.21.31l.07.15a1.55,1.55,0,0,1,.11.54h0v8.24A1.57,1.57,0,0,1,238.24,33.93Zm-30.32,1.31,24.58-9.8-24.58-9.3-25.15,9.35Z"/><polygon class="cls-1" points="232.5 25.49 207.92 35.28 182.77 25.49 207.92 16.14 232.5 25.49"/><path class="cls-4" d="M227.68,31.89v14.8c-1.12,1.2-10.87,4.58-19.08,4.58-8.71,0-19.35-3.23-20.64-4.55V31.86l19.17,7.38a1.9,1.9,0,0,0,1.43,0Z"/><g id="borrowing"><path class="cls-1" d="M292.13,117.55l-14.21-5.46a9.82,9.82,0,0,0-7.75,0l-8.77,4.38a2.18,2.18,0,0,0-1.33,1.91c0,1.55,1.79,2.41,2.38,2.66,3.17,1.53,9.19-.79,9.87-1.07a1.34,1.34,0,0,0-1-2.48c-2.13.85-6.13,1.91-7.73,1.13l-.32-.15,8-4a7.19,7.19,0,0,1,5.56,0l13.32,5.1a16.56,16.56,0,0,1-4.1,7.33L279.26,122a1.33,1.33,0,0,0-1.33-.13s-10.47,4.78-12.08,5.49a3.66,3.66,0,0,1-3.24,0l-19.77-10.27a1.63,1.63,0,0,1,.4-.33,2.24,2.24,0,0,1,1.83-.07l12,4.4a1.34,1.34,0,1,0,1-2.48H258l-12.19-4.42a4.47,4.47,0,0,0-6.11,3.16,1.33,1.33,0,0,0,.68,1.48l20.82,11a5.84,5.84,0,0,0,2.84.69,6.89,6.89,0,0,0,2.8-.61l11.42-5.18,7.07,5a1.33,1.33,0,0,0,1.63,0,18.86,18.86,0,0,0,6-10.66A1.33,1.33,0,0,0,292.13,117.55Z"/><path class="cls-1" d="M283.66,99.56H289V80.91H250.35v5.33h-6.66v20h40ZM253,83.56h33.31V96.89h-2.66V86.24H253Zm13.32,16.53a4.2,4.2,0,0,1-2.21,1v.52a.6.6,0,0,1-.56.64h-.08a.57.57,0,0,1-.64-.61v-.52a4.22,4.22,0,0,1-2.76-1.33.94.94,0,0,1,1.33-1.33,2.5,2.5,0,0,0,2,.75,2.26,2.26,0,0,0,1.33-.36.92.92,0,0,0,.36-.84c0-.43-.44-1-1.41-1a6,6,0,0,1-2.77-.95,2.21,2.21,0,0,1-.59-1.81,2.66,2.66,0,0,1,2.54-2.66v-.65a.65.65,0,0,1,.64-.64.59.59,0,0,1,.64.64v.65a3.88,3.88,0,0,1,2,.92,1,1,0,0,1,.07,1.33,1,1,0,0,1-1.33.07,2.48,2.48,0,0,0-1.64-.51.84.84,0,0,0-.9.77v.08c0,.4.4.53.75.59l1.11.19a3.58,3.58,0,0,1,2,.85,2.66,2.66,0,0,1,1,2.09,2.88,2.88,0,0,1-.88,2.13Z"/></g></g></svg>