<svg xmlns="http://www.w3.org/2000/svg" viewBox="0 0 200 90"><defs><style>.cls-1{fill:#1e5748;}</style></defs><title>TDpublic_illustrations_200x90_01_Accounts</title><g id="ARTWORK"><g id="Layer_22" data-name="Layer 22"><path class="cls-1" d="M29.9,27.34l18,4.12a1.48,1.48,0,0,0,.58,0L76.72,26a1.39,1.39,0,0,0,.35-.12,5,5,0,0,1,.29-1.15l.21-.56a1.29,1.29,0,0,0-.53-.44,1.23,1.23,0,0,0-.57-.13l-.27,0L48.23,29,31.54,25.22V19.47l16.69,3.82,28.7-5.46.57-.16a1.2,1.2,0,0,0,.74-1,1.23,1.23,0,0,0-1-1.2l-18-4.12a1.46,1.46,0,0,0-.58,0L30,16.73l-.12,0-.09,0-.19.08h0a1.1,1.1,0,0,0-.19.13l-.05,0-.11.11-.05.07-.08.12,0,.08-.05.13,0,0a.19.19,0,0,0,0,0,1,1,0,0,0,0,.14.74.74,0,0,0,0,.09v8.27A1.24,1.24,0,0,0,29.9,27.34ZM56.42,13.59l12.75,3.18-8.36,1.54a2.79,2.79,0,0,1-1.25-.05l-12.5-2.79Z"/><path class="cls-1" d="M48.27,42.19l-3.38-.66V44l3,.69a1.46,1.46,0,0,0,.58,0L71,40.34a11.11,11.11,0,0,1-.8-2.34Z"/><path class="cls-1" d="M31.54,32.73l16.72,3.69L70.6,32.15a8.48,8.48,0,0,1,1.64-2.67h0L48.32,34a1.45,1.45,0,0,0-.58,0L30,30l-.12,0-.09,0-.19.08h0a1.12,1.12,0,0,0-.19.13l-.05,0-.11.11-.05.07-.08.12,0,.08-.05.14,0,0a.19.19,0,0,0,0,0,1,1,0,0,0,0,.14.76.76,0,0,0,0,.09v8.27a1.24,1.24,0,0,0,1,1.18L36,42V39.48l-4.43-1Z"/><polygon class="cls-1" points="37.66 50.17 40.31 48.65 42.96 51.62 42.96 39.03 37.66 37.82 37.66 50.17"/><path class="cls-1" d="M91.85,30.65a5.48,5.48,0,0,0-4-2,4.89,4.89,0,0,0-.55,0,5.82,5.82,0,0,0-.74.13,11.77,11.77,0,0,0-2,.73l-.64.28a3,3,0,0,1-1.32.14l-.3,0-.2-.05-.37-.15-.36-.16L81,29.35a8.39,8.39,0,0,0-2.23-.69,4.94,4.94,0,0,0-.66,0h-.06a4.3,4.3,0,0,0-.75.08,5.92,5.92,0,0,0-3.19,2,6.6,6.6,0,0,0-.82,1.11,7.74,7.74,0,0,0-1,4.38,9.19,9.19,0,0,0,.22,1.54A9.39,9.39,0,0,0,73.38,40a9.52,9.52,0,0,0,1.4,2,7.91,7.91,0,0,0,5.72,2.69l.6,0a2.2,2.2,0,0,0,.58-.16,3.54,3.54,0,0,1,1.3-.27,3.28,3.28,0,0,1,1.28.27,2.08,2.08,0,0,0,.51.15c.22,0,.46,0,.69,0A7.89,7.89,0,0,0,91.18,42a9.42,9.42,0,0,0,2.49-5.85A7.45,7.45,0,0,0,91.85,30.65Z"/><path class="cls-1" d="M82.92,28.79l0,.06,0,.06a.61.61,0,0,0,.19-.13,3.49,3.49,0,0,0,.6-.81l.1-.17.06-.11a4.78,4.78,0,0,0,.37-1c.21-.93.53-1,.39-.1a4.42,4.42,0,0,1-.34,1.1,5.18,5.18,0,0,1-.47.84c-.1.14-.19.26-.27.36a1.63,1.63,0,0,1-.28.27,3,3,0,0,0,2.44-1.39,2.89,2.89,0,0,0,.24-.67,2.65,2.65,0,0,0-1.74-3.29c-1.51-.62-.45.29-.59.82a3.17,3.17,0,0,1-.69.9,4.71,4.71,0,0,0-.36.46,1.93,1.93,0,0,0-.17,2.08A3.75,3.75,0,0,0,82.92,28.79Z"/><path class="cls-1" d="M79.48,27.61a1.79,1.79,0,0,0,1.34,1.07,2.06,2.06,0,0,0,1.08-.36,1.43,1.43,0,0,1-.65-.18h0a3.44,3.44,0,0,1-.69-.42,2.67,2.67,0,0,1-.35-.35,1.13,1.13,0,0,1-.15-.21c-.12-.24.14-.16.38.11h0l.07.07a3.84,3.84,0,0,0,.64.48l.27.14a.7.7,0,0,0,.55.07c0-.19.08-.26.12-.48a1,1,0,0,0-.76-1.16l-.68-.21a2.05,2.05,0,0,1-1.23-.82,2.9,2.9,0,0,0-.17,1.6A2.43,2.43,0,0,0,79.48,27.61Z"/><path class="cls-1" d="M170.3,47.9a2.61,2.61,0,0,0-1.81-.76h-3.22a31.13,31.13,0,0,0-5.67-9.66c1.3-2.39,2.24-5.5,1.78-7.14A2.09,2.09,0,0,0,160.27,29c-2.48-1.17-4.88.06-9.89,2.87a26.31,26.31,0,0,0-4.56-1.08,7.81,7.81,0,1,0-15.21-.1,29.57,29.57,0,0,0-10.79,4.28C113,39.7,109.57,47,110.08,55.54a9.16,9.16,0,0,1-3.5-.6,6.15,6.15,0,0,0,2-4.3,4.57,4.57,0,0,0-4.67-4.78,4.62,4.62,0,0,0-4.71,4.78,6.38,6.38,0,0,0,1.74,4.22,6.82,6.82,0,0,1-3.07.49,1.56,1.56,0,0,0-.46,3.09,11.16,11.16,0,0,0,6.3-1.39,12.66,12.66,0,0,0,6.07,1.63c.27,0,.52,0,.78,0a34.83,34.83,0,0,0,3.16,7.55c1.51,2.87,3.55,6.48,5.32,9.4.28.47.87,1.35,1.38,2.12l.68,1a3.89,3.89,0,0,0,3.09,1.82h6.5a2.56,2.56,0,0,0,1.8-.76,2.52,2.52,0,0,0,.74-1.8V74a39.74,39.74,0,0,0,6.68.22l1.3,4.1.06.16a3.37,3.37,0,0,0,1.3,1.52,3.46,3.46,0,0,0,1.93.59h6.84a2.56,2.56,0,0,0,1.79-.76,2.52,2.52,0,0,0,.74-1.8V71.31c4.35-1.26,9.39-4.63,11.52-9.73l3.68-1.89a3.41,3.41,0,0,0,1.49-1.33,3.61,3.61,0,0,0,.5-1.84V49.7A2.53,2.53,0,0,0,170.3,47.9Zm-66.36,5.22-.19.16a3.83,3.83,0,0,1-1.46-2.65A1.52,1.52,0,0,1,103.88,49a1.6,1.6,0,0,1,1.08.39,1.64,1.64,0,0,1,.46,1.27A3.74,3.74,0,0,1,103.95,53.13Zm64,3.39a.48.48,0,0,1-.05.23s0,.07-.18.13l-4.26,2.19a1.56,1.56,0,0,0-.75.86C161,64.52,156,67.74,152,68.56a1.56,1.56,0,0,0-1.25,1.53v7.33h-6.25a.41.41,0,0,1-.23-.09.35.35,0,0,1-.11-.1L143,73.66a34,34,0,0,0,3.41-.79,1.56,1.56,0,0,0-.87-3,29.54,29.54,0,0,1-9.08,1.22c-.71,0-1.4-.08-2.06-.14a18.74,18.74,0,0,1-7.89-2.45,1.56,1.56,0,1,0-1.71,2.62,18.79,18.79,0,0,0,5.27,2.18v4.12h-5.86a.85.85,0,0,1-.52-.4L123,76c-.48-.72-1-1.56-1.31-2-1.75-2.88-3.75-6.41-5.23-9.23s-3-5.92-3.24-8.82c-.63-7.66,2.35-14.19,8.38-18.4A26.84,26.84,0,0,1,132,33.6,7.81,7.81,0,0,0,134.79,36h-4.37a.78.78,0,0,0,0,1.56H146A.78.78,0,0,0,146,36h-4.37a7.81,7.81,0,0,0,2.74-2.25A21.12,21.12,0,0,1,149.73,35a1.56,1.56,0,0,0,1.51,0c4.08-2.29,6-3.3,7.13-3.28a13.66,13.66,0,0,1-2,5.22,1.56,1.56,0,0,0,.28,2c3.18,2.77,5.33,8.13,6.11,10.3a1.56,1.56,0,0,0,1.47,1h3.74Z"/><path class="cls-1" d="M156,47.9a2.34,2.34,0,1,0,2.34,2.34A2.34,2.34,0,0,0,156,47.9Z"/></g></g></svg>