<svg xmlns="http://www.w3.org/2000/svg" viewBox="0 0 200 90"><defs><style>.cls-1{fill:#1e5748;}.cls-2,.cls-3{fill:none;}.cls-2{stroke:#fff;stroke-miterlimit:10;stroke-width:2px;}</style></defs><title>taxDeductions</title><g id="ARTWORK"><path class="cls-1" d="M76.27,67H57.14a1.25,1.25,0,0,1-1.25-1.25v-.4a1.25,1.25,0,0,1,1.25-1.25H81.85Z"/><path class="cls-1" d="M97.43,70V77.7H48.26V13.62H82.47V25.34A3.54,3.54,0,0,0,86,28.87H96.6a4.53,4.53,0,0,0,.63,0l.2,0V56.28l3-1.39V25.82c0-.25-16-15.29-16-15.29H47.4a2,2,0,0,0-2,2V78.63a2,2,0,0,0,2,2h51a2,2,0,0,0,2-2v-10Z"/><path class="cls-1" d="M65.48,34.89H58.75a2.5,2.5,0,0,1-2.5-2.5V25.66a2.5,2.5,0,0,1,2.5-2.5h6.72a2.5,2.5,0,0,1,2.5,2.5v6.72A2.5,2.5,0,0,1,65.48,34.89Zm-6.22-3H65V26.16H59.25Z"/><path class="cls-1" d="M63,41.07v2.15H61.3V51.8H58.51V43.22H56.86V41.07Z"/><path class="cls-1" d="M67.87,41.07l1.6,10.73H66.62l-.15-1.93h-1L65.3,51.8H62.42l1.42-10.73ZM66.4,48q-.21-1.82-.42-4.5-.43,3.08-.54,4.5Z"/><path class="cls-1" d="M75.94,41.07l-1,4.74,1.48,6H73.85A35.4,35.4,0,0,1,73,47.89q-.11,1-.29,2.16l-.26,1.75H69.73l1-6-1-4.74h2.7q.07.44.29,1.48.18.79.29,1.45l.6-2.93Z"/><path class="cls-1" d="M76.83,41.07h4.65v2.15H79.62v2h1.74v2H79.62v2.36h2V51.8H76.83Z"/><path class="cls-1" d="M88.38,44.32H85.78v-.79a1.56,1.56,0,0,0-.1-.71.37.37,0,0,0-.33-.15.42.42,0,0,0-.38.21,1.2,1.2,0,0,0-.13.62,1.77,1.77,0,0,0,.14.81,2.11,2.11,0,0,0,.79.66,8,8,0,0,1,2.35,1.81,4.16,4.16,0,0,1,.48,2.29,4,4,0,0,1-.27,1.69,2.11,2.11,0,0,1-1,.91,4.11,4.11,0,0,1-1.79.37,4,4,0,0,1-1.91-.42,2.08,2.08,0,0,1-1-1.08,5.53,5.53,0,0,1-.25-1.86V48h2.59v1.3A1.73,1.73,0,0,0,85,50a.42.42,0,0,0,.39.17.45.45,0,0,0,.41-.22,1.24,1.24,0,0,0,.14-.65,2,2,0,0,0-.26-1.24,8.27,8.27,0,0,0-1.31-1,12.89,12.89,0,0,1-1.38-1,2.32,2.32,0,0,1-.56-.86,3.78,3.78,0,0,1-.22-1.4,3.9,3.9,0,0,1,.32-1.8,2.12,2.12,0,0,1,1-.89,4.07,4.07,0,0,1,1.7-.32,4.43,4.43,0,0,1,1.85.35,1.94,1.94,0,0,1,1,.88,4.68,4.68,0,0,1,.25,1.81Z"/><line class="cls-2" x1="101.12" y1="60.09" x2="119.45" y2="60.09"/><path class="cls-3" d="M143.91,74.6a6.4,6.4,0,1,0-7.36-5.26A6.4,6.4,0,0,0,143.91,74.6Z"/><circle class="cls-3" cx="144.48" cy="42.01" r="6.39" transform="translate(87.67 181.34) rotate(-84.03)"/><circle class="cls-3" cx="118.01" cy="54.1" r="1.85" transform="translate(51.86 165.8) rotate(-83.99)"/><path class="cls-1" d="M143.37,52.5a10.65,10.65,0,1,0-9.49-11.71c0,.24,0,.47,0,.7l-17.19,8.3-17-8.44v8.12l8.69,4.34-26.81,13c-2,1,4.23,2,6.56,2.08s6.82-.48,8.82-1.45l19.7-9.45,15.87,7.93a10.66,10.66,0,1,0,4-6.24L125,53.93l11.19-5.36A10.62,10.62,0,0,0,143.37,52.5Zm-5.25-11.26a6.39,6.39,0,1,1,5.69,7A6.39,6.39,0,0,1,138.12,41.23Zm3.7,20.63a6.4,6.4,0,1,1-5.26,7.36A6.4,6.4,0,0,1,141.82,61.87Zm-22-7.69a1.85,1.85,0,1,1-1.64-2A1.85,1.85,0,0,1,119.84,54.18Z"/><rect class="cls-1" x="56.18" y="56.16" width="33.18" height="2.9" rx="1.25" ry="1.25"/></g></svg>