<svg xmlns="http://www.w3.org/2000/svg" viewBox="0 0 200 90"><defs><style>.cls-1{fill:#1e5748;}</style></defs><title>taxDeferral</title><g id="ARTWORK"><path class="cls-1" d="M55.41,34.12h-7a2.5,2.5,0,0,1-2.5-2.5v-7a2.5,2.5,0,0,1,2.5-2.5h7a2.5,2.5,0,0,1,2.5,2.5v7A2.5,2.5,0,0,1,55.41,34.12Zm-6.5-3h6v-6h-6Z"/><path class="cls-1" d="M78.41,59.12h-31a1.5,1.5,0,0,1,0-3h31a1.5,1.5,0,0,1,0,3Z"/><path class="cls-1" d="M78.41,67.12h-31a1.5,1.5,0,0,1,0-3h31a1.5,1.5,0,0,1,0,3Z"/><path class="cls-1" d="M52.78,40.56v2.21H51.07v8.85H48.19V42.77h-1.7V40.56Z"/><path class="cls-1" d="M57.85,40.56l1.65,11.07H56.55l-.15-2h-1l-.17,2h-3l1.47-11.07Zm-1.53,7.12q-.22-1.88-.44-4.65-.44,3.18-.55,4.65Z"/><path class="cls-1" d="M66.17,40.56l-1,4.89,1.53,6.17H64a36.28,36.28,0,0,1-.87-4q-.11,1.05-.3,2.23l-.27,1.8h-2.8l1-6.17-1-4.89h2.78q.08.46.3,1.52.18.81.29,1.5l.62-3Z"/><path class="cls-1" d="M67.09,40.56h4.8v2.21H70v2.1h1.8V47H70v2.43h2.11v2.21h-5Z"/><path class="cls-1" d="M79,43.9H76.33v-.82a1.61,1.61,0,0,0-.1-.73.38.38,0,0,0-.34-.16.43.43,0,0,0-.39.21,1.22,1.22,0,0,0-.13.64,1.82,1.82,0,0,0,.15.83,2.17,2.17,0,0,0,.81.68,8.22,8.22,0,0,1,2.42,1.87,4.29,4.29,0,0,1,.5,2.36A4.16,4.16,0,0,1,79,50.54a2.18,2.18,0,0,1-1.07.94,4.24,4.24,0,0,1-1.85.38,4.12,4.12,0,0,1-2-.44A2.15,2.15,0,0,1,73,50.3a5.71,5.71,0,0,1-.25-1.92v-.72h2.67V49a1.79,1.79,0,0,0,.11.8.44.44,0,0,0,.4.18.47.47,0,0,0,.43-.23,1.29,1.29,0,0,0,.14-.67,2.08,2.08,0,0,0-.27-1.28,8.54,8.54,0,0,0-1.35-1,13.21,13.21,0,0,1-1.42-1,2.41,2.41,0,0,1-.58-.89,3.9,3.9,0,0,1-.23-1.45A4,4,0,0,1,73,41.57a2.19,2.19,0,0,1,1-.92,4.19,4.19,0,0,1,1.75-.33,4.56,4.56,0,0,1,1.91.36,2,2,0,0,1,1,.91A4.86,4.86,0,0,1,79,43.47Z"/><path class="cls-1" d="M153.57,47.56V65.08A1.54,1.54,0,0,1,152,66.61H103.59a1.54,1.54,0,0,1-1.54-1.54V32h51.52v4.42h3.08V25.09a3.86,3.86,0,0,0-3.84-3.84h-7.5v3.14a2.69,2.69,0,1,1-3.88,0V21.25H114.37v3.14a2.69,2.69,0,1,1-3.88,0V21.25h-7.67A3.86,3.86,0,0,0,99,25.09V65.84a3.86,3.86,0,0,0,3.84,3.84h50a3.86,3.86,0,0,0,3.84-3.84V47.56Z"/><rect class="cls-1" x="142.2" y="15.96" width="2.34" height="11.35" rx="1.02" ry="1.02"/><rect class="cls-1" x="111.27" y="15.96" width="2.34" height="11.35" rx="1.02" ry="1.02"/><path class="cls-1" d="M107,63.14h10.33a.79.79,0,0,0,.79-.79V52.81a.79.79,0,0,0-.79-.79H107a.79.79,0,0,0-.79.79v9.53A.79.79,0,0,0,107,63.14Zm0-10.33h10.33v9.53H107Z"/><path class="cls-1" d="M122.87,63.14H133.2a.79.79,0,0,0,.79-.79V52.81a.79.79,0,0,0-.79-.79H122.87a.79.79,0,0,0-.79.79v9.53A.79.79,0,0,0,122.87,63.14Zm0-10.33H133.2v9.53H122.87Z"/><path class="cls-1" d="M107,48h10.33a.79.79,0,0,0,.79-.79V37.72a.79.79,0,0,0-.79-.79H107a.79.79,0,0,0-.79.79v9.53A.79.79,0,0,0,107,48Zm0-10.33h10.33v9.53H107Z"/><path class="cls-1" d="M122.87,48H133.2a.79.79,0,0,0,.79-.79V37.72a.79.79,0,0,0-.79-.79H122.87a.79.79,0,0,0-.79.79v9.53A.79.79,0,0,0,122.87,48Zm0-10.33H133.2v9.53H122.87Z"/><path class="cls-1" d="M138.76,48h10.33a.79.79,0,0,0,.79-.79V37.72a.79.79,0,0,0-.79-.79H138.76a.79.79,0,0,0-.79.79v9.53A.79.79,0,0,0,138.76,48Zm0-10.33h10.33v9.53H138.76Z"/><path class="cls-1" d="M138.76,63.14h10.33a.79.79,0,0,0,.79-.79V52.81a.79.79,0,0,0-.79-.79H138.76a.79.79,0,0,0-.79.79v9.53A.79.79,0,0,0,138.76,63.14Zm0-10.33h10.33v9.53H138.76Z"/><path class="cls-1" d="M166.6,41.93l-3.5-3.27a.37.37,0,0,0-.62.27V40.7H149.61V37.43h-11V47.56h11V43.82h12.88v1.76a.37.37,0,0,0,.22.34l.14,0a.36.36,0,0,0,.25-.1l3.5-3.38a.37.37,0,0,0,0-.53Z"/><path class="cls-1" d="M74.41,9.62h-37a2,2,0,0,0-2,2v66a2,2,0,0,0,2,2H88.07a2,2,0,0,0,2-2v-53C90.07,24.37,74.41,9.62,74.41,9.62ZM86.87,76.57H38.12V12.69H72.44c0,.33,0,.68,0,1.06v10.4a3.48,3.48,0,0,0,3.47,3.47h10.4a4.44,4.44,0,0,0,.6,0Z"/></g></svg>