<svg xmlns="http://www.w3.org/2000/svg" viewBox="0 0 200 90"><defs><style>.cls-1{fill:#1e5748;}</style></defs><title>taxFreeSavingsAccount</title><g id="ARTWORK"><path class="cls-1" d="M166.73,48.24a2.61,2.61,0,0,0-1.81-.76h-3.22A31.13,31.13,0,0,0,156,37.83c1.3-2.39,2.24-5.5,1.78-7.14a2.09,2.09,0,0,0-1.11-1.38c-2.48-1.17-4.88.06-9.89,2.87a26.31,26.31,0,0,0-4.56-1.08A7.81,7.81,0,1,0,127,31a29.57,29.57,0,0,0-10.79,4.28C109.44,40,106,47.33,106.51,55.88a9.16,9.16,0,0,1-3.5-.6,6.15,6.15,0,0,0,2-4.3,4.57,4.57,0,0,0-4.67-4.78A4.62,4.62,0,0,0,95.6,51a6.38,6.38,0,0,0,1.74,4.22,6.82,6.82,0,0,1-3.07.49,1.56,1.56,0,0,0-.46,3.09,11.16,11.16,0,0,0,6.3-1.39A12.66,12.66,0,0,0,106.18,59c.27,0,.52,0,.78,0a34.83,34.83,0,0,0,3.16,7.55c1.51,2.87,3.55,6.48,5.32,9.4.28.47.87,1.35,1.38,2.12l.68,1a3.89,3.89,0,0,0,3.09,1.82h6.5a2.56,2.56,0,0,0,1.8-.76,2.52,2.52,0,0,0,.74-1.8v-4a39.74,39.74,0,0,0,6.68.22l1.3,4.1.06.16A3.37,3.37,0,0,0,139,80.3a3.46,3.46,0,0,0,1.93.59h6.84a2.56,2.56,0,0,0,1.79-.76,2.52,2.52,0,0,0,.74-1.8V71.65c4.35-1.26,9.39-4.63,11.52-9.73L165.49,60A3.41,3.41,0,0,0,167,58.7a3.61,3.61,0,0,0,.5-1.84V50A2.53,2.53,0,0,0,166.73,48.24Zm-66.36,5.22-.19.16A3.83,3.83,0,0,1,98.73,51a1.52,1.52,0,0,1,1.58-1.65,1.6,1.6,0,0,1,1.08.39,1.64,1.64,0,0,1,.46,1.27A3.74,3.74,0,0,1,100.37,53.47Zm64,3.39a.48.48,0,0,1-.05.23s0,.07-.18.13l-4.26,2.19a1.56,1.56,0,0,0-.75.86c-1.67,4.59-6.64,7.81-10.68,8.63a1.56,1.56,0,0,0-1.25,1.53v7.33h-6.25a.41.41,0,0,1-.23-.09.35.35,0,0,1-.11-.1L139.44,74a34,34,0,0,0,3.41-.79,1.56,1.56,0,0,0-.87-3,29.54,29.54,0,0,1-9.08,1.22c-.71,0-1.4-.08-2.06-.14A18.74,18.74,0,0,1,123,68.84a1.56,1.56,0,1,0-1.71,2.62,18.79,18.79,0,0,0,5.27,2.18v4.12h-5.86a.85.85,0,0,1-.52-.4l-.7-1.06c-.48-.72-1-1.56-1.31-2-1.75-2.88-3.75-6.41-5.23-9.23s-3-5.92-3.24-8.82C109,48.58,112,42.05,118,37.85a26.84,26.84,0,0,1,10.35-3.9,7.81,7.81,0,0,0,2.83,2.36h-4.37a.78.78,0,0,0,0,1.56h15.63a.78.78,0,0,0,0-1.56H138.1a7.81,7.81,0,0,0,2.74-2.25,21.12,21.12,0,0,1,5.31,1.25,1.56,1.56,0,0,0,1.51,0c4.08-2.29,6-3.3,7.13-3.28a13.66,13.66,0,0,1-2,5.22,1.56,1.56,0,0,0,.28,2c3.18,2.77,5.33,8.13,6.11,10.3a1.56,1.56,0,0,0,1.47,1h3.74Z"/><path class="cls-1" d="M152.47,48.24a2.34,2.34,0,1,0,2.34,2.34A2.34,2.34,0,0,0,152.47,48.24Z"/><path class="cls-1" d="M61.29,10A27.76,27.76,0,1,0,89,37.76,27.73,27.73,0,0,0,61.29,10ZM37.66,37.76A23.62,23.62,0,0,1,77.55,20.64L70,28.14H66.65l.6,2.8-2.94,2.94-.85-5.74H56.52l-2.07,15.6L52.14,46V31.83H55v-3.7H44.5v3.7h2.84V46.61h4.24L44.16,54A23.53,23.53,0,0,1,37.66,37.76Zm35.57-9.16-.94,4.59q-.19-1.14-.49-2.5l-.11-.55ZM59.36,38.82c.16-1.6.43-3.79.81-6.56.16,2,.31,3.71.47,5.28Zm1.91,22.57A23.53,23.53,0,0,1,46,55.8l9.18-9.18H59l.29-3.32H61l.26,3.32H66.2L64.78,37l3.11-3.11.51,2.38-1.75,10.3h4.68l.45-3q.33-2,.51-3.72a60.8,60.8,0,0,0,1.46,6.73H78.2l-2.54-10.3,1.69-8.17H73.67l5.64-5.64a23.62,23.62,0,0,1-18,38.89Z"/></g></svg>