<svg xmlns="http://www.w3.org/2000/svg" viewBox="0 0 200 90"><defs><style>.cls-1{fill:#1e5748;}</style></defs><title>taxFreeGrowth</title><g id="ARTWORK"><path class="cls-1" d="M85.12,40.74c6.47-1.69,13.94-5.48,18.52-10.35v3.68a1.29,1.29,0,0,0,2.59,0V27.2a1.32,1.32,0,0,0-1.29-1.29H98.26a1.29,1.29,0,0,0,0,2.59H102c-4.28,4.68-11.45,8.26-17.52,9.86a1.22,1.22,0,0,0-.9,1.49A1.14,1.14,0,0,0,85.12,40.74Z"/><polygon class="cls-1" points="98.86 42.23 98.86 53.18 94.58 53.18 94.58 45.81 87.11 45.81 87.11 53.08 83.63 53.08 83.63 55.57 121.56 55.57 121.56 53.08 118.08 53.08 118.08 33.37 110.61 33.37 110.61 53.18 106.33 53.18 106.33 42.23 98.86 42.23"/><path class="cls-1" d="M33.37,61.75V57.23c0,2.5,5.06,4.53,11.3,4.53.77,0,1.53,0,2.26-.09V66.2c-.73.06-1.49.09-2.26.09C38.43,66.28,33.37,64.25,33.37,61.75Z"/><path class="cls-1" d="M33.37,64c0,2.5,5.06,4.53,11.3,4.53.77,0,1.53,0,2.26-.09V73c-.73.06-1.49.09-2.26.09-6.24,0-11.3-2-11.3-4.53Z"/><ellipse class="cls-1" cx="44.69" cy="41.42" rx="4.52" ry="11.3" transform="translate(3.23 86.07) rotate(-89.94)"/><path class="cls-1" d="M33.39,48.19V43.67c0,2.5,5.06,4.53,11.3,4.53S56,46.19,56,43.69v4.52a1.87,1.87,0,0,1-.05.4c-3.7.66-6.65,2.1-8.07,3.92a27.34,27.34,0,0,1-3.18.18C38.44,52.72,33.38,50.69,33.39,48.19Z"/><path class="cls-1" d="M33.38,55V50.45c0,2.5,5.06,4.53,11.3,4.53.78,0,1.54,0,2.27-.09,0,0,0,.06,0,.09v4.43c-.73.06-1.49.09-2.26.09C38.43,59.5,33.38,57.47,33.38,55Z"/><path class="cls-1" d="M60.48,73.08c-6.24,0-11.3-2-11.3-4.53V64c0,2.5,5.06,4.53,11.3,4.53s11.3-2,11.31-4.51v4.52C71.79,71.07,66.73,73.09,60.48,73.08Z"/><path class="cls-1" d="M60.48,75.34c6.24,0,11.3-2,11.31-4.51v4.52c0,2.5-5.06,4.52-11.31,4.51s-11.3-2-11.3-4.53V70.81C49.18,73.31,54.24,75.34,60.48,75.34Z"/><path class="cls-1" d="M60.49,66.3c-6.24,0-11.3-2-11.3-4.53V57.25c0,2.5,5.06,4.53,11.3,4.53s11.3-2,11.31-4.51v4.52C71.79,64.29,66.73,66.31,60.49,66.3Z"/><ellipse class="cls-1" cx="60.5" cy="55" rx="4.52" ry="11.3" transform="translate(5.44 115.44) rotate(-89.94)"/><path class="cls-1" d="M129.43,24.27V11.07a1.23,1.23,0,0,0-1.19-1.29H76.76a1.32,1.32,0,0,0-1.29,1.29V63a1.32,1.32,0,0,0,1.29,1.29H87L81.54,78.17a1.23,1.23,0,1,0,2.39.6L89.5,64.33h11.65V78.47a1.29,1.29,0,1,0,2.59,0v-14h11.65L122,78.77a1.23,1.23,0,1,0,2.39-.6l-6.47-13.74h10.26a1.32,1.32,0,0,0,1.29-1.29V53.26l-1.14-1.64-1.35-1.94V61.85H78.05V20h48.89v7.82ZM88.41,16a1.32,1.32,0,0,1-1.29-1.29,1.26,1.26,0,0,1,1.29-1.29,1.29,1.29,0,1,1,0,2.59Zm28.18,0a1.32,1.32,0,0,1-1.29-1.29,1.26,1.26,0,0,1,1.29-1.29,1.29,1.29,0,1,1,0,2.59Z"/><path class="cls-1" d="M147.28,19.13A19.76,19.76,0,1,0,167,38.9,19.74,19.74,0,0,0,147.28,19.13ZM130.46,38.89a16.81,16.81,0,0,1,28.4-12.18L153.51,32H151.1l.42,2-2.09,2.09L148.83,32h-4.94l-1.48,11.11-1.64,1.64V34.68h2V32h-7.47v2.63h2V45.19h3l-5.28,5.28A16.75,16.75,0,0,1,130.46,38.89Zm25.32-6.52-.67,3.27q-.14-.81-.35-1.78l-.08-.39Zm-9.87,7.28c.11-1.14.31-2.69.58-4.67.11,1.4.22,2.64.33,3.76Zm1.36,16.06a16.75,16.75,0,0,1-10.86-4l6.54-6.54h2.72l.21-2.36h1.22l.18,2.36h3.49l-1-6.82L152,36.17l.36,1.7L151.1,45.2h3.33l.32-2.14q.23-1.4.36-2.65a43.28,43.28,0,0,0,1,4.79h3.17l-1.81-7.33,1.2-5.82H156.1l4-4a16.82,16.82,0,0,1-12.84,27.68Z"/></g></svg>