<svg xmlns="http://www.w3.org/2000/svg" viewBox="0 0 200 90"><defs><style>.cls-1{fill:#1e5748;}</style></defs><title>taxFreeWithdrawls</title><g id="ARTWORK"><path class="cls-1" d="M140.05,36.54v2.71H138V50.11h-3.53V39.26h-2.09V36.54Z"/><path class="cls-1" d="M146.27,36.54l2,13.56h-3.6l-.19-2.44h-1.26L143,50.11h-3.65l1.8-13.56Zm-1.87,8.72q-.27-2.3-.54-5.7-.54,3.89-.68,5.69Z"/><path class="cls-1" d="M156.46,36.55l-1.24,6,1.87,7.57h-3.27a44.46,44.46,0,0,1-1.07-4.94q-.13,1.29-.37,2.73L152,50.11h-3.43l1.28-7.56-1.28-6H152q.09.56.37,1.87.22,1,.36,1.84l.75-3.7Z"/><path class="cls-1" d="M144.52,22.93A20.38,20.38,0,1,0,164.9,43.31,20.36,20.36,0,0,0,144.52,22.93ZM127.17,43.3a17.34,17.34,0,0,1,29.29-12.57L131.95,55.25A17.27,17.27,0,0,1,127.17,43.3Zm17.34,17.35a17.27,17.27,0,0,1-11.2-4.1L157.76,32.1a17.34,17.34,0,0,1-13.24,28.55Z"/><path class="cls-1" d="M35.57,10.75V29.16H67.41l-.1,47.07a3.93,3.93,0,0,0,3.93,3.93h29.46a3.93,3.93,0,0,0,3.93-3.93l-.1-47.06h21.06a20.66,20.66,0,0,1,1.55-1.85c.67-.67,1.93-1.83,1.93-1.83H104.51V21.79H129V18.11H42.94v3.68H67.43v3.68H39.25v-11h93.42l0,4.92,0,3.59a20.64,20.64,0,0,1,2-1c.77-.3,1.67-.62,1.67-.62V10.75ZM78.65,44.86a2,2,0,0,1,1.4-.58h0a2,2,0,0,1,1.39.58,5.6,5.6,0,0,0,4.49,1.69,5.1,5.1,0,0,0,3.13-.82,2.29,2.29,0,0,0,.86-2c0-.47-.06-.83-.81-1.47a4.14,4.14,0,0,0-2.4-.9L84.25,41a7.46,7.46,0,0,1-3.51-1.64,4.68,4.68,0,0,1-1.56-3.7,5.61,5.61,0,0,1,5.55-5.78V28.3A1.24,1.24,0,0,1,86,27.08a1.23,1.23,0,0,1,.89.37,1.18,1.18,0,0,1,.34.86V30a8.67,8.67,0,0,1,4.39,2A2,2,0,0,1,88.93,35a5.6,5.6,0,0,0-3.71-1.15,2.34,2.34,0,0,0-1.61.53,1.81,1.81,0,0,0-.48,1.34,1.07,1.07,0,0,0,.15.69,3.49,3.49,0,0,0,1.61.76l2.43.4a7.8,7.8,0,0,1,4.36,1.8,5.52,5.52,0,0,1,2.18,4.44,5.93,5.93,0,0,1-2.4,5.08,8.35,8.35,0,0,1-4.27,1.57v1.27a1.24,1.24,0,0,1-.34.87,1.26,1.26,0,0,1-.84.36h-.06a1.16,1.16,0,0,1-.83-.34,1.23,1.23,0,0,1-.37-.85V50.43a9.12,9.12,0,0,1-6.08-2.79A2,2,0,0,1,78.65,44.86ZM77.28,60.29a1.67,1.67,0,0,1,2.36,0l6.14,6.32,6.54-6.35a1.67,1.67,0,0,1,2.33,2.39L86.91,70.2a1.75,1.75,0,0,1-1.19.47,1.6,1.6,0,0,1-1.17-.51l-7.3-7.52A1.67,1.67,0,0,1,77.28,60.29Z"/></g></svg>