<svg xmlns="http://www.w3.org/2000/svg" viewBox="0 0 200 90"><defs><style>.cls-1{fill:#1e5748;}</style></defs><title>TDpublic_illustrations_200x90_01_Accounts</title><g id="ARTWORK"><g id="Layer_24" data-name="Layer 24"><path class="cls-1" d="M54.32,32.61V49.8H73.54V32.61ZM66.94,46.08H62.46V38h2.25v6.64h2.16c1.49,0,2.12-1,2.12-3.7s-.71-3.46-2.23-3.46H61.83v8.59H59.61V37.5H56.34V36.07H67.46c2.68,0,4,1.39,4,4.87C71.42,45.52,69.51,46.08,66.94,46.08Z"/><path class="cls-1" d="M66,56.53H55.93a1.38,1.38,0,1,0,0,2.75H66a1.38,1.38,0,0,0,0-2.75Z"/><path class="cls-1" d="M118.33,63.51H55.93a1.38,1.38,0,0,0,0,2.75h62.4a1.38,1.38,0,1,0,0-2.75Z"/><path class="cls-1" d="M83.18,56.53H73.08a1.38,1.38,0,0,0,0,2.75H83.18a1.38,1.38,0,0,0,0-2.75Z"/><path class="cls-1" d="M100,56.53H89.88a1.38,1.38,0,1,0,0,2.75H100a1.38,1.38,0,0,0,0-2.75Z"/><path class="cls-1" d="M117.41,56.53H107.32a1.38,1.38,0,1,0,0,2.75h10.09a1.38,1.38,0,1,0,0-2.75Z"/><path class="cls-1" d="M150.28,14.33H72.69a4.1,4.1,0,0,0-4.08,4.08v6.2h4.08v-6.2h77.59V28.62h-23.7V38.83h23.7v24.5h-23.7v4.08h23.7a4.1,4.1,0,0,0,4.08-4.08V18.41A4.1,4.1,0,0,0,150.28,14.33Z"/><path class="cls-1" d="M124.78,24.61H49.5a4,4,0,0,0-4,4V72.16a4,4,0,0,0,4,4h75.28a4,4,0,0,0,4-4V28.58A4,4,0,0,0,124.78,24.61Zm0,47.55H49.5V28.58h75.28Z"/></g></g></svg>