<svg xmlns="http://www.w3.org/2000/svg" viewBox="0 0 200 90"><defs><style>.cls-1{fill:#1e5748;}</style></defs><title>TDpublic_illustrations_200x90_01_Accounts</title><g id="ARTWORK"><g id="Layer_17" data-name="Layer 17"><path class="cls-1" d="M87.27,34.53l-12.54-5L77.24,17l-11.7,4.18L58.84,10.29,52.16,21.16,40.46,17,43,29.52l-12.54,5,10,7.52-6.69,11.7H47.14L48.81,66.3l10-8.36,10,8.36,1.67-12.54H83.92l-6.69-11.7ZM70.55,51.25c-3.34,3.35-6.69,5-11.7,5A17.15,17.15,0,0,1,42.13,39.55a17,17,0,0,1,5-12.54c3.34-3.34,6.69-5,11.7-5s8.36,1.67,11.7,5a17,17,0,0,1,5,12.54A16.51,16.51,0,0,1,70.55,51.25Z"/><path class="cls-1" d="M168.27,47.9a2.61,2.61,0,0,0-1.81-.76h-3.22a31.13,31.13,0,0,0-5.67-9.66c1.3-2.39,2.24-5.5,1.78-7.14A2.09,2.09,0,0,0,158.24,29c-2.48-1.17-4.88.06-9.89,2.87a26.31,26.31,0,0,0-4.56-1.08,7.81,7.81,0,1,0-15.21-.1,29.57,29.57,0,0,0-10.79,4.28C111,39.7,107.54,47,108,55.54a9.16,9.16,0,0,1-3.5-.6,6.15,6.15,0,0,0,2-4.3,4.57,4.57,0,0,0-4.67-4.78,4.62,4.62,0,0,0-4.71,4.78,6.38,6.38,0,0,0,1.74,4.22,6.82,6.82,0,0,1-3.07.49,1.56,1.56,0,0,0-.46,3.09,11.16,11.16,0,0,0,6.3-1.39,12.66,12.66,0,0,0,6.07,1.63c.27,0,.52,0,.78,0a34.83,34.83,0,0,0,3.16,7.55c1.51,2.87,3.55,6.48,5.32,9.4.28.47.87,1.35,1.38,2.12l.68,1a3.89,3.89,0,0,0,3.09,1.82h6.5a2.56,2.56,0,0,0,1.8-.76,2.52,2.52,0,0,0,.74-1.8V74a39.74,39.74,0,0,0,6.68.22l1.3,4.1.06.16a3.37,3.37,0,0,0,1.3,1.52,3.46,3.46,0,0,0,1.93.59h6.84a2.56,2.56,0,0,0,1.79-.76,2.52,2.52,0,0,0,.74-1.8V71.31c4.35-1.26,9.39-4.63,11.52-9.73L167,59.69a3.41,3.41,0,0,0,1.49-1.33,3.61,3.61,0,0,0,.5-1.84V49.7A2.53,2.53,0,0,0,168.27,47.9Zm-66.36,5.22-.19.16a3.83,3.83,0,0,1-1.46-2.65A1.52,1.52,0,0,1,101.85,49a1.6,1.6,0,0,1,1.08.39,1.64,1.64,0,0,1,.46,1.27A3.74,3.74,0,0,1,101.91,53.13Zm64,3.39a.48.48,0,0,1-.05.23s0,.07-.18.13l-4.26,2.19a1.56,1.56,0,0,0-.75.86C159,64.52,154,67.74,150,68.56a1.56,1.56,0,0,0-1.25,1.53v7.33h-6.25a.41.41,0,0,1-.23-.09.35.35,0,0,1-.11-.1L141,73.66a34,34,0,0,0,3.41-.79,1.56,1.56,0,0,0-.87-3,29.54,29.54,0,0,1-9.08,1.22c-.71,0-1.4-.08-2.06-.14a18.74,18.74,0,0,1-7.89-2.45,1.56,1.56,0,1,0-1.71,2.62,18.79,18.79,0,0,0,5.27,2.18v4.12H122.2a.85.85,0,0,1-.52-.4L121,76c-.48-.72-1-1.56-1.31-2-1.75-2.88-3.75-6.41-5.23-9.23s-3-5.92-3.24-8.82c-.63-7.66,2.35-14.19,8.38-18.4a26.84,26.84,0,0,1,10.35-3.9A7.81,7.81,0,0,0,132.76,36h-4.37a.78.78,0,1,0,0,1.56H144A.78.78,0,0,0,144,36h-4.37a7.81,7.81,0,0,0,2.74-2.25A21.12,21.12,0,0,1,147.69,35a1.56,1.56,0,0,0,1.51,0c4.08-2.29,6-3.3,7.13-3.28a13.66,13.66,0,0,1-2,5.22,1.56,1.56,0,0,0,.28,2c3.18,2.77,5.33,8.13,6.11,10.3a1.56,1.56,0,0,0,1.47,1h3.74Z"/><path class="cls-1" d="M154,47.9a2.34,2.34,0,1,0,2.34,2.34A2.34,2.34,0,0,0,154,47.9Z"/></g></g></svg>