<svg xmlns="http://www.w3.org/2000/svg" viewBox="0 0 201 90"><defs><style>.cls-1,.cls-4{fill:#1e5748;}.cls-2{fill:#1e5748;}.cls-3{fill:#fff;}.cls-4{stroke:#1e5748;stroke-miterlimit:10;}</style></defs><title>TDpublic_illustrations_200x90_01_Accounts</title><g id="ARTWORK"><g id="Layer_33" data-name="Layer 33"><path class="cls-1" d="M59.25,10h-24a9,9,0,0,0-9,9V71a9,9,0,0,0,9,9h24a9,9,0,0,0,9-9V19A9,9,0,0,0,59.25,10Zm6,61a6,6,0,0,1-6,6h-24a6,6,0,0,1-6-6V19a6,6,0,0,1,6-6h24a6,6,0,0,1,6,6Z"/><rect class="cls-1" x="33.25" y="17" width="28" height="46" rx="1" ry="1"/><circle class="cls-1" cx="47.25" cy="70" r="3"/><path class="cls-2" d="M139,53.11A2.17,2.17,0,1,1,137,55.28,2.12,2.12,0,0,1,139,53.11Zm0,7.06a4.78,4.78,0,0,0,4.65-4.89c0-2.7-4.65-12.55-4.65-12.55s-4.65,9.85-4.65,12.55A4.78,4.78,0,0,0,139,60.17Z"/><path class="cls-2" d="M167.94,57.22l.25,1.24h.05C168.16,58,168,57.63,167.94,57.22Z"/><path class="cls-1" d="M168.68,60.82h6.23a36.51,36.51,0,0,0-72.66,0h6.26l.4-2.36a30.67,30.67,0,0,1,8.29-15.38L120.12,46a1.1,1.1,0,0,0,1.55,0l.12-.12a1.1,1.1,0,0,0,0-1.55l-2.85-2.85a30,30,0,0,1,18.86-7.29v3.52a1.1,1.1,0,0,0,1.1,1.1h.17a1.1,1.1,0,0,0,1.1-1.1V34.2a30,30,0,0,1,18.5,7.63l-2.49,2.49a1.1,1.1,0,0,0,0,1.55l.12.12a1.1,1.1,0,0,0,1.55,0l2.52-2.52a30.68,30.68,0,0,1,7.6,13.75l-.07-.32.07.32c.1.41.22.82.3,1.24"/><path class="cls-3" d="M152.76,43h0Z"/><path class="cls-4" d="M85.58,31.6A18.65,18.65,0,0,1,91.12,45a19,19,0,0,1-5.54,13.4,1.12,1.12,0,0,0-.33.76,1,1,0,0,0,.33.76,1.06,1.06,0,0,0,1.51,0,21,21,0,0,0,0-29.73,1.06,1.06,0,0,0-1.51,0A1,1,0,0,0,85.58,31.6Z"/><path class="cls-4" d="M80.28,54.14a1,1,0,0,0,.33.76,1.06,1.06,0,0,0,1.51,0A14,14,0,0,0,86.2,45a13.89,13.89,0,0,0-4.12-9.89,1.07,1.07,0,1,0-1.51,1.51,11.83,11.83,0,0,1,0,16.8A1,1,0,0,0,80.28,54.14Z"/><path class="cls-4" d="M75.31,49.17a1.16,1.16,0,0,0,.28.76,1.06,1.06,0,0,0,1.51,0,7,7,0,0,0,0-9.85,1.07,1.07,0,0,0-1.51,1.51,4.8,4.8,0,0,1,0,6.82A1.16,1.16,0,0,0,75.31,49.17Z"/></g></g></svg>