<svg xmlns="http://www.w3.org/2000/svg" viewBox="0 0 200 90"><defs><style>.cls-1{fill:none;stroke:#1e5748;stroke-linecap:round;stroke-linejoin:round;stroke-width:3px;}.cls-2{fill:#1e5748;}</style></defs><title>TDMobileDeposit</title><g id="ARTWORK"><g id="Layer_32" data-name="Layer 32"><path class="cls-1" d="M58,29.57c-10.17,8-5.22,16.87-3.54,16.82,2.26-.07,2.7-5,7-10.78,1.19-1.61,4.1-5.49,6.71-2.88,1.34,1.34-.79,6.09-3.61,15.65-2.54,8.63-3.12,10.3-5,12.16-4.69,4.58-5.82,2.19-10.87,7.67a26.61,26.61,0,0,0-5.75,10.23L30.05,67.26a28.72,28.72,0,0,0,8.63-11.19c3.69-8.85-.31-13.32,3.84-21.42,3.22-6.29,11.12-12.18,15.66-13.74C58.18,20.92,58.13,26.82,58,29.57Z"/><path class="cls-1" d="M141.72,29.41c8.08,7.25,5.26,17,3.58,17-2.26-.07-2.7-5-7-10.78-1.19-1.61-4.1-5.49-6.71-2.88-1.34,1.34.79,6.09,3.61,15.65,2.54,8.63,3.12,10.3,5,12.16,4.69,4.58,5.82,2.19,10.87,7.67a26.61,26.61,0,0,1,5.75,10.23l12.79-11.19A28.72,28.72,0,0,1,161,56.08c-3.69-8.85.31-13.32-3.84-21.42-3.22-6.29-11.12-12.18-15.66-13.74C141.55,20.92,141.72,27.82,141.72,29.41Z"/><path class="cls-2" d="M131.73,11.62H68a11,11,0,0,0-11,11V42.31l3.68-6.07V22.65A7.38,7.38,0,0,1,68,15.29h63.76a7.38,7.38,0,0,1,7.36,7.36V36.36l3.68,5.11V22.65A11,11,0,0,0,131.73,11.62Z"/><path class="cls-2" d="M131.73,59.44H68a7.36,7.36,0,0,1-6.08-3.23L60,59.7a11,11,0,0,0,8,3.42h63.76a11,11,0,0,0,8.82-4.43l-2.38-3.07A7.37,7.37,0,0,1,131.73,59.44Z"/><path class="cls-2" d="M131.08,34.12a3.64,3.64,0,0,0-.57-.06,3.68,3.68,0,1,0,2.17,6.64Z"/><path class="cls-2" d="M121.1,19.58h-54a1.23,1.23,0,0,0-1.23,1.23V33.23a1.54,1.54,0,0,1,1.61-.06c1.42.92,1.83,2.92.92,5.67S66,44.91,66,44.91l-.11-.13v9A1.23,1.23,0,0,0,67.15,55h54a1.23,1.23,0,0,0,1.23-1.23V20.8A1.23,1.23,0,0,0,121.1,19.58ZM84.67,49.07H77.4a.5.5,0,0,1-.5-.5V41.15a.5.5,0,0,1,1,0v6.93h6.78a.5.5,0,0,1,0,1Zm.15-22.5H77.9V33.5a.5.5,0,0,1-1,0V26.07a.5.5,0,0,1,.5-.5h7.43a.5.5,0,0,1,0,1Zm7.25,11.81H87.3a.5.5,0,0,1,0-1h4.78a.5.5,0,0,1,0,1Zm2.76,6.54a.5.5,0,0,1-1,0V40.14a.5.5,0,0,1,1,0Zm0-9.3a.5.5,0,0,1-1,0V30.84a.5.5,0,1,1,1,0Zm6.54,2.76H96.6a.5.5,0,0,1,0-1h4.78a.5.5,0,0,1,0,1Zm10.4,10.19a.5.5,0,0,1-.5.5h-7.42a.5.5,0,1,1,0-1h6.92V41.15a.5.5,0,0,1,1,0Zm0-15.08a.5.5,0,0,1-1,0V26.57h-6.62a.5.5,0,0,1,0-1h7.13a.5.5,0,0,1,.5.5Z"/></g></g></svg>