<svg xmlns="http://www.w3.org/2000/svg" viewBox="0 0 200 90"><defs><style>.cls-1{fill:#1e5748;}</style></defs><title>Artboard 239</title><g id="ARTWORK"><g id="Layer_31" data-name="Layer 31"><path class="cls-1" d="M114.48,23.12V62.65H85.65V23.12h28.83m1-2H84.65a1,1,0,0,0-1,1V63.65a1,1,0,0,0,1,1h30.83a1,1,0,0,0,1-1V22.12a1,1,0,0,0-1-1Z"/><path class="cls-1" d="M112.14,10H88a9.07,9.07,0,0,0-9.06,9.06V71.38A9.07,9.07,0,0,0,88,80.44h24.15a9.07,9.07,0,0,0,9.06-9.06V19.06A9.07,9.07,0,0,0,112.14,10Zm6,61.38a6.06,6.06,0,0,1-6,6H88a6.06,6.06,0,0,1-6-6V19.06a6.06,6.06,0,0,1,6-6h24.15a6.06,6.06,0,0,1,6,6Z"/><rect class="cls-1" x="98.6" y="63.86" width="2.94" height="13.4" rx="0.54" ry="0.54" transform="translate(170.63 -29.5) rotate(90)"/><path class="cls-1" d="M89.58,29V47.64h20.84V29Zm13.68,14.61H98.41V34.86h2.44v7.19h2.34c1.62,0,2.3-1.12,2.3-4s-.77-3.75-2.42-3.75H97.73v9.31H95.31V34.3H91.77V32.75h12.06c2.91,0,4.29,1.5,4.29,5.28C108.11,43,106.05,43.61,103.26,43.61Z"/></g></g></svg>