<svg xmlns="http://www.w3.org/2000/svg" viewBox="0 0 320 180"><defs><style>.cls-1{fill:#1e5748;}</style></defs><title>TDAutoFinance</title><g id="ARTWORK"><rect class="cls-1" x="38.19" y="136.21" width="103.1" height="6.25" rx="1.56" ry="1.56"/><rect class="cls-1" x="38.19" y="73.73" width="103.1" height="6.25" rx="1.56" ry="1.56"/><path class="cls-1" d="M35.06,70.73H144.41a1.56,1.56,0,0,0,.67-3L90.4,42.05a1.55,1.55,0,0,0-1.33,0L34.4,67.75a1.58,1.58,0,0,0-.86,1.76A1.56,1.56,0,0,0,35.06,70.73Z"/><rect class="cls-1" x="44.52" y="83.15" width="10.83" height="49.88" rx="1.51" ry="1.51"/><rect class="cls-1" x="125.56" y="83.15" width="10.83" height="49.88" rx="1.51" ry="1.51"/><path class="cls-1" d="M64.81,86.08v44.57h49.85V86.08ZM97.54,121H85.93V100.1h5.83v17.2h5.61c3.87,0,5.5-2.68,5.5-9.58s-1.85-9-5.78-9H84.3V121H78.52V98.75H70.05V95H98.89c7,0,10.26,3.6,10.26,12.63C109.15,119.55,104.21,121,97.54,121Z"/><path class="cls-1" d="M261.15,84.14c-.93-2.79-2.74-4.15-5.55-4.15H218.66a5.38,5.38,0,0,0-5.55,4.15L207.9,99.78h58.46Z"/><path class="cls-1" d="M268.84,103.35a7.08,7.08,0,1,0,7.08,7.08A7.09,7.09,0,0,0,268.84,103.35Zm0,12.94a5.87,5.87,0,1,1,5.87-5.86A5.87,5.87,0,0,1,268.84,116.29Z"/><path class="cls-1" d="M205.74,103.35a7.08,7.08,0,1,0,7.07,7.08A7.08,7.08,0,0,0,205.74,103.35Zm0,12.94a5.87,5.87,0,1,1,5.86-5.86A5.87,5.87,0,0,1,205.74,116.29Z"/><path class="cls-1" d="M254.48,109.12h-34.7a1.85,1.85,0,0,0,0,3.7h34.7a1.85,1.85,0,0,0,0-3.7Z"/><path class="cls-1" d="M283.34,120.7V107.53a11.7,11.7,0,0,0-8.14-11.29l-6.6-17.56c-2.09-4.82-5.9-7.28-11.35-7.3H216.92c-5.36,0-9.17,2.57-11,7.39l-6.58,17.47a11.65,11.65,0,0,0-8.07,11.3V120.7a3.55,3.55,0,0,0-3.16,3.51v4a3.49,3.49,0,0,0,1,2.47l.09.08a3.48,3.48,0,0,0,.48.38l.14.09a3.94,3.94,0,0,0,.55.26l.13.06a3.72,3.72,0,0,0,.75.17h.07c.11,0,.21,0,.32,0h7.59v3.92a7,7,0,0,0,3.37,6.36,7,7,0,0,0,3.55.94,7.28,7.28,0,0,0,3.58-.94,7,7,0,0,0,3.4-6.36v-3.92h11.63v.49a2,2,0,0,0,2,2h21.13a2,2,0,0,0,2-2v-.49h11.58v3.93a6.92,6.92,0,0,0,7,7.29h0c3.34,0,6.93-2.29,6.93-7.3v-3.92H283c.11,0,.21,0,.31,0h.08a3.55,3.55,0,0,0,3.16-3.51v-4A3.55,3.55,0,0,0,283.34,120.7Zm-58.59,7.38h-33v-3.72h33Zm21.39,0v2.49h-17.7v-6.21h17.7Zm1.71-7.41H194.93V107.53a7.86,7.86,0,0,1,6-7.87l1.1-.14,7.32-19.44c1.31-3.4,3.73-5,7.59-5h40.31c4,0,6.45,1.59,7.93,5l7.32,19.45,1.1.14a7.92,7.92,0,0,1,6.06,7.88v13.13Zm35,7.41h-33v-3.72h33Z"/><path class="cls-1" d="M176.94,89.06V91a2.11,2.11,0,0,0,1.88,2.32,1.69,1.69,0,0,0,.45,0,2.18,2.18,0,0,0,2.32-2,1.4,1.4,0,0,0,0-.29V89.06a15.42,15.42,0,0,0,8.15-3.56,10.61,10.61,0,0,0,3.1-7.89,9.58,9.58,0,0,0-3.78-7.68,13.17,13.17,0,0,0-7.47-3.19l-4.09-.67c-1.24-.19-2.73-.7-2.73-2.17A3.08,3.08,0,0,1,178,61.06a9.09,9.09,0,0,1,6.05,1.87,3.63,3.63,0,0,0,5.1-.26,3.9,3.9,0,0,0-.25-5.12,14.33,14.33,0,0,0-7.31-3.4V51.52a2.18,2.18,0,0,0-2-2.33h-.34A2.33,2.33,0,0,0,177,51.52v2.33a9.71,9.71,0,0,0-9.31,10,8.09,8.09,0,0,0,2.73,6.44c3.42,2.89,10.17,3.49,10.17,3.49,3.56.14,5.09,2.12,5.19,3.7a3.41,3.41,0,0,1-1.35,3.08,8.28,8.28,0,0,1-5.1,1.32,9.27,9.27,0,0,1-7.42-2.58,3.78,3.78,0,0,0-5.1,0,3.72,3.72,0,0,0,0,5.1A15.5,15.5,0,0,0,176.94,89.06Z"/></g></svg>