<svg xmlns="http://www.w3.org/2000/svg" viewBox="0 0 200 90"><defs><style>.cls-1{fill:#1e5748;}</style></defs><title>TDBusinessCreditLifeInsurance</title><g id="ARTWORK"><path class="cls-1" d="M124.85,26.78,127.33,20a.79.79,0,0,1,.85-.57.83.83,0,0,1,.73.57l2.42,8.07,2-3.89a.83.83,0,0,1,1.41,0l2,3.09,2.78-6.05a.81.81,0,0,1,.79-.48.83.83,0,0,1,.75.54L144,29l2-3.94a.83.83,0,0,1,.73-.44h8.48a10.57,10.57,0,0,0,.83-7.43,9.77,9.77,0,0,0-10.68-7c-4.3.63-6.42,3.83-9.16,6.66-3-3.19-4.72-6.13-9.06-6.76a9.75,9.75,0,0,0-10.7,7,11.85,11.85,0,0,0,2,9.65Z"/><path class="cls-1" d="M147.37,26.37l-2.66,5.15A.83.83,0,0,1,144,32h0a.83.83,0,0,1-.73-.54l-2.95-7.67L137.7,29.3a.83.83,0,0,1-1.43.1l-2-3.15-2.4,4.44a.85.85,0,0,1-.81.42.83.83,0,0,1-.71-.59L128,22.9l-1.86,5a.83.83,0,0,1-.79.54h-5.85c3.71,4.9,9.95,9.91,16.61,15.86,7.75-7,14.91-12.43,18.3-17.94h-7.06Z"/><path class="cls-1" d="M87.9,25a5.35,5.35,0,0,1,5.34,5.34v3.31H108A2.33,2.33,0,0,1,110.37,36V74.89A2.33,2.33,0,0,1,108,77.21H55.88a2.33,2.33,0,0,1-2.32-2.32V36a2.33,2.33,0,0,1,2.32-2.32h14.8V30.34A5.35,5.35,0,0,1,76,25H87.9M74.24,33.65H89.68V30.34a1.78,1.78,0,0,0-1.78-1.78H76a1.78,1.78,0,0,0-1.78,1.78v3.31M87.9,22H76a8.35,8.35,0,0,0-8.34,8.34v.31H55.88A5.32,5.32,0,0,0,50.56,36V74.89a5.32,5.32,0,0,0,5.32,5.32H108a5.32,5.32,0,0,0,5.32-5.32V36A5.32,5.32,0,0,0,108,30.65H96.24v-.31A8.35,8.35,0,0,0,87.9,22Z"/><path class="cls-1" d="M87.73,37.64a.46.46,0,0,1,.26.19.47.47,0,0,1,0,.47l-3.79,7v0H80.37v0l-.09-.16h0l-.15-.27,7.24-7.22Z"/><polygon class="cls-1" points="84.7 48.27 85.57 52.1 77.14 60.5 77.19 60.27 78.53 54.43 84.7 48.27"/><polygon class="cls-1" points="79.07 52.03 80.39 46.27 84.24 46.27 84.3 46.51 84.36 46.77 79.07 52.03"/><polygon class="cls-1" points="85.53 37.63 79.49 43.66 78.59 42 78.6 41.99 78.13 41.1 78.11 41.12 77.83 40.61 80.84 37.62 85.53 37.63"/><path class="cls-1" d="M76.58,37.84A.47.47,0,0,1,77,37.6h2l-1.81,1.81-.61-1.11A.47.47,0,0,1,76.58,37.84Z"/><path class="cls-1" d="M75.56,68.46a.47.47,0,0,1-.14-.44l.27-1.19.9-3.94,9.32-9.29.56,2.45h0l.31,1.38L75.65,68.53Z"/><polygon class="cls-1" points="78.07 70.67 77.46 70.13 76.63 69.4 87.13 58.94 87.16 59.07 87.41 60.18 88 62.77 79.14 71.61 78.07 70.67"/><path class="cls-1" d="M89.07,68.45l-6.42,5.66a.47.47,0,0,1-.66,0l-1.71-1.5-.16-.14,8.23-8.2.05.23L89.2,68A.47.47,0,0,1,89.07,68.45Z"/></g></svg>