<svg id="ARTWORK" xmlns="http://www.w3.org/2000/svg" viewBox="0 0 200 90"><defs><style>.cls-1{fill:#1e5748;}.cls-2{fill:none;}</style></defs><title>TDCarryForwardRSP</title><path class="cls-1" d="M105.41,26.8c-.5-.2-11.22-4.36-21.83,1.72l1.07-3a1.85,1.85,0,0,0-3.48-1.26l-2.86,7.88a1.85,1.85,0,0,0,1.08,2.36l8.16,3.1a1.85,1.85,0,0,0,1.31-3.46l-4.6-1.74c9.37-6.16,19.28-2.39,19.76-2.2a1.85,1.85,0,0,0,1.37-3.44Z"/><path class="cls-1" d="M133.32,29.75c-1.75-1.06-3.91,1.2-5.46,1.14s-2.76-2.27-4.52-2.21-2.46,1.88-3.87,2.21-4.93-2.44-6.35-.9c-1.14,1.25,2.36,6.24,3.73,8.09h12.63C130.92,36.11,134.76,30.62,133.32,29.75Z"/><path class="cls-1" d="M180.52,51.34h-9.09a1.24,1.24,0,0,1-1.23-1.23V41.71a1.24,1.24,0,0,1,1.23-1.24h9.09a1.24,1.24,0,0,1,1.23,1.24V50.1A1.24,1.24,0,0,1,180.52,51.34Zm-9.09-9.79a.16.16,0,0,0-.15.16V50.1a.15.15,0,0,0,.15.15h9.09a.15.15,0,0,0,.15-.15V41.71a.16.16,0,0,0-.15-.16Z"/><path class="cls-1" d="M166.53,64.62h-9.08a1.24,1.24,0,0,1-1.24-1.23V55a1.25,1.25,0,0,1,1.24-1.25h9.08A1.25,1.25,0,0,1,167.78,55v8.39A1.24,1.24,0,0,1,166.53,64.62Zm-9.08-9.79a.16.16,0,0,0-.16.16v8.39a.16.16,0,0,0,.16.15h9.08a.16.16,0,0,0,.16-.15V55a.16.16,0,0,0-.16-.16Z"/><path class="cls-1" d="M166.53,51.34h-9.08a1.24,1.24,0,0,1-1.24-1.23V41.71a1.25,1.25,0,0,1,1.24-1.24h9.08a1.25,1.25,0,0,1,1.25,1.24V50.1A1.24,1.24,0,0,1,166.53,51.34Zm-9.08-9.79a.16.16,0,0,0-.16.16V50.1a.15.15,0,0,0,.16.15h9.08a.15.15,0,0,0,.16-.15V41.71a.16.16,0,0,0-.16-.16Z"/><path class="cls-1" d="M152.55,64.62h-9.08a1.24,1.24,0,0,1-1.24-1.23V55a1.25,1.25,0,0,1,1.24-1.25h9.08A1.25,1.25,0,0,1,153.8,55v8.39A1.24,1.24,0,0,1,152.55,64.62Zm-9.08-9.79a.16.16,0,0,0-.16.16v8.39a.16.16,0,0,0,.16.15h9.08a.16.16,0,0,0,.16-.15V55a.16.16,0,0,0-.16-.16Z"/><path class="cls-1" d="M152.55,51.34h-9.08a1.24,1.24,0,0,1-1.24-1.23V41.71a1.25,1.25,0,0,1,1.24-1.24h9.08a1.25,1.25,0,0,1,1.24,1.24V50.1A1.24,1.24,0,0,1,152.55,51.34Zm-9.08-9.79a.16.16,0,0,0-.16.16V50.1a.15.15,0,0,0,.16.15h9.08a.15.15,0,0,0,.16-.15V41.71a.16.16,0,0,0-.16-.16Z"/><path class="cls-2" d="M180.67,61.62V55a.16.16,0,0,0-.15-.16h-9.09a.16.16,0,0,0-.15.16v8.39a.16.16,0,0,0,.15.15h4.84V61.62Z"/><polygon class="cls-1" points="174.44 59.5 174.45 71.06 187.79 59.64 187.96 59.5 174.44 59.5"/><path class="cls-1" d="M184.47,27h-6.82v2.86a2.44,2.44,0,1,1-3.52,0V27H163.51v2.86a2.45,2.45,0,1,1-3.52,0V27H149.53v2.86a2.45,2.45,0,1,1-3.53,0V27h-7a3.51,3.51,0,0,0-3.5,3.5V43c1,1.31,1.94,2.66,2.79,4V36.81h46.83V59.52H188v-29A3.52,3.52,0,0,0,184.47,27Z"/><path class="cls-1" d="M180.52,53.75h-9.09A1.24,1.24,0,0,0,170.19,55v8.39a1.24,1.24,0,0,0,1.23,1.23h5.11V63.54h-5.11a.16.16,0,0,1-.15-.15V55a.16.16,0,0,1,.15-.16h9.09a.16.16,0,0,1,.15.16v6.89h1.08V55A1.24,1.24,0,0,0,180.52,53.75Z"/><path class="cls-1" d="M176.87,23.13v8.46a.93.93,0,0,1-.92.93h-.28a.93.93,0,0,1-.92-.93V23.13a.92.92,0,0,1,.92-.93h.28A.92.92,0,0,1,176.87,23.13Z"/><path class="cls-1" d="M162.73,23.13v8.46a.94.94,0,0,1-.93.93h-.27a.94.94,0,0,1-.93-.93V23.13a.93.93,0,0,1,.93-.93h.27A.93.93,0,0,1,162.73,23.13Z"/><path class="cls-1" d="M148.74,23.13v8.46a.93.93,0,0,1-.92.93h-.27a.94.94,0,0,1-.93-.93V23.13a.93.93,0,0,1,.93-.93h.27A.92.92,0,0,1,148.74,23.13Z"/><path class="cls-1" d="M129.54,39.39H116.75c-6.27,6.22-14.07,16-10.06,23.12,3.17,5.63,10.32,7.09,17.27,7s13.68-1.75,16-7C142.91,55.8,135.37,45.76,129.54,39.39Zm-7.74,18.95a3,3,0,0,1-.33.28,4.42,4.42,0,0,1-2.2.83V60a.72.72,0,0,1-.71.73h0a.72.72,0,0,1-.71-.71v-.59A4.82,4.82,0,0,1,114.65,58a1.12,1.12,0,0,1,1.59-1.59,2.82,2.82,0,0,0,2.29.86,2.59,2.59,0,0,0,1.58-.41,1.12,1.12,0,0,0,.42-1c0-.23,0-.39-.4-.7a2.11,2.11,0,0,0-1.22-.45l-1.29-.21a4,4,0,0,1-1.88-.88,2.52,2.52,0,0,1-.85-2,3,3,0,0,1,2.91-3.12v-.75a.75.75,0,0,1,.73-.73.73.73,0,0,1,.53.22.71.71,0,0,1,.2.52v.82a4.62,4.62,0,0,1,2.27,1.06,1.13,1.13,0,0,1,.37.79,1.11,1.11,0,0,1-.29.8,1.17,1.17,0,0,1-.84.36,1.1,1.1,0,0,1-.75-.29,2.84,2.84,0,0,0-1.88-.58,1,1,0,0,0-1,.88c0,.45.46.62.85.67l1.27.21a4.1,4.1,0,0,1,2.33,1,3,3,0,0,1,1.17,2.39A3.39,3.39,0,0,1,121.81,58.34Zm9.12,0a3,3,0,0,1-.33.28,4.42,4.42,0,0,1-2.2.83V60a.72.72,0,0,1-.71.73h0a.72.72,0,0,1-.71-.71v-.59A4.82,4.82,0,0,1,123.77,58a1.12,1.12,0,0,1,1.59-1.59,2.82,2.82,0,0,0,2.29.86,2.59,2.59,0,0,0,1.58-.41,1.12,1.12,0,0,0,.42-1c0-.23,0-.39-.4-.7a2.11,2.11,0,0,0-1.22-.45l-1.29-.21a4,4,0,0,1-1.88-.88,2.52,2.52,0,0,1-.85-2,3,3,0,0,1,2.91-3.12v-.75a.75.75,0,0,1,.73-.73.73.73,0,0,1,.53.22.71.71,0,0,1,.2.52v.82a4.62,4.62,0,0,1,2.27,1.06,1.13,1.13,0,0,1,.37.79,1.11,1.11,0,0,1-.29.8,1.17,1.17,0,0,1-.84.36,1.1,1.1,0,0,1-.75-.29,2.84,2.84,0,0,0-1.88-.58,1,1,0,0,0-1,.88c0,.45.46.62.85.67l1.27.21a4.1,4.1,0,0,1,2.33,1,3,3,0,0,1,1.17,2.39A3.39,3.39,0,0,1,130.93,58.34Z"/><path class="cls-1" d="M139.72,68.27c-.6,0-1.11,0-1.31-.31a12.42,12.42,0,0,1-2.66,1.49c.49,1.21,1.77,1.62,3.27,1.62h35.42V68.27Z"/><path class="cls-1" d="M51.64,45.39A5.75,5.75,0,0,0,48.38,44l-1.78-.29c-.54-.08-1.19-.31-1.19-.95a1.34,1.34,0,0,1,1.42-1.24,4,4,0,0,1,2.64.81,1.55,1.55,0,0,0,1,.4,1.64,1.64,0,0,0,1.18-.51,1.56,1.56,0,0,0,.41-1.13,1.58,1.58,0,0,0-.52-1.1,6.49,6.49,0,0,0-3.19-1.48V37.39a1,1,0,0,0-.28-.72,1,1,0,0,0-.74-.31,1,1,0,0,0-1,1v1a4.23,4.23,0,0,0-4.08,4.37,3.53,3.53,0,0,0,1.19,2.82,5.56,5.56,0,0,0,2.64,1.23l1.8.29a3,3,0,0,1,1.71.64c.52.44.55.66.55,1a1.56,1.56,0,0,1-.59,1.34,3.63,3.63,0,0,1-2.22.58,4,4,0,0,1-3.21-1.2A1.58,1.58,0,0,0,41.9,51.7a6.76,6.76,0,0,0,4.43,2.07v.83a1,1,0,0,0,1,1h.06a1,1,0,0,0,1-1v-.82a6.19,6.19,0,0,0,3.09-1.16,4.18,4.18,0,0,0,.46-.4,4.75,4.75,0,0,0,1.35-3.44A4.17,4.17,0,0,0,51.64,45.39Z"/><path class="cls-1" d="M46.29,65l-2-.06.06-1.5,2,.06Zm2,0,0-1.5c.65,0,1.31,0,2-.07l.07,1.5C49.66,65,49,65,48.32,65Zm-6.07-.17-2-.15.13-1.49,2,.15Zm10.11,0-.11-1.5,2-.18.15,1.49Zm-14.13-.33c-.71-.08-1.39-.17-2-.27l.23-1.48c.6.09,1.26.18,2,.26Zm18.16-.08L56.18,63c.69-.09,1.34-.19,1.95-.3l.26,1.48C57.77,64.24,57.1,64.34,56.39,64.44Zm-22.2-.57c-1.14-.28-1.71-.55-2-1l-.15-.17,1.14-1,.24.27a4.33,4.33,0,0,0,1.1.37ZM33.4,62Zm27,1.68L60,62.25a5,5,0,0,0,1.51-.55q.26-.31.51-.63l1.19.91c-.2.25-.39.5-.6.75l-.08.08A5.09,5.09,0,0,1,60.41,63.7ZM30.8,61.08c-.38-.56-.75-1.15-1.09-1.76L31,58.6c.32.57.66,1.12,1,1.64Zm33.61-.82-1.28-.79c.34-.54.65-1.11.94-1.69l1.34.67C65.11,59.08,64.77,59.69,64.41,60.27ZM28.8,57.47c-.27-.62-.53-1.26-.76-1.92l1.42-.49c.21.62.46,1.22.71,1.8Zm37.47-.89L64.87,56c.24-.59.45-1.21.64-1.83l1.43.44C66.74,55.3,66.51,55.95,66.26,56.58Zm-38.83-3c-.17-.66-.33-1.33-.46-2l1.47-.29c.12.64.27,1.28.43,1.9Zm40-.94L66,52.32c.14-.62.27-1.26.37-1.91l1.48.24C67.76,51.33,67.63,52,67.48,52.66ZM26.66,49.57q-.13-1-.2-2l1.5-.1q.07,1,.19,1.95Zm41.48-1-1.49-.14q.09-1,.14-2l1.5.06Q68.24,47.62,68.14,48.61ZM26.37,45.5c0-.2,0-.41,0-.62,0-.47,0-1,0-1.43l1.5.08q0,.68,0,1.36c0,.2,0,.4,0,.59Zm40.44-.94c0-.63,0-1.29-.1-1.94l1.49-.13c.06.69.1,1.38.11,2.05Zm-38.73-3-1.49-.19c.08-.66.19-1.34.32-2l1.47.29C28.27,40.3,28.16,40.95,28.08,41.59Zm38.39-.91q-.15-1-.37-1.92l1.46-.33q.23,1,.39,2ZM28.82,37.76l-1.45-.37c.17-.66.36-1.31.56-2l1.43.45Q29.07,36.81,28.82,37.76Zm36.8-.89Q65.36,35.93,65,35l1.42-.49c.22.65.43,1.3.61,1.95ZM30,34l-1.4-.53q.36-1,.76-1.89l1.38.6Q30.35,33.1,30,34Zm34.35-.87c-.24-.61-.5-1.21-.78-1.8l1.36-.63q.42.92.81,1.87ZM31.56,30.41l-1.35-.66q.45-.92.94-1.81l1.31.72C32.15,29.24,31.85,29.82,31.56,30.41Zm31.15-.83q-.46-.88-.95-1.72l1.3-.75c.34.58.66,1.18,1,1.78ZM33.46,27l-1.28-.78q.54-.88,1.1-1.71l1.24.84Q34,26.12,33.46,27Zm27.28-.78q-.54-.83-1.1-1.63l1.22-.87q.59.82,1.14,1.69ZM35.67,23.72l-1.2-.9q.62-.83,1.27-1.6l1.15,1Q36.27,22.92,35.67,23.72ZM58.46,23c-.41-.52-.83-1-1.26-1.5l1.12-1q.67.75,1.31,1.56ZM38.19,20.73l-1.09-1c.48-.51,1-1,1.46-1.44l1,1.11C39.12,19.79,38.65,20.24,38.19,20.73Zm17.66-.66c-.47-.46-.95-.91-1.43-1.32l1-1.14c.51.44,1,.91,1.51,1.4Zm-14.79-2-.92-1.18a20.44,20.44,0,0,1,1.7-1.19L42.63,17A18.83,18.83,0,0,0,41.06,18.1Zm11.84-.54a16.12,16.12,0,0,0-1.62-1L52,15.23a17.52,17.52,0,0,1,1.77,1.11ZM44.3,16.1l-.61-1.37a10.63,10.63,0,0,1,2-.68L46,15.52A9.22,9.22,0,0,0,44.3,16.1Zm5.27-.32a7.32,7.32,0,0,0-1.76-.39l.13-1.49a8.76,8.76,0,0,1,2.13.47Z"/><path class="cls-1" d="M69.78,69.72c4.82-3.2,8.14-7.29,9.56-11.48C65.7,64.8,55.77,67.53,40.8,68.8A103.47,103.47,0,0,0,69.78,69.72Z"/><path class="cls-1" d="M30.94,69.41c-2.23.1-4.56.18-7,.25a41.89,41.89,0,0,0,23,6.44A43.93,43.93,0,0,0,64.3,72.68,98.58,98.58,0,0,1,30.94,69.41Z"/><path class="cls-1" d="M67.47,41.67a25.76,25.76,0,0,1,.34,4.09c0,.21,0,.41,0,.62A27.51,27.51,0,0,1,65,58.48a20.35,20.35,0,0,1-2.79,4.19c-1.24,1-9,2-15,2s-14.22-.83-14.75-1.78c-3.6-4-5.79-9.77-5.79-17.14l-.07-4.1c-8.42,2-13.49,5.86-13.49,12.05A13.11,13.11,0,0,0,14,58.08a73.64,73.64,0,0,0,21.37,9.5c13-.87,30.42-3.67,44.65-12.24a13.19,13.19,0,0,0,.1-1.64C80.11,47.4,75.42,43.67,67.47,41.67ZM22.55,48.13A13,13,0,0,1,24.31,47,13,13,0,0,0,22.55,48.13Z"/><path class="cls-1" d="M17.28,63.79a27.51,27.51,0,0,0,4.24,4.15c1.4,0,3.05,0,4.91,0A63.74,63.74,0,0,1,17.28,63.79Z"/><path class="cls-1" d="M47.37,65.43c-.11,0-11-.08-12.62-1.84h0c-3.21-3.69-4.9-8.89-4.9-15,0-10.39,9.23-25.73,17.53-25.73S64.89,38.17,64.89,48.57c0,6-1.63,11.14-4.73,14.82l-.11.11C58.52,64.85,50.91,65.43,47.37,65.43ZM36.25,62.28c1,.5,6.5,1.15,11.12,1.15,5,0,10.45-.86,11.34-1.42,2.74-3.31,4.19-8,4.19-13.45,0-11-9.4-23.73-15.53-23.73S31.84,37.56,31.84,48.57C31.84,54.21,33.36,59,36.25,62.28Z"/></svg>