<svg xmlns="http://www.w3.org/2000/svg" viewBox="0 0 200 90"><defs><style>.cls-1{fill:#1e5748;}.cls-2{fill:none;stroke:#1e5748;stroke-miterlimit:10;stroke-width:3px;}</style></defs><title>TDComfortPortfolios</title><g id="ARTWORK"><path class="cls-1" d="M78.3,17.76H65.13V14.82a4.76,4.76,0,0,0-4.75-4.75H49.81a4.76,4.76,0,0,0-4.75,4.75v2.94H31.89a2.07,2.07,0,0,0-2.06,2.06V54.45a2.07,2.07,0,0,0,2.06,2.06H78.3a2.07,2.07,0,0,0,2.06-2.06V19.82A2.07,2.07,0,0,0,78.3,17.76ZM48.23,14.82a1.59,1.59,0,0,1,1.59-1.59H60.38A1.59,1.59,0,0,1,62,14.82v2.94H48.23ZM46.75,49.48H42V39.65l4.71-3.57Zm9.49,0-4.73,0V35.39l4.73,1.42Zm9.5-.05-4.72,0V35.72L65.74,31Zm3.14-20a1.09,1.09,0,0,1-2.18,0s0,0,0,0V27.14l-8,8a1.22,1.22,0,0,1-1.35.17l-9-3L39,39.54a1.09,1.09,0,1,1-1.46-1.61l.14-.11,9.81-7.63a1.06,1.06,0,0,1,1.21-.1l9,3,7.48-7.46H62.89a1.1,1.1,0,0,1-.31-2.18h5.21a1.09,1.09,0,0,1,1.09,1.09Z"/><path class="cls-2" d="M162.08,44.53V38a6,6,0,0,0-5.94-6h-55.5a6,6,0,0,0-5.94,6v6.53"/><path class="cls-2" d="M167.52,51.55V72.17a2.13,2.13,0,0,1-2.09,2.22H91.34a2.13,2.13,0,0,1-2.09-2.22V51.55a6,6,0,1,1,11.88,0v4.37a1.42,1.42,0,0,0,1.37,1.46h51.76a1.43,1.43,0,0,0,1.37-1.46V51.55a6,6,0,1,1,11.88,0Z"/><rect class="cls-1" x="95.13" y="73.37" width="4.28" height="6.52" rx="1.17" ry="1.17"/><rect class="cls-1" x="157.36" y="73.37" width="4.28" height="6.52" rx="1.17" ry="1.17"/><line class="cls-2" x1="128.38" y1="32.5" x2="128.38" y2="57"/></g></svg>