<svg xmlns="http://www.w3.org/2000/svg" viewBox="0 0 258 164"><defs><style>.cls-1{fill:#1e5748;}</style></defs><title>TDEverydaySavingsAccount-Compare</title><g id="ARTWORK"><path class="cls-1" d="M122.33,60.83l-21.15-8.46,4.23-21.15L85.68,38.28,74.4,19.95,63.13,38.28,43.39,31.23l4.23,21.15L26.47,60.83,43.39,73.52,32.11,93.25H54.67l2.82,21.15,16.92-14.1,16.92,14.1,2.82-21.15h22.56L105.42,73.52ZM94.14,89c-5.64,5.64-11.28,8.46-19.74,8.46a28.92,28.92,0,0,1-28.2-28.19q0-12.69,8.46-21.15c5.64-5.64,11.28-8.46,19.74-8.46s14.1,2.81,19.74,8.46,8.46,12.69,8.46,21.15A27.84,27.84,0,0,1,94.14,89Z"/><path class="cls-1" d="M171.61,52.54a12.81,12.81,0,0,1,11.66-12.74A10.74,10.74,0,1,0,173.1,58.53,12.71,12.71,0,0,1,171.61,52.54Z"/><path class="cls-1" d="M233.86,84.37a3.57,3.57,0,0,0-2.48-1H227c-1.34-3.44-4-9.24-7.75-13.21,1.77-3.27,3.06-7.51,2.43-9.76a2.86,2.86,0,0,0-1.51-1.88c-3.39-1.6-6.67.08-13.52,3.92a36,36,0,0,0-6.23-1.47,10.68,10.68,0,1,0-20.8-.14,40.42,40.42,0,0,0-14.75,5.85c-9.32,6.5-14,16.48-13.32,28.16a12.52,12.52,0,0,1-4.79-.81,8.41,8.41,0,0,0,2.69-5.88A6.25,6.25,0,0,0,143,81.58a6.32,6.32,0,0,0-6.44,6.53A8.72,8.72,0,0,0,139,93.87a9.33,9.33,0,0,1-4.2.67,2.14,2.14,0,0,0-.63,4.23,15.26,15.26,0,0,0,8.62-1.91,17.31,17.31,0,0,0,8.3,2.23c.36,0,.72,0,1.07-.06a47.62,47.62,0,0,0,4.32,10.32c2.06,3.93,4.85,8.85,7.28,12.86.39.64,1.19,1.85,1.89,2.89l.93,1.4a5.32,5.32,0,0,0,4.22,2.49h8.89a3.5,3.5,0,0,0,2.46-1,3.45,3.45,0,0,0,1-2.46V120a54.33,54.33,0,0,0,9.14.29l1.78,5.6c0,.07.05.14.08.21a4.6,4.6,0,0,0,1.78,2.07,4.73,4.73,0,0,0,2.64.81h9.35a3.51,3.51,0,0,0,2.45-1,3.44,3.44,0,0,0,1-2.46v-9.13c5.95-1.72,12.84-6.34,15.75-13.3l5-2.59a4.66,4.66,0,0,0,2-1.82,4.94,4.94,0,0,0,.68-2.51V86.83A3.45,3.45,0,0,0,233.86,84.37Zm-90.73,7.14-.26.22a5.23,5.23,0,0,1-2-3.62A2.07,2.07,0,0,1,143,85.85a2.18,2.18,0,0,1,1.47.53,2.24,2.24,0,0,1,.63,1.73C145.15,89.56,143.89,90.86,143.13,91.51Zm87.47,4.64a.66.66,0,0,1-.07.31s-.06.09-.25.18l-5.83,3a2.14,2.14,0,0,0-1,1.17c-2.28,6.27-9.08,10.68-14.61,11.8a2.14,2.14,0,0,0-1.71,2.09v10h-8.55a.57.57,0,0,1-.32-.12.48.48,0,0,1-.15-.14l-1.55-4.88a46.52,46.52,0,0,0,4.66-1.08,2.14,2.14,0,0,0-1.19-4.1,40.39,40.39,0,0,1-12.41,1.66c-1,0-1.91-.11-2.81-.19A25.63,25.63,0,0,1,174,112.53a2.14,2.14,0,1,0-2.33,3.58,25.69,25.69,0,0,0,7.21,3v5.63h-8a1.16,1.16,0,0,1-.71-.54l-1-1.46c-.66-1-1.42-2.13-1.79-2.74-2.39-3.93-5.13-8.77-7.15-12.63s-4.1-8.09-4.42-12.06C155,84.83,159,75.9,167.29,70.15c3.9-2.72,9.17-4.45,14.16-5.34A10.68,10.68,0,0,0,185.31,68h-6a1.07,1.07,0,1,0,0,2.14H200.7a1.07,1.07,0,0,0,0-2.14h-6A10.67,10.67,0,0,0,198.46,65c3.16.46,6.09,1.07,7.26,1.71a2.13,2.13,0,0,0,2.06,0c5.58-3.13,8.21-4.52,9.74-4.48a18.68,18.68,0,0,1-2.79,7.14,2.14,2.14,0,0,0,.38,2.79c4.35,3.79,7.29,11.11,8.36,14.09a2.13,2.13,0,0,0,2,1.42h5.11Z"/><path class="cls-1" d="M214.36,84.36a3.2,3.2,0,1,0,3.2,3.2A3.2,3.2,0,0,0,214.36,84.36Z"/><path class="cls-1" d="M177.4,58.46a12.78,12.78,0,0,1,15.47-12.51,10.74,10.74,0,1,0-15.23,14.94A12.79,12.79,0,0,1,177.4,58.46Z"/></g></svg>