<svg xmlns="http://www.w3.org/2000/svg" viewBox="0 0 200 90"><defs><style>.cls-1{fill:#1e5748;}.cls-2{fill:none;stroke:#1e5748;stroke-miterlimit:10;stroke-width:3px;}</style></defs><title>TDLineOfCreditCriticalIllnessLifeInsurance</title><g id="ARTWORK"><path class="cls-1" d="M152.52,15.69a.91.91,0,0,0-.73-.21,17.22,17.22,0,0,1-14.72-5.21.91.91,0,0,0-.65-.27h0a.91.91,0,0,0-.65.27,17.53,17.53,0,0,1-14.73,5.28.9.9,0,0,0-.72.22.91.91,0,0,0-.31.69c0,23.61,8.13,27.73,16,31.72a.9.9,0,0,0,.41.1.92.92,0,0,0,.43-.1c7.86-4.1,16-8.35,16-31.79A.91.91,0,0,0,152.52,15.69Zm-16.1,30.65c-7.44-3.78-14.36-7.68-14.57-28.87a19.32,19.32,0,0,0,14.57-5.29A19,19,0,0,0,151,17.4C150.79,38.45,143.86,42.45,136.42,46.34Z"/><path class="cls-1" d="M148.25,19.26A20.72,20.72,0,0,1,137,15a.91.91,0,0,0-1.1,0,21.06,21.06,0,0,1-11.28,4.28.91.91,0,0,0-.85.95c.65,16.47,5.7,20.4,12.24,23.82a.91.91,0,0,0,.86,0c6.31-3.4,11.58-7.54,12.27-23.85A.91.91,0,0,0,148.25,19.26Zm-6,11.63a.53.53,0,0,1-.53.53h-3v3a.53.53,0,0,1-.53.53h-3.5a.53.53,0,0,1-.53-.53v-3h-3a.53.53,0,0,1-.53-.53v-3.5a.53.53,0,0,1,.53-.53h3v-3a.53.53,0,0,1,.53-.53h3.5a.53.53,0,0,1,.53.53v3h3a.53.53,0,0,1,.53.53Z"/><rect class="cls-2" x="43.75" y="36" width="70.41" height="42.27" rx="1" ry="1"/><rect class="cls-1" x="44.53" y="46.85" width="69.31" height="8.88"/></g></svg>