<svg xmlns="http://www.w3.org/2000/svg" viewBox="0 0 200 90"><defs><style>.cls-1{fill:#1e5748;}.cls-2{fill:none;stroke:#1e5748;stroke-miterlimit:10;stroke-width:2.5px;}</style></defs><title>TDMutualFundESeries</title><g id="ARTWORK"><path class="cls-1" d="M162.43,30H124V27a4.39,4.39,0,0,0-4-4H99.59a3.43,3.43,0,0,0-1.08.19,3.49,3.49,0,0,0-2.23,2.26,3.44,3.44,0,0,1,1.21-.23h20.94a3.5,3.5,0,0,1,3.49,3.49V32.2h38.4a3.5,3.5,0,0,1,3.49,3.49v38.4a3.42,3.42,0,0,1-.18,1,3.5,3.5,0,0,0,2-2,3.44,3.44,0,0,0,.23-1.22V33.47A3.5,3.5,0,0,0,162.43,30Z"/><path class="cls-1" d="M158.14,34.41h-38.4V30.92a3.5,3.5,0,0,0-3.49-3.49H95.31a3.43,3.43,0,0,0-1.12.2,3.49,3.49,0,0,0-2.37,3.29V76.3a3.5,3.5,0,0,0,3.49,3.49h62.83a3.49,3.49,0,0,0,3.3-2.41,3.43,3.43,0,0,0,.19-1.08V37.9A3.5,3.5,0,0,0,158.14,34.41ZM118.05,72.78h-5.38V61.54l5.38-4.08Zm10.85,0-5.41,0V56.67l5.41,1.62Zm10.86-.06-5.4,0V57l5.4-5.4Zm3.59-22.89a1.25,1.25,0,0,1-2.49,0s0,0,0,0V47.24l-9.09,9.09a1.39,1.39,0,0,1-1.54.19L119.92,53.1l-10.69,8.31a1.25,1.25,0,0,1-1.67-1.85l.16-.12,11.21-8.72a1.21,1.21,0,0,1,1.38-.12L130.55,54l8.54-8.53h-2.59a1.26,1.26,0,0,1-.35-2.49h6a1.25,1.25,0,0,1,1.25,1.25Z"/><path class="cls-1" d="M62.1,40.62a4.53,4.53,0,0,1-.5.43,6.71,6.71,0,0,1-3.35,1.25v.89a1.1,1.1,0,0,1-1.08,1.11h-.07A1.1,1.1,0,0,1,56,43.23v-.9a7.33,7.33,0,0,1-4.8-2.25,1.71,1.71,0,0,1,2.41-2.42A4.28,4.28,0,0,0,57.12,39a3.93,3.93,0,0,0,2.41-.62,1.7,1.7,0,0,0,.63-1.45c0-.34,0-.59-.6-1.06a3.2,3.2,0,0,0-1.85-.69l-2-.32A6,6,0,0,1,52.9,33.5a3.82,3.82,0,0,1-1.29-3.05A4.59,4.59,0,0,1,56,25.71V24.57a1.14,1.14,0,0,1,1.11-1.11,1.12,1.12,0,0,1,.8.34,1.08,1.08,0,0,1,.3.78v1.25a7,7,0,0,1,3.46,1.61,1.71,1.71,0,0,1,.56,1.19,1.68,1.68,0,0,1-.44,1.22,1.78,1.78,0,0,1-1.28.55A1.68,1.68,0,0,1,59.42,30a4.31,4.31,0,0,0-2.86-.88A1.46,1.46,0,0,0,55,30.44c0,.69.71.94,1.29,1l1.93.32a6.24,6.24,0,0,1,3.54,1.47,4.52,4.52,0,0,1,1.78,3.63A5.15,5.15,0,0,1,62.1,40.62Z"/><path class="cls-2" d="M75,33.87l5.31-6.5a1.17,1.17,0,0,0-.61-1.88l-8.12-2.14L72.09,15a1.17,1.17,0,0,0-1.6-1.16l-7.82,3L58.14,9.8a1.22,1.22,0,0,0-2,0l-4.54,7.06-7.82-3A1.17,1.17,0,0,0,42.2,15l.48,8.38-8.12,2.14A1.17,1.17,0,0,0,34,27.37l5.31,6.5L34,40.37a1.17,1.17,0,0,0,.61,1.88l8.12,2.13-.48,8.38a1.17,1.17,0,0,0,1.6,1.16l7.82-3,4.54,7.06a1.17,1.17,0,0,0,2,0l4.54-7.06,7.82,3a1.17,1.17,0,0,0,1.6-1.16l-.48-8.38,8.12-2.13a1.17,1.17,0,0,0,.61-1.88Z"/></g></svg>