<svg xmlns="http://www.w3.org/2000/svg" viewBox="0 0 200 90"><title>TDRetirementPortfolio</title><g id="f0b03cb5-fb57-43b4-8d92-e464a3987c3d" data-name="ARTWORK"><path d="M167.21,29.51H128.37V26a3.54,3.54,0,0,0-3.53-3.53H103.65a3.59,3.59,0,0,0-3.35,2.48,3.31,3.31,0,0,1,1.22-.24h21.19a3.54,3.54,0,0,1,3.53,3.53v3.53h38.84a3.54,3.54,0,0,1,3.53,3.54V74.13a3.31,3.31,0,0,1-.18,1.05,3.51,3.51,0,0,0,2.07-2.06,3.42,3.42,0,0,0,.24-1.24V33A3.54,3.54,0,0,0,167.21,29.51Z" style="fill:#1e5748"/><path d="M75.74,55.27a19.81,19.81,0,0,0,8.05-9.67c-11.49,5.53-19.85,7.83-32.46,8.89A87,87,0,0,0,75.74,55.27Z" style="fill:#1e5748"/><path d="M43,55c-1.88.08-3.84.15-5.92.21a35.28,35.28,0,0,0,19.33,5.43,37,37,0,0,0,14.68-2.89A83.1,83.1,0,0,1,43,55Z" style="fill:#1e5748"/><path d="M73.63,31.61C72.24,21,63.47,10.25,56.54,10.25S40.81,21,39.44,31.64c-7.09,1.72-11.36,4.94-11.36,10.15a11,11,0,0,0,.67,3.68,61.76,61.76,0,0,0,18,8c11-.73,25.62-3.09,37.61-10.3a10.66,10.66,0,0,0,.09-1.38C84.44,36.43,80.43,33.28,73.63,31.61ZM66.8,46.47c-.85.75-6.18,1.44-10.26,1.44s-9.76-.6-10.13-1.27c-2.46-2.83-4-7-4-12.2,0-9.87,8.52-21,14.1-21s14.09,11.13,14.09,21C70.63,39.58,69.18,43.65,66.8,46.47Z" style="fill:#1e5748"/><path d="M31.53,50.28a22.78,22.78,0,0,0,3.57,3.49c1.18,0,2.57,0,4.13,0A52.72,52.72,0,0,1,31.53,50.28Z" style="fill:#1e5748"/><path d="M60.27,31.4a5.55,5.55,0,0,0-3.1-1.29l-1.68-.27c-.51-.08-1.13-.3-1.13-.9a1.27,1.27,0,0,1,1.35-1.17,3.72,3.72,0,0,1,2.49.77,1.49,1.49,0,0,0,1,.38,1.56,1.56,0,0,0,1.12-.49,1.49,1.49,0,0,0,.39-1.06,1.57,1.57,0,0,0-.49-1.05,6.14,6.14,0,0,0-3-1.4V23.83a1,1,0,0,0-.26-.69,1,1,0,0,0-1.67.68v1a4,4,0,0,0-3.86,4.13,3.33,3.33,0,0,0,1.13,2.67A5.32,5.32,0,0,0,55,32.78l1.71.27a2.74,2.74,0,0,1,1.62.61c.49.41.52.62.52.92a1.51,1.51,0,0,1-.55,1.27,3.46,3.46,0,0,1-2.1.54,3.74,3.74,0,0,1-3-1.14,1.49,1.49,0,0,0-1.06-.43,1.44,1.44,0,0,0-1.05.44,1.48,1.48,0,0,0,0,2.1,6.35,6.35,0,0,0,4.19,2v.79a1,1,0,0,0,.95.94h.06a.94.94,0,0,0,.66-.28,1,1,0,0,0,.28-.69V39.3a5.81,5.81,0,0,0,2.93-1.1,3.81,3.81,0,0,0,.43-.37,4.48,4.48,0,0,0,1.28-3.26A3.94,3.94,0,0,0,60.27,31.4Z" style="fill:#1e5748"/><path d="M162.88,34H124V30.46a3.53,3.53,0,0,0-3.53-3.53H99.32a3.59,3.59,0,0,0-1.14.2,3.54,3.54,0,0,0-2.39,3.33v45.9a3.54,3.54,0,0,0,3.53,3.53h63.56a3.52,3.52,0,0,0,3.33-2.44,3.29,3.29,0,0,0,.2-1.09V37.52A3.54,3.54,0,0,0,162.88,34ZM121.21,72.36h-5.48V56.17l5.48-1.75Zm11,0-5.51,0V53.27l5.51,3Zm11.05-.06-5.49,0V55.67l5.49-1.54ZM149,52.82a1.25,1.25,0,0,1-1.14.72,1.22,1.22,0,0,1-.52-.11,1.25,1.25,0,0,1-.61-1.66l1.43-3.1-14.73,4-6.85-3.85L113,53.08a1.14,1.14,0,0,1-.37.05,1.25,1.25,0,0,1-.37-2.44l14.63-4.53L133.78,50l14.08-3.88-3.35-1.55a1.25,1.25,0,1,1,1-2.27l6.84,3.16Z" style="fill:#1e5748"/></g></svg>