<svg xmlns="http://www.w3.org/2000/svg" viewBox="0 0 200 90"><defs><style>.cls-1{fill:#1e5748;}.cls-2,.cls-3{fill:none;stroke:#1e5748;stroke-miterlimit:10;}.cls-2{stroke-width:3px;}.cls-3{stroke-width:2px;}</style></defs><title>TDSavingsCalculator</title><g id="ARTWORK"><path class="cls-1" d="M67.12,31.37a9.07,9.07,0,0,1,10.64-9A7.38,7.38,0,1,0,67.23,32.71,9.11,9.11,0,0,1,67.12,31.37Z"/><path class="cls-1" d="M106.27,49.19a2.45,2.45,0,0,0-1.71-.71h-3A29.26,29.26,0,0,0,96.2,39.4c1.22-2.25,2.1-5.17,1.67-6.71a2,2,0,0,0-1-1.3c-2.33-1.1-4.59.06-9.3,2.7a24.73,24.73,0,0,0-4.29-1A7.34,7.34,0,1,0,68.95,33,27.8,27.8,0,0,0,58.8,37a21.19,21.19,0,0,0-9.16,19.36,8.61,8.61,0,0,1-3.29-.56,5.78,5.78,0,0,0,1.85-4,4.3,4.3,0,0,0-4.39-4.49,4.35,4.35,0,0,0-4.43,4.49,6,6,0,0,0,1.64,4,6.41,6.41,0,0,1-2.89.46,1.47,1.47,0,0,0-.44,2.91,10.5,10.5,0,0,0,5.93-1.31,11.91,11.91,0,0,0,5.71,1.54c.25,0,.49,0,.74,0a32.75,32.75,0,0,0,3,7.1c1.42,2.7,3.34,6.09,5,8.84.27.44.82,1.27,1.3,2l.64,1a3.66,3.66,0,0,0,2.9,1.71H69a2.41,2.41,0,0,0,1.69-.72,2.37,2.37,0,0,0,.7-1.69V73.7a37.36,37.36,0,0,0,6.29.2l1.22,3.85.05.15a3.17,3.17,0,0,0,1.22,1.42,3.26,3.26,0,0,0,1.81.56h6.43a2.41,2.41,0,0,0,1.68-.71,2.37,2.37,0,0,0,.7-1.69V71.2C94.89,70,99.63,66.84,101.63,62l3.46-1.78A3.21,3.21,0,0,0,106.5,59a3.4,3.4,0,0,0,.47-1.73V50.88A2.38,2.38,0,0,0,106.27,49.19ZM43.87,54.1l-.18.15a3.6,3.6,0,0,1-1.37-2.49,1.42,1.42,0,0,1,1.49-1.55,1.5,1.5,0,0,1,1,.37,1.54,1.54,0,0,1,.44,1.19A3.52,3.52,0,0,1,43.87,54.1ZM104,57.29a.45.45,0,0,1,0,.22s0,.06-.17.12l-4,2.06a1.47,1.47,0,0,0-.71.8c-1.57,4.31-6.24,7.35-10,8.11A1.47,1.47,0,0,0,87.87,70v6.9H82a.39.39,0,0,1-.22-.08.33.33,0,0,1-.1-.09L80.6,73.41a32,32,0,0,0,3.21-.74A1.47,1.47,0,0,0,83,69.85,27.78,27.78,0,0,1,74.46,71c-.66,0-1.31-.07-1.93-.13a17.62,17.62,0,0,1-7.42-2.31A1.47,1.47,0,1,0,63.5,71a17.67,17.67,0,0,0,5,2.05v3.87H62.95a.8.8,0,0,1-.49-.37l-.66-1c-.45-.68-1-1.47-1.23-1.88C58.92,71,57,67.66,55.65,65s-2.82-5.56-3-8.3c-.59-7.2,2.21-13.34,7.88-17.3a25.24,25.24,0,0,1,9.73-3.67A7.35,7.35,0,0,0,72.88,38H68.77a.73.73,0,1,0,0,1.47H83.46a.73.73,0,1,0,0-1.47H79.35a7.34,7.34,0,0,0,2.58-2.12,19.85,19.85,0,0,1,5,1.17,1.47,1.47,0,0,0,1.42,0C92.17,34.86,94,33.9,95,33.93a12.84,12.84,0,0,1-1.92,4.91,1.47,1.47,0,0,0,.26,1.92c3,2.61,5,7.64,5.75,9.69a1.47,1.47,0,0,0,1.38,1H104Z"/><path class="cls-1" d="M92.86,49.18a2.2,2.2,0,1,0,2.2,2.2A2.2,2.2,0,0,0,92.86,49.18Z"/><path class="cls-1" d="M63.13,27.3a9.13,9.13,0,0,1,7.93-9,7.38,7.38,0,1,0-7,13A9.05,9.05,0,0,1,63.13,27.3Z"/><rect class="cls-1" x="125.54" y="35.47" width="7.35" height="7.35" rx="0.25" ry="0.25"/><rect class="cls-1" x="136.59" y="35.47" width="7.35" height="7.35" rx="0.25" ry="0.25"/><rect class="cls-1" x="147.94" y="35.47" width="7.35" height="7.35" rx="0.25" ry="0.25"/><rect class="cls-1" x="125.24" y="49.22" width="7.35" height="7.35" rx="0.25" ry="0.25"/><rect class="cls-1" x="136.59" y="49.22" width="7.35" height="7.35" rx="0.25" ry="0.25"/><rect class="cls-1" x="147.94" y="49.22" width="7.35" height="7.35" rx="0.25" ry="0.25"/><rect class="cls-1" x="125.24" y="63.11" width="7.35" height="7.35" rx="0.25" ry="0.25"/><rect class="cls-1" x="136.59" y="63.11" width="7.35" height="7.35" rx="0.25" ry="0.25"/><rect class="cls-1" x="147.94" y="63.11" width="7.35" height="7.35" rx="0.25" ry="0.25"/><rect class="cls-2" x="118.56" y="11.5" width="43.4" height="66.93" rx="1" ry="1"/><rect class="cls-3" x="125.03" y="19.26" width="30.47" height="8.71" rx="1" ry="1"/></g></svg>