<svg xmlns="http://www.w3.org/2000/svg" viewBox="0 0 200 90"><defs><style>.cls-1{fill:#1e5748;}</style></defs><title>TFSACalculator</title><g id="ARTWORK"><rect class="cls-1" x="142.1" y="36.18" width="7.35" height="7.35" rx="0.25" ry="0.25"/><rect class="cls-1" x="153.14" y="36.18" width="7.35" height="7.35" rx="0.25" ry="0.25"/><rect class="cls-1" x="164.5" y="36.18" width="7.35" height="7.35" rx="0.25" ry="0.25"/><rect class="cls-1" x="141.79" y="49.93" width="7.35" height="7.35" rx="0.25" ry="0.25"/><rect class="cls-1" x="153.14" y="49.93" width="7.35" height="7.35" rx="0.25" ry="0.25"/><rect class="cls-1" x="164.5" y="49.93" width="7.35" height="7.35" rx="0.25" ry="0.25"/><rect class="cls-1" x="141.79" y="63.82" width="7.35" height="7.35" rx="0.25" ry="0.25"/><rect class="cls-1" x="153.14" y="63.82" width="7.35" height="7.35" rx="0.25" ry="0.25"/><rect class="cls-1" x="164.5" y="63.82" width="7.35" height="7.35" rx="0.25" ry="0.25"/><path class="cls-1" d="M177.52,80.64h-41.4a2.5,2.5,0,0,1-2.5-2.5V13.21a2.5,2.5,0,0,1,2.5-2.5h41.4a2.5,2.5,0,0,1,2.5,2.5V78.14A2.5,2.5,0,0,1,177.52,80.64Zm-40.9-3H177V13.71h-40.4Z"/><path class="cls-1" d="M171.05,29.67H142.58a2,2,0,0,1-2-2V21a2,2,0,0,1,2-2h28.47a2,2,0,0,1,2,2v6.71A2,2,0,0,1,171.05,29.67Zm0-2v0ZM142.58,21v6.71H171V21Z"/><path class="cls-1" d="M34.13,22.71v2.53h-2v10.1H28.89V25.24H27V22.71Z"/><path class="cls-1" d="M39.92,22.71l1.88,12.63H38.44l-.18-2.27H37.09l-.2,2.27h-3.4l1.68-12.63Zm-1.74,8.12q-.25-2.15-.5-5.3-.5,3.63-.63,5.3Z"/><path class="cls-1" d="M49.41,22.72,48.25,28.3l1.74,7H47a41.57,41.57,0,0,1-1-4.6q-.12,1.2-.35,2.54l-.31,2.06H42.1l1.19-7L42.1,22.72h3.17c.06.35.17.93.34,1.74q.21.93.34,1.71l.7-3.45Z"/><path class="cls-1" d="M38.43,10.31a19,19,0,1,0,19,19A19,19,0,0,0,38.43,10.31Zm-16.16,19a16.15,16.15,0,0,1,27.27-11.7L26.72,40.41A16.09,16.09,0,0,1,22.28,29.29ZM38.43,45.45A16.09,16.09,0,0,1,28,41.62L50.76,18.86A16.15,16.15,0,0,1,38.43,45.45Z"/><path class="cls-1" d="M125.49,48a2.61,2.61,0,0,0-1.81-.76h-3.22a31.13,31.13,0,0,0-5.67-9.66c1.3-2.39,2.24-5.5,1.78-7.14A2.09,2.09,0,0,0,115.46,29c-2.48-1.17-4.88.06-9.89,2.87A26.31,26.31,0,0,0,101,30.82a7.81,7.81,0,1,0-15.21-.1A29.57,29.57,0,0,0,75,35C68.2,39.75,64.76,47,65.27,55.59a9.16,9.16,0,0,1-3.5-.6,6.15,6.15,0,0,0,2-4.3,4.57,4.57,0,0,0-4.67-4.78,4.62,4.62,0,0,0-4.71,4.78,6.38,6.38,0,0,0,1.74,4.22A6.82,6.82,0,0,1,53,55.4a1.56,1.56,0,0,0-.46,3.09,11.16,11.16,0,0,0,6.3-1.39,12.66,12.66,0,0,0,6.07,1.63c.27,0,.52,0,.78,0a34.83,34.83,0,0,0,3.16,7.55c1.51,2.87,3.55,6.48,5.32,9.4.28.47.87,1.35,1.38,2.12l.68,1a3.89,3.89,0,0,0,3.09,1.82h6.5a2.56,2.56,0,0,0,1.8-.76A2.52,2.52,0,0,0,88.4,78V74a39.74,39.74,0,0,0,6.68.22l1.3,4.1.06.16A3.37,3.37,0,0,0,97.74,80a3.46,3.46,0,0,0,1.93.59h6.84a2.56,2.56,0,0,0,1.79-.76A2.52,2.52,0,0,0,109,78V71.36c4.35-1.26,9.39-4.63,11.52-9.73l3.68-1.89a3.41,3.41,0,0,0,1.49-1.33,3.61,3.61,0,0,0,.5-1.84V49.76A2.53,2.53,0,0,0,125.49,48ZM59.14,53.18l-.19.16a3.83,3.83,0,0,1-1.46-2.65A1.52,1.52,0,0,1,59.07,49a1.6,1.6,0,0,1,1.08.39,1.64,1.64,0,0,1,.46,1.27A3.74,3.74,0,0,1,59.14,53.18Zm64,3.39a.48.48,0,0,1-.05.23s0,.07-.18.13l-4.26,2.19a1.56,1.56,0,0,0-.75.86c-1.67,4.59-6.64,7.81-10.68,8.63a1.56,1.56,0,0,0-1.25,1.53v7.33H99.67a.41.41,0,0,1-.23-.09.35.35,0,0,1-.11-.1L98.2,73.71a34,34,0,0,0,3.41-.79,1.56,1.56,0,0,0-.87-3,29.54,29.54,0,0,1-9.08,1.22c-.71,0-1.4-.08-2.06-.14a18.74,18.74,0,0,1-7.89-2.45A1.56,1.56,0,1,0,80,71.17a18.79,18.79,0,0,0,5.27,2.18v4.12H79.42a.85.85,0,0,1-.52-.4L78.2,76c-.48-.72-1-1.56-1.31-2-1.75-2.88-3.75-6.41-5.23-9.23s-3-5.92-3.24-8.82c-.63-7.66,2.35-14.19,8.38-18.4a26.84,26.84,0,0,1,10.35-3.9A7.81,7.81,0,0,0,90,36H85.61a.78.78,0,0,0,0,1.56h15.62a.78.78,0,0,0,0-1.56H96.87a7.81,7.81,0,0,0,2.74-2.25A21.12,21.12,0,0,1,104.92,35a1.56,1.56,0,0,0,1.51,0c4.08-2.29,6-3.3,7.13-3.28a13.66,13.66,0,0,1-2,5.22,1.56,1.56,0,0,0,.28,2c3.18,2.77,5.33,8.13,6.11,10.3a1.56,1.56,0,0,0,1.47,1h3.74Z"/><path class="cls-1" d="M111.23,47.95a2.34,2.34,0,1,0,2.34,2.34A2.34,2.34,0,0,0,111.23,47.95Z"/></g></svg>