<svg xmlns="http://www.w3.org/2000/svg" viewBox="0 0 200 90"><defs><style>.cls-1{fill:#1e5748;}.cls-2{fill:none;stroke:#1e5748;stroke-linecap:round;stroke-linejoin:round;stroke-width:3px;}</style></defs><title>theHomeBuyingProcess</title><g id="ARTWORK"><path class="cls-1" d="M125.71,32.59H90.84V30a1.29,1.29,0,0,0-2.58,0v2.63H84.48a1.29,1.29,0,0,0,0,2.58h3.78V68.58a1.29,1.29,0,1,0,2.58,0V35.17h10.32V39H94.68a1.29,1.29,0,0,0-1.29,1.29V57a1.29,1.29,0,0,0,1.29,1.29H123A1.29,1.29,0,0,0,124.32,57V40.28A1.29,1.29,0,0,0,123,39h-6.4V35.17h9.09a1.29,1.29,0,0,0,0-2.58Zm-4,23.16H96V41.57h25.77ZM114,39H103.77V35.17H114Z"/><path class="cls-1" d="M103.54,47.27h-1.91v-.59a1.15,1.15,0,0,0-.07-.52.27.27,0,0,0-.24-.11.31.31,0,0,0-.28.15.89.89,0,0,0-.09.46,1.29,1.29,0,0,0,.11.6,1.54,1.54,0,0,0,.58.48,5.85,5.85,0,0,1,1.73,1.34,3.07,3.07,0,0,1,.36,1.68,2.94,2.94,0,0,1-.2,1.25,1.54,1.54,0,0,1-.76.67,3,3,0,0,1-1.32.27,3,3,0,0,1-1.41-.31,1.53,1.53,0,0,1-.76-.8,4.09,4.09,0,0,1-.18-1.37V50H101v1a1.25,1.25,0,0,0,.08.57.31.31,0,0,0,.29.13.33.33,0,0,0,.3-.16.91.91,0,0,0,.1-.48,1.48,1.48,0,0,0-.19-.91,6,6,0,0,0-1-.72,9.5,9.5,0,0,1-1-.74,1.73,1.73,0,0,1-.41-.63,2.81,2.81,0,0,1-.16-1,2.88,2.88,0,0,1,.23-1.33A1.56,1.56,0,0,1,100,45a3,3,0,0,1,1.25-.24,3.26,3.26,0,0,1,1.37.26,1.43,1.43,0,0,1,.75.65,3.43,3.43,0,0,1,.18,1.33Z"/><path class="cls-1" d="M108.31,44.88l1.17,7.91h-2.1l-.11-1.42h-.74l-.12,1.42h-2.13l1-7.91ZM107.22,50q-.16-1.34-.31-3.32-.31,2.27-.39,3.32Z"/><path class="cls-1" d="M112.29,44.88v6.32h1.25v1.58h-3.31V44.88Z"/><path class="cls-1" d="M114.44,44.88h3.43v1.58h-1.37V48h1.28v1.5h-1.28v1.74H118v1.58h-3.56Z"/><path class="cls-1" d="M141.3,55.21a1.06,1.06,0,0,0-.26-.65l-5-5.35a1.08,1.08,0,0,0-1.38-.08,1,1,0,0,0,0,1.38l3.54,3.76h-8.44a.94.94,0,0,0,0,1.89h8.44l-3.54,3.76a1,1,0,0,0,0,1.38,1.07,1.07,0,0,0,1.38-.08l5-5.35A.91.91,0,0,0,141.3,55.21Z"/><path class="cls-1" d="M135.23,62a1.34,1.34,0,0,1-.94-.36,1.39,1.39,0,0,1-.41-1,1.54,1.54,0,0,1,.41-1.09L137,56.65h-7.28a1.44,1.44,0,1,1,0-2.89H137l-2.75-2.92a1.44,1.44,0,0,1-.42-1,1.41,1.41,0,0,1,.44-1,1.58,1.58,0,0,1,2.05.07l5.07,5.38a1.57,1.57,0,0,1,.39,1v0a1.39,1.39,0,0,1-.39,1l-5,5.35A1.68,1.68,0,0,1,135.23,62Zm-5.48-7.24a.44.44,0,1,0,0,.89h9.59L135,60.25a.55.55,0,0,0-.13.38.41.41,0,0,0,.1.29.59.59,0,0,0,.68-.07l5-5.34a.4.4,0,0,0,.12-.3.57.57,0,0,0-.12-.32l-5-5.35a.6.6,0,0,0-.67-.06.43.43,0,0,0-.12.31.46.46,0,0,0,.13.34l4.36,4.62Z"/><path class="cls-1" d="M84.16,55.21a1.06,1.06,0,0,0-.26-.65l-5-5.35a1.08,1.08,0,0,0-1.38-.08,1,1,0,0,0,0,1.38L81,54.26H72.31a.94.94,0,0,0,0,1.89H81L77.5,59.91a1,1,0,0,0,0,1.38,1.07,1.07,0,0,0,1.38-.08l5-5.35A.91.91,0,0,0,84.16,55.21Z"/><path class="cls-1" d="M78.08,62a1.34,1.34,0,0,1-.94-.36,1.39,1.39,0,0,1-.41-1,1.54,1.54,0,0,1,.41-1.09l2.74-2.91H72.31a1.44,1.44,0,1,1,0-2.89h7.58l-2.75-2.92a1.44,1.44,0,0,1-.42-1,1.41,1.41,0,0,1,.44-1,1.58,1.58,0,0,1,2.05.07l5.07,5.38a1.57,1.57,0,0,1,.39,1v0a1.39,1.39,0,0,1-.39,1l-5,5.35A1.68,1.68,0,0,1,78.08,62Zm-5.78-7.24a.44.44,0,1,0,0,.89H82.2l-4.33,4.6a.55.55,0,0,0-.13.38.41.41,0,0,0,.1.29.59.59,0,0,0,.68-.07l5-5.34a.4.4,0,0,0,.12-.3.57.57,0,0,0-.12-.32l-5-5.35a.6.6,0,0,0-.67-.06.43.43,0,0,0-.12.31.46.46,0,0,0,.13.34l4.36,4.62Z"/><path class="cls-1" d="M35.75,30.42a7.34,7.34,0,0,1,8.61-7.27,6,6,0,1,0-8.52,8.35A7.37,7.37,0,0,1,35.75,30.42Z"/><path class="cls-1" d="M67.43,44.84a2,2,0,0,0-1.38-.57H63.6a23.68,23.68,0,0,0-4.31-7.35c1-1.82,1.7-4.18,1.35-5.43a1.59,1.59,0,0,0-.84-1c-1.88-.89-3.71,0-7.52,2.18a20,20,0,0,0-3.47-.82,5.94,5.94,0,1,0-11.57-.08A22.5,22.5,0,0,0,29,35a17.15,17.15,0,0,0-7.41,15.67,7,7,0,0,1-2.67-.45,4.68,4.68,0,0,0,1.5-3.27,3.48,3.48,0,0,0-3.55-3.64,3.52,3.52,0,0,0-3.58,3.64,4.85,4.85,0,0,0,1.32,3.21,5.19,5.19,0,0,1-2.34.37,1.19,1.19,0,0,0-.35,2.35,8.5,8.5,0,0,0,4.8-1.06A9.64,9.64,0,0,0,21.36,53c.2,0,.4,0,.6,0a26.5,26.5,0,0,0,2.41,5.74c1.15,2.19,2.7,4.93,4.05,7.15.22.36.66,1,1.05,1.61l.52.78a3,3,0,0,0,2.35,1.39h4.95a2,2,0,0,0,1.37-.58,1.92,1.92,0,0,0,.56-1.37V64.68a30.24,30.24,0,0,0,5.09.16l1,3.12,0,.12a2.56,2.56,0,0,0,1,1.15,2.63,2.63,0,0,0,1.47.45H53a2,2,0,0,0,1.36-.58,1.92,1.92,0,0,0,.56-1.37V62.65a13.82,13.82,0,0,0,8.76-7.4l2.8-1.44a2.59,2.59,0,0,0,1.13-1A2.75,2.75,0,0,0,68,51.4V46.21A1.92,1.92,0,0,0,67.43,44.84Zm-50.49,4-.15.12a2.91,2.91,0,0,1-1.11-2,1.15,1.15,0,0,1,1.21-1.26,1.22,1.22,0,0,1,.82.3,1.25,1.25,0,0,1,.35,1A2.85,2.85,0,0,1,16.94,48.82ZM65.62,51.4a.37.37,0,0,1,0,.17s0,.05-.14.1L62.2,53.34a1.19,1.19,0,0,0-.57.65c-1.27,3.49-5.05,5.95-8.13,6.57a1.19,1.19,0,0,0-1,1.17V67.3H47.79a.32.32,0,0,1-.18-.07.27.27,0,0,1-.08-.08l-.86-2.72a25.89,25.89,0,0,0,2.59-.6,1.19,1.19,0,0,0-.66-2.28,22.48,22.48,0,0,1-6.91.93c-.54,0-1.06-.06-1.56-.1a14.26,14.26,0,0,1-6-1.87,1.19,1.19,0,1,0-1.3,2,14.3,14.3,0,0,0,4,1.66V67.3H32.38A.65.65,0,0,1,32,67l-.54-.81c-.37-.55-.79-1.19-1-1.52-1.33-2.19-2.85-4.88-4-7A18.75,18.75,0,0,1,24,50.93a14.91,14.91,0,0,1,6.38-14,20.43,20.43,0,0,1,7.88-3,6,6,0,0,0,2.15,1.8H37.09a.59.59,0,1,0,0,1.19H49a.59.59,0,1,0,0-1.19H45.65A5.94,5.94,0,0,0,47.74,34a16.07,16.07,0,0,1,4,.95,1.19,1.19,0,0,0,1.15,0c3.1-1.74,4.57-2.51,5.42-2.49a10.39,10.39,0,0,1-1.55,4A1.19,1.19,0,0,0,57,38c2.42,2.11,4.06,6.18,4.65,7.84a1.19,1.19,0,0,0,1.12.79h2.85Z"/><path class="cls-1" d="M56.58,44.84a1.78,1.78,0,1,0,1.78,1.78A1.78,1.78,0,0,0,56.58,44.84Z"/><path class="cls-1" d="M32.53,27.13a7.39,7.39,0,0,1,6.41-7.31A6,6,0,1,0,33.25,30.3,7.33,7.33,0,0,1,32.53,27.13Z"/><path class="cls-1" d="M163.85,40.24v1.22a5,5,0,0,0-4.77,5.12,4.14,4.14,0,0,0,1.39,3.29c1.74,1.47,5.2,1.79,5.2,1.79,1.82.08,2.6,1.08,2.64,1.89a1.73,1.73,0,0,1-.68,1.57,4.24,4.24,0,0,1-2.6.67,4.7,4.7,0,0,1-3.76-1.41,1.93,1.93,0,0,0-2.61,0,1.9,1.9,0,0,0,0,2.6,7.91,7.91,0,0,0,5.19,2.42v1a1.09,1.09,0,0,0,1.2,1.16,1.12,1.12,0,0,0,1.21-1.2v-1a7.88,7.88,0,0,0,4.15-1.82,5.4,5.4,0,0,0,1.58-4,4.88,4.88,0,0,0-1.92-3.92A6.73,6.73,0,0,0,166.23,48l-2.09-.34c-.63-.09-1.39-.36-1.39-1.11a1.57,1.57,0,0,1,1.67-1.45,4.65,4.65,0,0,1,3.08,1,1.86,1.86,0,0,0,2.6-.13,2,2,0,0,0-.13-2.61,7.28,7.28,0,0,0-3.73-1.74V40.25A1.11,1.11,0,0,0,165,39,1.23,1.23,0,0,0,163.85,40.24Z"/><path class="cls-1" d="M182.88,39.74V27.89a1.18,1.18,0,0,0-1.18-1.18h-3.55A1.18,1.18,0,0,0,177,27.89v5.95l-9.53-9.5c-1.66-1.66-3-1.69-4.68-.06L141.43,45.59s4.08,0,6,0l.89-.07,1.91-1.78h0L165.12,29l15.34,14.72h0l1.91,1.78.52.13h5.91Z"/><polyline class="cls-2" points="181.6 42.25 181.6 68.15 148.6 68.15 148.6 42.54"/></g></svg>