<svg xmlns="http://www.w3.org/2000/svg" viewBox="0 0 200 90"><defs><style>.cls-1{fill:#1e5748;}.cls-2{fill:none;stroke:#1e5748;stroke-linecap:round;stroke-linejoin:round;stroke-width:3px;}</style></defs><title>TDpublic_illustrations_200x90_03_MyTD_Vanessa</title><g id="ARTWORK"><g id="Options"><path class="cls-1" d="M52.92,58.2V69.51H40.66V58.2H52.92m0-1H40.66a1,1,0,0,0-1,1V69.51a1,1,0,0,0,1,1H52.92a1,1,0,0,0,1-1V58.2a1,1,0,0,0-1-1Z"/><path class="cls-1" d="M71.77,58.2V69.51H59.52V58.2H71.77m0-1H59.52a1,1,0,0,0-1,1V69.51a1,1,0,0,0,1,1H71.77a1,1,0,0,0,1-1V58.2a1,1,0,0,0-1-1Z"/><path class="cls-1" d="M90.63,57.25H78.37a.94.94,0,0,0-.94.94V69.51a.94.94,0,0,0,.94.94H90.63a.94.94,0,0,0,.94-.94V58.2a.94.94,0,0,0-.94-.94Z"/><path class="cls-1" d="M52.92,40.28V51.6H40.66V40.28H52.92m0-1H40.66a1,1,0,0,0-1,1V51.6a1,1,0,0,0,1,1H52.92a1,1,0,0,0,1-1V40.28a1,1,0,0,0-1-1Z"/><path class="cls-1" d="M71.77,40.28V51.6H59.52V40.28H71.77m0-1H59.52a1,1,0,0,0-1,1V51.6a1,1,0,0,0,1,1H71.77a1,1,0,0,0,1-1V40.28a1,1,0,0,0-1-1Z"/><path class="cls-1" d="M90.63,40.28V51.6H78.37V40.28H90.63m0-1H78.37a1,1,0,0,0-1,1V51.6a1,1,0,0,0,1,1H90.63a1,1,0,0,0,1-1V40.28a1,1,0,0,0-1-1Z"/><rect class="cls-1" x="83.29" y="14" width="2.87" height="13.91" rx="1.33" ry="1.33"/><rect class="cls-1" x="45.36" y="14" width="2.87" height="13.91" rx="1.33" ry="1.33"/><rect class="cls-1" x="64.21" y="14" width="2.87" height="13.91" rx="1.33" ry="1.33"/><path class="cls-1" d="M135.18,30.66c0-4.24,3.38-5.49,6.87-5.49s6.87,1.25,6.87,5.49V42.12c0,4.24-3.38,5.49-6.87,5.49s-6.87-1.25-6.87-5.49ZM140.89,43c0,.72.16,1.44,1.16,1.44s1.16-.72,1.16-1.44V30.08c0-.72-.16-1.44-1.16-1.44s-1.16.72-1.16,1.44Zm17.54-17.82h4.07L147.75,61h-4ZM157.26,44c0-4.24,3.38-5.49,6.87-5.49S171,39.81,171,44V55.51c0,4.24-3.38,5.49-6.87,5.49s-6.87-1.25-6.87-5.49Zm5.71,12c0,.72.16,1.44,1.16,1.44s1.16-.72,1.16-1.44V43.18c0-.72-.16-1.44-1.16-1.44s-1.16.72-1.16,1.44Z"/><path class="cls-1" d="M98.77,65.5a4.47,4.47,0,0,1-1.54-.28v9a1.89,1.89,0,0,1-1.89,1.89H35.95a1.89,1.89,0,0,1-1.89-1.89V33.68H97.23V55.85A41.11,41.11,0,0,1,101,52.28V25.2a4.73,4.73,0,0,0-4.71-4.71H87.1v3.85a3.3,3.3,0,1,1-4.75,0V20.49H68v3.85a3.3,3.3,0,1,1-4.75,0V20.49H49.17v3.85a3.28,3.28,0,0,1,.92,2.28,3.33,3.33,0,0,1-4.93,2.9,2.84,2.84,0,0,1-1.27-1.28,3.35,3.35,0,0,1,.52-3.91V20.49H35a4.73,4.73,0,0,0-4.71,4.71v50A4.73,4.73,0,0,0,35,79.88H96.29A4.73,4.73,0,0,0,101,75.17V64.9A4.51,4.51,0,0,1,98.77,65.5Z"/><polyline class="cls-2" points="122.54 42.16 128.42 47.65 123.39 53.41"/><path class="cls-2" d="M98.77,61S109,46.68,127.2,47.83"/></g></g></svg>