<svg xmlns="http://www.w3.org/2000/svg" viewBox="0 0 200 90"><defs><style>.cls-1{fill:#1e5748;}</style></defs><title>TDpublic_illustrations_200x90_02_CreditCards</title><g id="ARTWORK"><path class="cls-1" d="M167.8,21.87V15.78a.51.51,0,0,0-.51-.51h-6.72c-3.93-.06-4.34-.06-7.07,1.82l-.16.12-10.48,8.17-1.47-1.55a1.52,1.52,0,0,0-2.08-.13L117.4,41.79a1.52,1.52,0,0,0-.28.31l-9.46,13.66a1.52,1.52,0,0,0,.42,2.14l2.19,1.42c-1.78,3.74-2.49,9-2.49,16.27a1.52,1.52,0,1,0,3,0c0-6.53.58-11.31,2-14.6l2.47,1.6a1.52,1.52,0,0,0,2.11-.45s.66-1,1.55-2.37a11.93,11.93,0,0,0,4.75,1.15c4.4,0,6-2.56,7.47-5.42l.52-1.06c.35-.71.76-1.54,1.11-2.24a23.49,23.49,0,0,1,4.53,1.67,1.52,1.52,0,0,0,1.68-.22c4.66-4.07,15.18-13.81,15.28-13.91a1.52,1.52,0,0,0,.07-2.16l-6.84-7.25L157.14,23c1.12-.7,1.12-.71,3.2-.68h.48l6.47,0A.51.51,0,0,0,167.8,21.87ZM121.29,56.33c.72-1,1.4-2,1.92-2.68,1.06-1.37,3.73-2,5.68-2.13l-.69,1.38-.11.18C126,56.58,125.82,57.81,121.29,56.33Zm29.84-17.77c-2.67,2.47-9.44,8.7-13.35,12.15-4.64-2.06-13-4-17,1.07-1.4,1.82-3.83,5.48-5.11,7.43l-4.64-3L119.5,44l20.66-17.07Z"/><path class="cls-1" d="M90.69,14.82h0a9,9,0,0,0-6.26,2.6L73.65,28.16,53.19,20.51,53,20.45l-.26-.07c-2-.53-5.12-1.32-8.38,1.94-.88.88-2.72,2.7-2.72,5.37a8,8,0,0,0,2.72,5.56l.15.13,1.44,1.18-7.13,7.13a1.5,1.5,0,1,0,2.12,2.12l7.34-7.34,3.72,3-3.18,3.18a1.5,1.5,0,1,0,2.12,2.12l3.39-3.39,3.32,2.72-7.29,7.28-7.91-2a4.55,4.55,0,0,0-4.9,1.29l-.14.13a5.68,5.68,0,0,0-2.11,3.87,3.83,3.83,0,0,0,1.21,2.8l.19.17L47,65.7,55,76l.17.2a3.7,3.7,0,0,0,2.64,1.2c1.84,0,3.44-1.51,4.23-2.24,1.73-1.73,1.41-3.17,1.1-4.57l-1.86-8.24,7.25-7.26,2.66,3.25-3.36,3.36a1.5,1.5,0,1,0,2.12,2.12l3.15-3.15,3.15,3.86-7.67,7.67a1.5,1.5,0,1,0,2.12,2.12l7.46-7.46,1.11,1.36.13.15c3.58,3.58,7.24,3.59,10.91,0,3.27-3.27,2.48-6.32,2-8.34l-.08-.3a2,2,0,0,0-.06-.2L84.5,39,95.23,28.23c2.88-2.88,3.8-8.12.59-11.34A7.17,7.17,0,0,0,90.69,14.82ZM47.17,25.15c1.65-1.65,2.68-1.39,4.56-.9l21.72,8.1.08,0-6.77,6.77-21.08-11a2,2,0,0,1-.06-.45A4.18,4.18,0,0,1,47.17,25.15Zm-.07,5.2c-.19-.19-.39-.41-.57-.64L66,39.88l-3.51,3.51a2,2,0,0,0-.63-.94ZM70.19,50.83a2,2,0,0,0-1-.67l3.58-3.58L83,66.23a8.58,8.58,0,0,1-.71-.62Zm18.12,10,.05.21c.48,1.85.74,2.87-.92,4.53-.91.89-1.74,1.7-2.92,1.48L73.47,45.85l6.8-6.8s0,.1,0,.15Zm4.1-35.4L80.76,37.08a2,2,0,0,0-.16.21L66.5,51.4l0,0-8.84,8.86a2,2,0,0,0-.54,1.85l2,8.95.08.35c.05.24.12.53.14.7l-.12.13a8,8,0,0,1-1.27,1L50,63a2,2,0,0,0-.35-.35l-10.28-8a4.55,4.55,0,0,1,.82-.94c.17-.17.31-.3.37-.38s.21-.24.92-.06l9,2.25a2,2,0,0,0,1.9-.52L62,45.42a2,2,0,0,0,.33-.45L75.06,32.26a2,2,0,0,0,.5-.36L87.24,20.26a5,5,0,0,1,3.43-1.43h0a3.2,3.2,0,0,1,2.3.88h0C94.5,21.21,93.89,23.92,92.4,25.4Z"/><path class="cls-1" d="M88.89,21.25a.49.49,0,0,0-.53.47.5.5,0,0,0,.47.53c.06,0,1.53.11,1.53,1.5a.5.5,0,0,0,1,0A2.51,2.51,0,0,0,88.89,21.25Z"/></g></svg>