<svg xmlns="http://www.w3.org/2000/svg" viewBox="0 0 320 180"><defs><style>.cls-1{fill:#1e5748;}.cls-2{fill:#1e5748;}.cls-3,.cls-4,.cls-5,.cls-6{fill:none;stroke:#1e5748;}.cls-3,.cls-4,.cls-5{stroke-miterlimit:10;}.cls-3,.cls-5,.cls-6{stroke-width:4px;}.cls-4{stroke-width:3px;}.cls-5,.cls-6{stroke-linecap:round;}.cls-6{stroke-linejoin:round;}</style></defs><title>TDpublic_illustrations_200x90_02_CreditCards</title><g id="ARTWORK"><path class="cls-1" d="M200.73,83.29a1.38,1.38,0,0,0-1.1-.32,26,26,0,0,1-22.22-7.86,1.38,1.38,0,0,0-1-.41h0a1.38,1.38,0,0,0-1,.41,26.46,26.46,0,0,1-22.23,8,1.36,1.36,0,0,0-1.09.33,1.38,1.38,0,0,0-.47,1c0,35.64,12.27,41.87,24.14,47.89a1.36,1.36,0,0,0,.62.15,1.39,1.39,0,0,0,.64-.16c11.86-6.19,24.12-12.6,24.12-48A1.38,1.38,0,0,0,200.73,83.29Zm-24.3,46.27c-11.23-5.71-21.68-11.59-22-43.59a29.16,29.16,0,0,0,22-8,28.66,28.66,0,0,0,22,7.88C198.11,117.65,187.66,123.68,176.43,129.56Z"/><path class="cls-1" d="M194.29,88.68a31.28,31.28,0,0,1-17-6.4,1.38,1.38,0,0,0-1.66,0,31.79,31.79,0,0,1-17,6.46,1.38,1.38,0,0,0-1.28,1.43c1,24.87,8.61,30.8,18.48,36a1.37,1.37,0,0,0,1.29,0c9.52-5.13,17.48-11.39,18.53-36A1.38,1.38,0,0,0,194.29,88.68Z"/><path class="cls-2" d="M256.92,68.85a6.68,6.68,0,0,0,5.23-2.5l3.92-4.9,3.12-3.9h0l7-8.79a6.7,6.7,0,0,0-1-9.4l-1.39-1.11a6.7,6.7,0,0,0-9.4,1l-7,8.79h0l-6.49,8.1h0l-.55.68a6.7,6.7,0,0,0,1,9.4l1.39,1.11A6.65,6.65,0,0,0,256.92,68.85Zm2.56-20.31,6.44-8a4.71,4.71,0,0,1,3.18-1.74,5.08,5.08,0,0,1,.54,0,4.69,4.69,0,0,1,3,1L274,40.87a4.76,4.76,0,0,1,.74,6.67l-6.43,8Z"/><path class="cls-2" d="M264.94,76.87l8.61,21.07a6.7,6.7,0,0,0,3.63,3.66,6.79,6.79,0,0,0,2.62.53,6.71,6.71,0,0,0,2.54-.5L284,101a6.76,6.76,0,0,0,3.69-8.79l-.34-.83h0l-4-9.7-4.3-10.53a6.76,6.76,0,0,0-8.79-3.69l-1.66.68A6.75,6.75,0,0,0,264.94,76.87Zm4.43-7L271,69.2a4.81,4.81,0,0,1,6.26,2.63L281.44,82l-10.75,3.83-4-9.68A4.81,4.81,0,0,1,269.36,69.88Z"/><path class="cls-2" d="M216.87,93.7v7.68a2.91,2.91,0,0,0,2.91,2.91h.94v49.17a3.21,3.21,0,0,0,3.2,3.2h26.44a3.21,3.21,0,0,0,3.2-3.2V104.29h.94a2.91,2.91,0,0,0,2.91-2.91V93.7a2.91,2.91,0,0,0-2.91-2.91H219.78A2.91,2.91,0,0,0,216.87,93.7Zm7.72,59.08v-5.69h19.92a1,1,0,0,0,1-1V110.77a1,1,0,0,0-1-1H224.6v-5.51h25.09v48.5Zm0-41.05h19v33.42h-19V138.1h13.27a1,1,0,1,0,0-1.94H224.6v-3.85h13.27a1,1,0,0,0,0-1.94H224.6v-3.85h13.27a1,1,0,0,0,0-1.94H224.6v-3.85h13.27a1,1,0,0,0,0-1.94H224.6Zm-3.85-17.06h32.79v5.74H220.75Z"/><path class="cls-2" d="M95.84,76.12a5.13,5.13,0,0,0-3.57,1.47l-8.5,8.36L68,80.14l-.25-.07a7.54,7.54,0,0,0-1.88-.31,4,4,0,0,0-3,1.37A4.26,4.26,0,0,0,61.36,84c0,.37,0,1.48,1.58,3l10.79,8.71-7,6.84L60.21,101a3.27,3.27,0,0,0-.78-.1,2.07,2.07,0,0,0-1.61.8,2.87,2.87,0,0,0-1.11,1.81,1.41,1.41,0,0,0,.48,1l7.66,5.88,6,7.54c.49.48.79.48.91.48s1-.12,2.15-1.22c.73-.71.63-1.15.44-2l-1.52-6.68,6.92-6.83,8.85,10.64a4.48,4.48,0,0,0,3,1.55,4.58,4.58,0,0,0,3-1.55c1.83-1.8,1.45-3.25,1-4.94L89.73,91.81l8.5-8.37a5,5,0,0,0,1.5-3.53,3.78,3.78,0,0,0-1.07-2.72A4,4,0,0,0,95.84,76.12Z"/><path class="cls-3" d="M110.41,149.67H45.71a8,8,0,0,1-7.93-7.93v-92a8,8,0,0,1,7.93-7.93h64.7c4.36,0,7.93,3.57,7.93,6.94v92C118.34,146.1,114.77,149.67,110.41,149.67Z"/><path class="cls-2" d="M92.67,150.85a6.83,6.83,0,1,0,12.71,0Z"/><path class="cls-2" d="M51.67,150.85a6.83,6.83,0,1,0,12.71,0Z"/><line class="cls-4" x1="64.07" y1="26.35" x2="64.07" y2="40.85"/><line class="cls-4" x1="91.57" y1="26.35" x2="91.57" y2="40.85"/><line class="cls-5" x1="98.01" y1="26.85" x2="58.11" y2="26.85"/><path class="cls-3" d="M118.75,80.6c5.75-19.25,18.27-31,31.75-34.75,15.25-4.25,32.25-3,48.25,12"/><polyline class="cls-6" points="185.5 58.85 198.5 57.35 196.25 45.1"/></g></svg>