<svg xmlns="http://www.w3.org/2000/svg" viewBox="0 0 200 90"><defs><style>.cls-1{fill:#1e5748;}.cls-2{fill:#1f5748;}</style></defs><title>tripCancellationInterruption</title><g id="ARTWORK"><path class="cls-1" d="M92.89,19.48a6.24,6.24,0,0,0-4.46-1.79h0A7.87,7.87,0,0,0,83,19.95L73.6,29.28,55.81,22.63l-.18-.06-.23-.06c-1.77-.46-4.45-1.15-7.29,1.69a6.72,6.72,0,0,0-2.36,4.67,6.92,6.92,0,0,0,2.36,4.83l.13.12,1.25,1L43.29,41a1.3,1.3,0,1,0,1.84,1.84l6.38-6.38,3.23,2.65L52,41.92a1.3,1.3,0,1,0,1.84,1.84l2.95-2.95,2.89,2.37-6.34,6.33-6.88-1.72a4,4,0,0,0-4.26,1.12l-.12.11a4.94,4.94,0,0,0-1.84,3.36,3.33,3.33,0,0,0,1,2.44l.16.14,8.94,7,7,8.95.15.17a3.22,3.22,0,0,0,2.3,1c1.6,0,3-1.31,3.67-2a3.62,3.62,0,0,0,1-4L62.82,59l6.31-6.32,2.31,2.83-2.92,2.92a1.3,1.3,0,1,0,1.84,1.84l2.74-2.74,2.74,3.35-6.67,6.67A1.3,1.3,0,1,0,71,69.42l6.49-6.49,1,1.18.12.13c3.12,3.12,6.3,3.13,9.48,0,2.84-2.84,2.16-5.5,1.7-7.26l-.07-.26a1.83,1.83,0,0,0-.05-.18L83,38.71l9.33-9.37C94.88,26.84,95.68,22.28,92.89,19.48Zm-43.6,9.79a1.71,1.71,0,0,1-.05-.39,3.63,3.63,0,0,1,1.34-2.21c1.44-1.44,2.33-1.21,4-.78l18.89,7,.07,0-5.89,5.89Zm1.23,1.93c-.17-.17-.34-.36-.5-.56l17,8.84-3.06,3.06a1.74,1.74,0,0,0-.55-.82ZM81.1,61.85,70.6,49a1.74,1.74,0,0,0-.91-.58l3.11-3.11,8.91,17.08A7.48,7.48,0,0,1,81.1,61.85Zm5.25-4.17,0,.18c.42,1.61.64,2.49-.8,3.94-.79.78-1.52,1.48-2.54,1.29L73.45,44.66l5.92-5.92s0,.09,0,.13Zm3.56-30.79L79.79,37a1.7,1.7,0,0,0-.14.19L67.39,49.49l0,0-7.69,7.7a1.74,1.74,0,0,0-.47,1.61L61,66.62l.07.3c0,.21.1.46.12.61l-.1.11a7.05,7.05,0,0,1-1.11.91L53,59.62a1.69,1.69,0,0,0-.3-.3l-8.94-7a4,4,0,0,1,.72-.82l.32-.33c.08-.09.19-.21.8-.05l7.85,2a1.74,1.74,0,0,0,1.65-.46l8.4-8.38a1.73,1.73,0,0,0,.28-.39L74.83,32.84a1.73,1.73,0,0,0,.44-.31L85.42,22.41a4.31,4.31,0,0,1,3-1.25h0a2.79,2.79,0,0,1,2,.77h0C91.73,23.24,91.21,25.59,89.91,26.88Z"/><path class="cls-1" d="M86.86,23.28a.42.42,0,0,0-.46.41.44.44,0,0,0,.41.46c.05,0,1.33.1,1.33,1.31a.43.43,0,1,0,.87,0A2.19,2.19,0,0,0,86.86,23.28Z"/><path class="cls-2" d="M130.46,38A13.5,13.5,0,1,0,144,51.5,13.54,13.54,0,0,0,130.46,38Zm7.1,18.21a.5.5,0,0,1,0,.71l-1.69,1.69a.5.5,0,0,1-.71,0l-4.71-4.71-4.71,4.71a.5.5,0,0,1-.71,0l-1.69-1.69a.5.5,0,0,1,0-.71l4.71-4.71-4.71-4.71a.5.5,0,0,1,0-.71L125,44.4a.5.5,0,0,1,.71,0l4.71,4.71,4.71-4.71a.5.5,0,0,1,.71,0l1.69,1.69a.5.5,0,0,1,0,.71l-4.71,4.71Z"/><path class="cls-1" d="M155.57,23.32H148v3.16a2.7,2.7,0,1,1-3.9,0V23.32H117v3.16a2.7,2.7,0,1,1-3.9,0V23.32h-7.71a3.88,3.88,0,0,0-3.86,3.86v41A3.88,3.88,0,0,0,105.34,72h50.23a3.88,3.88,0,0,0,3.86-3.86v-41A3.88,3.88,0,0,0,155.57,23.32Zm.49,43.87a1.53,1.53,0,0,1-1.53,1.53H106.38a1.53,1.53,0,0,1-1.53-1.53V34.32h51.21Z"/><rect class="cls-1" x="144.92" y="18" width="2.35" height="11.4" rx="1.02" ry="1.02"/><rect class="cls-1" x="113.83" y="18" width="2.35" height="11.4" rx="1.02" ry="1.02"/></g></svg>