<svg xmlns="http://www.w3.org/2000/svg" viewBox="0 0 200 90"><defs><style>.cls-1{fill:#1e5748;}.cls-2{fill:#fff;}</style></defs><title>TDpublic_illustrations_200x90_Borrowing</title><g id="ARTWORK"><path class="cls-1" d="M115.4,44.43H98v0a1.07,1.07,0,0,0-.67.7A1,1,0,0,0,98,46.43h17.41v0a1.07,1.07,0,0,0,.67-.7A1,1,0,0,0,115.4,44.43Z"/><path class="cls-1" d="M115.4,36.24H98v0a1.07,1.07,0,0,0-.67.7A1,1,0,0,0,98,38.24h17.41v0a1.07,1.07,0,0,0,.67-.7A1,1,0,0,0,115.4,36.24Z"/><path class="cls-1" d="M115.4,52.62H98v0a1.07,1.07,0,0,0-.67.7A1,1,0,0,0,98,54.62h17.41v0a1.07,1.07,0,0,0,.67-.7A1,1,0,0,0,115.4,52.62Z"/><path class="cls-1" d="M157.5,18H136.67c-6.81,0-10.14,1.6-11.75,3.26C123.32,19.6,120,18,113.18,18H92.36a1.8,1.8,0,0,0-1.79,1.81v5.88h1.87V19.83h20.23c9.34,0,9.57,3.41,9.57,3.41h0V71.17a21.6,21.6,0,0,0-9.56-2.24H102.42l-1.4,2h12.15c4.39,0,8.78,1.88,8.83,2.11a2,2,0,0,0,1.79.65h2.38c.91,0,1,0,1.76-.84a22.37,22.37,0,0,1,8.73-1.92h20.82a1.8,1.8,0,0,0,1.79-1.81V19.81A1.8,1.8,0,0,0,157.5,18Zm-27.78,9.78v-1a3.9,3.9,0,0,0,2.36-1.37h1.26V34H131.2v-4.6a8.22,8.22,0,0,0,0-1.2.45.45,0,0,0-.26-.31,2.74,2.74,0,0,0-1-.1Zm3,14.15a.41.41,0,0,0-.36-.17A.4.4,0,0,0,132,42a1.61,1.61,0,0,0-.12.76v.82h-1.92v-.31a6.87,6.87,0,0,1,.07-1.14,2,2,0,0,1,.37-.82,1.83,1.83,0,0,1,.76-.61,2.75,2.75,0,0,1,1.12-.21,2.68,2.68,0,0,1,1.93.63,2.14,2.14,0,0,1,.65,1.6,3.82,3.82,0,0,1-.37,1.56,32,32,0,0,1-2.17,3.49h2.35v1.46h-4.71V48q2.09-3.43,2.49-4.24a3.2,3.2,0,0,0,.4-1.27A.92.92,0,0,0,132.71,41.93Zm2.09,21.48a1.66,1.66,0,0,1-.81.86,3.21,3.21,0,0,1-1.47.29,3.16,3.16,0,0,1-1.6-.34,1.67,1.67,0,0,1-.76-.84,5.58,5.58,0,0,1-.18-1.72V61h2.14v1.39a2.24,2.24,0,0,0,.07.71.28.28,0,0,0,.29.15.32.32,0,0,0,.33-.19,3.59,3.59,0,0,0,.08-1v-.59a1.74,1.74,0,0,0-.11-.72.55.55,0,0,0-.33-.3,3.4,3.4,0,0,0-.84-.08V59.11a4.41,4.41,0,0,0,.94-.06.41.41,0,0,0,.26-.25,1.76,1.76,0,0,0,.08-.62v-.48a1.25,1.25,0,0,0-.09-.59.32.32,0,0,0-.29-.14.32.32,0,0,0-.3.15,1.6,1.6,0,0,0-.08.64v.71H130v-.73a2,2,0,0,1,.56-1.66,2.94,2.94,0,0,1,1.79-.43,2.78,2.78,0,0,1,2.08.6,2.38,2.38,0,0,1,.55,1.66,2.08,2.08,0,0,1-.2,1,1.75,1.75,0,0,1-.69.59,1.32,1.32,0,0,1,.73.54,4,4,0,0,1,.24,1.75A4.3,4.3,0,0,1,134.79,63.42Zm5.41-2.25h-2.25V60h2.25Zm0-15.21h-2.25V44.77h2.25Zm0-15.2h-2.25V29.57h2.25Zm3.56,30.41h-2.25V60h2.25Zm0-15.21h-2.25V44.77h2.25Zm0-15.2h-2.25V29.57h2.25Zm3.56,30.41h-2.25V60h2.25Zm0-15.21h-2.25V44.77h2.25Zm0-15.2h-2.25V29.57h2.25Zm3.56,30.41h-2.25V60h2.25Zm0-15.21h-2.25V44.77h2.25Zm0-15.2h-2.25V29.57h2.25Z"/><path class="cls-1" d="M90.35,27.81H43.23a2.53,2.53,0,0,0-2.48,2.56V58.5a2.53,2.53,0,0,0,2.48,2.56H90.35a2.53,2.53,0,0,0,2.48-2.56V30.37A2.53,2.53,0,0,0,90.35,27.81Zm0,30.69H43.23V43.15H90.35Zm0-21.74H43.23V30.37H90.35Z"/><path class="cls-2" d="M94,51.16c3.42-4.84,3.15-6.24,3-6.93a2.49,2.49,0,0,0-1.15-1.67A3.52,3.52,0,0,0,94,42a6.28,6.28,0,0,0-2.71.79c-.19.09-.44.21-.62.28-.14-.09-.35-.25-.49-.36a5,5,0,0,0-3.08-1.32h-.13a4.63,4.63,0,0,0-3,1.43l-.27.25-.77-.29A8,8,0,0,0,80,42.08a3.16,3.16,0,0,0-2.41,1c-1.39,1.52-.77,3.87,2.16,8C72,59,69.46,65.76,72.28,70.78c2.41,4.3,7.36,6.48,14.71,6.48h.52c9.43-.13,13-3.69,14.26-6.64C103.86,65.86,101.22,59.32,94,51.16Z"/><path class="cls-1" d="M91.83,51.78h-10C77,56.63,70.9,64.24,74,69.8c2.47,4.39,8,5.53,13.46,5.45s10.66-1.36,12.46-5.45C102.24,64.57,96.37,56.75,91.83,51.78ZM90.3,68.19a3.12,3.12,0,0,1-.34.3,4.64,4.64,0,0,1-2.32.87V70a.76.76,0,0,1-.75.77h0A.76.76,0,0,1,86.1,70v-.62a5.07,5.07,0,0,1-3.32-1.55,1.18,1.18,0,0,1,1.67-1.67,3,3,0,0,0,2.41.9,2.72,2.72,0,0,0,1.66-.43,1.17,1.17,0,0,0,.44-1c0-.24,0-.4-.42-.73a2.22,2.22,0,0,0-1.28-.48l-1.35-.22a4.17,4.17,0,0,1-2-.93A2.64,2.64,0,0,1,83,61.16a3.17,3.17,0,0,1,3.06-3.28V57.1a.79.79,0,0,1,.77-.77.77.77,0,0,1,.56.23.75.75,0,0,1,.21.54V58A4.86,4.86,0,0,1,90,59.08a1.18,1.18,0,0,1,.39.83,1.16,1.16,0,0,1-.31.85,1.23,1.23,0,0,1-.88.38,1.16,1.16,0,0,1-.78-.3,3,3,0,0,0-2-.61,1,1,0,0,0-1.07.93c0,.48.49.65.89.71l1.34.22a4.31,4.31,0,0,1,2.45,1,3.12,3.12,0,0,1,1.23,2.51A3.56,3.56,0,0,1,90.3,68.19Z"/><path class="cls-1" d="M94.77,44.26c-1.37-.83-3.05.93-4.25.89S88.37,43.38,87,43.43s-1.92,1.47-3,1.72-3.85-1.9-4.95-.7c-.89,1,1.84,4.86,2.91,6.3h9.84C92.9,49.23,95.89,44.94,94.77,44.26Z"/></g></svg>