<svg xmlns="http://www.w3.org/2000/svg" viewBox="0 0 200 90"><defs><style>.cls-1,.cls-2{fill:#1e5748;}.cls-1,.cls-3,.cls-4,.cls-5{stroke:#1e5748;}.cls-1,.cls-3,.cls-5{stroke-linecap:round;}.cls-1,.cls-3{stroke-linejoin:round;}.cls-3,.cls-4,.cls-5{fill:none;stroke-width:3px;}.cls-4,.cls-5{stroke-miterlimit:10;}</style></defs><title>uniqueGift</title><g id="ARTWORK"><polygon class="cls-1" points="151.26 35.68 152.16 31.56 153.36 35.68 157.47 36.88 153.36 37.78 152.16 42.2 151.26 37.78 146.84 36.88 151.26 35.68"/><polygon class="cls-1" points="89.84 53.67 90.74 49.55 91.95 53.67 96.06 54.87 91.95 55.77 90.74 60.19 89.84 55.77 85.42 54.87 89.84 53.67"/><polygon class="cls-1" points="107.98 19.02 108.88 14.9 110.08 19.02 114.19 20.22 110.08 21.12 108.88 25.54 107.98 21.12 103.56 20.22 107.98 19.02"/><polygon class="cls-1" points="165.98 56.58 166.88 52.46 168.09 56.58 172.2 57.78 168.09 58.68 166.88 63.1 165.98 58.68 161.56 57.78 165.98 56.58"/><path class="cls-2" d="M98.35,59.51h25.8a.5.5,0,0,0,.47-.66l-5.73-17.2a.5.5,0,0,0-.47-.34H104.08a.5.5,0,0,0-.47.34l-5.73,17.2a.5.5,0,0,0,.47.66Z"/><path class="cls-2" d="M114.5,38.76h25.8a.5.5,0,0,0,.47-.66L135,20.9a.5.5,0,0,0-.47-.34H120.24a.5.5,0,0,0-.47.34L114,38.1a.5.5,0,0,0,.47.66Z"/><path class="cls-2" d="M132.19,41.65l-5.73,17.2a.5.5,0,0,0,.47.66h25.8a.5.5,0,0,0,.47-.66l-5.73-17.2a.5.5,0,0,0-.47-.34H132.66A.5.5,0,0,0,132.19,41.65Z"/><path class="cls-2" d="M135,62.27a.5.5,0,0,0-.47-.34H120.24a.5.5,0,0,0-.47.34L114,79.47a.5.5,0,0,0,.47.66h25.8a.5.5,0,0,0,.47-.66Z"/><path class="cls-2" d="M107.25,62.27a.5.5,0,0,0-.47-.34H92.44a.5.5,0,0,0-.47.34l-5.73,17.2a.5.5,0,0,0,.47.66h25.8a.5.5,0,0,0,.47-.66Z"/><path class="cls-2" d="M168.5,79.47l-5.73-17.2a.5.5,0,0,0-.47-.34H148a.5.5,0,0,0-.47.34l-5.73,17.2a.5.5,0,0,0,.47.66H168a.5.5,0,0,0,.47-.66Z"/><rect class="cls-2" x="51.03" y="38.08" width="2" height="38.8"/><rect class="cls-2" x="30.61" y="58.3" width="43.66" height="2"/><rect class="cls-3" x="29.72" y="38.53" width="45.73" height="40.02" rx="1" ry="1"/><path class="cls-4" d="M52.65,38c8-.45,15.3-5.29,12-9.52S53.19,31.12,52.65,38Z"/><path class="cls-4" d="M52.58,38c-8-.45-15.3-5.29-12-9.52S52,31.12,52.58,38Z"/><line class="cls-5" x1="52.58" y1="39.63" x2="38.29" y2="47.11"/><line class="cls-5" x1="52.58" y1="39.63" x2="66.87" y2="47.11"/></g></svg>