<svg xmlns="http://www.w3.org/2000/svg" viewBox="0 0 200 90"><defs><style>.cls-1{fill:#1e5748;}.cls-2{fill:#1e5748;}</style></defs><title>TDpublic_illustrations_200x90_01_Accounts</title><g id="ARTWORK"><g id="Layer_21" data-name="Layer 21"><rect class="cls-1" x="22.33" y="46.11" width="90.16" height="4.51"/><rect class="cls-1" x="22.33" y="55.12" width="90.16" height="4.51"/><path class="cls-2" d="M112.49,14.54V10H22.33V41.6h90.16V37.09H65.15V32.58h47.35V28.07H65.15V23.56h47.35V19.05H65.15V14.54Zm-85.65,24-.93-.66-.93.66.34-1.09-.92-.68,1.14,0,.37-1.08.37,1.08,1.14,0-.92.68Zm-.34-6.9.34,1.09-.93-.66-.93.66.34-1.09L24.39,31l1.14,0,.37-1.08L26.27,31l1.14,0Zm0-5.81.34,1.09-.93-.66-.93.66.34-1.09-.92-.68,1.14,0,.37-1.08.37,1.08,1.14,0Zm0-5.81.34,1.09-.93-.66-.93.66L25.31,20l-.92-.68,1.14,0,.37-1.08.37,1.08,1.14,0Zm0-5.81.34,1.09-.93-.66-.93.66.34-1.09-.92-.68,1.14,0,.37-1.08.37,1.08,1.14,0ZM31.08,35.8l-.93-.66-.93.66.34-1.09L28.64,34l1.14,0,.37-1.08L30.52,34l1.14,0-.92.68Zm-.34-6.94L31.08,30l-.93-.66-.93.66.34-1.09-.92-.68,1.14,0,.37-1.08.37,1.08,1.14,0Zm0-5.84.34,1.09-.93-.66-.93.66L29.55,23l-.92-.68,1.14,0,.37-1.08.37,1.08,1.14,0Zm0-5.84.34,1.09-.93-.66-.93.66.34-1.09-.92-.68,1.14,0,.37-1.08.37,1.08,1.14,0Zm4.58,21.4-.93-.66-.93.66.34-1.09-.92-.68,1.14,0,.37-1.08.37,1.08,1.14,0-.92.68ZM35,31.67l.34,1.09-.93-.66-.93.66.34-1.09L32.88,31,34,31l.37-1.08L34.76,31l1.14,0Zm0-5.81.34,1.09-.93-.66-.93.66.34-1.09-.92-.68,1.14,0,.37-1.08.37,1.08,1.14,0ZM35,20l.34,1.09-.93-.66-.93.66L33.79,20l-.92-.68,1.14,0,.37-1.08.37,1.08,1.14,0Zm0-5.81.34,1.09-.93-.66-.93.66.34-1.09-.92-.68,1.14,0,.37-1.08.37,1.08,1.14,0ZM39.57,35.8l-.93-.66-.93.66L38,34.71,37.12,34l1.14,0,.37-1.08L39,34l1.14,0-.92.68Zm-.34-6.94L39.57,30l-.93-.66L37.7,30,38,28.86l-.92-.68,1.14,0,.37-1.08L39,28.16l1.14,0Zm0-5.84.34,1.09-.93-.66-.93.66L38,23l-.92-.68,1.14,0,.37-1.08L39,22.32l1.14,0Zm0-5.84.34,1.09-.93-.66-.93.66L38,17.18l-.92-.68,1.14,0,.37-1.08L39,16.48l1.14,0Zm4.58,21.4-.93-.66-.93.66.34-1.09-.92-.68,1.14,0,.37-1.08.37,1.08,1.14,0-.92.68Zm-.34-6.9.34,1.09-.93-.66-.93.66.34-1.09L41.36,31l1.14,0,.37-1.08L43.24,31l1.14,0Zm0-5.81.34,1.09-.93-.66-.93.66.34-1.09-.92-.68,1.14,0,.37-1.08.37,1.08,1.14,0Zm0-5.81.34,1.09-.93-.66-.93.66L42.28,20l-.92-.68,1.14,0,.37-1.08.37,1.08,1.14,0Zm0-5.81.34,1.09-.93-.66-.93.66.34-1.09-.92-.68,1.14,0,.37-1.08.37,1.08,1.14,0ZM48.05,35.8l-.93-.66-.93.66.34-1.09L45.6,34l1.14,0,.37-1.08L47.48,34l1.14,0-.92.68Zm-.34-6.94L48.05,30l-.93-.66-.93.66.34-1.09-.92-.68,1.14,0,.37-1.08.37,1.08,1.14,0Zm0-5.84.34,1.09-.93-.66-.93.66L46.52,23l-.92-.68,1.14,0,.37-1.08.37,1.08,1.14,0Zm0-5.84.34,1.09-.93-.66-.93.66.34-1.09-.92-.68,1.14,0,.37-1.08.37,1.08,1.14,0Zm4.58,21.4-.93-.66-.93.66.34-1.09-.92-.68,1.14,0,.37-1.08.37,1.08,1.14,0-.92.68ZM52,31.67l.34,1.09-.93-.66-.93.66.34-1.09L49.85,31,51,31l.37-1.08L51.73,31l1.14,0Zm0-5.81.34,1.09-.93-.66-.93.66.34-1.09-.92-.68,1.14,0,.37-1.08.37,1.08,1.14,0ZM52,20l.34,1.09-.93-.66-.93.66L50.76,20l-.92-.68,1.14,0,.37-1.08.37,1.08,1.14,0Zm0-5.81.34,1.09-.93-.66-.93.66.34-1.09-.92-.68,1.14,0,.37-1.08.37,1.08,1.14,0ZM56.53,35.8l-.93-.66-.93.66L55,34.71,54.09,34l1.14,0,.37-1.08L56,34l1.14,0-.92.68Zm-.34-6.94L56.53,30l-.93-.66-.93.66L55,28.86l-.92-.68,1.14,0,.37-1.08L56,28.16l1.14,0Zm0-5.84.34,1.09-.93-.66-.93.66L55,23l-.92-.68,1.14,0,.37-1.08L56,22.32l1.14,0Zm0-5.84.34,1.09-.93-.66-.93.66L55,17.18l-.92-.68,1.14,0,.37-1.08L56,16.48l1.14,0Zm4.58,21.4-.93-.66-.93.66.34-1.09-.92-.68,1.14,0,.37-1.08.37,1.08,1.14,0-.92.68Zm-.34-6.9.34,1.09-.93-.66-.93.66.34-1.09L58.33,31l1.14,0,.37-1.08L60.21,31l1.14,0Zm0-5.81.34,1.09-.93-.66-.93.66.34-1.09-.92-.68,1.14,0,.37-1.08.37,1.08,1.14,0Zm0-5.81.34,1.09-.93-.66-.93.66L59.25,20l-.92-.68,1.14,0,.37-1.08.37,1.08,1.14,0Zm0-5.81.34,1.09-.93-.66-.93.66.34-1.09-.92-.68,1.14,0,.37-1.08.37,1.08,1.14,0Z"/><rect class="cls-1" x="124.62" y="77.27" width="53.29" height="2.66" rx="0.68" ry="0.68"/><rect class="cls-1" x="128.62" y="73.27" width="45.3" height="2.66" rx="0.68" ry="0.68"/><rect class="cls-1" x="128.62" y="43.96" width="45.3" height="2.66" rx="0.68" ry="0.68"/><path class="cls-1" d="M125.36,42.81h51.85a.74.74,0,0,0,.32-1.41L151.61,29.21a.74.74,0,0,0-.63,0L125.05,41.4a.74.74,0,0,0,.31,1.41Z"/><rect class="cls-1" x="129.95" y="47.96" width="5.33" height="23.98" rx="0.65" ry="0.65"/><rect class="cls-1" x="167.25" y="47.96" width="5.33" height="23.98" rx="0.65" ry="0.65"/><rect class="cls-1" x="142.38" y="47.96" width="5.33" height="23.98" rx="0.65" ry="0.65"/><rect class="cls-1" x="154.82" y="47.96" width="5.33" height="23.98" rx="0.65" ry="0.65"/></g></g></svg>