<svg xmlns="http://www.w3.org/2000/svg" viewBox="0 0 258 164"><defs><style>.cls-1,.cls-2{fill:#1e5748;}.cls-2,.cls-3{stroke:#1e5748;stroke-linejoin:round;stroke-width:2px;}.cls-3{fill:none;}.cls-4{fill:#205849;}</style></defs><title>USBorderlessPlan-Compare</title><g id="ARTWORK"><rect class="cls-1" x="82.25" y="109.31" width="74.06" height="3.7"/><rect class="cls-1" x="82.25" y="116.71" width="74.06" height="3.7"/><path class="cls-1" d="M156.31,83.38V79.67H82.25V105.6h74.06v-3.7H117.42V98.19h38.89v-3.7H117.42v-3.7h38.89V87.08H117.42v-3.7ZM86,102.88l-.77-.54-.76.54.27-.89-.75-.56.94,0,.3-.89.31.89.93,0-.75.56Zm-.28-5.67.28.9-.77-.54-.76.54.27-.9-.75-.56h.94l.3-.89.31.89h.93Zm0-4.77.28.9-.77-.55-.76.55.27-.9-.75-.56.94,0,.3-.89.31.89.93,0Zm0-4.77.28.89L85.18,88l-.76.54.27-.89-.75-.57h.94l.3-.89.31.89h.93Zm0-4.78.28.9-.77-.54-.76.54.27-.9-.75-.56h.94l.3-.89.31.89h.93Zm3.77,17.72-.77-.54-.77.54.28-.9-.75-.56h.94l.3-.89.3.89h.94l-.75.56Zm-.28-5.7.28.9-.77-.54-.77.54.28-.9-.75-.56h.94l.3-.89.3.89h.94Zm0-4.8.28.9-.77-.54L87.9,91l.28-.9-.75-.56.94,0,.3-.88.3.88.94,0Zm0-4.8.28.9-.77-.55-.77.55.28-.9-.75-.56.94,0,.3-.89.3.89.94,0Zm3.76,17.57-.77-.54-.76.54.27-.89-.75-.56.94,0,.3-.89.3.89.94,0-.75.56Zm-.28-5.67.28.9-.77-.54-.76.54.27-.9-.75-.56h.94l.3-.89.3.89h.94Zm0-4.77.28.9-.77-.55-.76.55.27-.9-.75-.56.94,0,.3-.89.3.89.94,0Zm0-4.77.28.89L92.15,88l-.76.54.27-.89-.75-.57h.94l.3-.89.3.89h.94Zm0-4.78.28.9-.77-.54-.76.54.27-.9-.75-.56h.94l.3-.89.3.89h.94Zm3.76,17.72-.76-.54-.77.54.28-.9-.75-.56h.93l.31-.89.3.89h.94l-.75.56Zm-.27-5.7.27.9-.76-.54-.77.54.28-.9-.75-.56h.93l.31-.89.3.89h.94Zm0-4.8.27.9-.76-.54-.77.54.28-.9-.75-.56.93,0,.31-.88.3.88.94,0Zm0-4.8.27.9-.76-.55-.77.55.28-.9-.75-.56.93,0,.31-.89.3.89.94,0Zm3.76,17.57-.77-.54-.77.54.28-.89-.75-.56.94,0,.3-.89.3.89.94,0-.75.56Zm-.28-5.67.28.9-.77-.54-.77.54.28-.9-.75-.56h.94l.3-.89.3.89h.94Zm0-4.77.28.9-.77-.55-.77.55.28-.9-.75-.56.94,0,.3-.89.3.89.94,0Zm0-4.77.28.89L99.12,88l-.77.54.28-.89-.75-.57h.94l.3-.89.3.89h.94Zm0-4.78.28.9-.77-.54-.77.54.28-.9-.75-.56h.94l.3-.89.3.89h.94Zm3.76,17.72-.76-.54-.77.54.28-.9-.76-.56h.94l.31-.89.3.89h.94l-.75.56Zm-.27-5.7.27.9-.76-.54-.77.54.28-.9-.76-.56h.94l.31-.89.3.89h.94Zm0-4.8.27.9-.76-.54-.77.54.28-.9-.76-.56.94,0,.31-.88.3.88.94,0Zm0-4.8.27.9-.76-.55-.77.55.28-.9-.76-.56.94,0,.31-.89.3.89.94,0Zm3.76,17.57-.77-.54-.77.54.28-.89-.75-.56.94,0,.3-.89.3.89.94,0-.75.56Zm-.28-5.67.28.9-.77-.54-.77.54.28-.9-.75-.56h.94l.3-.89.3.89h.94Zm0-4.77.28.9-.77-.55-.77.55.28-.9-.75-.56.94,0,.3-.89.3.89.94,0Zm0-4.77.28.89-.77-.54-.77.54.28-.89-.75-.57h.94l.3-.89.3.89h.94Zm0-4.78.28.9-.77-.54-.77.54.28-.9-.75-.56h.94l.3-.89.3.89h.94Zm3.76,17.72-.76-.54-.77.54.28-.9-.76-.56h.94l.31-.89.3.89h.94l-.75.56Zm-.27-5.7.27.9-.76-.54-.77.54.28-.9-.76-.56h.94l.31-.89.3.89h.94Zm0-4.8.27.9-.76-.54-.77.54.28-.9-.76-.56.94,0,.31-.88.3.88.94,0Zm0-4.8.27.9-.76-.55-.77.55.28-.9-.76-.56.94,0,.31-.89.3.89.94,0Zm3.76,17.57-.77-.54-.77.54.28-.89-.75-.56.94,0,.3-.89.3.89.94,0-.75.56Zm-.28-5.67.28.9-.77-.54-.77.54.28-.9-.75-.56h.94l.3-.89.3.89h.94Zm0-4.77.28.9-.77-.55-.77.55.28-.9-.75-.56.94,0,.3-.89.3.89.94,0Zm0-4.77.28.89-.77-.54-.77.54.28-.89-.75-.57h.94l.3-.89.3.89h.94Zm0-4.78.28.9-.77-.54-.77.54.28-.9-.75-.56h.94l.3-.89.3.89h.94Z"/><path class="cls-2" d="M183.8,91.65l49.83-44.58a6.72,6.72,0,0,0-9-10L174.81,81.64Z"/><path class="cls-3" d="M174.81,81.64,160.73,103s22.59-11.32,23.07-11.39Z"/><path class="cls-1" d="M189,61.23h0L76,61.35a8.19,8.19,0,0,1-.59,1,8.67,8.67,0,0,1-2.05,2,2.38,2.38,0,0,0-1,1.91,2.45,2.45,0,0,0,.13.78c.05.14.06.29.1.44l115-.13v65.21H51L51,85.45a8.56,8.56,0,0,1-2.32-1.21,2.3,2.3,0,0,0-2.8,0,9,9,0,0,1-1.09.68l-.06,49.14a4.8,4.8,0,0,0,4.8,4.79H189a4.82,4.82,0,0,0,4.8-4.82V66A4.82,4.82,0,0,0,189,61.23Z"/><path class="cls-4" d="M70.7,57.07a2.35,2.35,0,0,0-1-1.51A8.59,8.59,0,0,1,66.6,45.8a2,2,0,0,0,.12-.78,2.32,2.32,0,0,0-.7-1.63,2.62,2.62,0,0,0-1.65-.66h-.21a8.57,8.57,0,0,1-8.13-6,2.35,2.35,0,0,0-.35-.73,2.33,2.33,0,0,0-3.26-.52,8.51,8.51,0,0,1-10.17,0,2.41,2.41,0,0,0-.71-.37,2.34,2.34,0,0,0-2.92,1.54,8.51,8.51,0,0,1-8.16,6h-.12a2.48,2.48,0,0,0-.77.12,2.33,2.33,0,0,0-1.44,3A8.59,8.59,0,0,1,25,55.46a2.25,2.25,0,0,0-.55.56A2.32,2.32,0,0,0,25,59.26,8.61,8.61,0,0,1,28.13,69a2,2,0,0,0-.12.78,2.24,2.24,0,0,0,.7,1.63,2.49,2.49,0,0,0,1.65.66h.1a8.59,8.59,0,0,1,8.16,6,2.43,2.43,0,0,0,.34.66,2.33,2.33,0,0,0,3.26.5,8.51,8.51,0,0,1,10.18,0,2.5,2.5,0,0,0,.71.36A2.32,2.32,0,0,0,56,78.08a8.61,8.61,0,0,1,8.37-6h0a2.33,2.33,0,0,0,.69-.12,2.32,2.32,0,0,0,1.47-2.93,8.81,8.81,0,0,1-.44-2.76h0a8.55,8.55,0,0,1,3.64-6.95,2,2,0,0,0,.53-.54A2.31,2.31,0,0,0,70.7,57.07ZM53.23,59.85l1.44,8.4-7.54-4-7.55,4L41,59.85l-6.1-6,8.43-1.22L47.13,45l3.77,7.64,8.43,1.22Z"/></g></svg>