<svg xmlns="http://www.w3.org/2000/svg" viewBox="0 0 258 164"><defs><style>.cls-1{fill:#1e5748;}</style></defs><title>USDollarDailyInterestChequing-Compare</title><g id="ARTWORK"><path class="cls-1" d="M241,33.42a7.68,7.68,0,0,0-10.88-.57L180.35,77.41a1,1,0,0,0-.08,1.41l9,10a1,1,0,0,0,1.41.08l49.81-44.56A7.76,7.76,0,0,0,241,33.42Z"/><path class="cls-1" d="M166.94,100.53A1,1,0,0,1,166.1,99L180.18,77.6a1,1,0,0,1,1.58-.12l9,10a1,1,0,0,1-.46,1.63c-1,.41-14.22,7-22.89,11.32A1,1,0,0,1,166.94,100.53Zm14.2-20.75L169.82,97c11.72-5.86,16.52-8.21,18.52-9.16Z"/><rect class="cls-1" x="15.99" y="65.9" width="86.52" height="4.33"/><rect class="cls-1" x="15.99" y="74.55" width="86.52" height="4.33"/><path class="cls-1" d="M102.51,35.61V31.28H16V61.57h86.52V57.24H57.07V52.91h45.44V48.59H57.07V44.26h45.44V39.93H57.07V35.61ZM20.31,58.4l-.9-.63-.9.63.32-1L18,56.69h1.1l.35-1,.35,1h1.1l-.88.66ZM20,51.77l.32,1-.9-.63-.9.63.32-1L18,51.11h1.1l.35-1,.35,1h1.1Zm0-5.58.32,1-.9-.63-.9.63.32-1L18,45.54h1.1l.35-1,.35,1h1.1Zm0-5.58.32,1-.9-.63-.9.63.32-1L18,40h1.1l.35-1,.35,1h1.1ZM20,35l.32,1-.9-.63-.9.63.32-1L18,34.38h1.1l.35-1,.35,1h1.1Zm4.4,20.7-.9-.63-.9.63.32-1L22,54h1.1l.35-1,.35,1h1.1l-.88.66Zm-.32-6.66.32,1-.9-.63-.9.63.32-1L22,48.42h1.1l.35-1,.35,1h1.1Zm0-5.61.32,1-.9-.63-.9.63.32-1L22,42.81h1.1l.35-1,.35,1h1.1Zm0-5.61.32,1-.9-.63-.9.63.32-1L22,37.21h1.1l.35-1,.35,1h1.1Zm4.4,20.53-.9-.63-.9.63.32-1-.88-.66h1.1l.35-1,.35,1H29l-.88.66Zm-.33-6.63.33,1-.9-.63-.9.63.32-1-.88-.66h1.1l.35-1,.35,1H29Zm0-5.58.33,1-.9-.63-.9.63.32-1-.88-.66h1.1l.35-1,.35,1H29Zm0-5.58.33,1-.9-.63-.9.63.32-1L26.11,40h1.1l.35-1,.35,1H29Zm0-5.58.33,1-.9-.63-.9.63L27,35l-.88-.66h1.1l.35-1,.35,1H29Zm4.4,20.7-.9-.63-.9.63.32-1L30.18,54h1.1l.35-1L32,54h1.1l-.88.66Zm-.32-6.66.32,1-.9-.63-.9.63.32-1-.88-.66h1.1l.35-1,.35,1h1.1Zm0-5.61.32,1-.9-.63-.9.63.32-1-.88-.66h1.1l.35-1,.35,1h1.1Zm0-5.61.32,1-.9-.63-.9.63.32-1-.88-.66h1.1l.35-1,.35,1h1.1Zm4.4,20.53-.9-.63-.9.63.33-1-.88-.66h1.1l.35-1,.35,1h1.1l-.88.66Zm-.32-6.63.32,1-.9-.63-.9.63.33-1-.88-.66h1.1l.35-1,.35,1h1.1Zm0-5.58.32,1-.9-.63-.9.63.33-1-.88-.66h1.1l.35-1,.35,1h1.1Zm0-5.58.32,1L35.7,41l-.9.63.33-1L34.25,40h1.1l.35-1,.35,1h1.1Zm0-5.58.32,1-.9-.63-.9.63.33-1-.88-.66h1.1l.35-1,.35,1h1.1Zm4.4,20.7-.9-.63-.9.63.32-1L38.32,54h1.1l.35-1,.35,1h1.1l-.88.66Zm-.32-6.66.32,1-.9-.63-.9.63.32-1-.88-.66h1.1l.35-1,.35,1h1.1Zm0-5.61.32,1-.9-.63-.9.63.32-1-.88-.66h1.1l.35-1,.35,1h1.1Zm0-5.61.32,1-.9-.63-.9.63.32-1-.88-.66h1.1l.35-1,.35,1h1.1Zm4.4,20.53-.9-.63-.9.63.32-1-.88-.66h1.1l.35-1,.35,1h1.1l-.88.66Zm-.32-6.63.32,1-.9-.63-.9.63.32-1-.88-.66h1.1l.35-1,.35,1h1.1Zm0-5.58.32,1-.9-.63-.9.63.32-1-.88-.66h1.1l.35-1,.35,1h1.1Zm0-5.58.32,1-.9-.63-.9.63.32-1L42.39,40h1.1l.35-1,.35,1h1.1Zm0-5.58.32,1-.9-.63-.9.63.32-1-.88-.66h1.1l.35-1,.35,1h1.1Zm4.4,20.7-.9-.63-.9.63.32-1L46.46,54h1.1l.35-1,.35,1h1.1l-.88.66Zm-.33-6.66.33,1-.9-.63-.9.63.32-1-.88-.66h1.1l.35-1,.35,1h1.1Zm0-5.61.33,1-.9-.63-.9.63.32-1-.88-.66h1.1l.35-1,.35,1h1.1Zm0-5.61.33,1-.9-.63-.9.63.32-1-.88-.66h1.1l.35-1,.35,1h1.1Zm4.4,20.53-.9-.63-.9.63.32-1-.88-.66h1.1l.35-1,.35,1h1.1l-.88.66Zm-.32-6.63.32,1-.9-.63-.9.63.32-1-.88-.66h1.1l.35-1,.35,1h1.1Zm0-5.58.32,1-.9-.63-.9.63.32-1-.88-.66h1.1l.35-1,.35,1h1.1Zm0-5.58.32,1L52,41l-.9.63.32-1L50.53,40h1.1l.35-1,.35,1h1.1Zm0-5.58.32,1-.9-.63-.9.63.32-1-.88-.66h1.1l.35-1,.35,1h1.1Z"/><path class="cls-1" d="M183.83,75h0l-77.14.27v3.1l77.15-.27a1.55,1.55,0,0,0,0-3.1Z"/><path class="cls-1" d="M209.43,59.93a4.82,4.82,0,0,0-4.81-4.79h0l-97.93.11v6.21l96.54-.11v65.17H66.68l.11-43.84H60.58l-.11,45.25a4.81,4.81,0,0,0,4.8,4.79H204.63a4.82,4.82,0,0,0,4.79-4.82Z"/><path class="cls-1" d="M137.13,116.09a15,15,0,0,1-7.58-1.84l-.08,0c-5,2.52-10.29,2.29-15.94-.73a1,1,0,1,1,.94-1.76c4.74,2.53,9.13,2.91,13.27,1.1a8.24,8.24,0,0,1-2.18-7.09,8.75,8.75,0,0,1,2.4-4.92,6.7,6.7,0,0,1,5.9-1.72,4.83,4.83,0,0,1,3.58,2.79c1,2.41.31,5.33-1.87,7.63a25,25,0,0,1-4.09,3.51,16.2,16.2,0,0,0,9.21.73,20.15,20.15,0,0,0,5.57-2.17l-.23-.3a9.72,9.72,0,0,1-2.13-7.07,6.31,6.31,0,0,1,8-4.92,4.29,4.29,0,0,1,3,2.61,5.9,5.9,0,0,1-.46,4.91,18,18,0,0,1-5,5.16,7.5,7.5,0,0,0,3.83,1.88,12.61,12.61,0,0,0,8.51-1.73,19.3,19.3,0,0,0,7.23-6.3c.52-.73,1.47-2.78.85-4.17a2.68,2.68,0,0,0-1.81-1.27,1,1,0,0,1-1-1,1,1,0,0,1,1-1,4.58,4.58,0,0,1,3.54,2.46c1.06,2.38-.4,5.25-1.06,6.15a21.19,21.19,0,0,1-7.89,6.89,14.6,14.6,0,0,1-9.72,2,9.82,9.82,0,0,1-5.31-2.74,22.56,22.56,0,0,1-6.55,2.63A20.63,20.63,0,0,1,137.13,116.09ZM132.6,101a4.76,4.76,0,0,0-3.25,1.29,6.91,6.91,0,0,0-1.81,3.81,6.26,6.26,0,0,0,2.08,5.78,22.08,22.08,0,0,0,4.51-3.72c1.62-1.71,2.19-3.8,1.48-5.47a2.88,2.88,0,0,0-2.15-1.61A4.3,4.3,0,0,0,132.6,101Zm17.51.07a4.29,4.29,0,0,0-4.22,3.52,7.75,7.75,0,0,0,1.78,5.54l.33.43a16.2,16.2,0,0,0,4.71-4.76,3.88,3.88,0,0,0,.3-3.14,2.3,2.3,0,0,0-1.65-1.41A4.63,4.63,0,0,0,150.11,101Z"/><path class="cls-1" d="M80.56,91a1.56,1.56,0,0,1,0-3.13l91.73-.36h0a1.56,1.56,0,0,1,0,3.13L80.57,91Z"/></g></svg>