<svg xmlns="http://www.w3.org/2000/svg" viewBox="0 0 200 90"><defs><style>.cls-1{fill:#1e5748;}.cls-2{fill:none;stroke:#1e5748;stroke-linecap:round;stroke-linejoin:round;stroke-width:4px;}</style></defs><title>whatIsRenewal</title><g id="ARTWORK"><path class="cls-1" d="M77.42,38.56v1.72a7,7,0,0,0-6.73,7.21,5.84,5.84,0,0,0,2,4.64C75.11,54.21,80,54.65,80,54.65c2.56.11,3.66,1.52,3.73,2.66a2.44,2.44,0,0,1-1,2.21,6,6,0,0,1-3.66.95,6.63,6.63,0,0,1-5.3-2,2.72,2.72,0,0,0-3.67,0,2.68,2.68,0,0,0,0,3.67,11.15,11.15,0,0,0,7.31,3.42v1.37a1.53,1.53,0,0,0,1.69,1.64,1.58,1.58,0,0,0,1.7-1.69V65.53A11.1,11.1,0,0,0,86.65,63a7.61,7.61,0,0,0,2.23-5.68,6.87,6.87,0,0,0-2.71-5.53,9.49,9.49,0,0,0-5.39-2.24L77.84,49c-.89-.13-2-.51-2-1.56a2.21,2.21,0,0,1,2.35-2,6.56,6.56,0,0,1,4.35,1.34,2.62,2.62,0,0,0,3.67-.18,2.79,2.79,0,0,0-.18-3.68,10.26,10.26,0,0,0-5.26-2.45v-1.9a1.56,1.56,0,0,0-1.69-1.71A1.73,1.73,0,0,0,77.42,38.56Z"/><path class="cls-1" d="M104.24,37.85V21.15a1.67,1.67,0,0,0-1.67-1.67h-5a1.67,1.67,0,0,0-1.67,1.67v8.38L82.46,16.14c-2.34-2.34-4.29-2.39-6.59-.08l-30,30s5.75.05,8.39.06l1.25-.1,2.69-2.51h0l21-20.83,21.62,20.74h0L103.51,46l.74.18h8.33Z"/><polyline class="cls-2" points="102.43 41.38 102.43 77.89 55.93 77.89 55.93 41.8"/><path class="cls-1" d="M146.49,24.62H126.17A8.11,8.11,0,0,0,118,32.75V61.2h28.45a8.11,8.11,0,0,0,8.13-8.13V32.75A8.11,8.11,0,0,0,146.49,24.62ZM123.63,37a1,1,0,0,1,.56-1.31,1,1,0,0,1,1.31.56l.87,2.18a11.66,11.66,0,0,1,4-4.73,10.55,10.55,0,0,1,8.26-1.65,10.88,10.88,0,0,1,8.12,8.52,1,1,0,0,1-.15.76,1,1,0,0,1-1.83-.38A8.86,8.86,0,0,0,138.19,34a8.51,8.51,0,0,0-6.68,1.34,9.66,9.66,0,0,0-3.36,4l2.44-1a1,1,0,1,1,.75,1.87L127,42a1.27,1.27,0,0,1-.47.09,1.27,1.27,0,0,1-1.18-.8Zm24.94,13.46A1,1,0,0,1,148,51a1,1,0,0,1-1.31-.56l-.87-2.18a11.66,11.66,0,0,1-4,4.73,10.61,10.61,0,0,1-6,1.9,10.34,10.34,0,0,1-2.26-.25,10.88,10.88,0,0,1-8.12-8.52,1,1,0,0,1,.15-.76,1,1,0,0,1,1.83.38A8.87,8.87,0,0,0,134,52.65a8.53,8.53,0,0,0,6.68-1.34,9.67,9.67,0,0,0,3.36-4l-2.44,1a1,1,0,0,1-1.31-.56,1,1,0,0,1,.56-1.31l4.33-1.73a1.27,1.27,0,0,1,1.65.71l1.73,4.33A1,1,0,0,1,148.57,50.45Z"/></g></svg>