<svg xmlns="http://www.w3.org/2000/svg" viewBox="0 0 201 90"><defs><style>.cls-1{fill:#1e5748;}.cls-2,.cls-3,.cls-4{fill:none;stroke:#1e5748;stroke-linejoin:round;}.cls-2,.cls-4{stroke-linecap:round;}.cls-2{stroke-width:2px;}.cls-3,.cls-4{stroke-width:3px;}</style></defs><title>whatIsRefinancing</title><g id="ARTWORK"><path class="cls-1" d="M78.47,28.13v.56A2.26,2.26,0,0,0,76.3,31a1.89,1.89,0,0,0,.63,1.5,5.17,5.17,0,0,0,2.37.81c.83,0,1.18.49,1.21.86a.79.79,0,0,1-.31.72,1.93,1.93,0,0,1-1.18.31,2.14,2.14,0,0,1-1.71-.64.88.88,0,0,0-1.19,0,.87.87,0,0,0,0,1.19,3.61,3.61,0,0,0,2.36,1.11v.44a.5.5,0,0,0,.55.53.51.51,0,0,0,.55-.55v-.44A3.59,3.59,0,0,0,81.46,36a2.46,2.46,0,0,0,.72-1.84,2.22,2.22,0,0,0-.88-1.79,3.07,3.07,0,0,0-1.74-.72l-1-.16c-.29,0-.63-.16-.63-.5a.72.72,0,0,1,.76-.66,2.12,2.12,0,0,1,1.41.43.85.85,0,0,0,1.19-.06.9.9,0,0,0-.06-1.19,3.32,3.32,0,0,0-1.7-.79v-.62a.5.5,0,0,0-.55-.55A.56.56,0,0,0,78.47,28.13Z"/><path class="cls-1" d="M87.15,27.9V22.5a.54.54,0,0,0-.54-.54H85a.54.54,0,0,0-.54.54v2.71L80.1,20.88a1.29,1.29,0,0,0-2.13,0l-9.72,9.72,2.71,0,.4,0,.87-.81h0L79.05,23l7,6.71h0l.87.81.24.06h2.69Z"/><path class="cls-1" d="M87.22,29.08v0a.65.65,0,1,0-1.31,0v7.41h0v3.76H72.17v-11a.65.65,0,1,0-1.31,0V40.85a.65.65,0,0,0,.65.65H86.57a.65.65,0,0,0,.65-.65V29.17A.65.65,0,0,0,87.22,29.08Z"/><line class="cls-2" x1="69.87" y1="48.91" x2="93.96" y2="48.91"/><line class="cls-2" x1="69.87" y1="58.26" x2="93.96" y2="58.26"/><line class="cls-2" x1="69.87" y1="67.61" x2="103.96" y2="67.61"/><path class="cls-1" d="M111.07,67.5v9.42H62.48V13.27H94V27a3.26,3.26,0,0,0,3.25,3.25h13.85V46l3-3V28.45a1.52,1.52,0,0,0-.4-1L98.27,10.71a1.52,1.52,0,0,0-1.12-.49H62a2.61,2.61,0,0,0-2.6,2.6V77.35A2.61,2.61,0,0,0,62,80h49.47a2.61,2.61,0,0,0,2.6-2.6V66.49Z"/><polygon class="cls-3" points="123.11 59.47 113.02 49.37 107.95 64.5 123.11 59.47"/><rect class="cls-3" x="122.72" y="25.95" width="14.28" height="33.36" transform="translate(68.18 -79.34) rotate(45)"/><line class="cls-4" x1="131.15" y1="31.14" x2="140.86" y2="40.85"/><line class="cls-4" x1="128.18" y1="34.12" x2="137.89" y2="43.83"/></g></svg>