<svg xmlns="http://www.w3.org/2000/svg" viewBox="0 0 200 90"><title>businessAdvice</title><g id="08e3aa85-f0d5-448c-8e19-6d84fd60d179" data-name="ARTWORK"><path d="M118.33,62.63l-16.12-5.79c-.54-.19-1.29-.43-2.12-.67l-5,20.31-4-14.12,3.23-5.8a.58.58,0,0,0,0-.57.5.5,0,0,0-.45-.3H84a.51.51,0,0,0-.46.3.58.58,0,0,0,0,.57l3.23,5.8L82.88,76.21,77.63,55.65c-1.38.33-2.75.73-4.09,1.19L57.41,62.63c-2.85,1.09-3.4,3.16-3.49,5.42,0,.76,0,1.53,0,2.3v3.86c0,3.44,2.15,5.79,5.3,5.79h57.33c3.15,0,5.38-2.35,5.38-5.79V70.35C121.92,67.28,121.84,63.92,118.33,62.63Z" style="fill:#1e5748"/><path d="M89.46,54.5a13.88,13.88,0,0,0,12.08-6.81A24,24,0,0,0,105.06,35c0-11-5.69-17.28-15.6-17.28S73.84,24.19,73.84,35C73.85,44.4,78.73,54.5,89.46,54.5Zm4.42-32.59a9.87,9.87,0,0,1,6.57,6.37,19.32,19.32,0,0,1-7.58-4.38C93.44,22.88,93.78,22.15,93.88,21.91ZM77.41,35c0-11.94,7.55-13.72,12-13.72a16.6,16.6,0,0,1,2.64.22c-1,2.13-6.43,12.39-14.69,13.82ZM92,25.49A21.65,21.65,0,0,0,101,30.32,22.4,22.4,0,0,1,101.5,35c0,6.41-3.2,15.93-12,15.93-8.46,0-11.4-7.91-12-13.83C84.45,36,89.4,29.66,92,25.49Z" style="fill:#1e5748"/><path d="M130.11,10.22c-9.88,0-18,6.45-18,15.06a13.66,13.66,0,0,0,5.62,10.94V47l9.69-7a22.09,22.09,0,0,0,2.59.17c9.89,0,17.91-6.26,17.91-14.87S140,10.22,130.11,10.22Zm-4.72,18.39a2.68,2.68,0,1,1,2.67-2.68A2.68,2.68,0,0,1,125.39,28.61Zm9.23,0a2.68,2.68,0,1,1,2.68-2.68A2.68,2.68,0,0,1,134.62,28.61Z" style="fill:#1e5748"/></g></svg>