<svg xmlns="http://www.w3.org/2000/svg" viewBox="0 0 200 90"><defs><style>.cls-1{fill:#1e5748;}.cls-2,.cls-3{fill:none;stroke:#1e5748;stroke-miterlimit:10;}.cls-3{stroke-width:1.5px;stroke-dasharray:3 5;}</style></defs><title>TDpublic_illustrations_200x90_02_CreditCards</title><g id="ARTWORK"><path class="cls-1" d="M164.56,77c-.44,0-1,.4-1.47.46-.92.11-3.12.08-4.38.08s-3.46,0-4.38-.08c-.51-.06-1-.46-1.47-.46H133.49v.89a2.1,2.1,0,0,0,1.94,2.25h46.13a2.1,2.1,0,0,0,2.25-2.25V77Z"/><path class="cls-1" d="M138.44,76.07h40.47V52.81a2.24,2.24,0,0,0-2.1-2.37H140.69a2.11,2.11,0,0,0-2.31,2.23C138.45,59.8,138.44,76.07,138.44,76.07Zm1.8-23.72a.77.77,0,0,1,.46-.11h35.77c.62,0,.65.21.65.57V74.27H140.24c0-4.2,0-16-.05-21.61a.58.58,0,0,1,.05-.3Z"/><path class="cls-2" d="M173,59.27H156.12a.14.14,0,0,1,0-.27H173a.14.14,0,0,1,0,.27Z"/><path class="cls-2" d="M173,62.84H156.12a.14.14,0,0,1,0-.27H173a.14.14,0,0,1,0,.27Z"/><path class="cls-2" d="M173,66.41H144.31a.13.13,0,0,1,0-.27H173a.14.14,0,1,1,0,.27Z"/><path class="cls-2" d="M173,70H144.31a.13.13,0,0,1,0-.27H173a.14.14,0,1,1,0,.27Z"/><path class="cls-1" d="M148.85,63.83a4.26,4.26,0,1,0-4.26-4.26h0a4.26,4.26,0,0,0,4.26,4.26Zm-1.57-3.09a.46.46,0,0,1,.6,0,1.07,1.07,0,0,0,1,.36.73.73,0,0,0,.85-.57c0-.48-.7-.57-1.21-.57a1.17,1.17,0,0,1-1.12-1.18,1.21,1.21,0,0,1,1.18-1.24h0v-.33a.27.27,0,0,1,.54,0h0v.36a2.2,2.2,0,0,1,.94.42.4.4,0,0,1,0,.56l0,0a.46.46,0,0,1-.6,0,1.07,1.07,0,0,0-.79-.24.43.43,0,0,0-.42.39c0,.39.88.39.88.39a1.47,1.47,0,0,1,1.45,1.42A1.51,1.51,0,0,1,149.16,62v.27a.27.27,0,0,1-.27.27h0a.27.27,0,0,1-.27-.27h0V62a2,2,0,0,1-1.3-.6.38.38,0,0,1-.07-.53l.07-.07h0Z"/><path class="cls-1" d="M161.78,36.24H147.83a.46.46,0,0,0,0,.92h14a.46.46,0,0,0,0-.92Z"/><path class="cls-1" d="M147.38,27.6a.46.46,0,0,0,.46.46h13.95a.46.46,0,1,0,0-.92h-14A.46.46,0,0,0,147.38,27.6Z"/><path class="cls-1" d="M161.78,31.72H147.83a.46.46,0,1,0,0,.92h13.95a.46.46,0,1,0,0-.92Z"/><path class="cls-1" d="M149.49,23.5v.37a.42.42,0,0,0,.37.46h.08a.43.43,0,0,0,.46-.46V23.5a3,3,0,0,0,1.6-.7,2.08,2.08,0,0,0,.61-1.55,1.88,1.88,0,0,0-.74-1.51,2.6,2.6,0,0,0-1.47-.63l-.8-.15a.51.51,0,0,1-.54-.43.6.6,0,0,1,.64-.56h0a1.8,1.8,0,0,1,1.19.37.71.71,0,0,0,1,0,.77.77,0,0,0-.05-1,2.81,2.81,0,0,0-1.44-.67v-.51a.43.43,0,0,0-.39-.46h-.07a.46.46,0,0,0-.46.46h0v.45a1.91,1.91,0,0,0-1.83,2h0a1.6,1.6,0,0,0,.54,1.27,4.36,4.36,0,0,0,2,.69.92.92,0,0,1,1,.73.67.67,0,0,1-.27.6,1.63,1.63,0,0,1-1,.26,1.83,1.83,0,0,1-1.46-.51.74.74,0,0,0-1,0,.73.73,0,0,0,0,1A3,3,0,0,0,149.49,23.5Z"/><path class="cls-1" d="M165.47,37.48v3.87l-21.07-.08V12h14.66v4.4a2,2,0,0,0,2,2h4.41v9.39A8.28,8.28,0,0,1,167.29,26v-8.3a.92.92,0,0,0,0-.27v-.78A.92.92,0,0,0,167,16l-4.52-4.5h0l-.94-.94a.92.92,0,0,0-.65-.27H144.22a1.69,1.69,0,0,0-1.68,1.69h0V41.4a1.69,1.69,0,0,0,1.67,1.69l21.4.08a1.69,1.69,0,0,0,1.68-1.69h0V39.31A8.28,8.28,0,0,1,165.47,37.48Z"/><path class="cls-1" d="M172.11,25.79A6.91,6.91,0,1,0,179,32.7a6.91,6.91,0,0,0-6.91-6.91Zm4.2,5.05a.8.8,0,0,1-.26.4l-4.64,4.64a.73.73,0,0,1-.45.26h0a.62.62,0,0,1-.31-.18l-2.2-2.19a.83.83,0,0,1-.26-.4.44.44,0,0,1,.18-.41.54.54,0,0,1,.36-.2.73.73,0,0,1,.45.27l1.76,1.82,4.34-4.34a.72.72,0,0,1,.46-.26.52.52,0,0,1,.35.19A.45.45,0,0,1,176.31,30.84Z"/><line class="cls-3" x1="86.9" y1="36.62" x2="129.65" y2="24.47"/><line class="cls-3" x1="86.9" y1="53.34" x2="129.65" y2="65.49"/><polygon class="cls-1" points="66.27 34.84 66.29 34.82 66.77 35.72 66.76 35.73 67.67 37.41 73.81 31.29 69.04 31.28 65.99 34.32 66.27 34.84"/><path class="cls-1" d="M65.33,33.11l1.84-1.83h-2a.48.48,0,0,0-.42.71Z"/><path class="cls-1" d="M76,31.3h-.35l-7.35,7.33.15.27h0l.09.16h3.91L76.34,32a.48.48,0,0,0,0-.47A.46.46,0,0,0,76,31.3Z"/><path class="cls-1" d="M63.83,60.94l-.28,1.21a.48.48,0,0,0,.14.44l.09.08L75.08,51.4,74.76,50h0l-.56-2.47-9.46,9.41Z"/><polygon class="cls-1" points="65.62 64.29 66.23 64.83 67.32 65.79 76.32 56.81 75.72 54.19 75.46 53.06 75.43 52.93 64.78 63.55 65.62 64.29"/><path class="cls-1" d="M76.67,58.34l-8.35,8.33.17.15,1.73,1.53a.48.48,0,0,0,.67,0l6.52-5.75a.48.48,0,0,0,.13-.43l-.82-3.64Z"/><polygon class="cls-1" points="72.62 40.57 72.55 40.3 72.5 40.07 68.58 40.07 67.25 45.92 72.62 40.57"/><polygon class="cls-1" points="65.34 54.28 65.29 54.52 73.85 45.98 72.97 42.1 66.7 48.34 65.34 54.28"/><path class="cls-1" d="M63.56,54.19H22.3v-15H66.39L63.07,33H22.3V26.72H69.74v2.51h2V27a2.46,2.46,0,0,0-2.45-2.45H22.75A2.46,2.46,0,0,0,20.3,27v27a2.46,2.46,0,0,0,2.45,2.45h40.3Z"/></g></svg>