<svg id="Layer_1" data-name="Layer 1" xmlns="http://www.w3.org/2000/svg" viewBox="0 0 200 90">
  <title>Artboard 1</title>
  <g id="ARTWORK">
    <path d="M115.4,46.39a1.07,1.07,0,0,0,.67-.7,1,1,0,0,0-.65-1.25H97.88l.45,2h17Z" style="fill: #1e5748"/>
    <path d="M115.4,54.57a1,1,0,0,0,0-1.95H99.73l.45,2h15.21Z" style="fill: #1e5748"/>
    <path d="M115.4,36.24H101.23l-1,2h15.21a1,1,0,0,0,0-2Z" style="fill: #1e5748"/>
    <path d="M157.5,18H136.67c-6.81,0-10.14,1.6-11.75,3.26C123.32,19.6,120,18,113.18,18H92.36a1.8,1.8,0,0,0-1.79,1.81h0v5.88h1.87V19.83h20.23c9.34,0,9.57,3.41,9.57,3.41V71.17a21.6,21.6,0,0,0-9.56-2.24H102.43l-2.4,2h13.15c4.39,0,8.78,1.88,8.83,2.11a2,2,0,0,0,1.79.65h2.38c.91,0,1,0,1.76-.84a22.37,22.37,0,0,1,8.73-1.92h20.82a1.8,1.8,0,0,0,1.79-1.81h0V19.81A1.8,1.8,0,0,0,157.5,18Zm-27.78,9.78v-1a3.9,3.9,0,0,0,2.36-1.37h1.26V34H131.2v-4.6a8,8,0,0,0,0-1.2.45.45,0,0,0-.26-.31,2.73,2.73,0,0,0-1-.1Zm3,14.15a.41.41,0,0,0-.36-.17A.4.4,0,0,0,132,42a1.6,1.6,0,0,0-.12.76v.82h-1.92v-.31a6.77,6.77,0,0,1,.07-1.14,2,2,0,0,1,.37-.82,1.84,1.84,0,0,1,.76-.61,2.76,2.76,0,0,1,1.12-.21,2.68,2.68,0,0,1,1.93.63,2.14,2.14,0,0,1,.66,1.6,3.81,3.81,0,0,1-.37,1.56,32,32,0,0,1-2.17,3.49h2.35v1.46h-4.71V48q2.09-3.43,2.49-4.24a3.21,3.21,0,0,0,.39-1.27A.93.93,0,0,0,132.71,41.93Zm2.08,21.48a1.66,1.66,0,0,1-.81.86,3.2,3.2,0,0,1-1.47.29,3.16,3.16,0,0,1-1.6-.34,1.66,1.66,0,0,1-.76-.84,5.58,5.58,0,0,1-.18-1.72V61h2.14v1.39a2.27,2.27,0,0,0,.07.71.29.29,0,0,0,.29.15.32.32,0,0,0,.33-.19,3.57,3.57,0,0,0,.08-1v-.59a1.74,1.74,0,0,0-.11-.72.55.55,0,0,0-.33-.3,3.41,3.41,0,0,0-.84-.08V59.11a4.39,4.39,0,0,0,.94-.06.41.41,0,0,0,.26-.25,1.76,1.76,0,0,0,.08-.62v-.48a1.25,1.25,0,0,0-.09-.59.38.38,0,0,0-.59,0,1.6,1.6,0,0,0-.08.64v.71H130v-.73a2,2,0,0,1,.56-1.66,3,3,0,0,1,1.79-.43,2.78,2.78,0,0,1,2.08.6,2.38,2.38,0,0,1,.55,1.66,2.08,2.08,0,0,1-.2,1,1.75,1.75,0,0,1-.69.59,1.33,1.33,0,0,1,.73.54,4,4,0,0,1,.24,1.75A4.28,4.28,0,0,1,134.8,63.42Zm5.41-2.25H138V60h2.25Zm0-15.21H138V44.77h2.25Zm0-15.2H138V29.57h2.25Zm3.6,30.41h-2.25V60h2.25Zm0-15.21h-2.25V44.77h2.25Zm0-15.2h-2.25V29.57h2.25Zm3.6,30.41h-2.25V60h2.25Zm0-15.21h-2.25V44.77h2.25Zm0-15.2h-2.25V29.57h2.25ZM151,61.17h-2.25V60H151ZM151,46h-2.25V44.77H151Zm0-15.2h-2.25V29.57H151Z" style="fill: #1e5748"/>
    <polygon points="89.12 38.39 89.14 38.37 89.65 39.32 89.64 39.33 90.59 41.09 97.06 34.66 92.04 34.64 88.83 37.84 89.12 38.39" style="fill: #1e5748"/>
    <path d="M88.13,36.57l1.94-1.93H88a.51.51,0,0,0-.44.75Z" style="fill: #1e5748"/>
    <path d="M99.4,34.67H99l-7.7,7.71.16.28h0l.09.17h4.11l4.05-7.47a.51.51,0,0,0,0-.49A.48.48,0,0,0,99.4,34.67Z" style="fill: #1e5748"/>
    <path d="M86.55,65.85l-.29,1.27a.51.51,0,0,0,.15.46l.09.08L98.39,55.81l-.34-1.47h0l-.59-2.6-10,9.9Z" style="fill: #1e5748"/>
    <polygon points="88.44 69.38 89.08 69.94 90.23 70.95 99.7 61.51 99.06 58.75 98.79 57.56 98.76 57.42 87.55 68.6 88.44 69.38" style="fill: #1e5748"/>
    <path d="M100.06,63.12l-8.79,8.76.18.16,1.82,1.61a.51.51,0,0,0,.7,0l6.86-6.05a.51.51,0,0,0,.14-.45l-.86-3.83Z" style="fill: #1e5748"/>
    <polygon points="95.8 44.42 95.73 44.13 95.68 43.89 91.55 43.89 90.15 50.05 95.8 44.42" style="fill: #1e5748"/>
    <polygon points="88.14 58.84 88.09 59.1 97.1 50.11 96.17 46.03 89.57 52.59 88.14 58.84" style="fill: #1e5748"/>
    <path d="M86.27,58.75H42.86V43H89.25l-3.5-6.54H42.86V29.85H92.77v2.64h2.11V30.12a2.59,2.59,0,0,0-2.58-2.58h-49a2.59,2.59,0,0,0-2.58,2.58V58.48a2.59,2.59,0,0,0,2.58,2.58H85.74Z" style="fill: #1e5748"/>
  </g>
</svg>
