<svg xmlns="http://www.w3.org/2000/svg" viewBox="0 0 200 90"><title>onlineChequeService</title><g id="79a99512-3a10-4236-8561-536af06c549b" data-name="ARTWORK"><path d="M112.51,73c-1,0-2.14.88-3.27,1-2,.25-6.94.18-9.73.19s-7.69.06-9.73-.19c-1.14-.13-2.29-1-3.27-1C75,73,55,73,43.51,73v2a4.68,4.68,0,0,0,5,5h102a4.68,4.68,0,0,0,5-5V73C144,73,124,73,112.51,73Z" style="fill:#1e5748"/><path d="M54.48,71h90s0-35.78,0-51.73c0-3.26-2.1-5.26-5.43-5.27H59.5c-2.56,0-5.16,1.38-5.13,5C54.51,34.79,54.48,71,54.48,71Zm4-52.75a1.65,1.65,0,0,1,1-.25h79.56c1.37,0,1.43.46,1.43,1.27,0,12.47,0,38.48,0,47.73h-82c0-9.34,0-35.66-.12-48.07A1.29,1.29,0,0,1,58.49,18.25Z" style="fill:#1e5748"/><path d="M123.89,57.84a.64.64,0,0,1-.63.64H71.13a.64.64,0,0,1-.64-.63l.06-25.37a.64.64,0,0,1,.64-.64l52.06-.06a.64.64,0,0,1,.64.64Z" style="fill:none;stroke:#1e5748;stroke-linecap:round;stroke-linejoin:round;stroke-width:2px"/><path d="M75.17,31.35V27.63a.64.64,0,0,1,.64-.64l52.06-.06a.64.64,0,0,1,.64.64V53a.64.64,0,0,1-.64.64h-3.66" style="fill:none;stroke:#1e5748;stroke-linecap:round;stroke-linejoin:round;stroke-width:2px"/><line x1="77.46" y1="38.75" x2="116.93" y2="38.62" style="fill:none;stroke:#1e5748;stroke-linecap:round;stroke-linejoin:round"/><line x1="77.42" y1="43.39" x2="116.97" y2="43.26" style="fill:none;stroke:#1e5748;stroke-linecap:round;stroke-linejoin:round"/><path d="M86.53,52.55c3.2,1.7,5.75.74,7.8-1.42A2.3,2.3,0,0,0,95,48.68,1.86,1.86,0,0,0,92,48.41,2.85,2.85,0,0,0,91.23,50a2.73,2.73,0,0,0,1.31,2.81,6,6,0,0,0,4,.5,8,8,0,0,0,4.74-3.16,1.49,1.49,0,0,0-.72-2.26,2,2,0,0,0-2.52,1.54,3.93,3.93,0,0,0,3.06,3.91,5.05,5.05,0,0,0,3.41-.69,7.54,7.54,0,0,0,2.83-2.46,2.24,2.24,0,0,0,.36-1.93,1.34,1.34,0,0,0-1-.7" style="fill:none;stroke:#1e5748;stroke-linecap:round;stroke-linejoin:round"/></g></svg>