<svg xmlns="http://www.w3.org/2000/svg" viewBox="0 0 200 90"><defs><style>.cls-1{fill:#1e5748;}</style></defs><title>overdraftProtection</title><g id="Overdraft_Protection" data-name="Overdraft Protection"><path class="cls-1" d="M115.49,14.89H55.61a3.72,3.72,0,0,0-3.72,3.72v5.05H48a3.72,3.72,0,0,0-3.72,3.72V33H37a2,2,0,0,0-2,2V68a2,2,0,0,0,2,2h64.35a2,2,0,0,0,2-2V61.28h4.53a3.72,3.72,0,0,0,3.72-3.72V52.52h3.89a3.72,3.72,0,0,0,3.72-3.72V18.61A3.72,3.72,0,0,0,115.49,14.89ZM38,66.84V36.21h62.35V66.84Zm70.6-9.28a.72.72,0,0,1-.72.72h-4.53V35a2,2,0,0,0-2-2H47.29V27.37a.72.72,0,0,1,.72-.72h59.87a.72.72,0,0,1,.72.72Zm7.6-8.77a.72.72,0,0,1-.72.72H111.6V27.37a3.72,3.72,0,0,0-3.72-3.72h-53V18.61a.72.72,0,0,1,.72-.72h59.87a.72.72,0,0,1,.72.72Z"/><path class="cls-1" d="M73.83,50.81a6.27,6.27,0,0,0-3.56-1.48L68.33,49c-.59-.09-1.3-.34-1.3-1a1.46,1.46,0,0,1,1.55-1.35,4.33,4.33,0,0,1,2.87.89A1.68,1.68,0,0,0,72.6,48a1.79,1.79,0,0,0,1.28-.56,1.69,1.69,0,0,0,.44-1.23,1.72,1.72,0,0,0-.56-1.2,7.07,7.07,0,0,0-3.48-1.62V42.09A1.09,1.09,0,0,0,70,41.3a1.12,1.12,0,0,0-.81-.34,1.14,1.14,0,0,0-1.12,1.12v1.14A4.61,4.61,0,0,0,63.61,48a3.85,3.85,0,0,0,1.3,3.07,6.06,6.06,0,0,0,2.88,1.35l2,.32a3.22,3.22,0,0,1,1.86.69c.56.47.6.72.6,1.06a1.7,1.7,0,0,1-.64,1.46,4,4,0,0,1-2.42.63,4.31,4.31,0,0,1-3.5-1.31,1.72,1.72,0,0,0-2.43,2.43,7.37,7.37,0,0,0,4.83,2.26v.9a1.11,1.11,0,0,0,1.09,1.08h.07a1.1,1.1,0,0,0,1.08-1.12v-.9a6.75,6.75,0,0,0,3.37-1.26,4.56,4.56,0,0,0,.5-.43,5.18,5.18,0,0,0,1.47-3.75A4.54,4.54,0,0,0,73.83,50.81Z"/><path class="cls-1" d="M165.53,41.23a1.5,1.5,0,0,0-1.19-.35,19.58,19.58,0,0,1-16.74-5.93,1.5,1.5,0,0,0-1.06-.44h0a1.5,1.5,0,0,0-1.06.44,19.94,19.94,0,0,1-16.76,6,1.5,1.5,0,0,0-1.7,1.49c0,27.73,9.58,32.59,18.84,37.29a1.51,1.51,0,0,0,1.38,0C156.48,74.9,166,69.9,166,42.36A1.5,1.5,0,0,0,165.53,41.23Zm-19,35.49c-8.4-4.28-16.16-8.84-16.5-32.62a22.94,22.94,0,0,0,16.51-6A22.5,22.5,0,0,0,163,44C162.69,67.63,154.92,72.31,146.52,76.71Z"/><path class="cls-1" d="M158.86,46.86a21.55,21.55,0,0,1-11.73-4.41,1,1,0,0,0-1.21,0,21.92,21.92,0,0,1-11.74,4.45,1,1,0,0,0-.93,1c.68,17.2,6,21.3,12.79,24.88a1,1,0,0,0,.94,0c6.59-3.55,12.1-7.88,12.82-24.91A1,1,0,0,0,158.86,46.86Z"/></g></svg>