<svg xmlns="http://www.w3.org/2000/svg" viewBox="0 0 200 90"><title>protectBusinessAgainstFraud</title><g id="82c59777-7fe1-48b1-97e3-5f8566e5bc94" data-name="ARTWORK"><path d="M116.33,79.89H41.92a2.12,2.12,0,0,1,0-4.22h74.41a2.12,2.12,0,0,1,0,4.22Z" style="fill:#1e5748"/><path d="M102.38,16.83H54.73L45.25,33.31V39a7.37,7.37,0,0,0,4,6.53V79H85V42.47a7.35,7.35,0,0,0,13,0,7.35,7.35,0,0,0,6.49,3.9h0V79h3.36V45.55a7.36,7.36,0,0,0,4-6.53V33.31ZM60.43,34.09l4.7-14.29h7.46L71,34v4.08a5.3,5.3,0,1,1-10.6,0v-4ZM81.88,75.9H52.6V46.37a7.35,7.35,0,0,0,6.49-3.9,7.35,7.35,0,0,0,13,0,7.31,7.31,0,0,0,9.81,3.09V75.9ZM96.67,38.09a5.3,5.3,0,1,1-10.6,0V34L84.51,19.8H92l4.69,14.29v4Z" style="fill:#1e5748"/><path d="M70.09,51.59l1.14,1.23L57.42,66.53,56.2,65.38Z" style="fill:#1e5748"/><path d="M57.5,59.85l-1.3-1.49,6.89-6.67L64.24,53Z" style="fill:#1e5748"/><path d="M69.92,58.43l1.16,1.42L64.3,66.53l-1.11-1.41Z" style="fill:#1e5748"/><circle cx="97.4" cy="55.88" r="1.84" style="fill:#1e5748"/><circle cx="97.4" cy="62.92" r="1.84" style="fill:#1e5748"/><rect x="96.87" y="57.09" width="1.05" height="7.37" style="fill:#1e5748"/><path d="M159.61,31.38a1,1,0,0,0-.79-.23,18.8,18.8,0,0,1-16.06-5.68,1,1,0,0,0-.71-.3h0a1,1,0,0,0-.7.3,19.16,19.16,0,0,1-16.07,5.76,1,1,0,0,0-1.12.86s0,.09,0,.14c0,25.76,8.87,30.26,17.45,34.62a1,1,0,0,0,.45.11.94.94,0,0,0,.47-.12c8.57-4.48,17.44-9.11,17.44-34.7A1,1,0,0,0,159.61,31.38ZM142.05,64.83c-8.12-4.12-15.67-8.38-15.9-31.51a21.06,21.06,0,0,0,15.9-5.77A20.74,20.74,0,0,0,158,33.25C157.73,56.22,150.17,60.58,142.05,64.83Z" style="fill:#1e5748"/><path d="M142.09,40.84A2.19,2.19,0,0,0,139.9,43v1.38h4.39V43a2.19,2.19,0,0,0-2.19-2.19Z" style="fill:#1e5748"/><path d="M155,35.27a22.77,22.77,0,0,1-12.31-4.57,1,1,0,0,0-1.2,0,23.07,23.07,0,0,1-12.31,4.67,1,1,0,0,0-.93,1c.71,18,6.22,22.26,13.36,26a1.07,1.07,0,0,0,.46.11.94.94,0,0,0,.47-.12c6.88-3.71,12.64-8.23,13.39-26a1,1,0,0,0-.9-1.09ZM147,51.07a1,1,0,0,1-1,1h-7.86a1,1,0,0,1-1-1V45.4a1,1,0,0,1,.95-1h.2V43a3.9,3.9,0,0,1,7.8,0v1.36h0a1.05,1.05,0,0,1,1,1Z" style="fill:#1e5748"/></g></svg>