<svg xmlns="http://www.w3.org/2000/svg" viewBox="0 0 200 90"><title>smallBusinessBankingCommitment</title><g id="70c8a787-42b5-44ed-a0ef-0b25defc34c1" data-name="ARTWORK"><path d="M150.08,49.5A4.18,4.18,0,0,1,148,52a4.25,4.25,0,0,1-3.2.28,4.2,4.2,0,0,1-1.26-.65,4,4,0,0,0-4.69,0,4.19,4.19,0,0,1-6.49-2.09,3.77,3.77,0,0,0-.77-1.37V66.19a.53.53,0,0,0,.28.47.57.57,0,0,0,.25.06.53.53,0,0,0,.3-.09l9-6.1,8.64,6.09a.53.53,0,0,0,.84-.43V48.08A3.86,3.86,0,0,0,150.08,49.5Z" style="fill:#1e5748"/><path d="M158.72,33a1.7,1.7,0,0,0-.71-1.13,6.43,6.43,0,0,1-2.35-7.3,2,2,0,0,0,.09-.59,1.71,1.71,0,0,0-.53-1.22,1.89,1.89,0,0,0-1.23-.49h-.16a6.42,6.42,0,0,1-6.08-4.49,1.88,1.88,0,0,0-.27-.55,1.75,1.75,0,0,0-2.44-.39,6.36,6.36,0,0,1-7.61,0,1.9,1.9,0,0,0-.53-.27,1.75,1.75,0,0,0-2.19,1.15,6.37,6.37,0,0,1-6.11,4.49h-.09a1.9,1.9,0,0,0-.58.09,1.75,1.75,0,0,0-1.08,2.21,6.42,6.42,0,0,1-2.36,7.3,2,2,0,0,0-.41.41,1.75,1.75,0,0,0,.42,2.43A6.44,6.44,0,0,1,126.85,42a1.85,1.85,0,0,0-.09.58,1.74,1.74,0,0,0,.53,1.23,1.89,1.89,0,0,0,1.23.49h.08a6.43,6.43,0,0,1,6.11,4.48,1.41,1.41,0,0,0,.26.5,1.74,1.74,0,0,0,2.44.37,6.37,6.37,0,0,1,7.62,0,1.4,1.4,0,0,0,.53.27,1.74,1.74,0,0,0,2.19-1.14A6.43,6.43,0,0,1,154,44.29h0a1.78,1.78,0,0,0,.52-.09,1.73,1.73,0,0,0,1.1-2.19,6.55,6.55,0,0,1-.33-2.07h0A6.43,6.43,0,0,1,158,34.73a1.69,1.69,0,0,0,.4-.4A1.71,1.71,0,0,0,158.72,33Zm-13.07,2.09,1.08,6.29-5.65-3-5.65,3,1.08-6.29-4.57-4.46,6.31-.92L141.08,24l2.82,5.72,6.32.92Z" style="fill:#1e5748"/><path d="M118.43,80.57H42.78a2.15,2.15,0,0,1,0-4.29h75.65a2.15,2.15,0,0,1,0,4.29Z" style="fill:#1e5748"/><path d="M104.25,16.45H55.8L46.16,33.2V39a7.48,7.48,0,0,0,4.05,6.64v34H86.62V42.52a7.47,7.47,0,0,0,13.2,0,7.47,7.47,0,0,0,6.6,4h0V79.62h3.41v-34A7.47,7.47,0,0,0,113.89,39V33.2ZM61.6,34l4.77-14.53H74L72.38,33.92v4.15a5.39,5.39,0,0,1-10.78,0V34ZM83.4,76.51H53.63v-30a7.48,7.48,0,0,0,6.6-4,7.47,7.47,0,0,0,13.2,0,7.46,7.46,0,0,0,6.59,4,7.38,7.38,0,0,0,3.38-.83V76.51Zm15-38.44a5.39,5.39,0,1,1-10.77,0V33.92L86.08,19.47h7.59L98.45,34v4.07Z" style="fill:#1e5748"/><path d="M71.42,51.79l1.16,1.26L58.53,67,57.3,65.82Z" style="fill:#1e5748"/><path d="M58.61,60.19,57.3,58.68l7-6.79,1.17,1.38Z" style="fill:#1e5748"/><path d="M71.24,58.75l1.19,1.44L65.53,67,64.4,65.56Z" style="fill:#1e5748"/><circle cx="99.18" cy="56.15" r="1.88" style="fill:#1e5748"/><circle cx="99.18" cy="63.31" r="1.88" style="fill:#1e5748"/><rect x="98.65" y="57.38" width="1.07" height="7.5" style="fill:#1e5748"/></g></svg>