<svg xmlns="http://www.w3.org/2000/svg" viewBox="0 0 200 90"><title>toolsToGrowBusiness</title><g id="fbc04859-cec3-4908-8f70-a096420c0f61" data-name="ARTWORK"><g id="6452f1c9-7480-422d-a56c-806ea146dff8" data-name=" Group "><path d="M126.16,68.34a1.27,1.27,0,0,1,0,1.81l0,0a1.3,1.3,0,1,1,0-1.84Z" style="fill:#1e5748"/><path d="M128.08,74a5.36,5.36,0,1,1-7.62-7.53l27-27.29a12.56,12.56,0,0,1,6.8-15.89l1.87-.81.09,13.09,3,2,3-2-.09-13.09,1.88.79a12.57,12.57,0,0,1-4.65,24.12,13.06,13.06,0,0,1-4.24-.71Zm-5.69-1.87a2.67,2.67,0,0,0,3.77,0l0,0,1-1,27.28-27.59.85.36a9.69,9.69,0,0,0,3.93.83h.07a9.89,9.89,0,0,0,9-6,9.46,9.46,0,0,0,.78-3.89,9.87,9.87,0,0,0-4.22-8L165,37l-5.63,3.78-5.75-3.76-.11-10.21a10,10,0,0,0-4.11,8.09,9.69,9.69,0,0,0,.9,4l.38.85L123.36,67.42l-1,1a2.7,2.7,0,0,0,0,3.75Z" style="fill:#1e5748"/></g><path d="M162.26,64.65,149.13,52l-7.67,7.67,12.67,13.16a3.84,3.84,0,0,0,2.77,1.22,3.74,3.74,0,0,0,2.67-1.11l2.81-2.86a3.7,3.7,0,0,0,1.08-2.76A3.77,3.77,0,0,0,162.26,64.65Z" style="fill:#1e5748"/><path d="M137.31,51.22l-11.58-11.6,3.38-3.33,11.56,11.56,1.9-1.9-11-11a3.6,3.6,0,0,0-.58-3l-.06-.08a1.63,1.63,0,0,1,.24-.94c.36-.68,1.68-2.34,6.05-3.11,2-.38,3.08-1.33,3.19-2.83.06-.83-.18-2.35-2.5-3.16a11.81,11.81,0,0,0-3.69-.58c-5.06,0-10.58,2.94-16.41,8.73l-.14.15a15.89,15.89,0,0,0-3.59,6.11h-.32a4.19,4.19,0,0,0-3,1.23,4.29,4.29,0,0,0-.06,6l.09.1,3.67,3.57a4.22,4.22,0,0,0,3,1.22,4.33,4.33,0,0,0,2.94-1.15l.08-.08a4.19,4.19,0,0,0,1.12-3.95c.29-.23.58-.45.82-.61a2.91,2.91,0,0,0,.59,0,4.22,4.22,0,0,0,1.57-.31l10.83,10.91Zm-18.73-6a1.63,1.63,0,0,1-1.13.45,1.54,1.54,0,0,1-1.09-.45l-3.68-3.63a1.61,1.61,0,0,1,0-2.22,1.52,1.52,0,0,1,2.11,0l3.9,4,.1.07a1.5,1.5,0,0,1-.21,1.74Zm5.19-5.51a1.67,1.67,0,0,1-.76.22,1,1,0,0,1-.48-.12.53.53,0,0,0-.25,0c-.8,0-2.19,1.16-3.21,2l-2.88-3c.31-.49.55-1,.49-1.16-.49-1.73,3-5.79,3-5.79,6.44-6.4,11.29-8,14.51-8a8.85,8.85,0,0,1,2.8.43c1.08.38.87.6-.27.81-8.39,1.46-9.42,6.44-8,8.33a1.09,1.09,0,0,1,0,1.2Z" style="fill:#1e5748"/><path d="M96.15,80H34.26a2.09,2.09,0,0,1,0-4.17H96.15a2.09,2.09,0,0,1,0,4.17Z" style="fill:#1e5748"/><path d="M88.74,16.75H41.57L32.19,33.06v5.66a7.27,7.27,0,0,0,3.94,6.46V79l3.33-3V46a7.29,7.29,0,0,0,6.43-3.86,7.28,7.28,0,0,0,12.85,0A7.28,7.28,0,0,0,65.16,46a11.92,11.92,0,0,0,1.8-.14,6.11,6.11,0,0,0,2-.83,6.76,6.76,0,0,0,2.67-2.89,7.28,7.28,0,0,0,12.85,0A7.28,7.28,0,0,0,90.85,46V79h3.33V45.18a7.28,7.28,0,0,0,3.95-6.46V33.06Zm-31,17v4a5.25,5.25,0,1,1-10.49,0v-4h0l4.65-14.15h7.39Zm25.38,4h0a5.25,5.25,0,1,1-10.49,0v-4L71.06,19.69h7.39L83.1,33.84Z" style="fill:#1e5748"/><path d="M64.79,65.71c-3.59,0-6.5-1.16-6.5-2.6v2.6c0,1.44,2.91,2.6,6.5,2.6s6.5-1.18,6.5-2.61V63.1C71.29,64.53,68.37,65.71,64.79,65.71Z" style="fill:#1e5748"/><ellipse cx="64.79" cy="61.32" rx="6.5" ry="2.6" transform="translate(-0.06 0.07) rotate(-0.06)" style="fill:#1e5748"/><path d="M64.79,70.1c-3.59,0-6.49-1.16-6.5-2.59v2.6c0,1.43,2.91,2.59,6.5,2.59s6.5-1.17,6.49-2.61v-2.6C71.29,68.93,68.38,70.1,64.79,70.1Z" style="fill:#1e5748"/><path d="M48.68,70.1c-3.59,0-6.5-1.16-6.5-2.59v2.6c0,1.43,2.91,2.6,6.5,2.59s6.5-1.17,6.5-2.61v-2.6C55.18,68.93,52.26,70.1,48.68,70.1Z" style="fill:#1e5748"/><ellipse cx="48.68" cy="65.71" rx="6.5" ry="2.6" transform="translate(-0.07 0.05) rotate(-0.06)" style="fill:#1e5748"/><path d="M81,65.64c-3.58,0-6.5-1.15-6.5-2.59v2.6c0,1.43,2.92,2.59,6.5,2.59s6.5-1.17,6.5-2.61V63C87.45,64.47,84.54,65.63,81,65.64Z" style="fill:#1e5748"/><path d="M81,56.85c-3.59,0-6.5-1.15-6.5-2.59v2.6c0,1.44,2.91,2.59,6.5,2.59s6.5-1.17,6.5-2.6v-2.6C87.45,55.68,84.53,56.85,81,56.85Z" style="fill:#1e5748"/><path d="M81,61.28c-3.59,0-6.5-1.16-6.5-2.59v2.59c0,1.44,2.91,2.59,6.5,2.59s6.5-1.19,6.5-2.59V58.64C87.45,60.08,84.54,61.28,81,61.28Z" style="fill:#1e5748"/><ellipse cx="80.95" cy="52.46" rx="6.5" ry="2.6" transform="translate(-0.05 0.08) rotate(-0.06)" style="fill:#1e5748"/><path d="M80.83,72.7c3.6,0,6.5-1.17,6.5-2.61V67.47c0,1.43-2.9,2.6-6.49,2.61s-6.5-1.16-6.5-2.6v2.6C74.33,71.51,77.25,72.7,80.83,72.7Z" style="fill:#1e5748"/></g></svg>